<svg width="591" height="403" viewBox="0 0 591 403" fill="none" xmlns="http://www.w3.org/2000/svg">
<path d="M253.202 35.2718C253.095 35.3188 252.978 35.3381 252.861 35.3278C251.585 35.1972 250.881 35.1712 250.881 35.1712C250.726 35.1372 250.587 35.0509 250.488 34.9268C250.389 34.8026 250.335 34.6482 250.337 34.4894C250.338 34.3306 250.393 34.1769 250.494 34.0543C250.595 33.9316 250.735 33.8473 250.891 33.8156C250.891 33.8156 251.671 33.8376 253.006 33.9696C253.156 33.9877 253.296 34.0545 253.405 34.1598C253.514 34.2652 253.585 34.4033 253.608 34.553C253.631 34.7027 253.604 34.8558 253.532 34.9888C253.459 35.1218 253.345 35.2274 253.207 35.2895L253.202 35.2718Z" fill="#BBE2F2"/>
<path d="M297.711 60.3781C298.53 61.4413 299.341 62.5452 300.091 63.6681C300.182 63.7991 300.314 63.895 300.467 63.9397C300.62 63.9844 300.783 63.9752 300.93 63.9136L301.053 63.8757C301.203 63.7722 301.305 63.6142 301.339 63.4358C301.373 63.2574 301.335 63.0728 301.234 62.9218C300.459 61.7778 299.639 60.6473 298.815 59.5665C298.698 59.4398 298.538 59.3614 298.366 59.3466C298.194 59.3318 298.023 59.3817 297.886 59.4866C297.749 59.5914 297.656 59.7436 297.625 59.9134C297.594 60.0832 297.628 60.2583 297.72 60.4046L297.711 60.3781Z" fill="#BBE2F2"/>
<path d="M302.264 67.0989C302.943 68.2434 303.609 69.4402 304.24 70.6479C304.32 70.8017 304.455 70.9198 304.618 70.979C304.781 71.0382 304.96 71.0341 305.12 70.9675L305.173 70.9512C305.335 70.8664 305.457 70.7209 305.512 70.5465C305.567 70.3722 305.551 70.1831 305.468 70.0205C304.829 68.7863 304.148 67.5746 303.452 66.4063C303.35 66.269 303.201 66.1744 303.033 66.1406C302.865 66.1069 302.691 66.1364 302.544 66.2235C302.397 66.3106 302.287 66.4492 302.236 66.6124C302.184 66.7757 302.195 66.9521 302.266 67.1077L302.264 67.0989Z" fill="#BBE2F2"/>
<path d="M311.157 86.1897C311.312 86.1235 311.437 86.0031 311.51 85.851C311.582 85.699 311.597 85.5257 311.551 85.3636C311.145 84.0388 310.739 82.7139 310.342 81.4156C310.324 81.3195 310.286 81.2282 310.231 81.1477C310.175 81.0672 310.103 80.9994 310.02 80.9487C309.936 80.8979 309.843 80.8654 309.746 80.8533C309.649 80.8412 309.551 80.8497 309.457 80.8784C309.364 80.907 309.278 80.9551 309.204 81.0194C309.131 81.0838 309.071 81.1629 309.031 81.2518C308.99 81.3406 308.968 81.437 308.967 81.5347C308.967 81.6324 308.986 81.7292 309.026 81.8187C309.418 83.0994 309.863 84.3931 310.219 85.7138C310.244 85.8011 310.287 85.8826 310.344 85.9536C310.401 86.0245 310.471 86.0835 310.551 86.1273C310.631 86.171 310.718 86.1986 310.809 86.2085C310.899 86.2184 310.991 86.2103 311.078 86.1848L311.157 86.1897Z" fill="#BBE2F2"/>
<path d="M306.363 73.3883C306.198 73.4654 306.069 73.6048 306.006 73.7762C305.943 73.9476 305.95 74.1371 306.025 74.3033C306.289 74.8796 306.543 75.4585 306.778 76.0049C307.013 76.5512 307.333 77.3421 307.609 78.0209C307.675 78.191 307.807 78.3278 307.974 78.4014C308.142 78.475 308.331 78.4795 308.502 78.4139C308.667 78.3436 308.799 78.2116 308.869 78.0459C308.939 77.8802 308.942 77.6938 308.877 77.526C308.608 76.8357 308.321 76.1507 308.036 75.4746C307.752 74.7985 307.53 74.2964 307.264 73.7113C307.19 73.5469 307.054 73.418 306.886 73.3523C306.717 73.2865 306.53 73.2889 306.364 73.359L306.363 73.3883Z" fill="#BBE2F2"/>
<path d="M295.139 57.2436C295.261 57.3778 295.431 57.4589 295.612 57.4695C295.793 57.4801 295.97 57.4194 296.107 57.3005C296.244 57.1815 296.329 57.0137 296.343 56.8331C296.357 56.6524 296.3 56.4733 296.184 56.3341C295.278 55.298 294.327 54.2754 293.336 53.3424C293.203 53.2312 293.033 53.1737 292.86 53.1813C292.687 53.1889 292.524 53.2609 292.401 53.3833C292.279 53.5056 292.206 53.6694 292.199 53.8424C292.191 54.0154 292.248 54.185 292.359 54.3178C293.289 55.2405 294.25 56.2313 295.139 57.2436Z" fill="#BBE2F2"/>
<path d="M256.859 35.8518C258.168 36.0884 259.509 36.3638 260.833 36.6826C261.007 36.7132 261.186 36.6763 261.334 36.5795C261.481 36.4827 261.586 36.3333 261.627 36.1617C261.668 35.9901 261.642 35.8092 261.555 35.6561C261.467 35.5029 261.324 35.389 261.155 35.3376C259.799 35.0092 258.436 34.7216 257.097 34.4843C256.916 34.4527 256.729 34.4945 256.579 34.6004C256.428 34.7063 256.326 34.8677 256.294 35.0491C256.263 35.2304 256.305 35.4169 256.411 35.5674C256.516 35.718 256.678 35.8203 256.859 35.8518Z" fill="#BBE2F2"/>
<path d="M268.622 39.0885C268.791 39.1418 268.975 39.128 269.134 39.0499C269.294 38.9718 269.417 38.8354 269.479 38.6688C269.541 38.5023 269.537 38.3183 269.467 38.155C269.397 37.9917 269.267 37.8615 269.104 37.7912C267.818 37.3156 266.493 36.8712 265.18 36.4621C265.002 36.4062 264.81 36.423 264.645 36.5089C264.481 36.5947 264.357 36.7425 264.301 36.9198C264.245 37.097 264.262 37.2892 264.347 37.4541C264.433 37.6189 264.581 37.7429 264.758 37.7988C266.055 38.1841 267.357 38.6163 268.622 39.0885Z" fill="#BBE2F2"/>
<path d="M283.027 46.5008C283.102 46.5616 283.188 46.6064 283.28 46.6323C283.372 46.6581 283.469 46.6645 283.564 46.651C283.659 46.6376 283.75 46.6045 283.832 46.5539C283.913 46.5034 283.983 46.4365 284.038 46.3574C284.092 46.2783 284.129 46.1888 284.147 46.0946C284.165 46.0003 284.163 45.9034 284.142 45.8099C284.12 45.7164 284.08 45.6284 284.022 45.5514C283.965 45.4745 283.892 45.4102 283.809 45.3628C282.674 44.5899 281.497 43.8394 280.316 43.1384C280.238 43.0817 280.15 43.0419 280.056 43.0215C279.962 43.001 279.865 43.0003 279.77 43.0195C279.676 43.0386 279.587 43.0772 279.508 43.1327C279.43 43.1883 279.364 43.2596 279.314 43.3421C279.265 43.4245 279.233 43.5164 279.221 43.6119C279.209 43.7073 279.217 43.8042 279.244 43.8964C279.272 43.9886 279.318 44.074 279.381 44.1473C279.443 44.2205 279.52 44.28 279.606 44.322C280.764 45.0107 281.918 45.749 283.027 46.5008Z" fill="#BBE2F2"/>
<path d="M276.049 42.3589C276.13 42.4235 276.225 42.469 276.326 42.4922C276.427 42.5153 276.532 42.5155 276.633 42.4926C276.734 42.4698 276.829 42.4245 276.91 42.3602C276.991 42.2958 277.057 42.214 277.103 42.1209C277.148 42.0277 277.172 41.9255 277.173 41.8218C277.174 41.7181 277.151 41.6155 277.107 41.5217C277.063 41.4279 276.998 41.3452 276.918 41.2797C276.837 41.2142 276.743 41.1676 276.643 41.1433C275.436 40.5469 274.162 39.9225 272.907 39.3892C272.739 39.3126 272.547 39.306 272.374 39.3708C272.201 39.4356 272.061 39.5665 271.984 39.7348C271.908 39.903 271.901 40.0948 271.966 40.2679C272.031 40.441 272.162 40.5812 272.33 40.6578C273.624 41.16 274.857 41.7483 276.049 42.3589Z" fill="#BBE2F2"/>
<path d="M289.435 51.4847C289.502 51.5492 289.581 51.5994 289.669 51.6324C289.756 51.6654 289.849 51.6804 289.942 51.6767C290.035 51.6729 290.126 51.6504 290.21 51.6105C290.295 51.5706 290.37 51.5142 290.432 51.4445C290.494 51.3748 290.541 51.2934 290.571 51.2051C290.6 51.1167 290.612 51.0233 290.605 50.9304C290.597 50.8375 290.571 50.7471 290.528 50.6644C290.485 50.5818 290.426 50.5086 290.354 50.4494C289.322 49.5388 288.248 48.6505 287.154 47.826C287.084 47.7595 287.001 47.7083 286.91 47.676C286.818 47.6436 286.721 47.6307 286.625 47.6381C286.529 47.6455 286.435 47.673 286.349 47.7188C286.264 47.7647 286.19 47.8279 286.13 47.9044C286.071 47.9808 286.028 48.0689 286.005 48.1628C285.982 48.2568 285.979 48.3545 285.996 48.4498C286.013 48.5451 286.049 48.6357 286.103 48.716C286.157 48.7962 286.228 48.8643 286.31 48.9157C287.369 49.6926 288.428 50.5951 289.435 51.4847Z" fill="#BBE2F2"/>
<path d="M251.809 30.7522L251.418 19.1627L216.092 30.313L251.809 30.7522Z" fill="#009CF8"/>
<path d="M216.092 30.3132L250.879 33.8679L250.969 33.8789L252.965 35.6635L251.809 30.7524L216.092 30.3132Z" fill="#006BDE"/>
<path d="M252.967 35.663L249.959 36.0919L250.971 33.8784L252.967 35.663Z" fill="#006BDE"/>
<path d="M246.591 33.4328L250.969 33.8789L245.739 45.3162L216.092 30.3132L246.591 33.4328Z" fill="#009CF8"/>
<path d="M540.55 250.272C540.657 250.319 540.774 250.338 540.891 250.328C542.167 250.197 542.871 250.171 542.871 250.171C543.026 250.137 543.165 250.051 543.264 249.927C543.363 249.803 543.416 249.648 543.415 249.489C543.414 249.33 543.358 249.177 543.258 249.054C543.157 248.932 543.017 248.847 542.861 248.816C542.861 248.816 542.081 248.838 540.746 248.97C540.596 248.988 540.456 249.054 540.347 249.16C540.238 249.265 540.167 249.403 540.144 249.553C540.121 249.703 540.148 249.856 540.22 249.989C540.293 250.122 540.407 250.227 540.545 250.289L540.55 250.272Z" fill="#BBE2F2"/>
<path d="M496.041 275.378C495.222 276.441 494.41 277.545 493.661 278.668C493.57 278.799 493.438 278.895 493.285 278.94C493.132 278.984 492.969 278.975 492.822 278.914L492.699 278.876C492.549 278.772 492.447 278.614 492.413 278.436C492.379 278.257 492.417 278.073 492.517 277.922C493.293 276.778 494.113 275.647 494.937 274.566C495.054 274.44 495.214 274.361 495.386 274.346C495.558 274.332 495.729 274.382 495.866 274.486C496.003 274.591 496.096 274.743 496.127 274.913C496.158 275.083 496.124 275.258 496.032 275.404L496.041 275.378Z" fill="#BBE2F2"/>
<path d="M491.488 282.099C490.809 283.243 490.143 284.44 489.512 285.648C489.432 285.802 489.297 285.92 489.134 285.979C488.971 286.038 488.792 286.034 488.632 285.967L488.579 285.951C488.417 285.866 488.295 285.721 488.24 285.546C488.184 285.372 488.2 285.183 488.284 285.02C488.923 283.786 489.603 282.575 490.3 281.406C490.402 281.269 490.551 281.174 490.719 281.141C490.886 281.107 491.061 281.136 491.208 281.223C491.355 281.311 491.465 281.449 491.516 281.612C491.568 281.776 491.557 281.952 491.486 282.108L491.488 282.099Z" fill="#BBE2F2"/>
<path d="M482.595 301.19C482.44 301.123 482.315 301.003 482.242 300.851C482.17 300.699 482.155 300.526 482.201 300.364C482.607 299.039 483.013 297.714 483.41 296.415C483.428 296.319 483.466 296.228 483.521 296.148C483.577 296.067 483.648 295.999 483.732 295.949C483.816 295.898 483.909 295.865 484.006 295.853C484.103 295.841 484.201 295.85 484.295 295.878C484.388 295.907 484.474 295.955 484.548 296.019C484.621 296.084 484.681 296.163 484.721 296.252C484.762 296.34 484.784 296.437 484.784 296.535C484.785 296.632 484.765 296.729 484.726 296.819C484.334 298.099 483.889 299.393 483.533 300.714C483.508 300.801 483.465 300.882 483.408 300.953C483.351 301.024 483.281 301.083 483.201 301.127C483.121 301.171 483.034 301.198 482.943 301.208C482.853 301.218 482.761 301.21 482.674 301.185L482.595 301.19Z" fill="#BBE2F2"/>
<path d="M487.389 288.388C487.554 288.465 487.683 288.605 487.746 288.776C487.809 288.948 487.802 289.137 487.727 289.303C487.463 289.88 487.209 290.459 486.974 291.005C486.739 291.551 486.419 292.342 486.143 293.021C486.076 293.191 485.945 293.328 485.778 293.401C485.61 293.475 485.421 293.479 485.25 293.414C485.085 293.344 484.953 293.212 484.883 293.046C484.813 292.88 484.81 292.694 484.875 292.526C485.144 291.836 485.431 291.151 485.716 290.475C486 289.799 486.222 289.296 486.488 288.711C486.562 288.547 486.698 288.418 486.866 288.352C487.034 288.286 487.222 288.289 487.388 288.359L487.389 288.388Z" fill="#BBE2F2"/>
<path d="M498.612 272.244C498.491 272.378 498.321 272.459 498.14 272.469C497.959 272.48 497.781 272.419 497.645 272.3C497.508 272.181 497.423 272.014 497.409 271.833C497.395 271.652 497.451 271.473 497.568 271.334C498.474 270.298 499.425 269.275 500.416 268.342C500.549 268.231 500.719 268.174 500.892 268.181C501.064 268.189 501.228 268.261 501.351 268.383C501.473 268.506 501.546 268.669 501.553 268.842C501.561 269.015 501.504 269.185 501.393 269.318C500.463 270.241 499.502 271.231 498.612 272.244Z" fill="#BBE2F2"/>
<path d="M536.893 250.852C535.584 251.088 534.243 251.364 532.919 251.683C532.745 251.713 532.566 251.676 532.418 251.579C532.271 251.483 532.166 251.333 532.125 251.162C532.084 250.99 532.11 250.809 532.197 250.656C532.285 250.503 532.428 250.389 532.596 250.338C533.953 250.009 535.316 249.722 536.655 249.484C536.836 249.453 537.023 249.494 537.173 249.6C537.324 249.706 537.426 249.868 537.457 250.049C537.489 250.23 537.447 250.417 537.341 250.567C537.235 250.718 537.074 250.82 536.893 250.852Z" fill="#BBE2F2"/>
<path d="M525.13 254.088C524.961 254.142 524.777 254.128 524.618 254.05C524.458 253.972 524.335 253.835 524.273 253.669C524.211 253.502 524.215 253.318 524.285 253.155C524.355 252.992 524.485 252.861 524.648 252.791C525.934 252.316 527.259 251.871 528.572 251.462C528.749 251.406 528.942 251.423 529.107 251.509C529.271 251.595 529.395 251.742 529.451 251.92C529.507 252.097 529.49 252.289 529.404 252.454C529.319 252.619 529.171 252.743 528.994 252.799C527.697 253.184 526.395 253.616 525.13 254.088Z" fill="#BBE2F2"/>
<path d="M510.725 261.501C510.65 261.562 510.564 261.606 510.472 261.632C510.38 261.658 510.283 261.665 510.188 261.651C510.093 261.638 510.002 261.604 509.92 261.554C509.839 261.503 509.769 261.436 509.714 261.357C509.66 261.278 509.623 261.189 509.605 261.095C509.587 261 509.589 260.903 509.61 260.81C509.632 260.716 509.672 260.628 509.73 260.551C509.787 260.474 509.859 260.41 509.943 260.363C511.078 259.59 512.255 258.839 513.436 258.138C513.513 258.082 513.602 258.042 513.696 258.021C513.79 258.001 513.887 258 513.982 258.019C514.076 258.039 514.165 258.077 514.244 258.133C514.322 258.188 514.388 258.26 514.438 258.342C514.487 258.425 514.519 258.516 514.531 258.612C514.543 258.707 514.535 258.804 514.508 258.896C514.48 258.989 514.434 259.074 514.371 259.147C514.309 259.221 514.232 259.28 514.146 259.322C512.988 260.011 511.834 260.749 510.725 261.501Z" fill="#BBE2F2"/>
<path d="M517.703 257.359C517.622 257.423 517.527 257.469 517.426 257.492C517.325 257.515 517.22 257.515 517.119 257.493C517.018 257.47 516.923 257.424 516.842 257.36C516.761 257.296 516.695 257.214 516.649 257.121C516.604 257.028 516.58 256.925 516.579 256.822C516.578 256.718 516.601 256.615 516.645 256.522C516.689 256.428 516.754 256.345 516.834 256.28C516.915 256.214 517.009 256.168 517.109 256.143C518.316 255.547 519.59 254.922 520.845 254.389C521.013 254.313 521.205 254.306 521.378 254.371C521.551 254.436 521.691 254.566 521.768 254.735C521.844 254.903 521.851 255.095 521.786 255.268C521.721 255.441 521.59 255.581 521.422 255.658C520.128 256.16 518.895 256.748 517.703 257.359Z" fill="#BBE2F2"/>
<path d="M504.317 266.485C504.25 266.549 504.17 266.599 504.083 266.632C503.996 266.665 503.903 266.68 503.81 266.677C503.717 266.673 503.626 266.65 503.541 266.61C503.457 266.571 503.382 266.514 503.32 266.444C503.258 266.375 503.211 266.293 503.181 266.205C503.152 266.117 503.14 266.023 503.147 265.93C503.155 265.837 503.181 265.747 503.224 265.664C503.267 265.582 503.326 265.509 503.398 265.449C504.43 264.539 505.504 263.65 506.598 262.826C506.668 262.759 506.751 262.708 506.842 262.676C506.934 262.644 507.03 262.631 507.127 262.638C507.223 262.645 507.317 262.673 507.402 262.719C507.488 262.765 507.562 262.828 507.622 262.904C507.681 262.981 507.724 263.069 507.747 263.163C507.77 263.257 507.773 263.354 507.756 263.45C507.739 263.545 507.703 263.636 507.649 263.716C507.595 263.796 507.524 263.864 507.442 263.916C506.383 264.693 505.324 265.595 504.317 266.485Z" fill="#BBE2F2"/>
<path d="M541.943 245.752L542.334 234.163L577.66 245.313L541.943 245.752Z" fill="#009CF8"/>
<path d="M577.66 245.313L542.873 248.868L542.783 248.879L540.787 250.663L541.943 245.752L577.66 245.313Z" fill="#006BDE"/>
<path d="M540.785 250.663L543.793 251.092L542.781 248.878L540.785 250.663Z" fill="#006BDE"/>
<path d="M547.161 248.433L542.783 248.879L548.013 260.316L577.66 245.313L547.161 248.433Z" fill="#009CF8"/>
<path d="M168.881 369.763C168.953 374.277 169.025 378.97 169.133 383.724H212.657C212.741 378.527 212.801 373.534 212.849 368.865C212.98 356.197 212.992 345.767 212.98 339.278C212.98 334.68 212.98 332.094 212.98 332.094L168.582 331.627C168.582 331.627 168.582 335.458 168.582 341.732C168.642 348.689 168.714 358.723 168.881 369.763Z" fill="#18315B"/>
<path d="M168.607 341.72C168.607 348.689 168.715 358.675 168.883 369.763C183.535 370.946 198.27 370.645 212.862 368.865C212.994 356.196 213.006 345.767 212.994 339.278L168.607 341.72Z" fill="#000B29"/>
<path d="M114.019 359.753C114.019 366.853 114.151 374.983 114.294 383.7H157.831C157.939 378.575 158.022 373.522 158.094 368.685C158.25 358.316 158.322 348.964 158.358 342.259C158.394 335.554 158.358 331.591 158.358 331.591L113.947 332.058C113.947 332.058 113.947 336.763 113.947 344.69C113.959 348.905 113.983 353.934 114.019 359.753Z" fill="#18315B"/>
<path d="M113.959 344.714C113.959 348.905 113.959 353.981 113.959 359.753C128.378 363.949 143.12 366.945 158.034 368.709C158.19 358.34 158.262 348.988 158.297 342.283L113.959 344.714Z" fill="#000B29"/>
<path d="M186.937 98.0323C186.937 98.0323 193.93 91.2912 193.906 84.6458C193.882 78.0004 189.356 79.9521 186.937 73.7617C184.518 67.5713 177.358 63.7757 173.347 64.542C169.336 65.3083 161.038 49.8024 149.723 52.5803C138.408 55.3582 139.378 69.8224 134.504 71.9417C129.631 74.0611 130.984 82.718 133.558 84.6458C136.133 86.5735 137.222 94.5121 138.659 94.3325C140.096 94.1529 186.937 98.0323 186.937 98.0323Z" fill="#18315B"/>
<path d="M139.856 97.8766C139.856 97.8766 135.461 92.0095 132.192 96.8588C128.924 101.708 133.545 116.017 141.556 112.532L139.856 97.8766Z" fill="#F97853"/>
<path d="M139.796 108.114C139.65 108.112 139.508 108.064 139.392 107.975C139.275 107.887 139.19 107.764 139.149 107.623C137.952 103.205 133.33 101.409 133.282 101.385C133.133 101.309 133.017 101.18 132.956 101.023C132.896 100.867 132.895 100.693 132.954 100.536C133.013 100.379 133.128 100.249 133.277 100.172C133.426 100.094 133.599 100.074 133.761 100.116C133.977 100.2 139.03 102.151 140.455 107.3C140.503 107.473 140.481 107.658 140.393 107.815C140.306 107.972 140.16 108.088 139.988 108.138L139.796 108.114Z" fill="#EA5143"/>
<path d="M135.175 105.887C135.055 105.884 134.938 105.849 134.835 105.786C134.733 105.724 134.649 105.635 134.592 105.529C134.535 105.423 134.507 105.305 134.51 105.184C134.514 105.064 134.549 104.947 134.612 104.845C135.26 103.948 136.136 103.241 137.15 102.798C137.298 102.773 137.451 102.797 137.583 102.867C137.716 102.937 137.822 103.049 137.885 103.185C137.947 103.322 137.963 103.475 137.93 103.621C137.897 103.768 137.817 103.899 137.701 103.995C136.929 104.333 136.256 104.865 135.75 105.54C135.693 105.643 135.61 105.73 135.509 105.791C135.408 105.851 135.293 105.885 135.175 105.887Z" fill="#EA5143"/>
<path d="M185.19 97.8766C185.19 97.8766 189.585 92.0095 192.854 96.8588C196.122 101.708 191.501 116.017 183.49 112.532L185.19 97.8766Z" fill="#F97853"/>
<path d="M185.238 108.114C185.384 108.112 185.526 108.064 185.642 107.975C185.759 107.887 185.844 107.764 185.885 107.623C187.082 103.205 191.704 101.409 191.752 101.385C191.901 101.309 192.018 101.18 192.078 101.023C192.139 100.867 192.139 100.693 192.08 100.536C192.021 100.379 191.906 100.249 191.757 100.172C191.608 100.094 191.436 100.074 191.273 100.116C191.057 100.2 186.004 102.151 184.58 107.3C184.532 107.473 184.554 107.658 184.641 107.815C184.728 107.972 184.874 108.088 185.047 108.138L185.238 108.114Z" fill="#EA5143"/>
<path d="M189.907 105.887C190.027 105.884 190.144 105.849 190.247 105.786C190.349 105.724 190.433 105.635 190.49 105.529C190.547 105.423 190.575 105.305 190.572 105.184C190.568 105.064 190.533 104.947 190.47 104.845C189.822 103.948 188.946 103.241 187.931 102.798C187.783 102.773 187.631 102.797 187.499 102.867C187.366 102.937 187.26 103.049 187.197 103.185C187.134 103.322 187.118 103.475 187.152 103.621C187.185 103.768 187.265 103.899 187.381 103.995C188.153 104.333 188.826 104.865 189.332 105.54C189.389 105.643 189.472 105.73 189.573 105.791C189.674 105.851 189.789 105.885 189.907 105.887Z" fill="#EA5143"/>
<path d="M173.348 124.686V138.934C173.348 138.934 169.097 146.19 163.35 146.681C157.602 147.172 152.514 140.431 152.514 140.431V125.692L173.348 124.686Z" fill="#FFA681"/>
<path d="M173.348 124.686V131.008C169.552 135.282 162.643 136.348 152.514 134.816V125.692L173.348 124.686Z" fill="#F97853"/>
<path d="M188.363 88.1181C188.139 94.1386 187.523 100.138 186.519 106.079C186.256 107.456 185.956 108.761 185.621 109.922C182.628 120.447 175.132 138.407 154.142 130.936C144.875 127.631 140.576 117.298 138.66 106.797C137.556 100.365 137.075 93.8407 137.223 87.3159C137.273 84.7328 137.995 82.2072 139.318 79.9879C140.64 77.7687 142.518 75.9323 144.767 74.6597C157.16 67.6312 170.235 70.2534 178.844 73.5581C181.762 74.6724 184.254 76.6802 185.964 79.295C187.673 81.9097 188.513 84.9977 188.363 88.1181Z" fill="#FFA681"/>
<path d="M138.658 106.797C138.658 106.797 140.694 118.938 142.621 123.357C144.549 127.775 149.806 128.613 151.781 132.349C154.595 137.677 158.882 141.928 165.946 139.33C171.813 137.186 171.55 134.181 174.843 131.858C180.482 127.883 183.224 123.476 183.5 119.884C183.775 116.292 186.517 106.079 186.517 106.079L183.488 105.863C182.205 108.442 180.782 110.948 179.225 113.371C176.675 107.779 164.414 111.85 164.414 111.85L162.019 112.604L159.624 111.85C159.624 111.85 147.219 107.959 144.765 113.814C143.201 111.505 142.087 108.921 141.484 106.198L138.658 106.797ZM162.079 114.46C176.148 112.066 173.633 120.279 173.537 120.579C172.68 121.457 171.709 122.218 170.652 122.842C165.204 125.787 164.665 125.344 162.462 125.44C159.556 125.446 156.702 124.668 154.2 123.189C152.785 122.333 151.465 121.329 150.261 120.196C150.261 120.196 147.998 112.616 162.079 114.46Z" fill="#18315B"/>
<path d="M151.879 102.486C152.844 102.486 153.627 101.253 153.627 99.7323C153.627 98.2114 152.844 96.9784 151.879 96.9784C150.914 96.9784 150.131 98.2114 150.131 99.7323C150.131 101.253 150.914 102.486 151.879 102.486Z" fill="#18315B"/>
<path d="M172.69 102.486C173.655 102.486 174.438 101.253 174.438 99.7323C174.438 98.2114 173.655 96.9784 172.69 96.9784C171.724 96.9784 170.941 98.2114 170.941 99.7323C170.941 101.253 171.724 102.486 172.69 102.486Z" fill="#18315B"/>
<path d="M179.585 90.6685C179.585 90.6685 172.401 87.8068 166.785 90.2135L167.348 93.3146C167.348 93.3146 175.526 92.6202 179.645 94.2965C180.046 93.1167 180.025 91.8343 179.585 90.6685Z" fill="#18315B"/>
<path d="M145.186 90.6806C145.186 90.6806 152.478 87.8069 158.082 90.2256L157.579 93.3507C157.579 93.3507 149.341 92.6562 145.198 94.3325C144.771 93.1534 144.767 91.8625 145.186 90.6806Z" fill="#18315B"/>
<path d="M162.752 111.275C163.574 111.242 164.384 111.068 165.147 110.76C165.257 110.666 165.335 110.538 165.368 110.396C165.401 110.254 165.388 110.106 165.33 109.972C165.273 109.838 165.174 109.726 165.048 109.653C164.923 109.579 164.777 109.548 164.632 109.563C163.782 109.958 162.822 110.047 161.914 109.814C161.808 109.746 161.722 109.652 161.663 109.541C161.604 109.43 161.575 109.305 161.579 109.18C161.539 105.719 161.675 102.258 161.986 98.8106C162.003 98.7165 162.001 98.6197 161.979 98.5266C161.957 98.4335 161.915 98.346 161.857 98.27C161.799 98.194 161.725 98.131 161.641 98.0852C161.557 98.0394 161.465 98.0118 161.369 98.0042C161.274 97.9966 161.178 98.0092 161.087 98.0411C160.997 98.073 160.915 98.1235 160.845 98.1894C160.776 98.2553 160.721 98.335 160.684 98.4235C160.648 98.5119 160.63 98.6071 160.633 98.7028C160.31 102.229 160.174 105.771 160.226 109.311C160.267 109.637 160.386 109.947 160.571 110.218C160.756 110.489 161.003 110.711 161.291 110.868C161.732 111.133 162.237 111.274 162.752 111.275Z" fill="#F97853"/>
<path d="M154.129 115.861C154.644 118.447 156.344 123.201 162.103 123.201C167.863 123.201 169.491 118.854 170.042 115.861H154.129Z" fill="white"/>
<path d="M188.362 88.1181C188.139 94.1386 187.523 100.138 186.519 106.079L183.489 105.863C183.489 105.863 184.22 101.193 184.555 98.14C184.89 95.0868 185.465 89.3993 182.867 88.6928C180.268 87.9864 181.801 81.5086 178.185 78.6828C174.569 75.8571 166.57 73.3785 161.242 76.6473C155.914 79.9161 149.879 78.1081 147.424 78.6828C144.97 79.2576 141.641 82.6222 142.539 85.7832C143.437 88.9443 140.743 90.8601 140.085 94.1648C139.426 97.4695 141.521 106.234 141.521 106.234L138.636 106.821C137.538 100.38 137.065 93.8479 137.223 87.3159C137.273 84.7328 137.994 82.2072 139.317 79.9879C140.64 77.7687 142.518 75.9323 144.766 74.6597C157.159 67.6312 170.234 70.2534 178.843 73.5581C181.762 74.6724 184.254 76.6802 185.963 79.295C187.673 81.9097 188.512 84.9977 188.362 88.1181Z" fill="#18315B"/>
<path d="M222.176 353.479C208.703 356.908 194.957 359.163 181.095 360.22L179.239 360.351C177.355 360.479 175.471 360.583 173.587 360.663C164.266 361.063 154.93 360.903 145.629 360.184C143.745 360.04 141.865 359.872 139.989 359.681L138.181 359.489C126.924 358.268 115.766 356.268 104.786 353.502C104.679 343.241 104.786 310.804 105.433 275.674C105.505 271.447 105.589 267.184 105.684 262.91C106.666 216.548 108.57 169.515 112.007 164.726C115.287 160.212 125.178 154.476 134.649 149.304L136.337 148.382L142.503 145.041C146.694 142.754 150.31 140.73 152.549 139.162V140.455C152.549 140.455 157.638 147.196 163.326 146.693C168.558 146.238 172.545 140.204 173.216 139.114C177.109 141.605 181.13 143.891 185.261 145.963L189.68 148.298L191.356 149.184C201.821 154.728 213.1 160.99 216.501 165.636C216.831 166.164 217.074 166.742 217.219 167.348C219.219 174.137 220.464 196.647 221.218 223.912V224.211C221.218 225.312 221.278 226.426 221.302 227.54C221.302 227.683 221.302 227.827 221.302 227.983C221.554 237.561 221.733 247.619 221.877 257.725C221.877 258.527 221.877 259.33 221.877 260.12C221.877 260.527 221.877 260.922 221.877 261.317C221.877 263.313 221.901 265.308 221.949 267.304C221.949 268.765 221.949 270.226 221.949 271.686C222.476 308.242 222.32 342.738 222.176 353.479Z" fill="url(#paint0_linear)"/>
<path d="M221.339 227.527C218.047 222.151 214.502 216.655 211.174 211.794C209.773 209.758 208.408 207.831 207.115 206.07L207.043 205.975L205.845 204.358C205.782 204.271 205.734 204.174 205.702 204.071C205.647 203.869 205.663 203.653 205.749 203.462C205.834 203.27 205.983 203.114 206.171 203.02C206.358 202.925 206.572 202.899 206.777 202.944C206.981 202.989 207.164 203.104 207.294 203.269C211.293 208.573 216.418 216.188 221.255 223.935V224.235C221.279 225.3 221.303 226.402 221.339 227.527Z" fill="#4D69BE"/>
<path d="M216.643 164.881C216.643 164.881 237.286 202.706 249.882 221.888C249.882 221.888 257.066 215.314 266.346 206.514C276.44 196.935 290.293 181.034 290.293 181.034L297.932 190.098C297.932 190.098 266.921 245.919 253.007 252.924C239.094 259.928 213.494 210.286 213.494 210.286L216.643 164.881Z" fill="url(#paint1_linear)"/>
<path d="M129.225 313.977C129.102 313.973 128.981 313.944 128.87 313.893C128.758 313.842 128.658 313.769 128.574 313.679C128.491 313.589 128.426 313.483 128.384 313.368C128.341 313.253 128.322 313.13 128.327 313.008C129.368 282.451 113.527 272.513 113.371 272.513C113.159 272.386 113.005 272.179 112.944 271.939C112.884 271.699 112.921 271.444 113.048 271.231C113.175 271.019 113.381 270.865 113.622 270.804C113.862 270.744 114.117 270.781 114.329 270.908C114.509 271.016 118.688 273.554 122.711 280.08C126.411 286.067 130.709 296.592 130.123 313.127C130.102 313.354 130 313.566 129.834 313.722C129.669 313.879 129.452 313.97 129.225 313.977Z" fill="#4D69BE"/>
<path d="M196.805 285.193C196.569 285.193 196.342 285.105 196.169 284.945C195.996 284.785 195.889 284.566 195.871 284.331C195.368 277.901 197.488 273.207 200.17 267.268C200.96 265.532 201.762 263.676 202.564 261.712C207.773 249.08 205.151 234.64 205.127 234.496C205.096 234.373 205.09 234.244 205.111 234.118C205.131 233.993 205.177 233.873 205.245 233.765C205.314 233.658 205.404 233.566 205.509 233.494C205.614 233.423 205.733 233.374 205.858 233.35C205.984 233.327 206.112 233.329 206.236 233.357C206.361 233.384 206.478 233.437 206.581 233.512C206.684 233.587 206.771 233.682 206.836 233.792C206.901 233.901 206.943 234.023 206.959 234.149C207.078 234.76 209.701 249.284 204.289 262.419C203.45 264.466 202.624 266.274 201.894 268.022C199.224 273.937 197.284 278.224 197.751 284.175C197.761 284.298 197.746 284.421 197.708 284.538C197.67 284.655 197.609 284.764 197.529 284.857C197.449 284.951 197.351 285.027 197.241 285.083C197.131 285.138 197.012 285.172 196.889 285.181L196.805 285.193Z" fill="#4D69BE"/>
<path d="M142.48 145.017C142.876 148.022 143.462 151.926 144.109 156.356C144.3 157.673 144.504 159.038 144.696 160.439C145.342 165.013 146.013 170.018 146.587 175.035C146.743 176.388 146.887 177.741 147.018 179.094C147.521 184.075 147.905 189.032 148.036 193.642C148.036 195.031 148.096 196.396 148.036 197.713C148.058 200.893 147.846 204.071 147.402 207.22C147.13 208.968 146.887 210.677 146.671 212.345C146.496 213.726 146.336 215.087 146.192 216.428C145.653 221.624 145.378 226.462 145.294 231.024C145.294 232.405 145.294 233.762 145.294 235.095C145.294 240.267 145.63 245.093 146.061 249.691C146.192 251.068 146.324 252.421 146.468 253.75C147.03 258.767 147.665 263.544 148.348 268.262C148.531 269.611 148.711 270.96 148.886 272.309C149.162 274.464 149.425 276.632 149.653 278.799C149.88 280.966 150.048 283.804 150.12 286.785C150.12 288.09 150.12 289.455 150.12 290.868C150.12 295.334 150.024 300.291 149.82 305.464C149.764 306.813 149.705 308.182 149.641 309.571C149.413 314.361 149.102 319.33 148.767 324.203C148.671 325.576 148.571 326.945 148.467 328.31C148.096 333.387 147.677 338.344 147.27 342.942C147.138 344.343 147.018 345.708 146.887 347.025C146.396 352.09 145.929 356.604 145.522 360.196C154.827 360.912 164.168 361.068 173.492 360.663C173.708 356.843 174.306 350.665 174.893 343.409C175.001 342.08 175.109 340.715 175.216 339.314C175.564 334.692 175.887 329.735 176.091 324.778C176.091 323.413 176.198 322.048 176.234 320.671C176.378 315.702 176.378 310.756 176.162 306.123C176.103 304.722 176.019 303.345 175.911 302.004C175.803 300.663 175.671 299.298 175.516 298.016C175.087 294.505 174.887 290.969 174.917 287.432C174.917 286.067 174.917 284.702 175.025 283.337C175.24 278.547 175.755 273.854 176.354 268.813C176.51 267.472 176.677 266.119 176.845 264.73C177.384 260.252 177.946 255.498 178.389 250.289C178.509 248.96 178.617 247.595 178.713 246.194C179.024 241.728 179.228 236.939 179.264 231.706C179.264 230.357 179.264 228.98 179.264 227.575C179.264 223.049 179.024 218.212 178.653 213.003C178.653 212.536 178.593 212.07 178.557 211.603C178.485 210.693 178.425 209.771 178.389 208.849C178.168 204.009 178.2 199.161 178.485 194.325C178.557 192.952 178.645 191.583 178.749 190.218C179.12 185.332 179.671 180.495 180.305 175.849C180.497 174.472 180.688 173.107 180.88 171.766C181.646 166.689 182.461 161.9 183.275 157.625L183.993 153.578C184.508 150.693 184.951 148.118 185.274 145.939C181.143 143.867 177.122 141.581 173.229 139.09C172.558 140.18 168.571 146.274 163.339 146.669C157.603 147.172 152.562 140.431 152.562 140.431V139.15C150.287 140.706 146.671 142.742 142.48 145.017Z" fill="white"/>
<path d="M144.109 156.368C144.301 157.685 144.505 159.05 144.696 160.451C150.934 160.417 157.143 159.612 163.183 158.056C169.784 156.514 176.632 156.351 183.299 157.577L184.018 153.53C176.809 152.218 169.407 152.405 162.273 154.081C156.343 155.625 150.237 156.393 144.109 156.368Z" fill="#E3E3E3"/>
<path d="M146.586 175.035C146.742 176.388 146.885 177.741 147.017 179.094C152.466 178.841 157.877 178.047 163.169 176.723C168.803 175.411 174.623 175.103 180.364 175.813C180.555 174.436 180.747 173.071 180.938 171.73C174.697 170.97 168.37 171.315 162.247 172.748C157.117 174.035 151.87 174.802 146.586 175.035Z" fill="#E3E3E3"/>
<path d="M148 193.642C148 195.031 148.06 196.396 148 197.713C153.083 197.4 158.128 196.635 163.075 195.426C168.107 194.258 173.29 193.887 178.437 194.325C178.509 192.952 178.597 191.583 178.7 190.218C173.156 189.759 167.574 190.163 162.153 191.415C157.508 192.562 152.773 193.307 148 193.642Z" fill="#E3E3E3"/>
<path d="M146.266 216.428C151.974 216.232 157.646 215.429 163.184 214.033C168.282 212.846 173.537 212.478 178.75 212.944C178.75 212.477 178.69 212.01 178.654 211.543C178.583 210.633 178.523 209.711 178.487 208.789C173.057 208.39 167.599 208.818 162.298 210.058C157.197 211.322 151.983 212.072 146.733 212.297C146.565 213.718 146.409 215.095 146.266 216.428Z" fill="#E3E3E3"/>
<path d="M145.354 235.095C151.365 234.989 157.344 234.185 163.17 232.7C168.465 231.466 173.926 231.114 179.335 231.658C179.335 230.309 179.335 228.932 179.335 227.527C173.62 227.013 167.86 227.418 162.272 228.725C156.745 230.117 151.077 230.873 145.378 230.976C145.346 232.389 145.338 233.762 145.354 235.095Z" fill="#E3E3E3"/>
<path d="M146.119 249.679C146.251 251.056 146.383 252.409 146.526 253.738C152.142 253.518 157.72 252.716 163.17 251.343C168.177 250.173 173.336 249.793 178.46 250.218C178.58 248.888 178.688 247.523 178.783 246.123C173.243 245.663 167.664 246.067 162.248 247.32C156.97 248.673 151.563 249.464 146.119 249.679Z" fill="#E3E3E3"/>
<path d="M148.406 268.262C148.59 269.611 148.769 270.96 148.945 272.309C153.738 271.966 158.496 271.233 163.17 270.118C167.514 269.125 171.973 268.723 176.425 268.92C176.58 267.579 176.748 266.226 176.916 264.837C171.987 264.62 167.052 265.08 162.248 266.202C157.698 267.268 153.069 267.957 148.406 268.262Z" fill="#E3E3E3"/>
<path d="M150.191 286.785C150.191 288.09 150.191 289.455 150.191 290.868C154.548 290.459 158.869 289.738 163.123 288.713C166.997 287.815 170.964 287.381 174.941 287.42C174.941 286.055 174.941 284.69 175.049 283.325C170.729 283.284 166.42 283.759 162.213 284.738C158.256 285.687 154.24 286.371 150.191 286.785Z" fill="#E3E3E3"/>
<path d="M149.762 309.631C154.28 309.233 158.762 308.5 163.172 307.439C167.458 306.462 171.855 306.059 176.247 306.242C176.188 304.841 176.104 303.464 175.996 302.123C171.378 301.999 166.762 302.466 162.262 303.512C158.208 304.485 154.091 305.174 149.941 305.572C149.885 306.857 149.826 308.21 149.762 309.631Z" fill="#E3E3E3"/>
<path d="M148.588 328.31C153.508 327.967 158.391 327.21 163.184 326.047C167.44 325.059 171.808 324.637 176.175 324.79C176.175 323.425 176.283 322.06 176.319 320.683C171.593 320.53 166.867 320.997 162.262 322.072C157.867 323.138 153.395 323.855 148.887 324.215C148.783 325.588 148.684 326.953 148.588 328.31Z" fill="#E3E3E3"/>
<path d="M146.982 347.036C152.443 346.797 157.866 346.015 163.171 344.702C167.04 343.8 171.004 343.366 174.977 343.408C175.085 342.079 175.192 340.714 175.3 339.313C170.911 339.266 166.532 339.753 162.261 340.762C157.375 341.964 152.389 342.71 147.366 342.989C147.234 344.354 147.114 345.707 146.982 347.036Z" fill="#E3E3E3"/>
<path d="M179.229 360.363L181.084 360.232C184.76 338.679 182.641 306.913 181.851 297.202C181.037 287.108 182.605 274.141 186.161 261.616C188.915 251.894 187.227 229.288 185.874 211.219C185.491 206.131 185.132 201.329 184.916 197.378C184.222 184.626 188.843 161.014 191.382 149.184L189.705 148.298C187.155 160.008 182.366 184.159 183.096 197.486C183.312 201.449 183.671 206.262 184.054 211.363C185.407 229.324 187.083 251.714 184.413 261.126C180.821 273.854 179.205 287.061 180.043 297.358C180.833 307.069 182.964 338.978 179.229 360.363Z" fill="#4D69BE"/>
<path d="M141.581 272.512C143.737 285.791 143.066 294.424 142.276 304.41C142.024 307.643 141.761 310.972 141.569 314.66C140.995 326.214 139.043 349.503 138.169 359.561L139.977 359.752C140.839 349.683 142.803 326.346 143.389 314.743C143.569 311.092 143.833 307.763 144.084 304.554C144.874 294.448 145.569 285.719 143.377 272.225C142.911 269.327 142.408 266.382 141.917 263.46C139.522 248.984 136.936 234.017 138.133 226.845C138.42 225.097 138.792 223.109 139.199 221.002C140.827 212.345 142.791 201.58 142.216 192.265C141.641 182.949 137.786 157.912 136.325 148.465L134.637 149.387C136.157 159.277 139.785 183.392 140.408 192.397C141.031 201.401 139.031 212.153 137.427 220.714C137.031 222.834 136.648 224.821 136.361 226.593C135.164 234.065 137.558 248.517 140.145 263.819C140.624 266.621 141.114 269.555 141.581 272.512Z" fill="#4D69BE"/>
<path d="M105.875 180.1C105.875 180.1 87.3877 241.74 82.8138 263.712C78.2398 285.684 77.8806 331.339 77.8806 331.339C77.8806 331.339 69.7984 348.102 69.6068 355.574C69.4033 363.536 73.5821 369.858 73.1031 375.067C72.6242 380.276 78.9702 377.462 77.1742 366.901C75.3781 356.34 80.4669 346.797 82.6581 347.109C84.8493 347.42 80.8381 358.627 82.7898 362.674C84.7415 366.721 87.256 358.867 89.7705 354.101C92.3688 349.156 92.1652 338.368 91.0397 330.669C89.9142 322.97 103.816 276.189 103.887 262.634L121.561 202.898C121.561 202.898 115.67 177.921 105.875 180.1Z" fill="#FFA681"/>
<path d="M123.825 201.401C123.202 205.364 121.011 212.177 118.173 220.714L117.443 222.918V223.025L115.227 229.683C112.09 239.202 108.618 250.038 105.708 261.281C104.703 265.113 103.769 268.98 102.943 272.836C101.877 277.757 100.979 282.666 100.32 287.468C97.9255 304.77 93.4354 326.693 93.4354 326.693C86.802 329.411 76.4448 325.819 76.4448 325.819C76.4448 325.819 76.1574 294.305 77.6182 282.091C79.2055 269.192 81.5565 256.397 84.6587 243.776C92.5973 209.663 106.571 176.292 110.402 167.432L111.109 165.791H114.473C120.915 169.826 125.513 190.732 123.825 201.401Z" fill="url(#paint2_linear)"/>
<path d="M75.8711 319.557L76.386 326.825C76.386 326.825 86.2403 330.022 93.628 327.771L95.5797 321.293C88.4674 321.605 81.9058 321.485 75.8711 319.557Z" fill="#009CF8"/>
<path d="M118.172 220.715C118.19 220.818 118.19 220.923 118.172 221.026C117.945 221.637 117.717 222.223 117.502 222.918V223.025C116.771 225.085 116.041 227.324 115.287 229.683C111.418 242.021 108.22 254.56 105.708 267.244C105.708 265.265 105.732 263.269 105.78 261.257C104.774 265.089 103.84 268.956 103.014 272.812C103.67 267.707 104.61 262.642 105.827 257.641C108.71 245.023 112.279 232.572 116.52 220.343C116.595 220.146 116.736 219.982 116.919 219.877C117.102 219.773 117.315 219.735 117.523 219.77C117.731 219.805 117.92 219.912 118.058 220.071C118.196 220.23 118.274 220.432 118.28 220.643L118.172 220.715Z" fill="#4D69BE"/>
<path d="M448.813 383.724H492.469C492.325 380.694 492.181 377.737 492.038 375.055C491.271 360.1 490.625 349.91 490.625 349.91L455.135 351.539L452.189 351.67L446.969 351.91C446.969 351.91 447.472 361.01 448.262 374.348C448.43 377.258 448.609 380.407 448.813 383.724Z" fill="#18315B"/>
<path d="M452.133 351.634L446.912 351.874C446.912 351.874 447.415 360.974 448.205 374.312C462.771 375.569 477.405 375.817 492.005 375.055C491.239 360.1 490.592 349.91 490.592 349.91L455.138 351.539L452.133 351.634Z" fill="#000B29"/>
<path d="M456.92 383.724C456.117 369.882 455.471 358.064 455.112 351.503L452.166 351.634C452.525 358.172 453.172 369.93 453.974 383.724H456.92Z" fill="#000B29"/>
<path d="M436 383.724C436.228 379.976 436.432 376.42 436.623 373.139C437.377 360.435 437.82 351.862 437.82 351.862L432.157 351.611L429.211 351.479L394.141 349.922C394.141 349.922 393.757 355.993 393.231 365.632C392.955 370.768 392.632 376.935 392.309 383.724H436Z" fill="#18315B"/>
<path d="M393.268 365.632C407.57 368.941 422.05 371.432 436.636 373.091C437.391 360.387 437.834 351.814 437.834 351.814L432.17 351.563L429.224 351.431L394.154 349.874C394.154 349.874 393.794 355.993 393.268 365.632Z" fill="#000B29"/>
<path d="M430.387 383.724C431.189 369.918 431.835 358.148 432.195 351.611L429.261 351.479C428.902 358.04 428.243 369.87 427.453 383.724H430.387Z" fill="#000B29"/>
<path d="M496.985 356.723C488.219 359.165 479.304 361.032 470.295 362.315C467.198 362.746 464.105 363.105 461.016 363.392C456.849 363.776 452.682 364.035 448.515 364.171C441.623 364.379 434.725 364.228 427.849 363.716C414.333 362.699 400.947 360.374 387.881 356.771C387.761 344.342 387.94 299.788 388.874 256.815C388.922 254.883 388.966 252.959 389.006 251.044C389.006 250.636 389.006 250.229 389.006 249.846C389.006 249.463 389.006 248.96 389.006 248.517C389.006 247.152 389.078 245.799 389.102 244.446C389.174 241.684 389.246 238.946 389.317 236.232L389.461 231.443C389.461 231.107 389.461 230.784 389.461 230.449L389.557 227.312C389.557 226.988 389.557 226.665 389.557 226.342C389.557 225.384 389.617 224.426 389.653 223.48C389.689 222.534 389.653 221.876 389.737 221.085C390.766 192.097 392.275 169.228 394.442 166.007C398.25 160.439 410.726 153.183 420.76 147.28C424.352 145.184 428.603 142.993 431.046 141.377C434.638 144.25 437.2 146.837 442.48 146.657C448.395 146.454 449.844 142.897 452.059 139.856C453.436 140.754 456.933 143.616 458.753 144.646C460.309 145.568 461.986 146.537 463.746 147.543C466.464 149.1 469.349 150.752 472.211 152.428C476.45 154.919 480.593 157.493 484.101 159.96C486.981 161.814 489.537 164.128 491.668 166.809C493.632 169.754 494.901 188.828 495.715 213.925C495.715 214.799 495.715 215.697 495.811 216.595C495.811 216.703 495.811 216.811 495.811 216.919C495.811 217.829 495.871 218.763 495.895 219.697C495.975 222.522 496.055 225.404 496.134 228.342C496.134 228.964 496.134 229.539 496.134 230.209C496.134 230.88 496.134 231.143 496.134 231.61L496.218 235.202C496.218 235.442 496.218 235.693 496.218 235.933C496.29 239.154 496.35 242.423 496.41 245.715C496.41 246.681 496.41 247.647 496.41 248.613C497.32 293.861 497.152 343.372 496.985 356.723Z" fill="url(#paint3_linear)"/>
<path d="M496.575 248.685L482.494 262.934L469.323 249.631L456.152 262.934L442.981 249.571L429.81 262.934L416.651 249.523L403.384 262.934L389.016 248.41C389.016 247.045 389.087 245.692 389.111 244.339C389.183 241.577 389.255 238.839 389.327 236.125L403.324 221.924L416.651 235.394L429.906 221.948L443.077 235.31L456.248 221.948L469.419 235.251L482.59 221.948L496.443 235.981C496.515 239.202 496.575 242.471 496.635 245.763C496.579 246.745 496.559 247.719 496.575 248.685Z" fill="#4D69BE"/>
<path d="M472.269 322.311C453.41 322.227 437.317 313.642 427.128 306.458C420.625 301.916 414.667 296.641 409.371 290.736C409.292 290.645 409.232 290.539 409.195 290.425C409.157 290.311 409.142 290.19 409.151 290.07C409.16 289.95 409.192 289.833 409.246 289.725C409.301 289.618 409.375 289.522 409.467 289.443C409.558 289.365 409.664 289.305 409.778 289.267C409.892 289.229 410.013 289.214 410.133 289.223C410.253 289.232 410.37 289.265 410.478 289.319C410.585 289.373 410.681 289.448 410.76 289.539C415.954 295.348 421.8 300.538 428.181 305.009C438.144 312.026 453.877 320.419 472.245 320.491C472.486 320.491 472.717 320.587 472.888 320.758C473.059 320.928 473.155 321.16 473.155 321.401C473.155 321.642 473.059 321.874 472.888 322.044C472.717 322.215 472.486 322.311 472.245 322.311H472.269Z" fill="#4D69BE"/>
<path d="M460.511 311.163C444.454 308.002 430.241 295.705 429.595 295.143C429.432 294.979 429.338 294.76 429.331 294.53C429.323 294.299 429.404 294.075 429.556 293.901C429.708 293.728 429.92 293.619 430.15 293.596C430.379 293.573 430.609 293.638 430.792 293.778C430.96 293.921 447.687 308.386 464.725 309.942C464.953 309.979 465.158 310.101 465.299 310.283C465.441 310.466 465.507 310.695 465.486 310.924C465.465 311.154 465.357 311.367 465.185 311.52C465.012 311.674 464.788 311.756 464.558 311.75C463.2 311.624 461.849 311.428 460.511 311.163Z" fill="#4D69BE"/>
<path d="M428.35 171.611C428.13 171.602 427.92 171.513 427.76 171.362C427.6 171.21 427.501 171.005 427.481 170.786C427.46 170.566 427.52 170.347 427.649 170.168C427.778 169.99 427.968 169.864 428.182 169.815C451.172 165.456 458.116 150.657 458.116 150.513C458.157 150.393 458.222 150.282 458.308 150.189C458.394 150.095 458.498 150.021 458.615 149.97C458.731 149.919 458.857 149.893 458.984 149.894C459.111 149.895 459.236 149.922 459.352 149.974C459.467 150.026 459.571 150.102 459.656 150.196C459.741 150.29 459.805 150.402 459.844 150.522C459.883 150.643 459.897 150.77 459.884 150.897C459.871 151.023 459.832 151.145 459.769 151.255C459.482 151.902 452.369 167.061 428.47 171.611H428.35Z" fill="#4D69BE"/>
<path d="M400.297 211.447C400.274 211.549 400.234 211.646 400.177 211.734L399.112 213.434V213.53C397.914 215.386 396.717 217.422 395.52 219.517C393.592 222.894 391.592 226.558 389.641 230.293L389.736 227.156C389.736 226.833 389.736 226.51 389.736 226.186C392.886 220.331 396.035 214.859 398.669 210.704C398.785 210.53 398.958 210.401 399.158 210.339C399.359 210.277 399.574 210.286 399.769 210.365C399.963 210.444 400.124 210.588 400.225 210.772C400.326 210.956 400.36 211.169 400.321 211.375L400.297 211.447Z" fill="#4D69BE"/>
<path d="M516.156 177.789C516.156 177.789 545.527 168.342 554.256 149.052C556.77 143.461 536.044 86.7892 536.044 86.7892L526.034 87.2681C526.034 87.2681 528.884 106.905 530.608 118.052C532.033 127.212 534.332 138.168 535.098 141.772L535.362 142.97L533.877 143.245C520.143 146.035 502.602 154.979 502.602 154.979L516.156 177.789Z" fill="#FFA681"/>
<path d="M542.747 148.418C542.949 148.564 543.201 148.625 543.448 148.587C543.694 148.549 543.916 148.415 544.064 148.214C544.14 148.115 544.195 148.002 544.226 147.881C544.257 147.761 544.263 147.635 544.244 147.512C544.225 147.389 544.181 147.271 544.115 147.165C544.05 147.059 543.963 146.968 543.861 146.897C541.064 144.986 538.14 143.27 535.108 141.76L535.371 142.958L533.887 143.233C536.956 144.755 539.917 146.487 542.747 148.418Z" fill="#F97853"/>
<path d="M471.17 151.842C471.17 151.842 462.273 172.712 484.916 184.326C500.589 192.373 536.283 171.371 536.283 171.371L523.555 144.394C523.555 144.394 490.891 157.829 471.17 151.842Z" fill="url(#paint4_linear)"/>
<path d="M530.919 54.8313C530.033 55.4539 530.212 59.2855 530.607 62.9015L530.224 62.9614C529.171 58.172 527.075 49.946 525.279 51.5146C524.082 52.5443 525.674 59.6088 526.752 63.8355L526.093 64.051C524.74 59.0221 521.831 49.3593 519.891 51.2392C518.598 52.4366 521.088 60.9977 522.453 65.3442L521.891 65.5717C520.574 61.3569 517.76 53.3945 515.832 55.2624C514.084 56.9866 519.089 68.9602 519.089 68.9602L520.382 73.7497C520.382 73.7497 518.825 74.4202 516.395 71.6663C513.964 68.9123 511.054 68.4334 513.078 72.4086C515.365 76.9107 518.742 80.1317 520.262 83.3166C521.783 86.5016 526.369 87.5314 526.369 87.5314L535.768 87.0764C535.768 87.0764 537.588 71.1993 534.08 63.62C533.553 59.1298 532.463 53.7537 530.919 54.8313Z" fill="#FFA681"/>
<path d="M414.668 91.4586C414.668 107.467 424.522 118.495 440.519 118.495C456.516 118.495 467.699 106.641 467.699 90.6324C467.74 86.4792 467.026 82.3532 465.592 78.4552C465.508 78.2397 465.424 78.0241 465.341 77.8086C465.173 77.3895 464.993 76.9824 464.802 76.6112C464.526 75.9886 464.215 75.4139 463.88 74.8032C459.713 67.3077 452.241 62.5422 442.207 62.5422C423.002 62.5063 414.668 75.4618 414.668 91.4586Z" fill="#18315B"/>
<path d="M418.258 98.3555C418.258 98.3555 413.816 92.3687 410.511 97.3258C407.206 102.283 411.876 116.711 419.97 113.167L418.258 98.3555Z" fill="#F97853"/>
<path d="M418.197 108.701C418.047 108.701 417.902 108.652 417.783 108.561C417.664 108.47 417.578 108.342 417.539 108.198C416.341 103.732 411.648 101.912 411.552 101.9C411.468 101.868 411.391 101.821 411.325 101.759C411.259 101.698 411.206 101.624 411.169 101.543C411.132 101.461 411.111 101.373 411.108 101.283C411.105 101.193 411.119 101.104 411.151 101.02C411.182 100.935 411.23 100.858 411.291 100.793C411.352 100.727 411.426 100.674 411.508 100.637C411.589 100.6 411.678 100.579 411.767 100.576C411.857 100.572 411.947 100.587 412.031 100.618C412.246 100.702 417.347 102.678 418.796 107.803C418.819 107.889 418.826 107.979 418.815 108.068C418.803 108.157 418.775 108.243 418.73 108.321C418.686 108.399 418.626 108.467 418.555 108.522C418.484 108.577 418.403 108.617 418.317 108.641L418.197 108.701Z" fill="#EA5143"/>
<path d="M413.526 106.45C413.403 106.45 413.283 106.417 413.177 106.354C413.071 106.292 412.984 106.202 412.925 106.094C412.866 105.986 412.838 105.864 412.842 105.741C412.847 105.618 412.885 105.499 412.952 105.396C413.605 104.488 414.49 103.773 415.514 103.324C415.594 103.258 415.689 103.212 415.79 103.188C415.891 103.164 415.996 103.163 416.097 103.186C416.199 103.209 416.294 103.254 416.375 103.32C416.456 103.385 416.521 103.467 416.565 103.561C416.609 103.655 416.631 103.758 416.63 103.862C416.628 103.966 416.603 104.068 416.556 104.161C416.509 104.254 416.441 104.334 416.358 104.397C416.275 104.459 416.179 104.502 416.077 104.522C415.295 104.862 414.614 105.398 414.101 106.078C414.046 106.185 413.964 106.276 413.864 106.341C413.763 106.406 413.646 106.444 413.526 106.45Z" fill="#EA5143"/>
<path d="M464.105 98.3555C464.105 98.3555 468.547 92.3687 471.852 97.3258C475.156 102.283 470.487 116.711 462.393 113.167L464.105 98.3555Z" fill="#F97853"/>
<path d="M464.105 108.701C464.255 108.701 464.401 108.652 464.52 108.561C464.639 108.47 464.724 108.342 464.764 108.198C465.961 103.732 470.643 101.912 470.751 101.9C470.835 101.868 470.912 101.821 470.977 101.759C471.043 101.698 471.096 101.624 471.133 101.543C471.171 101.461 471.191 101.373 471.195 101.283C471.198 101.193 471.183 101.104 471.152 101.02C471.12 100.935 471.073 100.858 471.011 100.793C470.95 100.727 470.876 100.674 470.795 100.637C470.713 100.6 470.625 100.579 470.535 100.576C470.445 100.572 470.356 100.587 470.272 100.618C470.056 100.702 464.955 102.678 463.506 107.803C463.483 107.889 463.477 107.979 463.488 108.068C463.499 108.157 463.528 108.243 463.572 108.321C463.617 108.399 463.676 108.467 463.747 108.522C463.818 108.577 463.899 108.617 463.985 108.641L464.105 108.701Z" fill="#EA5143"/>
<path d="M468.811 106.45C468.933 106.45 469.054 106.417 469.16 106.354C469.266 106.292 469.353 106.202 469.412 106.094C469.471 105.986 469.499 105.864 469.495 105.741C469.49 105.618 469.452 105.499 469.385 105.396C468.732 104.488 467.847 103.773 466.823 103.324C466.743 103.258 466.648 103.212 466.547 103.188C466.446 103.164 466.341 103.163 466.239 103.186C466.138 103.209 466.043 103.254 465.962 103.32C465.881 103.385 465.816 103.467 465.772 103.561C465.728 103.655 465.706 103.758 465.707 103.862C465.709 103.966 465.734 104.068 465.781 104.161C465.828 104.254 465.896 104.334 465.979 104.397C466.062 104.459 466.158 104.502 466.26 104.522C467.042 104.862 467.722 105.398 468.236 106.078C468.29 106.185 468.372 106.276 468.473 106.341C468.574 106.406 468.691 106.444 468.811 106.45Z" fill="#EA5143"/>
<path d="M452.132 125.452V139.82C452.132 139.82 447.833 147.148 442.026 147.651C436.219 148.154 431.07 141.341 431.07 141.341V126.434L452.132 125.452Z" fill="#FFA681"/>
<path d="M452.132 125.452V131.846C448.241 136.168 441.356 137.246 431.07 135.737V126.434L452.132 125.452Z" fill="#F97853"/>
<path d="M467.291 88.4773C467.065 94.5742 466.441 100.65 465.423 106.665C465.16 108.066 464.861 109.371 464.525 110.545C461.496 121.153 453.917 139.353 432.699 131.774C423.324 128.433 418.99 117.992 417.05 107.372C415.947 100.867 415.474 94.2708 415.637 87.6751C415.688 85.0646 416.418 82.5125 417.755 80.2701C419.093 78.0277 420.991 76.1725 423.264 74.8872C435.789 67.7869 449.007 70.433 457.7 73.7737C460.643 74.9038 463.154 76.9333 464.876 79.5733C466.598 82.2132 467.443 85.3291 467.291 88.4773Z" fill="#FFA681"/>
<path d="M430.301 103.013C431.28 103.013 432.073 101.77 432.073 100.235C432.073 98.7012 431.28 97.4575 430.301 97.4575C429.323 97.4575 428.529 98.7012 428.529 100.235C428.529 101.77 429.323 103.013 430.301 103.013Z" fill="#18315B"/>
<path d="M451.147 102.953C452.126 102.953 452.919 101.71 452.919 100.175C452.919 98.6413 452.126 97.3976 451.147 97.3976C450.168 97.3976 449.375 98.6413 449.375 100.175C449.375 101.71 450.168 102.953 451.147 102.953Z" fill="#18315B"/>
<path d="M456.921 90.6086C456.921 90.6086 451.342 88.4054 447.043 90.2614L447.474 92.6561C447.474 92.6561 453.784 92.1173 456.957 93.4104C457.271 92.5007 457.258 91.51 456.921 90.6086Z" fill="#18315B"/>
<path d="M424.401 90.6086C424.401 90.6086 429.981 88.4054 434.279 90.2614L433.848 92.6561C433.848 92.6561 427.538 92.1173 424.365 93.4104C424.051 92.5007 424.064 91.51 424.401 90.6086Z" fill="#18315B"/>
<path d="M441.354 111.898C442.204 111.868 443.043 111.69 443.832 111.371C444.001 111.303 444.135 111.17 444.206 111.003C444.276 110.836 444.278 110.647 444.209 110.479C444.141 110.311 444.009 110.176 443.842 110.106C443.674 110.035 443.486 110.034 443.317 110.102C442.461 110.503 441.492 110.596 440.575 110.365C440.47 110.297 440.385 110.202 440.326 110.091C440.267 109.98 440.238 109.856 440.24 109.731C440.203 106.234 440.343 102.737 440.659 99.2538C440.666 99.1641 440.656 99.074 440.628 98.9885C440.6 98.903 440.556 98.8238 440.497 98.7554C440.439 98.687 440.368 98.6308 440.288 98.59C440.208 98.5491 440.12 98.5245 440.031 98.5174C439.941 98.5103 439.851 98.521 439.765 98.5487C439.68 98.5765 439.601 98.6208 439.532 98.6792C439.464 98.7376 439.408 98.8088 439.367 98.8889C439.326 98.969 439.301 99.0564 439.294 99.146C438.967 102.728 438.831 106.326 438.887 109.922C438.906 110.259 439.006 110.587 439.179 110.877C439.352 111.167 439.593 111.411 439.881 111.587C440.336 111.819 440.844 111.926 441.354 111.898Z" fill="#F97853"/>
<path d="M432.219 115.37C433.356 119.322 436.589 123.249 441.043 123.309C445.498 123.369 448.718 119.322 449.856 115.37H432.219Z" fill="white"/>
<path d="M440.661 127.631C441.83 127.595 442.973 127.275 443.99 126.697C444.069 126.651 444.137 126.589 444.192 126.517C444.247 126.444 444.287 126.361 444.31 126.272C444.333 126.184 444.338 126.092 444.325 126.001C444.312 125.911 444.282 125.824 444.235 125.745C444.189 125.667 444.128 125.598 444.055 125.543C443.982 125.488 443.899 125.448 443.81 125.425C443.722 125.403 443.63 125.398 443.539 125.41C443.449 125.423 443.362 125.453 443.283 125.5C442.48 125.951 441.582 126.206 440.661 126.242C439.785 126.199 438.931 125.949 438.171 125.512C438.092 125.465 438.005 125.433 437.914 125.42C437.824 125.406 437.731 125.411 437.642 125.433C437.553 125.455 437.469 125.495 437.396 125.55C437.322 125.604 437.26 125.673 437.213 125.751C437.166 125.83 437.134 125.917 437.121 126.008C437.107 126.098 437.112 126.191 437.134 126.28C437.156 126.369 437.196 126.453 437.25 126.526C437.305 126.6 437.374 126.662 437.452 126.709C438.429 127.277 439.532 127.594 440.661 127.631Z" fill="#F97853"/>
<path d="M466.572 98.4753H463.47C463.818 95.3622 464.308 89.8783 461.746 89.1C453.664 86.6214 464.141 80.91 460.549 78.0602C456.957 75.2105 447.833 76.4318 441.523 76.2283C435.212 76.0247 424.963 76.1085 422.496 76.6833C420.03 77.258 421.371 81.377 422.281 84.5619C423.191 87.7469 419.24 91.2792 418.569 94.5839C418.396 95.8713 418.396 97.176 418.569 98.4634H415.983C415.671 94.4402 415.636 90.7044 415.683 87.6871C415.734 85.0766 416.464 82.5244 417.802 80.282C419.139 78.0396 421.038 76.1844 423.311 74.8992C435.835 67.7988 449.054 70.445 457.747 73.7856C460.687 74.9178 463.195 76.9481 464.915 79.5879C466.635 82.2276 467.478 85.3425 467.326 88.4893C467.146 91.5426 466.919 95.0269 466.572 98.4753Z" fill="#18315B"/>
<path d="M429.993 108.294C428.461 108.289 426.966 107.831 425.695 106.977C424.424 106.123 423.435 104.911 422.852 103.495C422.27 102.079 422.12 100.522 422.421 99.021C422.723 97.5198 423.463 96.1417 424.547 95.0606C425.631 93.9796 427.012 93.2441 428.514 92.9472C430.016 92.6502 431.572 92.805 432.987 93.392C434.401 93.9791 435.609 94.972 436.459 96.2455C437.31 97.519 437.763 99.0158 437.763 100.547C437.763 101.566 437.562 102.576 437.171 103.517C436.781 104.459 436.208 105.314 435.486 106.033C434.764 106.753 433.907 107.323 432.965 107.711C432.022 108.099 431.012 108.297 429.993 108.294ZM429.993 94.0094C428.701 94.0164 427.441 94.4059 426.37 95.1286C425.3 95.8512 424.468 96.8747 423.978 98.0699C423.489 99.2651 423.365 100.578 423.621 101.844C423.877 103.11 424.503 104.272 425.418 105.182C426.334 106.093 427.499 106.712 428.766 106.961C430.033 107.211 431.346 107.079 432.539 106.583C433.731 106.088 434.75 105.25 435.467 104.175C436.184 103.101 436.566 101.838 436.566 100.547C436.565 99.6859 436.393 98.8335 436.062 98.0387C435.73 97.2439 435.246 96.5222 434.635 95.915C434.024 95.3077 433.3 94.8269 432.504 94.4999C431.707 94.1729 430.854 94.0062 429.993 94.0094Z" fill="white"/>
<path d="M451.149 108.293C449.617 108.293 448.119 107.839 446.845 106.988C445.571 106.137 444.578 104.927 443.992 103.511C443.406 102.096 443.252 100.538 443.551 99.0352C443.85 97.5324 444.588 96.152 445.671 95.0686C446.755 93.9852 448.135 93.2473 449.638 92.9484C451.141 92.6495 452.698 92.8029 454.114 93.3893C455.53 93.9756 456.739 94.9686 457.591 96.2425C458.442 97.5165 458.896 99.0143 458.896 100.547C458.896 102.601 458.08 104.572 456.627 106.024C455.174 107.477 453.204 108.293 451.149 108.293ZM451.149 94.0089C449.856 94.0089 448.592 94.3923 447.517 95.1107C446.442 95.8291 445.604 96.8501 445.109 98.0447C444.615 99.2393 444.485 100.554 444.737 101.822C444.99 103.09 445.612 104.255 446.526 105.169C447.441 106.084 448.606 106.706 449.874 106.959C451.142 107.211 452.457 107.081 453.651 106.586C454.846 106.092 455.867 105.254 456.585 104.179C457.303 103.104 457.687 101.84 457.687 100.547C457.684 98.8136 456.994 97.1526 455.769 95.9272C454.543 94.7019 452.882 94.0121 451.149 94.0089Z" fill="white"/>
<path d="M423.55 98.0561C423.47 98.0566 423.391 98.0409 423.317 98.0101C423.242 97.9792 423.175 97.9338 423.119 97.8765C422.035 96.8751 420.733 96.1379 419.317 95.7225C417.9 95.3071 416.407 95.2247 414.953 95.4818C414.794 95.5183 414.628 95.4902 414.49 95.4038C414.351 95.3173 414.253 95.1796 414.217 95.0208C414.18 94.862 414.208 94.6952 414.295 94.5571C414.381 94.419 414.519 94.3209 414.678 94.2844C416.329 93.9617 418.034 94.0378 419.65 94.5064C421.266 94.9749 422.747 95.8225 423.969 96.9785C424.056 97.0622 424.116 97.1703 424.14 97.2885C424.165 97.4067 424.153 97.5296 424.106 97.6409C424.06 97.7523 423.981 97.8469 423.879 97.9125C423.778 97.978 423.659 98.0114 423.538 98.0082L423.55 98.0561Z" fill="white"/>
<path d="M457.735 98.0564C457.601 98.0634 457.469 98.0252 457.36 97.9481C457.25 97.871 457.17 97.7594 457.131 97.6311C457.092 97.5028 457.098 97.3653 457.147 97.2405C457.195 97.1157 457.285 97.0109 457.4 96.9428C457.628 96.7872 463.111 93.255 467.769 94.0213C467.928 94.0467 468.07 94.1341 468.165 94.2644C468.259 94.3946 468.298 94.557 468.272 94.7157C468.247 94.8745 468.159 95.0167 468.029 95.111C467.899 95.2053 467.736 95.244 467.578 95.2186C463.387 94.5242 458.118 97.9247 458.059 97.9606C457.962 98.0228 457.85 98.0561 457.735 98.0564Z" fill="white"/>
<path d="M443.834 98.8106C443.442 98.2741 442.944 97.8232 442.372 97.4856C441.799 97.148 441.164 96.9306 440.505 96.8469C439.866 96.9231 439.252 97.1371 438.704 97.4741C438.156 97.8111 437.688 98.263 437.332 98.7986L436.326 98.1401C436.79 97.4333 437.408 96.8409 438.134 96.4074C438.86 95.974 439.675 95.7107 440.517 95.6376C441.369 95.7149 442.195 95.974 442.938 96.3974C443.682 96.8209 444.326 97.3988 444.827 98.0922L443.834 98.8106Z" fill="white"/>
<path d="M397.746 210.249C392.554 220.122 386.618 229.584 379.99 238.555C377.381 242.047 374.468 245.3 371.285 248.278C366.567 252.54 361.957 254.768 358.209 252.876C344.284 245.907 313.236 190.086 313.236 190.086L320.876 181.022C320.876 181.022 334.681 196.959 344.823 206.502C354.138 215.302 361.287 221.876 361.287 221.876C362.58 219.912 363.945 217.769 365.382 215.494C366.818 213.219 368.471 210.525 370.075 207.891C381.678 188.817 394.585 165.947 394.585 165.947L397.746 210.249Z" fill="#FFA681"/>
<path d="M379.977 238.591C377.368 242.083 374.455 245.336 371.272 248.314L365.357 215.494C366.878 213.099 368.447 210.525 370.051 207.891L379.977 238.591Z" fill="#F97853"/>
<path d="M394.586 165.947L366.711 209.794L376.062 248.362L399.136 210.8C399.136 210.8 401.925 185.105 394.586 165.947Z" fill="url(#paint5_linear)"/>
<path d="M359.527 383.724C357.539 372.684 355.576 360.243 353.792 348.162C353.4 345.488 353.001 342.842 352.594 340.224C351.169 330.214 349.888 320.754 348.858 312.9C348.463 309.918 348.116 307.164 347.793 304.71C346.799 296.867 346.212 292.006 346.212 292.006L302.185 293.67L258.026 292.006C258.026 292.006 256.829 301.584 255.069 315.606C254.733 318.144 254.386 320.826 254.003 323.628C253.021 330.956 251.908 339.05 250.698 347.336V347.695C250.315 350.281 249.944 352.88 249.501 355.478C249.503 355.514 249.503 355.55 249.501 355.586C248.555 361.872 247.561 368.146 246.555 374.181C246.136 376.671 245.717 379.126 245.358 381.509L244.963 383.712L359.527 383.724Z" fill="url(#paint6_linear)"/>
<path d="M264.075 309.379C266.369 309.379 268.23 307.519 268.23 305.225C268.23 302.93 266.369 301.07 264.075 301.07C261.78 301.07 259.92 302.93 259.92 305.225C259.92 307.519 261.78 309.379 264.075 309.379Z" fill="#4D69BE"/>
<path d="M274.37 325.46C276.664 325.46 278.525 323.6 278.525 321.305C278.525 319.011 276.664 317.15 274.37 317.15C272.075 317.15 270.215 319.011 270.215 321.305C270.215 323.6 272.075 325.46 274.37 325.46Z" fill="#4D69BE"/>
<path d="M294.629 317.162C296.924 317.162 298.784 315.302 298.784 313.007C298.784 310.713 296.924 308.853 294.629 308.853C292.335 308.853 290.475 310.713 290.475 313.007C290.475 315.302 292.335 317.162 294.629 317.162Z" fill="#4D69BE"/>
<path d="M262.659 342.535C264.953 342.535 266.814 340.674 266.814 338.38C266.814 336.085 264.953 334.225 262.659 334.225C260.364 334.225 258.504 336.085 258.504 338.38C258.504 340.674 260.364 342.535 262.659 342.535Z" fill="#4D69BE"/>
<path d="M287.971 340.75C290.266 340.75 292.126 338.89 292.126 336.596C292.126 334.301 290.266 332.441 287.971 332.441C285.677 332.441 283.816 334.301 283.816 336.596C283.816 338.89 285.677 340.75 287.971 340.75Z" fill="#4D69BE"/>
<path d="M257.812 319.497C257.814 320.53 257.429 321.527 256.733 322.291C256.038 323.056 255.082 323.532 254.053 323.628C254.424 320.826 254.783 318.144 255.118 315.606C255.911 315.901 256.594 316.433 257.076 317.129C257.557 317.824 257.815 318.651 257.812 319.497Z" fill="#4D69BE"/>
<path d="M329.223 365.129C331.518 365.129 333.378 363.268 333.378 360.974C333.378 358.679 331.518 356.819 329.223 356.819C326.929 356.819 325.068 358.679 325.068 360.974C325.068 363.268 326.929 365.129 329.223 365.129Z" fill="#4D69BE"/>
<path d="M327.258 342.535C329.553 342.535 331.413 340.674 331.413 338.38C331.413 336.085 329.553 334.225 327.258 334.225C324.964 334.225 323.104 336.085 323.104 338.38C323.104 340.674 324.964 342.535 327.258 342.535Z" fill="#4D69BE"/>
<path d="M353.792 348.162C353.225 348.41 352.609 348.528 351.99 348.507C351.371 348.486 350.765 348.327 350.216 348.042C349.666 347.757 349.187 347.353 348.814 346.859C348.441 346.365 348.183 345.793 348.059 345.187C347.935 344.58 347.948 343.954 348.097 343.353C348.246 342.752 348.528 342.192 348.921 341.714C349.315 341.236 349.81 340.852 350.371 340.59C350.932 340.328 351.544 340.195 352.164 340.2C352.323 340.188 352.483 340.188 352.642 340.2C353.018 342.826 353.401 345.48 353.792 348.162Z" fill="#4D69BE"/>
<path d="M331.413 381.7C333.707 381.7 335.568 379.84 335.568 377.545C335.568 375.251 333.707 373.391 331.413 373.391C329.118 373.391 327.258 375.251 327.258 377.545C327.258 379.84 329.118 381.7 331.413 381.7Z" fill="#4D69BE"/>
<path d="M349.155 375.079C351.45 375.079 353.31 373.219 353.31 370.924C353.31 368.629 351.45 366.769 349.155 366.769C346.86 366.769 345 368.629 345 370.924C345 373.219 346.86 375.079 349.155 375.079Z" fill="#4D69BE"/>
<path d="M316.374 383.724C315.994 383.168 315.484 382.714 314.888 382.4C314.292 382.086 313.629 381.922 312.956 381.922C312.282 381.922 311.619 382.086 311.023 382.4C310.428 382.714 309.918 383.168 309.537 383.724H316.374Z" fill="#4D69BE"/>
<path d="M259.928 368.745C262.223 368.745 264.083 366.884 264.083 364.59C264.083 362.295 262.223 360.435 259.928 360.435C257.634 360.435 255.773 362.295 255.773 364.59C255.773 366.884 257.634 368.745 259.928 368.745Z" fill="#4D69BE"/>
<path d="M253.129 351.539C253.129 352.542 252.765 353.512 252.105 354.267C251.444 355.022 250.532 355.512 249.537 355.646C249.54 355.61 249.54 355.574 249.537 355.538C249.932 352.94 250.315 350.341 250.734 347.755C251.453 348.091 252.061 348.626 252.485 349.297C252.91 349.967 253.133 350.745 253.129 351.539Z" fill="#4D69BE"/>
<path d="M248.278 377.546C248.277 378.438 247.989 379.306 247.456 380.022C246.924 380.738 246.175 381.264 245.32 381.521C245.739 379.126 246.158 376.731 246.518 374.193C247.056 374.572 247.497 375.073 247.803 375.656C248.109 376.24 248.272 376.887 248.278 377.546Z" fill="#4D69BE"/>
<path d="M270.213 383.449C272.508 383.449 274.368 381.588 274.368 379.294C274.368 376.999 272.508 375.139 270.213 375.139C267.919 375.139 266.059 376.999 266.059 379.294C266.059 381.588 267.919 383.449 270.213 383.449Z" fill="#4D69BE"/>
<path d="M292.116 380.204C294.41 380.204 296.271 378.343 296.271 376.049C296.271 373.754 294.41 371.894 292.116 371.894C289.821 371.894 287.961 373.754 287.961 376.049C287.961 378.343 289.821 380.204 292.116 380.204Z" fill="#4D69BE"/>
<path d="M276.501 359.8C278.795 359.8 280.655 357.94 280.655 355.646C280.655 353.351 278.795 351.491 276.501 351.491C274.206 351.491 272.346 353.351 272.346 355.646C272.346 357.94 274.206 359.8 276.501 359.8Z" fill="#4D69BE"/>
<path d="M298.772 355.646C301.067 355.646 302.927 353.785 302.927 351.491C302.927 349.196 301.067 347.336 298.772 347.336C296.477 347.336 294.617 349.196 294.617 351.491C294.617 353.785 296.477 355.646 298.772 355.646Z" fill="#4D69BE"/>
<path d="M308.807 333.758C311.102 333.758 312.962 331.898 312.962 329.603C312.962 327.308 311.102 325.448 308.807 325.448C306.513 325.448 304.652 327.308 304.652 329.603C304.652 331.898 306.513 333.758 308.807 333.758Z" fill="#4D69BE"/>
<path d="M348.905 312.9C348.614 312.966 348.317 312.998 348.019 312.996C346.918 313.018 345.854 312.602 345.06 311.84C344.267 311.077 343.808 310.031 343.786 308.931C343.764 307.83 344.18 306.766 344.942 305.972C345.704 305.179 346.751 304.72 347.851 304.698C348.162 307.165 348.51 309.919 348.905 312.9Z" fill="#4D69BE"/>
<path d="M323.114 317.162C325.409 317.162 327.269 315.302 327.269 313.007C327.269 310.713 325.409 308.853 323.114 308.853C320.819 308.853 318.959 310.713 318.959 313.007C318.959 315.302 320.819 317.162 323.114 317.162Z" fill="#4D69BE"/>
<path d="M338.309 331.95C340.604 331.95 342.464 330.089 342.464 327.795C342.464 325.5 340.604 323.64 338.309 323.64C336.014 323.64 334.154 325.5 334.154 327.795C334.154 330.089 336.014 331.95 338.309 331.95Z" fill="#4D69BE"/>
<path d="M312.962 368.745C315.256 368.745 317.116 366.884 317.116 364.59C317.116 362.295 315.256 360.435 312.962 360.435C310.667 360.435 308.807 362.295 308.807 364.59C308.807 366.884 310.667 368.745 312.962 368.745Z" fill="#4D69BE"/>
<path d="M348.941 293.095C325.712 308.254 283.086 307.069 256.277 293.095C258.839 277.146 262.264 261.185 261.486 239.968C261.406 237.645 261.306 235.334 261.186 233.035C261.082 231.04 260.967 229.044 260.839 227.049C258.528 191.738 252.457 162.87 255.463 159.146C257.24 157.131 259.296 155.381 261.569 153.949C262.615 153.239 263.729 152.52 264.91 151.794C267.688 150.094 270.777 148.394 273.89 146.729C281.254 142.802 288.738 139.15 292.485 136.659C295.556 138.19 298.922 139.04 302.352 139.15H302.89C306.32 139.039 309.685 138.19 312.757 136.659C316.229 138.97 322.779 142.203 329.52 145.711C334.213 148.142 338.77 150.828 343.17 153.758C345.392 155.135 347.408 156.82 349.157 158.763C350.617 160.607 350.007 168.725 348.75 180.734C347.552 192.552 345.648 208.166 344.523 225.312C344.212 230.102 343.96 234.963 343.78 239.908C343.014 261.185 346.379 277.146 348.941 293.095Z" fill="#009CF8"/>
<path d="M334.788 275.458C316.085 275.374 300.064 266.861 290.019 259.737C283.574 255.24 277.668 250.017 272.417 244.171C272.339 244.081 272.279 243.975 272.241 243.862C272.203 243.748 272.187 243.628 272.196 243.509C272.204 243.389 272.236 243.273 272.289 243.165C272.343 243.058 272.417 242.962 272.507 242.884C272.597 242.805 272.702 242.745 272.816 242.707C272.93 242.669 273.05 242.654 273.169 242.662C273.289 242.67 273.405 242.702 273.513 242.756C273.62 242.809 273.716 242.883 273.794 242.974C278.954 248.726 284.76 253.865 291.096 258.288C300.974 265.257 316.576 273.566 334.788 273.65C335.026 273.65 335.255 273.745 335.423 273.913C335.591 274.082 335.686 274.31 335.686 274.548C335.686 274.786 335.591 275.015 335.423 275.183C335.255 275.352 335.026 275.446 334.788 275.446V275.458Z" fill="url(#paint7_linear)"/>
<path d="M322.348 264.574C306.423 261.449 292.33 249.248 291.684 248.685C291.595 248.606 291.522 248.511 291.47 248.404C291.418 248.298 291.388 248.182 291.381 248.063C291.366 247.824 291.447 247.589 291.606 247.41C291.765 247.23 291.988 247.121 292.227 247.107C292.466 247.092 292.702 247.173 292.881 247.332C293.049 247.476 309.644 261.82 326.539 263.365C326.657 263.376 326.771 263.41 326.876 263.465C326.981 263.52 327.074 263.596 327.149 263.687C327.225 263.778 327.282 263.883 327.317 263.996C327.352 264.11 327.364 264.228 327.353 264.346C327.342 264.464 327.308 264.579 327.253 264.684C327.197 264.788 327.122 264.881 327.031 264.957C326.94 265.032 326.835 265.089 326.721 265.124C326.608 265.159 326.489 265.172 326.371 265.161C325.021 265.034 323.678 264.839 322.348 264.574Z" fill="url(#paint8_linear)"/>
<path d="M298.773 182.183C298.545 182.189 298.324 182.108 298.154 181.957C297.983 181.806 297.877 181.596 297.856 181.369C297.834 181.143 297.9 180.917 298.039 180.736C298.178 180.556 298.381 180.436 298.605 180.399C321.355 176.077 328.276 161.409 328.348 161.241C328.397 161.134 328.466 161.036 328.552 160.956C328.639 160.875 328.74 160.812 328.851 160.77C328.961 160.728 329.079 160.709 329.197 160.713C329.315 160.716 329.432 160.743 329.539 160.792C329.647 160.841 329.744 160.91 329.825 160.997C329.906 161.083 329.969 161.184 330.01 161.295C330.052 161.406 330.072 161.523 330.068 161.641C330.064 161.76 330.037 161.876 329.988 161.984C329.701 162.618 322.66 177.657 298.941 182.159L298.773 182.183Z" fill="url(#paint9_linear)"/>
<path d="M329.449 145.759C324.923 156.081 313.799 166.773 299.323 164.271C285.314 161.876 278.669 154.44 273.867 146.777C281.231 142.838 288.715 139.198 292.462 136.707C295.535 138.235 298.899 139.084 302.329 139.198H302.867C306.297 139.084 309.661 138.235 312.734 136.707C316.23 139.006 322.816 142.239 329.449 145.759Z" fill="#FFA681"/>
<path d="M317.353 137.462C317.259 137.46 317.166 137.477 317.079 137.512C316.992 137.547 316.913 137.599 316.846 137.664C316.779 137.73 316.726 137.809 316.69 137.895C316.653 137.982 316.635 138.074 316.635 138.168C316.635 138.743 316.395 152.393 304.146 153.447C292.783 154.428 288.078 143.556 286.629 139.078C286.588 138.949 286.506 138.836 286.396 138.756C286.287 138.676 286.154 138.634 286.018 138.635H285.886C285.785 138.634 285.684 138.656 285.593 138.702C285.502 138.747 285.424 138.814 285.364 138.896C285.304 138.978 285.265 139.073 285.249 139.174C285.234 139.274 285.243 139.377 285.276 139.473C286.82 144.131 291.777 155.374 303.356 154.955H304.266C317.82 153.758 318.06 138.408 318.06 138.252C318.07 138.153 318.059 138.053 318.028 137.958C317.997 137.863 317.947 137.776 317.88 137.701C317.814 137.627 317.733 137.567 317.642 137.526C317.551 137.485 317.453 137.463 317.353 137.462Z" fill="white"/>
<path d="M326.011 64.9252C326.011 64.9252 336.954 81.8799 335.757 99.541C334.56 117.202 337.374 137.593 321.568 136.659C305.763 135.725 277.577 142.993 268.609 129.236C259.641 115.478 326.011 64.9252 326.011 64.9252Z" fill="#18315B"/>
<path d="M330.072 96.1046C330.072 96.1046 332.909 121.704 320.768 128.757C308.627 135.809 299.826 127.931 299.826 127.931C299.826 127.931 325.426 92.2491 330.072 96.1046Z" fill="#000B29"/>
<path d="M279.615 95.985C279.615 95.985 275.256 90.1658 272.011 94.9792C268.766 99.7926 273.352 113.993 281.291 110.545L279.615 95.985Z" fill="#F97853"/>
<path d="M279.554 106.078C279.408 106.079 279.265 106.031 279.148 105.942C279.031 105.853 278.947 105.729 278.908 105.588C277.71 101.205 273.136 99.4211 273.088 99.4091C272.973 99.32 272.89 99.1956 272.852 99.055C272.813 98.9144 272.822 98.7651 272.876 98.6298C272.93 98.4944 273.027 98.3804 273.152 98.305C273.276 98.2296 273.422 98.1968 273.567 98.2118C275.12 98.8401 276.517 99.7984 277.663 101.02C278.808 102.242 279.674 103.698 280.201 105.288C280.237 105.458 280.206 105.635 280.115 105.782C280.023 105.93 279.878 106.036 279.71 106.078H279.554Z" fill="#EA5143"/>
<path d="M274.921 103.923C274.801 103.923 274.684 103.89 274.581 103.829C274.478 103.767 274.393 103.68 274.336 103.574C274.279 103.469 274.25 103.351 274.254 103.231C274.258 103.111 274.294 102.995 274.358 102.894C274.999 102.002 275.867 101.299 276.873 100.858C277.024 100.82 277.185 100.836 277.326 100.904C277.466 100.972 277.579 101.086 277.645 101.228C277.71 101.37 277.724 101.531 277.683 101.682C277.643 101.833 277.551 101.965 277.423 102.055C276.656 102.391 275.987 102.919 275.484 103.588C275.426 103.687 275.345 103.77 275.246 103.829C275.148 103.888 275.036 103.92 274.921 103.923Z" fill="#EA5143"/>
<path d="M324.565 95.985C324.565 95.985 328.923 90.1658 332.168 94.9792C335.413 99.7926 330.827 113.993 322.889 110.545L324.565 95.985Z" fill="#F97853"/>
<path d="M324.622 106.078C324.768 106.079 324.911 106.031 325.028 105.942C325.144 105.853 325.229 105.729 325.268 105.588C326.466 101.205 331.039 99.4211 331.087 99.4091C331.203 99.32 331.286 99.1956 331.324 99.055C331.362 98.9144 331.354 98.7651 331.3 98.6298C331.246 98.4944 331.149 98.3804 331.024 98.305C330.899 98.2296 330.753 98.1968 330.608 98.2118C329.063 98.8444 327.672 99.8046 326.533 101.026C325.394 102.248 324.534 103.702 324.011 105.288C323.987 105.373 323.981 105.462 323.991 105.549C324.002 105.637 324.03 105.721 324.073 105.798C324.117 105.875 324.175 105.942 324.244 105.997C324.313 106.051 324.393 106.091 324.478 106.114L324.622 106.078Z" fill="#EA5143"/>
<path d="M329.209 103.923C329.329 103.923 329.446 103.89 329.549 103.829C329.652 103.767 329.736 103.68 329.794 103.574C329.851 103.469 329.88 103.351 329.876 103.231C329.872 103.111 329.836 102.995 329.772 102.894C329.131 102.002 328.263 101.299 327.257 100.858C327.106 100.82 326.945 100.836 326.804 100.904C326.663 100.972 326.551 101.086 326.485 101.228C326.42 101.37 326.406 101.531 326.447 101.682C326.487 101.833 326.579 101.965 326.706 102.055C327.474 102.391 328.142 102.919 328.646 103.588C328.703 103.687 328.785 103.77 328.884 103.829C328.982 103.888 329.094 103.92 329.209 103.923Z" fill="#EA5143"/>
<path d="M312.829 122.578V136.707C312.829 136.707 308.614 143.891 302.915 144.394C297.216 144.897 292.139 138.204 292.139 138.204V123.572L312.829 122.578Z" fill="#FFA681"/>
<path d="M312.828 122.578V128.829C309.009 133.067 302.22 134.576 292.174 133.091V123.512L312.828 122.578Z" fill="#F97853"/>
<path d="M327.711 86.2982C327.489 92.2786 326.878 98.2382 325.879 104.139C325.616 105.504 325.316 106.797 324.993 107.947C322.024 118.352 314.588 136.204 293.766 128.769C284.57 125.488 280.307 115.251 278.416 104.821C277.332 98.4392 276.867 91.9675 277.027 85.496C277.078 82.9378 277.794 80.437 279.103 78.239C280.413 76.0411 282.272 74.2217 284.498 72.9595C296.783 65.9909 309.751 68.5891 318.288 71.8699C321.177 72.9776 323.643 74.9683 325.335 77.5589C327.027 80.1494 327.858 83.2076 327.711 86.2982Z" fill="#FFA681"/>
<path d="M291.183 99.5408C292.142 99.5408 292.92 98.3185 292.92 96.8108C292.92 95.3031 292.142 94.0808 291.183 94.0808C290.225 94.0808 289.447 95.3031 289.447 96.8108C289.447 98.3185 290.225 99.5408 291.183 99.5408Z" fill="#18315B"/>
<path d="M312.613 99.5408C313.572 99.5408 314.349 98.3185 314.349 96.8108C314.349 95.3031 313.572 94.0808 312.613 94.0808C311.654 94.0808 310.877 95.3031 310.877 96.8108C310.877 98.3185 311.654 99.5408 312.613 99.5408Z" fill="#18315B"/>
<path d="M287.746 88.6808C290.162 87.9893 292.658 87.615 295.17 87.5673C295.362 87.5625 295.552 87.6005 295.728 87.6784C295.903 87.7563 296.059 87.8723 296.184 88.0178C296.309 88.1634 296.4 88.335 296.45 88.52C296.5 88.7051 296.509 88.8991 296.475 89.0879C296.42 89.3954 296.255 89.6722 296.01 89.8662C295.765 90.0602 295.458 90.1582 295.146 90.1416C293.051 90.0458 287.567 90.3332 284.98 91.339C284.982 91.0821 285.035 90.828 285.136 90.5916C285.236 90.3553 285.383 90.1412 285.567 89.962C286.155 89.3345 286.912 88.8898 287.746 88.6808Z" fill="#18315B"/>
<path d="M315.787 88.7408C313.372 88.0493 310.876 87.6749 308.364 87.6272C308.175 87.6263 307.989 87.6667 307.817 87.7455C307.646 87.8243 307.494 87.9396 307.372 88.0833C307.25 88.227 307.161 88.3957 307.111 88.5776C307.061 88.7594 307.051 88.95 307.083 89.1359C307.138 89.4433 307.303 89.7201 307.548 89.9141C307.793 90.1082 308.1 90.2061 308.412 90.1896C310.507 90.0938 315.991 90.3812 318.577 91.3869C318.576 91.13 318.523 90.876 318.422 90.6396C318.321 90.4032 318.175 90.1892 317.991 90.01C317.395 89.3824 316.629 88.9414 315.787 88.7408Z" fill="#18315B"/>
<path d="M302.316 109.276C301.807 109.294 301.302 109.174 300.855 108.928C300.573 108.754 300.337 108.514 300.168 108.228C299.999 107.942 299.902 107.62 299.885 107.288C299.835 103.775 299.971 100.262 300.292 96.7631C300.307 96.5853 300.391 96.4204 300.527 96.3047C300.663 96.1891 300.839 96.1322 301.017 96.1465C301.195 96.1607 301.359 96.2451 301.475 96.3809C301.591 96.5168 301.648 96.693 301.633 96.8709C301.324 100.286 301.188 103.715 301.226 107.144C301.225 107.268 301.255 107.39 301.314 107.499C301.372 107.608 301.458 107.7 301.562 107.767C302.462 107.996 303.413 107.907 304.256 107.515C304.403 107.494 304.553 107.522 304.682 107.595C304.812 107.668 304.914 107.782 304.971 107.919C305.029 108.056 305.039 108.209 305.001 108.352C304.962 108.496 304.877 108.623 304.759 108.713C303.984 109.042 303.157 109.233 302.316 109.276Z" fill="#F97853"/>
<path d="M293.791 113.514C294.294 116.065 295.982 120.758 301.67 120.758C307.357 120.758 308.962 116.472 309.512 113.514H293.791Z" fill="white"/>
<path d="M301.585 124.674C300.475 124.632 299.393 124.315 298.436 123.752C298.277 123.658 298.162 123.505 298.116 123.327C298.07 123.148 298.097 122.959 298.19 122.8C298.284 122.641 298.437 122.526 298.615 122.48C298.794 122.434 298.983 122.461 299.142 122.554C299.873 122.978 300.693 123.224 301.537 123.273C302.44 123.24 303.322 122.994 304.111 122.554C304.19 122.509 304.277 122.479 304.367 122.467C304.457 122.455 304.548 122.461 304.636 122.484C304.724 122.507 304.806 122.548 304.879 122.603C304.951 122.658 305.011 122.727 305.057 122.806C305.103 122.884 305.132 122.971 305.144 123.061C305.156 123.151 305.151 123.243 305.127 123.331C305.104 123.419 305.064 123.501 305.008 123.573C304.953 123.645 304.884 123.706 304.806 123.752C303.822 124.315 302.717 124.631 301.585 124.674Z" fill="#F97853"/>
<path d="M330.419 85.1963C330.263 85.5093 330.035 85.781 329.754 85.9891C329.473 86.1972 329.147 86.3358 328.802 86.3937C328.819 88.0533 328.739 89.7125 328.563 91.3628C327.737 101.061 325.282 102.762 324.731 100.367C324.395 95.8047 324.339 91.2262 324.564 86.6571C323.359 86.578 322.159 86.4301 320.972 86.2141L318.72 76.8028L318.026 86.1423C314.649 87.3396 306.783 85.4358 306.783 85.4358L304.089 76.1442L302.46 85.0886C297.395 87.5551 291.073 85.9148 291.073 85.9148L289.624 76.3358L286.272 85.9148C286.272 85.9148 275.496 89.7942 275.352 85.9148C275.28 83.6637 276.932 77.3177 278.321 72.3965C279.034 69.7714 280.266 67.3159 281.945 65.175C283.623 63.0341 285.713 61.2513 288.092 59.9319C301.49 52.7477 315.631 56.5673 320.505 59.4649C330.838 65.6194 330.419 85.1963 330.419 85.1963Z" fill="#18315B"/>
<path d="M281.29 65.6436C281.29 65.6436 272.406 76.2163 269.472 95.0988C266.538 113.981 262.503 127.931 273.878 134.169C286.199 140.922 285.134 127.08 284.954 123.309C284.774 119.537 274.297 109.264 281.29 80.3113C283.541 70.9599 281.29 65.6436 281.29 65.6436Z" fill="#18315B"/>
<path d="M279.207 104.666C279.207 104.809 279.207 105.552 279.279 106.725C279.279 107.456 279.351 108.342 279.423 109.347C279.842 115.705 281.075 126.697 284.715 130.505C286.152 132.014 288.918 132.768 292.175 133.079V128.11C288.77 126.416 285.927 123.776 283.985 120.507C281.749 116.121 280.222 111.409 279.458 106.546L279.207 104.666Z" fill="#000B29"/>
<path d="M326.311 112.412C327.177 112.412 327.879 111.71 327.879 110.844C327.879 109.978 327.177 109.275 326.311 109.275C325.444 109.275 324.742 109.978 324.742 110.844C324.742 111.71 325.444 112.412 326.311 112.412Z" fill="white"/>
<path d="M359.934 229.288C355.48 242.039 335.532 241.106 312.818 234.137H312.722L312.507 234.065L309.381 233.071L308.088 232.64C305.638 231.842 303.175 230.96 300.701 229.994C292.52 226.867 284.507 223.318 276.693 219.361V219.23L279.016 213.243L279.807 211.195C279.807 211.195 321.918 215.781 343.099 211.351L344.153 211.123C344.098 210.653 344.018 210.185 343.914 209.723C332.694 171.527 344.967 164.223 349.074 158.87C349.158 158.763 368.316 205.22 359.934 229.288Z" fill="#009CF8"/>
<path d="M353.063 217.434C352.94 217.495 352.805 217.528 352.668 217.529C352.5 217.529 352.337 217.481 352.195 217.392C352.053 217.303 351.939 217.177 351.866 217.027C350.261 213.746 344.813 211.782 343.137 211.255L344.19 211.028C344.107 210.561 344.023 210.094 343.951 209.627C346.082 210.333 351.638 212.477 353.53 216.248C353.577 216.357 353.603 216.473 353.605 216.592C353.608 216.71 353.586 216.828 353.543 216.938C353.5 217.048 353.435 217.149 353.352 217.234C353.27 217.319 353.172 217.387 353.063 217.434Z" fill="url(#paint10_linear)"/>
<path d="M294.079 215.865C285.482 215.865 278.514 215.374 277.903 215.326C277.785 215.318 277.67 215.286 277.564 215.233C277.459 215.18 277.365 215.106 277.287 215.017C277.21 214.927 277.151 214.823 277.114 214.711C277.077 214.599 277.062 214.48 277.071 214.362C277.079 214.245 277.111 214.129 277.164 214.024C277.217 213.918 277.291 213.824 277.38 213.747C277.561 213.591 277.796 213.513 278.035 213.53C278.358 213.53 309.944 215.793 322.397 210.74C322.507 210.69 322.627 210.663 322.748 210.66C322.869 210.657 322.99 210.679 323.102 210.724C323.215 210.769 323.317 210.837 323.403 210.922C323.489 211.008 323.556 211.11 323.602 211.222C323.647 211.335 323.669 211.455 323.667 211.576C323.664 211.698 323.637 211.817 323.587 211.928C323.537 212.038 323.465 212.137 323.376 212.219C323.287 212.301 323.182 212.364 323.068 212.405C316.171 215.207 304.029 215.865 294.079 215.865Z" fill="url(#paint11_linear)"/>
<path d="M309.369 232.999C316.553 231.012 323.127 229.072 326.911 227.863C332.167 226.174 336.489 220.87 338.489 216.356C338.595 216.156 338.773 216.004 338.987 215.93C339.201 215.855 339.435 215.865 339.642 215.955C339.849 216.046 340.015 216.212 340.105 216.419C340.195 216.627 340.204 216.861 340.129 217.074C337.998 221.96 333.245 227.719 327.461 229.575C324.719 230.461 320.529 231.706 315.679 233.095C313.612 233.686 311.417 233.652 309.369 232.999Z" fill="url(#paint12_linear)"/>
<path d="M328.804 226.881C263.715 248.805 243.695 234.46 243.695 234.46C239.313 194.839 255.465 159.206 255.465 159.206C260.255 167.073 265.631 180.758 265.631 180.758L267.056 211.136L266.948 211.974V212.369L266.685 214.44L267.104 214.536C286.789 218.691 322.793 214.045 322.793 214.045L328.804 226.881Z" fill="#009CF8"/>
<path d="M267.031 214.608C263.385 217.646 260.088 221.08 257.2 224.845C257.056 225.036 256.841 225.161 256.604 225.194C256.368 225.226 256.127 225.163 255.937 225.019C255.746 224.875 255.621 224.66 255.588 224.423C255.556 224.186 255.619 223.946 255.763 223.756C258.995 219.533 262.726 215.718 266.875 212.393L266.611 214.464L267.031 214.608Z" fill="url(#paint13_linear)"/>
<path d="M322.721 214.129C322.721 214.129 329.905 197.761 340.885 199.222L344.189 211.052C338.203 213.602 337.317 223.875 328.803 226.881L322.721 214.129Z" fill="#FFA681"/>
<path d="M279.841 211.111C278.226 207.771 275.917 204.814 273.067 202.437C270.218 200.06 266.894 198.319 263.318 197.33C251.344 194.229 243.717 199.868 242.962 201.999C242.208 204.131 247.476 202.095 247.476 202.095C245.228 202.842 243.305 204.338 242.028 206.334C240.041 209.591 246.818 206.082 246.818 206.082C246.818 206.082 241.921 208.226 241.298 210.213C240.675 212.201 247.129 208.836 248.351 208.908C248.351 208.908 242.591 211.195 242.627 213.255C242.663 215.314 249.249 211.962 254.17 212.225C258.376 212.651 262.541 213.42 266.622 214.524C270.367 215.285 274.16 215.785 277.973 216.021L279.841 211.111Z" fill="#FFA681"/>
<path d="M540.233 383.724H66.1359C61.0903 383.724 57 387.814 57 392.86V393.734C57 398.78 61.0903 402.87 66.1359 402.87H540.233C545.279 402.87 549.369 398.78 549.369 393.734V392.86C549.369 387.814 545.279 383.724 540.233 383.724Z" fill="#1C31B5"/>
<path d="M549.369 392.86V393.303H57V392.86C57 390.437 57.9625 388.113 59.6758 386.4C61.3892 384.687 63.7129 383.724 66.1359 383.724H540.233C542.656 383.724 544.98 384.687 546.693 386.4C548.406 388.113 549.369 390.437 549.369 392.86Z" fill="url(#paint14_linear)"/>
<path d="M375.751 264.167H226.811C223.253 264.167 220.369 267.051 220.369 270.609V348.533C220.369 352.091 223.253 354.975 226.811 354.975H375.751C379.309 354.975 382.193 352.091 382.193 348.533V270.609C382.193 267.051 379.309 264.167 375.751 264.167Z" fill="#18315B"/>
<path d="M313.797 354.867H288.736V383.437H313.797V354.867Z" fill="#000B29"/>
<path d="M300.999 323.125C307.87 323.125 313.44 317.555 313.44 310.685C313.44 303.814 307.87 298.244 300.999 298.244C294.128 298.244 288.559 303.814 288.559 310.685C288.559 317.555 294.128 323.125 300.999 323.125Z" fill="#1D567E"/>
<path d="M276.512 373.307H325.209C327.321 373.307 329.346 374.146 330.839 375.639C332.333 377.132 333.171 379.157 333.171 381.269V383.448H268.514V381.269C268.514 380.221 268.721 379.182 269.123 378.214C269.526 377.245 270.115 376.366 270.859 375.626C271.602 374.886 272.484 374.301 273.454 373.903C274.424 373.505 275.463 373.302 276.512 373.307Z" fill="#18315B"/>
<path d="M14.3256 279.137C13.4063 280.093 12.2241 280.756 10.9284 281.041C9.63266 281.326 8.28155 281.22 7.04582 280.737C5.81008 280.255 4.74519 279.416 3.98573 278.329C3.22626 277.241 2.8063 275.952 2.77893 274.626C2.75156 273.3 3.11799 271.995 3.83194 270.877C4.54588 269.758 5.57528 268.877 6.79004 268.344C8.00481 267.81 9.35041 267.649 10.6568 267.88C11.9632 268.111 13.1717 268.725 14.1297 269.642C15.4135 270.876 16.1552 272.569 16.1919 274.349C16.2287 276.129 15.5574 277.851 14.3256 279.137ZM6.16355 271.293C5.53148 271.951 5.10875 272.781 4.94887 273.679C4.78898 274.578 4.89912 275.503 5.26535 276.338C5.63158 277.174 6.23743 277.882 7.00623 278.373C7.77502 278.864 8.67219 279.116 9.58419 279.096C10.4962 279.077 11.382 278.788 12.1295 278.265C12.8771 277.742 13.4527 277.01 13.7836 276.16C14.1144 275.31 14.1857 274.38 13.9883 273.49C13.7908 272.599 13.3337 271.787 12.6746 271.157C11.7924 270.313 10.6115 269.853 9.39082 269.878C8.17017 269.904 7.00952 270.413 6.16355 271.293Z" fill="url(#paint15_linear)"/>
<path d="M388.326 14.1369C387.406 15.0935 386.224 15.7561 384.928 16.041C383.633 16.3259 382.282 16.2203 381.046 15.7375C379.81 15.2548 378.745 14.4165 377.986 13.3287C377.226 12.2409 376.806 10.9524 376.779 9.62599C376.752 8.29959 377.118 6.99484 377.832 5.87663C378.546 4.75843 379.575 3.87695 380.79 3.34362C382.005 2.81029 383.35 2.64902 384.657 2.88021C385.963 3.11141 387.172 3.72467 388.13 4.64251C389.413 5.87624 390.155 7.56904 390.192 9.34919C390.229 11.1293 389.557 12.8513 388.326 14.1369ZM380.164 6.29326C379.531 6.95099 379.109 7.78144 378.949 8.67952C378.789 9.57759 378.899 10.5029 379.265 11.3384C379.632 12.1738 380.237 12.8818 381.006 13.3728C381.775 13.8638 382.672 14.1157 383.584 14.0965C384.496 14.0774 385.382 13.7881 386.13 13.2653C386.877 12.7426 387.453 12.0097 387.784 11.1597C388.114 10.3096 388.186 9.38047 387.988 8.48989C387.791 7.59931 387.334 6.78731 386.675 6.15667C385.792 5.31261 384.611 4.85295 383.391 4.87856C382.17 4.90416 381.01 5.41294 380.164 6.29326Z" fill="url(#paint16_linear)"/>
<path d="M573.326 332.137C572.406 333.093 571.224 333.756 569.928 334.041C568.633 334.326 567.282 334.22 566.046 333.737C564.81 333.255 563.745 332.416 562.986 331.329C562.226 330.241 561.806 328.952 561.779 327.626C561.752 326.3 562.118 324.995 562.832 323.877C563.546 322.758 564.575 321.877 565.79 321.344C567.005 320.81 568.35 320.649 569.657 320.88C570.963 321.111 572.172 321.725 573.13 322.642C574.413 323.876 575.155 325.569 575.192 327.349C575.229 329.129 574.557 330.851 573.326 332.137ZM565.164 324.293C564.531 324.951 564.109 325.781 563.949 326.679C563.789 327.578 563.899 328.503 564.265 329.338C564.632 330.174 565.237 330.882 566.006 331.373C566.775 331.864 567.672 332.116 568.584 332.096C569.496 332.077 570.382 331.788 571.13 331.265C571.877 330.742 572.453 330.01 572.784 329.16C573.114 328.31 573.186 327.38 572.988 326.49C572.791 325.599 572.334 324.787 571.675 324.157C570.792 323.313 569.611 322.853 568.391 322.878C567.17 322.904 566.01 323.413 565.164 324.293Z" fill="url(#paint17_linear)"/>
<path d="M36.5981 118.718C36.4051 118.919 36.1403 119.035 35.8619 119.04C35.5835 119.046 35.3143 118.941 35.1135 118.748L31.7607 115.526C31.5589 115.332 31.4425 115.066 31.4369 114.786C31.4313 114.506 31.5371 114.236 31.731 114.034C31.9249 113.832 32.191 113.716 32.4707 113.71C32.7505 113.705 33.021 113.81 33.2227 114.004L36.5755 117.226C36.6755 117.322 36.7555 117.437 36.8109 117.565C36.8662 117.692 36.8958 117.829 36.8979 117.968C36.9 118.106 36.8746 118.244 36.8231 118.373C36.7717 118.502 36.6952 118.619 36.5981 118.718Z" fill="#4D69BE"/>
<path d="M42.4594 124.351C42.2665 124.552 42.0017 124.668 41.7232 124.674C41.4448 124.679 41.1756 124.574 40.9748 124.381L37.622 121.159C37.4203 120.965 37.3038 120.699 37.2982 120.419C37.2927 120.14 37.3985 119.869 37.5923 119.667C37.7862 119.466 38.0523 119.349 38.332 119.344C38.6118 119.338 38.8823 119.444 39.084 119.638L42.4296 122.853C42.5312 122.948 42.6126 123.063 42.6692 123.191C42.7258 123.319 42.7564 123.456 42.7591 123.596C42.7619 123.735 42.7368 123.874 42.6854 124.004C42.6339 124.134 42.5571 124.252 42.4594 124.351Z" fill="#4D69BE"/>
<path d="M42.3703 115.223L39.4809 118.229C39.287 118.431 39.0209 118.548 38.7412 118.553C38.4614 118.559 38.1909 118.453 37.9892 118.259C37.7875 118.065 37.671 117.799 37.6654 117.519C37.6599 117.24 37.7657 116.969 37.9595 116.767L40.8489 113.761C41.0428 113.559 41.3089 113.442 41.5886 113.437C41.8684 113.431 42.1389 113.537 42.3406 113.731C42.5424 113.925 42.6589 114.191 42.6644 114.471C42.67 114.75 42.5642 115.021 42.3703 115.223Z" fill="#4D69BE"/>
<path d="M36.2308 121.611L33.3344 124.625C33.1405 124.827 32.8745 124.943 32.5947 124.949C32.315 124.954 32.0445 124.848 31.8427 124.655C31.641 124.461 31.5245 124.195 31.5189 123.915C31.5134 123.635 31.6192 123.365 31.813 123.163L34.7025 120.156C34.8963 119.954 35.1624 119.838 35.4422 119.832C35.7219 119.827 35.9924 119.933 36.1942 120.127C36.3959 120.32 36.5124 120.586 36.5179 120.866C36.5235 121.146 36.4177 121.416 36.2238 121.618L36.2308 121.611Z" fill="#4D69BE"/>
<path d="M583.598 82.7182C583.405 82.919 583.14 83.0349 582.862 83.0404C582.583 83.0459 582.314 82.9407 582.113 82.7477L578.761 79.5257C578.559 79.3318 578.442 79.0657 578.437 78.786C578.431 78.5062 578.537 78.2357 578.731 78.034C578.925 77.8322 579.191 77.7158 579.471 77.7102C579.75 77.7046 580.021 77.8104 580.223 78.0043L583.576 81.2263C583.676 81.3224 583.756 81.4374 583.811 81.5647C583.866 81.6919 583.896 81.8288 583.898 81.9675C583.9 82.1062 583.875 82.244 583.823 82.3728C583.772 82.5017 583.695 82.6191 583.598 82.7182Z" fill="#4D69BE"/>
<path d="M589.459 88.3515C589.266 88.5523 589.002 88.6682 588.723 88.6737C588.445 88.6792 588.176 88.574 587.975 88.381L584.622 85.159C584.42 84.9651 584.304 84.699 584.298 84.4193C584.293 84.1395 584.398 83.869 584.592 83.6673C584.786 83.4655 585.052 83.3491 585.332 83.3435C585.612 83.3379 585.882 83.4437 586.084 83.6376L589.43 86.8527C589.531 86.9484 589.613 87.0635 589.669 87.1911C589.726 87.3187 589.756 87.4563 589.759 87.5958C589.762 87.7354 589.737 87.8741 589.685 88.0038C589.634 88.1336 589.557 88.2518 589.459 88.3515Z" fill="#4D69BE"/>
<path d="M589.37 79.2227L586.481 82.2294C586.287 82.4312 586.021 82.5476 585.741 82.5532C585.461 82.5588 585.191 82.453 584.989 82.2591C584.787 82.0652 584.671 81.7991 584.665 81.5194C584.66 81.2396 584.766 80.9691 584.96 80.7674L587.849 77.7607C588.043 77.5589 588.309 77.4425 588.589 77.4369C588.868 77.4314 589.139 77.5371 589.341 77.731C589.542 77.9249 589.659 78.191 589.664 78.4707C589.67 78.7505 589.564 79.021 589.37 79.2227Z" fill="#4D69BE"/>
<path d="M583.231 85.611L580.334 88.6249C580.141 88.8267 579.874 88.9431 579.595 88.9487C579.315 88.9543 579.044 88.8485 578.843 88.6546C578.641 88.4607 578.525 88.1946 578.519 87.9149C578.513 87.6351 578.619 87.3646 578.813 87.1629L581.702 84.1562C581.896 83.9545 582.162 83.838 582.442 83.8324C582.722 83.8269 582.992 83.9327 583.194 84.1265C583.396 84.3204 583.512 84.5865 583.518 84.8662C583.523 85.146 583.418 85.4165 583.224 85.6182L583.231 85.611Z" fill="#4D69BE"/>
<defs>
<linearGradient id="paint0_linear" x1="104.75" y1="139.114" x2="222.314" y2="139.332" gradientUnits="userSpaceOnUse">
<stop stop-color="#36D1DC"/>
<stop offset="1" stop-color="#5B86E5"/>
</linearGradient>
<linearGradient id="paint1_linear" x1="213.494" y1="164.881" x2="297.931" y2="165.272" gradientUnits="userSpaceOnUse">
<stop stop-color="#36D1DC"/>
<stop offset="1" stop-color="#5B86E5"/>
</linearGradient>
<linearGradient id="paint2_linear" x1="76.4219" y1="165.791" x2="124.176" y2="165.791" gradientUnits="userSpaceOnUse">
<stop stop-color="#36D1DC"/>
<stop offset="1" stop-color="#5B86E5"/>
</linearGradient>
<linearGradient id="paint3_linear" x1="387.848" y1="139.856" x2="497.115" y2="140.256" gradientUnits="userSpaceOnUse">
<stop stop-color="#36D1DC"/>
<stop offset="1" stop-color="#5B86E5"/>
</linearGradient>
<linearGradient id="paint4_linear" x1="469.447" y1="144.394" x2="536.283" y2="144.394" gradientUnits="userSpaceOnUse">
<stop stop-color="#36D1DC"/>
<stop offset="1" stop-color="#5B86E5"/>
</linearGradient>
<linearGradient id="paint5_linear" x1="366.711" y1="165.947" x2="399.656" y2="165.947" gradientUnits="userSpaceOnUse">
<stop stop-color="#36D1DC"/>
<stop offset="1" stop-color="#5B86E5"/>
</linearGradient>
<linearGradient id="paint6_linear" x1="244.963" y1="292.006" x2="359.527" y2="292.006" gradientUnits="userSpaceOnUse">
<stop stop-color="#36D1DC"/>
<stop offset="1" stop-color="#5B86E5"/>
</linearGradient>
<linearGradient id="paint7_linear" x1="272.193" y1="242.66" x2="335.686" y2="242.66" gradientUnits="userSpaceOnUse">
<stop stop-color="#36D1DC"/>
<stop offset="1" stop-color="#5B86E5"/>
</linearGradient>
<linearGradient id="paint8_linear" x1="291.379" y1="247.105" x2="327.357" y2="247.105" gradientUnits="userSpaceOnUse">
<stop stop-color="#36D1DC"/>
<stop offset="1" stop-color="#5B86E5"/>
</linearGradient>
<linearGradient id="paint9_linear" x1="297.852" y1="160.712" x2="330.068" y2="160.712" gradientUnits="userSpaceOnUse">
<stop stop-color="#36D1DC"/>
<stop offset="1" stop-color="#5B86E5"/>
</linearGradient>
<linearGradient id="paint10_linear" x1="343.137" y1="209.627" x2="353.605" y2="209.627" gradientUnits="userSpaceOnUse">
<stop stop-color="#36D1DC"/>
<stop offset="1" stop-color="#5B86E5"/>
</linearGradient>
<linearGradient id="paint11_linear" x1="277.068" y1="210.66" x2="323.667" y2="210.66" gradientUnits="userSpaceOnUse">
<stop stop-color="#36D1DC"/>
<stop offset="1" stop-color="#5B86E5"/>
</linearGradient>
<linearGradient id="paint12_linear" x1="309.369" y1="215.88" x2="340.18" y2="215.88" gradientUnits="userSpaceOnUse">
<stop stop-color="#36D1DC"/>
<stop offset="1" stop-color="#5B86E5"/>
</linearGradient>
<linearGradient id="paint13_linear" x1="255.58" y1="212.393" x2="267.031" y2="212.393" gradientUnits="userSpaceOnUse">
<stop stop-color="#36D1DC"/>
<stop offset="1" stop-color="#5B86E5"/>
</linearGradient>
<linearGradient id="paint14_linear" x1="57" y1="383.724" x2="540.381" y2="449.64" gradientUnits="userSpaceOnUse">
<stop stop-color="#36D1DC"/>
<stop offset="1" stop-color="#5B86E5"/>
</linearGradient>
<linearGradient id="paint15_linear" x1="0" y1="274.676" x2="9.58155" y2="265.289" gradientUnits="userSpaceOnUse">
<stop stop-color="#36D1DC"/>
<stop offset="1" stop-color="#5B86E5"/>
</linearGradient>
<linearGradient id="paint16_linear" x1="374" y1="9.67627" x2="383.232" y2="-0.0631172" gradientUnits="userSpaceOnUse">
<stop stop-color="#36D1DC"/>
<stop offset="1" stop-color="#5B86E5"/>
</linearGradient>
<linearGradient id="paint17_linear" x1="559" y1="327.676" x2="568.487" y2="318.189" gradientUnits="userSpaceOnUse">
<stop stop-color="#36D1DC"/>
<stop offset="1" stop-color="#5B86E5"/>
</linearGradient>
</defs>
</svg>
