<svg width="32" height="24" viewBox="0 0 32 24" fill="none" xmlns="http://www.w3.org/2000/svg">
<path d="M7 6H5V4C5 3.73478 4.89464 3.48043 4.70711 3.29289C4.51957 3.10536 4.26522 3 4 3C3.73478 3 3.48043 3.10536 3.29289 3.29289C3.10536 3.48043 3 3.73478 3 4V6H1C0.734784 6 0.48043 6.10536 0.292893 6.29289C0.105357 6.48043 0 6.73478 0 7C0 7.26522 0.105357 7.51957 0.292893 7.70711C0.48043 7.89464 0.734784 8 1 8H3V10C3 10.2652 3.10536 10.5196 3.29289 10.7071C3.48043 10.8946 3.73478 11 4 11C4.26522 11 4.51957 10.8946 4.70711 10.7071C4.89464 10.5196 5 10.2652 5 10V8H7C7.26522 8 7.51957 7.89464 7.70711 7.70711C7.89464 7.51957 8 7.26522 8 7C8 6.73478 7.89464 6.48043 7.70711 6.29289C7.51957 6.10536 7.26522 6 7 6Z" fill="black"/>
<path d="M20 12C20.5523 12 21 11.5523 21 11C21 10.4477 20.5523 10 20 10C19.4477 10 19 10.4477 19 11C19 11.5523 19.4477 12 20 12Z" fill="black"/>
<path d="M24 12C24.5523 12 25 11.5523 25 11C25 10.4477 24.5523 10 24 10C23.4477 10 23 10.4477 23 11C23 11.5523 23.4477 12 24 12Z" fill="black"/>
<path d="M16 12C16.5523 12 17 11.5523 17 11C17 10.4477 16.5523 10 16 10C15.4477 10 15 10.4477 15 11C15 11.5523 15.4477 12 16 12Z" fill="black"/>
<path d="M27 3H13C12.2044 3 11.4413 3.31607 10.8787 3.87868C10.3161 4.44129 10 5.20435 10 6V21C10.0003 21.1772 10.0477 21.3511 10.1373 21.504C10.2269 21.6569 10.3555 21.7832 10.51 21.87C10.6595 21.9547 10.8282 21.9995 11 22C11.1795 21.9999 11.3556 21.9516 11.51 21.86L16 19.14C16.166 19.0412 16.357 18.9926 16.55 19H27C27.7956 19 28.5587 18.6839 29.1213 18.1213C29.6839 17.5587 30 16.7956 30 16V6C30 5.20435 29.6839 4.44129 29.1213 3.87868C28.5587 3.31607 27.7956 3 27 3ZM28 16C28 16.2652 27.8946 16.5196 27.7071 16.7071C27.5196 16.8946 27.2652 17 27 17H16.55C16.0038 16.9996 15.4679 17.1482 15 17.43L12 19.23V6C12 5.73478 12.1054 5.48043 12.2929 5.29289C12.4804 5.10536 12.7348 5 13 5H27C27.2652 5 27.5196 5.10536 27.7071 5.29289C27.8946 5.48043 28 5.73478 28 6V16Z" fill="black"/>
</svg>
