<svg width="24" height="24" viewBox="0 0 24 24" fill="none" xmlns="http://www.w3.org/2000/svg">
<path d="M17.3702 12.39L12.0002 16.71L6.63018 12.23C6.45292 12.0831 6.23039 12.0019 6.00018 12C5.85327 11.9998 5.70811 12.0319 5.57503 12.0941C5.44194 12.1563 5.3242 12.2471 5.23018 12.36C5.14598 12.4611 5.08254 12.5777 5.04349 12.7033C5.00445 12.8289 4.99057 12.961 5.00264 13.092C5.01472 13.223 5.05252 13.3503 5.11387 13.4666C5.17522 13.583 5.25892 13.6861 5.36018 13.77L11.3602 18.77C11.5391 18.9171 11.7636 18.9975 11.9952 18.9975C12.2268 18.9975 12.4512 18.9171 12.6302 18.77L18.6302 13.94C18.7329 13.8575 18.8183 13.7555 18.8815 13.6398C18.9447 13.5242 18.9844 13.3972 18.9983 13.2662C19.0122 13.1352 19.0001 13.0027 18.9627 12.8763C18.9253 12.75 18.8632 12.6323 18.7802 12.53C18.6969 12.428 18.5944 12.3435 18.4784 12.2812C18.3624 12.2189 18.2353 12.1802 18.1043 12.1672C17.9733 12.1542 17.841 12.1672 17.715 12.2054C17.589 12.2436 17.4718 12.3064 17.3702 12.39Z" fill="black"/>
<path d="M11.3602 11.77C11.5391 11.9171 11.7636 11.9975 11.9952 11.9975C12.2268 11.9975 12.4512 11.9171 12.6302 11.77L18.6302 6.94001C18.7329 6.85749 18.8183 6.75548 18.8815 6.63984C18.9447 6.5242 18.9844 6.39722 18.9983 6.26619C19.0122 6.13516 19.0001 6.00267 18.9627 5.87633C18.9253 5.74999 18.8632 5.6323 18.7802 5.53001C18.6977 5.42728 18.5956 5.34188 18.48 5.2787C18.3644 5.21553 18.2374 5.17583 18.1064 5.16189C17.9753 5.14795 17.8428 5.16005 17.7165 5.19748C17.5902 5.23491 17.4725 5.29694 17.3702 5.38001L12.0002 9.71001L6.63018 5.23001C6.45292 5.08311 6.23039 5.00187 6.00018 5.00001C5.85327 4.99977 5.70811 5.0319 5.57503 5.09412C5.44194 5.15635 5.3242 5.24713 5.23018 5.36001C5.14598 5.46106 5.08254 5.57772 5.04349 5.70333C5.00445 5.82893 4.99057 5.961 5.00264 6.09198C5.01472 6.22296 5.05252 6.35026 5.11387 6.46661C5.17522 6.58296 5.25892 6.68606 5.36018 6.77001L11.3602 11.77Z" fill="black"/>
</svg>
