<svg width="24" height="24" viewBox="0 0 24 24" fill="none" xmlns="http://www.w3.org/2000/svg">
<path d="M6.62982 11.61L11.9998 7.28999L17.3698 11.77C17.5471 11.9169 17.7696 11.9981 17.9998 12C18.1467 12.0002 18.2919 11.9681 18.425 11.9059C18.5581 11.8437 18.6758 11.7529 18.7698 11.64C18.854 11.5389 18.9175 11.4223 18.9565 11.2967C18.9956 11.1711 19.0094 11.039 18.9974 10.908C18.9853 10.777 18.9475 10.6497 18.8861 10.5334C18.8248 10.417 18.7411 10.3139 18.6398 10.23L12.6398 5.22999C12.4609 5.08291 12.2364 5.0025 12.0048 5.0025C11.7732 5.0025 11.5488 5.08291 11.3698 5.22999L5.36982 10.06C5.26709 10.1425 5.18169 10.2445 5.11852 10.3602C5.05534 10.4758 5.01564 10.6028 5.0017 10.7338C4.98777 10.8648 4.99986 10.9973 5.03729 11.1237C5.07472 11.25 5.13675 11.3677 5.21982 11.47C5.30306 11.572 5.40562 11.6565 5.52161 11.7188C5.6376 11.7811 5.76474 11.8198 5.89575 11.8328C6.02675 11.8458 6.15903 11.8328 6.285 11.7946C6.41097 11.7564 6.52815 11.6936 6.62982 11.61Z" fill="black"/>
<path d="M12.6398 12.23C12.4609 12.0829 12.2364 12.0025 12.0048 12.0025C11.7732 12.0025 11.5488 12.0829 11.3698 12.23L5.36982 17.06C5.26709 17.1425 5.18169 17.2445 5.11852 17.3602C5.05534 17.4758 5.01564 17.6028 5.0017 17.7338C4.98777 17.8648 4.99986 17.9973 5.03729 18.1237C5.07472 18.25 5.13675 18.3677 5.21982 18.47C5.30234 18.5727 5.40435 18.6581 5.51999 18.7213C5.63563 18.7845 5.76261 18.8242 5.89364 18.8381C6.02467 18.852 6.15716 18.84 6.2835 18.8025C6.40984 18.7651 6.52753 18.7031 6.62982 18.62L11.9998 14.29L17.3698 18.77C17.5471 18.9169 17.7696 18.9981 17.9998 19C18.1467 19.0002 18.2919 18.9681 18.425 18.9059C18.5581 18.8437 18.6758 18.7529 18.7698 18.64C18.854 18.5389 18.9175 18.4223 18.9565 18.2967C18.9956 18.1711 19.0094 18.039 18.9974 17.908C18.9853 17.777 18.9475 17.6497 18.8861 17.5334C18.8248 17.417 18.7411 17.3139 18.6398 17.23L12.6398 12.23Z" fill="black"/>
</svg>
