<svg width="720" height="382" viewBox="0 0 720 382" fill="none" xmlns="http://www.w3.org/2000/svg">
<path d="M547.286 456.343H539.411V453.98H545.606L546.184 452.432L548.415 453.245L547.286 456.343ZM529.988 456.343H520.512V453.98H529.988V456.343ZM511.01 456.343H501.534V453.98H511.01V456.343ZM492.031 456.343H482.608V453.98H492.084L492.031 456.343ZM473.079 456.343H463.604V453.98H473.079V456.343ZM454.101 456.343H444.625V453.98H454.101V456.343ZM435.149 456.343H425.673V453.98H435.149V456.343ZM416.197 456.343H406.695V453.98H416.197V456.343ZM397.219 456.343H387.743V453.98H397.219V456.343ZM378.267 456.343H368.791V453.98H378.267V456.343ZM359.289 456.343H349.813V453.98H359.237L359.289 456.343ZM340.337 456.343H330.835V453.98H340.337V456.343ZM321.385 456.343H311.988V453.98H321.49L321.385 456.343ZM302.407 456.343H292.931V453.98H302.407V456.343ZM283.429 456.343H273.953V453.98H283.429V456.343ZM264.477 456.343H254.975V453.98H264.477V456.343ZM245.499 456.343H236.023V453.98H245.499V456.343ZM226.547 456.343H217.071V453.98H226.547V456.343ZM207.595 456.343H198.119V453.98H207.595V456.343ZM188.617 456.343H179.141V453.98H188.617V456.343ZM169.665 456.343H160.189V453.98H169.665V456.343ZM150.713 456.343H141.21V453.98H150.686L150.713 456.343ZM135.147 455.529L127.062 450.568L128.296 448.547L129.136 449.046L125.618 445.633L127.325 443.979L133.966 450.726L133.099 451.565L136.249 453.508L135.147 455.529ZM141.053 447.943L138.848 447.051L142.444 438.362L144.623 439.255L141.053 447.943ZM119.004 445.607L110.919 440.646L112.153 438.625L120.211 443.612L119.004 445.607ZM551.722 444.321L549.491 443.507L552.746 434.582L554.977 435.396L551.722 444.321ZM119.135 438.887L112.494 432.115L114.2 430.461L120.841 437.233L119.135 438.887ZM102.808 435.737L94.7231 430.776L95.9568 428.755L104.042 433.716L102.808 435.737ZM148.272 430.487L146.067 429.595L149.689 420.828L151.868 421.72L148.272 430.487ZM558.206 426.576L555.975 425.762L559.229 416.864L561.461 417.678L558.206 426.576ZM86.6384 425.762L78.5536 420.801L79.7873 418.78L87.8721 423.741L86.6384 425.762ZM105.8 425.342L99.1592 418.596L100.865 416.943L107.506 423.689L105.8 425.342ZM367.741 419.489L366.875 418.885L367.636 417.783L367.216 417.048L375.091 412.48L376.272 414.528L367.741 419.489ZM70.4951 415.84L62.4103 410.879L63.6703 408.858L71.7551 413.819L70.4951 415.84ZM359.105 413.452L351.231 408.018L352.569 406.076L360.444 411.483L359.105 413.452ZM155.543 412.874L153.364 411.955L156.986 403.188L159.165 404.107L155.543 412.874ZM92.5444 411.798L85.8771 405.052L87.5571 403.372L94.1194 410.17L92.5444 411.798ZM384.593 409.803L383.412 407.729L391.628 403.004L392.809 405.052L384.593 409.803ZM564.742 408.674L562.511 407.861L565.766 398.962L567.997 399.776L564.742 408.674ZM54.3256 405.918L46.2408 400.957L47.4745 398.936L55.5593 403.897L54.3256 405.918ZM343.487 402.637L335.612 397.23L336.977 395.287L344.852 400.694L343.487 402.637ZM400.973 400.379L399.792 398.332L408.008 393.607L409.189 395.655L400.973 400.379ZM79.1836 398.306L72.5425 391.56L74.2487 389.88L80.9948 396.626L79.1836 398.306ZM38.1298 395.996L30.0713 391.114L31.305 389.092L39.3898 394.053L38.1298 395.996ZM162.709 395.366L160.53 394.473L164.152 385.706L166.331 386.625L162.709 395.366ZM327.921 391.796L320.047 386.362L321.385 384.42L329.26 389.827L327.921 391.796ZM417.405 390.93L416.224 388.882L424.44 384.158L425.621 386.205L417.405 390.93ZM571.199 390.93L568.968 390.116L572.223 381.218L574.428 382.031L571.199 390.93ZM21.9865 386.074L13.9017 381.113L15.1355 379.091L23.2465 384.052L21.9865 386.074ZM65.9015 384.761L59.2604 377.989L60.9404 376.335L67.6077 383.239L65.9015 384.761ZM433.863 381.454L432.682 379.406L440.898 374.682L442.079 376.755L433.863 381.454ZM312.355 380.929L304.481 375.521L305.819 373.579L313.694 378.986L312.355 380.929ZM169.98 377.831L167.801 376.913L171.423 368.145L173.602 369.038L169.98 377.831ZM5.84324 376.151L-2.24152 371.19L-1.00781 369.169L7.0507 374.13L5.84324 376.151ZM577.735 373.054L575.504 372.24L578.759 363.342L580.99 364.156L577.735 373.054ZM450.321 372.004L449.14 369.957L457.356 365.232L458.537 367.279L450.321 372.004ZM52.5931 371.243L45.9521 364.471L47.632 362.817L54.2731 369.589L52.5931 371.243ZM296.711 370.114L288.836 364.707L290.175 362.764L298.05 368.172L296.711 370.114ZM-10.405 366.229L-18.4898 361.268L-17.2298 359.247L-9.14507 364.208L-10.405 366.229ZM466.858 362.581L465.677 360.533L473.893 355.808L475.074 357.856L466.858 362.581ZM711.711 360.507L708.771 357.593L710.425 355.887L711.396 356.858L714.494 352.527L716.436 353.918L711.711 360.507ZM177.329 360.323L175.151 359.431L178.773 350.663L180.952 351.556L177.329 360.323ZM281.355 359.299L273.48 353.866L274.845 351.923L282.72 357.357L281.355 359.299ZM39.416 357.751L32.7749 351.005L34.4549 349.351L41.1222 356.123L39.416 357.751ZM-26.3908 356.333L-34.5018 351.346L-33.2681 349.325L-25.2358 354.365L-26.3908 356.333ZM584.324 355.283L582.093 354.47L585.347 345.571L587.579 346.385L584.324 355.283ZM483.29 353.157L482.109 351.11L490.325 346.385L491.506 348.432L483.29 353.157ZM701.999 350.926L695.227 344.232L696.88 342.552L703.626 349.22L701.999 350.926ZM265.763 348.485L257.888 343.051L259.253 341.109L267.128 346.516L265.763 348.485ZM-42.6653 346.49L-50.7501 341.529L-49.5164 339.508L-41.4316 344.469L-42.6653 346.49ZM721.817 346.28L719.875 344.889L725.387 337.171L727.33 338.536L721.817 346.28ZM26.0026 344.311L19.3616 337.539L21.0415 335.885L27.6826 342.657L26.0026 344.311ZM499.644 343.786L498.462 341.712L504.474 338.248H501.061V336.804L498.436 335.596L499.46 333.47L509.828 338.431H506.442L507.072 339.534L499.644 343.786ZM184.469 342.867L182.291 341.949L185.992 333.103L188.17 334.021L184.469 342.867ZM491.585 338.011L482.109 337.828V335.465L491.585 335.649V338.011ZM250.092 337.723L240.091 330.74H245.157V331.265L251.483 335.649L250.092 337.723ZM688.454 337.723L681.708 331.055L683.362 329.375L689.977 335.99L688.454 337.723ZM472.66 337.723L463.184 337.539V335.176L472.66 335.36V337.723ZM590.781 337.723L588.55 336.909L591.805 328.01L594.036 328.824L590.781 337.723ZM453.708 337.46L444.232 337.276V334.914L453.708 335.098V337.46ZM434.756 337.093L425.28 336.909V334.546L434.756 334.73V337.093ZM-58.7299 336.751L-59.9373 336.016L-60.9873 326.882L-58.6249 326.619L-57.7061 334.494L-57.4699 334.651L-57.6536 334.94V335.071L-58.7299 336.751ZM415.856 336.751L406.38 336.568V334.179L415.856 334.363V336.751ZM396.904 336.384L387.323 335.99V333.628L396.799 333.811L396.904 336.384ZM377.952 336.016L368.476 335.833V333.47L377.952 333.654V336.016ZM359 335.649L349.524 335.465V333.103L359 333.286V335.649ZM340.048 335.281L330.572 335.098V332.735L340.048 332.919V335.281ZM321.07 334.914L311.594 334.73V332.342L321.07 332.525V334.914ZM302.092 334.546L292.616 334.363V332L302.092 332.184V334.546ZM283.14 334.179L273.664 333.995V331.633L283.14 331.817V334.179ZM264.188 333.811L254.712 333.628V331.265L264.188 331.449V333.811ZM15.8704 332.105L15.5817 329.743L25.0052 328.64L25.2677 331.003L15.8704 332.105ZM490.141 331.659L481.584 327.564L482.608 325.438L491.139 329.559L490.141 331.659ZM732.947 331.082L731.031 329.69L736.517 321.973L738.459 323.364L732.947 331.082ZM34.7174 329.9L34.4549 327.538L43.8784 326.435L44.1409 328.798L34.7174 329.9ZM53.5643 327.722L53.3018 325.359L62.6203 323.915L62.9091 326.252L53.5643 327.722ZM191.819 325.595L189.64 324.703L193.263 315.936L195.441 316.854L191.819 325.595ZM72.385 325.595L72.0963 323.233L81.5198 322.131L81.7823 324.493L72.385 325.595ZM675.067 324.624L668.216 317.616L669.896 315.936L676.642 322.603L675.067 324.624ZM472.948 323.495L464.417 319.374L465.441 317.248L473.998 321.343L472.948 323.495ZM91.127 322.866L90.8382 320.503L100.262 319.401L100.55 321.763L91.127 322.866ZM109.974 320.661L109.685 318.298L119.109 317.196L119.371 319.558L109.974 320.661ZM597.291 319.506L595.06 318.692L598.315 309.793L600.546 310.607L597.291 319.506ZM128.821 318.482L128.558 316.119L137.982 315.017L138.244 317.379L128.821 318.482ZM-62.1423 317.038L-63.376 307.746L-61.0135 307.457L-59.9111 316.881L-62.1423 317.038ZM147.642 316.277L147.353 313.915L156.776 312.812L157.039 315.174L147.642 316.277ZM743.867 315.174L741.924 313.81L747.436 306.092L749.379 307.483L743.867 315.174ZM455.86 314.991L447.303 310.87L448.326 308.743L456.884 312.838L455.86 314.991ZM166.462 314.203L166.174 311.841L175.597 310.738L175.859 313.101L166.462 314.203ZM185.283 311.998L185.02 309.636L194.444 308.533L194.706 310.896L185.283 311.998ZM661.47 310.843L654.724 304.176L656.378 302.496L663.124 309.163L661.47 310.843ZM438.772 306.644L430.11 302.549L431.133 300.422L439.664 304.517L438.772 306.644ZM603.774 301.866L601.543 301.052L604.798 292.154L607.029 292.968L603.774 301.866ZM754.865 299.897L752.922 298.533L758.435 290.815L760.351 292.206L754.865 299.897ZM421.684 298.506L413.126 294.385L414.15 292.259L422.681 296.354L421.684 298.506ZM-64.3472 298.323L-65.4497 288.899L-63.0872 288.637L-62.011 298.06L-64.3472 298.323ZM648.004 297.535L641.258 290.868L642.938 289.188L649.684 295.855L648.004 297.535ZM404.595 290.238L395.986 286.117L397.009 283.99L405.566 288.112L404.595 290.238ZM198.329 285.145V283.36L197.751 283.675L196.57 281.602L198.854 280.316L197.043 278.924L202.817 271.391L204.707 272.835L199.038 280.211L204.812 276.903L205.994 278.977L199.405 282.73L207.752 282.337V284.699L198.329 285.145ZM765.89 284.437L763.947 283.072L769.459 275.354L771.402 276.746L765.89 284.437ZM217.281 284.305V281.943L226.757 281.497V283.859L217.281 284.305ZM634.643 284.305L627.897 277.638L629.551 275.958L636.297 282.625L634.643 284.305ZM188.013 284.305L178.694 282.625L179.114 280.289L188.459 281.969L188.013 284.305ZM610.415 284.174L608.184 283.36L611.439 274.462L613.67 275.276L610.415 284.174ZM236.206 283.492V281.129L245.682 280.709V283.072L236.206 283.492ZM255.158 282.625V280.263L264.634 279.817V282.179L255.158 282.625ZM387.507 282.1L378.95 277.979L379.973 275.853L388.531 279.948L387.507 282.1ZM274.11 281.785V279.423L283.586 278.977V281.339L274.11 281.785ZM293.062 280.919V278.557L302.538 278.137V280.499L293.062 280.919ZM169.245 280.919L159.9 279.239L160.32 276.903L169.638 278.609L169.245 280.919ZM312.014 280.106V277.743L321.49 277.323V279.686L312.014 280.106ZM-66.5259 279.476L-67.6283 270.052L-65.2659 269.79L-64.1635 279.213L-66.5259 279.476ZM330.94 279.108V276.746L340.416 276.326V278.688L330.94 279.108ZM349.866 278.268V275.906L359.342 275.459V277.822L349.866 278.268ZM150.555 277.428L141.21 275.617L141.63 273.281L150.949 274.961L150.555 277.428ZM368.818 277.428V275.066L378.294 274.619V276.982L368.818 277.428ZM387.77 276.562V274.199L397.245 273.753V276.116L387.77 276.562ZM406.721 275.696V273.333L416.197 272.887V275.249L406.721 275.696ZM425.673 274.829V272.467L435.149 272.047V274.409L425.673 274.829ZM214.183 274.304L213.002 272.257L221.244 267.558L222.426 269.632L214.183 274.304ZM131.918 274.068L122.574 272.388L122.994 270.052L132.312 271.732L131.918 274.068ZM444.625 274.068V271.706L454.101 271.286V273.648L444.625 274.068ZM370.445 273.911L361.862 269.685L362.885 267.532L371.416 271.653L370.445 273.911ZM463.577 273.202V270.84L473.053 270.42V272.782L463.577 273.202ZM482.529 272.336V269.973L492.005 269.527V271.89L482.529 272.336ZM501.481 271.47V269.107L510.957 268.687V271.05L501.481 271.47ZM621.073 270.945L616.111 266.01L614.615 265.458L615.77 262.309L622.753 269.238L621.073 270.945ZM113.281 270.787L103.937 269.107L104.357 266.771L113.675 268.451L113.281 270.787ZM520.433 270.603V268.241L529.857 267.742V270.105L520.433 270.603ZM539.385 269.737V267.375L548.861 266.955V269.317L539.385 269.737ZM776.941 269.081L775.024 267.716L780.537 259.999L782.453 261.364L776.941 269.081ZM558.337 268.897V267.821L555.161 266.823L555.87 264.566L568.285 268.451L558.337 268.897ZM94.6181 267.427L85.2997 265.747L85.7197 263.411L95.0644 265.091L94.6181 267.427ZM210.43 265.38L208.54 263.936L214.315 256.402L216.205 257.846L210.43 265.38ZM621.309 265.117L621.046 262.755L630.47 261.757L630.732 264.12L621.309 265.117ZM230.615 264.907L229.46 262.86L237.703 258.161L238.884 260.235L230.615 264.907ZM611.57 264.015L602.619 260.865L603.407 258.634L612.358 261.784L611.57 264.015ZM75.8762 264.015L66.5315 262.335L66.9514 259.999L76.2699 261.679L75.8762 264.015ZM545.974 264.015L536.918 261.18L537.626 258.922L546.682 261.757L545.974 264.015ZM640.156 263.201L639.92 260.839L649.343 259.867L649.579 262.23L640.156 263.201ZM659.003 261.206L658.766 258.844L668.19 257.846L668.426 260.209L659.003 261.206ZM-68.6258 260.629L-69.702 251.205L-67.3396 250.916L-66.2371 260.34L-68.6258 260.629ZM57.3705 260.629L48.0257 258.949L48.4457 256.612L57.7642 258.292L57.3705 260.629ZM363.804 260.13L361.337 259.867L362.78 250.496L365.116 250.864L363.804 260.13ZM678.007 259.106L677.771 256.744L687.194 255.746L687.431 258.109L678.007 259.106ZM528.019 258.214L518.963 255.379L519.672 253.095L528.728 255.93L528.019 258.214ZM593.826 257.715L584.77 254.618L585.557 252.36L594.508 255.51L593.826 257.715ZM38.576 257.242L29.2313 255.563L29.6513 253.226L38.9698 254.906L38.576 257.242ZM696.749 257.085L696.487 254.749L705.936 253.751L706.173 256.114L696.749 257.085ZM247.126 255.536L245.971 253.463L254.24 248.79L255.421 250.838L247.126 255.536ZM715.622 255.116L715.386 252.754L724.836 251.756L725.072 254.119L715.622 255.116ZM20.0178 253.856L10.6993 252.176L11.1193 249.84L20.4378 251.52L20.0178 253.856ZM787.991 253.515L786.049 252.124L790.931 245.273V244.8L794.501 244.433L787.991 253.515ZM734.601 253.148L734.364 250.785L743.788 249.788L744.024 252.15L734.601 253.148ZM509.933 252.544L500.877 249.709L501.586 247.451L510.642 250.286L509.933 252.544ZM575.95 251.415L567.026 248.265L567.813 246.034L576.764 249.184L575.95 251.415ZM753.474 251.153L753.211 248.79L762.661 247.793L762.897 250.155L753.474 251.153ZM1.24962 250.523L-8.06885 248.843L-7.64886 246.507L-4.57771 247.058L-4.7877 245.194L4.58327 244.118L4.87202 246.454L-3.00275 247.373L1.61711 248.213L1.24962 250.523ZM221.927 250.234L220.037 248.79L225.812 241.257L227.675 242.7L221.927 250.234ZM772.189 249.158L771.953 246.795L781.377 245.824L781.613 248.16L772.189 249.158ZM491.716 246.743L482.608 244.118L483.317 241.86L492.346 244.695L491.716 246.743ZM263.611 246.034L262.429 243.96L270.672 239.288L271.853 241.335L263.611 246.034ZM14.243 245.194L13.9542 242.832L23.3777 241.729L23.6402 244.092L14.243 245.194ZM557.891 244.984L548.94 241.834L549.727 239.603L558.678 242.753L557.891 244.984ZM33.1162 243.068L32.8274 240.732L42.2509 239.629L42.5134 241.965L33.1162 243.068ZM-70.8833 241.808L-71.9595 232.384L-69.597 232.122L-68.6258 241.493L-70.8833 241.808ZM366.586 241.493L364.25 241.125L365.72 231.754L368.056 232.122L366.586 241.493ZM473.631 241.283L464.575 238.448L465.283 236.191L474.313 238.868L473.631 241.283ZM51.9369 240.863L51.6481 238.501L61.0716 237.398L61.3604 239.734L51.9369 240.863ZM540.041 238.868L531.09 235.718L531.878 233.487L540.829 236.637L540.041 238.868ZM70.7838 238.632L70.4951 236.243L79.9186 235.141L80.181 237.503L70.7838 238.632ZM280.095 236.794L278.94 234.747L287.182 230.075L288.364 232.122L280.095 236.794ZM89.6308 236.401L89.342 234.038L98.7655 232.936L99.0542 235.298L89.6308 236.401ZM455.519 235.534L446.463 232.699L447.172 230.416L456.227 233.251L455.519 235.534ZM233.45 235.193L231.56 233.749L237.335 226.216L239.199 227.66L233.45 235.193ZM108.451 234.169L108.163 231.807L117.586 230.704L117.849 233.067L108.451 234.169ZM546.184 232.699L545.501 230.416L554.583 227.791L555.266 230.048L546.184 232.699ZM522.166 232.489L513.241 229.34L514.028 227.108L522.979 230.258L522.166 232.489ZM536.708 231.964L529.857 225.428L531.484 223.696L538.361 230.232L536.708 231.964ZM127.22 231.964L126.957 229.628L136.407 228.368L136.696 230.731L127.22 231.964ZM437.354 229.891L428.298 227.056L429.007 224.772L438.063 227.607L437.354 229.891ZM145.988 229.733L145.699 227.371L155.123 226.268L155.411 228.605L145.988 229.733ZM-64.216 229.103L-64.7934 226.793L-55.5012 224.536L-54.95 226.846L-64.216 229.103ZM164.992 227.476L164.73 225.14L174.153 224.037L174.416 226.373L164.992 227.476ZM296.632 227.476L295.451 225.402L303.72 220.73L304.874 222.777L296.632 227.476ZM564.374 227.476L563.692 225.192L572.774 222.567L573.457 224.825L564.374 227.476ZM504.29 226.373L495.365 223.223L496.153 220.992L505.104 224.142L504.29 226.373ZM183.813 225.428L183.524 223.092L192.948 221.99L193.236 224.352L183.813 225.428ZM-45.789 224.588L-46.3665 222.278L-37.1267 219.995L-36.5493 222.305L-45.789 224.588ZM419.321 224.195L410.265 221.36L410.974 219.102L420.03 221.937L419.321 224.195ZM202.607 223.118L202.319 220.782L211.742 219.68L212.031 222.042L202.607 223.118ZM369.474 222.751L367.138 222.383L368.608 213.013L370.944 213.38L369.474 222.751ZM582.539 221.99L581.856 219.706L590.938 217.081L591.595 219.365L582.539 221.99ZM221.454 220.887L221.166 218.551L230.589 217.449L230.852 219.811L221.454 220.887ZM245.079 220.231L243.189 218.787L243.582 218.289L240.38 218.656L240.091 216.294L248.885 215.244L245.079 220.231ZM-27.2833 220.231L-27.9658 217.869L-18.7523 215.48L-18.1748 217.79L-27.2833 220.231ZM486.493 220.074L477.358 216.714L478.146 214.482L487.097 217.632L486.493 220.074ZM523.058 219.102L516.181 212.566L517.808 210.834L524.607 217.186L523.058 219.102ZM401.235 218.525L392.179 215.69L392.888 213.432L401.944 216.267L401.235 218.525ZM313.09 218.052L311.909 216.005L320.151 211.306L321.333 213.38L313.09 218.052ZM600.729 216.477L600.047 214.22L609.129 211.595L609.812 213.852L600.729 216.477ZM-8.98758 215.506L-9.56506 213.223L-0.377831 210.939L0.173401 213.249L-8.98758 215.506ZM383.123 212.881L374.067 209.994L374.776 207.736L383.832 210.571L383.123 212.881ZM618.894 211.096L618.211 208.813L627.32 206.188L628.002 208.445L618.894 211.096ZM9.43938 211.096L8.8619 208.786L17.9966 206.424L18.5479 208.734L9.43938 211.096ZM473.578 210.388L471.216 210.204L471.977 200.754L474.339 200.938L473.578 210.388ZM329.575 208.681L328.394 206.634L336.636 201.962L337.817 204.009L329.575 208.681ZM27.8401 206.45L27.2889 204.167L36.4761 201.909L37.0536 204.219L27.8401 206.45ZM509.198 205.846L502.321 199.31L503.949 197.604L510.826 204.14L509.198 205.846ZM637.058 205.663L636.376 203.405L645.458 200.78L646.141 203.064L637.058 205.663ZM46.2671 201.909L45.6896 199.494L54.903 197.21L55.4543 199.52L46.2671 201.909ZM655.249 200.229L654.567 197.972L663.675 195.347L664.331 197.604L655.249 200.229ZM346.112 199.31L344.931 197.237L353.173 192.538L354.354 194.612L346.112 199.31ZM64.694 197.394L64.1165 195.084L73.33 192.827L73.9075 195.137L64.694 197.394ZM673.44 194.769L672.757 192.512L681.84 189.887L682.522 192.171L673.44 194.769ZM83.0947 192.853L82.5435 190.543L91.757 188.286L92.3082 190.596L83.0947 192.853ZM495.444 192.853L488.593 186.37L490.22 184.663L497.098 191.173L495.444 192.853ZM358.764 192.066L356.375 191.672L356.743 189.336L358.502 189.624L365.064 187L365.93 189.204L358.764 192.066ZM475.074 191.436L472.712 191.252L473.447 181.802L475.809 181.986L475.074 191.436ZM347.004 190.149L337.66 188.627L338.027 186.291L347.372 187.813L347.004 190.149ZM354.879 189.677L347.004 184.427L348.343 182.458L356.218 187.708L354.879 189.677ZM691.683 189.467V189.283L683.257 188.679L683.441 186.317L698.639 187.446L691.683 189.467ZM101.6 188.364L101.049 186.081L110.236 183.823L110.814 186.133L101.6 188.364ZM673.834 187.971L664.358 187.262L664.541 184.9L673.991 185.582L673.834 187.971ZM328.473 187.105L319.102 185.582L319.469 183.246L328.84 184.742L328.473 187.105ZM654.934 186.58L645.353 185.845L645.537 183.482L654.987 184.191L654.934 186.58ZM374.96 185.818L374.094 183.613L382.861 180.096L383.727 182.301L374.96 185.818ZM636.035 185.188L626.585 184.48L626.742 182.117L636.192 182.8L636.035 185.188ZM309.757 184.086L300.412 182.563L300.806 180.227L310.151 181.75L309.757 184.086ZM119.922 183.745L119.371 181.435L128.558 179.177L129.136 181.461L119.922 183.745ZM616.925 183.745L607.476 183.036L607.633 180.673L617.083 181.356L616.925 183.745ZM598.026 182.353L588.55 181.645L588.734 179.282L598.183 179.991L598.026 182.353ZM290.91 180.988L281.539 179.466L281.933 177.13L291.277 178.652L290.91 180.988ZM579.153 180.988L569.703 180.28L569.86 177.917L579.336 178.626L579.153 180.988ZM481.768 179.755L474.733 173.245L475.284 172.667V172.431H474.103V171.014L484.603 171.775L484.419 174.137L478.513 173.691L483.212 178.154L481.768 179.755ZM560.253 179.597L550.803 178.889L550.987 176.526L560.437 177.209L560.253 179.597ZM138.349 179.282L137.798 176.972L146.985 174.689L147.563 176.999L138.349 179.282ZM339.077 178.994L331.202 173.744L332.541 171.775L340.416 177.025L339.077 178.994ZM392.442 178.994L391.576 176.789L400.422 173.245L401.288 175.45L392.442 178.994ZM541.275 178.285L531.825 177.602L531.983 175.24L541.432 175.949L541.275 178.285ZM272.142 178.075L262.797 176.552L263.164 174.216L272.535 175.739L272.142 178.075ZM522.376 176.894L512.926 176.185L513.11 173.822L522.559 174.505L522.376 176.894ZM259.49 175.87L250.04 174.977L250.25 172.615L259.7 173.507L259.49 175.87ZM503.345 175.345L493.895 174.636L494.053 172.274L503.502 172.982L503.345 175.345ZM156.75 174.741L156.199 172.457L165.412 170.2L165.99 172.51L156.75 174.741ZM240.748 174.137L231.245 173.245L231.455 170.882L240.905 171.775L240.748 174.137ZM221.874 172.352L212.425 171.46L212.661 169.098L222.111 169.99L221.874 172.352ZM410.186 171.985L409.32 169.78L418.14 166.341L419.006 168.546L410.186 171.985ZM202.949 170.62L193.499 169.754L193.709 167.391L203.159 168.284L202.949 170.62ZM175.177 170.253L174.6 167.995L181.582 166.289L184.207 166.551L183.997 168.914L181.713 168.704L175.177 170.253ZM484.288 169.596L483.343 167.418L492.031 163.611L492.976 165.79L484.288 169.596ZM261.169 168.678H258.807L259.148 159.202H261.537L261.169 168.678ZM323.459 168.441L315.584 163.191L316.897 161.223L324.771 166.473L323.459 168.441ZM427.878 165.16L427.012 162.955L435.858 159.517L436.724 161.722L427.878 165.16ZM501.744 161.984L500.799 159.805L509.487 156.025L510.432 158.178L501.744 161.984ZM445.544 158.257L444.678 156.052L453.524 152.613L454.39 154.818L445.544 158.257ZM307.736 157.784L299.861 152.534L301.2 150.566L309.074 155.815L307.736 157.784ZM519.121 154.372L518.176 152.193L526.864 148.387L527.835 150.566L519.121 154.372ZM463.21 151.353V151.196H454.548V148.833H469.615L463.21 151.353ZM445.019 151.117H435.359V148.754H444.835L445.019 151.117ZM426.067 151.117H416.591V148.728H426.067V151.117ZM407.089 151.117H397.613V148.754H407.089V151.117ZM388.137 151.117H378.661V148.754H388.111L388.137 151.117ZM369.159 151.117H359.683V148.728H369.159V151.117ZM350.181 151.117H340.705V148.754H350.181V151.117ZM331.229 151.117H321.753V148.754H331.255L331.229 151.117ZM312.25 151.117H302.775V148.754H312.25V151.117ZM261.773 149.621H259.411L259.752 140.145H262.114L261.773 149.621ZM536.419 146.733L535.474 144.555L544.162 140.748L545.107 142.927L536.419 146.733ZM540.041 140.748L530.723 139.121L531.143 136.785L540.461 138.465L540.041 140.748ZM270.409 139.383L269.937 137.047L279.229 135.157L279.701 137.493L270.409 139.383ZM521.378 137.415L512.06 135.735L512.48 133.399L521.798 135.079L521.378 137.415ZM288.994 135.577L288.521 133.267L297.813 131.246L298.286 133.582L288.994 135.577ZM502.715 134.029L493.37 132.349L493.79 130.012L503.135 131.692L502.715 134.029ZM307.578 131.771L307.106 129.461L316.398 127.571L316.87 129.907L307.578 131.771ZM484.052 130.669L474.733 128.989L475.153 126.653L484.498 128.333L484.052 130.669ZM326.163 128.044L325.69 125.708L334.982 123.818L335.455 126.154L326.163 128.044ZM465.283 127.361L455.965 125.681L456.359 123.371L465.703 125.051L465.283 127.361ZM344.537 124.238L344.065 121.928L353.357 120.038L353.829 122.374L344.537 124.238ZM446.515 123.975L437.197 122.295L437.617 119.959L446.935 121.639L446.515 123.975ZM427.852 120.615L418.534 118.935L418.954 116.599L428.272 118.279L427.852 120.615ZM363.121 120.431L362.649 118.122L371.941 116.232L372.414 118.568L363.121 120.431ZM409.189 117.255L400.08 115.497L400.5 113.16L409.845 114.84L409.189 117.255ZM381.706 116.652L381.233 114.315L390.526 112.425L390.998 114.762L381.706 116.652Z" fill="white" fill-opacity="0.2"/>
<path d="M400.054 123.03C411.84 123.03 421.395 118.259 421.395 112.373C421.395 106.487 411.84 101.716 400.054 101.716C388.268 101.716 378.713 106.487 378.713 112.373C378.713 118.259 388.268 123.03 400.054 123.03Z" fill="white" fill-opacity="0.2"/>
<path d="M508.542 348.59C520.328 348.59 529.883 343.818 529.883 337.933C529.883 332.047 520.328 327.275 508.542 327.275C496.756 327.275 487.202 332.047 487.202 337.933C487.202 343.818 496.756 348.59 508.542 348.59Z" fill="white" fill-opacity="0.2"/>
<path d="M196.833 324.283C208.619 324.283 218.173 319.512 218.173 313.626C218.173 307.74 208.619 302.969 196.833 302.969C185.047 302.969 175.492 307.74 175.492 313.626C175.492 319.512 185.047 324.283 196.833 324.283Z" fill="white" fill-opacity="0.2"/>
<path d="M196.833 295.015C208.619 295.015 218.173 290.244 218.173 284.358C218.173 278.472 208.619 273.701 196.833 273.701C185.047 273.701 175.492 278.472 175.492 284.358C175.492 290.244 185.047 295.015 196.833 295.015Z" fill="white" fill-opacity="0.2"/>
<path d="M355.221 202.618C367.007 202.618 376.561 197.846 376.561 191.961C376.561 186.075 367.007 181.303 355.221 181.303C343.434 181.303 333.88 186.075 333.88 191.961C333.88 197.846 343.434 202.618 355.221 202.618Z" fill="white" fill-opacity="0.2"/>
<path d="M372.387 223.958C384.174 223.958 393.728 219.187 393.728 213.301C393.728 207.415 384.174 202.644 372.387 202.644C360.601 202.644 351.047 207.415 351.047 213.301C351.047 219.187 360.601 223.958 372.387 223.958Z" fill="white" fill-opacity="0.2"/>
<path d="M480.246 186.606C492.032 186.606 501.586 181.834 501.586 175.949C501.586 170.063 492.032 165.291 480.246 165.291C468.46 165.291 458.905 170.063 458.905 175.949C458.905 181.834 468.46 186.606 480.246 186.606Z" fill="white" fill-opacity="0.2"/>
<path d="M540.435 244.459C552.221 244.459 561.776 239.688 561.776 233.802C561.776 227.916 552.221 223.145 540.435 223.145C528.649 223.145 519.094 227.916 519.094 233.802C519.094 239.688 528.649 244.459 540.435 244.459Z" fill="white" fill-opacity="0.2"/>
<path d="M615.115 273.674C626.901 273.674 636.455 268.903 636.455 263.017C636.455 257.131 626.901 252.36 615.115 252.36C603.328 252.36 593.774 257.131 593.774 263.017C593.774 268.903 603.328 273.674 615.115 273.674Z" fill="white" fill-opacity="0.2"/>
<path d="M372.387 284.358C384.174 284.358 393.728 279.586 393.728 273.701C393.728 267.815 384.174 263.043 372.387 263.043C360.601 263.043 351.047 267.815 351.047 273.701C351.047 279.586 360.601 284.358 372.387 284.358Z" fill="white" fill-opacity="0.2"/>
<path d="M20.8584 337.959C32.6445 337.959 42.1991 333.176 42.1991 327.275C42.1991 321.375 32.6445 316.592 20.8584 316.592C9.07235 316.592 -0.482178 321.375 -0.482178 327.275C-0.482178 333.176 9.07235 337.959 20.8584 337.959Z" fill="white" fill-opacity="0.2"/>
<path d="M-1.19112 254.512C10.595 254.512 20.1495 249.741 20.1495 243.855C20.1495 237.97 10.595 233.198 -1.19112 233.198C-12.9772 233.198 -22.5317 237.97 -22.5317 243.855C-22.5317 249.741 -12.9772 254.512 -1.19112 254.512Z" fill="white" fill-opacity="0.2"/>
<path d="M249.699 342.237C261.485 342.237 271.039 337.466 271.039 331.58C271.039 325.694 261.485 320.923 249.699 320.923C237.912 320.923 228.358 325.694 228.358 331.58C228.358 337.466 237.912 342.237 249.699 342.237Z" fill="white" fill-opacity="0.2"/>
<path d="M691.631 202.618C703.417 202.618 712.972 197.846 712.972 191.961C712.972 186.075 703.417 181.303 691.631 181.303C679.845 181.303 670.291 186.075 670.291 191.961C670.291 197.846 679.845 202.618 691.631 202.618Z" fill="white" fill-opacity="0.2"/>
<path d="M712.971 369.93C724.757 369.93 734.312 365.159 734.312 359.273C734.312 353.387 724.757 348.616 712.971 348.616C701.185 348.616 691.63 353.387 691.63 359.273C691.63 365.159 701.185 369.93 712.971 369.93Z" fill="white" fill-opacity="0.2"/>
<path d="M561.776 284.358C573.562 284.358 583.117 279.586 583.117 273.701C583.117 267.815 573.562 263.043 561.776 263.043C549.99 263.043 540.436 267.815 540.436 273.701C540.436 279.586 549.99 284.358 561.776 284.358Z" fill="white" fill-opacity="0.2"/>
<path d="M543.874 151.169C555.66 151.169 565.214 146.398 565.214 140.512C565.214 134.626 555.66 129.855 543.874 129.855C532.088 129.855 522.533 134.626 522.533 140.512C522.533 146.398 532.088 151.169 543.874 151.169Z" fill="white" fill-opacity="0.2"/>
<path d="M257.915 149.883C269.701 149.883 279.255 145.112 279.255 139.226C279.255 133.34 269.701 128.569 257.915 128.569C246.129 128.569 236.574 133.34 236.574 139.226C236.574 145.112 246.129 149.883 257.915 149.883Z" fill="white" fill-opacity="0.2"/>
<path d="M182.449 179.02C194.235 179.02 203.789 174.248 203.789 168.363C203.789 162.477 194.235 157.705 182.449 157.705C170.663 157.705 161.108 162.477 161.108 168.363C161.108 174.248 170.663 179.02 182.449 179.02Z" fill="white" fill-opacity="0.2"/>
<path d="M249.699 229.392C261.485 229.392 271.039 224.621 271.039 218.735C271.039 212.849 261.485 208.078 249.699 208.078C237.912 208.078 228.358 212.849 228.358 218.735C228.358 224.621 237.912 229.392 249.699 229.392Z" fill="white" fill-opacity="0.2"/>
<path d="M307.788 161.826C319.574 161.826 329.129 157.055 329.129 151.169C329.129 145.283 319.574 140.512 307.788 140.512C296.002 140.512 286.448 145.283 286.448 151.169C286.448 157.055 296.002 161.826 307.788 161.826Z" fill="white" fill-opacity="0.2"/>
<path d="M458.931 157.679C470.718 157.679 480.272 152.908 480.272 147.022C480.272 141.136 470.718 136.365 458.931 136.365C447.145 136.365 437.591 141.136 437.591 147.022C437.591 152.908 447.145 157.679 458.931 157.679Z" fill="white" fill-opacity="0.2"/>
<path d="M372.388 325.438C378.752 325.438 383.912 320.279 383.912 313.915C383.912 307.55 378.752 302.391 372.388 302.391C366.024 302.391 360.865 307.55 360.865 313.915C360.865 320.279 366.024 325.438 372.388 325.438Z" fill="white"/>
<path d="M393.545 366.833V332.709C393.565 332.333 393.504 331.956 393.366 331.605C393.228 331.255 393.016 330.938 392.745 330.676C392.473 330.415 392.148 330.215 391.793 330.09C391.437 329.965 391.059 329.918 390.683 329.953H374.383L377.296 353.997L372.361 360.559L367.479 354.076L371.128 330.032H354.722C350.601 330.032 351.257 332.656 351.257 332.656V366.912C351.257 370.403 355.063 370.35 355.063 370.35C358.869 370.35 358.869 367.305 358.869 367.305V340.347H360.654V410.8C360.651 411.536 360.802 412.265 361.098 412.939C361.394 413.612 361.828 414.216 362.373 414.711C362.917 415.206 363.56 415.581 364.258 415.812C364.957 416.043 365.697 416.124 366.429 416.05C367.136 416.12 367.849 416.031 368.517 415.792C369.186 415.553 369.793 415.168 370.295 414.666C370.797 414.164 371.182 413.557 371.421 412.889C371.66 412.22 371.748 411.507 371.679 410.8V370.534H373.333C373.333 370.534 373.333 409.698 373.333 410.459C373.333 411.925 373.915 413.33 374.951 414.366C375.987 415.402 377.393 415.985 378.858 415.985C380.324 415.985 381.729 415.402 382.765 414.366C383.801 413.33 384.384 411.925 384.384 410.459V340.347H385.958V366.098C385.958 370.875 389.975 370.455 389.975 370.455C390.463 370.517 390.958 370.465 391.423 370.303C391.888 370.142 392.309 369.876 392.654 369.526C392.999 369.175 393.259 368.75 393.414 368.283C393.568 367.816 393.613 367.32 393.545 366.833Z" fill="white"/>
<path d="M724.469 262.02C724.469 264.299 723.793 266.527 722.527 268.422C721.261 270.317 719.461 271.794 717.356 272.666C715.25 273.538 712.933 273.766 710.698 273.322C708.462 272.877 706.409 271.78 704.797 270.168C703.186 268.556 702.088 266.503 701.644 264.268C701.199 262.033 701.427 259.716 702.3 257.61C703.172 255.504 704.649 253.705 706.544 252.438C708.439 251.172 710.667 250.496 712.946 250.496C714.459 250.496 715.958 250.794 717.356 251.374C718.754 251.953 720.024 252.801 721.094 253.871C722.164 254.942 723.013 256.212 723.592 257.61C724.171 259.008 724.469 260.506 724.469 262.02Z" fill="white"/>
<path d="M734.102 314.991V280.867C734.123 280.49 734.062 280.114 733.924 279.763C733.786 279.412 733.574 279.096 733.302 278.834C733.031 278.572 732.706 278.373 732.351 278.248C731.995 278.123 731.617 278.076 731.241 278.111H714.914L717.828 302.155L712.946 308.665L708.089 302.155L711.712 278.111H695.227C691.106 278.111 691.762 280.735 691.762 280.735V315.017C691.762 318.482 695.569 318.456 695.569 318.456C699.375 318.456 699.375 315.411 699.375 315.411V288.453H701.16V358.906C701.156 359.642 701.307 360.37 701.603 361.044C701.899 361.718 702.333 362.322 702.878 362.817C703.423 363.312 704.065 363.687 704.764 363.917C705.463 364.148 706.202 364.229 706.934 364.156C707.652 364.223 708.376 364.13 709.053 363.881C709.73 363.633 710.342 363.236 710.846 362.72C711.349 362.204 711.731 361.582 711.962 360.899C712.194 360.216 712.27 359.49 712.184 358.774V318.639H713.838C713.838 318.639 713.838 357.803 713.838 358.564C713.786 359.322 713.89 360.082 714.144 360.798C714.398 361.514 714.796 362.17 715.315 362.725C715.833 363.28 716.46 363.723 717.156 364.025C717.853 364.328 718.604 364.484 719.364 364.484C720.123 364.484 720.874 364.328 721.571 364.025C722.267 363.723 722.894 363.28 723.412 362.725C723.931 362.17 724.329 361.514 724.583 360.798C724.837 360.082 724.941 359.322 724.889 358.564V288.453H726.464V314.203C726.464 318.981 730.48 318.561 730.48 318.561C730.967 318.629 731.463 318.584 731.93 318.43C732.397 318.275 732.822 318.015 733.173 317.67C733.523 317.325 733.789 316.904 733.95 316.439C734.112 315.974 734.164 315.479 734.102 314.991Z" fill="white"/>
<path d="M561.776 188.049C568.141 188.049 573.3 182.89 573.3 176.526C573.3 170.162 568.141 165.003 561.776 165.003C555.412 165.003 550.253 170.162 550.253 176.526C550.253 182.89 555.412 188.049 561.776 188.049Z" fill="white"/>
<path d="M582.907 229.471V195.347C582.928 194.97 582.867 194.594 582.729 194.243C582.591 193.892 582.379 193.576 582.107 193.314C581.836 193.053 581.511 192.853 581.155 192.728C580.8 192.603 580.421 192.556 580.046 192.591H563.745L566.606 216.687L561.776 223.118L556.894 216.635L560.543 192.591H544.137C540.016 192.591 540.672 195.216 540.672 195.216V229.654C540.672 233.119 544.452 233.093 544.452 233.093C548.258 233.093 548.258 230.048 548.258 230.048V202.985H550.069V273.438C550.066 274.172 550.216 274.898 550.511 275.569C550.805 276.241 551.237 276.844 551.779 277.339C552.32 277.833 552.96 278.209 553.655 278.441C554.351 278.674 555.088 278.758 555.818 278.688C556.536 278.756 557.259 278.662 557.936 278.414C558.613 278.165 559.226 277.768 559.729 277.252C560.233 276.736 560.614 276.114 560.846 275.431C561.077 274.749 561.153 274.023 561.068 273.307V233.172H562.721C562.721 233.172 562.721 272.336 562.721 273.097C562.721 274.559 563.302 275.961 564.336 276.995C565.37 278.029 566.772 278.609 568.234 278.609C569.696 278.609 571.098 278.029 572.132 276.995C573.165 275.961 573.746 274.559 573.746 273.097V203.012H575.321V228.762C575.321 233.513 579.337 233.119 579.337 233.119C579.828 233.182 580.326 233.129 580.793 232.967C581.26 232.804 581.683 232.535 582.029 232.182C582.374 231.829 582.634 231.4 582.786 230.929C582.938 230.459 582.98 229.96 582.907 229.471Z" fill="white"/>
<path d="M411.551 11.5234C411.546 13.7951 410.868 16.0143 409.603 17.901C408.338 19.7877 406.542 21.2572 404.442 22.1241C402.342 22.9911 400.033 23.2165 397.805 22.7721C395.577 22.3276 393.531 21.2332 391.925 19.6269C390.318 18.0205 389.224 15.9743 388.779 13.7466C388.335 11.5188 388.56 9.20926 389.427 7.1095C390.294 5.00974 391.764 3.21387 393.65 1.94855C395.537 0.683238 397.756 0.00519243 400.028 0C403.084 0 406.015 1.21407 408.176 3.37513C410.337 5.53619 411.551 8.46721 411.551 11.5234Z" fill="white"/>
<path d="M421.185 64.4681V30.3441C421.206 29.9653 421.145 29.5864 421.005 29.2336C420.866 28.8808 420.651 28.5625 420.377 28.3005C420.102 28.0385 419.774 27.8392 419.415 27.7162C419.057 27.5931 418.675 27.5494 418.298 27.5879H401.997L404.911 51.6322L400.028 58.1158L395.146 51.6322L398.795 27.5879H382.389C378.241 27.5879 378.924 30.2128 378.924 30.2128V64.6518C378.924 68.143 382.73 68.0905 382.73 68.0905C386.536 68.0905 386.536 65.0455 386.536 65.0455V37.9826H388.347V108.436C388.344 109.171 388.495 109.9 388.791 110.574C389.087 111.247 389.521 111.851 390.066 112.346C390.61 112.841 391.253 113.216 391.952 113.447C392.65 113.678 393.39 113.759 394.122 113.685C394.84 113.753 395.564 113.659 396.241 113.411C396.917 113.163 397.53 112.766 398.033 112.25C398.537 111.734 398.918 111.111 399.15 110.429C399.382 109.746 399.458 109.02 399.372 108.304V68.248H401.026C401.026 68.248 401.026 107.412 401.026 108.173C401.026 109.638 401.608 111.044 402.644 112.08C403.68 113.116 405.086 113.698 406.551 113.698C408.017 113.698 409.422 113.116 410.458 112.08C411.495 111.044 412.077 109.638 412.077 108.173V38.0613H413.652V63.8118C413.652 68.5892 417.668 68.1692 417.668 68.1692C418.159 68.2244 418.657 68.165 419.122 67.9956C419.586 67.8262 420.006 67.5514 420.346 67.1929C420.687 66.8343 420.94 66.4017 421.086 65.929C421.231 65.4562 421.265 64.9562 421.185 64.4681Z" fill="white"/>
<path d="M198.382 227.948C204.731 227.948 209.879 222.801 209.879 216.451C209.879 210.101 204.731 204.954 198.382 204.954C192.032 204.954 186.885 210.101 186.885 216.451C186.885 222.801 192.032 227.948 198.382 227.948Z" fill="white"/>
<path d="M219.513 269.396V235.272C219.533 234.895 219.472 234.519 219.334 234.168C219.196 233.818 218.984 233.501 218.713 233.239C218.441 232.978 218.116 232.778 217.761 232.653C217.405 232.528 217.027 232.481 216.651 232.516H200.351L203.264 256.56L198.408 263.043L193.526 256.56L197.148 232.516H180.742C176.621 232.516 177.278 235.141 177.278 235.141V269.58C177.278 273.044 181.057 273.018 181.057 273.018C184.864 273.018 184.864 269.973 184.864 269.973V242.91H186.675V313.363C186.671 314.099 186.822 314.828 187.118 315.501C187.414 316.175 187.849 316.779 188.393 317.274C188.938 317.769 189.58 318.144 190.279 318.375C190.978 318.606 191.717 318.687 192.45 318.613C193.155 318.678 193.866 318.586 194.533 318.345C195.199 318.104 195.804 317.72 196.305 317.219C196.806 316.718 197.191 316.112 197.432 315.446C197.673 314.78 197.764 314.069 197.699 313.363V272.992H199.353V312.917C199.353 314.382 199.935 315.788 200.972 316.824C202.008 317.86 203.413 318.442 204.879 318.442C206.344 318.442 207.749 317.86 208.786 316.824C209.822 315.788 210.404 314.382 210.404 312.917V242.805H211.979V268.556C211.979 273.333 215.995 272.913 215.995 272.913C216.469 272.963 216.948 272.906 217.398 272.746C217.847 272.587 218.255 272.33 218.592 271.993C218.929 271.655 219.186 271.247 219.346 270.798C219.505 270.349 219.562 269.87 219.513 269.396Z" fill="white"/>
<path d="M10.3061 141.273C10.3009 143.545 9.62283 145.764 8.35751 147.651C7.09219 149.538 5.29632 151.007 3.19656 151.874C1.09681 152.741 -1.21271 152.967 -3.44049 152.522C-5.66828 152.078 -7.71446 150.983 -9.32079 149.377C-10.9271 147.77 -12.0216 145.724 -12.466 143.497C-12.9105 141.269 -12.685 138.959 -11.8181 136.859C-10.9511 134.76 -9.4816 132.964 -7.59493 131.699C-5.70825 130.433 -3.48902 129.755 -1.21734 129.75C0.296904 129.747 1.79692 130.042 3.19656 130.62C4.59621 131.198 5.86792 132.047 6.93866 133.117C8.0094 134.188 8.85807 135.46 9.43595 136.859C10.0138 138.259 10.3095 139.759 10.3061 141.273Z" fill="white"/>
<path d="M19.9397 194.244V160.12C19.9411 159.755 19.8663 159.393 19.7198 159.058C19.5734 158.723 19.3586 158.423 19.0893 158.175C18.8199 157.928 18.502 157.74 18.1557 157.623C17.8094 157.506 17.4425 157.462 17.0785 157.495H0.751478L3.66514 181.54L-1.19097 188.023L-6.07332 181.54L-2.45093 157.495H-18.7517C-22.8728 157.495 -22.2166 160.12 -22.2166 160.12V194.244C-22.2166 197.709 -18.4367 197.683 -18.4367 197.683C-14.6306 197.683 -14.6306 194.638 -14.6306 194.638V167.706H-12.8456V238.159C-12.8493 238.895 -12.6982 239.624 -12.4022 240.297C-12.1062 240.971 -11.6718 241.575 -11.1273 242.07C-10.5827 242.565 -9.94021 242.94 -9.24138 243.171C-8.54254 243.402 -7.80302 243.483 -7.07079 243.409C-6.35304 243.477 -5.62923 243.383 -4.95244 243.135C-4.27565 242.886 -3.66307 242.489 -3.15962 241.973C-2.65617 241.457 -2.27462 240.835 -2.04298 240.152C-1.81134 239.47 -1.73547 238.744 -1.82095 238.028V197.893H-0.167242C-0.167242 197.893 -0.167242 237.057 -0.167242 237.818C-0.298492 238.579 -0.248283 239.361 -0.0206776 240.099C0.20693 240.837 0.605507 241.511 1.14264 242.066C1.67977 242.621 2.34029 243.041 3.07051 243.293C3.80074 243.545 4.58005 243.62 5.34509 243.514C6.111 243.619 6.89085 243.543 7.6218 243.291C8.35275 243.039 9.01436 242.619 9.55329 242.065C10.0922 241.511 10.4934 240.838 10.7245 240.1C10.9556 239.362 11.0101 238.581 10.8837 237.818V167.733H12.4586V193.457C12.4586 198.234 16.4748 197.814 16.4748 197.814C16.9485 197.852 17.4246 197.784 17.8693 197.617C18.3139 197.449 18.716 197.185 19.047 196.844C19.378 196.503 19.6296 196.094 19.7839 195.644C19.9382 195.195 19.9914 194.717 19.9397 194.244Z" fill="white"/>
<path d="M555.371 359.299C555.366 361.571 554.688 363.79 553.423 365.677C552.157 367.564 550.361 369.033 548.262 369.9C546.162 370.767 543.852 370.993 541.625 370.548C539.397 370.104 537.351 369.009 535.744 367.403C534.138 365.797 533.044 363.75 532.599 361.523C532.155 359.295 532.38 356.985 533.247 354.885C534.114 352.786 535.584 350.99 537.47 349.725C539.357 348.459 541.576 347.781 543.848 347.776C546.904 347.776 549.835 348.99 551.996 351.151C554.157 353.312 555.371 356.243 555.371 359.299Z" fill="white"/>
<path d="M565.005 412.113V377.989C565.006 377.623 564.931 377.262 564.785 376.927C564.638 376.592 564.424 376.291 564.154 376.044C563.885 375.797 563.567 375.609 563.221 375.492C562.875 375.375 562.508 375.331 562.144 375.364H545.843L548.756 399.382L543.874 405.866L538.992 399.382L542.64 375.364H526.235C522.113 375.364 522.77 377.989 522.77 377.989V412.244C522.77 415.735 526.576 415.683 526.576 415.683C530.382 415.683 530.382 412.638 530.382 412.638V385.864H532.193V456.317C532.19 457.052 532.341 457.781 532.637 458.455C532.933 459.128 533.367 459.732 533.912 460.227C534.456 460.722 535.099 461.097 535.797 461.328C536.496 461.559 537.236 461.64 537.968 461.566C538.674 461.631 539.385 461.539 540.051 461.298C540.717 461.057 541.322 460.673 541.823 460.172C542.324 459.671 542.709 459.066 542.95 458.399C543.191 457.733 543.282 457.022 543.218 456.317V415.919H544.872V455.844C544.819 456.602 544.923 457.362 545.177 458.078C545.431 458.793 545.83 459.449 546.348 460.004C546.866 460.56 547.493 461.002 548.19 461.305C548.886 461.608 549.638 461.764 550.397 461.764C551.156 461.764 551.908 461.608 552.604 461.305C553.301 461.002 553.928 460.56 554.446 460.004C554.964 459.449 555.363 458.793 555.617 458.078C555.871 457.362 555.975 456.602 555.922 455.844V385.759H557.497V411.509C557.497 416.286 561.514 415.866 561.514 415.866C562.007 415.914 562.505 415.847 562.968 415.671C563.431 415.495 563.848 415.214 564.186 414.851C564.523 414.488 564.773 414.053 564.915 413.578C565.057 413.103 565.088 412.602 565.005 412.113Z" fill="white"/>
<path d="M508.542 250.496C514.907 250.496 520.066 245.337 520.066 238.973C520.066 232.609 514.907 227.45 508.542 227.45C502.178 227.45 497.019 232.609 497.019 238.973C497.019 245.337 502.178 250.496 508.542 250.496Z" fill="white"/>
<path d="M529.699 291.918V257.794C529.72 257.417 529.659 257.041 529.521 256.69C529.383 256.339 529.171 256.022 528.899 255.761C528.628 255.499 528.303 255.299 527.947 255.175C527.592 255.05 527.213 255.003 526.838 255.037H510.537L513.451 279.082L508.569 285.565L503.607 279.161L507.256 255.116H490.85C486.729 255.116 487.385 257.741 487.385 257.741V291.996C487.385 295.461 491.192 295.435 491.192 295.435C494.998 295.435 494.998 292.39 494.998 292.39V265.432H496.783V335.99C496.779 336.726 496.93 337.454 497.226 338.128C497.522 338.802 497.956 339.406 498.501 339.901C499.046 340.396 499.688 340.771 500.387 341.002C501.086 341.232 501.825 341.314 502.558 341.24C503.275 341.308 503.999 341.214 504.676 340.966C505.353 340.717 505.965 340.32 506.469 339.804C506.972 339.288 507.354 338.666 507.585 337.983C507.817 337.301 507.893 336.575 507.807 335.859V295.619H509.461C509.461 295.619 509.461 334.783 509.461 335.544C509.461 337.006 510.042 338.408 511.076 339.442C512.109 340.475 513.511 341.056 514.973 341.056C516.435 341.056 517.837 340.475 518.871 339.442C519.905 338.408 520.486 337.006 520.486 335.544V265.432H522.061V291.183C522.061 295.96 526.077 295.54 526.077 295.54C526.569 295.61 527.07 295.565 527.542 295.408C528.013 295.25 528.442 294.986 528.793 294.634C529.145 294.283 529.41 293.854 529.567 293.383C529.724 292.911 529.769 292.41 529.699 291.918Z" fill="white"/>
<path d="M703.102 91.006C703.102 93.2851 702.426 95.5131 701.16 97.4081C699.894 99.3031 698.094 100.78 695.988 101.652C693.883 102.524 691.566 102.753 689.33 102.308C687.095 101.863 685.042 100.766 683.43 99.1543C681.819 97.5427 680.721 95.4894 680.277 93.2541C679.832 91.0188 680.06 88.7018 680.932 86.5962C681.805 84.4906 683.282 82.6909 685.177 81.4246C687.072 80.1584 689.299 79.4826 691.579 79.4826C694.635 79.4826 697.566 80.6967 699.727 82.8577C701.888 85.0188 703.102 87.9498 703.102 91.006Z" fill="white"/>
<path d="M712.762 143.925V109.801C712.782 109.424 712.721 109.048 712.583 108.697C712.445 108.346 712.233 108.029 711.962 107.768C711.69 107.506 711.366 107.306 711.01 107.181C710.654 107.057 710.276 107.01 709.9 107.044H693.6L696.487 131.246L691.631 137.73L686.775 131.246L690.424 107.202H673.965C669.844 107.202 670.527 109.827 670.527 109.827V144.108C670.527 147.573 674.333 147.547 674.333 147.547C678.139 147.547 678.139 144.502 678.139 144.502V117.439H679.95V187.892C679.946 188.628 680.098 189.356 680.394 190.03C680.69 190.704 681.124 191.308 681.668 191.803C682.213 192.298 682.856 192.673 683.554 192.904C684.253 193.134 684.993 193.215 685.725 193.142C686.443 193.21 687.166 193.116 687.843 192.867C688.52 192.619 689.133 192.222 689.636 191.706C690.14 191.19 690.521 190.568 690.753 189.885C690.984 189.202 691.06 188.477 690.975 187.761V147.626H692.602C692.602 147.626 692.602 186.789 692.602 187.551C692.602 189.016 693.184 190.422 694.221 191.458C695.257 192.494 696.662 193.076 698.128 193.076C699.593 193.076 700.999 192.494 702.035 191.458C703.071 190.422 703.653 189.016 703.653 187.551V117.465H705.228V143.216C705.228 147.993 709.244 147.573 709.244 147.573C709.731 147.626 710.223 147.568 710.683 147.401C711.143 147.235 711.559 146.965 711.899 146.612C712.238 146.26 712.493 145.835 712.642 145.369C712.792 144.903 712.833 144.409 712.762 143.925Z" fill="white"/>
<path d="M626.638 162.745C626.633 165.017 625.955 167.236 624.69 169.123C623.424 171.009 621.629 172.479 619.529 173.346C617.429 174.213 615.12 174.438 612.892 173.994C610.664 173.549 608.618 172.455 607.011 170.849C605.405 169.242 604.311 167.196 603.866 164.968C603.422 162.741 603.647 160.431 604.514 158.331C605.381 156.232 606.851 154.436 608.737 153.17C610.624 151.905 612.843 151.227 615.115 151.222C618.171 151.222 621.102 152.436 623.263 154.597C625.424 156.758 626.638 159.689 626.638 162.745Z" fill="white"/>
<path d="M636.272 215.637V181.513C636.296 181.135 636.238 180.756 636.102 180.402C635.965 180.048 635.754 179.727 635.482 179.463C635.21 179.199 634.884 178.996 634.527 178.87C634.169 178.743 633.788 178.696 633.41 178.731H617.11L620.023 202.749L615.141 209.233L610.259 202.749L613.855 178.836H597.449C593.328 178.836 593.984 181.461 593.984 181.461V215.821C593.984 219.286 597.764 219.26 597.764 219.26C601.57 219.26 601.57 216.215 601.57 216.215V189.152H603.355V259.605C603.351 260.341 603.502 261.069 603.798 261.743C604.094 262.417 604.529 263.021 605.073 263.516C605.618 264.011 606.26 264.386 606.959 264.616C607.658 264.847 608.398 264.928 609.13 264.855C609.848 264.922 610.571 264.829 611.248 264.58C611.925 264.332 612.538 263.935 613.041 263.419C613.544 262.903 613.926 262.281 614.158 261.598C614.389 260.915 614.465 260.189 614.38 259.474V219.339H616.033C616.033 219.339 616.033 258.502 616.033 259.264C616.033 259.989 616.176 260.708 616.454 261.378C616.732 262.049 617.139 262.658 617.652 263.171C618.165 263.684 618.774 264.091 619.444 264.368C620.115 264.646 620.833 264.789 621.559 264.789C622.285 264.789 623.003 264.646 623.673 264.368C624.344 264.091 624.953 263.684 625.466 263.171C625.979 262.658 626.386 262.049 626.664 261.378C626.941 260.708 627.084 259.989 627.084 259.264V189.178H628.659V214.929C628.659 219.706 632.675 219.286 632.675 219.286C633.168 219.353 633.669 219.304 634.14 219.143C634.61 218.982 635.037 218.715 635.385 218.361C635.734 218.007 635.996 217.576 636.15 217.104C636.304 216.631 636.345 216.129 636.272 215.637Z" fill="white"/>
<path d="M491.769 77.6978C491.769 79.9769 491.094 82.2048 489.827 84.0998C488.561 85.9948 486.762 87.4718 484.656 88.344C482.55 89.2162 480.233 89.4444 477.998 88.9998C475.763 88.5551 473.709 87.4576 472.098 85.846C470.486 84.2345 469.389 82.1812 468.944 79.9459C468.499 77.7105 468.728 75.3936 469.6 73.2879C470.472 71.1823 471.949 69.3826 473.844 68.1164C475.739 66.8502 477.967 66.1743 480.246 66.1743C481.76 66.1709 483.26 66.4666 484.66 67.0445C486.06 67.6223 487.331 68.471 488.402 69.5418C489.473 70.6125 490.321 71.8842 490.899 73.2838C491.477 74.6835 491.773 76.1835 491.769 77.6978Z" fill="white"/>
<path d="M501.376 130.616V96.4922C501.401 96.1136 501.343 95.7343 501.206 95.3804C501.07 95.0264 500.859 94.7062 500.587 94.4417C500.315 94.1773 499.989 93.9749 499.631 93.8485C499.274 93.7222 498.893 93.6748 498.515 93.7098H482.188L485.233 117.859L480.351 124.369L475.468 117.859L479.091 93.8148H462.685C458.564 93.8148 459.22 96.4397 459.22 96.4397V130.8C459.22 134.291 463.026 134.239 463.026 134.239C466.858 134.239 466.858 131.246 466.858 131.246V104.131H468.67V174.584C468.666 175.32 468.817 176.048 469.113 176.722C469.409 177.396 469.843 177.999 470.388 178.495C470.933 178.99 471.575 179.365 472.274 179.595C472.973 179.826 473.712 179.907 474.444 179.833C475.162 179.901 475.886 179.807 476.563 179.559C477.24 179.311 477.852 178.914 478.356 178.398C478.859 177.882 479.241 177.26 479.472 176.577C479.704 175.894 479.78 175.168 479.694 174.452V134.317H481.348C481.348 134.317 481.348 173.481 481.348 174.242C481.348 175.708 481.93 177.113 482.966 178.149C484.003 179.186 485.408 179.768 486.873 179.768C488.339 179.768 489.744 179.186 490.781 178.149C491.817 177.113 492.399 175.708 492.399 174.242V104.131H493.974V129.881C493.974 134.659 497.99 134.239 497.99 134.239C498.464 134.27 498.938 134.196 499.379 134.021C499.821 133.847 500.218 133.577 500.542 133.23C500.866 132.883 501.109 132.469 501.253 132.017C501.397 131.565 501.439 131.086 501.376 130.616Z" fill="white"/>
<path d="M555.371 40.765C555.366 43.0367 554.688 45.2559 553.423 47.1426C552.157 49.0293 550.361 50.4988 548.262 51.3658C546.162 52.2327 543.852 52.4582 541.625 52.0137C539.397 51.5692 537.351 50.4748 535.744 48.8685C534.138 47.2621 533.044 45.2159 532.599 42.9882C532.155 40.7604 532.38 38.4509 533.247 36.3511C534.114 34.2514 535.584 32.4555 537.47 31.1902C539.357 29.9248 541.576 29.2468 543.848 29.2416C545.362 29.2381 546.862 29.5338 548.262 30.1117C549.661 30.6896 550.933 31.5383 552.004 32.609C553.075 33.6798 553.923 34.9515 554.501 36.3511C555.079 37.7508 555.375 39.2508 555.371 40.765Z" fill="white"/>
<path d="M565.005 93.7097V59.5857C565.029 59.2072 564.971 58.8279 564.835 58.4739C564.699 58.12 564.487 57.7997 564.215 57.5353C563.943 57.2708 563.617 57.0685 563.26 56.9421C562.902 56.8158 562.521 56.7684 562.144 56.8033H545.843L548.756 80.8476L543.874 87.3312L538.992 80.8476L542.64 56.8033H526.235C522.113 56.8033 522.77 59.4282 522.77 59.4282V93.8935C522.77 97.3584 526.576 97.3321 526.576 97.3321C530.382 97.3321 530.382 94.2872 530.382 94.2872V67.198H532.193V137.651C532.19 138.387 532.341 139.115 532.637 139.789C532.933 140.463 533.367 141.067 533.912 141.562C534.456 142.057 535.099 142.432 535.797 142.663C536.496 142.893 537.236 142.974 537.968 142.901C538.686 142.969 539.41 142.875 540.086 142.626C540.763 142.378 541.376 141.981 541.879 141.465C542.383 140.949 542.764 140.327 542.996 139.644C543.227 138.961 543.303 138.236 543.218 137.52V97.3846H544.872V137.31C544.819 138.067 544.923 138.828 545.177 139.543C545.431 140.259 545.83 140.915 546.348 141.47C546.866 142.025 547.493 142.468 548.19 142.771C548.886 143.073 549.638 143.229 550.397 143.229C551.156 143.229 551.908 143.073 552.604 142.771C553.301 142.468 553.928 142.025 554.446 141.47C554.964 140.915 555.363 140.259 555.617 139.543C555.871 138.828 555.975 138.067 555.922 137.31V67.198H557.497V92.9485C557.497 97.6996 561.514 97.3059 561.514 97.3059C561.993 97.3533 562.477 97.2919 562.929 97.1263C563.382 96.9608 563.791 96.6953 564.126 96.3497C564.462 96.004 564.715 95.5872 564.867 95.1301C565.019 94.673 565.066 94.1875 565.005 93.7097Z" fill="white"/>
<path d="M312.723 66.0955C319.087 66.0955 324.247 60.9363 324.247 54.5721C324.247 48.2079 319.087 43.0487 312.723 43.0487C306.359 43.0487 301.2 48.2079 301.2 54.5721C301.2 60.9363 306.359 66.0955 312.723 66.0955Z" fill="white"/>
<path d="M333.853 107.622V73.4979C333.874 73.1191 333.813 72.7402 333.673 72.3874C333.534 72.0346 333.319 71.7163 333.045 71.4543C332.771 71.1924 332.443 70.993 332.084 70.87C331.725 70.747 331.344 70.7032 330.966 70.7417H314.613L317.526 94.786L312.67 101.27L307.788 94.786L311.41 70.7417H295.005C290.884 70.7417 291.54 73.3666 291.54 73.3666V107.622C291.54 111.087 295.346 111.061 295.346 111.061C299.152 111.061 299.152 108.016 299.152 108.016V81.0314H300.963V151.484C300.96 152.22 301.111 152.949 301.407 153.622C301.703 154.296 302.137 154.9 302.682 155.395C303.226 155.89 303.869 156.265 304.567 156.496C305.266 156.727 306.006 156.808 306.738 156.734C307.444 156.799 308.155 156.707 308.821 156.466C309.487 156.225 310.092 155.841 310.593 155.34C311.094 154.839 311.479 154.234 311.72 153.567C311.961 152.901 312.052 152.19 311.988 151.484V111.218H313.642V151.143C313.642 152.605 314.222 154.007 315.256 155.041C316.29 156.075 317.692 156.655 319.154 156.655C320.616 156.655 322.018 156.075 323.052 155.041C324.085 154.007 324.666 152.605 324.666 151.143V81.0577H326.215V106.808C326.215 111.586 330.231 111.166 330.231 111.166C330.716 111.233 331.209 111.189 331.674 111.036C332.139 110.883 332.562 110.625 332.912 110.283C333.262 109.941 333.529 109.523 333.692 109.062C333.855 108.6 333.91 108.108 333.853 107.622Z" fill="white"/>
<path d="M182.448 78.5377C188.812 78.5377 193.972 73.3785 193.972 67.0143C193.972 60.6501 188.812 55.4908 182.448 55.4908C176.084 55.4908 170.925 60.6501 170.925 67.0143C170.925 73.3785 176.084 78.5377 182.448 78.5377Z" fill="white"/>
<path d="M203.579 119.959V85.8349C203.6 85.4561 203.539 85.0772 203.399 84.7245C203.26 84.3717 203.045 84.0533 202.771 83.7914C202.496 83.5294 202.168 83.33 201.809 83.207C201.451 83.084 201.069 83.0402 200.692 83.0787H184.417L187.331 107.097L182.449 113.58L177.566 107.097L181.215 83.0787H164.809C160.688 83.0787 161.344 85.7037 161.344 85.7037V120.143C161.344 123.634 165.124 123.581 165.124 123.581C168.956 123.581 168.93 120.536 168.93 120.536V93.4734H170.741V163.926C170.738 164.662 170.889 165.391 171.185 166.064C171.481 166.738 171.915 167.342 172.46 167.837C173.004 168.332 173.647 168.707 174.346 168.938C175.044 169.169 175.784 169.25 176.516 169.176C177.234 169.244 177.958 169.15 178.635 168.902C179.311 168.653 179.924 168.257 180.427 167.741C180.931 167.225 181.312 166.602 181.544 165.92C181.776 165.237 181.852 164.511 181.766 163.795V123.634H183.367C183.367 123.634 183.367 162.798 183.367 163.559C183.367 165.024 183.949 166.43 184.986 167.466C186.022 168.502 187.427 169.084 188.893 169.084C190.358 169.084 191.764 168.502 192.8 167.466C193.836 166.43 194.418 165.024 194.418 163.559V93.4472H195.993V119.198C195.993 123.975 200.009 123.555 200.009 123.555C200.495 123.615 200.988 123.564 201.45 123.404C201.913 123.244 202.332 122.98 202.677 122.633C203.022 122.286 203.282 121.864 203.439 121.401C203.595 120.937 203.643 120.444 203.579 119.959Z" fill="white"/>
<path d="M260.619 119.933C260.613 122.2 259.938 124.415 258.677 126.299C257.416 128.183 255.626 129.653 253.533 130.523C251.439 131.393 249.135 131.624 246.91 131.188C244.685 130.752 242.639 129.668 241.029 128.072C239.418 126.476 238.316 124.44 237.859 122.219C237.403 119.998 237.614 117.692 238.465 115.591C239.316 113.489 240.769 111.686 242.642 110.409C244.514 109.131 246.723 108.435 248.99 108.409C250.512 108.395 252.022 108.683 253.432 109.256C254.842 109.829 256.125 110.676 257.206 111.747C258.288 112.819 259.146 114.094 259.731 115.498C260.317 116.903 260.619 118.411 260.619 119.933Z" fill="white"/>
<path d="M270.226 172.851V138.727C270.231 138.359 270.159 137.995 270.014 137.657C269.869 137.319 269.655 137.015 269.385 136.765C269.115 136.515 268.796 136.324 268.448 136.206C268.1 136.087 267.731 136.043 267.364 136.076H251.064L253.951 160.12L248.99 166.578L244.213 160.12L247.835 136.076H231.429C227.308 136.076 227.964 138.701 227.964 138.701V173.035C227.964 176.5 231.77 176.474 231.77 176.474C235.577 176.474 235.577 173.429 235.577 173.429V146.392H237.388V216.819C237.384 217.555 237.535 218.283 237.831 218.957C238.127 219.63 238.562 220.234 239.106 220.729C239.651 221.225 240.293 221.6 240.992 221.83C241.691 222.061 242.43 222.142 243.163 222.068C243.88 222.136 244.604 222.042 245.281 221.794C245.958 221.546 246.57 221.149 247.074 220.633C247.577 220.117 247.959 219.495 248.19 218.812C248.422 218.129 248.498 217.403 248.412 216.687V176.552H250.066C250.066 176.552 250.066 215.716 250.066 216.477C250.066 217.943 250.648 219.348 251.685 220.384C252.721 221.421 254.126 222.003 255.592 222.003C257.057 222.003 258.463 221.421 259.499 220.384C260.535 219.348 261.117 217.943 261.117 216.477V146.392H262.692V172.116C262.692 176.894 266.708 176.474 266.708 176.474C267.192 176.526 267.682 176.467 268.14 176.302C268.597 176.137 269.012 175.87 269.351 175.521C269.69 175.171 269.945 174.75 270.097 174.287C270.248 173.824 270.292 173.333 270.226 172.851Z" fill="white"/>
<path d="M249.699 244.932C256.063 244.932 261.222 239.772 261.222 233.408C261.222 227.044 256.063 221.885 249.699 221.885C243.335 221.885 238.175 227.044 238.175 233.408C238.175 239.772 243.335 244.932 249.699 244.932Z" fill="white"/>
<path d="M270.829 286.353V252.229C270.85 251.852 270.789 251.476 270.651 251.125C270.513 250.774 270.301 250.458 270.029 250.196C269.758 249.935 269.433 249.735 269.077 249.61C268.722 249.485 268.343 249.438 267.968 249.473H251.615L254.528 273.491L249.646 279.974L244.764 273.491L248.412 249.473H232.007C227.885 249.473 228.542 252.098 228.542 252.098V286.379C228.542 289.844 232.348 289.818 232.348 289.818C236.154 289.818 236.154 286.773 236.154 286.773V259.867H237.965V330.32C237.961 331.056 238.113 331.785 238.409 332.458C238.705 333.132 239.139 333.736 239.684 334.231C240.228 334.726 240.871 335.101 241.569 335.332C242.268 335.563 243.008 335.644 243.74 335.57C244.447 335.639 245.16 335.551 245.828 335.312C246.497 335.073 247.104 334.688 247.606 334.186C248.108 333.684 248.492 333.077 248.732 332.408C248.971 331.74 249.059 331.027 248.99 330.32V290.054H250.644V329.979C250.644 331.444 251.226 332.85 252.262 333.886C253.298 334.922 254.704 335.504 256.169 335.504C257.634 335.504 259.04 334.922 260.076 333.886C261.112 332.85 261.694 331.444 261.694 329.979V259.867H263.269V285.618C263.269 290.395 267.286 289.975 267.286 289.975C267.772 290.032 268.264 289.977 268.725 289.813C269.187 289.65 269.604 289.384 269.947 289.034C270.289 288.684 270.546 288.261 270.699 287.796C270.852 287.331 270.897 286.837 270.829 286.353Z" fill="white"/>
<path d="M31.6464 228.132C31.6412 230.404 30.9632 232.623 29.6978 234.51C28.4325 236.396 26.6367 237.866 24.5369 238.733C22.4371 239.6 20.1276 239.825 17.8998 239.381C15.6721 238.936 13.6259 237.842 12.0195 236.235C10.4132 234.629 9.31876 232.583 8.8743 230.355C8.42985 228.127 8.65532 225.818 9.52225 223.718C10.3892 221.618 11.8587 219.822 13.7454 218.557C15.6321 217.292 17.8513 216.614 20.123 216.609C21.6372 216.605 23.1372 216.901 24.5369 217.479C25.9365 218.057 27.2083 218.905 28.279 219.976C29.3497 221.047 30.1984 222.318 30.7763 223.718C31.3542 225.118 31.6499 226.618 31.6464 228.132Z" fill="white"/>
<path d="M41.2798 281.077V246.953C41.3002 246.576 41.2393 246.2 41.1013 245.849C40.9632 245.498 40.7513 245.182 40.4798 244.92C40.2083 244.658 39.8837 244.459 39.528 244.334C39.1724 244.209 38.794 244.162 38.4186 244.197H22.0916L25.0052 268.241L20.1229 274.724L15.3718 268.32L19.0204 244.275H2.48341C-1.63772 244.275 -0.981488 246.9 -0.981488 246.9V281.182C-0.981488 284.647 2.82465 284.62 2.82465 284.62C6.63079 284.62 6.63078 281.575 6.63078 281.575V254.617H8.44198V325.07C8.43829 325.806 8.58936 326.535 8.88539 327.209C9.18142 327.882 9.6158 328.486 10.1603 328.981C10.7049 329.476 11.3474 329.851 12.0462 330.082C12.7451 330.313 13.4846 330.394 14.2168 330.32C14.9234 330.39 15.6366 330.301 16.3051 330.062C16.9735 329.823 17.5806 329.438 18.0827 328.936C18.5847 328.434 18.9692 327.827 19.2085 327.159C19.4479 326.49 19.536 325.777 19.4667 325.07V284.778H21.1466C21.1466 284.778 21.1466 323.942 21.1466 324.703C21.0105 325.463 21.0563 326.244 21.2804 326.982C21.5045 327.721 21.9005 328.395 22.4358 328.951C22.9712 329.507 23.6307 329.928 24.3602 330.18C25.0897 330.431 25.8685 330.507 26.6327 330.399C27.3997 330.51 28.1821 330.438 28.9158 330.188C29.6495 329.938 30.3137 329.518 30.8539 328.963C31.3942 328.407 31.7953 327.731 32.0242 326.991C32.2532 326.251 32.3036 325.467 32.1713 324.703V254.591H33.7462V280.342C33.7462 285.119 37.7624 284.699 37.7624 284.699C38.2463 284.752 38.7358 284.693 39.1938 284.528C39.6517 284.363 40.0659 284.095 40.405 283.746C40.7441 283.397 40.9992 282.975 41.1507 282.513C41.3023 282.05 41.3464 281.559 41.2798 281.077Z" fill="white"/>
<path d="M151.29 359.299C151.29 361.579 150.614 363.806 149.348 365.701C148.082 367.596 146.282 369.073 144.177 369.946C142.071 370.818 139.754 371.046 137.519 370.601C135.283 370.157 133.23 369.059 131.619 367.448C130.007 365.836 128.909 363.783 128.465 361.548C128.02 359.312 128.248 356.995 129.121 354.89C129.993 352.784 131.47 350.984 133.365 349.718C135.26 348.452 137.488 347.776 139.767 347.776C142.823 347.776 145.754 348.99 147.915 351.151C150.076 353.312 151.29 356.243 151.29 359.299Z" fill="white"/>
<path d="M160.924 412.113V377.989C160.925 377.623 160.85 377.262 160.704 376.927C160.558 376.592 160.343 376.291 160.073 376.044C159.804 375.797 159.486 375.609 159.14 375.492C158.794 375.375 158.427 375.331 158.063 375.364H141.736L144.649 399.382L139.767 405.866L134.885 399.382L138.533 375.364H122.127C118.006 375.364 118.663 377.989 118.663 377.989V412.244C118.663 415.735 122.442 415.683 122.442 415.683C126.249 415.683 126.249 412.638 126.249 412.638V385.864H128.06V456.317C128.056 457.052 128.207 457.781 128.503 458.455C128.799 459.128 129.234 459.732 129.778 460.227C130.323 460.722 130.965 461.097 131.664 461.328C132.363 461.559 133.102 461.64 133.835 461.566C134.541 461.636 135.254 461.548 135.923 461.308C136.591 461.069 137.198 460.684 137.7 460.182C138.203 459.68 138.587 459.073 138.826 458.405C139.066 457.736 139.154 457.023 139.084 456.317V415.919H140.738C140.738 415.919 140.738 455.083 140.738 455.844C140.738 457.31 141.32 458.715 142.357 459.751C143.393 460.787 144.798 461.37 146.264 461.37C147.729 461.37 149.134 460.787 150.171 459.751C151.207 458.715 151.789 457.31 151.789 455.844L151.868 385.864H153.443V411.614C153.443 416.391 157.459 415.971 157.459 415.971C157.962 416.024 158.471 415.957 158.943 415.775C159.415 415.594 159.838 415.303 160.176 414.926C160.514 414.55 160.758 414.098 160.888 413.609C161.018 413.12 161.03 412.608 160.924 412.113Z" fill="white"/>
<path d="M383.911 173.245C383.937 175.528 383.284 177.768 382.035 179.68C380.786 181.591 378.997 183.089 376.895 183.982C374.794 184.875 372.474 185.123 370.231 184.696C367.988 184.268 365.922 183.184 364.296 181.58C362.67 179.977 361.558 177.926 361.099 175.689C360.641 173.452 360.858 171.129 361.722 169.015C362.586 166.902 364.059 165.092 365.953 163.817C367.847 162.542 370.078 161.858 372.361 161.853C375.402 161.839 378.324 163.03 380.488 165.164C382.653 167.299 383.883 170.205 383.911 173.245Z" fill="white"/>
<path d="M393.545 226.295V192.171C393.549 191.808 393.478 191.448 393.337 191.114C393.195 190.779 392.986 190.478 392.722 190.229C392.458 189.98 392.145 189.788 391.803 189.666C391.461 189.544 391.098 189.494 390.736 189.519H374.435L377.349 213.564L372.361 220.021L367.479 213.537L371.128 189.493H354.722C350.601 189.493 351.257 192.118 351.257 192.118V226.478C351.257 229.969 355.063 229.917 355.063 229.917C358.869 229.917 358.869 226.872 358.869 226.872V199.809H360.654V270.367C360.651 271.103 360.802 271.831 361.098 272.505C361.394 273.179 361.828 273.783 362.373 274.278C362.917 274.773 363.56 275.148 364.258 275.379C364.957 275.609 365.697 275.69 366.429 275.617C367.148 275.69 367.874 275.599 368.553 275.353C369.232 275.106 369.847 274.709 370.351 274.192C370.856 273.675 371.237 273.051 371.467 272.366C371.697 271.681 371.769 270.953 371.679 270.236V229.996H373.333C373.333 229.996 373.333 269.16 373.333 269.921C373.333 271.386 373.915 272.792 374.951 273.828C375.987 274.864 377.393 275.446 378.858 275.446C380.324 275.446 381.729 274.864 382.765 273.828C383.801 272.792 384.384 271.386 384.384 269.921V199.809H385.958V225.56C385.958 230.337 389.975 229.917 389.975 229.917C390.463 229.978 390.958 229.926 391.423 229.765C391.888 229.604 392.309 229.338 392.654 228.987C392.999 228.637 393.259 228.212 393.414 227.745C393.568 227.278 393.613 226.782 393.545 226.295Z" fill="white"/>
</svg>
