<svg width="720" height="473" viewBox="0 0 720 473" fill="none" xmlns="http://www.w3.org/2000/svg">
<path d="M448.117 229.014C507.396 229.014 555.451 180.959 555.451 121.68C555.451 62.401 507.396 14.3459 448.117 14.3459C388.838 14.3459 340.783 62.401 340.783 121.68C340.783 180.959 388.838 229.014 448.117 229.014Z" fill="white" fill-opacity="0.3"/>
<path d="M477.873 236.069C473.917 239.873 472.405 245.769 476.185 250.355C477.991 252.457 480.518 253.807 483.27 254.138C486.021 254.469 488.797 253.758 491.05 252.144C501.784 243.854 490.597 228.586 479.032 231.76C478.591 231.888 478.211 232.169 477.96 232.554C477.709 232.938 477.605 233.4 477.666 233.855C477.727 234.309 477.949 234.727 478.293 235.032C478.636 235.336 479.077 235.508 479.536 235.515C482.965 235.29 486.369 236.241 489.186 238.21C490.529 239.448 491.34 241.158 491.448 242.982C491.556 244.805 490.953 246.599 489.765 247.986C483.466 255.747 472.506 244.308 479.133 237.379C479.219 237.291 479.287 237.188 479.333 237.074C479.378 236.96 479.402 236.838 479.4 236.715C479.399 236.592 479.374 236.471 479.326 236.358C479.278 236.245 479.208 236.142 479.12 236.056C479.032 235.97 478.929 235.902 478.815 235.856C478.701 235.81 478.579 235.787 478.456 235.789C478.333 235.79 478.212 235.815 478.099 235.863C477.986 235.911 477.883 235.981 477.797 236.069H477.873Z" fill="white"/>
<path d="M402.279 348.422C416.459 290.864 381.294 232.709 323.736 218.529C266.178 204.348 208.023 239.513 193.843 297.071C179.663 354.629 214.827 412.784 272.385 426.964C329.943 441.145 388.098 405.98 402.279 348.422Z" fill="white" fill-opacity="0.3"/>
<path d="M355.396 193.891C353.731 192.527 352.396 190.804 351.491 188.852C349.979 184.619 352.851 182.503 356.202 180.94C357.901 180.374 359.44 179.411 360.693 178.132C361.946 176.852 362.877 175.293 363.408 173.583C364.996 167.536 359.856 160.104 353.33 161.892C351.189 162.472 351.844 165.193 353.33 166.025C355.371 167.209 358.092 167.864 358.369 170.661C358.823 174.415 355.119 175.498 352.549 176.834C351.169 177.498 349.942 178.441 348.944 179.603C347.947 180.765 347.201 182.121 346.754 183.586C345.242 188.877 348.392 196.184 354.565 195.756C354.781 195.732 354.987 195.652 355.163 195.523C355.338 195.394 355.476 195.221 355.563 195.021C355.65 194.822 355.683 194.603 355.658 194.387C355.633 194.171 355.552 193.965 355.421 193.79L355.396 193.891Z" fill="white"/>
<path d="M335.114 258.644C335.668 262.146 339.296 269.554 343.126 270.562C345.167 271.116 346.679 269.781 348.165 268.672C351.037 266.707 353.885 264.666 356.732 262.65C357.279 262.311 357.676 261.774 357.84 261.15C358.004 260.527 357.923 259.865 357.613 259.299L350.055 247.659C349.711 247.115 349.172 246.724 348.549 246.565C347.926 246.405 347.266 246.49 346.704 246.802C343.438 248.896 340.307 251.193 337.331 253.681C335.391 255.47 337.86 258.417 340.077 257.233C343.246 255.366 346.284 253.287 349.173 251.01L345.822 250.128L353.381 261.768C353.683 260.66 353.985 259.526 354.262 258.417C352.549 259.627 350.836 260.937 349.223 262.071C348.241 262.751 345.016 265.8 343.957 265.674C342.899 265.548 340.984 262.146 340.531 261.517C339.417 260.054 338.102 258.756 336.625 257.662C335.87 257.132 335.139 257.989 335.24 258.72L335.114 258.644Z" fill="white"/>
<path d="M508.99 99.4573C509.519 102.96 513.172 110.367 517.002 111.375C519.018 111.929 520.555 110.594 522.041 109.485C524.913 107.52 527.761 105.479 530.608 103.463C531.151 103.12 531.543 102.581 531.702 101.958C531.861 101.335 531.776 100.675 531.464 100.112L523.906 88.4971C523.561 87.9899 523.044 87.6256 522.45 87.4725C521.856 87.3195 521.227 87.3881 520.681 87.6657C517.406 89.7468 514.275 92.0448 511.308 94.5441C509.342 96.333 511.837 99.2809 514.054 98.0967C517.219 96.2232 520.257 94.1443 523.15 91.8734L519.799 90.9915L527.357 102.632C527.635 101.523 527.937 100.39 528.239 99.2809L523.2 102.934C522.243 103.64 519.018 106.663 517.934 106.537C516.851 106.411 514.961 103.01 514.356 102.304C513.244 100.849 511.939 99.5522 510.476 98.4495C509.72 97.9203 508.965 98.777 509.091 99.5077L508.99 99.4573Z" fill="white"/>
<path d="M523.931 162.598C517.38 165.647 510.955 168.846 504.53 172.147C504.185 172.29 503.882 172.518 503.65 172.81C503.417 173.103 503.264 173.449 503.203 173.818C503.142 174.186 503.177 174.564 503.303 174.916C503.43 175.267 503.644 175.58 503.925 175.826C508.637 180.688 513.298 185.576 518.337 190.087C518.578 190.274 518.857 190.404 519.155 190.468C519.453 190.531 519.762 190.527 520.058 190.454C520.354 190.381 520.629 190.242 520.863 190.048C521.098 189.853 521.285 189.608 521.411 189.331C524.536 182.477 529.323 173.13 528.013 165.369C527.685 163.379 524.662 162.472 523.855 164.689C522.922 168.275 522.232 171.92 521.789 175.599C520.9 179.781 519.557 183.853 517.783 187.743L521.185 187.365C516.574 182.15 511.585 177.287 506.596 172.5V175.876C512.895 172.349 519.194 168.771 525.291 164.992C526.576 164.185 525.291 161.943 524.006 162.598H523.931Z" fill="white"/>
<path d="M402.638 252.9C407.56 247.561 411.996 241.794 415.891 235.666C417.075 233.751 414.178 231.559 412.717 233.297C408.104 238.963 404.014 245.035 400.497 251.438C400.364 251.722 400.334 252.043 400.411 252.347C400.488 252.651 400.668 252.919 400.92 253.106C401.172 253.292 401.48 253.386 401.793 253.372C402.106 253.357 402.405 253.235 402.638 253.026V252.9Z" fill="white"/>
<path d="M561.674 64.9894L561.321 64.6619C560.549 63.9342 559.523 63.536 558.462 63.5519C557.4 63.5678 556.387 63.9965 555.637 64.747C554.886 65.4975 554.457 66.5108 554.442 67.5721C554.426 68.6334 554.824 69.6591 555.551 70.4317L555.879 70.7845C556.663 71.4701 557.679 71.8321 558.72 71.7972C559.761 71.7623 560.75 71.3332 561.486 70.5966C562.223 69.8601 562.652 68.8712 562.687 67.8301C562.722 66.789 562.36 65.7736 561.674 64.9894Z" fill="white"/>
<path d="M375.15 217.978L374.772 217.676C374.395 217.299 373.947 216.999 373.454 216.795C372.961 216.591 372.433 216.486 371.899 216.486C371.366 216.486 370.838 216.591 370.345 216.795C369.852 216.999 369.404 217.299 369.027 217.676C368.65 218.053 368.351 218.501 368.147 218.994C367.942 219.487 367.837 220.015 367.837 220.548C367.837 221.082 367.942 221.61 368.147 222.103C368.351 222.596 368.65 223.043 369.027 223.421L369.329 223.798C370.107 224.56 371.151 224.987 372.24 224.987C373.328 224.987 374.373 224.56 375.15 223.798C375.9 223.015 376.318 221.973 376.318 220.888C376.318 219.804 375.9 218.761 375.15 217.978Z" fill="white"/>
<path fill-rule="evenodd" clip-rule="evenodd" d="M461.237 17.4651C463.632 17.0377 466.091 17.0368 468.5 17.4703C470.187 17.7959 471.788 18.4678 473.201 19.4436C474.615 20.4193 475.811 21.6778 476.714 23.1393C478.295 26.7309 478.82 30.699 478.226 34.5782C477.621 44.3373 477.025 54.1049 476.437 63.8809C476.06 66.5722 476.31 69.3143 477.167 71.8931C477.627 73.1757 478.5 74.2685 479.65 74.9986C480.8 75.7288 482.161 76.0546 483.517 75.9245C484.823 75.4713 486.087 74.9066 487.296 74.2363C487.907 73.9072 488.609 73.7857 489.295 73.8902C489.982 73.9947 490.615 74.3196 491.101 74.8158C491.523 75.5283 491.667 76.3721 491.504 77.1842C491.291 78.994 490.656 80.7283 489.649 82.2471C488.643 83.7659 487.293 85.0266 485.709 85.9272C486.192 85.7739 486.704 85.7357 487.205 85.8157C487.705 85.8957 488.18 86.0916 488.591 86.3878C489.003 86.684 489.339 87.0724 489.573 87.5217C489.808 87.9711 489.934 88.4691 489.942 88.9759C489.871 90.016 489.494 91.0118 488.857 91.8371C488.22 92.6624 487.352 93.2801 486.364 93.6119C484.393 94.265 482.309 94.5051 480.241 94.3174C481.089 94.4124 481.865 94.8396 482.399 95.5055C482.932 96.1714 483.18 97.0216 483.089 97.87C482.955 98.7182 482.601 99.5165 482.062 100.184C481.522 100.852 480.816 101.366 480.015 101.675C478.402 102.252 476.673 102.434 474.975 102.204C471.328 101.935 467.832 100.633 464.897 98.4495C461.38 95.7064 459.361 91.6013 458.444 87.2131C458.071 88.6766 457.45 90.0675 456.606 91.3244C455.607 92.8104 454.317 94.0783 452.814 95.0512C451.311 96.0242 449.627 96.6818 447.862 96.9844C446.097 97.2871 444.29 97.2283 442.548 96.8118C439.277 96.034 436.428 94.0353 434.582 91.2249C432.737 88.4145 432.035 85.005 432.621 81.6943L434.176 72.9403C420.452 65.8055 420.745 45.8947 422.65 27.9065C422.263 27.378 422.027 26.6807 421.863 26.0368C420.978 22.5285 421.109 18.8408 422.241 15.4042C422.837 13.7172 423.78 12.1735 425.008 10.8719C426.236 9.57029 427.722 8.53946 429.371 7.84545C433.069 6.73269 437.022 6.79431 440.684 8.02182C446.319 9.46445 451.728 11.6773 456.759 14.5979C458.356 15.4012 459.856 16.3637 461.237 17.4651Z" fill="white"/>
<path d="M401.908 4.74634V42.0613H376.964L376.183 56.1961L361.544 41.2298H306.668L311.505 2L401.908 4.74634Z" fill="white"/>
<path d="M393.442 15.4293C368.952 14.9254 344.285 14.7491 319.769 15.2782C319.689 15.2995 319.618 15.3469 319.567 15.413C319.516 15.4791 319.488 15.5601 319.488 15.6435C319.488 15.7269 319.516 15.8079 319.567 15.874C319.618 15.9401 319.689 15.9875 319.769 16.0088C344.285 16.5128 368.952 16.3364 393.442 15.8577C393.486 15.8422 393.525 15.8133 393.552 15.7749C393.579 15.7365 393.594 15.6906 393.594 15.6435C393.594 15.5964 393.579 15.5505 393.552 15.5121C393.525 15.4738 393.486 15.4448 393.442 15.4293Z" fill="#DEDEDE"/>
<path d="M393.442 22.585C368.876 22.1566 344.209 21.9299 319.694 22.4338C319.613 22.4551 319.542 22.5025 319.491 22.5686C319.44 22.6347 319.413 22.7157 319.413 22.7991C319.413 22.8825 319.44 22.9636 319.491 23.0296C319.542 23.0957 319.613 23.1431 319.694 23.1645C344.209 23.6936 368.876 23.5172 393.366 23.0133C393.411 22.9978 393.449 22.9689 393.477 22.9305C393.504 22.8921 393.518 22.8462 393.518 22.7991C393.518 22.752 393.504 22.7061 393.477 22.6678C393.449 22.6294 393.411 22.6004 393.366 22.585H393.442Z" fill="#DEDEDE"/>
<path d="M393.442 30.1437C378.324 29.665 363.207 29.539 348.089 29.9925C348.009 30.0138 347.938 30.0613 347.887 30.1273C347.836 30.1934 347.808 30.2745 347.808 30.3578C347.808 30.4412 347.836 30.5223 347.887 30.5883C347.938 30.6544 348.009 30.7018 348.089 30.7232C363.207 31.1767 378.324 31.0507 393.442 30.572C393.486 30.5565 393.525 30.5276 393.552 30.4892C393.579 30.4508 393.594 30.4049 393.594 30.3578C393.594 30.3108 393.579 30.2648 393.552 30.2265C393.525 30.1881 393.486 30.1591 393.442 30.1437Z" fill="#DEDEDE"/>
<g opacity="0.18">
<path opacity="0.18" d="M444.841 58.5897C445.396 60.3282 444.841 62.0163 443.707 62.3943C442.574 62.7722 441.188 61.6384 440.608 59.8747C440.029 58.111 440.608 56.4481 441.742 56.0701C442.876 55.6922 444.312 56.8764 444.841 58.5897Z" fill="#251A51"/>
</g>
<g opacity="0.13">
<path opacity="0.13" d="M456.431 46.6469C456.431 48.461 454.113 49.9476 451.216 49.9728C448.318 49.998 445.975 48.5366 445.95 46.7225C445.925 44.9084 448.268 43.4219 451.165 43.4219C454.063 43.4219 456.431 44.8328 456.431 46.6469Z" fill="#251A51"/>
</g>
<g opacity="0.13">
<path opacity="0.13" d="M434.788 48.1839C434.788 49.998 432.47 51.4845 429.573 51.5097C426.675 51.5349 424.332 50.0735 424.307 48.2594C424.282 46.4454 426.625 44.9588 429.522 44.9336C432.42 44.9084 434.788 46.3698 434.788 48.1839Z" fill="#251A51"/>
</g>
<path fill-rule="evenodd" clip-rule="evenodd" d="M466.115 28.7596C466.095 28.8281 466.081 28.8778 466.081 28.9091C466.132 28.9595 466.358 28.9091 466.736 28.5564C467.03 28.0643 467.129 27.48 467.013 26.9186C466.593 25.3239 465.948 23.797 465.099 22.3834C464.219 20.2572 462.945 18.3166 461.344 16.664C461.783 18.9104 462.638 21.0552 463.864 22.9881C464.189 23.6192 464.55 24.2272 464.887 24.7969C465.412 25.6828 465.882 26.4762 466.081 27.1202C466.341 27.9593 466.189 28.4974 466.115 28.7596ZM428.036 29.8917C427.884 29.5894 429.069 28.7327 430.757 28.8839C432.445 29.0351 433.503 30.0681 433.276 30.3453M428.036 29.8917C428.129 30.1092 428.672 30.116 429.364 30.1246L428.036 29.8917ZM429.364 30.1246H429.364H429.364ZM429.364 30.1246H429.364H429.364ZM429.364 30.1246C429.795 30.13 430.283 30.1361 430.757 30.1941L429.364 30.1246ZM430.757 30.1941C431.084 30.2342 431.399 30.2831 431.689 30.3282L430.757 30.1941ZM450.384 32.4365C448.923 32.0082 447.714 32.7137 447.865 33.0412C447.935 33.2879 448.4 33.3744 449.07 33.499C449.358 33.5525 449.683 33.613 450.032 33.6963C450.474 33.8022 450.873 33.9411 451.213 34.0598C451.764 34.2518 452.163 34.3907 452.35 34.2506C452.652 34.0238 451.846 32.8648 450.384 32.4365ZM439.424 53.8277C439.424 53.8277 439.575 54.3064 438.87 54.6592C438.164 55.0119 436.98 54.3064 436.678 53.1726C436.308 51.9578 436.171 50.6841 436.275 49.4185L436.501 45.0344C436.534 41.2412 436.99 37.4636 437.862 33.7719C438.3 37.5385 438.3 41.3433 437.862 45.11C437.862 46.0664 437.768 47.0019 437.674 47.9367C437.622 48.4549 437.57 48.9729 437.534 49.494C437.371 50.6219 437.371 51.7676 437.534 52.8955C437.686 53.8025 438.316 54.2057 438.719 54.1805C438.97 54.1647 439.153 54.0118 439.273 53.9112C439.346 53.8505 439.396 53.8088 439.424 53.8277ZM431.991 72.0443C435.38 73.7484 439.069 74.7754 442.851 75.0678C446.667 74.9584 450.425 74.1024 453.912 72.5482C453.912 72.6742 453.055 73.6316 451.14 74.6394C448.594 75.9244 445.771 76.5643 442.92 76.5028C440.069 76.4413 437.276 75.6803 434.788 74.2867C432.798 73.1529 431.891 72.1703 431.991 72.0443ZM437.108 58.6862C436.77 58.4951 436.562 58.3779 436.476 58.4637C436.275 58.5393 436.627 59.2952 437.661 59.9503C438.349 60.4123 439.134 60.7094 439.955 60.8186C440.777 60.9279 441.612 60.8463 442.397 60.5802C443.173 60.3231 443.881 59.8954 444.47 59.3286C445.059 58.7618 445.513 58.0702 445.799 57.3047C446.151 56.1205 446 55.3899 445.799 55.3647C445.687 55.3507 445.59 55.5543 445.432 55.8892L445.432 55.8892L445.432 55.8893C445.305 56.1574 445.138 56.5096 444.892 56.9016C444.238 58.0736 443.182 58.9689 441.919 59.4212C440.663 59.7912 439.317 59.711 438.114 59.1944C437.7 59.0201 437.366 58.8317 437.108 58.6862L437.108 58.6862ZM465.502 55.2387C465.502 55.1184 465.699 55.025 465.987 54.8889C466.181 54.797 466.417 54.6856 466.661 54.5332C466.968 54.3334 467.191 54.029 467.291 53.6765C467.291 53.2734 467.291 52.9963 467.014 52.9207C466.946 52.8892 466.873 52.8729 466.799 52.8729C466.725 52.8729 466.652 52.8892 466.585 52.9207L465.829 52.5256L465.502 52.3916L465.517 52.3699L465.521 52.3646L465.477 52.3412C466.333 50.5775 467.165 49.3681 467.417 49.4688C467.613 49.5473 467.504 50.4338 467.066 51.6897C467.097 51.6931 467.128 51.6974 467.159 51.7026C467.472 51.7552 467.764 51.8951 468.001 52.1061C468.238 52.3171 468.411 52.5907 468.5 52.8955C468.628 53.3057 468.628 53.7451 468.5 54.1553C468.38 54.4621 468.193 54.7386 467.953 54.965C467.714 55.1915 467.427 55.3623 467.114 55.4654C466.056 55.667 465.502 55.3899 465.502 55.2387ZM428.791 39.3905C429.27 39.8189 429.749 40.1716 430.102 40.0204C430.404 39.7937 430.379 39.063 429.699 38.4331C429.018 37.8032 428.212 37.8032 428.086 38.1308C427.96 38.4583 428.313 38.9622 428.791 39.3905ZM449.225 42.3132C448.898 42.4644 448.293 41.8849 447.739 41.129C447.184 40.3732 446.781 39.6425 447.008 39.3653C447.235 39.0882 448.117 39.3653 448.797 40.348C449.477 41.3306 449.553 42.0613 449.225 42.3132Z" fill="url(#paint0_linear)"/>
<path d="M429.497 88.2452L358.294 114.927L365.097 86.1791L346.578 81.4927C346.578 81.4927 326.673 137.679 340.531 139.191C364.744 141.711 401.378 132.237 401.378 132.237L429.497 88.2452Z" fill="white"/>
<path d="M363.761 88.0184C363.761 88.0184 376.208 70.6333 373.991 70.6333C371.773 70.6333 370.614 73.9088 366.432 76.1512C366.432 76.1512 373.31 54.4072 371.169 54.8608C369.027 55.3143 363.963 69.2727 363.61 69.2727C363.257 69.2727 367.994 53.6262 366.13 53.4246C364.265 53.223 360.032 67.761 360.032 67.761C360.032 67.761 363.005 53.9537 361.141 53.6514C359.276 53.349 356.505 66.0729 356.505 66.0729C356.505 66.0729 358.697 55.3647 357.009 55.1127C355.976 54.9111 346.578 81.4927 346.578 81.4927L363.761 88.0184Z" fill="white"/>
<path fill-rule="evenodd" clip-rule="evenodd" d="M404.78 152.721L404.956 209.009C423.475 231.685 488.102 202.332 488.102 202.332L488.858 179.303L489.631 151.259L496.694 152.041C494.527 116.565 484.751 107.192 484.751 107.192C484.689 107.154 484.628 107.117 484.566 107.079C478.086 96.9131 468.576 91.8985 468.576 91.8985C458.288 87.3278 447.061 85.2722 435.821 85.9019C431.999 86.0943 429.079 86.8065 426.718 88.0418C420.793 90.092 385.556 103.136 385.556 103.136L390.393 135.739L406.225 130.645C405.336 136.475 404.78 143.653 404.78 152.721Z" fill="url(#paint1_linear)"/>
<path fill-rule="evenodd" clip-rule="evenodd" d="M459.489 148.132C459.582 148.742 459.731 149.341 459.934 149.924C459.999 149.361 460.014 148.794 459.977 148.229C465.763 149.365 471.613 150.15 477.495 150.579C483.917 151.462 490.389 151.925 496.871 151.965C490.521 150.643 484.09 149.742 477.621 149.269C471.765 148.436 465.863 147.978 459.95 147.897C459.927 147.673 459.897 147.45 459.858 147.228C459.757 145.566 459.581 143.172 459.304 140.224C458.775 134.303 457.943 126.114 456.986 117.094C456.722 114.952 456.722 112.786 456.986 110.644C457.262 108.701 458.035 106.861 459.228 105.303C461.367 102.726 464.315 100.95 467.593 100.264C469.855 99.7449 472.179 99.5415 474.497 99.6588C475.335 99.7387 476.178 99.7387 477.016 99.6588C476.22 99.311 475.365 99.1145 474.497 99.0793C472.124 98.7669 469.717 98.835 467.366 99.2809C463.787 99.9506 460.558 101.86 458.245 104.673C456.898 106.37 456.028 108.397 455.726 110.543C455.436 112.793 455.436 115.071 455.726 117.321C456.708 126.366 457.666 134.505 458.447 140.426C458.825 143.374 459.152 145.742 459.404 147.405C459.417 147.567 459.434 147.729 459.455 147.891C459.06 147.887 458.665 147.884 458.271 147.884C458.676 147.968 459.082 148.051 459.489 148.132Z" fill="white"/>
<path fill-rule="evenodd" clip-rule="evenodd" d="M457.767 194.319C470.491 195.63 461.47 142.466 461.47 142.466L491.453 144.835L492.99 159.146C499.516 201.878 485.155 216.164 476.16 221.48C466.159 227.398 415.316 214.785 393.791 207.82C391.223 207.688 387.782 207.567 384.205 207.441C375.647 207.139 366.301 206.81 366.205 206.237C365.928 204.549 376.813 203.289 376.813 203.289C376.813 203.289 363.812 204.624 363.509 202.76C363.207 200.895 377.342 199.384 377.342 199.384C377.342 199.384 362.124 199.862 361.746 198.074C361.481 196.822 369.43 196.249 374.195 195.905C376.241 195.758 377.7 195.652 377.669 195.554C377.639 195.457 376.31 195.349 374.426 195.195C369.952 194.831 362.349 194.213 361.569 192.883C360.461 190.993 383.364 190.742 383.364 190.742C381.687 189.053 380.011 188.184 378.65 187.478C377.268 186.762 376.211 186.214 375.805 185.148C374.999 183.032 395.483 189.457 395.483 189.457V189.507C395.483 189.507 395.488 189.542 395.497 189.608C404.404 189.966 426.366 191.09 457.767 194.319Z" fill="white"/>
<path fill-rule="evenodd" clip-rule="evenodd" d="M415.085 136.572V98.5754V91.8733L421.913 89.7821V136.462L450.225 136.009C444.108 95.5981 469.332 92.3521 469.332 92.3521L474.723 96.1818C454.442 98.5377 455.648 125.796 456.808 135.904L460.79 135.84L464.746 200.669L406.216 192.808L410.424 136.646L415.085 136.572ZM452.425 134.454C452.425 134.454 452.652 133.85 453.483 133.824C453.748 133.826 454.009 133.885 454.249 133.998C454.488 134.111 454.7 134.276 454.869 134.479C455.084 134.767 455.2 135.116 455.2 135.475C455.2 135.833 455.084 136.182 454.869 136.47C454.683 136.799 454.384 137.049 454.027 137.174C453.67 137.299 453.28 137.291 452.929 137.15C452.656 137.016 452.435 136.795 452.303 136.52C452.17 136.246 452.134 135.936 452.198 135.638C452.211 135.454 452.274 135.276 452.381 135.125C452.487 134.974 452.633 134.855 452.803 134.782H453.206C453.206 134.782 452.979 135.185 453.206 135.588C453.433 135.991 453.534 136.067 453.886 135.588C454.239 135.109 453.887 134.782 453.408 134.58C453.152 134.472 452.917 134.494 452.739 134.511C452.584 134.526 452.472 134.536 452.425 134.454ZM456.683 136.016C456.809 136.016 457.313 136.545 457.137 137.73C457.001 138.499 456.608 139.2 456.022 139.717C455.436 140.234 454.692 140.537 453.912 140.577C453.148 140.585 452.401 140.344 451.787 139.889C451.173 139.434 450.725 138.791 450.51 138.057C450.233 136.898 450.712 136.243 450.838 136.319C450.892 136.351 450.927 136.475 450.982 136.666L450.982 136.666C451.054 136.922 451.161 137.297 451.392 137.73C451.572 138.238 451.91 138.675 452.356 138.976C452.803 139.278 453.334 139.429 453.873 139.406C454.411 139.384 454.928 139.189 455.348 138.851C455.768 138.513 456.068 138.049 456.205 137.528C456.395 137.109 456.451 136.747 456.492 136.481C456.533 136.221 456.559 136.054 456.683 136.016ZM421.586 136.949C421.737 136.949 422.14 137.83 422.291 139.468C422.379 140.491 422.187 141.519 421.737 142.441C421.458 143.044 421.024 143.563 420.48 143.943C419.935 144.324 419.3 144.553 418.638 144.608C417.963 144.583 417.305 144.393 416.721 144.055C416.137 143.717 415.644 143.241 415.287 142.668C414.754 141.807 414.435 140.831 414.354 139.821C414.354 138.158 414.354 137.301 414.632 137.301C414.823 137.301 414.906 137.771 415.048 138.569L415.048 138.569C415.111 138.925 415.186 139.347 415.287 139.821C415.446 140.647 415.781 141.429 416.269 142.114C416.539 142.499 416.892 142.819 417.302 143.05C417.712 143.281 418.168 143.418 418.638 143.449C419.095 143.429 419.539 143.285 419.921 143.032C420.302 142.779 420.608 142.427 420.804 142.013C421.224 141.292 421.458 140.478 421.485 139.645C421.48 139.332 421.473 139.037 421.467 138.766C421.441 137.663 421.424 136.949 421.586 136.949ZM417.453 137.83V138.611C417.453 138.939 417.831 139.09 418.159 138.889C418.486 138.687 418.461 138.46 418.159 138.133C417.983 137.942 417.816 137.888 417.686 137.846C417.594 137.816 417.521 137.793 417.479 137.73C417.378 137.578 417.731 137.1 418.537 137.301C418.777 137.367 418.996 137.492 419.176 137.663C419.357 137.835 419.492 138.048 419.57 138.284C419.649 138.605 419.626 138.942 419.504 139.249C419.382 139.557 419.167 139.818 418.89 139.997C418.622 140.192 418.3 140.297 417.97 140.297C417.639 140.297 417.317 140.192 417.05 139.997C416.861 139.84 416.716 139.637 416.627 139.408C416.539 139.179 416.511 138.93 416.546 138.687C416.773 137.805 417.378 137.654 417.453 137.83ZM424.231 156.954C425.592 157.004 426.751 156.752 426.751 156.375C426.776 156.022 425.592 155.694 424.231 155.644C422.871 155.593 421.712 155.845 421.712 156.198C421.712 156.551 422.871 156.904 424.231 156.954ZM451.039 162.27C450.687 162.27 450.611 161.086 450.662 159.751C450.712 158.415 450.838 157.231 451.191 157.231C451.543 157.231 452.022 158.315 451.972 159.751C451.921 161.187 451.392 162.346 451.039 162.27ZM446.353 171.089C446.101 170.837 446.681 169.879 447.462 168.796C448.243 167.713 448.973 166.856 449.301 167.032C449.629 167.209 449.301 168.368 448.52 169.552C447.739 170.736 446.681 171.366 446.353 171.089ZM439.878 174.415C438.618 174.843 437.635 175.271 437.635 175.649C437.66 176.002 438.895 176.128 440.281 175.674C441.667 175.221 442.574 174.415 442.397 174.087C442.221 173.76 441.137 173.986 439.878 174.415ZM427.759 174.364C427.876 174.11 428.573 174.251 429.47 174.433L429.47 174.433C429.726 174.485 429.998 174.541 430.278 174.591C431.538 174.818 432.596 175.372 432.571 175.725C432.546 176.078 431.336 176.254 429.925 175.725C428.514 175.196 427.607 174.692 427.759 174.364ZM422.392 169.325C421.586 168.267 420.804 167.461 420.477 167.637C420.175 167.788 420.452 168.998 421.359 170.131C422.266 171.265 423.324 171.82 423.576 171.568C423.828 171.316 423.198 170.383 422.392 169.325ZM418.285 157.937C418.638 157.937 418.839 159.07 418.94 160.456C419.041 161.842 418.94 162.976 418.663 162.976C418.386 162.976 417.731 161.993 417.63 160.456C417.529 158.919 417.932 157.886 418.285 157.937ZM436.829 156.752C436.829 157.105 435.67 157.357 434.309 157.307C432.949 157.256 431.79 156.929 431.79 156.551C431.79 156.173 432.949 155.946 434.309 155.997C435.67 156.047 436.829 156.374 436.829 156.752ZM444.388 157.659C445.748 157.71 446.907 157.458 446.907 157.105C446.907 156.752 445.773 156.4 444.388 156.349C443.002 156.299 441.868 156.576 441.868 156.929C441.868 157.282 443.027 157.609 444.388 157.659Z" fill="white"/>
<path d="M451.09 269.831C452.734 262.751 453.779 255.545 454.214 248.289C454.214 246.071 450.687 245.517 450.284 247.76C449.042 254.932 448.427 262.199 448.444 269.478C448.505 269.748 448.647 269.992 448.85 270.179C449.054 270.365 449.309 270.486 449.582 270.524C449.856 270.562 450.134 270.517 450.381 270.393C450.628 270.269 450.831 270.073 450.964 269.831H451.09Z" fill="white"/>
<path d="M487.699 293.717L487.321 293.389C486.549 292.662 485.523 292.263 484.462 292.279C483.4 292.295 482.387 292.724 481.637 293.474C480.886 294.225 480.457 295.238 480.441 296.299C480.426 297.361 480.824 298.386 481.551 299.159L481.879 299.512C482.258 299.901 482.71 300.212 483.21 300.425C483.71 300.639 484.247 300.751 484.79 300.756C485.334 300.76 485.873 300.657 486.376 300.451C486.879 300.246 487.336 299.943 487.721 299.559C488.106 299.176 488.412 298.72 488.619 298.217C488.827 297.715 488.932 297.177 488.93 296.633C488.928 296.09 488.819 295.552 488.607 295.052C488.396 294.551 488.087 294.097 487.699 293.717Z" fill="white"/>
<path fill-rule="evenodd" clip-rule="evenodd" d="M397.289 279.809C397.956 281.702 416.935 335.996 403.369 337.457C379.131 340.102 342.496 330.503 342.496 330.503L314.352 286.511L385.555 313.218L378.753 284.445L378.787 284.436C375.665 279.959 368.141 268.899 370.01 268.899C371.224 268.899 372.08 269.778 373.208 270.938C374.257 272.016 375.541 273.336 377.569 274.417C377.569 274.417 370.715 252.673 372.832 253.126C374.314 253.444 377.253 260.383 379.004 264.515C379.753 266.284 380.285 267.538 380.39 267.538C380.496 267.538 380.143 266.127 379.648 264.147C378.494 259.534 376.566 251.831 377.871 251.69C379.735 251.489 383.968 266.052 383.968 266.052C383.968 266.052 380.995 252.219 382.885 251.917C384.775 251.615 387.496 264.338 387.496 264.338C387.496 264.338 385.304 253.63 386.992 253.378C388.025 253.227 397.423 279.758 397.423 279.758L397.289 279.809Z" fill="white"/>
<path fill-rule="evenodd" clip-rule="evenodd" d="M339.07 350.987L338.918 407.299C320.374 429.975 255.772 400.597 255.772 400.597L255.016 377.568L254.257 349.547L247.357 350.306C249.352 317.66 257.8 307.129 259.125 305.667C265.6 295.285 275.299 290.164 275.299 290.164C285.591 285.608 296.815 283.553 308.054 284.168C311.902 284.361 314.836 285.082 317.206 286.333C323.345 288.464 358.294 301.401 358.294 301.401L353.456 334.005L337.607 328.802C338.506 334.653 339.07 341.864 339.07 350.987Z" fill="url(#paint2_linear)"/>
<path fill-rule="evenodd" clip-rule="evenodd" d="M321.961 224.428C321.813 224.993 321.585 225.654 321.202 226.168C323.106 244.17 323.392 264.09 309.63 271.203L311.228 279.96C311.814 283.27 311.113 286.68 309.267 289.49C307.422 292.301 304.572 294.299 301.301 295.077C299.561 295.494 297.755 295.552 295.992 295.249C294.229 294.946 292.546 294.289 291.045 293.315C289.544 292.342 288.256 291.074 287.26 289.588C286.264 288.102 285.581 286.43 285.251 284.671L280.232 257.898C278.191 258.546 274.2 258.852 272.225 252.471C270.146 245.753 275.244 243.417 277.766 242.689C273.337 239.558 273.417 229.885 275.4 224.831C277.863 219.664 281.976 215.462 287.09 212.889C292.083 209.957 297.459 207.736 303.064 206.287C306.721 205.038 310.678 204.968 314.377 206.086C316.028 206.778 317.514 207.809 318.742 209.111C319.97 210.412 320.912 211.957 321.508 213.645C322.7 217.119 322.857 220.866 321.961 224.428Z" fill="white"/>
<path fill-rule="evenodd" clip-rule="evenodd" d="M286.007 392.61C273.283 393.895 282.303 340.732 282.303 340.732L252.345 343.151L250.859 357.412C244.333 400.144 258.695 414.43 267.715 419.746C277.692 425.661 328.498 413.06 350.047 406.093C352.664 405.957 356.223 405.833 359.917 405.704C368.441 405.407 377.689 405.084 377.77 404.528C378.072 402.814 367.163 401.555 367.163 401.555C367.163 401.555 380.164 402.94 380.466 401.051C380.768 399.161 366.659 397.649 366.659 397.649C366.659 397.649 381.902 398.128 382.255 396.339C382.502 395.088 374.55 394.514 369.783 394.171C367.736 394.023 366.276 393.918 366.306 393.819C366.336 393.722 367.665 393.614 369.55 393.461C374.023 393.097 381.626 392.478 382.406 391.149C383.515 389.259 360.612 389.007 360.612 389.007C362.27 387.324 363.965 386.455 365.34 385.75C366.744 385.031 367.814 384.483 368.171 383.414C368.876 381.297 348.392 387.722 348.392 387.722L348.518 387.773C348.518 387.773 348.513 387.806 348.504 387.869C339.712 388.222 317.721 389.345 286.007 392.61Z" fill="white"/>
<path d="M265.397 334.106C265.523 334.106 266.002 334.912 266.027 336.625C266.023 337.149 265.898 337.665 265.662 338.132C265.426 338.6 265.085 339.007 264.666 339.321C264.391 339.525 264.077 339.67 263.743 339.748C263.409 339.826 263.063 339.835 262.726 339.775C262.068 339.576 261.482 339.191 261.038 338.666C260.232 337.734 259.703 337.154 258.871 337.053C258.517 336.993 258.154 337.013 257.809 337.114C257.464 337.214 257.147 337.392 256.881 337.633C255.923 338.515 255.949 339.523 255.747 339.523C255.545 339.523 255.117 338.439 256.2 337.003C256.536 336.597 256.967 336.281 257.455 336.083C257.944 335.885 258.474 335.811 258.997 335.869C259.627 335.921 260.229 336.148 260.736 336.524C261.193 336.906 261.614 337.327 261.995 337.784C263.28 339.548 264.994 337.784 265.095 336.55C265.195 335.315 265.17 334.131 265.397 334.106Z" fill="#F9F2FC"/>
<path d="M276.584 324.506C276.584 324.506 276.962 323.574 278.348 322.692C278.795 322.425 279.298 322.263 279.818 322.219C280.337 322.176 280.86 322.251 281.346 322.44C281.662 322.572 281.949 322.768 282.187 323.015C282.425 323.262 282.611 323.555 282.732 323.876C282.947 324.531 282.947 325.237 282.732 325.892C282.347 326.722 282.293 327.668 282.58 328.537C282.718 328.859 282.922 329.148 283.178 329.387C283.434 329.625 283.737 329.808 284.067 329.923C285.327 330.276 286.183 329.721 286.284 329.923C286.385 330.125 285.679 331.032 283.765 330.855C283.231 330.785 282.722 330.586 282.283 330.274C281.843 329.962 281.487 329.548 281.245 329.066C280.972 328.494 280.85 327.86 280.892 327.227C280.981 326.644 281.125 326.07 281.321 325.514C282.152 323.473 279.784 322.994 278.65 323.498C277.516 324.002 276.71 324.632 276.584 324.506Z" fill="#F9F2FC"/>
<path d="M275.828 300.394C275.828 300.394 276.206 299.461 277.592 298.58C278.039 298.312 278.542 298.151 279.062 298.107C279.581 298.063 280.104 298.139 280.59 298.328C280.907 298.46 281.193 298.656 281.431 298.903C281.669 299.15 281.855 299.443 281.976 299.764C282.193 300.418 282.193 301.125 281.976 301.779C281.553 302.614 281.471 303.581 281.749 304.475C281.887 304.797 282.09 305.086 282.346 305.325C282.602 305.563 282.905 305.746 283.236 305.861C284.495 306.239 285.352 305.685 285.453 305.861C285.554 306.037 284.848 306.945 283.059 306.768C282.523 306.705 282.011 306.508 281.571 306.195C281.131 305.883 280.776 305.464 280.54 304.979C280.266 304.406 280.145 303.773 280.187 303.14C280.279 302.557 280.423 301.984 280.615 301.427C281.447 299.386 279.078 298.907 277.944 299.411C276.811 299.915 275.954 300.57 275.828 300.394Z" fill="#F9F2FC"/>
<path d="M299.688 331.712C299.688 331.712 298.731 331.435 297.723 330.125C297.417 329.706 297.212 329.222 297.124 328.71C297.037 328.198 297.069 327.674 297.219 327.177C297.32 326.844 297.488 326.536 297.714 326.271C297.939 326.007 298.217 325.792 298.529 325.64C299.187 325.442 299.888 325.442 300.545 325.64C301.411 325.983 302.375 325.983 303.241 325.64C303.555 325.471 303.829 325.238 304.047 324.956C304.264 324.674 304.418 324.349 304.501 324.002C304.753 322.717 304.123 321.911 304.274 321.81C304.425 321.709 305.433 322.314 305.408 324.103C305.368 324.617 305.205 325.114 304.933 325.553C304.662 325.991 304.289 326.358 303.846 326.622C303.297 326.95 302.671 327.125 302.032 327.126C301.444 327.091 300.862 326.998 300.293 326.849C298.202 326.194 297.774 328.613 298.529 329.696C299.285 330.78 299.84 331.586 299.688 331.712Z" fill="#F9F2FC"/>
<path d="M315.94 356.883C315.94 357.009 315.511 357.79 314.05 358.545C313.586 358.784 313.072 358.909 312.551 358.909C312.029 358.909 311.515 358.784 311.052 358.545C310.746 358.394 310.475 358.181 310.254 357.921C310.033 357.662 309.867 357.36 309.767 357.034C309.623 356.357 309.693 355.653 309.968 355.018C310.447 353.859 310.699 353.154 310.397 352.347C310.281 352.017 310.099 351.714 309.86 351.458C309.622 351.202 309.332 350.999 309.011 350.861C307.776 350.407 306.869 350.861 306.794 350.71C306.718 350.558 307.474 349.651 309.313 349.954C310.138 350.158 310.856 350.666 311.323 351.375C311.79 352.085 311.972 352.945 311.833 353.783C311.709 354.361 311.532 354.927 311.304 355.472C310.296 357.437 312.639 358.168 313.823 357.664C315.007 357.16 315.839 356.706 315.94 356.883Z" fill="#F9F2FC"/>
<path d="M335.088 317.199C335.088 317.325 334.66 318.106 333.199 318.887C332.732 319.115 332.219 319.233 331.7 319.233C331.18 319.233 330.668 319.115 330.2 318.887C329.893 318.733 329.62 318.516 329.399 318.252C329.178 317.988 329.013 317.681 328.915 317.35C328.771 316.674 328.842 315.969 329.117 315.335C329.596 314.176 329.848 313.47 329.545 312.664C329.43 312.334 329.248 312.031 329.009 311.775C328.77 311.519 328.481 311.315 328.16 311.177C326.925 310.724 326.018 311.177 325.942 311.026C325.867 310.875 326.623 309.968 328.462 310.296C328.973 310.411 329.447 310.65 329.843 310.993C330.238 311.336 330.543 311.772 330.73 312.261C330.976 312.841 331.047 313.481 330.931 314.1C330.811 314.679 330.634 315.245 330.402 315.788C329.419 317.753 331.737 318.484 332.922 317.98C334.106 317.476 334.988 316.947 335.088 317.199Z" fill="#F9F2FC"/>
<path d="M348.089 311.152C348.089 311.152 349.097 311.152 350.307 312.387C350.686 312.739 350.978 313.176 351.157 313.662C351.336 314.148 351.399 314.669 351.34 315.184C351.3 315.527 351.19 315.859 351.017 316.158C350.843 316.457 350.61 316.717 350.332 316.922C349.752 317.284 349.075 317.46 348.392 317.426C347.473 317.229 346.514 317.401 345.721 317.905C345.445 318.128 345.219 318.408 345.058 318.725C344.898 319.042 344.806 319.389 344.789 319.744C344.789 321.029 345.545 321.709 345.394 321.86C345.242 322.012 344.159 321.558 343.857 319.794C343.803 319.272 343.874 318.744 344.062 318.254C344.25 317.764 344.551 317.325 344.94 316.972C345.42 316.557 346.003 316.278 346.628 316.166C347.215 316.117 347.805 316.117 348.392 316.166C350.584 316.418 350.483 313.999 349.601 313.042C348.719 312.084 348.089 311.329 348.089 311.152Z" fill="#F9F2FC"/>
<path d="M295.304 377.417C295.304 377.417 294.851 378.324 293.415 379.105C292.948 379.332 292.435 379.451 291.915 379.451C291.396 379.451 290.883 379.332 290.416 379.105C290.108 378.951 289.836 378.734 289.615 378.47C289.393 378.206 289.229 377.899 289.131 377.568C288.975 376.893 289.046 376.184 289.333 375.553C289.786 374.419 290.064 373.688 289.761 373.033C289.657 372.69 289.476 372.375 289.232 372.113C288.987 371.851 288.685 371.649 288.35 371.521C287.141 371.068 286.234 371.521 286.158 371.37C286.083 371.219 286.839 370.312 288.678 370.639C289.504 370.833 290.225 371.334 290.693 372.041C291.161 372.749 291.342 373.608 291.197 374.444C291.078 375.023 290.9 375.588 290.668 376.132C289.66 378.097 291.978 378.828 293.188 378.324C294.397 377.82 295.178 377.216 295.304 377.417Z" fill="#F9F2FC"/>
<path d="M323.65 339.22C323.65 339.22 322.717 338.817 321.886 337.381C321.639 336.929 321.497 336.426 321.471 335.912C321.444 335.397 321.535 334.883 321.735 334.408C321.875 334.091 322.08 333.807 322.336 333.573C322.592 333.338 322.893 333.16 323.221 333.047C323.878 332.844 324.58 332.844 325.237 333.047C325.638 333.275 326.081 333.422 326.54 333.478C326.998 333.534 327.463 333.499 327.908 333.375C328.244 333.259 328.549 333.067 328.798 332.814C329.047 332.56 329.234 332.252 329.344 331.913C329.747 330.679 329.218 329.797 329.344 329.721C329.47 329.646 330.452 330.351 330.2 332.241C330.104 332.754 329.884 333.236 329.559 333.644C329.234 334.053 328.814 334.375 328.336 334.584C327.763 334.853 327.126 334.958 326.497 334.887C325.914 334.77 325.342 334.61 324.783 334.408C322.768 333.501 322.138 335.869 322.692 336.927C323.246 337.986 323.826 339.094 323.65 339.22Z" fill="#F9F2FC"/>
<path d="M328.739 359.78C328.739 359.78 327.807 359.377 326.975 357.966C326.728 357.509 326.586 357.003 326.56 356.484C326.533 355.965 326.624 355.447 326.824 354.968C326.965 354.651 327.17 354.366 327.426 354.132C327.681 353.898 327.983 353.719 328.311 353.607C328.979 353.43 329.686 353.475 330.326 353.733C331.146 354.168 332.097 354.285 332.997 354.061C333.333 353.937 333.637 353.74 333.886 353.482C334.135 353.225 334.322 352.914 334.433 352.574C334.836 351.339 334.433 350.458 334.433 350.382C334.433 350.306 335.542 351.012 335.29 352.902C335.192 353.417 334.971 353.901 334.646 354.313C334.322 354.725 333.903 355.053 333.426 355.27C332.853 355.542 332.213 355.639 331.586 355.547C330.998 355.456 330.423 355.295 329.873 355.068C327.857 354.161 327.353 356.53 327.782 357.588C328.21 358.646 328.915 359.604 328.739 359.78Z" fill="#F9F2FC"/>
<path d="M287.62 350.987C287.468 350.987 287.216 350.055 287.62 348.467C287.741 347.964 287.973 347.494 288.3 347.093C288.627 346.692 289.041 346.369 289.509 346.149C289.827 346.01 290.17 345.939 290.517 345.939C290.864 345.939 291.207 346.01 291.525 346.149C292.131 346.472 292.624 346.973 292.936 347.585C293.515 348.694 293.919 349.349 294.7 349.626C295.026 349.766 295.381 349.828 295.735 349.806C296.09 349.784 296.434 349.68 296.74 349.5C297.874 348.845 298.076 347.862 298.277 347.913C298.479 347.963 298.655 349.122 297.27 350.281C296.85 350.597 296.36 350.806 295.842 350.889C295.324 350.972 294.794 350.928 294.296 350.76C293.656 350.582 293.085 350.213 292.659 349.702C292.309 349.232 291.997 348.735 291.727 348.215C290.845 346.2 288.804 347.51 288.426 348.744C288.048 349.979 287.922 351.012 287.62 350.987Z" fill="#F9F2FC"/>
<path d="M324.758 376.308C324.632 376.308 324.355 375.376 324.758 373.789C324.873 373.279 325.106 372.804 325.439 372.401C325.771 371.998 326.194 371.68 326.673 371.471C326.985 371.326 327.325 371.252 327.668 371.252C328.012 371.252 328.352 371.326 328.664 371.471C329.27 371.794 329.762 372.295 330.074 372.907C330.654 374.016 331.057 374.671 331.838 374.948C332.163 375.094 332.515 375.169 332.871 375.169C333.227 375.169 333.579 375.094 333.904 374.948C335.038 374.293 335.214 373.285 335.416 373.335C335.618 373.386 335.794 374.545 334.408 375.704C333.994 376.02 333.51 376.23 332.996 376.318C332.483 376.406 331.956 376.368 331.46 376.208C330.857 376.009 330.317 375.653 329.898 375.175C329.531 374.703 329.211 374.196 328.941 373.663C328.059 371.647 326.018 372.983 325.64 374.192C325.262 375.401 324.985 376.334 324.758 376.308Z" fill="#F9F2FC"/>
<path d="M323.7 299.587C323.549 299.587 323.272 298.655 323.7 297.068C323.814 296.561 324.044 296.088 324.372 295.686C324.7 295.284 325.117 294.963 325.59 294.75C325.904 294.615 326.243 294.545 326.585 294.545C326.927 294.545 327.266 294.615 327.58 294.75C328.203 295.058 328.708 295.563 329.016 296.186C329.596 297.269 329.974 297.95 330.78 298.227C331.099 298.379 331.447 298.458 331.8 298.458C332.154 298.458 332.502 298.379 332.821 298.227C333.955 297.572 334.156 296.589 334.333 296.639C334.509 296.69 334.711 297.824 333.35 299.008C332.931 299.323 332.441 299.532 331.923 299.615C331.405 299.699 330.874 299.655 330.377 299.487C329.771 299.292 329.231 298.934 328.815 298.454C328.463 297.932 328.168 297.374 327.933 296.791C327.051 294.775 324.985 296.085 324.632 297.32C324.279 298.554 323.902 299.613 323.7 299.587Z" fill="#F9F2FC"/>
<path d="M311.581 386.488C311.581 386.614 310.573 386.488 309.238 385.555C308.834 385.264 308.5 384.888 308.261 384.452C308.021 384.016 307.881 383.532 307.852 383.036C307.85 382.692 307.918 382.352 308.052 382.035C308.187 381.719 308.384 381.434 308.633 381.196C309.165 380.747 309.828 380.482 310.523 380.441C311.434 380.496 312.333 380.208 313.042 379.634C313.29 379.379 313.481 379.074 313.603 378.74C313.724 378.405 313.774 378.049 313.748 377.694C313.596 376.409 312.74 375.83 312.866 375.679C312.992 375.527 314.126 375.805 314.655 377.543C314.774 378.049 314.769 378.577 314.642 379.081C314.515 379.585 314.269 380.051 313.924 380.441C313.51 380.924 312.969 381.282 312.362 381.474C311.793 381.621 311.21 381.714 310.623 381.751C308.406 381.751 308.809 384.27 309.792 385.001C310.775 385.732 311.707 386.311 311.581 386.488Z" fill="#F9F2FC"/>
<path d="M267.639 311.152C267.765 311.152 268.521 311.656 269.201 313.143C269.417 313.617 269.518 314.136 269.496 314.657C269.474 315.178 269.33 315.686 269.075 316.141C268.904 316.443 268.673 316.706 268.395 316.914C268.118 317.122 267.801 317.271 267.463 317.35C266.784 317.45 266.091 317.344 265.472 317.048C264.738 316.539 263.839 316.323 262.953 316.443C262.609 316.541 262.289 316.71 262.015 316.94C261.742 317.17 261.52 317.456 261.366 317.779C260.836 318.963 261.366 319.895 261.114 319.971C260.862 320.046 260.081 319.215 260.484 317.451C260.632 316.948 260.899 316.488 261.263 316.111C261.627 315.734 262.077 315.45 262.575 315.284C263.182 315.095 263.832 315.095 264.439 315.284C265.013 315.44 265.57 315.651 266.102 315.914C268.017 316.998 268.874 314.73 268.42 313.395C267.967 312.059 267.463 311.253 267.639 311.152Z" fill="#F9F2FC"/>
<path d="M310.069 303.568C310.069 303.568 310.926 304.072 311.631 305.559C311.835 306.037 311.928 306.556 311.901 307.075C311.875 307.595 311.731 308.102 311.48 308.557C311.312 308.856 311.084 309.118 310.811 309.326C310.538 309.534 310.226 309.684 309.893 309.766C309.211 309.875 308.513 309.76 307.902 309.439C306.768 308.91 306.063 308.607 305.383 308.859C305.041 308.954 304.723 309.119 304.449 309.345C304.176 309.571 303.953 309.852 303.795 310.17C303.291 311.379 303.795 312.286 303.543 312.362C303.291 312.437 302.51 311.631 302.939 309.842C303.085 309.338 303.351 308.877 303.716 308.5C304.08 308.122 304.531 307.839 305.03 307.675C305.64 307.509 306.284 307.509 306.894 307.675C307.458 307.837 308.006 308.048 308.532 308.305C310.447 309.414 311.304 307.121 310.875 305.785C310.447 304.45 309.868 303.669 310.069 303.568Z" fill="#F9F2FC"/>
<path d="M283.916 348.215C283.803 347.379 283.803 346.532 283.916 345.696C283.916 344.033 284.218 341.614 284.47 338.666C284.999 332.745 285.831 324.556 286.813 315.536C287.064 313.393 287.064 311.229 286.813 309.086C286.546 307.144 285.783 305.305 284.596 303.745C282.462 301.116 279.508 299.279 276.206 298.529C273.95 298.024 271.637 297.821 269.328 297.924C268.489 298.002 267.646 298.002 266.808 297.924C267.611 297.596 268.462 297.4 269.328 297.345C271.7 297.032 274.107 297.101 276.458 297.546C280.043 298.221 283.278 300.128 285.604 302.938C286.938 304.653 287.806 306.684 288.124 308.834C288.413 311.076 288.413 313.345 288.124 315.587C287.166 324.632 286.183 332.77 285.428 338.691C285.05 341.639 284.697 344.033 284.445 345.67C284.37 346.537 284.193 347.391 283.916 348.215Z" fill="white"/>
<path d="M285.604 346.149C279.254 347.469 272.823 348.37 266.354 348.845C259.934 349.743 253.461 350.206 246.979 350.231C253.329 348.911 259.76 348.01 266.228 347.535C272.648 346.637 279.122 346.174 285.604 346.149Z" fill="white"/>
<path d="M377.745 361.418C377.786 359.293 378.294 357.203 379.231 355.295C381.751 351.491 385.052 352.448 388.377 354.111C389.871 355.097 391.577 355.715 393.355 355.912C395.134 356.109 396.934 355.88 398.607 355.245C404.326 352.725 407.022 344.108 401.555 340.127C399.766 338.817 398.027 340.984 398.279 342.647C398.607 344.965 399.766 347.535 397.776 349.525C395.105 352.196 391.98 349.954 389.31 348.77C387.941 348.087 386.444 347.701 384.916 347.635C383.387 347.57 381.863 347.828 380.441 348.392C375.402 350.432 371.622 357.361 375.679 362.023C375.83 362.176 376.02 362.287 376.227 362.345C376.435 362.403 376.655 362.405 376.864 362.351C377.073 362.298 377.264 362.19 377.419 362.04C377.573 361.889 377.686 361.701 377.745 361.493V361.418Z" fill="white"/>
<path d="M416.748 279.355C412.792 283.16 411.28 289.081 415.06 293.641C416.867 295.75 419.399 297.105 422.157 297.436C424.914 297.767 427.696 297.051 429.951 295.43C440.659 287.166 429.472 271.897 417.907 275.047C417.476 275.19 417.11 275.479 416.87 275.865C416.631 276.25 416.535 276.707 416.598 277.157C416.66 277.606 416.879 278.019 417.215 278.324C417.551 278.629 417.983 278.807 418.436 278.826C421.88 278.583 425.303 279.525 428.136 281.497C429.481 282.739 430.293 284.453 430.401 286.281C430.509 288.108 429.905 289.906 428.716 291.298C422.417 299.033 411.457 287.619 418.083 280.691C418.215 280.506 418.277 280.281 418.258 280.055C418.239 279.83 418.141 279.618 417.981 279.458C417.821 279.298 417.609 279.199 417.383 279.181C417.157 279.162 416.932 279.224 416.748 279.355Z" fill="white"/>
<path d="M250.128 271.822C246.173 275.601 244.661 281.522 248.44 286.108C250.254 288.208 252.788 289.553 255.543 289.88C258.299 290.206 261.077 289.49 263.331 287.871C274.039 279.607 262.877 264.338 251.287 267.513C250.845 267.641 250.463 267.925 250.212 268.312C249.962 268.699 249.86 269.163 249.924 269.62C249.988 270.076 250.215 270.494 250.563 270.797C250.91 271.099 251.355 271.266 251.816 271.267C255.263 271.031 258.686 271.983 261.517 273.963C262.866 275.197 263.681 276.909 263.789 278.734C263.897 280.559 263.29 282.354 262.096 283.739C255.797 291.474 244.837 280.061 251.464 273.132C251.637 272.955 251.734 272.716 251.731 272.468C251.729 272.22 251.628 271.983 251.451 271.809C251.274 271.635 251.035 271.539 250.787 271.541C250.539 271.544 250.302 271.644 250.128 271.822Z" fill="white"/>
<path d="M192.682 367.339C195.428 377.417 198.427 387.495 201.526 397.574C201.649 398.09 201.901 398.568 202.257 398.962C202.613 399.356 203.063 399.655 203.564 399.83C204.066 400.006 204.603 400.053 205.127 399.966C205.652 399.88 206.146 399.664 206.565 399.337C214.703 393.82 222.816 388.377 230.526 382.255C230.85 381.961 231.104 381.598 231.268 381.193C231.432 380.787 231.502 380.35 231.472 379.914C231.443 379.478 231.316 379.053 231.1 378.673C230.883 378.293 230.584 377.967 230.224 377.719C221.204 371.521 209.009 362.375 197.469 362.3C194.546 362.3 192.43 366.381 195.479 368.095C200.089 370.765 205.557 371.698 210.596 373.764C216.429 376.017 221.983 378.934 227.15 382.456C227.15 380.793 227.376 379.13 227.502 377.417C218.886 382.708 210.772 388.654 202.584 394.575L207.421 395.558C203.919 385.656 200.341 375.855 196.461 366.104C195.655 364.063 192.153 365.197 192.732 367.339H192.682Z" fill="white"/>
<path d="M428.716 324.758C435.885 325.852 443.134 326.332 450.384 326.194C450.877 326.139 451.332 325.904 451.662 325.534C451.992 325.165 452.175 324.687 452.175 324.191C452.175 323.695 451.992 323.217 451.662 322.848C451.332 322.478 450.877 322.243 450.384 322.188C443.301 321.571 436.177 321.571 429.094 322.188C427.683 322.188 427.129 324.708 428.716 324.708V324.758Z" fill="white"/>
<path d="M190.339 324.758C197.499 325.853 204.74 326.333 211.982 326.194C212.474 326.139 212.929 325.904 213.26 325.534C213.59 325.165 213.773 324.687 213.773 324.191C213.773 323.695 213.59 323.217 213.26 322.848C212.929 322.478 212.474 322.243 211.982 322.188C204.898 321.571 197.775 321.571 190.691 322.188C189.28 322.188 188.726 324.708 190.339 324.708V324.758Z" fill="white"/>
<path d="M237.707 313.168L237.329 312.84C236.554 312.094 235.52 311.676 234.444 311.676C233.368 311.676 232.334 312.094 231.559 312.84C230.824 313.621 230.414 314.653 230.414 315.725C230.414 316.798 230.824 317.829 231.559 318.61L231.887 318.963C232.265 319.352 232.718 319.663 233.217 319.877C233.717 320.09 234.254 320.202 234.798 320.207C235.341 320.211 235.88 320.108 236.383 319.902C236.886 319.697 237.344 319.394 237.729 319.01C238.114 318.627 238.419 318.171 238.627 317.669C238.834 317.166 238.94 316.628 238.938 316.084C238.936 315.541 238.826 315.003 238.615 314.503C238.403 314.002 238.095 313.548 237.707 313.168Z" fill="white"/>
<path d="M339.019 346.527C338.691 346.527 338.414 340.304 337.759 332.619C337.12 327.971 337.12 323.258 337.759 318.61C338.413 323.222 338.833 327.864 339.019 332.518C339.674 337.165 339.674 341.88 339.019 346.527Z" fill="white"/>
<path fill-rule="evenodd" clip-rule="evenodd" d="M387.363 285.957L379.635 288.123L380.567 292.129L388.631 289.632C388.684 289.646 388.738 289.658 388.793 289.669C389.249 289.756 389.721 289.706 390.148 289.525C390.482 289.383 390.777 289.167 391.012 288.894L399.438 286.284L398.33 282.883L390.099 285.19C389.827 285.081 389.533 285.024 389.234 285.024C388.77 285.024 388.316 285.162 387.93 285.421C387.711 285.567 387.52 285.749 387.363 285.957Z" fill="url(#paint3_linear)"/>
<path fill-rule="evenodd" clip-rule="evenodd" d="M314.535 228.403C315.212 228.392 315.716 228.384 315.814 228.157C315.99 227.855 314.982 227.049 313.294 227.175C311.606 227.301 310.775 228.283 310.775 228.611C310.775 228.835 311.379 228.74 312.157 228.617L312.157 228.617C312.513 228.561 312.906 228.499 313.294 228.46C313.734 228.415 314.16 228.408 314.535 228.403ZM296.01 231.282C296.01 231.508 295.532 231.589 294.891 231.698C294.532 231.759 294.123 231.828 293.717 231.937C293.326 232.041 292.961 232.169 292.641 232.282C292.032 232.497 291.581 232.656 291.399 232.491C291.122 232.239 291.827 231.08 293.39 230.677C294.952 230.274 296.136 230.979 296.01 231.282ZM305.131 252.446C304.702 252.396 304.425 252.093 304.425 252.093C304.375 252.093 304.249 252.572 304.979 252.925C305.71 253.278 306.894 252.572 307.197 251.438C307.535 250.218 307.655 248.946 307.549 247.684C307.524 247.197 307.491 246.713 307.457 246.228L307.457 246.228C307.39 245.26 307.323 244.291 307.323 243.3C307.305 239.506 306.849 235.727 305.962 232.038C305.54 235.805 305.54 239.608 305.962 243.376C305.999 243.817 306.042 244.251 306.085 244.681L306.085 244.682L306.085 244.682L306.085 244.682C306.189 245.726 306.29 246.743 306.29 247.76C306.466 248.887 306.466 250.034 306.29 251.161C306.138 252.068 305.559 252.496 305.131 252.446ZM309.162 272.502C311.052 271.444 311.858 270.436 311.858 270.31C308.47 272.009 304.779 273.02 300.999 273.283C297.213 273.184 293.487 272.327 290.038 270.763C289.938 270.889 290.895 271.847 292.81 272.855C295.36 274.147 298.191 274.788 301.049 274.719C303.896 274.669 306.685 273.907 309.162 272.502ZM307.373 256.729C307.524 256.729 307.222 257.561 306.189 258.266C305.519 258.728 304.752 259.031 303.948 259.153C303.143 259.274 302.321 259.211 301.544 258.969C300.768 258.726 300.056 258.31 299.464 257.751C298.872 257.193 298.414 256.508 298.126 255.747C297.698 254.562 297.899 253.807 298.126 253.807C298.253 253.807 298.348 254.01 298.503 254.344L298.503 254.344L298.503 254.344L298.503 254.344L298.503 254.344C298.627 254.608 298.788 254.954 299.033 255.344C299.675 256.506 300.736 257.381 302 257.788C303.264 258.195 304.636 258.105 305.836 257.536C306.168 257.356 306.446 257.179 306.672 257.036L306.672 257.036L306.672 257.035L306.672 257.035C307.047 256.798 307.279 256.651 307.373 256.729ZM276.786 253.63C277.793 253.933 278.348 253.655 278.348 253.504C278.362 253.392 278.187 253.31 277.937 253.195C277.74 253.103 277.497 252.991 277.264 252.824C277.107 252.731 276.97 252.607 276.862 252.46C276.754 252.313 276.676 252.145 276.634 251.967C276.559 251.589 276.66 251.211 276.912 251.211C276.979 251.18 277.052 251.164 277.126 251.164C277.2 251.164 277.273 251.18 277.34 251.211L278.474 250.632C277.592 248.868 276.786 247.634 276.508 247.76C276.301 247.854 276.446 248.666 276.838 249.85C276.708 249.868 276.581 249.902 276.458 249.952C276.215 250.05 275.997 250.2 275.818 250.391C275.64 250.583 275.506 250.811 275.425 251.06C275.283 251.468 275.283 251.912 275.425 252.32C275.538 252.627 275.719 252.904 275.955 253.131C276.191 253.358 276.475 253.529 276.786 253.63ZM315.814 236.069C315.511 236.245 314.907 235.918 314.302 235.263C313.697 234.607 313.47 233.801 313.798 233.6C314.125 233.398 314.705 233.751 315.284 234.406C315.864 235.061 316.141 235.867 315.814 236.069ZM297.269 237.656C297.874 238.311 298.479 238.639 298.781 238.462C299.109 238.261 298.832 237.455 298.252 236.799C297.673 236.144 297.093 235.792 296.766 235.993C296.438 236.195 296.665 237.001 297.269 237.656Z" fill="url(#paint4_linear)"/>
<path d="M139.84 486.962C154.02 429.405 118.855 371.249 61.2973 357.069C3.73941 342.889 -54.4158 378.054 -68.596 435.611C-82.7762 493.169 -47.6116 551.325 9.9463 565.505C67.5042 579.685 125.659 544.52 139.84 486.962Z" fill="white" fill-opacity="0.3"/>
<path d="M726.894 141.129C730.643 125.912 721.346 110.537 706.129 106.788C690.912 103.039 675.537 112.336 671.788 127.553C668.039 142.77 677.336 158.145 692.553 161.894C707.77 165.643 723.145 156.346 726.894 141.129Z" fill="white" fill-opacity="0.3"/>
<path d="M174.894 41.1289C178.643 25.9119 169.346 10.5369 154.129 6.78802C138.912 3.0391 123.537 12.3358 119.788 27.5528C116.039 42.7698 125.336 58.1447 140.553 61.8936C155.77 65.6426 171.145 56.3459 174.894 41.1289Z" fill="white" fill-opacity="0.3"/>
<defs>
<linearGradient id="paint0_linear" x1="428.023" y1="16.664" x2="468.596" y2="16.664" gradientUnits="userSpaceOnUse">
<stop stop-color="#36D1DC"/>
<stop offset="1" stop-color="#5B86E5"/>
</linearGradient>
<linearGradient id="paint1_linear" x1="385.556" y1="85.7909" x2="496.69" y2="86.4833" gradientUnits="userSpaceOnUse">
<stop stop-color="#36D1DC"/>
<stop offset="1" stop-color="#5B86E5"/>
</linearGradient>
<linearGradient id="paint2_linear" x1="247.357" y1="284.061" x2="358.294" y2="284.061" gradientUnits="userSpaceOnUse">
<stop stop-color="#36D1DC"/>
<stop offset="1" stop-color="#5B86E5"/>
</linearGradient>
<linearGradient id="paint3_linear" x1="379.635" y1="282.883" x2="399.438" y2="282.883" gradientUnits="userSpaceOnUse">
<stop stop-color="#36D1DC"/>
<stop offset="1" stop-color="#5B86E5"/>
</linearGradient>
<linearGradient id="paint4_linear" x1="275.318" y1="227.161" x2="315.953" y2="227.161" gradientUnits="userSpaceOnUse">
<stop stop-color="#36D1DC"/>
<stop offset="1" stop-color="#5B86E5"/>
</linearGradient>
</defs>
</svg>
