<svg width="72" height="72" viewBox="0 0 72 72" fill="none" xmlns="http://www.w3.org/2000/svg">
<rect width="72" height="72" rx="36" fill="url(#paint0_linear)"/>
<g clip-path="url(#clip0)">
<path d="M27.8477 33.3543L27.8462 33.3797C27.7477 35.1059 28.7146 36.723 30.3102 37.4982L30.3266 37.5062C30.8891 37.7753 31.3502 38.219 31.6411 38.7706L31.6477 38.7826C32.4516 40.3135 34.1145 41.2415 35.8873 41.1484L35.9142 41.1469C36.5571 41.1109 37.1953 41.2768 37.7392 41.6215C39.2403 42.5604 41.1458 42.5604 42.6469 41.6215C43.1909 41.2768 43.829 41.1109 44.4719 41.1469L44.4988 41.1484C46.2687 41.2422 47.9337 40.3135 48.7395 38.7801L48.7435 38.7717C49.0355 38.2186 49.4977 37.7742 50.0621 37.5048L50.0752 37.4982C51.6708 36.7226 52.6381 35.1059 52.5392 33.3794L52.5377 33.3554C52.505 32.7474 52.6737 32.1456 53.0184 31.6434C54.0108 30.1961 54.0108 28.2878 53.0188 26.8401C52.6744 26.3383 52.505 25.7369 52.5377 25.1289L52.5392 25.1034C52.6381 23.3769 51.6708 21.7602 50.0737 20.9842L50.0592 20.9769C49.4977 20.7085 49.0377 20.2671 48.7465 19.7169L48.7381 19.7005C47.9337 18.1696 46.2687 17.242 44.4988 17.3347L44.4716 17.3362C43.829 17.3722 43.1909 17.2064 42.6472 16.8616H42.6465C41.1454 15.9227 39.24 15.9227 37.7389 16.8616C37.1949 17.206 36.5567 17.3718 35.9138 17.3358L35.8869 17.3344C34.1167 17.2406 32.452 18.1693 31.648 19.6998L31.6418 19.7111C31.3506 20.2638 30.8891 20.7078 30.3258 20.9773L30.3106 20.9845C28.7149 21.7598 27.7477 23.3769 27.8466 25.1034L27.848 25.1274C27.8808 25.7354 27.712 26.3372 27.3673 26.839C26.375 28.2867 26.375 30.1954 27.3673 31.6426C27.7117 32.1445 27.8808 32.7463 27.8477 33.3543ZM28.5931 27.6849C29.1251 26.9103 29.3858 25.9816 29.3349 25.0434L29.3335 25.018C29.2811 23.874 29.9233 22.8114 30.96 22.3252L30.9727 22.3191C31.8233 21.9118 32.5196 21.2413 32.9589 20.4071L32.9662 20.3933C33.5004 19.3758 34.6193 18.7591 35.8076 18.8224L35.8338 18.8235C36.7847 18.8769 37.7283 18.6318 38.5327 18.122C39.5483 17.4867 40.837 17.4867 41.8527 18.122C42.657 18.6311 43.6007 18.8765 44.5512 18.8238L44.5774 18.8224C45.7716 18.7598 46.885 19.3758 47.4177 20.3904L47.4276 20.4089C47.8668 21.242 48.5625 21.9114 49.4119 22.3183L49.4243 22.3245C50.4774 22.8365 51.1166 23.8936 51.0523 25.0183L51.0508 25.0449C50.9999 25.983 51.261 26.9114 51.793 27.6859C52.4359 28.6238 52.4355 29.8601 51.7923 30.7976C51.2606 31.5725 50.9999 32.5012 51.0508 33.4394L51.0523 33.4645C51.1166 34.5892 50.4774 35.6466 49.4239 36.159L49.413 36.1641C48.5617 36.5721 47.8646 37.2433 47.425 38.079L47.4196 38.0899C46.885 39.1073 45.7679 39.7244 44.5778 39.6608L44.5519 39.6593C43.601 39.6062 42.657 39.8517 41.8523 40.3611C40.837 40.996 39.5483 40.996 38.5331 40.3611C37.8014 39.8975 36.9527 39.6517 36.0865 39.6524C36.0025 39.6524 35.9182 39.6546 35.8338 39.6593L35.8076 39.6604C34.6349 39.735 33.5255 39.1211 32.9651 38.0881L32.9575 38.0739C32.5189 37.2412 31.8237 36.5721 30.9746 36.1652L30.9607 36.1583C29.9073 35.6463 29.268 34.5888 29.3328 33.4645L29.3342 33.4379C29.3848 32.4997 29.1237 31.571 28.592 30.7968C27.9495 29.859 27.9499 28.6227 28.5931 27.6856V27.6849Z" fill="white"/>
<path d="M35.3877 36.9404C35.7364 37.1583 36.1957 37.0517 36.4135 36.703L45.2356 22.57C45.3796 22.3442 45.3916 22.0584 45.2665 21.8216C45.1414 21.5846 44.8985 21.4333 44.6309 21.4249C44.3633 21.4166 44.1116 21.5526 43.972 21.7813L35.1502 35.9143C34.9324 36.2634 35.0386 36.7226 35.3877 36.9404Z" fill="white"/>
<path d="M36.1784 29.2783C37.9918 29.2783 39.4674 27.5957 39.4674 25.5277C39.4674 23.4598 37.9918 21.7776 36.1784 21.7776C34.3649 21.7776 32.8896 23.4598 32.8896 25.5277C32.8896 27.5957 34.3649 29.2783 36.1784 29.2783ZM36.1784 23.267C37.1707 23.267 37.978 24.2812 37.978 25.5277C37.978 26.7743 37.1707 27.7888 36.1784 27.7888C35.1864 27.7888 34.3791 26.7739 34.3791 25.5277C34.3791 24.2816 35.1864 23.267 36.1784 23.267Z" fill="white"/>
<path d="M40.9189 32.956C40.9189 35.024 42.3942 36.7061 44.2076 36.7061C46.0211 36.7061 47.4967 35.0236 47.4967 32.956C47.4967 30.8887 46.0215 29.2058 44.208 29.2058C42.3942 29.2058 40.9189 30.8876 40.9189 32.956ZM46.0073 32.956C46.0073 34.2025 45.2 35.2167 44.2076 35.2167C43.2157 35.2167 42.4084 34.2025 42.4084 32.956C42.4084 31.7094 43.2157 30.6953 44.2076 30.6953C45.2 30.6953 46.0073 31.7087 46.0073 32.956Z" fill="white"/>
<path d="M55.9033 45.3224C54.9172 43.5722 52.7303 42.9057 50.9357 43.8082L45.1019 46.5646C44.2965 45.0668 42.7514 44.1133 41.0511 44.0653L35.6656 43.917C34.8129 43.8926 33.9762 43.6762 33.218 43.285L32.67 43.001C29.8642 41.5384 26.5199 41.5421 23.717 43.0104L23.7512 41.769C23.7624 41.3577 23.4384 41.0152 23.0272 41.0039L17.1217 40.8413C16.7105 40.8301 16.3683 41.1541 16.357 41.5653L16.0003 54.5249C15.989 54.9362 16.313 55.2787 16.7243 55.29L22.6297 55.4525H22.6504C23.0537 55.4522 23.3835 55.1311 23.3948 54.7282L23.4115 54.1082L24.9457 53.2867C25.5479 52.9627 26.2522 52.8856 26.91 53.0718L36.0711 55.6431C36.0871 55.6478 36.1031 55.6514 36.1194 55.6551C36.7816 55.7936 37.4565 55.8631 38.1333 55.8627C39.566 55.8634 40.982 55.5547 42.2841 54.9569C42.3161 54.9423 42.347 54.9256 42.3765 54.9067L55.6593 46.3144C55.9906 46.1006 56.0975 45.6653 55.9033 45.3224ZM17.5097 53.8213L17.8254 42.3512L22.2421 42.4726L21.9261 53.9431L17.5097 53.8213ZM41.6129 53.626C39.9951 54.3562 38.1882 54.5576 36.4493 54.202L27.3126 51.638C26.2846 51.3471 25.1835 51.4678 24.2428 51.9736L23.4588 52.3933L23.669 44.7668C26.153 43.1144 29.3391 42.9446 31.9849 44.3231L32.5329 44.6071C33.4907 45.1017 34.5475 45.3748 35.6249 45.4057L41.0103 45.554C42.523 45.5973 43.8078 46.6744 44.1147 48.1566L36.0929 47.9358C35.6816 47.9246 35.3395 48.2486 35.3282 48.6598C35.3169 49.0711 35.6409 49.4137 36.0522 49.4249L44.9049 49.6686H44.9259C45.3288 49.6682 45.6587 49.3471 45.6699 48.9442C45.679 48.6206 45.6547 48.2966 45.5979 47.978L51.5805 45.1508L51.5979 45.1424C52.4466 44.7126 53.4732 44.8562 54.171 45.5024L41.6129 53.626Z" fill="white"/>
</g>
<defs>
<linearGradient id="paint0_linear" x1="0" y1="0" x2="71.9996" y2="0.169583" gradientUnits="userSpaceOnUse">
<stop stop-color="#36D1DC"/>
<stop offset="1" stop-color="#5B86E5"/>
</linearGradient>
<clipPath id="clip0">
<rect width="40" height="40" fill="white" transform="translate(16 16)"/>
</clipPath>
</defs>
</svg>
