<svg width="72" height="72" viewBox="0 0 72 72" fill="none" xmlns="http://www.w3.org/2000/svg">
<rect width="72" height="72" rx="36" fill="url(#paint0_linear)"/>
<path d="M55.2681 49.3315H54.3987V34.9741C54.3987 34.6502 54.1362 34.3878 53.8123 34.3878C53.4884 34.3878 53.226 34.6502 53.226 34.9741V49.3315H23.9454C23.6215 49.3315 23.359 49.594 23.359 49.9179C23.359 50.2418 23.6215 50.5043 23.9454 50.5043H54.8273V51.0477C54.8273 51.9596 54.0854 52.7015 53.1736 52.7015H18.8264C17.9146 52.7015 17.1727 51.9596 17.1727 51.0477V50.5043H21.4466C21.7705 50.5043 22.0329 50.2418 22.0329 49.9179C22.0329 49.594 21.7705 49.3315 21.4466 49.3315H18.774V28.9192C18.774 27.9481 19.564 27.1581 20.5351 27.1581H27.2042C27.5281 27.1581 27.7906 26.8956 27.7906 26.5717C27.7906 26.2478 27.5281 25.9854 27.2042 25.9854H20.5352C18.9175 25.9854 17.6014 27.3015 17.6014 28.9192V49.3315H16.7319C16.3284 49.3315 16 49.6599 16 50.0635V51.0477C16 52.6062 17.2679 53.8742 18.8264 53.8742H53.1735C54.7321 53.8742 55.9999 52.6061 55.9999 51.0477V50.0635C56 49.6599 55.6716 49.3315 55.2681 49.3315Z" fill="white"/>
<path d="M44.874 27.1581H51.4648C52.4359 27.1581 53.2259 27.948 53.2259 28.9191V32.4752C53.2259 32.7991 53.4884 33.0616 53.8123 33.0616C54.1362 33.0616 54.3987 32.7991 54.3987 32.4752V28.9191C54.3987 27.3015 53.0826 25.9854 51.4648 25.9854H44.874C44.5501 25.9854 44.2876 26.2478 44.2876 26.5717C44.2876 26.8956 44.5501 27.1581 44.874 27.1581Z" fill="white"/>
<path d="M19.9468 28.9192V47.5725C19.9468 47.8964 20.2092 48.1589 20.5331 48.1589H51.4666C51.6221 48.1589 51.7713 48.0971 51.8813 47.9871C51.9912 47.8772 52.053 47.728 52.053 47.5724L52.0512 28.9171C52.0512 28.5933 51.7887 28.3308 51.4648 28.3308L44.1962 28.3314C43.8724 28.3314 43.6099 28.5939 43.6099 28.9178C43.6099 29.2416 43.8724 29.5041 44.1963 29.5041L50.8786 29.5036L50.8802 46.9862H21.1195V29.5056L27.8824 29.5051C28.2063 29.5051 28.4687 29.2426 28.4687 28.9187C28.4687 28.5948 28.2062 28.3324 27.8823 28.3324L20.5331 28.3328C20.2093 28.3328 19.9468 28.5954 19.9468 28.9192Z" fill="white"/>
<path d="M36.0393 32.4611C39.9916 32.4611 43.2069 29.2457 43.2069 25.2934C43.2069 24.1505 42.9441 23.056 42.4255 22.0402C42.2783 21.7518 41.9253 21.6374 41.6367 21.7845C41.3483 21.9317 41.2338 22.2849 41.381 22.5734C41.8145 23.4224 42.0341 24.3376 42.0341 25.2934C42.0341 28.599 39.3449 31.2884 36.0392 31.2884C32.7336 31.2884 30.0443 28.5991 30.0443 25.2934C30.0443 21.9878 32.7336 19.2984 36.0392 19.2984C37.482 19.2984 38.877 19.82 39.9672 20.7669C40.2117 20.9793 40.5821 20.9534 40.7943 20.7088C41.0068 20.4643 40.9807 20.0939 40.7362 19.8816C39.4326 18.7493 37.7645 18.1257 36.0392 18.1257C32.0869 18.1257 28.8716 21.3412 28.8716 25.2934C28.8716 29.2457 32.0871 32.4611 36.0393 32.4611Z" fill="white"/>
<path d="M39.2387 21.734C38.9377 21.4332 38.4478 21.4335 38.1466 21.7342L34.9582 24.9227L33.8529 23.8174C33.5518 23.5166 33.062 23.5168 32.7608 23.8176L31.3656 25.2129C31.2195 25.3587 31.1392 25.5529 31.1392 25.7592C31.1392 25.9655 31.2195 26.1596 31.3654 26.3053L33.7144 28.6542C34.0465 28.9864 34.4882 29.1695 34.9582 29.1695C35.4279 29.1695 35.8697 28.9865 36.2021 28.6542L40.6341 24.2221C40.7801 24.0763 40.8605 23.8821 40.8605 23.6758C40.8605 23.4695 40.7801 23.2754 40.6343 23.1298L39.2387 21.734ZM35.3729 27.825C35.2621 27.9358 35.1147 27.9967 34.9582 27.9967C34.8016 27.9967 34.6543 27.9358 34.5436 27.825L32.4778 25.7592L33.307 24.93L34.4122 26.0353C34.7133 26.3361 35.2031 26.3359 35.5043 26.0352L38.6927 22.8466L39.5219 23.6758L35.3729 27.825Z" fill="white"/>
<path d="M30.2644 45.0985H41.814C42.5819 45.0985 43.2068 44.4737 43.2068 43.7057V41.9329C43.2068 41.1649 42.5819 40.54 41.814 40.54H33.9591C33.6352 40.54 33.3728 40.8025 33.3728 41.1264C33.3728 41.4503 33.6352 41.7128 33.9591 41.7128H41.814C41.9354 41.7128 42.034 41.8116 42.034 41.9329V43.7057C42.034 43.8271 41.9353 43.9258 41.814 43.9258H30.2644C30.143 43.9258 30.0443 43.827 30.0443 43.7057V41.9329C30.0443 41.8115 30.143 41.7128 30.2644 41.7128H31.4603C31.7842 41.7128 32.0467 41.4503 32.0467 41.1264C32.0467 40.8025 31.7842 40.54 31.4603 40.54H30.2644C29.4964 40.54 28.8716 41.1649 28.8716 41.9329V43.7057C28.8716 44.4737 29.4964 45.0985 30.2644 45.0985Z" fill="white"/>
<path d="M30.323 35.9239C30.323 33.8703 28.6522 32.1995 26.5985 32.1995C24.5448 32.1995 22.874 33.8703 22.874 35.9239C22.874 37.9776 24.5448 39.6484 26.5985 39.6484C28.6522 39.6483 30.323 37.9775 30.323 35.9239ZM26.5985 38.4756C25.1915 38.4756 24.0467 37.3309 24.0467 35.9239C24.0467 34.5168 25.1915 33.3721 26.5985 33.3721C28.0055 33.3721 29.1503 34.5168 29.1503 35.9239C29.1503 37.3309 28.0056 38.4756 26.5985 38.4756Z" fill="white"/>
<path d="M32.7094 35.5604H33.6178C33.9417 35.5604 34.2042 35.298 34.2042 34.9741C34.2042 34.6501 33.9417 34.3877 33.6178 34.3877H32.7094C32.3855 34.3877 32.123 34.6501 32.123 34.9741C32.123 35.298 32.3856 35.5604 32.7094 35.5604Z" fill="white"/>
<path d="M47.9874 34.3877H35.9999C35.676 34.3877 35.4136 34.6501 35.4136 34.9741C35.4136 35.298 35.676 35.5604 35.9999 35.5604H47.9873C48.3112 35.5604 48.5736 35.298 48.5736 34.9741C48.5736 34.6501 48.3112 34.3877 47.9874 34.3877Z" fill="white"/>
<path d="M48.5734 37.4103C48.5734 37.0864 48.3109 36.824 47.987 36.824H32.7094C32.3855 36.824 32.123 37.0864 32.123 37.4103C32.123 37.7342 32.3855 37.9967 32.7094 37.9967H47.9869C48.3108 37.9967 48.5734 37.7342 48.5734 37.4103Z" fill="white"/>
<defs>
<linearGradient id="paint0_linear" x1="0" y1="0" x2="71.9996" y2="0.169583" gradientUnits="userSpaceOnUse">
<stop stop-color="#36D1DC"/>
<stop offset="1" stop-color="#5B86E5"/>
</linearGradient>
</defs>
</svg>
