<svg width="48" height="48" viewBox="0 0 48 48" fill="none" xmlns="http://www.w3.org/2000/svg">
<rect width="48" height="48" rx="24" fill="url(#paint0_linear)"/>
<path d="M35.5425 32.8322H34.9992V23.8588C34.9992 23.6564 34.8351 23.4924 34.6327 23.4924C34.4303 23.4924 34.2662 23.6564 34.2662 23.8588V32.8322H15.9659C15.7634 32.8322 15.5994 32.9962 15.5994 33.1987C15.5994 33.4011 15.7634 33.5652 15.9659 33.5652H35.2671V33.9048C35.2671 34.4747 34.8034 34.9384 34.2335 34.9384H12.7665C12.1966 34.9384 11.7329 34.4747 11.7329 33.9048V33.5652H14.4041C14.6065 33.5652 14.7706 33.4011 14.7706 33.1987C14.7706 32.9962 14.6065 32.8322 14.4041 32.8322H12.7338V20.0745C12.7338 19.4676 13.2275 18.9738 13.8345 18.9738H18.0026C18.2051 18.9738 18.3691 18.8098 18.3691 18.6073C18.3691 18.4049 18.2051 18.2408 18.0026 18.2408H13.8345C12.8234 18.2408 12.0009 19.0634 12.0009 20.0745V32.8322H11.4575C11.2052 32.8322 11 33.0374 11 33.2897V33.9048C11 34.8789 11.7925 35.6714 12.7665 35.6714H34.2334C35.2075 35.6714 35.9999 34.8788 35.9999 33.9048V33.2897C36 33.0374 35.7948 32.8322 35.5425 32.8322Z" fill="white"/>
<path d="M29.0462 18.9738H33.1655C33.7724 18.9738 34.2662 19.4675 34.2662 20.0744V22.297C34.2662 22.4995 34.4302 22.6635 34.6326 22.6635C34.8351 22.6635 34.9991 22.4995 34.9991 22.297V20.0744C34.9991 19.0634 34.1765 18.2408 33.1655 18.2408H29.0462C28.8437 18.2408 28.6797 18.4049 28.6797 18.6073C28.6797 18.8098 28.8438 18.9738 29.0462 18.9738Z" fill="white"/>
<path d="M13.4668 20.0745V31.7328C13.4668 31.9353 13.6308 32.0993 13.8333 32.0993H33.1667C33.2639 32.0993 33.3571 32.0607 33.4259 31.992C33.4946 31.9233 33.5332 31.83 33.5332 31.7328L33.5321 20.0732C33.5321 19.8708 33.368 19.7068 33.1655 19.7068L28.6227 19.7071C28.4203 19.7071 28.2563 19.8712 28.2563 20.0737C28.2563 20.276 28.4203 20.4401 28.6228 20.4401L32.7992 20.4398L32.8002 31.3664H14.1997V20.441L18.4266 20.4407C18.629 20.4407 18.793 20.2766 18.793 20.0742C18.793 19.8718 18.6289 19.7078 18.4265 19.7078L13.8333 19.7081C13.6309 19.7081 13.4668 19.8721 13.4668 20.0745Z" fill="white"/>
<path d="M23.5247 22.2882C25.9949 22.2882 28.0045 20.2786 28.0045 17.8084C28.0045 17.0941 27.8402 16.41 27.5161 15.7751C27.4241 15.5949 27.2035 15.5234 27.0231 15.6154C26.8429 15.7074 26.7713 15.9281 26.8633 16.1084C27.1342 16.639 27.2715 17.211 27.2715 17.8084C27.2715 19.8744 25.5907 21.5553 23.5247 21.5553C21.4587 21.5553 19.7779 19.8745 19.7779 17.8084C19.7779 15.7424 21.4587 14.0616 23.5247 14.0616C24.4264 14.0616 25.2983 14.3875 25.9797 14.9794C26.1325 15.1121 26.364 15.0959 26.4966 14.943C26.6294 14.7902 26.6131 14.5587 26.4603 14.426C25.6456 13.7183 24.603 13.3286 23.5247 13.3286C21.0545 13.3286 19.0449 15.3383 19.0449 17.8084C19.0449 20.2786 21.0546 22.2882 23.5247 22.2882Z" fill="white"/>
<path d="M25.5246 15.5838C25.3365 15.3958 25.0303 15.396 24.8421 15.5839L22.8493 17.5767L22.1585 16.8859C21.9703 16.6979 21.6642 16.698 21.4759 16.8861L20.6039 17.7581C20.5126 17.8492 20.4624 17.9706 20.4624 18.0995C20.4624 18.2285 20.5126 18.3498 20.6038 18.4408L22.0719 19.9089C22.2795 20.1166 22.5556 20.2309 22.8493 20.2309C23.1429 20.2309 23.419 20.1166 23.6267 19.9089L26.3967 17.1388C26.488 17.0477 26.5382 16.9264 26.5382 16.7974C26.5382 16.6685 26.488 16.5471 26.3968 16.4562L25.5246 15.5838ZM23.1085 19.3906C23.0393 19.4599 22.9471 19.498 22.8493 19.498C22.7514 19.498 22.6594 19.4599 22.5902 19.3906L21.299 18.0995L21.8173 17.5813L22.5081 18.2721C22.6962 18.4601 23.0024 18.46 23.1906 18.272L25.1834 16.2792L25.7016 16.7974L23.1085 19.3906Z" fill="white"/>
<path d="M19.9154 30.1867H27.1339C27.6139 30.1867 28.0044 29.7962 28.0044 29.3162V28.2082C28.0044 27.7282 27.6139 27.3376 27.1339 27.3376H22.2246C22.0222 27.3376 21.8582 27.5017 21.8582 27.7041C21.8582 27.9066 22.0222 28.0706 22.2246 28.0706H27.1339C27.2098 28.0706 27.2715 28.1324 27.2715 28.2082V29.3162C27.2715 29.392 27.2097 29.4538 27.1339 29.4538H19.9154C19.8395 29.4538 19.7779 29.392 19.7779 29.3162V28.2082C19.7779 28.1323 19.8396 28.0706 19.9154 28.0706H20.6629C20.8653 28.0706 21.0293 27.9066 21.0293 27.7041C21.0293 27.5017 20.8653 27.3376 20.6629 27.3376H19.9154C19.4354 27.3376 19.0449 27.7282 19.0449 28.2082V29.3162C19.0449 29.7962 19.4354 30.1867 19.9154 30.1867Z" fill="white"/>
<path d="M19.952 24.4524C19.952 23.1689 18.9078 22.1246 17.6242 22.1246C16.3406 22.1246 15.2964 23.1689 15.2964 24.4524C15.2964 25.736 16.3406 26.7802 17.6242 26.7802C18.9078 26.7802 19.952 25.7359 19.952 24.4524ZM17.6242 26.0472C16.7448 26.0472 16.0293 25.3318 16.0293 24.4524C16.0293 23.573 16.7448 22.8575 17.6242 22.8575C18.5036 22.8575 19.2191 23.573 19.2191 24.4524C19.2191 25.3318 18.5036 26.0472 17.6242 26.0472Z" fill="white"/>
<path d="M21.4436 24.2254H22.0114C22.2138 24.2254 22.3778 24.0613 22.3778 23.8589C22.3778 23.6565 22.2138 23.4924 22.0114 23.4924H21.4436C21.2412 23.4924 21.0771 23.6565 21.0771 23.8589C21.0771 24.0613 21.2412 24.2254 21.4436 24.2254Z" fill="white"/>
<path d="M30.9919 23.4924H23.4998C23.2973 23.4924 23.1333 23.6565 23.1333 23.8589C23.1333 24.0613 23.2973 24.2254 23.4998 24.2254H30.9919C31.1943 24.2254 31.3583 24.0613 31.3583 23.8589C31.3583 23.6565 31.1943 23.4924 30.9919 23.4924Z" fill="white"/>
<path d="M31.3586 25.3815C31.3586 25.179 31.1946 25.015 30.9921 25.015H21.4436C21.2412 25.015 21.0771 25.179 21.0771 25.3815C21.0771 25.5839 21.2412 25.748 21.4436 25.748H30.9921C31.1945 25.748 31.3586 25.5839 31.3586 25.3815Z" fill="white"/>
<defs>
<linearGradient id="paint0_linear" x1="0" y1="0" x2="47.9997" y2="0.113056" gradientUnits="userSpaceOnUse">
<stop stop-color="#36D1DC"/>
<stop offset="1" stop-color="#5B86E5"/>
</linearGradient>
</defs>
</svg>
