<svg width="72" height="72" viewBox="0 0 72 72" fill="none" xmlns="http://www.w3.org/2000/svg">
<rect width="72" height="72" rx="36" fill="url(#paint0_linear)"/>
<path d="M39.75 23.5H24.75C24.06 23.5 23.5 24.06 23.5 24.75C23.5 25.44 24.06 26 24.75 26H39.75C40.44 26 41 25.44 41 24.75C41 24.06 40.44 23.5 39.75 23.5Z" fill="white"/>
<path d="M34.75 28.5H24.75C24.06 28.5 23.5 29.06 23.5 29.75C23.5 30.44 24.06 31 24.75 31H34.75C35.44 31 36 30.44 36 29.75C36 29.06 35.44 28.5 34.75 28.5Z" fill="white"/>
<path d="M43.5 16H21C18.2425 16 16 18.2425 16 21V46C16 46.485 16.28 46.9275 16.72 47.1325C16.8875 47.21 17.07 47.25 17.25 47.25C17.5375 47.25 17.8225 47.15 18.05 46.96L25.2025 41H43.5C46.2575 41 48.5 38.7575 48.5 36V21C48.5 18.2425 46.2575 16 43.5 16ZM46 36C46 37.3775 44.88 38.5 43.5 38.5H24.75C24.4575 38.5 24.175 38.6025 23.95 38.79L18.5 43.3325V21C18.5 19.6225 19.62 18.5 21 18.5H43.5C44.88 18.5 46 19.6225 46 21V36Z" fill="white"/>
<path d="M51 26C50.31 26 49.75 26.56 49.75 27.25C49.75 27.94 50.31 28.5 51 28.5C52.38 28.5 53.5 29.6225 53.5 31V52.1475L49.28 48.7725C49.06 48.5975 48.7825 48.5 48.5 48.5H31C29.62 48.5 28.5 47.3775 28.5 46V44.75C28.5 44.06 27.94 43.5 27.25 43.5C26.56 43.5 26 44.06 26 44.75V46C26 48.7575 28.2425 51 31 51H48.06L53.9675 55.7275C54.195 55.9075 54.4725 56 54.75 56C54.9325 56 55.1175 55.96 55.2925 55.8775C55.725 55.6675 56 55.23 56 54.75V31C56 28.2425 53.7575 26 51 26Z" fill="white"/>
<defs>
<linearGradient id="paint0_linear" x1="0" y1="0" x2="71.9996" y2="0.169583" gradientUnits="userSpaceOnUse">
<stop stop-color="#36D1DC"/>
<stop offset="1" stop-color="#5B86E5"/>
</linearGradient>
</defs>
</svg>
