<svg width="48" height="48" viewBox="0 0 48 48" fill="none" xmlns="http://www.w3.org/2000/svg">
<rect width="48" height="48" rx="24" fill="url(#paint0_linear)"/>
<path d="M25.8438 16.6875H16.4688C16.0375 16.6875 15.6875 17.0375 15.6875 17.4688C15.6875 17.9 16.0375 18.25 16.4688 18.25H25.8438C26.275 18.25 26.625 17.9 26.625 17.4688C26.625 17.0375 26.275 16.6875 25.8438 16.6875Z" fill="white"/>
<path d="M22.7188 19.8125H16.4688C16.0375 19.8125 15.6875 20.1625 15.6875 20.5938C15.6875 21.025 16.0375 21.375 16.4688 21.375H22.7188C23.15 21.375 23.5 21.025 23.5 20.5938C23.5 20.1625 23.15 19.8125 22.7188 19.8125Z" fill="white"/>
<path d="M28.1875 12H14.125C12.4016 12 11 13.4016 11 15.125V30.75C11 31.0531 11.175 31.3297 11.45 31.4578C11.5547 31.5063 11.6687 31.5312 11.7812 31.5312C11.9609 31.5312 12.1391 31.4688 12.2812 31.35L16.7516 27.625H28.1875C29.9109 27.625 31.3125 26.2234 31.3125 24.5V15.125C31.3125 13.4016 29.9109 12 28.1875 12ZM29.75 24.5C29.75 25.3609 29.05 26.0625 28.1875 26.0625H16.4688C16.2859 26.0625 16.1094 26.1266 15.9688 26.2438L12.5625 29.0828V15.125C12.5625 14.2641 13.2625 13.5625 14.125 13.5625H28.1875C29.05 13.5625 29.75 14.2641 29.75 15.125V24.5Z" fill="white"/>
<path d="M32.875 18.25C32.4438 18.25 32.0938 18.6 32.0938 19.0312C32.0938 19.4625 32.4438 19.8125 32.875 19.8125C33.7375 19.8125 34.4375 20.5141 34.4375 21.375V34.5922L31.8 32.4828C31.6625 32.3734 31.4891 32.3125 31.3125 32.3125H20.375C19.5125 32.3125 18.8125 31.6109 18.8125 30.75V29.9688C18.8125 29.5375 18.4625 29.1875 18.0312 29.1875C17.6 29.1875 17.25 29.5375 17.25 29.9688V30.75C17.25 32.4734 18.6516 33.875 20.375 33.875H31.0375L34.7297 36.8297C34.8719 36.9422 35.0453 37 35.2188 37C35.3328 37 35.4484 36.975 35.5578 36.9234C35.8281 36.7922 36 36.5187 36 36.2188V21.375C36 19.6516 34.5984 18.25 32.875 18.25Z" fill="white"/>
<defs>
<linearGradient id="paint0_linear" x1="0" y1="0" x2="47.9997" y2="0.113056" gradientUnits="userSpaceOnUse">
<stop stop-color="#36D1DC"/>
<stop offset="1" stop-color="#5B86E5"/>
</linearGradient>
</defs>
</svg>
