<svg width="12" height="9" viewBox="0 0 12 9" fill="none" xmlns="http://www.w3.org/2000/svg">
<path d="M4.57144 9C4.48003 8.99971 4.38965 8.98062 4.30593 8.94392C4.22221 8.90722 4.14693 8.85369 4.08477 8.78667L0.844771 5.34C0.723655 5.21093 0.658774 5.03903 0.6644 4.86212C0.670026 4.68521 0.745699 4.51778 0.874771 4.39667C1.00384 4.27555 1.17574 4.21067 1.35265 4.2163C1.52956 4.22192 1.69699 4.2976 1.8181 4.42667L4.56477 7.35333L10.1714 1.22C10.2283 1.14915 10.2991 1.09068 10.3794 1.04818C10.4598 1.00568 10.5479 0.980044 10.6385 0.972854C10.7291 0.965665 10.8202 0.97707 10.9062 1.00637C10.9922 1.03567 11.0713 1.08224 11.1387 1.14323C11.2061 1.20422 11.2602 1.27834 11.2979 1.36103C11.3356 1.44372 11.356 1.53324 11.3578 1.62409C11.3596 1.71495 11.3428 1.80521 11.3085 1.88934C11.2741 1.97347 11.223 2.0497 11.1581 2.11333L5.06477 8.78C5.0032 8.84824 4.92818 8.90301 4.84443 8.94087C4.76068 8.97873 4.67001 8.99886 4.5781 9H4.57144Z" fill="white"/>
</svg>
