<svg width="24" height="24" viewBox="0 0 24 24" fill="none" xmlns="http://www.w3.org/2000/svg">
<path d="M17.0002 10.6402C16.9997 10.775 16.9719 10.9082 16.9187 11.0319C16.8654 11.1556 16.7877 11.2673 16.6902 11.3602L12.6902 15.2202C12.5033 15.4035 12.2519 15.5061 11.9902 15.5061C11.7284 15.5061 11.4771 15.4035 11.2902 15.2202L7.29019 11.2202C7.19695 11.127 7.12299 11.0163 7.07253 10.8945C7.02207 10.7727 6.99609 10.6421 6.99609 10.5102C6.99609 10.3784 7.02207 10.2478 7.07253 10.126C7.12299 10.0042 7.19695 9.89348 7.29019 9.80025C7.38342 9.70701 7.49411 9.63305 7.61594 9.58259C7.73776 9.53213 7.86833 9.50615 8.00019 9.50615C8.13204 9.50615 8.26261 9.53213 8.38443 9.58259C8.50626 9.63305 8.61695 9.70701 8.71019 9.80025L12.0002 13.1002L15.3002 9.92025C15.4875 9.73399 15.741 9.62945 16.0052 9.62945C16.2694 9.62945 16.5228 9.73399 16.7102 9.92025C16.8041 10.0149 16.8781 10.1273 16.9279 10.251C16.9777 10.3746 17.0023 10.507 17.0002 10.6402Z" fill="black"/>
</svg>
