<svg width="15" height="15" viewBox="0 0 15 15" fill="none" xmlns="http://www.w3.org/2000/svg">
<path d="M7.31052 1.21863C6.10569 1.21863 4.9279 1.5759 3.92612 2.24528C2.92433 2.91465 2.14353 3.86605 1.68246 4.97918C1.22139 6.09231 1.10075 7.31716 1.3358 8.49885C1.57086 9.68053 2.15104 10.766 3.00299 11.6179C3.85494 12.4699 4.94039 13.0501 6.12208 13.2851C7.30377 13.5202 8.52862 13.3995 9.64174 12.9385C10.7549 12.4774 11.7063 11.6966 12.3756 10.6948C13.045 9.69302 13.4023 8.51524 13.4023 7.3104C13.4023 6.51042 13.2447 5.71827 12.9386 4.97918C12.6324 4.24009 12.1837 3.56854 11.6181 3.00287C11.0524 2.43719 10.3808 1.98848 9.64174 1.68234C8.90266 1.3762 8.11051 1.21863 7.31052 1.21863ZM7.31052 12.1838C6.34665 12.1838 5.40443 11.898 4.603 11.3625C3.80157 10.827 3.17693 10.0659 2.80807 9.17538C2.43922 8.28488 2.34271 7.30499 2.53075 6.35964C2.71879 5.41429 3.18294 4.54593 3.8645 3.86437C4.54606 3.18281 5.41442 2.71867 6.35977 2.53062C7.30512 2.34258 8.285 2.43909 9.1755 2.80795C10.066 3.17681 10.8271 3.80144 11.3626 4.60287C11.8981 5.4043 12.1839 6.34653 12.1839 7.3104C12.1839 8.60291 11.6705 9.84248 10.7566 10.7564C9.84261 11.6704 8.60304 12.1838 7.31052 12.1838Z" fill="url(#paint0_linear)"/>
<path d="M9.7451 6.70117H7.91757V4.87364C7.91757 4.71208 7.85339 4.55713 7.73915 4.44289C7.62491 4.32865 7.46996 4.26447 7.3084 4.26447C7.14683 4.26447 6.99189 4.32865 6.87764 4.44289C6.7634 4.55713 6.69922 4.71208 6.69922 4.87364V7.31035C6.69922 7.47192 6.7634 7.62686 6.87764 7.74111C6.99189 7.85535 7.14683 7.91953 7.3084 7.91953H9.7451C9.90667 7.91953 10.0616 7.85535 10.1759 7.74111C10.2901 7.62686 10.3543 7.47192 10.3543 7.31035C10.3543 7.14879 10.2901 6.99384 10.1759 6.8796C10.0616 6.76536 9.90667 6.70117 9.7451 6.70117Z" fill="url(#paint1_linear)"/>
<defs>
<linearGradient id="paint0_linear" x1="1.21875" y1="1.21863" x2="13.4022" y2="1.24749" gradientUnits="userSpaceOnUse">
<stop stop-color="#36D1DC"/>
<stop offset="1" stop-color="#5B86E5"/>
</linearGradient>
<linearGradient id="paint1_linear" x1="6.69922" y1="4.26447" x2="10.3543" y2="4.26447" gradientUnits="userSpaceOnUse">
<stop stop-color="#36D1DC"/>
<stop offset="1" stop-color="#5B86E5"/>
</linearGradient>
</defs>
</svg>
