<svg width="15" height="16" viewBox="0 0 15 16" fill="none" xmlns="http://www.w3.org/2000/svg">
<path d="M8.87441 7.89367L14.7152 2.05267C15.0953 1.67274 15.0953 1.05844 14.7152 0.678504C14.3353 0.298572 13.721 0.298572 13.3411 0.678504L7.50007 6.5195L1.65925 0.678504C1.27914 0.298572 0.665016 0.298572 0.285083 0.678504C-0.0950277 1.05844 -0.0950277 1.67274 0.285083 2.05267L6.1259 7.89367L0.285083 13.7347C-0.0950277 14.1146 -0.0950277 14.7289 0.285083 15.1088C0.474427 15.2983 0.723385 15.3936 0.972165 15.3936C1.22095 15.3936 1.46973 15.2983 1.65925 15.1088L7.50007 9.26783L13.3411 15.1088C13.5306 15.2983 13.7794 15.3936 14.0281 15.3936C14.2769 15.3936 14.5257 15.2983 14.7152 15.1088C15.0953 14.7289 15.0953 14.1146 14.7152 13.7347L8.87441 7.89367Z" fill="#979696"/>
</svg>
