<svg width="48" height="48" viewBox="0 0 48 48" fill="none" xmlns="http://www.w3.org/2000/svg">
<rect width="48" height="48" rx="24" fill="url(#paint0_linear)"/>
<path d="M22.8737 19.6767H22.909C24.0396 19.5931 25.1619 19.4206 26.2655 19.1608C26.4837 19.1039 26.6149 18.8814 26.5592 18.6629C26.5035 18.4445 26.2818 18.312 26.063 18.3665C25.003 18.6148 23.9251 18.7793 22.8393 18.8583C22.6129 18.8678 22.4372 19.059 22.4467 19.2853C22.4562 19.5117 22.6474 19.6875 22.8737 19.678V19.6767Z" fill="white"/>
<path d="M13.049 17.123C13.2753 17.123 13.4588 16.9395 13.4588 16.7132C13.4588 16.4868 13.2753 16.3033 13.049 16.3033C12.8227 16.3033 12.6392 16.4868 12.6392 16.7132C12.6392 16.9395 12.8227 17.123 13.049 17.123Z" fill="white"/>
<path d="M13.049 17.9426C12.8227 17.9426 12.6392 18.1261 12.6392 18.3525V19.1721C12.6392 19.3985 12.8227 19.582 13.049 19.582C13.2753 19.582 13.4588 19.3985 13.4588 19.1721V18.3525C13.4588 18.1261 13.2753 17.9426 13.049 17.9426Z" fill="white"/>
<path d="M13.049 22.4509C13.2753 22.4509 13.4588 22.2674 13.4588 22.0411C13.4588 21.8147 13.2753 21.6312 13.049 21.6312C12.8227 21.6312 12.6392 21.8147 12.6392 22.0411C12.6392 22.2674 12.8227 22.4509 13.049 22.4509Z" fill="white"/>
<path d="M13.049 23.2705C12.8227 23.2705 12.6392 23.454 12.6392 23.6803V24.5C12.6392 24.7264 12.8227 24.9098 13.049 24.9098C13.2753 24.9098 13.4588 24.7264 13.4588 24.5V23.6803C13.4588 23.454 13.2753 23.2705 13.049 23.2705Z" fill="white"/>
<path d="M13.049 27.7788C13.2753 27.7788 13.4588 27.5953 13.4588 27.3689C13.4588 27.1426 13.2753 26.9591 13.049 26.9591C12.8227 26.9591 12.6392 27.1426 12.6392 27.3689C12.6392 27.5953 12.8227 27.7788 13.049 27.7788Z" fill="white"/>
<path d="M13.049 28.5984C12.8227 28.5984 12.6392 28.7819 12.6392 29.0082V29.8279C12.6392 30.0542 12.8227 30.2377 13.049 30.2377C13.2753 30.2377 13.4588 30.0542 13.4588 29.8279V29.0082C13.4588 28.7819 13.2753 28.5984 13.049 28.5984Z" fill="white"/>
<path d="M32.2775 27.5795C31.9111 25.4732 30.3032 23.8 28.2131 23.35V14.2541C28.2131 12.2283 19.9578 12.205 19.6066 12.205C19.2553 12.205 11 12.2283 11 14.2541V30.6476C11 31.4857 12.3861 32.0845 15.1156 32.4304C15.1045 32.5566 15.0984 32.6845 15.0984 32.8136C15.0984 35.0091 16.7574 36.7951 18.7963 36.7951H31.2816C33.6701 36.7951 35.6135 34.7004 35.6135 32.123C35.6706 30.024 34.2972 28.1535 32.2775 27.5795ZM27.3705 23.2705C25.7289 23.2837 24.204 24.1219 23.3131 25.5009C22.2628 25.2773 21.1669 25.5066 20.2943 26.1324C20.0689 26.1357 19.8402 26.1394 19.6066 26.1394C14.7787 26.1394 12.0246 25.3468 11.8197 24.8972V20.55C13.9135 21.6152 19.3234 21.6312 19.6066 21.6312C19.8898 21.6312 25.2996 21.6152 27.3934 20.55V23.2705C27.3857 23.2705 27.3783 23.2705 27.3705 23.2705ZM27.3934 19.5664C27.1992 20.0152 24.4447 20.8115 19.6066 20.8115C14.7553 20.8115 11.998 20.0107 11.8197 19.582V15.2222C13.9135 16.2873 19.3234 16.3033 19.6066 16.3033C19.8898 16.3033 25.2996 16.2873 27.3934 15.2222V19.5664ZM19.6066 13.0246C24.3873 13.0246 27.1352 13.8033 27.3869 14.2541C27.1352 14.705 24.3873 15.4836 19.6066 15.4836C14.7705 15.4836 12.0139 14.6873 11.8197 14.2775V14.2697C12.0139 13.8209 14.7705 13.0246 19.6066 13.0246ZM11.8197 30.6345V25.8779C13.7295 26.8496 18.3955 26.9484 19.4156 26.9591C18.9732 27.5088 18.6657 28.1544 18.5176 28.8443C16.9636 29.0087 15.6718 30.1142 15.2693 31.6242C12.6975 31.3004 11.9016 30.8009 11.8197 30.6345ZM31.2816 35.9754H18.7963C17.209 35.9754 15.918 34.557 15.918 32.8136C15.918 31.0701 17.209 29.6517 18.7963 29.6517H18.8553H18.8631C19.0677 29.6516 19.2408 29.5006 19.2689 29.298C19.5102 27.5525 20.9082 26.2361 22.5176 26.2361C22.8114 26.2361 23.1035 26.279 23.3848 26.3636C23.5653 26.4177 23.7594 26.3417 23.8553 26.1795C24.5706 24.906 25.91 24.1099 27.3705 24.0902C29.4197 24.0902 31.2016 25.7619 31.5131 27.9783C31.5376 28.1539 31.6722 28.2938 31.8467 28.325C33.5545 28.6291 34.7938 30.2275 34.7938 32.125C34.7938 34.2484 33.2184 35.9754 31.2816 35.9754Z" fill="white"/>
<defs>
<linearGradient id="paint0_linear" x1="0" y1="0" x2="47.9997" y2="0.113056" gradientUnits="userSpaceOnUse">
<stop stop-color="#36D1DC"/>
<stop offset="1" stop-color="#5B86E5"/>
</linearGradient>
</defs>
</svg>
