<svg width="72" height="72" viewBox="0 0 72 72" fill="none" xmlns="http://www.w3.org/2000/svg">
<rect width="72" height="72" rx="36" fill="url(#paint0_linear)"/>
<path d="M34.9973 28.2827H35.0537C36.8628 28.1489 38.6585 27.8729 40.4242 27.4572C40.7733 27.3661 40.9833 27.0102 40.8942 26.6607C40.8051 26.3111 40.4503 26.0991 40.1003 26.1863C38.4043 26.5837 36.6796 26.8468 34.9423 26.9732C34.5801 26.9884 34.2989 27.2944 34.3141 27.6565C34.3293 28.0187 34.6352 28.2999 34.9973 28.2847V28.2827Z" fill="white"/>
<path d="M19.2788 24.1967C19.6409 24.1967 19.9345 23.9031 19.9345 23.541C19.9345 23.1788 19.6409 22.8853 19.2788 22.8853C18.9166 22.8853 18.623 23.1788 18.623 23.541C18.623 23.9031 18.9166 24.1967 19.2788 24.1967Z" fill="white"/>
<path d="M19.2788 25.5083C18.9166 25.5083 18.623 25.8019 18.623 26.164V27.4755C18.623 27.8377 18.9166 28.1312 19.2788 28.1312C19.6409 28.1312 19.9345 27.8377 19.9345 27.4755V26.164C19.9345 25.8019 19.6409 25.5083 19.2788 25.5083Z" fill="white"/>
<path d="M19.2788 32.7214C19.6409 32.7214 19.9345 32.4278 19.9345 32.0657C19.9345 31.7035 19.6409 31.4099 19.2788 31.4099C18.9166 31.4099 18.623 31.7035 18.623 32.0657C18.623 32.4278 18.9166 32.7214 19.2788 32.7214Z" fill="white"/>
<path d="M19.2788 34.0327C18.9166 34.0327 18.623 34.3263 18.623 34.6885V35.9999C18.623 36.3621 18.9166 36.6557 19.2788 36.6557C19.6409 36.6557 19.9345 36.3621 19.9345 35.9999V34.6885C19.9345 34.3263 19.6409 34.0327 19.2788 34.0327Z" fill="white"/>
<path d="M19.2788 41.2458C19.6409 41.2458 19.9345 40.9522 19.9345 40.5901C19.9345 40.2279 19.6409 39.9343 19.2788 39.9343C18.9166 39.9343 18.623 40.2279 18.623 40.5901C18.623 40.9522 18.9166 41.2458 19.2788 41.2458Z" fill="white"/>
<path d="M19.2788 42.5574C18.9166 42.5574 18.623 42.851 18.623 43.2131V44.5246C18.623 44.8867 18.9166 45.1803 19.2788 45.1803C19.6409 45.1803 19.9345 44.8867 19.9345 44.5246V43.2131C19.9345 42.851 19.6409 42.5574 19.2788 42.5574Z" fill="white"/>
<path d="M50.0439 40.9272C49.4578 37.5571 46.8851 34.8799 43.541 34.16V19.6066C43.541 16.3653 30.3325 16.3279 29.7705 16.3279C29.2085 16.3279 16 16.3653 16 19.6066V45.8361C16 47.1771 18.2177 48.1351 22.5849 48.6885C22.5672 48.8905 22.5574 49.0951 22.5574 49.3017C22.5574 52.8144 25.2118 55.6721 28.4741 55.6721H48.4505C52.2721 55.6721 55.3816 52.3207 55.3816 48.1967C55.473 44.8384 53.2755 41.8456 50.0439 40.9272ZM42.1928 34.0328C39.5662 34.0539 37.1264 35.395 35.701 37.6013C34.0205 37.2437 32.267 37.6105 30.8708 38.6118C30.5102 38.6171 30.1443 38.623 29.7705 38.623C22.0459 38.623 17.6393 37.3548 17.3115 36.6354V29.68C20.6616 31.3843 29.3174 31.4098 29.7705 31.4098C30.2236 31.4098 38.8793 31.3843 42.2295 29.68V34.0328C42.217 34.0328 42.2052 34.0328 42.1928 34.0328ZM42.2295 28.1062C41.9187 28.8243 37.5115 30.0984 29.7705 30.0984C22.0085 30.0984 17.5967 28.8171 17.3115 28.1312V21.1554C20.6616 22.8597 29.3174 22.8853 29.7705 22.8853C30.2236 22.8853 38.8793 22.8597 42.2295 21.1554V28.1062ZM29.7705 17.6394C37.4197 17.6394 41.8164 18.8853 42.219 19.6066C41.8164 20.3279 37.4197 21.5738 29.7705 21.5738C22.0328 21.5738 17.6223 20.2997 17.3115 19.6439V19.6315C17.6223 18.9135 22.0328 17.6394 29.7705 17.6394ZM17.3115 45.8151V38.2046C20.3672 39.7594 27.8328 39.9174 29.4649 39.9344C28.7571 40.814 28.2651 41.847 28.0282 42.9508C25.5417 43.2139 23.4748 44.9827 22.8308 47.3987C18.7161 46.8807 17.4426 46.0813 17.3115 45.8151ZM48.4505 54.3607H28.4741C25.9344 54.3607 23.8689 52.0912 23.8689 49.3017C23.8689 46.5121 25.9344 44.2426 28.4741 44.2426H28.5685H28.581C28.9083 44.2424 29.1853 44.0009 29.2302 43.6767C29.6164 40.8839 31.8531 38.7777 34.4282 38.7777C34.8982 38.7777 35.3656 38.8464 35.8157 38.9817C36.1045 39.0682 36.4151 38.9467 36.5685 38.6872C37.7129 36.6496 39.856 35.3758 42.1928 35.3443C45.4715 35.3443 48.3226 38.019 48.821 41.5653C48.8602 41.8461 49.0756 42.07 49.3548 42.12C52.0872 42.6066 54.0702 45.1639 54.0702 48.2C54.0702 51.5974 51.5495 54.3607 48.4505 54.3607Z" fill="white"/>
<defs>
<linearGradient id="paint0_linear" x1="0" y1="0" x2="71.9996" y2="0.169583" gradientUnits="userSpaceOnUse">
<stop stop-color="#36D1DC"/>
<stop offset="1" stop-color="#5B86E5"/>
</linearGradient>
</defs>
</svg>
