<svg width="48" height="48" viewBox="0 0 48 48" fill="none" xmlns="http://www.w3.org/2000/svg">
<rect width="48" height="48" rx="24" fill="url(#paint0_linear)"/>
<g clip-path="url(#clip0)">
<path d="M18.405 22.8464L18.4041 22.8623C18.3425 23.9412 18.9469 24.9518 19.9441 25.4364L19.9543 25.4414C20.3059 25.6096 20.5941 25.8868 20.7759 26.2316L20.78 26.2391C21.2825 27.1959 22.3218 27.7759 23.4298 27.7177L23.4466 27.7168C23.8484 27.6943 24.2473 27.7979 24.5873 28.0134C25.5255 28.6002 26.7164 28.6002 27.6545 28.0134C27.9945 27.7979 28.3934 27.6943 28.7952 27.7168L28.812 27.7177C29.9181 27.7764 30.9588 27.1959 31.4625 26.2375L31.465 26.2323C31.6475 25.8866 31.9363 25.6089 32.289 25.4405L32.2972 25.4364C33.2945 24.9516 33.899 23.9412 33.8372 22.8621L33.8363 22.8471C33.8159 22.4671 33.9213 22.0909 34.1368 21.7771C34.757 20.8725 34.757 19.6798 34.137 18.7751C33.9218 18.4614 33.8159 18.0855 33.8363 17.7055L33.8372 17.6896C33.899 16.6105 33.2945 15.6001 32.2963 15.1151L32.2872 15.1105C31.9363 14.9428 31.6488 14.6669 31.4668 14.323L31.4615 14.3128C30.9588 13.356 29.9181 12.7762 28.812 12.8342L28.795 12.8351C28.3934 12.8576 27.9945 12.754 27.6548 12.5385H27.6543C26.7161 11.9517 25.5252 11.9517 24.587 12.5385C24.247 12.7537 23.8482 12.8574 23.4464 12.8349L23.4296 12.834C22.3232 12.7753 21.2828 13.3558 20.7803 14.3124L20.7764 14.3194C20.5943 14.6648 20.3059 14.9423 19.9539 15.1108L19.9443 15.1153C18.9471 15.5998 18.3425 16.6105 18.4044 17.6896L18.4053 17.7046C18.4257 18.0846 18.3203 18.4607 18.1048 18.7744C17.4846 19.6791 17.4846 20.8721 18.1048 21.7766C18.32 22.0903 18.4257 22.4664 18.405 22.8464ZM18.8709 19.303C19.2034 18.8189 19.3664 18.2385 19.3346 17.6521L19.3337 17.6362C19.3009 16.9212 19.7023 16.2571 20.3503 15.9533L20.3582 15.9494C20.8898 15.6948 21.325 15.2758 21.5996 14.7544L21.6041 14.7458C21.938 14.1099 22.6373 13.7244 23.38 13.7639L23.3964 13.7646C23.9907 13.798 24.5805 13.6449 25.0832 13.3262C25.7179 12.9292 26.5234 12.9292 27.1582 13.3262C27.6609 13.6444 28.2507 13.7978 28.8447 13.7649L28.8611 13.7639C29.6075 13.7249 30.3034 14.1099 30.6363 14.7439L30.6425 14.7555C30.917 15.2762 31.3518 15.6946 31.8827 15.9489L31.8904 15.9528C32.5486 16.2728 32.9481 16.9335 32.9079 17.6364L32.907 17.653C32.8752 18.2394 33.0384 18.8196 33.3709 19.3037C33.7727 19.8898 33.7724 20.6625 33.3704 21.2484C33.0381 21.7328 32.8752 22.3132 32.907 22.8996L32.9079 22.9153C32.9481 23.6182 32.5486 24.2791 31.8902 24.5993L31.8834 24.6025C31.3513 24.8575 30.9156 25.2771 30.6409 25.7993L30.6375 25.8061C30.3034 26.442 29.6052 26.8277 28.8613 26.788L28.8452 26.787C28.2509 26.7539 27.6609 26.9073 27.1579 27.2257C26.5234 27.6225 25.7179 27.6225 25.0834 27.2257C24.6261 26.9359 24.0957 26.7823 23.5543 26.7827C23.5018 26.7827 23.4491 26.7841 23.3964 26.787L23.38 26.7877C22.6471 26.8343 21.9537 26.4507 21.6034 25.805L21.5987 25.7961C21.3246 25.2757 20.89 24.8575 20.3593 24.6032L20.3507 24.5989C19.6923 24.2789 19.2928 23.618 19.3332 22.9153L19.3341 22.8987C19.3657 22.3123 19.2025 21.7319 18.8703 21.248C18.4687 20.6619 18.4689 19.8891 18.8709 19.3035V19.303Z" fill="white"/>
<path d="M23.1175 25.0877C23.3355 25.2238 23.6225 25.1572 23.7587 24.9393L29.2725 16.1062C29.3625 15.965 29.37 15.7864 29.2918 15.6384C29.2136 15.4903 29.0618 15.3957 28.8945 15.3905C28.7273 15.3853 28.57 15.4703 28.4827 15.6132L22.9691 24.4463C22.833 24.6645 22.8994 24.9516 23.1175 25.0877Z" fill="white"/>
<path d="M23.6111 20.2989C24.7445 20.2989 25.6668 19.2473 25.6668 17.9548C25.6668 16.6623 24.7445 15.611 23.6111 15.611C22.4777 15.611 21.5557 16.6623 21.5557 17.9548C21.5557 19.2473 22.4777 20.2989 23.6111 20.2989ZM23.6111 16.5419C24.2313 16.5419 24.7359 17.1757 24.7359 17.9548C24.7359 18.7339 24.2313 19.368 23.6111 19.368C22.9911 19.368 22.4866 18.7337 22.4866 17.9548C22.4866 17.176 22.9911 16.5419 23.6111 16.5419Z" fill="white"/>
<path d="M26.5747 22.5975C26.5747 23.89 27.4967 24.9414 28.6301 24.9414C29.7635 24.9414 30.6858 23.8898 30.6858 22.5975C30.6858 21.3055 29.7638 20.2537 28.6304 20.2537C27.4967 20.2537 26.5747 21.3048 26.5747 22.5975ZM29.7549 22.5975C29.7549 23.3766 29.2504 24.0105 28.6301 24.0105C28.0102 24.0105 27.5056 23.3766 27.5056 22.5975C27.5056 21.8184 28.0102 21.1846 28.6301 21.1846C29.2504 21.1846 29.7549 21.818 29.7549 22.5975Z" fill="white"/>
<path d="M35.9396 30.3265C35.3232 29.2326 33.9564 28.816 32.8348 29.3801L29.1887 31.1028C28.6853 30.1667 27.7196 29.5708 26.6569 29.5408L23.291 29.4481C22.7581 29.4328 22.2351 29.2976 21.7613 29.0531L21.4188 28.8756C19.6651 27.9615 17.5749 27.9638 15.8231 28.8815L15.8445 28.1056C15.8515 27.8485 15.649 27.6344 15.392 27.6274L11.7011 27.5258C11.444 27.5188 11.2302 27.7213 11.2231 27.9783L11.0002 36.078C10.9931 36.3351 11.1956 36.5492 11.4527 36.5562L15.1436 36.6578H15.1565C15.4086 36.6576 15.6147 36.4569 15.6217 36.2051L15.6322 35.8176L16.5911 35.3042C16.9674 35.1017 17.4076 35.0535 17.8188 35.1698L23.5444 36.7769C23.5544 36.7798 23.5644 36.7821 23.5747 36.7844C23.9885 36.871 24.4103 36.9144 24.8333 36.9142C25.7287 36.9146 26.6137 36.7217 27.4276 36.348C27.4476 36.3389 27.4669 36.3285 27.4853 36.3167L35.7871 30.9465C35.9941 30.8128 36.0609 30.5408 35.9396 30.3265ZM11.9436 35.6383L12.1409 28.4694L14.9013 28.5454L14.7038 35.7144L11.9436 35.6383ZM27.008 35.5162C25.9969 35.9726 24.8676 36.0985 23.7808 35.8762L18.0704 34.2737C17.4279 34.0919 16.7397 34.1674 16.1517 34.4835L15.6617 34.7458L15.7931 29.9792C17.3456 28.9465 19.337 28.8403 20.9906 29.7019L21.3331 29.8794C21.9317 30.1885 22.5922 30.3592 23.2656 30.3785L26.6315 30.4712C27.5769 30.4983 28.3799 31.1715 28.5717 32.0978L23.5581 31.9599C23.301 31.9528 23.0872 32.1553 23.0801 32.4124C23.0731 32.6694 23.2756 32.8835 23.5326 32.8905L29.0655 33.0428H29.0787C29.3305 33.0426 29.5367 32.8419 29.5437 32.5901C29.5494 32.3878 29.5342 32.1853 29.4987 31.9862L33.2378 30.2192L33.2487 30.214C33.7791 29.9453 34.4207 30.0351 34.8569 30.439L27.008 35.5162Z" fill="white"/>
</g>
<defs>
<linearGradient id="paint0_linear" x1="0" y1="0" x2="47.9997" y2="0.113056" gradientUnits="userSpaceOnUse">
<stop stop-color="#36D1DC"/>
<stop offset="1" stop-color="#5B86E5"/>
</linearGradient>
<clipPath id="clip0">
<rect width="25" height="25" fill="white" transform="translate(11 12)"/>
</clipPath>
</defs>
</svg>
