<svg width="11" height="6" viewBox="0 0 11 6" fill="none" xmlns="http://www.w3.org/2000/svg">
<path d="M0.00150868 0.75132C0.00116632 0.576081 0.0621977 0.406253 0.174009 0.271319C0.236971 0.195376 0.314297 0.132599 0.401558 0.0865853C0.488818 0.0405713 0.584297 0.012224 0.682529 0.00316714C0.780763 -0.00588976 0.879817 0.00452176 0.97402 0.0338051C1.06822 0.0630885 1.15572 0.110668 1.23151 0.173819L5.25151 3.53382L9.27901 0.29382C9.35573 0.231521 9.444 0.184997 9.53875 0.156923C9.63351 0.128849 9.73287 0.119779 9.83115 0.130233C9.92942 0.140688 10.0247 0.17046 10.1114 0.217841C10.1981 0.265221 10.2746 0.329275 10.3365 0.40632C10.4048 0.483919 10.4563 0.574794 10.4878 0.673241C10.5193 0.771687 10.5301 0.875581 10.5195 0.978401C10.5089 1.08122 10.4772 1.18075 10.4264 1.27073C10.3755 1.36072 10.3066 1.43922 10.224 1.50132L5.72401 5.12382C5.58981 5.23413 5.42148 5.29444 5.24776 5.29444C5.07404 5.29444 4.90571 5.23413 4.77151 5.12382L0.271509 1.37382C0.180747 1.29858 0.108998 1.20301 0.062087 1.09485C0.0151758 0.986692 -0.00557903 0.868999 0.00150868 0.75132Z" fill="#3F4B52"/>
</svg>
