<svg width="12" height="12" viewBox="0 0 12 12" fill="none" xmlns="http://www.w3.org/2000/svg">
<path d="M10.7066 2.70699L7.41359 5.99999L10.7066 9.29299C10.8021 9.38524 10.8783 9.49558 10.9307 9.61759C10.9831 9.73959 11.0107 9.87081 11.0118 10.0036C11.013 10.1364 10.9877 10.268 10.9374 10.3909C10.8871 10.5138 10.8129 10.6255 10.719 10.7194C10.6251 10.8133 10.5134 10.8875 10.3905 10.9378C10.2676 10.9881 10.136 11.0134 10.0032 11.0122C9.87041 11.0111 9.73919 10.9835 9.61719 10.9311C9.49518 10.8787 9.38484 10.8025 9.29259 10.707L5.99959 7.41399L2.70659 10.707C2.61435 10.8025 2.504 10.8787 2.382 10.9311C2.25999 10.9835 2.12877 11.0111 1.99599 11.0122C1.86321 11.0134 1.73154 10.9881 1.60864 10.9378C1.48574 10.8875 1.37409 10.8133 1.2802 10.7194C1.18631 10.6255 1.11205 10.5138 1.06177 10.3909C1.01149 10.268 0.986189 10.1364 0.987342 10.0036C0.988496 9.87081 1.01608 9.73959 1.06849 9.61759C1.1209 9.49558 1.19708 9.38524 1.29259 9.29299L4.58559 5.99999L1.29259 2.70699C1.19708 2.61474 1.1209 2.5044 1.06849 2.38239C1.01608 2.26039 0.988496 2.12917 0.987342 1.99639C0.986189 1.86361 1.01149 1.73193 1.06177 1.60904C1.11205 1.48614 1.18631 1.37449 1.2802 1.28059C1.37409 1.1867 1.48574 1.11245 1.60864 1.06217C1.73154 1.01189 1.86321 0.986585 1.99599 0.987739C2.12877 0.988893 2.25999 1.01648 2.382 1.06889C2.504 1.1213 2.61435 1.19748 2.70659 1.29299L5.99959 4.58599L9.29259 1.29299C9.38484 1.19748 9.49518 1.1213 9.61719 1.06889C9.73919 1.01648 9.87041 0.988893 10.0032 0.987739C10.136 0.986585 10.2676 1.01189 10.3905 1.06217C10.5134 1.11245 10.6251 1.1867 10.719 1.28059C10.8129 1.37449 10.8871 1.48614 10.9374 1.60904C10.9877 1.73193 11.013 1.86361 11.0118 1.99639C11.0107 2.12917 10.9831 2.26039 10.9307 2.38239C10.8783 2.5044 10.8021 2.61474 10.7066 2.70699Z" fill="#111111" fill-opacity="0.32"/>
</svg>
