<svg width="52" height="52" viewBox="0 0 52 52" fill="none" xmlns="http://www.w3.org/2000/svg">
<circle cx="25.92" cy="25.92" r="25.92" fill="white"/>
<path fill-rule="evenodd" clip-rule="evenodd" d="M17.2493 27.9887L27.7151 17.7297C29.0616 16.4098 31.2456 16.4098 32.5922 17.7297L33.9901 19.1C35.3366 20.4199 35.3366 22.5608 33.9901 23.8807L23.483 34.1802C22.8822 34.7692 22.0676 35.0996 21.2174 35.0996H16.9143C16.5146 35.0996 16.1934 34.7768 16.2034 34.3851L16.3116 30.129C16.3331 29.3246 16.6689 28.5577 17.2493 27.9887ZM32.9844 20.0859L31.5865 18.7157C30.7955 17.9403 29.5121 17.9403 28.7211 18.7157L27.9086 19.512L32.1724 23.6907L32.9844 22.8948C33.7754 22.1194 33.7754 20.8614 32.9844 20.0859ZM18.2552 28.9747L26.9028 20.498L31.1666 24.6767L22.4773 33.1943L22.3617 33.298C22.0425 33.5602 21.6381 33.7053 21.2175 33.7053L17.6434 33.7048L17.7337 30.1647C17.7457 29.718 17.9326 29.291 18.2552 28.9747ZM35.6427 34.4026C35.6427 34.0176 35.3243 33.7055 34.9315 33.7055H27.5114L27.4149 33.7118C27.0678 33.758 26.8002 34.0497 26.8002 34.4026C26.8002 34.7877 27.1186 35.0998 27.5114 35.0998H34.9315L35.028 35.0934C35.3752 35.0473 35.6427 34.7556 35.6427 34.4026Z" fill="url(#paint0_linear)"/>
<defs>
<linearGradient id="paint0_linear" x1="16.2031" y1="16.7397" x2="35.6426" y2="16.7942" gradientUnits="userSpaceOnUse">
<stop stop-color="#36D1DC"/>
<stop offset="1" stop-color="#5B86E5"/>
</linearGradient>
</defs>
</svg>
