<svg width="16" height="16" viewBox="0 0 16 16" fill="none" xmlns="http://www.w3.org/2000/svg">
<path d="M11.5571 5.90226C11.5571 6.08483 11.5029 6.2633 11.4015 6.4151C11.3001 6.5669 11.1559 6.68521 10.9873 6.75507C10.8186 6.82494 10.633 6.84322 10.4539 6.8076C10.2749 6.77199 10.1104 6.68407 9.98129 6.55497C9.85219 6.42588 9.76429 6.2614 9.72867 6.08235C9.69306 5.90329 9.71134 5.71769 9.7812 5.54902C9.85107 5.38035 9.96938 5.23618 10.1212 5.13475C10.273 5.03332 10.4514 4.97919 10.634 4.97919C10.8788 4.97919 11.1136 5.07644 11.2867 5.24955C11.4598 5.42266 11.5571 5.65745 11.5571 5.90226Z" fill="#333333"/>
<path d="M6.26022 5.90226C6.26022 6.08483 6.20608 6.2633 6.10465 6.4151C6.00322 6.5669 5.85906 6.68521 5.69039 6.75507C5.52172 6.82494 5.33611 6.84322 5.15705 6.8076C4.978 6.77199 4.81352 6.68407 4.68443 6.55497C4.55533 6.42588 4.46741 6.2614 4.4318 6.08235C4.39618 5.90329 4.41447 5.71769 4.48433 5.54902C4.5542 5.38035 4.67251 5.23618 4.82431 5.13475C4.97611 5.03332 5.15458 4.97919 5.33715 4.97919C5.58196 4.97919 5.81674 5.07644 5.98986 5.24955C6.16297 5.42266 6.26022 5.65745 6.26022 5.90226Z" fill="#333333"/>
<path d="M8.70468 12.7296H7.42468C6.64989 12.7334 5.90523 12.4297 5.35402 11.8852C4.80282 11.3407 4.49007 10.5998 4.48438 9.82502C4.48438 9.72424 4.52441 9.62758 4.59567 9.55632C4.66694 9.48505 4.7636 9.44501 4.86438 9.44501C4.96516 9.44501 5.06181 9.48505 5.13308 9.55632C5.20434 9.62758 5.24438 9.72424 5.24438 9.82502C5.24367 10.11 5.29986 10.3922 5.40966 10.6551C5.51946 10.918 5.68065 11.1564 5.88379 11.3562C6.08692 11.556 6.32791 11.7132 6.59261 11.8187C6.85732 11.9241 7.14042 11.9757 7.4253 11.9702H8.7053C8.9878 11.978 9.269 11.9292 9.5324 11.8268C9.79581 11.7244 10.0361 11.5704 10.2392 11.374C10.4424 11.1775 10.6042 10.9424 10.7153 10.6826C10.8264 10.4227 10.8845 10.1433 10.8862 9.8607C10.8862 9.75992 10.9263 9.66326 10.9975 9.592C11.0688 9.52073 11.1654 9.48071 11.2662 9.48071C11.367 9.48071 11.4637 9.52073 11.5349 9.592C11.6062 9.66326 11.6462 9.75992 11.6462 9.8607C11.6456 10.2434 11.5685 10.6222 11.4196 10.9747C11.2706 11.3273 11.0527 11.6465 10.7788 11.9137C10.5048 12.181 10.1802 12.3908 9.82402 12.5309C9.46786 12.671 9.0873 12.7386 8.70468 12.7296Z" fill="#333333"/>
<path d="M8 16C6.41775 16 4.87103 15.5308 3.55544 14.6518C2.23985 13.7727 1.21447 12.5233 0.608967 11.0615C0.00346631 9.59966 -0.15496 7.99113 0.153721 6.43928C0.462403 4.88743 1.22433 3.46197 2.34315 2.34315C3.46197 1.22433 4.88743 0.462403 6.43928 0.153721C7.99113 -0.15496 9.59966 0.00346628 11.0615 0.608967C12.5233 1.21447 13.7727 2.23985 14.6518 3.55544C15.5308 4.87103 16 6.41775 16 8C15.9976 10.121 15.1539 12.1544 13.6542 13.6542C12.1544 15.1539 10.121 15.9976 8 16ZM8 0.760003C6.56807 0.760003 5.16829 1.18462 3.97767 1.98016C2.78706 2.7757 1.85909 3.90644 1.31112 5.22937C0.763137 6.55231 0.619761 8.00803 0.899118 9.41245C1.17847 10.8169 1.86802 12.1069 2.88055 13.1195C3.89308 14.132 5.18313 14.8215 6.58755 15.1009C7.99197 15.3802 9.44769 15.2369 10.7706 14.6889C12.0936 14.1409 13.2243 13.2129 14.0198 12.0223C14.8154 10.8317 15.24 9.43194 15.24 8C15.2377 6.08053 14.4742 4.24034 13.1169 2.88307C11.7597 1.5258 9.91947 0.762283 8 0.760003Z" fill="#333333"/>
</svg>
