<svg width="557" height="318" viewBox="0 0 557 318" fill="none" xmlns="http://www.w3.org/2000/svg">
<path d="M535.876 317.979H14.1217C4.80823 305.917 -11.6911 276.162 12.8401 237.879C36.7443 200.579 16.8698 155.03 42.1024 101.967C77.456 27.6256 140.002 32.3333 159.551 38.6733C179.098 45.0134 194.903 55.3172 228.592 39.4661C262.279 23.615 355.235 -18.304 416.793 9.03911C478.348 36.3843 452.697 94.3457 473.103 114.93C499.496 141.553 515.559 132.849 545.708 178.145C562.097 202.77 561.417 283.992 535.876 317.979Z" fill="#DCF4FF"/>
<path d="M292.045 156.197C292.045 156.197 298.75 160.641 293.63 174.592L291.095 172.913L292.833 165.393L292.045 156.197Z" fill="black"/>
<path d="M266.171 162.373L263.875 183.386C263.875 183.386 262.806 190.458 268.885 192.02L266.696 201.371C265.881 204.846 267.607 208.449 270.853 209.888C272.44 210.591 274.36 211.188 276.587 211.431C283.645 212.202 288.051 207.293 288.931 204.693C289.811 202.094 289.435 189.174 289.435 189.174L290.334 182.944L292.177 158.626L266.171 162.373Z" fill="#FE9F73"/>
<path d="M282.067 174.743C282.142 174.751 282.216 174.732 282.28 174.683C282.409 174.583 282.433 174.396 282.335 174.267C282.299 174.22 278.709 169.614 274.684 172.207C274.545 172.297 274.505 172.479 274.594 172.617C274.682 172.756 274.864 172.796 275.002 172.707C278.569 170.409 281.731 174.456 281.865 174.628C281.916 174.694 281.991 174.734 282.067 174.743Z" fill="black"/>
<path d="M270.136 171.642C270.219 171.65 270.304 171.625 270.37 171.563C270.489 171.45 270.498 171.263 270.387 171.142C270.281 171.025 267.737 168.305 265.796 169.642C265.66 169.735 265.626 169.92 265.72 170.056C265.811 170.192 265.996 170.226 266.13 170.133C267.65 169.085 269.93 171.523 269.951 171.548C270.002 171.603 270.068 171.635 270.136 171.642Z" fill="black"/>
<path d="M286.249 176.721C285.928 179.663 288.037 182.307 290.961 182.628C293.886 182.946 296.517 180.821 296.838 177.877C297.159 174.936 295.05 172.292 292.126 171.971C289.201 171.652 286.57 173.778 286.249 176.721Z" fill="#FE9F73"/>
<path d="M291.577 180.606C292.676 180.728 293.503 179.975 293.835 179.17C294.228 178.218 294.005 177.227 293.265 176.645C292.173 175.784 291.059 176.139 290.474 176.439C290.77 175.858 291.176 175.459 291.686 175.244C292.791 174.781 294.041 175.342 294.051 175.348C294.126 175.382 294.213 175.35 294.247 175.274C294.281 175.2 294.249 175.11 294.175 175.076C294.119 175.051 292.8 174.456 291.573 174.968C290.865 175.263 290.338 175.867 290.011 176.762L289.826 177.263L290.241 176.93C290.3 176.883 291.692 175.788 293.08 176.879C293.847 177.482 293.818 178.43 293.558 179.055C293.291 179.705 292.619 180.419 291.607 180.309C291.597 180.307 291.588 180.307 291.577 180.305C291.497 180.296 291.424 180.354 291.414 180.434C291.403 180.515 291.461 180.59 291.543 180.6C291.558 180.604 291.569 180.604 291.577 180.606Z" fill="#F07162"/>
<path d="M263.217 179.933C263.217 179.933 259.74 193.954 269.074 195.486C282.432 197.678 284.577 190.103 286.065 183.875L287.623 170.857L287.603 167.027C286.536 168.005 285.808 169.297 285.523 170.721C284.904 173.816 283.295 182.16 282.479 182.449C281.329 182.853 265.459 178.789 263.217 179.933Z" fill="black"/>
<path d="M272.222 180.938C272.283 180.944 272.345 180.913 272.373 180.851C272.407 180.777 272.375 180.687 272.3 180.653L269.459 179.35L271.153 172.471C271.172 172.39 271.123 172.309 271.044 172.29C270.964 172.269 270.885 172.32 270.866 172.398L269.112 179.518L272.177 180.923C272.192 180.932 272.207 180.936 272.222 180.938Z" fill="#F07162"/>
<path d="M274.191 184.071C274.102 184.043 268.385 183.282 268.385 183.282C268.385 183.282 268.844 185.748 270.969 186.035C273.092 186.324 274.191 184.071 274.191 184.071Z" fill="#FBFDFC"/>
<path d="M287.607 167.274L290.529 165.142L292.557 172.054C292.557 172.054 289.095 172.245 288.65 175.773C288.206 179.301 289.511 185.031 282.521 192.296C275.531 199.561 284.308 180.509 284.442 179.826C284.576 179.146 287.607 167.274 287.607 167.274Z" fill="black"/>
<path d="M292.045 156.197C289.518 153.074 279.858 150.394 272.379 153.857V153.848C263.962 156.885 265.603 165.115 265.843 165.38L265.956 165.312C265.897 165.491 265.839 165.672 265.792 165.852C265.792 165.852 266.186 165.353 266.985 164.687L270.39 162.624C272.258 161.825 274.715 161.227 277.792 161.363C280.849 161.497 283.478 161.954 285.58 162.862C285.958 164.73 286.035 168.358 284.589 175.329C282.385 185.963 288.502 173.44 290.755 168.634C291.021 169.608 291.172 170.685 291.174 171.901C291.172 171.901 297.112 162.456 292.045 156.197Z" fill="black"/>
<path d="M265.526 168.277C265.526 168.277 265.788 163.941 266.098 163.019C266.408 162.097 276.306 160.432 281.486 161.727C286.665 163.023 275.841 167.699 275.722 167.686C275.605 167.674 265.526 168.277 265.526 168.277Z" fill="#FE9F73"/>
<path d="M284.526 163.176L290.125 159.006L284.584 165.395L284.526 163.176Z" fill="#FE9F73"/>
<path d="M285.544 153.871C285.544 153.871 285.623 143.568 291.053 146.403C296.483 149.238 296.945 154.041 291.465 156.581C285.986 159.121 285.544 153.871 285.544 153.871Z" fill="black"/>
<path d="M278.096 176.288C278.068 176.281 278.042 176.268 278.019 176.247C277.084 175.48 275.205 175.165 275.186 175.161L274.591 175.063L275.126 174.787C277.39 173.62 279.058 174.906 279.126 174.961C279.211 175.029 279.226 175.155 279.158 175.242C279.09 175.329 278.965 175.342 278.878 175.276C278.82 175.231 277.605 174.303 275.872 174.9C276.538 175.061 277.603 175.391 278.27 175.939C278.355 176.009 278.368 176.135 278.298 176.22C278.249 176.283 278.168 176.307 278.096 176.288Z" fill="#49263E"/>
<path d="M266.19 174.003C266.218 174.007 266.248 174.003 266.275 173.994C267.425 173.618 269.289 174.003 269.308 174.009L269.899 174.135L269.499 173.682C267.812 171.773 265.793 172.371 265.708 172.396C265.604 172.428 265.544 172.541 265.576 172.645C265.608 172.749 265.721 172.808 265.825 172.777C265.893 172.755 267.363 172.33 268.762 173.514C268.084 173.425 266.972 173.346 266.15 173.616C266.046 173.65 265.988 173.763 266.022 173.867C266.05 173.943 266.116 173.994 266.19 174.003Z" fill="#49263E"/>
<path d="M219.963 208.498C219.963 208.498 207.069 187.029 205.921 183.714C203.326 176.22 196.367 107.236 196.367 107.236L216.257 103.5L228.624 160.139L244.08 193.965L219.963 208.498Z" fill="#FE9F73"/>
<path d="M193.789 80.9919C194.783 80.62 195.893 81.1365 196.328 82.1035L199.038 88.1268C199.123 88.316 199.319 88.4286 199.525 88.4095C199.829 88.3819 200.031 88.0822 199.944 87.7889L197.155 78.4415C196.836 77.3703 197.485 76.4096 198.596 76.3054C199.708 76.2013 200.881 76.9919 201.2 78.0631L204.044 87.5934C204.109 87.8144 204.322 87.9589 204.554 87.9377L204.717 87.9228C204.983 87.8973 205.178 87.6614 205.153 87.3957L204.122 76.4117C204.022 75.3554 204.734 74.3565 205.782 74.1907C206.93 74.0079 207.978 74.8326 208.084 75.9718L209.121 87.0238C209.147 87.2894 209.382 87.485 209.648 87.4595L210.165 87.4106C210.407 87.3872 210.594 87.1895 210.602 86.9472L210.981 76.6413C211.019 75.5807 211.854 74.6838 212.915 74.654C214.077 74.6222 215.008 75.5764 214.966 76.7199C214.966 76.7199 215.234 92.4669 215.476 94.9238L219.914 91.249C220.615 90.401 221.871 90.2841 222.719 90.9855C223.567 91.6869 223.684 92.943 222.983 93.791L216.001 104.558C215.544 105.111 214.114 105.249 212.938 105.085C201.349 107.075 199.587 107.438 196.411 107.687L196.375 107.387L195.618 94.9855C195.402 91.3659 194.528 87.8144 193.038 84.5073L192.664 83.6763C192.197 82.6327 192.698 81.4 193.789 80.9919Z" fill="#FE9F73"/>
<path d="M337.459 221.733C337.459 221.733 354.154 203.066 355.903 200.025C359.858 193.151 379.616 126.828 379.616 126.828L359.533 121.506L338.024 172.607L316.496 202.932L337.459 221.733Z" fill="#FE9F73"/>
<path d="M352.424 210.228C352.424 210.228 352.322 210.32 352.128 210.496C349.008 213.321 322.131 237.752 318.783 243.227C318.749 243.28 318.719 243.333 318.694 243.38C318.651 243.45 318.615 243.516 318.586 243.578C318.384 244.001 318.197 245.146 318.033 246.891C317.648 250.966 317.368 258.3 317.166 267.291V267.32C316.983 275.441 316.86 284.91 316.781 294.547V294.604C316.717 302.504 316.683 310.508 316.666 317.977H216.743C218.087 304.944 219.721 288.908 221.181 274.115C221.932 266.526 222.635 259.263 223.23 252.9C223.817 246.619 224.297 241.214 224.61 237.24C224.916 233.376 225.06 230.864 224.994 230.209C224.518 225.608 209.394 197.797 207.509 194.347C207.385 194.116 207.317 193.997 207.317 193.997C208.325 193.276 209.305 192.592 210.261 191.942C220.699 184.83 231.57 179.383 236.376 177.094C237.991 176.324 238.92 175.912 238.92 175.912C238.92 175.912 244.558 185.123 248.979 190.834C252.49 195.372 256.067 199.648 257.576 200.362C258.044 200.585 259.264 200.826 261.022 201.072C262.535 201.287 264.45 201.506 266.624 201.725C266.956 201.759 267.289 201.791 267.632 201.825C273.955 202.441 282.156 203.051 289.174 203.531H289.177C289.591 203.561 289.999 203.586 290.405 203.614C292.992 203.793 295.383 203.948 297.415 204.075H297.421C301.398 204.328 303.997 204.479 303.997 204.479L325.771 184.594C326.756 184.93 327.723 185.325 328.67 185.782C331.884 187.308 334.894 189.451 337.61 191.837C337.657 191.88 337.708 191.92 337.754 191.965C339.612 193.606 341.334 195.359 342.894 197.106C342.94 197.157 342.985 197.206 343.03 197.259C346.25 200.883 348.783 204.458 350.4 206.936C351.71 208.945 352.424 210.228 352.424 210.228Z" fill="#49263E"/>
<path d="M297.416 204.08C297.416 204.08 286.927 211.138 277.697 210.243C268.468 209.348 261.017 201.074 261.017 201.074L297.416 204.08Z" fill="#FE9F73"/>
<path d="M230.5 214.09C230.462 214.16 226.681 221.459 223.742 251.712C223.705 252.075 223.669 252.445 223.633 252.819C223.036 258.942 222.313 266.232 221.538 273.992C220.08 288.553 218.437 304.763 217.091 317.979H216.29C217.627 304.861 219.257 288.78 220.709 274.285C221.487 266.494 222.213 259.159 222.817 252.993C222.862 252.534 222.904 252.084 222.947 251.639C223.487 246.103 224.048 241.338 224.609 237.244C227.146 218.766 229.671 213.948 229.799 213.71C229.907 213.518 230.148 213.446 230.341 213.55C230.534 213.654 230.607 213.897 230.5 214.09Z" fill="black"/>
<path d="M316.514 294.619C316.527 294.621 316.538 294.621 316.551 294.621C316.772 294.623 316.95 294.445 316.952 294.226C317.042 279.654 318.736 243.973 318.753 243.614C318.763 243.395 318.602 243.197 318.374 243.197C318.155 243.187 317.968 243.357 317.958 243.576C317.941 243.935 316.245 279.633 316.155 294.221C316.153 294.428 316.313 294.6 316.514 294.619Z" fill="black"/>
<path d="M352.385 210.624C352.461 210.63 352.542 210.615 352.614 210.577C352.808 210.471 352.878 210.228 352.772 210.035C340.102 187.04 326.417 184.311 325.839 184.207L325.645 184.171L303.852 204.073L290.825 203.247C290.606 203.234 290.417 203.4 290.402 203.618C290.389 203.837 290.538 204.018 290.774 204.041L304.138 204.887L304.264 204.773L325.883 185.03C327.577 185.444 340.398 189.225 352.074 210.415C352.14 210.541 352.257 210.613 352.385 210.624Z" fill="black"/>
<path d="M375.863 106.967L375.971 106.403C376.955 105.7 376.751 112.971 379.051 111.296C380.581 113.145 383.896 105.723 384.145 105.568L384.428 106.014C384.5 106.129 384.613 106.201 384.734 106.231C386.06 108.284 384.557 114.046 386.062 116.176C387.131 117.687 386.16 117.774 385.571 119.46C385.229 120.435 387.136 121.017 385.782 121.936L377.301 128.85C375.525 126.14 364.732 114.937 364.893 114.225L375.863 106.967Z" fill="#FE9F73"/>
<path d="M364.43 103.238C365.152 100.541 360.4 88.5944 360.4 88.5944L358.585 83.1662L357.847 83.4977L357.395 82.4924L361.19 80.7815L364.986 79.0706L365.439 80.0759L364.702 80.4074L367.562 85.3638C367.562 85.3638 373.36 96.8409 375.858 98.0864C378.355 99.334 379.802 101.829 379.802 101.829L391.464 127.721C391.909 129.425 390.279 130.32 390.279 130.32L384.644 132.858L379.01 135.395C379.01 135.395 377.258 136.022 376.279 134.56L364.617 108.669C364.619 108.673 363.709 105.935 364.43 103.238Z" fill="#F97923"/>
<path d="M373.224 127.813L388.411 120.972L380.459 103.317L365.272 110.158L373.224 127.813Z" fill="#223749"/>
<path d="M360.638 82.4585L365.703 80.178L365.168 78.9899C365.123 78.89 365.004 78.8454 364.904 78.89C364.804 78.9346 364.76 79.0515 364.804 79.1535L365.176 79.9782L360.473 82.0972C360.373 82.1418 360.328 82.2587 360.373 82.3607C360.417 82.4628 360.539 82.5053 360.638 82.4585Z" fill="#21111D"/>
<path d="M391.162 126.983C391.262 126.939 391.307 126.82 391.262 126.72L380.658 103.236C380.593 103.041 379.819 100.822 377.747 99.1237C377.169 98.6497 376.678 98.2756 376.244 97.9462C375.126 97.096 374.389 96.5349 373.523 95.2491C372.556 93.8102 369.978 89.4574 369.213 87.9696C368.435 86.4606 364.911 80.3714 364.875 80.3119C364.82 80.2162 364.701 80.1843 364.603 80.2396C364.508 80.2949 364.476 80.416 364.531 80.5117C364.567 80.5733 368.087 86.6519 368.858 88.1524C369.645 89.6827 372.197 93.9908 373.192 95.4722C374.093 96.8134 374.852 97.3893 376.002 98.2629C376.431 98.5902 376.92 98.96 377.492 99.4297C379.523 101.096 380.274 103.347 380.28 103.37L380.289 103.391L390.896 126.885C390.943 126.983 391.062 127.028 391.162 126.983Z" fill="#21111D"/>
<g opacity="0.6">
<g opacity="0.6">
<path opacity="0.6" d="M381.862 119.242C383.957 116.631 383.538 112.816 380.927 110.721C378.316 108.626 374.501 109.044 372.406 111.655C370.311 114.267 370.729 118.082 373.34 120.177C375.952 122.272 379.767 121.853 381.862 119.242Z" fill="#9BC1F9"/>
</g>
</g>
<path d="M376.771 101.124C376.807 101.109 376.837 101.081 376.858 101.045C376.916 100.951 376.886 100.828 376.793 100.773L374.238 99.2129C374.144 99.1555 374.021 99.1853 373.966 99.2788C373.908 99.3723 373.938 99.4956 374.032 99.5508L376.586 101.111C376.646 101.149 376.714 101.151 376.771 101.124Z" fill="#21111D"/>
<path d="M376.926 102.749C376.962 102.734 376.991 102.707 377.013 102.671C377.07 102.577 377.04 102.454 376.947 102.399L374.392 100.839C374.299 100.781 374.177 100.811 374.12 100.905C374.063 100.998 374.092 101.121 374.186 101.177L376.741 102.737C376.798 102.775 376.866 102.777 376.926 102.749Z" fill="#21111D"/>
<path d="M387.81 107.855C388.271 109.128 387.676 110.076 387.468 110.159L380.994 112.731C380.21 113.043 379.228 112.495 378.782 111.43C378.295 110.263 378.614 109.007 379.46 108.671L385.906 106.112C385.906 106.11 387.351 106.582 387.81 107.855Z" fill="#FE9F73"/>
<path d="M389.183 111.491C389.661 112.758 389.415 113.995 389.209 114.084L382.299 117.041C381.523 117.372 380.535 116.847 380.076 115.791C379.572 114.632 379.872 113.364 380.709 113.004L387.795 109.971C387.795 109.971 388.707 110.224 389.183 111.491Z" fill="#FE9F73"/>
<path d="M390.036 115.776C390.491 116.951 390.274 118.11 390.082 118.197L383.685 121.055C382.967 121.376 382.044 120.9 381.609 119.92C381.13 118.847 381.398 117.657 382.174 117.31L388.733 114.38C388.731 114.38 389.579 114.601 390.036 115.776Z" fill="#FE9F73"/>
<path d="M388.151 110.276C388.262 110.189 388.3 109.997 388.232 109.815C388.153 109.602 387.968 109.481 387.815 109.543L380.855 112.346C380.198 112.607 379.405 112.144 379.05 111.294C378.859 110.839 378.812 110.35 378.919 109.923C379.025 109.494 379.265 109.186 379.601 109.054L385.981 106.52C386.132 106.457 386.196 106.238 386.119 106.027C386.043 105.815 385.856 105.694 385.703 105.753L379.322 108.286C378.842 108.478 378.476 108.941 378.326 109.56C378.17 110.187 378.238 110.899 378.517 111.564C379.038 112.809 380.187 113.489 381.135 113.113L388.098 110.31C388.117 110.301 388.136 110.291 388.151 110.276Z" fill="#F07162"/>
<path d="M385.758 103.606C386.255 104.864 385.977 106.11 385.769 106.195L378.842 109.081C378.079 109.4 377.108 108.907 376.64 107.878C376.104 106.701 376.406 105.396 377.263 105.041L383.726 102.348C384.447 102.048 385.469 102.877 385.758 103.606Z" fill="#FE9F73"/>
<path d="M385.949 106.514C386.06 106.424 386.094 106.233 386.026 106.048C385.947 105.838 385.758 105.719 385.607 105.782L378.689 108.705C378.036 108.977 377.242 108.526 376.878 107.68C376.685 107.228 376.632 106.739 376.734 106.307C376.836 105.876 377.074 105.561 377.405 105.423L383.745 102.781C383.896 102.716 383.956 102.494 383.877 102.284C383.798 102.074 383.611 101.953 383.458 102.016L377.118 104.658C376.64 104.858 376.281 105.328 376.136 105.95C375.988 106.582 376.062 107.294 376.347 107.957C376.878 109.196 378.032 109.861 378.974 109.468L385.892 106.545C385.915 106.537 385.932 106.526 385.949 106.514Z" fill="#F07162"/>
<path d="M389.102 114.318C389.215 114.229 389.251 114.031 389.179 113.844C389.096 113.634 388.909 113.519 388.758 113.587L382.074 116.597C381.419 116.877 380.705 116.486 380.341 115.647C380.144 115.194 380.091 114.707 380.191 114.276C380.288 113.842 380.524 113.528 380.856 113.385L387.942 110.354C388.093 110.291 388.152 110.065 388.072 109.855C387.991 109.644 387.804 109.525 387.653 109.591L380.567 112.622C380.089 112.826 379.736 113.3 379.591 113.925C379.447 114.558 379.525 115.27 379.812 115.931C380.348 117.164 381.421 117.763 382.367 117.358L389.056 114.346C389.073 114.339 389.087 114.329 389.102 114.318Z" fill="#F07162"/>
<path d="M390.121 118.308C390.233 118.218 390.269 118.021 390.197 117.836C390.116 117.625 389.927 117.511 389.776 117.579L383.379 120.437C382.786 120.703 382.055 120.305 381.713 119.536C381.53 119.124 381.477 118.677 381.562 118.278C381.649 117.88 381.861 117.585 382.163 117.451L388.722 114.52C388.871 114.454 388.928 114.229 388.845 114.019C388.765 113.808 388.576 113.693 388.425 113.761L381.866 116.692C381.419 116.892 381.09 117.345 380.96 117.936C380.831 118.535 380.909 119.207 381.186 119.827C381.702 120.988 382.794 121.589 383.672 121.196L390.07 118.337C390.091 118.329 390.106 118.318 390.121 118.308Z" fill="#F07162"/>
<path d="M365.756 111.196C365.259 111.727 360.211 113.217 358.317 124.299C357.454 129.347 370.277 132.764 370.277 132.764L374.483 130.573L365.756 111.196Z" fill="#FE9F73"/>
<path d="M363.73 120.016C363.922 121.415 365.137 120.158 365.369 120.131L372.933 117.827C373.788 117.727 374.419 116.783 374.319 115.612C374.204 114.269 373.265 113.24 372.306 113.353L365.063 114.205C364.257 114.299 363.62 119.206 363.73 120.016Z" fill="#FE9F73"/>
<path d="M365.429 120.391C365.284 120.365 365.154 120.21 365.123 120.008C365.086 119.776 365.197 119.572 365.367 119.553L372.88 117.407C373.611 117.322 374.104 116.505 374 115.551C373.945 115.041 373.743 114.571 373.431 114.231C373.118 113.891 372.742 113.728 372.37 113.772L365.263 114.607C365.093 114.624 364.925 114.454 364.889 114.223C364.853 113.991 364.961 113.787 365.131 113.766L372.238 112.93C372.774 112.867 373.339 113.113 373.79 113.602C374.247 114.099 374.542 114.784 374.621 115.532C374.772 116.928 374.062 118.121 373.006 118.244L365.492 120.393C365.473 120.397 365.452 120.395 365.429 120.391Z" fill="#F07162"/>
<path d="M304.599 259.326L304.244 258.92C303.111 258.816 300.852 258.461 298.189 258.191C297.825 260.419 297.488 262.13 297.213 262.123L297.196 262.621C297.192 262.748 297.137 262.861 297.05 262.942C296.948 265.239 296.886 268.164 296.676 270.606C296.525 272.342 295.828 273.766 297.107 274.854C297.847 275.484 302.123 276.089 303.66 276.191L313.83 277.777C313.985 274.733 316.172 261.528 315.702 261.029L304.599 259.326Z" fill="#FE9F73"/>
<path d="M393.249 256.073C393.249 256.073 378.006 276.209 372.71 279.775C367.415 283.341 313.516 277.743 313.516 277.743L314.884 261.074L359.447 258.51L374.293 239.138L393.249 256.073Z" fill="#FE9F73"/>
<path d="M358.826 258.277C358.847 258.064 358.975 257.866 359.179 257.764C359.497 257.605 359.882 257.735 360.042 258.053L364.588 267.178C364.747 267.494 364.618 267.881 364.299 268.041C363.98 268.2 363.595 268.07 363.436 267.751L358.89 258.627C358.834 258.515 358.813 258.393 358.826 258.277Z" fill="#F07162"/>
<path d="M313.355 247.129L312.796 234.162L292.201 235.05L292.76 248.017C292.985 253.252 297.255 257.375 302.499 257.639L303.551 279.116L295.374 282.699L313.986 281.898L305.532 279.031L304.48 257.554C309.682 256.838 313.583 252.362 313.355 247.129Z" fill="#E3F2FF"/>
<path d="M293.423 247.222C293.423 247.337 293.425 247.452 293.429 247.567C293.659 252.876 298.148 256.993 303.455 256.763C308.764 256.534 312.881 252.045 312.651 246.738C312.647 246.623 312.636 246.508 312.628 246.396L293.423 247.222Z" fill="#A51134"/>
<path d="M312.628 246.395C312.641 246.712 308.354 247.152 303.049 247.382C297.746 247.611 293.436 247.539 293.421 247.224C293.408 246.908 297.695 246.468 303 246.238C308.303 246.009 312.613 246.079 312.628 246.395Z" fill="#B52A52"/>
<path d="M295.333 263.758C295.129 265.016 295.841 265.788 296.049 265.828L302.483 267.082C303.263 267.233 304.075 266.557 304.302 265.495C304.551 264.332 304.037 263.225 303.197 263.061L296.793 261.814C296.791 261.814 295.537 262.5 295.333 263.758Z" fill="#FE9F73"/>
<path d="M294.694 267.356C294.473 268.61 294.915 269.711 295.121 269.758L302.022 271.293C302.798 271.465 303.621 270.808 303.861 269.752C304.124 268.593 303.627 267.471 302.792 267.286L295.714 265.714C295.714 265.711 294.917 266.102 294.694 267.356Z" fill="#FE9F73"/>
<path d="M294.652 271.467C294.436 272.634 294.837 273.667 295.031 273.713L301.441 275.246C302.161 275.418 302.931 274.818 303.164 273.837C303.42 272.761 302.967 271.707 302.189 271.522L295.615 269.949C295.615 269.949 294.869 270.3 294.652 271.467Z" fill="#FE9F73"/>
<path d="M295.441 266.056C295.325 265.994 295.257 265.824 295.286 265.643C295.32 265.435 295.473 265.288 295.624 265.32L302.547 266.704C303.199 266.831 303.852 266.266 304.032 265.418C304.13 264.963 304.087 264.506 303.915 264.128C303.743 263.75 303.467 263.505 303.133 263.441L296.793 262.207C296.642 262.175 296.547 261.983 296.581 261.773C296.615 261.565 296.766 261.418 296.919 261.448L303.259 262.683C303.737 262.776 304.153 263.142 304.402 263.688C304.653 264.241 304.714 264.91 304.572 265.575C304.306 266.817 303.361 267.645 302.419 267.463L295.497 266.079C295.478 266.073 295.458 266.064 295.441 266.056Z" fill="#F07162"/>
<path d="M296.496 259.473C296.254 260.723 296.728 261.826 296.936 261.868L303.841 263.335C304.602 263.496 305.414 262.874 305.667 261.841C305.958 260.659 305.452 259.505 304.598 259.324L298.154 257.956C297.438 257.805 296.636 258.748 296.496 259.473Z" fill="#FE9F73"/>
<path d="M296.824 262.194C296.707 262.13 296.641 261.958 296.673 261.777C296.709 261.569 296.862 261.426 297.013 261.458L303.916 262.959C304.567 263.097 305.223 262.542 305.413 261.696C305.513 261.243 305.476 260.784 305.308 260.402C305.141 260.021 304.866 259.773 304.535 259.703L298.214 258.359C298.063 258.325 297.97 258.132 298.006 257.924C298.042 257.715 298.195 257.571 298.346 257.605L304.667 258.948C305.143 259.05 305.557 259.422 305.799 259.972C306.046 260.529 306.101 261.201 305.952 261.864C305.676 263.103 304.724 263.917 303.785 263.717L296.881 262.215C296.86 262.211 296.841 262.202 296.824 262.194Z" fill="#F07162"/>
<path d="M295.262 269.955C295.14 269.892 295.075 269.715 295.109 269.53C295.149 269.322 295.302 269.184 295.453 269.22L302.156 270.844C302.809 270.988 303.402 270.506 303.593 269.666C303.697 269.214 303.661 268.755 303.495 268.372C303.33 267.989 303.057 267.739 302.726 267.664L295.648 266.091C295.497 266.06 295.404 265.862 295.442 265.654C295.48 265.445 295.631 265.303 295.784 265.337L302.862 266.91C303.338 267.014 303.748 267.392 303.988 267.945C304.231 268.504 304.282 269.178 304.131 269.839C303.85 271.071 302.96 271.811 302.016 271.6L295.308 269.977C295.293 269.97 295.276 269.964 295.262 269.955Z" fill="#F07162"/>
<path d="M295.012 273.822C294.89 273.758 294.825 273.582 294.859 273.399C294.897 273.191 295.052 273.05 295.203 273.086L301.613 274.619C302.206 274.761 302.814 274.268 302.999 273.497C303.097 273.082 303.069 272.661 302.92 272.309C302.771 271.956 302.523 271.72 302.221 271.648L295.647 270.075C295.498 270.041 295.407 269.841 295.445 269.633C295.483 269.424 295.639 269.284 295.789 269.32L302.363 270.893C302.812 270.999 303.194 271.363 303.415 271.886C303.641 272.417 303.683 273.052 303.534 273.673C303.258 274.836 302.353 275.582 301.473 275.369L295.063 273.837C295.046 273.837 295.029 273.83 295.012 273.822Z" fill="#F07162"/>
<path d="M311.681 263.399C311.842 264.717 311.268 265.826 311.052 265.858L303.77 266.882C302.969 266.995 302.17 266.289 301.98 265.197C301.764 263.947 302.374 262.787 303.273 262.659L310.068 261.703C310.822 261.597 311.587 262.634 311.681 263.399Z" fill="#FE9F73"/>
<path d="M311.213 267.42C311.338 267.363 311.419 267.188 311.4 266.999C311.377 266.78 311.228 266.621 311.068 266.644L303.719 266.485C303.034 266.58 302.39 265.958 302.256 265.065C302.184 264.587 302.256 264.113 302.458 263.728C302.66 263.344 302.964 263.105 303.313 263.057L309.978 262.119C310.137 262.094 310.248 261.9 310.227 261.681C310.203 261.463 310.057 261.301 309.897 261.324L303.232 262.262C302.728 262.332 302.273 262.691 301.98 263.244C301.685 263.805 301.578 264.5 301.685 265.197C301.882 266.504 302.813 267.418 303.802 267.28L311.151 267.439C311.172 267.435 311.194 267.429 311.213 267.42Z" fill="#F07162"/>
<path d="M469.883 258.891C464.522 267.273 443.551 274.804 443.551 274.804L441.362 269.622L441.107 269.012C441.324 271.89 441.426 301.348 441.466 317.979H363.239C366.466 299.822 370.228 276.3 372.595 261.21L372.597 261.195C374.015 252.149 374.933 246.141 374.933 246.141C374.933 246.141 381.545 203.314 385.841 203C392.091 202.541 399.065 202.645 408.242 203.656L438.814 211.174C441.689 211.797 446.741 215.108 449.866 219.197C450.133 219.546 450.382 219.901 450.62 220.26C452.826 223.622 469.883 258.891 469.883 258.891Z" fill="#187C77"/>
<path d="M470.515 281.813C470.621 281.785 470.721 281.73 470.804 281.647L478.019 274.449C478.27 274.198 478.272 273.79 478.019 273.539C477.769 273.288 477.36 273.286 477.11 273.537L469.894 280.736C469.643 280.986 469.641 281.394 469.894 281.645C470.062 281.813 470.3 281.868 470.515 281.813Z" fill="#F07162"/>
<path d="M443.65 275.176C443.665 275.171 443.678 275.167 443.691 275.163C467.676 265.877 470.154 259.29 470.248 259.014L470.299 258.861L470.228 258.717L451.869 221.671C451.827 221.59 447.929 214.209 439.614 210.993C439.417 210.917 439.191 211.014 439.115 211.214C439.038 211.414 439.136 211.637 439.336 211.714C447.37 214.821 451.142 221.95 451.181 222.02L469.455 258.895C468.96 259.864 465.064 266.055 443.412 274.44C443.213 274.517 443.115 274.74 443.191 274.94C443.264 275.127 443.463 275.227 443.65 275.176Z" fill="black"/>
<path d="M430.001 216.579C430.058 216.564 430.113 216.534 430.16 216.492C430.319 216.349 430.332 216.105 430.19 215.945L427.233 212.655C427.091 212.496 426.846 212.483 426.689 212.626C426.53 212.768 426.517 213.012 426.659 213.172L429.616 216.462C429.714 216.575 429.864 216.613 430.001 216.579Z" fill="black"/>
<path d="M432.185 217.101C432.238 217.088 432.287 217.063 432.332 217.027C432.495 216.891 432.521 216.648 432.385 216.483L429.462 212.935C429.326 212.772 429.084 212.746 428.918 212.882C428.755 213.018 428.729 213.261 428.865 213.426L431.787 216.974C431.887 217.095 432.045 217.139 432.185 217.101Z" fill="black"/>
<path d="M403.271 219.429C403.409 219.393 403.522 219.28 403.552 219.131C403.594 218.923 403.458 218.719 403.248 218.676C395.762 217.184 396.379 206.664 396.387 206.557C396.402 206.345 396.24 206.16 396.028 206.147C395.815 206.132 395.63 206.294 395.618 206.506C395.609 206.619 394.946 217.809 403.099 219.435C403.159 219.446 403.216 219.444 403.271 219.429Z" fill="black"/>
<path d="M400.946 172.972L399.118 192.05C399.118 192.05 398.274 198.158 403.566 199.439L401.781 207.527C401.118 210.532 402.656 213.618 405.49 214.823C406.875 215.412 408.548 215.905 410.482 216.092C416.616 216.681 420.378 212.398 421.109 210.147C421.84 207.896 421.36 196.761 421.36 196.761L422.063 191.38L423.37 170.392L400.946 172.972Z" fill="#FE9F73"/>
<path d="M416.505 195.423C416.505 195.423 415.162 205.652 402.248 205.404L403.566 199.44C403.566 199.44 411.719 201.907 416.505 195.423Z" fill="#F07162"/>
<path d="M414.791 184.398C414.855 184.405 414.921 184.388 414.974 184.343C415.085 184.256 415.104 184.094 415.017 183.982C414.985 183.941 411.816 180.009 408.356 182.29C408.237 182.369 408.205 182.528 408.283 182.645C408.362 182.764 408.521 182.796 408.638 182.717C411.703 180.698 414.498 184.152 414.615 184.298C414.659 184.358 414.723 184.392 414.791 184.398Z" fill="black"/>
<path d="M423.856 182.56L418.23 183.178L417.134 184.116C417.134 184.116 418.498 174.915 419.71 173.197C420.923 171.48 423.856 182.56 423.856 182.56Z" fill="#E23E3D"/>
<path d="M404.406 181.854C404.478 181.861 404.55 181.837 404.608 181.784C404.71 181.686 404.714 181.525 404.616 181.421C404.523 181.321 402.285 179.004 400.616 180.177C400.499 180.258 400.472 180.42 400.555 180.534C400.635 180.651 400.797 180.679 400.912 180.596C402.219 179.676 404.225 181.752 404.244 181.773C404.289 181.822 404.346 181.85 404.406 181.854Z" fill="black"/>
<path d="M409.524 184.936C409.484 185.359 409.794 185.735 410.217 185.776C410.64 185.816 411.016 185.506 411.056 185.083C411.097 184.66 410.787 184.284 410.364 184.243C409.941 184.201 409.564 184.511 409.524 184.936Z" fill="black"/>
<path d="M401.45 183.386C401.409 183.809 401.72 184.186 402.143 184.226C402.566 184.266 402.942 183.956 402.982 183.533C403.023 183.11 402.712 182.734 402.289 182.694C401.866 182.653 401.49 182.964 401.45 183.386Z" fill="black"/>
<path d="M424.059 188.663C425.692 186.702 425.425 183.788 423.463 182.156C421.502 180.523 418.588 180.79 416.956 182.752C415.323 184.713 415.59 187.627 417.552 189.259C419.513 190.892 422.427 190.625 424.059 188.663Z" fill="#FE9F73"/>
<path d="M421.042 188.347C421.999 188.439 422.704 187.782 422.983 187.085C423.312 186.26 423.106 185.408 422.458 184.913C421.499 184.184 420.536 184.5 420.035 184.766C420.284 184.262 420.632 183.914 421.072 183.722C422.026 183.31 423.115 183.782 423.125 183.786C423.189 183.816 423.265 183.786 423.295 183.72C423.323 183.656 423.295 183.58 423.229 183.55C423.18 183.529 422.031 183.029 420.972 183.484C420.362 183.748 419.912 184.273 419.637 185.046L419.484 185.48L419.841 185.187C419.892 185.144 421.087 184.186 422.303 185.112C422.976 185.625 422.962 186.441 422.745 186.985C422.519 187.548 421.946 188.173 421.068 188.088C421.059 188.088 421.051 188.086 421.042 188.086C420.972 188.079 420.911 188.13 420.902 188.201C420.894 188.271 420.945 188.334 421.015 188.343C421.023 188.345 421.034 188.347 421.042 188.347Z" fill="#F07162"/>
<path d="M406.326 189.848C406.38 189.852 406.433 189.824 406.456 189.771C406.484 189.705 406.456 189.631 406.39 189.601L403.91 188.509L405.298 182.558C405.315 182.49 405.27 182.419 405.202 182.405C405.132 182.388 405.064 182.432 405.047 182.5L403.612 188.657L406.288 189.835C406.299 189.841 406.312 189.845 406.326 189.848Z" fill="#F07162"/>
<path d="M408.071 192.526C407.995 192.502 403.023 191.909 403.023 191.909C403.023 191.909 403.451 194.029 405.298 194.256C407.145 194.479 408.071 192.526 408.071 192.526Z" fill="#FBFDFC"/>
<path d="M423.856 182.56C423.856 182.56 426.268 173.752 423.845 170.152C421.422 166.551 406.245 159.2 404.177 160.685C402.109 162.171 403.822 164.381 403.822 164.381C403.822 164.381 397.697 161.748 395.728 167.215C393.76 172.681 407.125 176.369 415.484 174.524C415.484 174.524 420.695 176.602 423.856 182.56Z" fill="#E23E3D"/>
<path d="M455.73 182.417C455.73 182.417 451.777 175.282 459.705 168.296C467.633 161.312 469.968 171.752 473.348 172.441C476.727 173.127 482.566 171.41 485.314 177.365C488.062 183.318 487.216 187.941 490.765 188.6C494.315 189.259 506.451 197.074 504.506 208.866C502.559 220.659 491.269 220.989 491.269 220.989C491.269 220.989 445.826 231.237 441.871 220.015C437.918 208.795 443.246 198.842 448.515 194.494C451.752 191.82 458.498 189.257 455.73 182.417Z" fill="#49263E"/>
<path d="M460.603 187.37C460.603 187.37 458.218 203.38 460.909 206.93C460.909 206.93 462.226 208.819 465.374 208.876V218.896H479.512V186.026L460.603 187.37Z" fill="#FE9F73"/>
<path d="M465.221 199.941C465.281 199.941 465.334 199.901 465.347 199.839C465.362 199.769 465.317 199.701 465.247 199.686C464.418 199.508 463.895 198.487 463.744 198.154C464.922 197.525 465.64 196.706 465.88 195.72C466.271 194.113 465.253 192.66 465.209 192.6C465.168 192.543 465.088 192.528 465.03 192.57C464.973 192.611 464.958 192.691 465 192.749C465.011 192.764 465.995 194.171 465.629 195.661C465.4 196.6 464.69 197.378 463.519 197.979L463.417 198.032L463.459 198.141C463.483 198.205 464.069 199.697 465.194 199.939C465.204 199.939 465.213 199.941 465.221 199.941Z" fill="#F07162"/>
<path d="M465.374 212.906V208.876C465.374 208.876 472.186 208.475 476.367 205.841C476.367 205.841 470.694 211.295 465.374 212.906Z" fill="#F07162"/>
<path d="M473.116 193.151C473.179 193.151 473.243 193.127 473.294 193.078C473.396 192.981 473.401 192.817 473.303 192.715C473.269 192.681 469.968 189.304 466.95 191.735C466.839 191.824 466.822 191.986 466.912 192.096C467.001 192.207 467.163 192.224 467.273 192.135C469.923 190.001 472.81 192.942 472.931 193.07C472.982 193.123 473.048 193.151 473.116 193.151Z" fill="black"/>
<path d="M464.162 192.587C464.234 192.587 464.306 192.558 464.357 192.498C464.451 192.39 464.438 192.228 464.332 192.135C464.234 192.052 461.941 190.088 460.487 191.338C460.378 191.431 460.366 191.593 460.459 191.701C460.553 191.81 460.714 191.822 460.823 191.729C461.941 190.77 463.975 192.507 463.994 192.526C464.043 192.566 464.102 192.587 464.162 192.587Z" fill="black"/>
<path d="M461.214 194.585C461.214 194.981 461.535 195.304 461.932 195.304C462.328 195.304 462.651 194.983 462.651 194.585C462.651 194.188 462.33 193.867 461.932 193.867C461.537 193.867 461.214 194.188 461.214 194.585Z" fill="#49263E"/>
<path d="M467.568 194.585C467.568 194.981 467.889 195.304 468.287 195.304C468.682 195.304 469.005 194.983 469.005 194.585C469.005 194.188 468.684 193.867 468.287 193.867C467.889 193.867 467.568 194.188 467.568 194.585Z" fill="#49263E"/>
<path d="M480.719 201.678C482.941 201.678 484.742 199.876 484.742 197.654C484.742 195.432 482.941 193.631 480.719 193.631C478.497 193.631 476.695 195.432 476.695 197.654C476.695 199.876 478.497 201.678 480.719 201.678Z" fill="#FE9F73"/>
<path d="M481.015 200.137C481.859 200.137 482.424 199.504 482.609 198.868C482.828 198.118 482.577 197.389 481.967 197.011C481.1 196.473 480.309 196.787 479.88 197.057C480.052 196.63 480.316 196.315 480.666 196.124C481.455 195.693 482.426 196.007 482.437 196.012C482.505 196.035 482.577 195.997 482.601 195.931C482.624 195.863 482.586 195.791 482.52 195.767C482.475 195.752 481.429 195.412 480.543 195.899C480.031 196.179 479.682 196.677 479.508 197.376L479.396 197.825L479.723 197.499C479.763 197.459 480.711 196.539 481.829 197.234C482.448 197.616 482.501 198.318 482.36 198.8C482.212 199.306 481.765 199.893 480.994 199.882C480.924 199.88 480.864 199.937 480.864 200.009C480.864 200.08 480.919 200.139 480.992 200.139C481 200.137 481.007 200.137 481.015 200.137Z" fill="#F07162"/>
<path d="M460.604 187.37C460.604 187.37 461.829 181.178 470.113 180.496C478.398 179.814 479.514 186.026 479.514 186.026L470.06 187.943L461.217 187.327L460.604 187.37Z" fill="#FE9F73"/>
<path d="M460.604 182.124C460.604 182.124 465.756 187.17 472.443 186.026C472.443 186.026 474.675 194.194 479.512 193.818C484.349 193.442 481.718 182.126 481.718 182.126C481.718 182.126 472.672 178.443 472.101 178.443C471.529 178.443 461.933 177.871 461.933 177.871L460.604 182.124Z" fill="#49263E"/>
<path d="M467.316 196.872C467.522 196.872 467.522 196.553 467.316 196.553C467.112 196.553 467.11 196.872 467.316 196.872Z" fill="#EA5942"/>
<path d="M468.285 197.448C468.492 197.448 468.492 197.129 468.285 197.129C468.079 197.129 468.079 197.448 468.285 197.448Z" fill="#EA5942"/>
<path d="M470.047 196.298C470.253 196.298 470.253 195.98 470.047 195.98C469.841 195.98 469.841 196.298 470.047 196.298Z" fill="#EA5942"/>
<path d="M471.554 197.448C471.76 197.448 471.76 197.129 471.554 197.129C471.35 197.129 471.348 197.448 471.554 197.448Z" fill="#EA5942"/>
<path d="M473.134 195.903C473.34 195.903 473.34 195.584 473.134 195.584C472.928 195.584 472.928 195.903 473.134 195.903Z" fill="#EA5942"/>
<path d="M473.709 198.203C473.915 198.203 473.915 197.884 473.709 197.884C473.504 197.882 473.502 198.203 473.709 198.203Z" fill="#EA5942"/>
<path d="M464.119 195.939C464.325 195.939 464.325 195.62 464.119 195.62C463.915 195.62 463.915 195.939 464.119 195.939Z" fill="#EA5942"/>
<path d="M462.935 197.231C463.141 197.231 463.141 196.913 462.935 196.913C462.729 196.913 462.729 197.231 462.935 197.231Z" fill="#EA5942"/>
<path d="M461.498 196.657C461.705 196.657 461.705 196.338 461.498 196.338C461.292 196.338 461.292 196.657 461.498 196.657Z" fill="#EA5942"/>
<path d="M461.39 198.921C461.596 198.921 461.596 198.602 461.39 198.602C461.184 198.6 461.184 198.921 461.39 198.921Z" fill="#EA5942"/>
<path d="M460.313 197.59C460.519 197.59 460.519 197.271 460.313 197.271C460.107 197.271 460.107 197.59 460.313 197.59Z" fill="#EA5942"/>
<path d="M460.562 195.616C460.768 195.616 460.768 195.297 460.562 195.297C460.358 195.297 460.358 195.616 460.562 195.616Z" fill="#EA5942"/>
<path d="M469.435 198.453C469.641 198.453 469.641 198.135 469.435 198.135C469.231 198.135 469.229 198.453 469.435 198.453Z" fill="#EA5942"/>
<path d="M433.485 252.525L429.912 317.77C429.912 317.77 452.635 301.853 453.736 299.798C454.837 297.743 456.401 276.009 456.533 268.982C456.664 261.956 449.355 248.085 449.355 248.085L433.485 252.525Z" fill="#FE9F73"/>
<path d="M494.779 281.834C499.446 290.714 505.765 302.274 512.124 317.962H426.981C432.584 294.068 440.461 284.249 440.461 281.112C438.898 257.237 439.404 257.329 437.404 256.591C431.936 254.574 435.991 256.357 430.18 252.198L431.885 244.249C435.581 229.954 439.47 223.191 440.155 222.494C442.62 219.986 454.405 218.521 457.783 218.115C457.936 218.017 473.183 217.875 475.368 218.094C486.843 217.835 496.749 217.45 507.431 225.62C512.224 231.403 520.651 241.569 529.113 253.388C523.535 258.638 513.193 265.08 503.349 268.23C502.777 268.421 503.191 268.908 501.23 264.595C501.085 264.971 495.306 280.423 494.779 281.834Z" fill="#FEC786"/>
<path d="M500.475 227.658C500.403 227.658 500.333 227.626 500.286 227.563C498.002 224.517 494.267 223.278 494.229 223.265C494.106 223.225 494.038 223.091 494.078 222.968C494.118 222.844 494.252 222.774 494.376 222.815C494.535 222.866 498.288 224.109 500.665 227.278C500.743 227.382 500.722 227.531 500.618 227.609C500.573 227.643 500.524 227.658 500.475 227.658Z" fill="#21111D"/>
<path d="M500.029 229.85C499.957 229.85 499.887 229.818 499.84 229.756C497.555 226.71 493.821 225.471 493.783 225.459C493.659 225.418 493.591 225.284 493.632 225.161C493.672 225.038 493.806 224.968 493.929 225.008C494.089 225.059 497.842 226.302 500.218 229.471C500.297 229.575 500.276 229.724 500.172 229.803C500.129 229.835 500.078 229.85 500.029 229.85Z" fill="#21111D"/>
<path d="M512.479 317.979H511.561C508.432 310.005 505.41 303.257 502.796 297.841C502.262 296.734 501.746 295.686 501.251 294.691C497.185 286.566 494.424 282.207 494.343 282.086L494.229 281.905L494.941 280.001V279.998L497.013 274.466L500.841 264.23L501.172 263.346L503.108 267.854C503.115 267.852 503.119 267.852 503.125 267.848C503.757 267.644 504.377 267.435 504.983 267.223L505.127 267.62L505.274 268.026C504.543 268.281 503.795 268.532 503.034 268.774C503.028 268.776 503.025 268.776 503.019 268.781C503.004 268.787 502.991 268.789 502.977 268.791L502.626 268.902L502.496 268.589C502.486 268.57 502.477 268.551 502.469 268.528L501.225 265.635L498.184 273.769L496.156 279.184L495.179 281.803C495.748 282.721 498.375 287.027 502.046 294.372C502.539 295.359 503.053 296.402 503.58 297.497C506.235 302.997 509.304 309.86 512.479 317.979Z" fill="black"/>
<path d="M529.683 253.584L529.441 253.837C529.413 253.864 528.55 254.749 526.886 256.113C526.689 256.275 526.48 256.445 526.257 256.621C526.142 256.345 526.03 256.073 525.915 255.803C527.279 254.704 528.172 253.875 528.576 253.486C526.582 250.642 510.714 228.16 503.919 223.533C501.492 221.88 498.497 220.772 495.592 220.03C492.4 219.216 489.316 218.842 487.212 218.67C486.653 218.626 486.16 218.592 485.758 218.57C485.741 218.57 485.722 218.568 485.705 218.568C484.95 218.53 484.504 218.524 484.481 218.524C484.415 218.524 484.353 218.509 484.298 218.479C484.155 218.413 484.055 218.264 484.06 218.094C484.06 217.858 484.251 217.669 484.485 217.669H484.487C484.842 217.671 490.801 217.731 496.884 219.48C499.516 220.237 502.168 221.306 504.4 222.828C511.749 227.833 528.763 252.256 529.481 253.295L529.683 253.584Z" fill="black"/>
<path d="M502.867 268.804C502.918 268.804 502.969 268.795 503.018 268.776C503.239 268.693 503.35 268.446 503.267 268.225L496.098 249.273C496.015 249.054 495.771 248.942 495.548 249.025C495.327 249.108 495.216 249.354 495.299 249.575L502.468 268.527C502.534 268.697 502.695 268.804 502.867 268.804Z" fill="black"/>
<path d="M440.824 282.612L440.749 282.731C440.692 282.818 435.646 290.869 430.543 306.306V306.315C429.939 308.136 429.336 310.055 428.741 312.081C428.201 313.921 427.655 315.887 427.111 317.979H426.229C426.794 315.783 427.366 313.724 427.931 311.8C428.851 308.676 429.789 305.792 430.715 303.15C435.166 290.442 439.342 283.39 439.952 282.393L438.148 257.956C437.988 257.711 437.835 257.467 437.691 257.225C437.565 257.018 437.446 256.812 437.332 256.608C437.261 256.483 437.193 256.357 437.125 256.232V256.23C436.347 254.768 435.805 253.346 435.455 251.973C432.994 242.364 439.856 235.282 439.942 235.199C440.105 235.033 440.375 235.029 440.545 235.197C440.713 235.363 440.713 235.633 440.547 235.801C440.222 236.128 433.888 242.685 436.254 251.75C436.66 253.301 437.321 254.927 438.311 256.606C438.311 256.608 438.311 256.608 438.311 256.608C438.318 256.623 438.326 256.634 438.333 256.644L438.335 256.646C438.515 256.959 438.711 257.267 438.915 257.582L438.977 257.673L440.824 282.612Z" fill="black"/>
<path d="M445.727 257.943H469.293C469.529 257.943 469.72 257.752 469.72 257.516C469.72 257.28 469.529 257.088 469.293 257.088H445.727C445.491 257.088 445.3 257.28 445.3 257.516C445.3 257.752 445.491 257.943 445.727 257.943Z" fill="black"/>
<path d="M449.135 262.06H464.75C464.986 262.06 465.178 261.869 465.178 261.633C465.178 261.397 464.986 261.205 464.75 261.205H449.135C448.899 261.205 448.708 261.397 448.708 261.633C448.708 261.869 448.899 262.06 449.135 262.06Z" fill="black"/>
<path d="M437.956 257.267C438.164 257.267 438.345 257.116 438.377 256.906C438.413 256.672 438.254 256.455 438.02 256.419C434.058 255.809 431.199 252.628 430.575 251.877C430.747 251.208 430.972 250.26 431.248 249.089C433.072 241.389 437.34 223.359 441.869 221.765C447.271 219.863 456.338 218.734 456.43 218.723C456.664 218.696 456.829 218.481 456.802 218.247C456.772 218.014 456.557 217.852 456.326 217.875C456.234 217.886 447.076 219.025 441.586 220.959C436.619 222.708 432.432 240.392 430.419 248.891C430.113 250.185 429.871 251.208 429.697 251.869L429.644 252.071L429.769 252.236C429.903 252.411 433.08 256.521 437.892 257.263C437.913 257.265 437.935 257.267 437.956 257.267Z" fill="black"/>
<path d="M463.951 201.722C464.023 201.695 468.765 200.738 468.765 200.738C468.765 200.738 468.516 202.813 466.757 203.172C464.995 203.533 463.951 201.722 463.951 201.722Z" fill="#FBFDFC"/>
<path d="M526.256 256.623C522.605 259.535 515.848 264.162 506.237 267.675C505.921 267.792 505.6 267.909 505.275 268.023L504.983 267.22C515.185 263.639 522.252 258.75 525.914 255.807C526.029 256.075 526.144 256.347 526.256 256.623Z" fill="black"/>
<path d="M530.602 274.164C523.843 283.688 512.706 290.115 502.049 294.372C501.781 294.48 501.518 294.582 501.254 294.689C486.787 300.336 473.433 302.002 473.433 302.002L472.043 289.267L497.016 274.461L498.187 273.766L505.737 269.29L505.278 268.021C505.603 267.907 505.924 267.79 506.24 267.673C515.854 264.157 522.608 259.533 526.259 256.621C529.112 263.411 532.444 271.567 530.602 274.164Z" fill="#FE9F73"/>
<path d="M515.8 271.989C515.812 271.96 515.825 271.926 515.834 271.894C515.919 271.566 515.721 271.233 515.394 271.148L506.008 268.729C505.681 268.644 505.347 268.842 505.262 269.169C505.177 269.496 505.375 269.83 505.702 269.915L515.088 272.334C515.381 272.408 515.681 272.257 515.8 271.989Z" fill="#F07162"/>
<path d="M470.958 283.803L471.668 270.842L451.083 269.714L450.373 282.674C450.087 287.905 453.934 292.425 459.126 293.201L458.252 309.122L449.766 311.89L458.076 312.344L459.066 312.4L460.057 312.455L468.367 312.91L460.233 309.231L461.107 293.31C466.354 293.108 470.671 289.033 470.958 283.803Z" fill="#E3F2FF"/>
<path d="M451.112 281.949C451.101 282.064 451.09 282.177 451.084 282.291C450.793 287.596 454.859 292.134 460.164 292.423C465.469 292.714 470.006 288.648 470.295 283.344C470.302 283.229 470.304 283.114 470.306 282.999L451.112 281.949Z" fill="#A51134"/>
<path d="M470.307 283.003C470.29 283.32 465.979 283.339 460.679 283.048C455.378 282.757 451.095 282.266 451.112 281.949C451.129 281.632 455.44 281.613 460.74 281.904C466.041 282.195 470.324 282.686 470.307 283.003Z" fill="#B52A52"/>
<path d="M455.553 293.473C454.146 292.047 455.451 290.236 455.451 290.236C454.928 288.079 455.887 286.955 455.887 286.955C455.887 286.955 461.426 288.891 464.79 290.138C466.688 289.854 467.36 288.927 467.36 288.927L467.409 289.006C467.447 287.36 467.494 285.303 467.494 285.071C467.494 284.678 468.123 284.051 469.103 285.292C470.082 286.536 472.329 289.664 472.329 289.664L476.882 286.997L482.191 300.183C482.191 300.183 469.332 302.946 467.502 303.076C465.672 303.205 458.935 301.224 457.041 299.656C455.145 298.085 455.555 296.68 455.555 296.68C454.146 294.986 455.553 293.473 455.553 293.473Z" fill="#FE9F73"/>
<path d="M459.478 292.355C459.572 292.355 459.659 292.296 459.688 292.202C459.727 292.086 459.663 291.962 459.546 291.924C457.92 291.397 455.584 290.056 455.561 290.043C455.455 289.981 455.321 290.02 455.259 290.124C455.197 290.23 455.236 290.364 455.34 290.426C455.438 290.481 457.739 291.803 459.41 292.345C459.433 292.353 459.457 292.355 459.478 292.355Z" fill="#F07162"/>
<path d="M459.478 295.15C459.582 295.15 459.676 295.076 459.695 294.969C459.716 294.85 459.637 294.736 459.518 294.712C457.476 294.332 455.684 293.293 455.665 293.282C455.559 293.22 455.425 293.256 455.363 293.361C455.302 293.467 455.338 293.601 455.442 293.662C455.518 293.707 457.316 294.748 459.438 295.146C459.45 295.15 459.463 295.15 459.478 295.15Z" fill="#F07162"/>
<path d="M458.985 298.338C459.087 298.338 459.178 298.268 459.199 298.164C459.225 298.045 459.15 297.928 459.031 297.902C457.278 297.522 455.686 296.508 455.669 296.498C455.567 296.432 455.431 296.461 455.365 296.563C455.299 296.665 455.329 296.801 455.431 296.867C455.499 296.91 457.106 297.934 458.938 298.332C458.955 298.336 458.97 298.338 458.985 298.338Z" fill="#F07162"/>
<path d="M385.843 203.002C385.843 203.002 382.159 203.82 380.723 205.408C374.276 212.53 360.519 246.7 358.047 253.28C358.047 253.28 366.574 264.695 376.089 265.329C385.605 265.962 389.143 217.992 389.143 217.992L385.843 203.002Z" fill="#187C77"/>
<path d="M126.964 317.979H55.6787C55.7892 313.981 56.1909 309.839 56.9029 305.7V305.692C56.9561 305.377 57.0113 305.063 57.073 304.75C58.5544 296.659 61.2387 288.636 65.2897 281.809C67.872 277.46 71.6935 274.946 76.2312 273.756C76.5032 273.684 76.7753 273.618 77.0537 273.554H77.0558C82.6924 272.294 89.3448 272.95 96.0823 274.598H96.0844C96.9239 274.802 97.7613 275.021 98.6009 275.256H98.6072C104.384 276.863 110.133 279.11 115.262 281.412C115.498 281.518 115.731 281.622 115.963 281.73C118.029 282.668 119.986 283.609 121.797 284.519C122.125 284.683 122.448 284.846 122.769 285.008C123.893 285.579 124.954 286.136 125.942 286.665C126.08 286.74 126.22 286.812 126.356 286.884C126.371 286.893 126.382 286.901 126.395 286.906C126.384 286.916 126.373 286.931 126.361 286.942C126.244 287.076 126.129 287.205 126.018 287.333C124.446 289.127 123.321 290.406 123.321 290.406L123.655 292.3L124.044 294.495L124.169 295.235L124.482 297.103L124.915 299.681L124.994 300.149L125.039 300.41L125.325 302.117L126.418 310.74L126.964 317.979Z" fill="#4CB7D8"/>
<path d="M132.515 266.778L174.791 260.668C174.791 260.668 180.74 279.108 179.509 289.367C179.509 289.367 140.23 299.97 131.992 298.923C123.754 297.875 115.355 286.081 115.355 286.081C115.355 286.081 114.047 224.632 115.28 225.582C116.511 226.534 132.515 266.778 132.515 266.778Z" fill="#4CB7D8"/>
<path d="M133.495 284.659C133.495 284.659 131.195 286.474 126.989 289.73C126.897 289.8 126.802 289.872 126.706 289.949C126.572 290.051 126.434 290.157 126.294 290.265C125.48 290.897 124.598 291.575 123.652 292.302C123.461 292.452 123.263 292.605 123.063 292.759C122.764 292.99 122.457 293.226 122.143 293.468C122.122 293.483 122.1 293.498 122.079 293.515C120.511 294.718 118.798 296.032 116.944 297.443C114.581 299.245 111.994 301.207 109.204 303.317H109.201C109.019 303.453 108.834 303.594 108.651 303.732C108.362 303.949 108.079 304.165 107.792 304.389L107.79 304.391C101.884 308.92 96.5937 313.764 92.3429 317.978H78.6363C78.0072 315.581 77.5332 313.768 77.529 313.768C74.5896 313.938 65.8096 313.666 57.0296 305.802C57.0211 305.794 57.0126 305.787 57.0041 305.781C56.9701 305.751 56.9404 305.719 56.9064 305.691C55.2847 304.229 53.6673 302.506 52.086 300.476C44.7088 291.02 41.6376 271.254 40.5558 250.633C40.458 248.812 40.3815 246.986 40.3135 245.158C40.3135 245.158 40.4049 242.82 40.7768 239.324C40.7768 239.322 40.7768 239.322 40.7768 239.318C41.8395 229.331 45.1849 209.909 55.1444 208.53C57.7438 208.17 61.6247 207.843 65.7862 207.562C66.8659 207.49 67.9626 207.42 69.0636 207.354H69.0657C75.191 206.982 81.3462 206.714 84.4938 206.587C85.8413 206.532 86.6384 206.504 86.6384 206.504C86.6384 206.504 89.667 207.299 88.7021 206.853C90.4641 207.165 92.1197 207.545 93.6713 207.983C93.7053 207.992 93.735 208 93.7648 208.011C103.182 210.7 108.787 215.55 112.096 220.009C112.096 220.009 112.098 220.011 112.105 220.017C112.115 220.032 112.126 220.047 112.134 220.062C113.331 221.679 114.222 223.246 114.885 224.638C114.887 224.644 114.891 224.648 114.893 224.655C115.057 224.991 115.206 225.316 115.337 225.632V225.635C116.445 228.23 116.71 230.009 116.71 230.009L125.622 268.901L125.703 269.054L129.267 275.911C129.276 275.925 129.282 275.938 129.288 275.953C131.354 279.932 133.495 284.659 133.495 284.659Z" fill="#4CB7D8"/>
<path d="M69.8803 205.784C69.8803 205.784 54.6497 205.251 47.3809 209.37C36.5308 215.516 40.3969 250.719 40.3969 250.719C40.3969 250.719 49.6168 245.69 50.1758 244.013C50.7327 242.336 69.8803 205.784 69.8803 205.784Z" fill="#4CB7D8"/>
<path d="M65.9747 311.009C66.9587 311.381 67.8854 311.672 68.7398 311.898C73.8705 313.258 77.4539 312.693 77.6048 312.669C77.8322 312.631 77.9873 312.416 77.9491 312.189C77.9129 311.961 77.6962 311.806 77.4687 311.842C77.4326 311.849 73.879 312.404 68.9119 311.077C64.3317 309.855 57.573 306.733 51.3903 298.805C43.6305 288.854 40.7974 258.217 40.7272 235.003C40.7272 234.772 40.5381 234.585 40.3064 234.585C40.0747 234.585 39.8877 234.774 39.8877 235.006C39.9578 258.351 42.8377 289.201 50.7272 299.32C55.9195 305.979 61.5241 309.328 65.9747 311.009Z" fill="#21111D"/>
<path d="M78.5372 222.345C78.8624 222.379 79.1919 222.406 79.5277 222.43C79.7189 222.443 79.8869 222.298 79.8996 222.107C79.9124 221.915 79.7742 221.75 79.5765 221.735C65.1431 220.721 62.463 210.156 62.4438 210.049C62.4077 209.864 62.2313 209.735 62.0443 209.767C61.8572 209.799 61.7297 209.969 61.7552 210.156C61.7701 210.266 64.4332 220.887 78.5372 222.345Z" fill="#21111D"/>
<path d="M77.5254 275.607C74.9325 264.291 70.348 244.506 68.3331 230.625C68.2991 230.396 68.0802 230.241 67.8528 230.277C67.6233 230.313 67.4681 230.528 67.5042 230.757C69.874 245.656 74.8049 267.577 76.705 275.836L77.5254 275.607Z" fill="#21111D"/>
<path d="M83.2996 172.672L85.9499 189.869C85.9499 189.869 87.087 195.643 82.1136 197.154L84.2581 204.763C85.0551 207.592 83.7565 210.617 81.1232 211.919C79.8352 212.557 78.2666 213.118 76.4346 213.401C70.6216 214.296 66.8023 210.423 65.9819 208.317C65.1615 206.213 65.0106 195.573 65.0106 195.573L64.0457 190.483L61.6504 170.553L83.2996 172.672Z" fill="#FE9F73"/>
<path d="M70.5915 183.433C70.532 183.442 70.4683 183.429 70.413 183.391C70.3025 183.312 70.2749 183.161 70.3535 183.049C70.3811 183.008 73.1866 179.087 76.6085 181.072C76.7254 181.14 76.7658 181.289 76.6978 181.406C76.6298 181.523 76.481 181.563 76.362 181.495C73.329 179.737 70.8572 183.183 70.7531 183.329C70.7148 183.389 70.6532 183.423 70.5915 183.433Z" fill="#49263E"/>
<path d="M80.3514 180.441C80.2834 180.451 80.2111 180.432 80.1559 180.385C80.0539 180.298 80.0411 180.143 80.1282 180.041C80.2133 179.941 82.2196 177.61 83.8732 178.636C83.9879 178.709 84.0241 178.859 83.9518 178.974C83.8795 179.089 83.7286 179.125 83.6139 179.053C82.3195 178.247 80.5193 180.337 80.5023 180.358C80.4598 180.405 80.4067 180.432 80.3514 180.441Z" fill="#49263E"/>
<path d="M75.6401 183.656C75.7018 184.058 75.4276 184.432 75.0259 184.496C74.6242 184.557 74.2501 184.283 74.1864 183.882C74.1248 183.48 74.3989 183.106 74.8006 183.042C75.2023 182.978 75.5785 183.255 75.6401 183.656Z" fill="black"/>
<path d="M83.2505 181.739C83.3121 182.141 83.038 182.515 82.6363 182.579C82.2346 182.641 81.8605 182.366 81.7967 181.965C81.7351 181.563 82.0093 181.189 82.411 181.125C82.8127 181.064 83.1889 181.34 83.2505 181.739Z" fill="black"/>
<path d="M62.4763 171.406L67.4157 176.522C67.4157 176.522 80.4358 179.399 85.8619 172.777C91.288 166.156 88.9309 163.739 86.6504 161.195C85.5261 159.941 80.744 157.771 75.7812 160.957C73.0713 162.696 70.3274 159.174 67.235 161.635C64.1426 164.094 60.6612 168.067 61.3116 169.325C61.9619 170.585 62.4763 171.406 62.4763 171.406Z" fill="#49263E"/>
<path d="M62.3468 168.945C62.3468 168.945 56.7146 169.538 55.9834 175.159C55.2523 180.781 57.7858 183.276 58.0876 184.872C58.3894 186.468 58.9675 197.455 66.4382 195.476L65.7347 177.291L61.9962 170.585L62.3468 168.945Z" fill="#49263E"/>
<path d="M68.4502 188.032C70.1204 186.259 70.0371 183.468 68.2641 181.798C66.4912 180.128 63.7001 180.211 62.0299 181.984C60.3598 183.757 60.4431 186.548 62.216 188.219C63.9889 189.889 66.7801 189.805 68.4502 188.032Z" fill="#FE9F73"/>
<path d="M65.3276 187.722C64.4222 187.863 63.7123 187.274 63.4084 186.626C63.0492 185.859 63.198 185.034 63.7888 184.528C64.6624 183.78 65.5954 184.029 66.0906 184.256C65.8271 183.791 65.4764 183.476 65.045 183.319C64.114 182.979 63.1002 183.487 63.0917 183.493C63.0322 183.525 62.9578 183.499 62.9259 183.44C62.8941 183.38 62.9196 183.306 62.9791 183.274C63.0237 183.251 64.0949 182.713 65.1278 183.087C65.7251 183.304 66.182 183.78 66.4838 184.505L66.6539 184.911L66.2989 184.651C66.2479 184.615 65.0556 183.767 63.9483 184.715C63.334 185.24 63.3935 186.018 63.6294 186.524C63.876 187.049 64.4562 187.612 65.2894 187.482C65.2979 187.48 65.3064 187.478 65.3149 187.478C65.3808 187.467 65.4424 187.512 65.4551 187.578C65.4658 187.644 65.4211 187.708 65.3553 187.718C65.3446 187.72 65.3361 187.72 65.3276 187.722Z" fill="#F07162"/>
<path d="M69.5596 194.033C69.5596 194.033 71.4002 203.71 83.6934 202.766L82.1121 197.155C82.1121 197.153 74.4756 199.952 69.5596 194.033Z" fill="#F07162"/>
<path d="M86.3711 187.002C86.3711 187.002 89.7504 198.402 82.0799 200.009C71.1065 202.307 69.0619 196.156 67.6082 191.091L65.8526 180.445L65.7314 177.295C66.6496 178.058 67.2979 179.095 67.5848 180.256C68.2075 182.779 69.8356 189.58 70.5221 189.786C71.4912 190.077 84.4773 186.145 86.3711 187.002Z" fill="#49263E"/>
<path d="M78.9578 188.162C78.9068 188.171 78.8536 188.145 78.8302 188.096C78.7984 188.037 78.8239 187.963 78.8834 187.931L81.1873 186.753L79.5401 181.159C79.521 181.093 79.5571 181.025 79.623 181.006C79.6889 180.985 79.7569 181.023 79.776 181.089L81.4806 186.879L78.996 188.147C78.9833 188.158 78.9705 188.16 78.9578 188.162Z" fill="#F07162"/>
<path d="M77.4434 190.81C77.5156 190.785 82.2191 189.945 82.2191 189.945C82.2191 189.945 81.9279 191.99 80.1809 192.304C78.4317 192.623 77.4434 190.81 77.4434 190.81Z" fill="#FBFDFC"/>
<path d="M165.493 200.761C169.72 207.852 168.171 241.864 168.171 241.864L165.709 241.707C165.639 240.872 165.235 238.466 165.235 238.466L164.288 241.615L154.717 241.001L150.932 193.516C150.932 193.516 161.265 193.671 165.493 200.761Z" fill="#FEC786"/>
<path d="M160.621 204.817C160.621 204.817 166.942 223.775 156.713 227.029L157.235 240.532L142.704 237.915L140.787 194.468C140.787 194.468 145.083 194.806 145.097 195.159C145.112 195.508 160.621 204.817 160.621 204.817Z" fill="#FE9F73"/>
<path d="M156.463 217.882C156.401 217.884 156.346 217.846 156.329 217.784C156.31 217.714 156.352 217.642 156.422 217.623C157.262 217.404 157.751 216.335 157.891 215.988C156.658 215.397 155.884 214.594 155.595 213.597C155.124 211.971 156.099 210.439 156.139 210.375C156.18 210.313 156.261 210.296 156.322 210.337C156.384 210.377 156.401 210.458 156.361 210.519C156.352 210.534 155.408 212.018 155.848 213.527C156.125 214.477 156.885 215.242 158.112 215.803L158.22 215.852L158.182 215.965C158.161 216.031 157.627 217.584 156.49 217.882C156.482 217.88 156.471 217.882 156.463 217.882Z" fill="#F07162"/>
<path d="M156.893 231.151L156.71 227.029C156.71 227.029 149.724 226.927 145.331 224.422C145.331 224.422 151.38 229.744 156.893 231.151Z" fill="#F07162"/>
<path d="M150.731 217.79C150.812 217.807 155.618 219.639 155.618 219.639C155.618 219.639 154.217 221.363 152.427 220.687C150.64 220.009 150.731 217.79 150.731 217.79Z" fill="#FBFDFC"/>
<path d="M155.427 197.924C155.427 197.924 153.891 206.955 145.623 210.825C137.355 214.696 142.722 225.769 142.722 225.769L134.152 214.113C134.152 214.113 133.704 197.954 140.785 194.466C145.937 191.928 156.054 192.802 155.427 197.924Z" fill="#FEC786"/>
<path d="M149.76 209.807C149.836 209.839 149.928 209.833 150.002 209.784C150.021 209.771 151.862 208.585 153.768 209.157C153.906 209.199 154.053 209.121 154.093 208.98C154.136 208.842 154.057 208.696 153.917 208.655C151.775 208.013 149.796 209.291 149.713 209.346C149.592 209.425 149.56 209.588 149.639 209.707C149.668 209.754 149.711 209.788 149.76 209.807Z" fill="#FEC786"/>
<path d="M161.053 210.322C161.136 210.328 161.221 210.296 161.278 210.228C161.37 210.118 161.355 209.952 161.242 209.86C161.166 209.797 159.334 208.315 157.136 208.728C156.994 208.753 156.9 208.891 156.928 209.034C156.953 209.176 157.091 209.269 157.234 209.242C159.195 208.874 160.894 210.251 160.911 210.264C160.953 210.298 161.002 210.317 161.053 210.322Z" fill="#FEC786"/>
<path d="M154.966 201.399L151.26 198.194L154.078 201.986L154.966 201.399Z" fill="#FE9F73"/>
<path d="M131.493 204.91C133.113 195.705 143.13 193.622 143.13 193.622L143.468 211.482C143.468 211.482 142.832 228.128 144.195 239.662L144.528 241.834C144.528 241.834 140.881 241.764 136.69 241.099C136.322 239.407 135.71 236.657 135.71 236.657L134.769 240.757C133.84 240.572 132.907 240.355 132.004 240.1C132.001 240.1 130.176 212.391 131.493 204.91Z" fill="#FEC786"/>
<path d="M142.545 218.52C144.604 217.552 145.488 215.099 144.521 213.04C143.553 210.981 141.099 210.097 139.04 211.065C136.981 212.033 136.097 214.487 137.065 216.545C138.033 218.604 140.487 219.488 142.545 218.52Z" fill="#FE9F73"/>
<path d="M140.592 217.338C139.729 217.376 139.123 216.753 138.904 216.113C138.645 215.357 138.87 214.6 139.478 214.184C140.341 213.593 141.163 213.88 141.614 214.137C141.418 213.708 141.134 213.397 140.768 213.217C139.943 212.811 138.961 213.176 138.953 213.18C138.885 213.206 138.808 213.172 138.783 213.104C138.757 213.036 138.791 212.959 138.859 212.934C138.904 212.917 139.958 212.522 140.887 212.979C141.423 213.242 141.801 213.735 142.011 214.443L142.145 214.896L141.795 214.577C141.752 214.539 140.74 213.64 139.629 214.4C139.015 214.821 138.991 215.54 139.157 216.026C139.331 216.539 139.814 217.117 140.604 217.072C140.677 217.068 140.74 217.123 140.745 217.195C140.749 217.268 140.694 217.331 140.621 217.336C140.609 217.338 140.6 217.338 140.592 217.338Z" fill="#F07162"/>
<path d="M145.871 289.348C145.967 289.348 146.063 289.299 146.118 289.208C146.205 289.065 146.165 288.876 146.031 288.787L139.244 284.188C139.11 284.096 138.932 284.137 138.847 284.281C138.76 284.424 138.8 284.613 138.934 284.702L145.72 289.303L145.871 289.348Z" fill="#20111D"/>
<path d="M203.909 317.978H166.481C165.526 316.524 164.868 315.485 164.585 315.034C164.483 314.873 164.43 314.788 164.43 314.788L169.888 310.271L170.729 309.576L171.144 309.1L173.86 305.991C173.862 305.991 173.862 305.989 173.866 305.985L177.386 301.955C177.386 301.953 177.388 301.948 177.388 301.948L180.782 298.061L187.027 288.303L187.125 288.476L187.188 288.586L203.909 317.978Z" fill="#FE9F73"/>
<path d="M171.18 277.154C171.18 277.154 171.401 277.428 173.154 272.831C174.908 268.234 170.517 266.816 170.517 266.816C170.517 266.816 168.878 276.289 171.18 277.154Z" fill="#EA283C"/>
<path d="M150.023 267.154C150.023 267.154 169.828 284.336 176.232 286.576C182.635 288.816 236.529 268.54 236.529 268.54L234.459 250.538L184.132 261.146L163.651 245.231L150.023 267.154Z" fill="#FE9F73"/>
<path d="M179.143 271.202C179.245 271.144 179.332 271.059 179.394 270.951L184.794 261.563C184.984 261.236 184.871 260.817 184.544 260.63C184.216 260.441 183.798 260.555 183.611 260.881L178.21 270.268C178.021 270.596 178.133 271.014 178.461 271.202C178.68 271.327 178.939 271.318 179.143 271.202Z" fill="#F07162"/>
<path d="M163.438 244.16L182.112 258.978C182.112 258.978 165.035 283.46 167.092 284.357L143.426 267.292L163.438 244.16Z" fill="#ED2B47"/>
<path d="M181.766 259.118C181.888 259.201 182.053 259.175 182.145 259.058C182.242 258.937 182.221 258.759 182.098 258.663L163.958 244.295C163.837 244.198 163.658 244.219 163.562 244.342C163.465 244.463 163.486 244.642 163.609 244.737L181.749 259.105C181.756 259.109 181.76 259.114 181.766 259.118Z" fill="#21111D"/>
<path d="M166.935 284.589C167.058 284.674 167.228 284.646 167.32 284.525C167.413 284.4 167.388 284.223 167.262 284.13C167.171 284 166.943 282.91 172.021 274.704C174.705 270.368 177.56 266.164 177.587 266.124C177.674 265.994 177.642 265.82 177.513 265.733C177.383 265.645 177.209 265.679 177.122 265.807C177.092 265.849 174.15 270.183 171.426 274.595C165.787 283.732 166.554 284.306 166.922 284.585C166.926 284.585 166.931 284.587 166.935 284.589Z" fill="#21111D"/>
<path d="M246.565 249.617L246.982 249.209C248.212 249.19 250.678 248.992 253.571 248.922C253.779 251.354 254.002 253.226 254.3 253.241L254.278 253.777C254.272 253.915 254.323 254.04 254.41 254.134C254.331 256.62 254.157 259.777 254.183 262.427C254.202 264.31 254.837 265.904 253.366 266.973C252.516 267.592 247.857 267.891 246.193 267.874L235.099 268.746C235.182 265.451 233.911 251.037 234.459 250.535L246.565 249.617Z" fill="#FE9F73"/>
<path d="M239.075 236.957L240.59 224.326L260.652 226.731L259.136 239.363C258.524 244.461 254.044 248.172 248.901 248.036L246.269 268.948L253.991 273.061L235.861 270.886L244.337 268.716L246.969 247.805C241.94 246.721 238.465 242.055 239.075 236.957Z" fill="#E3F2FF"/>
<path d="M258.616 237.503C258.607 237.616 258.531 238.761 258.518 238.874C257.897 244.045 253.204 247.732 248.033 247.114C242.862 246.493 239.602 242.921 239.723 237.675C239.725 237.562 239.755 237.452 239.772 237.341L258.616 237.503Z" fill="#A51134"/>
<path d="M239.774 237.331C239.772 237.641 243.987 237.93 249.19 237.979C254.393 238.028 258.612 237.815 258.616 237.505C258.618 237.195 254.403 236.906 249.2 236.857C243.998 236.808 239.779 237.02 239.774 237.331Z" fill="#B52A52"/>
<path d="M256.189 255.158C256.306 256.531 255.473 257.305 255.247 257.33L248.21 258.153C247.358 258.253 246.536 257.456 246.38 256.293C246.208 255.02 246.854 253.868 247.773 253.76L254.78 252.941C254.776 252.941 256.072 253.785 256.189 255.158Z" fill="#FE9F73"/>
<path d="M256.582 259.091C256.718 260.461 256.151 261.611 255.925 261.645L248.359 262.731C247.509 262.853 246.676 262.077 246.503 260.918C246.314 259.647 246.941 258.479 247.859 258.349L255.619 257.235C255.619 257.235 256.446 257.722 256.582 259.091Z" fill="#FE9F73"/>
<path d="M256.289 263.527C256.427 264.802 255.909 265.882 255.698 265.916L248.661 267.04C247.87 267.168 247.09 266.456 246.918 265.378C246.731 264.196 247.307 263.1 248.159 262.964L255.375 261.809C255.375 261.809 256.151 262.252 256.289 263.527Z" fill="#FE9F73"/>
<path d="M255.885 257.626C256.016 257.568 256.104 257.392 256.084 257.192C256.063 256.963 255.912 256.795 255.746 256.816L248.169 257.739C247.457 257.821 246.799 257.16 246.673 256.23C246.605 255.732 246.688 255.241 246.905 254.848C247.122 254.455 247.44 254.215 247.804 254.172L254.739 253.362C254.905 253.341 255.024 253.141 255.005 252.914C254.986 252.686 254.835 252.516 254.667 252.536L247.732 253.345C247.209 253.407 246.728 253.766 246.416 254.334C246.099 254.908 245.978 255.626 246.078 256.353C246.261 257.713 247.213 258.684 248.244 258.565L255.823 257.643C255.844 257.641 255.865 257.634 255.885 257.626Z" fill="#F07162"/>
<path d="M255.289 250.444C255.446 251.813 254.845 252.961 254.618 252.99L247.053 254.002C246.22 254.113 245.395 253.375 245.206 252.24C244.99 250.941 245.631 249.741 246.564 249.615L253.623 248.669C254.411 248.567 255.198 249.649 255.289 250.444Z" fill="#FE9F73"/>
<path d="M254.712 253.35C254.844 253.291 254.929 253.112 254.91 252.914C254.886 252.687 254.735 252.519 254.567 252.542L247.001 253.592C246.289 253.688 245.626 253.035 245.492 252.109C245.42 251.611 245.498 251.12 245.711 250.723C245.924 250.326 246.24 250.081 246.604 250.032L253.528 249.106C253.694 249.08 253.811 248.88 253.79 248.653C253.768 248.426 253.615 248.258 253.45 248.281L246.525 249.208C246.002 249.278 245.526 249.645 245.22 250.219C244.908 250.8 244.795 251.52 244.899 252.245C245.095 253.603 246.053 254.559 247.082 254.421L254.648 253.371C254.672 253.365 254.693 253.359 254.712 253.35Z" fill="#F07162"/>
<path d="M255.759 261.847C255.895 261.79 255.98 261.605 255.959 261.403C255.933 261.175 255.778 261.012 255.612 261.039L248.252 262.238C247.536 262.34 246.937 261.771 246.801 260.85C246.726 260.353 246.801 259.862 247.013 259.462C247.223 259.063 247.538 258.814 247.902 258.763L255.661 257.649C255.827 257.626 255.944 257.422 255.921 257.192C255.897 256.965 255.744 256.799 255.578 256.823L247.819 257.936C247.296 258.011 246.822 258.385 246.518 258.961C246.21 259.545 246.099 260.266 246.208 260.991C246.409 262.342 247.306 263.214 248.341 263.065L255.706 261.866C255.723 261.86 255.74 261.856 255.759 261.847Z" fill="#F07162"/>
<path d="M255.705 266.036C255.841 265.979 255.926 265.794 255.905 265.592C255.88 265.365 255.727 265.201 255.561 265.229L248.524 266.353C247.873 266.457 247.257 265.877 247.123 265.029C247.051 264.576 247.117 264.123 247.306 263.754C247.495 263.386 247.782 263.152 248.113 263.099L255.329 261.945C255.493 261.919 255.608 261.713 255.584 261.484C255.559 261.256 255.406 261.093 255.24 261.12L248.024 262.274C247.533 262.353 247.089 262.712 246.806 263.258C246.522 263.813 246.422 264.495 246.53 265.175C246.732 266.451 247.648 267.331 248.613 267.175L255.65 266.051C255.669 266.049 255.688 266.043 255.705 266.036Z" fill="#F07162"/>
<path d="M238.594 253.424C238.311 254.831 238.838 256.074 239.07 256.125L246.834 257.83C247.689 258.017 248.609 257.322 248.902 256.161C249.238 254.833 248.677 253.53 247.718 253.32L240.473 251.73C239.667 251.554 238.758 252.608 238.594 253.424Z" fill="#FE9F73"/>
<path d="M238.77 257.801C238.638 257.729 238.566 257.535 238.604 257.331C238.646 257.095 238.821 256.936 238.991 256.974L246.927 257.408C247.658 257.567 248.402 256.949 248.621 255.998C248.738 255.488 248.7 254.972 248.513 254.54C248.325 254.111 248.019 253.828 247.645 253.746L240.536 252.186C240.366 252.145 240.262 251.926 240.304 251.692C240.347 251.457 240.519 251.297 240.689 251.335L247.798 252.895C248.334 253.012 248.797 253.437 249.067 254.058C249.341 254.687 249.397 255.444 249.225 256.19C248.904 257.582 247.826 258.492 246.77 258.26L238.833 257.826C238.81 257.82 238.789 257.811 238.77 257.801Z" fill="#F07162"/>
<path d="M189.569 284.032C189.567 284.034 189.563 284.042 189.559 284.057C189.552 284.072 189.542 284.091 189.531 284.113C189.474 284.219 189.416 284.327 189.361 284.431C188.628 285.836 187.882 287.184 187.129 288.48C181.3 298.531 175.059 305.356 171.147 309.101C170.694 309.534 170.273 309.928 169.89 310.272C168.211 311.804 167.195 312.557 167.195 312.557L167.393 312.882L170.496 317.979H121.166C121.353 312.504 121.529 306.731 121.763 301.182C121.765 301.088 121.772 300.99 121.774 300.895C121.774 300.873 121.776 300.852 121.776 300.831C121.782 300.693 121.787 300.552 121.793 300.414C121.895 298.072 122.008 295.777 122.135 293.564C122.135 293.53 122.137 293.5 122.142 293.466C122.233 291.853 122.337 290.283 122.448 288.774V288.767C122.545 287.469 122.652 286.208 122.764 285.007C123.026 282.255 123.334 279.781 123.704 277.707C123.81 277.12 123.921 276.568 124.035 276.047C124.057 275.949 124.08 275.851 124.099 275.756C124.163 275.473 124.227 275.195 124.29 274.916V274.914C124.352 274.636 124.416 274.357 124.479 274.083C124.479 274.081 124.479 274.081 124.479 274.081C124.879 272.342 125.285 270.67 125.697 269.059C126.747 264.935 127.835 261.222 128.953 257.892V257.89C129.296 256.867 129.642 255.881 129.991 254.931C130.035 254.806 130.082 254.685 130.127 254.561C130.154 254.483 130.184 254.406 130.216 254.327C130.492 253.581 130.773 252.859 131.055 252.16C132.148 249.445 133.264 247.063 134.403 244.986C135.189 243.552 135.988 242.264 136.796 241.116C138.679 238.438 140.613 236.521 142.586 235.271C142.966 235.029 143.351 234.812 143.733 234.621C146.09 233.441 148.496 233.18 150.93 233.686C151.929 233.894 153.047 234.451 154.26 235.299C155.164 235.93 156.124 236.723 157.121 237.652C158.282 238.731 159.499 239.99 160.747 241.392C161.576 242.321 162.422 243.312 163.274 244.351C163.697 244.867 164.122 245.395 164.549 245.936L164.551 245.939C169.106 251.679 173.859 258.64 177.978 265.029C178.562 265.93 179.13 266.823 179.684 267.696C179.963 268.136 180.237 268.572 180.511 269.003C181.899 271.212 183.18 273.29 184.315 275.163C184.43 275.35 184.541 275.532 184.649 275.715V275.717C187.665 280.682 189.569 284.032 189.569 284.032Z" fill="#ED2B47"/>
<path d="M161.524 317.079L161.77 316.924C179.6 305.764 189.47 284.249 189.566 284.032L189.632 283.885L189.555 283.745C188.554 281.911 164.833 238.955 152.197 233.93C139.092 228.719 130.593 251.116 130.788 251.737C130.839 251.896 130.803 252.07 130.952 252.132C131.101 252.191 131.267 252.115 131.326 251.958C131.407 251.737 139.651 229.811 152.002 234.504C164.161 239.125 187.449 281.126 188.979 283.909C188.091 285.798 178.482 305.615 161.723 316.238L141.596 280.499C141.513 280.355 141.337 280.308 141.201 280.393C141.065 280.48 141.02 280.667 141.101 280.812L161.524 317.079Z" fill="#20111D"/>
<path d="M160.852 309.077C160.92 309.077 160.986 309.054 161.041 309.005C174.899 296.578 184.629 275.762 184.724 275.552C184.794 275.401 184.737 275.218 184.592 275.143C184.452 275.069 184.278 275.131 184.208 275.284C184.112 275.492 174.431 296.198 160.669 308.54C160.548 308.648 160.533 308.841 160.635 308.971C160.692 309.041 160.771 309.077 160.852 309.077Z" fill="#20111D"/>
<path d="M151.059 213.242C151.08 213.24 151.102 213.236 151.123 213.223C151.937 212.785 153.391 212.825 153.406 212.828L153.867 212.842L153.505 212.556C151.982 211.346 150.543 212.065 150.481 212.096C150.407 212.135 150.377 212.226 150.415 212.3C150.453 212.375 150.547 212.405 150.619 212.366C150.668 212.341 151.716 211.824 152.927 212.528C152.405 212.551 151.559 212.641 150.976 212.955C150.902 212.995 150.874 213.087 150.915 213.161C150.944 213.217 151.002 213.246 151.059 213.242Z" fill="#49263E"/>
<path d="M160.319 213.284C160.298 213.282 160.276 213.276 160.255 213.265C159.45 212.812 157.994 212.827 157.979 212.827L157.518 212.833L157.883 212.553C159.428 211.371 160.854 212.115 160.916 212.149C160.99 212.189 161.018 212.281 160.978 212.355C160.937 212.43 160.846 212.457 160.772 212.417C160.723 212.391 159.683 211.856 158.461 212.536C158.982 212.568 159.828 212.674 160.404 212.997C160.478 213.037 160.504 213.131 160.461 213.203C160.431 213.261 160.374 213.288 160.319 213.284Z" fill="#49263E"/>
<path d="M142.93 261.832C140.702 260.44 136.309 249.169 136.309 249.169L134.078 244.27L134.798 244.026L134.464 243.042L130.756 244.3L127.047 245.558L127.381 246.542L128.101 246.298L129.31 251.543C129.31 251.543 132.681 263.159 131.763 265.62C130.845 268.081 131.449 270.725 131.449 270.725L140.031 296.021C140.817 297.479 142.513 297.05 142.513 297.05L148.018 295.182L153.523 293.314C153.523 293.314 155.13 292.623 154.868 290.986L146.286 265.69C146.286 265.692 145.155 263.225 142.93 261.832Z" fill="#F97923"/>
<path d="M146.782 267.135L131.944 272.169L137.797 289.418L152.635 284.384L146.782 267.135Z" fill="#223749"/>
<path d="M132.211 245.102L127.263 246.781L126.87 245.62C126.836 245.522 126.889 245.416 126.987 245.384C127.084 245.35 127.191 245.403 127.222 245.501L127.497 246.307L132.092 244.749C132.189 244.715 132.296 244.768 132.328 244.866C132.36 244.961 132.309 245.068 132.211 245.102Z" fill="#21111D"/>
<path d="M139.764 295.316C139.666 295.35 139.56 295.297 139.526 295.2L131.76 272.237C131.679 272.061 130.789 270.035 131.124 267.54C131.218 266.843 131.316 266.271 131.403 265.767C131.626 264.467 131.775 263.606 131.545 262.167C131.288 260.558 130.27 255.908 129.843 254.394C129.409 252.858 127.93 246.407 127.915 246.341C127.892 246.241 127.955 246.141 128.055 246.118C128.155 246.095 128.257 246.158 128.278 246.258C128.293 246.324 129.77 252.764 130.202 254.292C130.642 255.85 131.649 260.452 131.915 262.107C132.155 263.608 132.002 264.492 131.773 265.831C131.685 266.333 131.588 266.9 131.496 267.591C131.167 270.041 132.096 272.071 132.104 272.09L132.113 272.109L139.881 295.081C139.915 295.178 139.862 295.285 139.764 295.316Z" fill="#21111D"/>
<g opacity="0.6">
<g opacity="0.6">
<path opacity="0.6" d="M142.503 284.033C145.641 283.76 147.963 280.996 147.69 277.858C147.418 274.721 144.653 272.399 141.516 272.671C138.378 272.944 136.056 275.709 136.329 278.846C136.602 281.983 139.366 284.306 142.503 284.033Z" fill="#9BC1F9"/>
</g>
</g>
<path d="M133.081 268.293C133.047 268.304 133.009 268.306 132.971 268.295C132.871 268.268 132.813 268.164 132.841 268.066L133.6 265.354C133.627 265.254 133.729 265.197 133.829 265.224C133.929 265.252 133.986 265.356 133.959 265.454L133.2 268.166C133.183 268.23 133.136 268.274 133.081 268.293Z" fill="#21111D"/>
<path d="M134.019 269.509C133.985 269.52 133.946 269.522 133.908 269.511C133.808 269.484 133.751 269.379 133.778 269.282L134.537 266.57C134.565 266.47 134.667 266.412 134.767 266.44C134.867 266.468 134.924 266.572 134.896 266.67L134.138 269.382C134.123 269.445 134.076 269.49 134.019 269.509Z" fill="#21111D"/>
<path d="M150.86 274.185C151.676 271.718 149.119 270.364 149.119 270.364C148.486 267.556 146.728 266.802 146.728 266.802C146.728 266.802 141.402 272.236 138.21 275.618C135.84 276.379 134.529 275.686 134.529 275.686L134.518 275.807C133.527 273.917 132.293 271.554 132.159 271.284C131.933 270.829 130.843 270.459 130.418 272.466C129.993 274.472 129.124 276.325 129.124 276.325L120.862 278.436L123.763 297.29C123.763 297.29 140.295 293.112 142.497 292.211C144.698 291.309 151.389 285.137 152.69 282.223C153.991 279.31 152.707 277.913 152.707 277.913C153.366 275.133 150.86 274.185 150.86 274.185Z" fill="#FE9F73"/>
<path d="M145.653 275.142C145.545 275.195 145.411 275.176 145.322 275.084C145.211 274.972 145.213 274.791 145.326 274.68C146.912 273.135 148.858 270.234 148.878 270.204C148.965 270.073 149.143 270.039 149.275 270.126C149.407 270.213 149.441 270.391 149.354 270.523C149.273 270.644 147.356 273.503 145.726 275.091C145.704 275.11 145.679 275.129 145.653 275.142Z" fill="#F07162"/>
<path d="M147.26 278.387C147.139 278.447 146.988 278.415 146.905 278.302C146.809 278.177 146.837 277.996 146.962 277.903C149.117 276.285 150.603 274.049 150.618 274.026C150.705 273.894 150.884 273.858 151.013 273.945C151.145 274.032 151.181 274.209 151.094 274.34C151.032 274.436 149.54 276.68 147.302 278.36C147.292 278.37 147.277 278.381 147.26 278.387Z" fill="#F07162"/>
<path d="M149.664 281.809C149.545 281.868 149.398 281.838 149.313 281.73C149.215 281.607 149.234 281.426 149.36 281.328C151.181 279.879 152.446 277.785 152.459 277.764C152.539 277.628 152.716 277.586 152.852 277.666C152.988 277.747 153.03 277.924 152.95 278.06C152.896 278.149 151.617 280.264 149.715 281.777C149.698 281.79 149.681 281.8 149.664 281.809Z" fill="#F07162"/>
<path d="M124.079 273.898L125.849 282.582L126.961 292.212L126.714 298.997L126.192 299.875L117.786 301.817L114.562 285.169C114.562 285.169 117.856 276.969 118.062 276.827C118.27 276.682 124.079 273.898 124.079 273.898Z" fill="#4CB7D8"/>
<path d="M126.456 317.979H112.947L117.7 302.126L117.791 301.818L121.778 300.831L124.96 300.045L124.968 300.156L124.973 300.213L124.99 300.423L126.456 317.979Z" fill="#4CB7D8"/>
<path d="M126.404 318C125.663 308.387 125.101 302.489 124.738 300.466L124.681 300.145H125.044H124.959L125.225 300.066L125.233 300.113H125.238C125.244 300.134 125.246 300.153 125.25 300.174L125.286 300.368C125.656 302.41 126.219 308.327 126.961 317.96L126.404 318Z" fill="black"/>
<path d="M94.3962 307.103C94.2878 307.052 94.2071 306.952 94.1858 306.825C94.1539 306.623 94.2921 306.433 94.494 306.404C100.226 305.515 123.58 300 126.273 299.362C127.312 290.051 124.307 276.595 123.807 274.455L78.1477 275.902L71.6079 277.19C71.4081 277.231 71.2147 277.099 71.1743 276.899C71.1339 276.699 71.2657 276.506 71.4655 276.466L78.0945 275.165L124.383 273.696L124.456 273.987C124.494 274.14 128.209 289.479 126.976 299.707L126.944 299.962L126.694 300.021C126.434 300.083 100.689 306.191 94.6066 307.135C94.5344 307.145 94.46 307.133 94.3962 307.103Z" fill="#21111D"/>
<path d="M118.443 273.962C114.49 257.044 108.996 231.726 108.94 231.471L109.485 231.354C109.54 231.607 115.034 256.923 118.985 273.836L118.443 273.962Z" fill="black"/>
<path d="M265.519 92.454H311.572C312.415 91.4125 312.409 89.7207 311.062 88.8026C308.943 87.3552 305.884 88.0013 305.884 88.0013C305.884 88.0013 309.236 73.9865 299.759 72.2989C290.284 70.6114 287.164 80.25 287.164 80.25C287.313 73.8505 271.88 61.808 263.002 74.4179C260.696 77.6932 259.806 80.5816 259.751 83.0661C259.659 87.2064 262.061 90.7685 265.519 92.454Z" fill="white"/>
<path d="M151.382 163.716H180.789C181.329 163.051 181.325 161.971 180.464 161.384C179.11 160.46 177.159 160.872 177.159 160.872C177.159 160.872 179.299 151.922 173.248 150.845C167.197 149.767 165.206 155.92 165.206 155.92C165.301 151.833 155.446 144.145 149.778 152.196C148.305 154.288 147.737 156.133 147.701 157.718C147.639 160.366 149.174 162.64 151.382 163.716Z" fill="white"/>
<path d="M133.589 116.703C133.649 115.893 133.398 115.045 132.735 114.339C131.53 113.056 129.475 112.01 126.019 111.768C126.019 111.768 127.209 90.3373 111.022 88.9175C92.4567 87.2895 92.2314 108.344 92.2314 108.344C92.2314 108.344 83.7936 100.333 77.7087 110.488C77.7087 110.488 67.1922 104.409 61.8852 115.638C61.7173 115.991 61.6811 116.358 61.7406 116.701H133.589V116.703Z" fill="white"/>
<path d="M464.689 142.626C464.732 142.052 464.553 141.452 464.086 140.953C463.233 140.045 461.78 139.304 459.333 139.134C459.333 139.134 460.175 123.967 448.719 122.964C435.58 121.812 435.421 136.711 435.421 136.711C435.421 136.711 429.448 131.042 425.142 138.228C425.142 138.228 417.699 133.926 413.943 141.871C413.824 142.122 413.799 142.381 413.841 142.623H464.689V142.626Z" fill="white"/>
<path d="M242.826 135.421L245.863 136.664L248.611 134.868L248.367 138.141L250.924 140.198L247.736 140.978L246.569 144.047L244.843 141.255L241.563 141.093L243.687 138.589L242.826 135.421Z" fill="#4CB7D8"/>
<path d="M95.7791 68.7411L98.8163 69.9845L101.564 68.1864L101.32 71.4616L103.879 73.519L100.689 74.2969L99.524 77.3659L97.7961 74.5732L94.5166 74.4138L96.6399 71.9079L95.7791 68.7411Z" fill="#4CB7D8"/>
<path d="M150.52 52.0443L155.049 53.8997L159.142 51.2196L158.779 56.0995L162.592 59.1664L157.839 60.329L156.101 64.9028L153.527 60.7413L148.639 60.5012L151.801 56.7669L150.52 52.0443Z" fill="#7FC6A6"/>
<path d="M223.639 65.7402C222.989 62.6371 225.068 60.8709 226.445 59.7019C226.581 59.5872 226.713 59.4745 226.84 59.3619C227.631 58.6711 227.569 58.2461 226.964 56.7307C226.332 55.1536 225.38 52.7689 228.235 50.38L229.769 52.2121C228.243 53.4894 228.577 54.3247 229.182 55.8422C229.731 57.2131 230.56 59.2854 228.413 61.16C228.277 61.279 228.135 61.398 227.992 61.5213C226.515 62.7752 225.644 63.6509 225.979 65.2471L223.639 65.7402Z" fill="#FEC786"/>
<path d="M111.22 161.871C114.363 161.45 115.972 163.652 117.037 165.11C117.141 165.253 117.245 165.395 117.347 165.531C117.978 166.371 118.406 166.339 119.961 165.846C121.581 165.334 124.027 164.558 126.202 167.578L124.261 168.972C123.098 167.357 122.242 167.629 120.684 168.122C119.277 168.568 117.15 169.242 115.436 166.966C115.328 166.821 115.218 166.672 115.107 166.519C113.966 164.955 113.154 164.022 111.539 164.239L111.22 161.871Z" fill="#7FC6A6"/>
<path d="M284.812 106.938C283.603 109.869 280.889 110.158 279.093 110.35C278.916 110.369 278.742 110.386 278.574 110.407C277.533 110.532 277.344 110.917 276.991 112.513C276.623 114.173 276.068 116.679 272.364 117.045L272.128 114.666C274.109 114.471 274.302 113.591 274.655 111.997C274.974 110.556 275.456 108.375 278.285 108.035C278.464 108.014 278.649 107.995 278.836 107.973C280.761 107.769 281.975 107.536 282.598 106.029L284.812 106.938Z" fill="#FEBAC7"/>
<path d="M67.2645 139.123C67.2539 135.952 64.8501 134.658 63.2603 133.803C63.103 133.718 62.95 133.637 62.8012 133.555C61.8852 133.044 61.8554 132.615 62.1317 131.006C62.4186 129.331 62.8543 126.8 59.5642 125.062L58.4463 127.174C60.2061 128.105 60.0531 128.991 59.7768 130.602C59.526 132.058 59.1477 134.258 61.6386 135.644C61.7959 135.731 61.9595 135.82 62.1253 135.909C63.8299 136.828 64.8671 137.501 64.8713 139.134L67.2645 139.123Z" fill="#3F9896"/>
<path d="M438.019 105.819C441.162 105.398 442.771 107.6 443.836 109.058C443.94 109.2 444.044 109.343 444.146 109.479C444.777 110.318 445.204 110.286 446.76 109.793C448.38 109.281 450.826 108.505 453 111.525L451.06 112.92C449.897 111.304 449.041 111.576 447.483 112.069C446.076 112.516 443.948 113.189 442.235 110.913C442.127 110.769 442.016 110.62 441.906 110.467C440.765 108.903 439.953 107.97 438.337 108.186L438.019 105.819Z" fill="#7FC6A6"/>
<path d="M321.883 143.565C320.485 140.719 317.758 140.609 315.953 140.536C315.777 140.53 315.603 140.522 315.433 140.513C314.385 140.456 314.172 140.084 313.715 138.515C313.239 136.883 312.523 134.42 308.801 134.296L308.723 136.685C310.712 136.751 310.963 137.616 311.42 139.185C311.832 140.602 312.457 142.745 315.303 142.9C315.484 142.91 315.668 142.917 315.858 142.925C317.792 143.004 319.02 143.157 319.739 144.621L321.883 143.565Z" fill="#4CB7D8"/>
<path d="M417.066 79.8037C417.056 76.6327 414.652 75.3383 413.062 74.4839C412.905 74.3989 412.752 74.3181 412.603 74.2352C411.687 73.7251 411.657 73.2958 411.933 71.6869C412.22 70.0121 412.656 67.4808 409.366 65.7422L408.248 67.8548C410.008 68.7857 409.855 69.672 409.579 71.2831C409.328 72.7389 408.949 74.9387 411.44 76.3245C411.598 76.4116 411.761 76.5009 411.927 76.5901C413.632 77.5083 414.669 78.1821 414.673 79.8144L417.066 79.8037Z" fill="#3F9896"/>
<path d="M297.415 33.3703C300.189 31.8336 302.49 33.3023 304.012 34.2736C304.161 34.3692 304.31 34.4627 304.452 34.552C305.345 35.1046 305.732 34.9197 307.003 33.8952C308.325 32.8283 310.323 31.2151 313.445 33.2406L312.144 35.247C310.473 34.1652 309.774 34.7305 308.503 35.7571C307.353 36.6859 305.617 38.0865 303.194 36.5881C303.041 36.4925 302.884 36.3926 302.724 36.2927C301.092 35.2512 299.997 34.6753 298.571 35.4659L297.415 33.3703Z" fill="#FEC786"/>
<path d="M334.117 69.5593C336.765 71.3043 336.531 74.0226 336.376 75.8228C336.361 75.9992 336.346 76.1735 336.333 76.3436C336.259 77.3893 336.601 77.6485 338.1 78.2989C339.657 78.9748 342.014 79.9971 341.668 83.7038L339.288 83.4827C339.473 81.5019 338.646 81.1427 337.147 80.4923C335.791 79.9036 333.745 79.0173 333.949 76.1735C333.961 75.9929 333.978 75.808 333.993 75.6209C334.159 73.6911 334.161 72.4562 332.799 71.5572L334.117 69.5593Z" fill="#FD7583"/>
<path d="M433.839 52.4456C435.934 50.0651 438.593 50.673 440.355 51.0747C440.527 51.1151 440.697 51.1533 440.865 51.1895C441.892 51.4084 442.194 51.1045 443.046 49.7102C443.932 48.2607 445.269 46.0694 448.893 46.9238L448.345 49.249C446.408 48.792 445.939 49.5593 445.086 50.9557C444.317 52.216 443.154 54.1204 440.366 53.5253C440.19 53.487 440.009 53.4466 439.824 53.4041C437.937 52.9727 436.712 52.8005 435.635 54.0247L433.839 52.4456Z" fill="#FD7583"/>
<path d="M156.554 110.696C159.202 112.441 158.969 115.16 158.813 116.96C158.798 117.136 158.784 117.311 158.771 117.481C158.696 118.526 159.039 118.786 160.537 119.436C162.095 120.112 164.452 121.134 164.106 124.841L161.725 124.62C161.91 122.639 161.083 122.28 159.585 121.629C158.229 121.041 156.182 120.154 156.386 117.311C156.399 117.13 156.416 116.945 156.431 116.758C156.597 114.828 156.599 113.593 155.236 112.694L156.554 110.696Z" fill="#FD7583"/>
<path d="M390.331 27.7254C387.089 27.2131 385.372 29.4533 384.235 30.9368C384.122 31.0835 384.014 31.2259 383.906 31.364C383.234 32.2163 382.792 32.1738 381.194 31.6254C379.532 31.0558 377.017 30.1929 374.696 33.2662L376.671 34.7561C377.912 33.1132 378.792 33.415 380.392 33.9634C381.838 34.4586 384.022 35.2088 385.85 32.8943C385.965 32.7476 386.082 32.5946 386.201 32.4395C387.421 30.8497 388.282 29.9039 389.948 30.1674L390.331 27.7254Z" fill="#FEBAC7"/>
<path d="M432.94 153.153C435.714 151.616 438.016 153.085 439.538 154.056C439.686 154.152 439.835 154.245 439.98 154.335C440.872 154.887 441.259 154.702 442.53 153.678C443.852 152.611 445.85 150.998 448.972 153.023L447.671 155.03C446.001 153.948 445.302 154.513 444.031 155.54C442.881 156.469 441.144 157.869 438.722 156.371C438.568 156.275 438.411 156.175 438.252 156.075C436.619 155.034 435.525 154.458 434.099 155.249L432.94 153.153Z" fill="#FEC786"/>
<path d="M525.854 147.508C522.613 146.995 520.896 149.236 519.758 150.719C519.646 150.866 519.537 151.008 519.429 151.146C518.757 151.999 518.315 151.956 516.717 151.408C515.055 150.838 512.541 149.975 510.22 153.048L512.194 154.538C513.435 152.895 514.315 153.197 515.916 153.746C517.361 154.241 519.546 154.991 521.374 152.677C521.489 152.53 521.605 152.377 521.724 152.222C522.944 150.632 523.805 149.686 525.471 149.95L525.854 147.508Z" fill="#FEBAC7"/>
<path d="M364.929 308.929L364.379 308.857C366.764 290.606 378.277 228.704 378.394 228.081L378.94 228.183C378.823 228.804 367.314 290.693 364.929 308.929Z" fill="black"/>
<path d="M430.593 305.014C430.586 305.014 430.58 305.014 430.574 305.014C430.378 305.003 430.227 304.835 430.238 304.64C430.79 294.559 432.943 255.375 432.965 255.023C432.977 254.827 433.141 254.674 433.341 254.689C433.536 254.702 433.685 254.87 433.675 255.065C433.653 255.42 431.5 294.599 430.948 304.678C430.935 304.867 430.78 305.014 430.593 305.014Z" fill="black"/>
</svg>
