<svg width="15" height="8" viewBox="0 0 15 8" fill="none" xmlns="http://www.w3.org/2000/svg">
<path d="M14.9993 6.82992C14.9998 6.68052 14.9668 6.53292 14.9028 6.39794C14.8388 6.26296 14.7453 6.14404 14.6293 6.04992L8.6293 1.21992C8.45037 1.07284 8.22592 0.992432 7.9943 0.992432C7.76267 0.992432 7.53823 1.07284 7.3593 1.21992L1.3593 6.21992C1.15508 6.38966 1.02666 6.63357 1.00228 6.898C0.977898 7.16242 1.05956 7.4257 1.2293 7.62992C1.39904 7.83414 1.64295 7.96256 1.90738 7.98694C2.1718 8.01132 2.43508 7.92966 2.6393 7.75992L7.9993 3.28992L13.3593 7.60992C13.5061 7.7322 13.6848 7.80988 13.8744 7.83376C14.0639 7.85764 14.2563 7.82672 14.4289 7.74467C14.6014 7.66261 14.7468 7.53285 14.8479 7.37074C14.949 7.20863 15.0015 7.02095 14.9993 6.82992Z" fill="black"/>
</svg>
