<svg width="72" height="72" viewBox="0 0 72 72" fill="none" xmlns="http://www.w3.org/2000/svg">
<rect width="72" height="72" rx="36" fill="url(#paint0_linear)"/>
<g clip-path="url(#clip0)">
<path d="M54.9264 44.6363L45.9808 35.6884C47.6593 31.8778 46.9411 27.2573 43.8249 24.1404C39.7649 20.0794 33.1931 20.0789 29.1326 24.1404C25.0821 28.1918 25.0821 34.784 29.1326 38.8354C32.3513 42.0549 37.0684 42.6679 40.8341 40.927L49.7341 49.8291C51.169 51.2643 53.4918 51.2644 54.9267 49.8288C56.3577 48.3971 56.3576 46.0678 54.9264 44.6363ZM30.7901 37.1783C27.6532 34.0406 27.6532 28.9353 30.7901 25.7976C33.934 22.6529 39.0229 22.6524 42.1673 25.7976C45.3043 28.9353 45.3043 34.0406 42.1673 37.1783C39.0234 40.323 33.9345 40.3235 30.7901 37.1783ZM53.269 48.1718C52.7502 48.6908 51.9105 48.691 51.3916 48.1719L42.8885 39.6668C43.5875 39.1166 44.2104 38.4849 44.7513 37.7738L53.2688 46.2934C53.7866 46.8113 53.7867 47.6539 53.269 48.1718Z" fill="white"/>
<path d="M17.1719 35.1374H22.1692C22.8164 35.1374 23.3411 34.6127 23.3411 33.9655C23.3411 33.3183 22.8164 32.7936 22.1692 32.7936H17.1719C16.5247 32.7936 16 33.3183 16 33.9655C16 34.6127 16.5247 35.1374 17.1719 35.1374Z" fill="white"/>
<path d="M17.1719 40.1376H24.0432C24.6904 40.1376 25.2151 39.6129 25.2151 38.9657C25.2151 38.3185 24.6904 37.7938 24.0432 37.7938H17.1719C16.5247 37.7938 16 38.3185 16 38.9657C16 39.6129 16.5247 40.1376 17.1719 40.1376Z" fill="white"/>
<path d="M17.1719 45.1378H29.0405C29.6877 45.1378 30.2124 44.6131 30.2124 43.9659C30.2124 43.3187 29.6877 42.7939 29.0405 42.7939H17.1719C16.5247 42.7939 16 43.3187 16 43.9659C16 44.6131 16.5247 45.1378 17.1719 45.1378Z" fill="white"/>
<path d="M42.7832 47.7942H17.1719C16.5247 47.7942 16 48.3189 16 48.9661C16 49.6133 16.5247 50.138 17.1719 50.138H42.7832C43.4304 50.138 43.9551 49.6133 43.9551 48.9661C43.9551 48.3189 43.4304 47.7942 42.7832 47.7942Z" fill="white"/>
</g>
<defs>
<linearGradient id="paint0_linear" x1="0" y1="0" x2="71.9996" y2="0.169583" gradientUnits="userSpaceOnUse">
<stop stop-color="#36D1DC"/>
<stop offset="1" stop-color="#5B86E5"/>
</linearGradient>
<clipPath id="clip0">
<rect width="40" height="40" fill="white" transform="translate(16 16)"/>
</clipPath>
</defs>
</svg>
