<svg width="48" height="48" viewBox="0 0 48 48" fill="none" xmlns="http://www.w3.org/2000/svg">
<rect width="48" height="48" rx="24" fill="url(#paint0_linear)"/>
<g clip-path="url(#clip0)">
<path d="M35.3289 29.8977L29.7379 24.3053C30.7869 21.9236 30.338 19.0358 28.3904 17.0878C25.8529 14.5497 21.7456 14.5493 19.2078 17.0878C16.6762 19.6199 16.6762 23.74 19.2078 26.2722C21.2195 28.2843 24.1676 28.6674 26.5212 27.5794L32.0837 33.1432C32.9805 34.0402 34.4323 34.0403 35.3291 33.143C36.2235 32.2482 36.2234 30.7924 35.3289 29.8977ZM20.2437 25.2364C18.2831 23.2754 18.2831 20.0846 20.2437 18.1235C22.2086 16.1581 25.3892 16.1577 27.3545 18.1235C29.315 20.0846 29.315 23.2754 27.3545 25.2364C25.3895 27.2019 22.2089 27.2022 20.2437 25.2364ZM34.293 32.1074C33.9688 32.4318 33.4439 32.4319 33.1196 32.1074L27.8052 26.7918C28.242 26.4479 28.6314 26.0531 28.9694 25.6086L34.2929 30.9333C34.6165 31.257 34.6165 31.7837 34.293 32.1074Z" fill="white"/>
<path d="M11.7325 23.9609H14.8557C15.2603 23.9609 15.5882 23.6329 15.5882 23.2284C15.5882 22.8239 15.2603 22.4959 14.8557 22.4959H11.7325C11.3279 22.4959 11 22.8239 11 23.2284C11 23.6329 11.3279 23.9609 11.7325 23.9609Z" fill="white"/>
<path d="M11.7325 27.086H16.027C16.4315 27.086 16.7594 26.7581 16.7594 26.3536C16.7594 25.9491 16.4315 25.6211 16.027 25.6211H11.7325C11.3279 25.6211 11 25.9491 11 26.3536C11 26.7581 11.3279 27.086 11.7325 27.086Z" fill="white"/>
<path d="M11.7325 30.2111H19.1503C19.5548 30.2111 19.8828 29.8832 19.8828 29.4786C19.8828 29.0741 19.5548 28.7462 19.1503 28.7462H11.7325C11.3279 28.7462 11 29.0741 11 29.4786C11 29.8832 11.3279 30.2111 11.7325 30.2111Z" fill="white"/>
<path d="M27.7395 31.8714H11.7325C11.3279 31.8714 11 32.1993 11 32.6039C11 33.0084 11.3279 33.3363 11.7325 33.3363H27.7395C28.144 33.3363 28.4719 33.0084 28.4719 32.6039C28.4719 32.1993 28.144 31.8714 27.7395 31.8714Z" fill="white"/>
</g>
<defs>
<linearGradient id="paint0_linear" x1="0" y1="0" x2="47.9997" y2="0.113056" gradientUnits="userSpaceOnUse">
<stop stop-color="#36D1DC"/>
<stop offset="1" stop-color="#5B86E5"/>
</linearGradient>
<clipPath id="clip0">
<rect width="25" height="25" fill="white" transform="translate(11 12)"/>
</clipPath>
</defs>
</svg>
