<svg width="736" height="359" viewBox="0 0 736 359" fill="none" xmlns="http://www.w3.org/2000/svg">
<g style="mix-blend-mode:overlay">
<g style="mix-blend-mode:screen">
<g style="mix-blend-mode:screen">
<path d="M344.618 374.627L201.682 260.221L201.7 260.078L230.284 85.0323L230.499 85.0503L458.022 93.2119L426.879 337.344L426.395 337.273L457.449 93.6951L230.695 85.5514L202.219 260.024L344.922 374.233L344.618 374.627Z" fill="white"/>
<path d="M344.618 374.627L201.682 260.221L201.7 260.078L230.284 85.0323L230.499 85.0503L458.022 93.2119L426.879 337.344L426.395 337.273L457.449 93.6951L230.695 85.5514L202.219 260.024L344.922 374.233L344.618 374.627Z" stroke="white" stroke-width="0.5"/>
</g>
</g>
<g style="mix-blend-mode:overlay">
<path d="M547.654 183.551L509.989 275.662L510.453 275.852L548.118 183.741L547.654 183.551Z" fill="white"/>
<path d="M547.654 183.551L509.989 275.662L510.453 275.852L548.118 183.741L547.654 183.551Z" stroke="white" stroke-width="0.5"/>
</g>
<g style="mix-blend-mode:overlay">
<path d="M142.53 440.582L115.951 315.294L105.212 161.53H105.713L116.452 315.025L202.364 259.541L176.34 338.723L245.266 365.749L244.908 366.018L142.53 440.582ZM176.214 339.26L143.228 439.49L244.264 365.856L176.214 339.26ZM116.631 315.813L142.816 439.204L175.767 338.973L116.631 315.813ZM116.828 315.365L175.892 338.544L201.469 260.74L116.828 315.365Z" fill="white"/>
<path d="M142.53 440.582L115.951 315.294L105.212 161.53H105.713L116.452 315.025L202.364 259.541L176.34 338.723L245.266 365.749L244.908 366.018L142.53 440.582ZM176.214 339.26L143.228 439.49L244.264 365.856L176.214 339.26ZM116.631 315.813L142.816 439.204L175.767 338.973L116.631 315.813ZM116.828 315.365L175.892 338.544L201.469 260.74L116.828 315.365Z" stroke="white" stroke-width="0.5"/>
</g>
<g style="mix-blend-mode:overlay">
<path d="M450.379 453.164L449.95 452.985L243.368 365.481L345.245 371.19L434.611 377.974L426.414 337.38L426.897 337.273L435.13 378.009L474.13 380.963L510.267 274.719L528.541 385.598L474.471 381.5L450.218 452.771L450.379 453.164ZM246.196 366.107L449.646 452.305L434.718 378.439L345.227 371.656L246.196 366.107ZM435.22 378.475L450.039 451.768L473.969 381.428L435.22 378.475ZM474.596 380.963L527.897 385.008L509.999 276.705L474.596 380.963Z" fill="white"/>
<path d="M450.379 453.164L449.95 452.985L243.368 365.481L345.245 371.19L434.611 377.974L426.414 337.38L426.897 337.273L435.13 378.009L474.13 380.963L510.267 274.719L528.541 385.598L474.471 381.5L450.218 452.771L450.379 453.164ZM246.196 366.107L449.646 452.305L434.718 378.439L345.227 371.656L246.196 366.107ZM435.22 378.475L450.039 451.768L473.969 381.428L435.22 378.475ZM474.596 380.963L527.897 385.008L509.999 276.705L474.596 380.963Z" stroke="white" stroke-width="0.5"/>
</g>
<g style="mix-blend-mode:screen">
<g style="mix-blend-mode:screen">
<path d="M142.833 440.403L142.672 439.938L344.779 374.197L426.592 337.094L509.98 275.631L477.226 162.067L230.606 85.5873L183.873 169.226L202.345 260.883L105.193 161.458L230.481 85.0325L345.244 49.6476L457.359 93.0509L457.234 92.6035L548.819 184.189L477.763 162.174L510.463 275.828L510.32 275.936L426.753 337.47L344.886 374.591L142.833 440.403ZM105.98 161.548L201.593 259.344L183.354 169.226L229.818 85.999L105.98 161.548ZM477.602 161.548L547.012 183.026L458.236 94.3217L477.602 161.548ZM231.34 85.2831L477.029 161.422L457.538 93.6416L345.227 50.1666L231.34 85.2831Z" fill="white"/>
<path d="M142.833 440.403L142.672 439.938L344.779 374.197L426.592 337.094L509.98 275.631L477.226 162.067L230.606 85.5873L183.873 169.226L202.345 260.883L105.193 161.458L230.481 85.0325L345.244 49.6476L457.359 93.0509L457.234 92.6035L548.819 184.189L477.763 162.174L510.463 275.828L510.32 275.936L426.753 337.47L344.886 374.591L142.833 440.403ZM105.98 161.548L201.593 259.344L183.354 169.226L229.818 85.999L105.98 161.548ZM477.602 161.548L547.012 183.026L458.236 94.3217L477.602 161.548ZM231.34 85.2831L477.029 161.422L457.538 93.6416L345.227 50.1666L231.34 85.2831Z" stroke="white" stroke-width="0.5"/>
</g>
</g>
<g style="mix-blend-mode:overlay">
<path d="M116.076 315.544L-29.2939 101.481H-28.8644L106.089 92.9435L106.733 20.187L107.091 20.3839L231.341 85.4978L106.536 93.391L105.838 161.512H105.337L106.035 93.4984L-28.4527 101.928L116.523 315.276L116.076 315.544ZM107.27 21.0103L106.536 92.8898L229.587 85.1041L107.27 21.0103Z" fill="white"/>
<path d="M116.076 315.544L-29.2939 101.481H-28.8644L106.089 92.9435L106.733 20.187L107.091 20.3839L231.341 85.4978L106.536 93.391L105.838 161.512H105.337L106.035 93.4984L-28.4527 101.928L116.523 315.276L116.076 315.544ZM107.27 21.0103L106.536 92.8898L229.587 85.1041L107.27 21.0103Z" stroke="white" stroke-width="0.5"/>
</g>
<g style="mix-blend-mode:overlay">
<path d="M-18.4294 391.684L-18.1788 390.395H-19.02L-18.0893 389.876L8.41805 257.429H8.29276L8.50754 257.214L103.476 23.1223L103.941 23.3013L9.40245 256.337L106.608 160.152L43.964 276.115L116.792 315.491L-16.7648 389.751L244.55 365.552L547.765 183.437L548.015 183.867L244.854 366.107L-17.6955 390.341L-18.4294 391.684ZM43.7493 276.616L-17.2302 389.482L115.682 315.419L43.7493 276.616ZM8.88341 257.751L-17.2839 388.534L43.3018 276.311L8.88341 257.751ZM9.11608 257.321L43.5524 275.882L104.586 162.854L9.11608 257.321Z" fill="white"/>
<path d="M-18.4294 391.684L-18.1788 390.395H-19.02L-18.0893 389.876L8.41805 257.429H8.29276L8.50754 257.214L103.476 23.1223L103.941 23.3013L9.40245 256.337L106.608 160.152L43.964 276.115L116.792 315.491L-16.7648 389.751L244.55 365.552L547.765 183.437L548.015 183.867L244.854 366.107L-17.6955 390.341L-18.4294 391.684ZM43.7493 276.616L-17.2302 389.482L115.682 315.419L43.7493 276.616ZM8.88341 257.751L-17.2839 388.534L43.3018 276.311L8.88341 257.751ZM9.11608 257.321L43.5524 275.882L104.586 162.854L9.11608 257.321Z" stroke="white" stroke-width="0.5"/>
</g>
<g style="mix-blend-mode:overlay">
<path d="M722.953 111.594H722.058L459.598 95.4851L460.636 95.0734L611.948 34.9889H612.055L722.953 111.594ZM461.871 95.0555L721.217 110.985L611.877 35.5258L461.871 95.0555Z" fill="white"/>
<path d="M722.953 111.594H722.058L459.598 95.4851L460.636 95.0734L611.948 34.9889H612.055L722.953 111.594ZM461.871 95.0555L721.217 110.985L611.877 35.5258L461.871 95.0555Z" stroke="white" stroke-width="0.5"/>
</g>
<g style="mix-blend-mode:overlay">
<path d="M673.446 223.637L672.981 223.494L547.55 183.813L547.657 183.563L611.948 34.5593L612.144 35.1858L673.446 223.637ZM548.158 183.509L672.605 222.885L611.751 35.9554L548.158 183.509Z" fill="white"/>
<path d="M673.446 223.637L672.981 223.494L547.55 183.813L547.657 183.563L611.948 34.5593L612.144 35.1858L673.446 223.637ZM548.158 183.509L672.605 222.885L611.751 35.9554L548.158 183.509Z" stroke="white" stroke-width="0.5"/>
</g>
<g style="mix-blend-mode:overlay">
<path d="M680.641 414.128L508.728 274.862L622.4 321.075L547.531 183.527L721.986 111.057L722.183 111.522L548.247 183.777L623.509 322.059L511.645 276.598L680.963 413.734L680.641 414.128Z" fill="white"/>
<path d="M680.641 414.128L508.728 274.862L622.4 321.075L547.531 183.527L721.986 111.057L722.183 111.522L548.247 183.777L623.509 322.059L511.645 276.598L680.963 413.734L680.641 414.128Z" stroke="white" stroke-width="0.5"/>
</g>
<g style="mix-blend-mode:overlay">
<path d="M678.493 410.96H678.189L527.575 385.509L622.758 321.361L673.267 222.241V223.225L678.493 410.96ZM528.899 385.187L677.974 410.37L672.837 224.227L623.152 321.737L528.899 385.187Z" fill="white"/>
<path d="M678.493 410.96H678.189L527.575 385.509L622.758 321.361L673.267 222.241V223.225L678.493 410.96ZM528.899 385.187L677.974 410.37L672.837 224.227L623.152 321.737L528.899 385.187Z" stroke="white" stroke-width="0.5"/>
</g>
<g style="mix-blend-mode:overlay">
<path d="M344.968 49.714L201.824 260.029L202.238 260.311L345.383 49.996L344.968 49.714Z" fill="white"/>
<path d="M344.968 49.714L201.824 260.029L202.238 260.311L345.383 49.996L344.968 49.714Z" stroke="white" stroke-width="0.5"/>
</g>
</g>
<g style="mix-blend-mode:screen">
<g style="mix-blend-mode:screen">
<path d="M201.972 247.978C200.796 247.978 199.647 247.63 198.67 246.977C197.693 246.324 196.931 245.396 196.482 244.31C196.032 243.224 195.914 242.03 196.143 240.877C196.373 239.724 196.939 238.665 197.77 237.834C198.601 237.003 199.66 236.437 200.812 236.208C201.965 235.979 203.16 236.097 204.246 236.546C205.331 236.996 206.259 237.758 206.912 238.735C207.565 239.712 207.914 240.861 207.914 242.036C207.914 243.612 207.288 245.124 206.173 246.238C205.059 247.352 203.548 247.978 201.972 247.978Z" fill="url(#paint0_linear)" style="mix-blend-mode:screen"/>
<path d="M201.972 247.978C200.796 247.978 199.647 247.63 198.67 246.977C197.693 246.324 196.931 245.396 196.482 244.31C196.032 243.224 195.914 242.03 196.143 240.877C196.373 239.724 196.939 238.665 197.77 237.834C198.601 237.003 199.66 236.437 200.812 236.208C201.965 235.979 203.16 236.097 204.246 236.546C205.331 236.996 206.259 237.758 206.912 238.735C207.565 239.712 207.914 240.861 207.914 242.036C207.914 243.612 207.288 245.124 206.173 246.238C205.059 247.352 203.548 247.978 201.972 247.978Z" stroke="white" stroke-width="0.5"/>
</g>
<g style="mix-blend-mode:screen">
<path d="M214.375 268.454H190.016C189.943 268.454 189.871 268.44 189.803 268.412C189.736 268.384 189.675 268.343 189.623 268.292C189.572 268.24 189.531 268.179 189.503 268.112C189.475 268.044 189.461 267.972 189.461 267.899V262.727C189.461 259.347 190.804 256.105 193.193 253.716C195.583 251.326 198.825 249.983 202.205 249.983C205.584 249.983 208.826 251.326 211.216 253.716C213.605 256.105 214.948 259.347 214.948 262.727V267.899C214.948 267.974 214.933 268.047 214.904 268.116C214.875 268.184 214.833 268.246 214.779 268.298C214.726 268.35 214.663 268.39 214.593 268.417C214.524 268.444 214.45 268.456 214.375 268.454Z" fill="url(#paint1_linear)" style="mix-blend-mode:screen"/>
<path d="M214.375 268.454H190.016C189.943 268.454 189.871 268.44 189.803 268.412C189.736 268.384 189.675 268.343 189.623 268.292C189.572 268.24 189.531 268.179 189.503 268.112C189.475 268.044 189.461 267.972 189.461 267.899V262.727C189.461 259.347 190.804 256.105 193.193 253.716C195.583 251.326 198.825 249.983 202.205 249.983C205.584 249.983 208.826 251.326 211.216 253.716C213.605 256.105 214.948 259.347 214.948 262.727V267.899C214.948 267.974 214.933 268.047 214.904 268.116C214.875 268.184 214.833 268.246 214.779 268.298C214.726 268.35 214.663 268.39 214.593 268.417C214.524 268.444 214.45 268.456 214.375 268.454Z" stroke="white" stroke-width="0.5"/>
</g>
</g>
<path d="M201.952 282.397C196.224 282.397 190.625 280.698 185.863 277.516C181.101 274.334 177.389 269.811 175.197 264.52C173.005 259.228 172.432 253.405 173.549 247.788C174.667 242.17 177.425 237.01 181.475 232.96C185.525 228.91 190.685 226.152 196.302 225.034C201.92 223.917 207.743 224.49 213.034 226.682C218.326 228.874 222.849 232.586 226.031 237.348C229.213 242.111 230.912 247.71 230.912 253.437C230.907 261.116 227.854 268.48 222.424 273.91C216.994 279.339 209.631 282.392 201.952 282.397ZM201.952 225.337C196.394 225.337 190.962 226.985 186.34 230.073C181.719 233.16 178.118 237.549 175.991 242.684C173.864 247.818 173.307 253.469 174.392 258.919C175.476 264.37 178.152 269.377 182.082 273.307C186.012 277.237 191.019 279.913 196.47 280.998C201.921 282.082 207.571 281.525 212.706 279.399C217.84 277.272 222.229 273.67 225.317 269.049C228.404 264.428 230.052 258.995 230.052 253.437C230.043 245.988 227.079 238.846 221.812 233.578C216.544 228.31 209.402 225.347 201.952 225.337Z" fill="url(#paint2_linear)" stroke="white" stroke-width="0.5"/>
<g style="mix-blend-mode:screen">
<g style="mix-blend-mode:screen">
<path d="M669.455 212.021C668.28 212.021 667.131 211.672 666.154 211.019C665.177 210.367 664.415 209.439 663.966 208.353C663.516 207.267 663.398 206.072 663.627 204.919C663.857 203.767 664.423 202.708 665.254 201.877C666.085 201.046 667.143 200.48 668.296 200.251C669.449 200.021 670.644 200.139 671.729 200.589C672.815 201.039 673.743 201.8 674.396 202.777C675.049 203.755 675.398 204.903 675.398 206.079C675.398 207.655 674.772 209.166 673.657 210.28C672.543 211.395 671.031 212.021 669.455 212.021Z" fill="url(#paint3_linear)" style="mix-blend-mode:screen"/>
<path d="M669.455 212.021C668.28 212.021 667.131 211.672 666.154 211.019C665.177 210.367 664.415 209.439 663.966 208.353C663.516 207.267 663.398 206.072 663.627 204.919C663.857 203.767 664.423 202.708 665.254 201.877C666.085 201.046 667.143 200.48 668.296 200.251C669.449 200.021 670.644 200.139 671.729 200.589C672.815 201.039 673.743 201.8 674.396 202.777C675.049 203.755 675.398 204.903 675.398 206.079C675.398 207.655 674.772 209.166 673.657 210.28C672.543 211.395 671.031 212.021 669.455 212.021Z" stroke="white" stroke-width="0.5"/>
</g>
<g style="mix-blend-mode:screen">
<path d="M681.841 232.479H657.482C657.334 232.479 657.193 232.42 657.089 232.316C656.985 232.212 656.927 232.071 656.927 231.924V226.751C656.927 223.371 658.269 220.13 660.659 217.74C663.049 215.35 666.291 214.008 669.67 214.008C673.05 214.008 676.292 215.35 678.681 217.74C681.071 220.13 682.414 223.371 682.414 226.751V231.87C682.422 231.949 682.412 232.028 682.387 232.103C682.361 232.178 682.32 232.247 682.266 232.305C682.212 232.362 682.146 232.408 682.072 232.438C681.999 232.468 681.92 232.482 681.841 232.479Z" fill="url(#paint4_linear)" style="mix-blend-mode:screen"/>
<path d="M681.841 232.479H657.482C657.334 232.479 657.193 232.42 657.089 232.316C656.985 232.212 656.927 232.071 656.927 231.924V226.751C656.927 223.371 658.269 220.13 660.659 217.74C663.049 215.35 666.291 214.008 669.67 214.008C673.05 214.008 676.292 215.35 678.681 217.74C681.071 220.13 682.414 223.371 682.414 226.751V231.87C682.422 231.949 682.412 232.028 682.387 232.103C682.361 232.178 682.32 232.247 682.266 232.305C682.212 232.362 682.146 232.408 682.072 232.438C681.999 232.468 681.92 232.482 681.841 232.479Z" stroke="white" stroke-width="0.5"/>
</g>
</g>
<path d="M669.419 246.421C663.688 246.421 658.085 244.721 653.321 241.535C648.557 238.349 644.845 233.82 642.656 228.524C640.466 223.227 639.898 217.399 641.023 211.779C642.147 206.159 644.914 200.999 648.973 196.953C653.032 192.906 658.201 190.155 663.824 189.048C669.448 187.941 675.273 188.527 680.563 190.733C685.854 192.938 690.37 196.664 693.541 201.438C696.713 206.212 698.396 211.82 698.378 217.551C698.35 225.215 695.287 232.555 689.86 237.966C684.432 243.376 677.083 246.417 669.419 246.421ZM669.419 189.362C663.861 189.362 658.428 191.01 653.807 194.097C649.186 197.185 645.585 201.574 643.458 206.708C641.331 211.843 640.774 217.493 641.859 222.944C642.943 228.395 645.619 233.402 649.549 237.332C653.479 241.262 658.486 243.938 663.937 245.022C669.388 246.107 675.038 245.55 680.173 243.423C685.307 241.296 689.696 237.695 692.784 233.074C695.871 228.453 697.519 223.02 697.519 217.462C697.51 210.012 694.546 202.87 689.278 197.603C684.011 192.335 676.869 189.371 669.419 189.362Z" fill="url(#paint5_linear)" stroke="white" stroke-width="0.5"/>
<g style="mix-blend-mode:screen">
<g style="mix-blend-mode:screen">
<path d="M344.619 45.0656C343.801 45.0656 343.002 44.8232 342.322 44.3688C341.642 43.9145 341.112 43.2688 340.799 42.5133C340.486 41.7579 340.404 40.9265 340.564 40.1245C340.723 39.3225 341.117 38.5858 341.695 38.0076C342.274 37.4294 343.01 37.0356 343.812 36.8761C344.614 36.7165 345.446 36.7984 346.201 37.1114C346.957 37.4243 347.602 37.9542 348.057 38.6341C348.511 39.314 348.753 40.1134 348.753 40.9311C348.753 42.0277 348.318 43.0793 347.542 43.8547C346.767 44.63 345.715 45.0656 344.619 45.0656Z" fill="url(#paint6_linear)" style="mix-blend-mode:screen"/>
<path d="M344.619 45.0656C343.801 45.0656 343.002 44.8232 342.322 44.3688C341.642 43.9145 341.112 43.2688 340.799 42.5133C340.486 41.7579 340.404 40.9265 340.564 40.1245C340.723 39.3225 341.117 38.5858 341.695 38.0076C342.274 37.4294 343.01 37.0356 343.812 36.8761C344.614 36.7165 345.446 36.7984 346.201 37.1114C346.957 37.4243 347.602 37.9542 348.057 38.6341C348.511 39.314 348.753 40.1134 348.753 40.9311C348.753 42.0277 348.318 43.0793 347.542 43.8547C346.767 44.63 345.715 45.0656 344.619 45.0656Z" stroke="white" stroke-width="0.5"/>
</g>
<g style="mix-blend-mode:screen">
<path d="M353.228 59.277H336.296C336.191 59.277 336.091 59.2355 336.017 59.1616C335.944 59.0878 335.902 58.9876 335.902 58.8832V55.3035C335.848 54.1078 336.037 52.9135 336.458 51.7928C336.878 50.6721 337.522 49.6483 338.349 48.7831C339.176 47.9179 340.17 47.2293 341.271 46.7588C342.371 46.2883 343.556 46.0458 344.753 46.0458C345.95 46.0458 347.134 46.2883 348.235 46.7588C349.336 47.2293 350.329 47.9179 351.157 48.7831C351.984 49.6483 352.627 50.6721 353.048 51.7928C353.468 52.9135 353.657 54.1078 353.603 55.3035V58.8832C353.604 58.9846 353.565 59.0821 353.495 59.1555C353.424 59.2288 353.329 59.2723 353.228 59.277Z" fill="url(#paint7_linear)" style="mix-blend-mode:screen"/>
<path d="M353.228 59.277H336.296C336.191 59.277 336.091 59.2355 336.017 59.1616C335.944 59.0878 335.902 58.9876 335.902 58.8832V55.3035C335.848 54.1078 336.037 52.9135 336.458 51.7928C336.878 50.6721 337.522 49.6483 338.349 48.7831C339.176 47.9179 340.17 47.2293 341.271 46.7588C342.371 46.2883 343.556 46.0458 344.753 46.0458C345.95 46.0458 347.134 46.2883 348.235 46.7588C349.336 47.2293 350.329 47.9179 351.157 48.7831C351.984 49.6483 352.627 50.6721 353.048 51.7928C353.468 52.9135 353.657 54.1078 353.603 55.3035V58.8832C353.604 58.9846 353.565 59.0821 353.495 59.1555C353.424 59.2288 353.329 59.2723 353.228 59.277Z" stroke="white" stroke-width="0.5"/>
</g>
</g>
<path d="M344.602 68.9956C340.623 68.9956 336.733 67.8157 333.425 65.6052C330.116 63.3946 327.538 60.2527 326.015 56.5766C324.493 52.9006 324.094 48.8556 324.87 44.9532C325.647 41.0507 327.563 37.4661 330.376 34.6526C333.19 31.8391 336.774 29.9231 340.677 29.1468C344.579 28.3706 348.624 28.769 352.3 30.2916C355.976 31.8143 359.118 34.3928 361.329 37.7012C363.539 41.0095 364.719 44.899 364.719 48.8779C364.714 54.212 362.593 59.3263 358.822 63.098C355.05 66.8698 349.936 68.9909 344.602 68.9956ZM344.602 29.3509C340.739 29.3509 336.964 30.4961 333.753 32.6418C330.542 34.7875 328.039 37.8372 326.561 41.4053C325.083 44.9734 324.696 48.8996 325.45 52.6875C326.203 56.4753 328.063 59.9547 330.794 62.6856C333.525 65.4165 337.004 67.2763 340.792 68.0298C344.58 68.7832 348.506 68.3965 352.074 66.9186C355.642 65.4406 358.692 62.9378 360.838 59.7266C362.983 56.5154 364.129 52.74 364.129 48.8779C364.129 43.6974 362.072 38.7288 358.41 35.0639C354.749 31.399 349.782 29.3378 344.602 29.333V29.3509Z" fill="url(#paint8_linear)" stroke="white" stroke-width="0.5"/>
<g style="mix-blend-mode:screen">
<g style="mix-blend-mode:screen">
<path d="M620.413 311.804C619.596 311.804 618.796 311.561 618.116 311.107C617.436 310.653 616.906 310.007 616.594 309.251C616.281 308.496 616.199 307.665 616.358 306.863C616.518 306.061 616.912 305.324 617.49 304.746C618.068 304.167 618.805 303.774 619.607 303.614C620.409 303.455 621.24 303.536 621.996 303.849C622.751 304.162 623.397 304.692 623.851 305.372C624.305 306.052 624.548 306.851 624.548 307.669C624.548 308.766 624.112 309.817 623.337 310.593C622.562 311.368 621.51 311.804 620.413 311.804Z" fill="url(#paint9_linear)" style="mix-blend-mode:screen"/>
<path d="M620.413 311.804C619.596 311.804 618.796 311.561 618.116 311.107C617.436 310.653 616.906 310.007 616.594 309.251C616.281 308.496 616.199 307.665 616.358 306.863C616.518 306.061 616.912 305.324 617.49 304.746C618.068 304.167 618.805 303.774 619.607 303.614C620.409 303.455 621.24 303.536 621.996 303.849C622.751 304.162 623.397 304.692 623.851 305.372C624.305 306.052 624.548 306.851 624.548 307.669C624.548 308.766 624.112 309.817 623.337 310.593C622.562 311.368 621.51 311.804 620.413 311.804Z" stroke="white" stroke-width="0.5"/>
</g>
<g style="mix-blend-mode:screen">
<path d="M629.058 326.015H612.126C612.074 326.015 612.023 326.005 611.975 325.985C611.928 325.965 611.884 325.936 611.848 325.899C611.811 325.863 611.782 325.819 611.762 325.772C611.743 325.724 611.732 325.673 611.732 325.621V322.041C611.835 319.763 612.812 317.612 614.461 316.036C616.109 314.459 618.302 313.58 620.583 313.58C622.864 313.58 625.057 314.459 626.705 316.036C628.354 317.612 629.331 319.763 629.434 322.041V325.621C629.434 325.722 629.395 325.82 629.325 325.893C629.255 325.967 629.159 326.01 629.058 326.015Z" fill="url(#paint10_linear)" style="mix-blend-mode:screen"/>
<path d="M629.058 326.015H612.126C612.074 326.015 612.023 326.005 611.975 325.985C611.928 325.965 611.884 325.936 611.848 325.899C611.811 325.863 611.782 325.819 611.762 325.772C611.743 325.724 611.732 325.673 611.732 325.621V322.041C611.835 319.763 612.812 317.612 614.461 316.036C616.109 314.459 618.302 313.58 620.583 313.58C622.864 313.58 625.057 314.459 626.705 316.036C628.354 317.612 629.331 319.763 629.434 322.041V325.621C629.434 325.722 629.395 325.82 629.325 325.893C629.255 325.967 629.159 326.01 629.058 326.015Z" stroke="white" stroke-width="0.5"/>
</g>
</g>
<path d="M620.413 335.68C616.434 335.68 612.545 334.5 609.236 332.29C605.928 330.079 603.349 326.937 601.827 323.261C600.304 319.585 599.906 315.54 600.682 311.638C601.458 307.735 603.374 304.151 606.188 301.337C609.001 298.524 612.586 296.608 616.488 295.831C620.391 295.055 624.436 295.453 628.112 296.976C631.788 298.499 634.93 301.077 637.14 304.386C639.351 307.694 640.531 311.583 640.531 315.562C640.526 320.896 638.405 326.011 634.633 329.782C630.861 333.554 625.747 335.675 620.413 335.68ZM620.413 296.035C616.551 296.035 612.776 297.181 609.564 299.326C606.353 301.472 603.85 304.522 602.372 308.09C600.894 311.658 600.508 315.584 601.261 319.372C602.015 323.16 603.874 326.639 606.605 329.37C609.336 332.101 612.816 333.961 616.604 334.714C620.391 335.468 624.318 335.081 627.886 333.603C631.454 332.125 634.504 329.622 636.649 326.411C638.795 323.2 639.94 319.424 639.94 315.562C639.931 310.388 637.87 305.429 634.209 301.771C630.549 298.114 625.587 296.058 620.413 296.053V296.035Z" fill="url(#paint11_linear)" stroke="white" stroke-width="0.5"/>
<g style="mix-blend-mode:screen">
<g style="mix-blend-mode:screen">
<path d="M549.946 172.412C549.285 172.408 548.639 172.209 548.091 171.839C547.543 171.469 547.117 170.945 546.866 170.333C546.616 169.722 546.552 169.049 546.683 168.401C546.814 167.753 547.135 167.158 547.603 166.692C548.072 166.226 548.669 165.909 549.317 165.781C549.966 165.653 550.638 165.721 551.249 165.974C551.859 166.228 552.381 166.657 552.748 167.207C553.115 167.757 553.311 168.404 553.311 169.065C553.306 169.954 552.949 170.806 552.319 171.433C551.688 172.06 550.835 172.412 549.946 172.412Z" fill="url(#paint12_linear)" style="mix-blend-mode:screen"/>
<path d="M549.946 172.412C549.285 172.408 548.639 172.209 548.091 171.839C547.543 171.469 547.117 170.945 546.866 170.333C546.616 169.722 546.552 169.049 546.683 168.401C546.814 167.753 547.135 167.158 547.603 166.692C548.072 166.226 548.669 165.909 549.317 165.781C549.966 165.653 550.638 165.721 551.249 165.974C551.859 166.228 552.381 166.657 552.748 167.207C553.115 167.757 553.311 168.404 553.311 169.065C553.306 169.954 552.949 170.806 552.319 171.433C551.688 172.06 550.835 172.412 549.946 172.412Z" stroke="white" stroke-width="0.5"/>
</g>
<g style="mix-blend-mode:screen">
<path d="M556.945 183.956H543.181C543.096 183.956 543.014 183.922 542.953 183.862C542.893 183.802 542.859 183.72 542.859 183.634V180.717C542.859 178.818 543.613 176.997 544.956 175.654C546.298 174.312 548.119 173.557 550.018 173.557C551.917 173.557 553.738 174.312 555.081 175.654C556.423 176.997 557.178 178.818 557.178 180.717V183.634C557.18 183.706 557.159 183.777 557.117 183.835C557.075 183.894 557.014 183.936 556.945 183.956Z" fill="url(#paint13_linear)" style="mix-blend-mode:screen"/>
<path d="M556.945 183.956H543.181C543.096 183.956 543.014 183.922 542.953 183.862C542.893 183.802 542.859 183.72 542.859 183.634V180.717C542.859 178.818 543.613 176.997 544.956 175.654C546.298 174.312 548.119 173.557 550.018 173.557C551.917 173.557 553.738 174.312 555.081 175.654C556.423 176.997 557.178 178.818 557.178 180.717V183.634C557.18 183.706 557.159 183.777 557.117 183.835C557.075 183.894 557.014 183.936 556.945 183.956Z" stroke="white" stroke-width="0.5"/>
</g>
</g>
<path d="M549.93 191.832C546.699 191.832 543.541 190.874 540.854 189.079C538.167 187.284 536.072 184.733 534.835 181.748C533.598 178.763 533.273 175.478 533.902 172.309C534.531 169.14 536.086 166.228 538.369 163.942C540.653 161.656 543.563 160.098 546.732 159.465C549.9 158.833 553.185 159.154 556.172 160.388C559.158 161.622 561.711 163.714 563.509 166.399C565.307 169.084 566.268 172.241 566.272 175.473C566.272 179.808 564.551 183.966 561.487 187.034C558.422 190.101 554.266 191.827 549.93 191.832ZM549.93 159.615C546.791 159.615 543.721 160.546 541.11 162.29C538.5 164.035 536.465 166.514 535.263 169.415C534.062 172.316 533.747 175.508 534.36 178.588C534.972 181.667 536.484 184.496 538.705 186.716C540.925 188.937 543.754 190.449 546.833 191.061C549.913 191.674 553.105 191.359 556.006 190.158C558.907 188.956 561.386 186.921 563.131 184.311C564.875 181.7 565.806 178.63 565.806 175.49C565.802 171.281 564.127 167.246 561.151 164.27C558.175 161.294 554.14 159.619 549.93 159.615Z" fill="url(#paint14_linear)" stroke="white" stroke-width="0.5"/>
<g style="mix-blend-mode:screen">
<g style="mix-blend-mode:screen">
<path d="M473.54 163.373C473.012 163.373 472.497 163.217 472.058 162.924C471.62 162.631 471.278 162.214 471.076 161.727C470.874 161.24 470.821 160.704 470.924 160.186C471.027 159.669 471.281 159.194 471.654 158.821C472.027 158.448 472.502 158.194 473.02 158.091C473.537 157.988 474.073 158.041 474.56 158.243C475.048 158.445 475.464 158.786 475.757 159.225C476.05 159.663 476.207 160.179 476.207 160.707C476.207 161.414 475.926 162.092 475.426 162.592C474.926 163.092 474.247 163.373 473.54 163.373Z" fill="url(#paint15_linear)" style="mix-blend-mode:screen"/>
<path d="M473.54 163.373C473.012 163.373 472.497 163.217 472.058 162.924C471.62 162.631 471.278 162.214 471.076 161.727C470.874 161.24 470.821 160.704 470.924 160.186C471.027 159.669 471.281 159.194 471.654 158.821C472.027 158.448 472.502 158.194 473.02 158.091C473.537 157.988 474.073 158.041 474.56 158.243C475.048 158.445 475.464 158.786 475.757 159.225C476.05 159.663 476.207 160.179 476.207 160.707C476.207 161.414 475.926 162.092 475.426 162.592C474.926 163.092 474.247 163.373 473.54 163.373Z" stroke="white" stroke-width="0.5"/>
</g>
<g style="mix-blend-mode:screen">
<path d="M479.017 172.555H468.081C468.014 172.555 467.95 172.529 467.903 172.482C467.856 172.435 467.83 172.371 467.83 172.305V169.978C467.83 168.461 468.433 167.007 469.505 165.934C470.577 164.862 472.032 164.259 473.549 164.259C475.065 164.259 476.52 164.862 477.592 165.934C478.665 167.007 479.267 168.461 479.267 169.978V172.305C479.267 172.371 479.241 172.435 479.194 172.482C479.147 172.529 479.083 172.555 479.017 172.555Z" fill="url(#paint16_linear)" style="mix-blend-mode:screen"/>
<path d="M479.017 172.555H468.081C468.014 172.555 467.95 172.529 467.903 172.482C467.856 172.435 467.83 172.371 467.83 172.305V169.978C467.83 168.461 468.433 167.007 469.505 165.934C470.577 164.862 472.032 164.259 473.549 164.259C475.065 164.259 476.52 164.862 477.592 165.934C478.665 167.007 479.267 168.461 479.267 169.978V172.305C479.267 172.371 479.241 172.435 479.194 172.482C479.147 172.529 479.083 172.555 479.017 172.555Z" stroke="white" stroke-width="0.5"/>
</g>
</g>
<path d="M473.522 178.802C470.952 178.802 468.44 178.039 466.303 176.612C464.166 175.184 462.501 173.154 461.517 170.78C460.534 168.406 460.277 165.793 460.778 163.272C461.279 160.752 462.517 158.436 464.334 156.619C466.152 154.802 468.467 153.564 470.987 153.063C473.508 152.562 476.121 152.819 478.495 153.802C480.869 154.786 482.899 156.451 484.327 158.588C485.755 160.725 486.517 163.237 486.517 165.807C486.517 167.514 486.181 169.204 485.527 170.78C484.874 172.357 483.917 173.789 482.711 174.996C481.504 176.202 480.072 177.159 478.495 177.812C476.919 178.465 475.229 178.802 473.522 178.802ZM473.522 153.207C471.044 153.207 468.622 153.942 466.562 155.318C464.502 156.695 462.896 158.652 461.947 160.941C460.999 163.231 460.751 165.75 461.234 168.18C461.718 170.61 462.911 172.843 464.663 174.595C466.415 176.347 468.648 177.54 471.078 178.024C473.509 178.507 476.028 178.259 478.317 177.311C480.606 176.363 482.563 174.757 483.94 172.696C485.316 170.636 486.051 168.214 486.051 165.736C486.051 162.405 484.734 159.209 482.387 156.845C480.04 154.481 476.854 153.141 473.522 153.118V153.207Z" fill="url(#paint17_linear)" stroke="white" stroke-width="0.5"/>
<g style="mix-blend-mode:screen">
<g style="mix-blend-mode:screen">
<path d="M722.112 103.002C721.585 103.002 721.069 102.846 720.631 102.553C720.192 102.26 719.85 101.843 719.649 101.356C719.447 100.869 719.394 100.333 719.497 99.8153C719.6 99.298 719.854 98.8228 720.227 98.4498C720.6 98.0768 721.075 97.8228 721.592 97.7199C722.109 97.617 722.646 97.6699 723.133 97.8717C723.62 98.0736 724.037 98.4154 724.33 98.8539C724.623 99.2925 724.779 99.8081 724.779 100.336C724.779 101.043 724.498 101.721 723.998 102.221C723.498 102.721 722.82 103.002 722.112 103.002Z" fill="url(#paint18_linear)" style="mix-blend-mode:screen"/>
<path d="M722.112 103.002C721.585 103.002 721.069 102.846 720.631 102.553C720.192 102.26 719.85 101.843 719.649 101.356C719.447 100.869 719.394 100.333 719.497 99.8153C719.6 99.298 719.854 98.8228 720.227 98.4498C720.6 98.0768 721.075 97.8228 721.592 97.7199C722.109 97.617 722.646 97.6699 723.133 97.8717C723.62 98.0736 724.037 98.4154 724.33 98.8539C724.623 99.2925 724.779 99.8081 724.779 100.336C724.779 101.043 724.498 101.721 723.998 102.221C723.498 102.721 722.82 103.002 722.112 103.002Z" stroke="white" stroke-width="0.5"/>
</g>
<g style="mix-blend-mode:screen">
<path d="M727.679 112.22H716.743C716.676 112.22 716.613 112.194 716.566 112.147C716.519 112.1 716.492 112.036 716.492 111.969V109.643C716.492 108.126 717.095 106.671 718.167 105.599C719.24 104.527 720.694 103.924 722.211 103.924C723.727 103.924 725.182 104.527 726.254 105.599C727.327 106.671 727.929 108.126 727.929 109.643V111.951C727.932 111.986 727.927 112.02 727.916 112.053C727.904 112.085 727.886 112.115 727.862 112.14C727.839 112.166 727.81 112.186 727.779 112.199C727.747 112.213 727.713 112.22 727.679 112.22Z" fill="url(#paint19_linear)" style="mix-blend-mode:screen"/>
<path d="M727.679 112.22H716.743C716.676 112.22 716.613 112.194 716.566 112.147C716.519 112.1 716.492 112.036 716.492 111.969V109.643C716.492 108.126 717.095 106.671 718.167 105.599C719.24 104.527 720.694 103.924 722.211 103.924C723.727 103.924 725.182 104.527 726.254 105.599C727.327 106.671 727.929 108.126 727.929 109.643V111.951C727.932 111.986 727.927 112.02 727.916 112.053C727.904 112.085 727.886 112.115 727.862 112.14C727.839 112.166 727.81 112.186 727.779 112.199C727.747 112.213 727.713 112.22 727.679 112.22Z" stroke="white" stroke-width="0.5"/>
</g>
</g>
<path d="M722.093 118.466C719.522 118.47 717.008 117.711 714.869 116.285C712.73 114.86 711.062 112.831 710.075 110.457C709.089 108.083 708.829 105.47 709.329 102.948C709.828 100.426 711.064 98.1094 712.881 96.2904C714.697 94.4713 717.012 93.232 719.534 92.7291C722.055 92.2263 724.668 92.4826 727.044 93.4656C729.419 94.4485 731.45 96.114 732.878 98.2513C734.307 100.389 735.069 102.902 735.069 105.472C735.069 108.915 733.703 112.218 731.27 114.654C728.837 117.091 725.536 118.462 722.093 118.466ZM722.093 92.8719C719.615 92.8719 717.193 93.6067 715.132 94.9834C713.072 96.3601 711.466 98.3168 710.518 100.606C709.57 102.895 709.322 105.415 709.805 107.845C710.288 110.275 711.482 112.508 713.234 114.26C714.986 116.012 717.219 117.205 719.649 117.689C722.079 118.172 724.598 117.924 726.888 116.976C729.177 116.028 731.134 114.422 732.51 112.361C733.887 110.301 734.622 107.879 734.622 105.401C734.594 102.088 733.264 98.9196 730.92 96.5789C728.576 94.2382 725.406 92.9132 722.093 92.8898V92.8719Z" fill="url(#paint20_linear)" stroke="white" stroke-width="0.5"/>
<g style="mix-blend-mode:screen">
<g style="mix-blend-mode:screen">
<path d="M183.696 162.872C183.034 162.872 182.387 162.676 181.837 162.308C181.286 161.94 180.857 161.417 180.604 160.806C180.351 160.194 180.285 159.521 180.414 158.872C180.543 158.223 180.862 157.626 181.33 157.158C181.798 156.69 182.394 156.372 183.043 156.242C183.693 156.113 184.366 156.18 184.977 156.433C185.589 156.686 186.112 157.115 186.479 157.666C186.847 158.216 187.043 158.863 187.043 159.525C187.039 160.411 186.684 161.26 186.058 161.887C185.431 162.513 184.583 162.867 183.696 162.872Z" fill="url(#paint21_linear)" style="mix-blend-mode:screen"/>
<path d="M183.696 162.872C183.034 162.872 182.387 162.676 181.837 162.308C181.286 161.94 180.857 161.417 180.604 160.806C180.351 160.194 180.285 159.521 180.414 158.872C180.543 158.223 180.862 157.626 181.33 157.158C181.798 156.69 182.394 156.372 183.043 156.242C183.693 156.113 184.366 156.18 184.977 156.433C185.589 156.686 186.112 157.115 186.479 157.666C186.847 158.216 187.043 158.863 187.043 159.525C187.039 160.411 186.684 161.26 186.058 161.887C185.431 162.513 184.583 162.867 183.696 162.872Z" stroke="white" stroke-width="0.5"/>
</g>
<g style="mix-blend-mode:screen">
<path d="M190.658 174.416H176.894C176.809 174.416 176.727 174.382 176.667 174.322C176.606 174.262 176.572 174.18 176.572 174.094V171.195C176.572 170.255 176.757 169.324 177.117 168.455C177.477 167.586 178.004 166.797 178.669 166.132C179.334 165.468 180.123 164.94 180.992 164.58C181.86 164.221 182.791 164.035 183.732 164.035C184.672 164.035 185.603 164.221 186.471 164.58C187.34 164.94 188.129 165.468 188.794 166.132C189.459 166.797 189.986 167.586 190.346 168.455C190.706 169.324 190.891 170.255 190.891 171.195V174.112C190.89 174.181 190.867 174.248 190.825 174.303C190.783 174.357 190.724 174.397 190.658 174.416Z" fill="url(#paint22_linear)" style="mix-blend-mode:screen"/>
<path d="M190.658 174.416H176.894C176.809 174.416 176.727 174.382 176.667 174.322C176.606 174.262 176.572 174.18 176.572 174.094V171.195C176.572 170.255 176.757 169.324 177.117 168.455C177.477 167.586 178.004 166.797 178.669 166.132C179.334 165.468 180.123 164.94 180.992 164.58C181.86 164.221 182.791 164.035 183.732 164.035C184.672 164.035 185.603 164.221 186.471 164.58C187.34 164.94 188.129 165.468 188.794 166.132C189.459 166.797 189.986 167.586 190.346 168.455C190.706 169.324 190.891 170.255 190.891 171.195V174.112C190.89 174.181 190.867 174.248 190.825 174.303C190.783 174.357 190.724 174.397 190.658 174.416Z" stroke="white" stroke-width="0.5"/>
</g>
</g>
<path d="M183.696 182.292C180.464 182.292 177.305 181.333 174.617 179.538C171.93 177.742 169.835 175.19 168.599 172.204C167.362 169.218 167.038 165.933 167.669 162.763C168.299 159.593 169.856 156.681 172.141 154.396C174.426 152.11 177.338 150.554 180.508 149.924C183.678 149.293 186.963 149.617 189.949 150.854C192.935 152.09 195.487 154.185 197.283 156.872C199.079 159.559 200.037 162.719 200.037 165.951C200.032 170.283 198.309 174.437 195.246 177.5C192.182 180.564 188.028 182.287 183.696 182.292ZM183.696 150.075C180.556 150.075 177.487 151.006 174.876 152.751C172.265 154.495 170.23 156.974 169.029 159.875C167.827 162.776 167.513 165.968 168.125 169.048C168.738 172.128 170.25 174.956 172.47 177.177C174.69 179.397 177.519 180.909 180.599 181.521C183.678 182.134 186.87 181.82 189.771 180.618C192.672 179.416 195.152 177.382 196.896 174.771C198.641 172.16 199.572 169.091 199.572 165.951C199.567 161.742 197.893 157.706 194.917 154.73C191.94 151.754 187.905 150.08 183.696 150.075Z" fill="url(#paint23_linear)" stroke="white" stroke-width="0.5"/>
<g style="mix-blend-mode:screen">
<g style="mix-blend-mode:screen">
<path d="M107.073 14.245C106.411 14.245 105.764 14.0487 105.214 13.6809C104.663 13.3131 104.234 12.7904 103.981 12.1788C103.728 11.5673 103.661 10.8943 103.791 10.245C103.92 9.59579 104.239 8.99942 104.707 8.53133C105.175 8.06325 105.771 7.74448 106.42 7.61534C107.07 7.48619 107.743 7.55248 108.354 7.8058C108.966 8.05913 109.488 8.48812 109.856 9.03852C110.224 9.58893 110.42 10.236 110.42 10.898C110.416 11.7842 110.061 12.6328 109.435 13.2595C108.808 13.8861 107.96 14.2403 107.073 14.245Z" fill="url(#paint24_linear)" style="mix-blend-mode:screen"/>
<path d="M107.073 14.245C106.411 14.245 105.764 14.0487 105.214 13.6809C104.663 13.3131 104.234 12.7904 103.981 12.1788C103.728 11.5673 103.661 10.8943 103.791 10.245C103.92 9.59579 104.239 8.99942 104.707 8.53133C105.175 8.06325 105.771 7.74448 106.42 7.61534C107.07 7.48619 107.743 7.55248 108.354 7.8058C108.966 8.05913 109.488 8.48812 109.856 9.03852C110.224 9.58893 110.42 10.236 110.42 10.898C110.416 11.7842 110.061 12.6328 109.435 13.2595C108.808 13.8861 107.96 14.2403 107.073 14.245Z" stroke="white" stroke-width="0.5"/>
</g>
<g style="mix-blend-mode:screen">
<path d="M114.072 25.8072H100.308C100.265 25.8072 100.224 25.7989 100.184 25.7827C100.145 25.7665 100.11 25.7428 100.08 25.7129C100.05 25.6829 100.026 25.6474 100.01 25.6083C99.9939 25.5693 99.9856 25.5274 99.9856 25.4851V22.5676C99.9856 20.6689 100.74 18.8479 102.083 17.5052C103.425 16.1626 105.246 15.4083 107.145 15.4083C109.044 15.4083 110.865 16.1626 112.207 17.5052C113.55 18.8479 114.304 20.6689 114.304 22.5676V25.503C114.303 25.5719 114.28 25.6387 114.238 25.6934C114.196 25.7482 114.138 25.7881 114.072 25.8072Z" fill="url(#paint25_linear)" style="mix-blend-mode:screen"/>
<path d="M114.072 25.8072H100.308C100.265 25.8072 100.224 25.7989 100.184 25.7827C100.145 25.7665 100.11 25.7428 100.08 25.7129C100.05 25.6829 100.026 25.6474 100.01 25.6083C99.9939 25.5693 99.9856 25.5274 99.9856 25.4851V22.5676C99.9856 20.6689 100.74 18.8479 102.083 17.5052C103.425 16.1626 105.246 15.4083 107.145 15.4083C109.044 15.4083 110.865 16.1626 112.207 17.5052C113.55 18.8479 114.304 20.6689 114.304 22.5676V25.503C114.303 25.5719 114.28 25.6387 114.238 25.6934C114.196 25.7482 114.138 25.7881 114.072 25.8072Z" stroke="white" stroke-width="0.5"/>
</g>
</g>
<path d="M107.054 33.6823C103.822 33.6823 100.662 32.7239 97.9751 30.9283C95.2878 29.1327 93.1934 26.5806 91.9565 23.5946C90.7197 20.6087 90.3961 17.323 91.0266 14.1531C91.6572 10.9833 93.2135 8.07156 95.4989 5.78621C97.7842 3.50087 100.696 1.94452 103.866 1.314C107.036 0.683471 110.321 1.00708 113.307 2.2439C116.293 3.48072 118.845 5.57521 120.641 8.26249C122.437 10.9498 123.395 14.1092 123.395 17.3411C123.39 21.6736 121.667 25.8273 118.603 28.8908C115.54 31.9544 111.386 33.6775 107.054 33.6823ZM107.054 1.46536C103.909 1.44764 100.83 2.3641 98.2076 4.09854C95.5847 5.83297 93.5359 8.30725 92.3211 11.2076C91.1063 14.108 90.7802 17.3038 91.384 20.3897C91.9879 23.4757 93.4946 26.3128 95.7131 28.5413C97.9315 30.7698 100.762 32.2894 103.845 32.9072C106.928 33.525 110.125 33.2134 113.031 32.0117C115.937 30.81 118.421 28.7725 120.167 26.1575C121.913 23.5424 122.844 20.4677 122.84 17.3232C122.831 13.1327 121.167 9.11545 118.21 6.1456C115.254 3.17576 111.244 1.49367 107.054 1.46536Z" fill="url(#paint26_linear)" stroke="white" stroke-width="0.5"/>
<g style="mix-blend-mode:screen">
<g style="mix-blend-mode:screen">
<path d="M247.896 362.867C247.234 362.867 246.587 362.671 246.037 362.303C245.486 361.935 245.057 361.413 244.804 360.801C244.551 360.19 244.484 359.517 244.614 358.867C244.743 358.218 245.062 357.622 245.53 357.154C245.998 356.686 246.594 356.367 247.243 356.238C247.893 356.109 248.566 356.175 249.177 356.428C249.789 356.681 250.311 357.11 250.679 357.661C251.047 358.211 251.243 358.858 251.243 359.52C251.239 360.407 250.884 361.255 250.258 361.882C249.631 362.508 248.783 362.863 247.896 362.867Z" fill="url(#paint27_linear)" style="mix-blend-mode:screen"/>
<path d="M247.896 362.867C247.234 362.867 246.587 362.671 246.037 362.303C245.486 361.935 245.057 361.413 244.804 360.801C244.551 360.19 244.484 359.517 244.614 358.867C244.743 358.218 245.062 357.622 245.53 357.154C245.998 356.686 246.594 356.367 247.243 356.238C247.893 356.109 248.566 356.175 249.177 356.428C249.789 356.681 250.311 357.11 250.679 357.661C251.047 358.211 251.243 358.858 251.243 359.52C251.239 360.407 250.884 361.255 250.258 361.882C249.631 362.508 248.783 362.863 247.896 362.867Z" stroke="white" stroke-width="0.5"/>
</g>
</g>
<path d="M247.88 382.216C244.648 382.216 241.488 381.257 238.801 379.462C236.114 377.666 234.019 375.114 232.782 372.128C231.546 369.142 231.222 365.856 231.853 362.687C232.483 359.517 234.039 356.605 236.325 354.32C238.61 352.034 241.522 350.478 244.692 349.847C247.862 349.217 251.147 349.541 254.133 350.777C257.119 352.014 259.671 354.109 261.467 356.796C263.262 359.483 264.221 362.643 264.221 365.875C264.216 370.207 262.493 374.361 259.429 377.424C256.366 380.488 252.212 382.211 247.88 382.216ZM247.88 349.999C244.74 349.999 241.67 350.93 239.06 352.674C236.449 354.419 234.414 356.898 233.212 359.799C232.011 362.7 231.696 365.892 232.309 368.972C232.922 372.051 234.434 374.88 236.654 377.1C238.874 379.321 241.703 380.833 244.783 381.445C247.862 382.058 251.054 381.743 253.955 380.542C256.856 379.34 259.336 377.305 261.08 374.695C262.824 372.084 263.755 369.014 263.755 365.875C263.751 361.666 262.077 357.63 259.1 354.654C256.124 351.678 252.089 350.004 247.88 349.999Z" fill="url(#paint28_linear)" stroke="white" stroke-width="0.5"/>
<g style="mix-blend-mode:screen">
<g style="mix-blend-mode:screen">
<path d="M232.021 77.8016C231.203 77.8016 230.404 77.5591 229.724 77.1048C229.044 76.6505 228.514 76.0048 228.201 75.2493C227.888 74.4938 227.806 73.6625 227.966 72.8605C228.125 72.0585 228.519 71.3218 229.097 70.7436C229.675 70.1653 230.412 69.7716 231.214 69.612C232.016 69.4525 232.847 69.5344 233.603 69.8473C234.358 70.1602 235.004 70.6902 235.458 71.3701C235.913 72.05 236.155 72.8494 236.155 73.6671C236.155 74.7636 235.72 75.8153 234.944 76.5906C234.169 77.366 233.117 77.8016 232.021 77.8016Z" fill="url(#paint29_linear)" style="mix-blend-mode:screen"/>
<path d="M232.021 77.8016C231.203 77.8016 230.404 77.5591 229.724 77.1048C229.044 76.6505 228.514 76.0048 228.201 75.2493C227.888 74.4938 227.806 73.6625 227.966 72.8605C228.125 72.0585 228.519 71.3218 229.097 70.7436C229.675 70.1653 230.412 69.7716 231.214 69.612C232.016 69.4525 232.847 69.5344 233.603 69.8473C234.358 70.1602 235.004 70.6902 235.458 71.3701C235.913 72.05 236.155 72.8494 236.155 73.6671C236.155 74.7636 235.72 75.8153 234.944 76.5906C234.169 77.366 233.117 77.8016 232.021 77.8016Z" stroke="white" stroke-width="0.5"/>
</g>
<g style="mix-blend-mode:screen">
<path d="M240.539 92.0128H223.608C223.503 92.0128 223.403 91.9714 223.329 91.8975C223.255 91.8237 223.214 91.7235 223.214 91.6191V88.0394C223.316 85.7609 224.294 83.6097 225.942 82.0336C227.591 80.4575 229.784 79.5779 232.065 79.5779C234.345 79.5779 236.538 80.4575 238.187 82.0336C239.836 83.6097 240.813 85.7609 240.915 88.0394V91.6191C240.915 91.7205 240.876 91.818 240.806 91.8914C240.736 91.9647 240.641 92.0082 240.539 92.0128Z" fill="url(#paint30_linear)" style="mix-blend-mode:screen"/>
<path d="M240.539 92.0128H223.608C223.503 92.0128 223.403 91.9714 223.329 91.8975C223.255 91.8237 223.214 91.7235 223.214 91.6191V88.0394C223.316 85.7609 224.294 83.6097 225.942 82.0336C227.591 80.4575 229.784 79.5779 232.065 79.5779C234.345 79.5779 236.538 80.4575 238.187 82.0336C239.836 83.6097 240.813 85.7609 240.915 88.0394V91.6191C240.915 91.7205 240.876 91.818 240.806 91.8914C240.736 91.9647 240.641 92.0082 240.539 92.0128Z" stroke="white" stroke-width="0.5"/>
</g>
</g>
<path d="M231.914 101.696C227.937 101.696 224.05 100.517 220.743 98.3092C217.436 96.101 214.857 92.9622 213.333 89.2893C211.809 85.6164 211.407 81.5742 212.179 77.6732C212.951 73.7722 214.862 70.1875 217.67 67.3719C220.478 64.5562 224.058 62.636 227.956 61.8537C231.855 61.0714 235.899 61.4622 239.576 62.9766C243.252 64.491 246.398 67.0612 248.615 70.3624C250.832 73.6637 252.021 77.548 252.032 81.5246C252.036 84.1703 251.52 86.791 250.511 89.237C249.502 91.6829 248.021 93.906 246.153 95.7794C244.285 97.6527 242.066 99.1394 239.622 100.155C237.179 101.17 234.56 101.694 231.914 101.696ZM231.914 62.0512C228.05 62.0512 224.272 63.1978 221.06 65.3459C217.847 67.4939 215.345 70.5468 213.868 74.118C212.392 77.6893 212.008 81.6182 212.766 85.4076C213.524 89.1969 215.389 92.6762 218.125 95.4049C220.862 98.1337 224.346 99.9892 228.137 100.737C231.929 101.484 235.857 101.09 239.424 99.6034C242.991 98.1172 246.037 95.606 248.176 92.3878C250.315 89.1695 251.452 85.3889 251.441 81.5246C251.417 76.3595 249.35 71.4139 245.691 67.7683C242.032 64.1228 237.079 62.0738 231.914 62.0691V62.0512Z" fill="url(#paint31_linear)" stroke="white" stroke-width="0.5"/>
<g style="mix-blend-mode:screen">
<g style="mix-blend-mode:screen">
<path d="M611.769 27.3463C610.951 27.3463 610.152 27.1038 609.472 26.6495C608.792 26.1952 608.262 25.5495 607.949 24.794C607.636 24.0385 607.554 23.2072 607.714 22.4052C607.873 21.6032 608.267 20.8665 608.845 20.2882C609.423 19.71 610.16 19.3162 610.962 19.1567C611.764 18.9972 612.595 19.0791 613.351 19.392C614.106 19.7049 614.752 20.2349 615.207 20.9148C615.661 21.5947 615.903 22.394 615.903 23.2118C615.903 24.3083 615.468 25.3599 614.692 26.1353C613.917 26.9107 612.865 27.3463 611.769 27.3463Z" fill="url(#paint32_linear)" style="mix-blend-mode:screen"/>
<path d="M611.769 27.3463C610.951 27.3463 610.152 27.1038 609.472 26.6495C608.792 26.1952 608.262 25.5495 607.949 24.794C607.636 24.0385 607.554 23.2072 607.714 22.4052C607.873 21.6032 608.267 20.8665 608.845 20.2882C609.423 19.71 610.16 19.3162 610.962 19.1567C611.764 18.9972 612.595 19.0791 613.351 19.392C614.106 19.7049 614.752 20.2349 615.207 20.9148C615.661 21.5947 615.903 22.394 615.903 23.2118C615.903 24.3083 615.468 25.3599 614.692 26.1353C613.917 26.9107 612.865 27.3463 611.769 27.3463Z" stroke="white" stroke-width="0.5"/>
</g>
<g style="mix-blend-mode:screen">
<path d="M620.414 41.5755H603.482C603.378 41.5755 603.277 41.5341 603.204 41.4602C603.13 41.3864 603.088 41.2862 603.088 41.1818V37.6021C603.035 36.4063 603.224 35.2121 603.644 34.0914C604.065 32.9707 604.708 31.9469 605.535 31.0817C606.362 30.2165 607.356 29.5278 608.457 29.0574C609.557 28.5869 610.742 28.3444 611.939 28.3444C613.136 28.3444 614.321 28.5869 615.421 29.0574C616.522 29.5278 617.516 30.2165 618.343 31.0817C619.17 31.9469 619.813 32.9707 620.234 34.0914C620.654 35.2121 620.843 36.4063 620.79 37.6021V41.1818C620.79 41.2832 620.751 41.3807 620.681 41.4541C620.611 41.5274 620.515 41.5709 620.414 41.5755Z" fill="url(#paint33_linear)" style="mix-blend-mode:screen"/>
<path d="M620.414 41.5755H603.482C603.378 41.5755 603.277 41.5341 603.204 41.4602C603.13 41.3864 603.088 41.2862 603.088 41.1818V37.6021C603.035 36.4063 603.224 35.2121 603.644 34.0914C604.065 32.9707 604.708 31.9469 605.535 31.0817C606.362 30.2165 607.356 29.5278 608.457 29.0574C609.557 28.5869 610.742 28.3444 611.939 28.3444C613.136 28.3444 614.321 28.5869 615.421 29.0574C616.522 29.5278 617.516 30.2165 618.343 31.0817C619.17 31.9469 619.813 32.9707 620.234 34.0914C620.654 35.2121 620.843 36.4063 620.79 37.6021V41.1818C620.79 41.2832 620.751 41.3807 620.681 41.4541C620.611 41.5274 620.515 41.5709 620.414 41.5755Z" stroke="white" stroke-width="0.5"/>
</g>
</g>
<path d="M611.75 51.2584C607.772 51.2584 603.882 50.0785 600.574 47.868C597.265 45.6574 594.687 42.5155 593.164 38.8394C591.642 35.1634 591.243 31.1184 592.019 27.216C592.796 23.3135 594.712 19.7289 597.525 16.9154C600.339 14.1019 603.923 12.1859 607.826 11.4096C611.728 10.6334 615.773 11.0318 619.449 12.5544C623.125 14.0771 626.267 16.6556 628.478 19.964C630.688 23.2723 631.868 27.1618 631.868 31.1407C631.863 36.4748 629.742 41.5891 625.971 45.3609C622.199 49.1326 617.085 51.2537 611.75 51.2584ZM611.75 11.6137C607.888 11.6137 604.113 12.759 600.902 14.9046C597.691 17.0503 595.188 20.1 593.71 23.6681C592.232 27.2362 591.845 31.1624 592.599 34.9503C593.352 38.7382 595.212 42.2175 597.943 44.9484C600.674 47.6793 604.153 49.5391 607.941 50.2926C611.729 51.046 615.655 50.6593 619.223 49.1814C622.791 47.7034 625.841 45.2006 627.987 41.9894C630.132 38.7782 631.278 35.0028 631.278 31.1407C631.273 25.9633 629.214 20.9993 625.553 17.3383C621.892 13.6773 616.928 11.6185 611.75 11.6137Z" fill="url(#paint34_linear)" stroke="white" stroke-width="0.5"/>
<g style="mix-blend-mode:screen">
<g style="mix-blend-mode:screen">
<path d="M427.667 329.81C426.85 329.81 426.05 329.567 425.37 329.113C424.69 328.658 424.16 328.013 423.847 327.257C423.535 326.502 423.453 325.67 423.612 324.868C423.772 324.066 424.165 323.33 424.744 322.752C425.322 322.173 426.059 321.78 426.861 321.62C427.663 321.46 428.494 321.542 429.249 321.855C430.005 322.168 430.651 322.698 431.105 323.378C431.559 324.058 431.802 324.857 431.802 325.675C431.802 326.772 431.366 327.823 430.591 328.599C429.815 329.374 428.764 329.81 427.667 329.81Z" fill="url(#paint35_linear)" style="mix-blend-mode:screen"/>
<path d="M427.667 329.81C426.85 329.81 426.05 329.567 425.37 329.113C424.69 328.658 424.16 328.013 423.847 327.257C423.535 326.502 423.453 325.67 423.612 324.868C423.772 324.066 424.165 323.33 424.744 322.752C425.322 322.173 426.059 321.78 426.861 321.62C427.663 321.46 428.494 321.542 429.249 321.855C430.005 322.168 430.651 322.698 431.105 323.378C431.559 324.058 431.802 324.857 431.802 325.675C431.802 326.772 431.366 327.823 430.591 328.599C429.815 329.374 428.764 329.81 427.667 329.81Z" stroke="white" stroke-width="0.5"/>
</g>
<g style="mix-blend-mode:screen">
<path d="M436.276 344.039H419.344C419.24 344.039 419.14 343.997 419.066 343.923C418.992 343.85 418.95 343.749 418.95 343.645V340.065C418.897 338.87 419.086 337.675 419.506 336.555C419.927 335.434 420.57 334.41 421.397 333.545C422.224 332.68 423.218 331.991 424.319 331.521C425.42 331.05 426.604 330.808 427.801 330.808C428.998 330.808 430.183 331.05 431.283 331.521C432.384 331.991 433.378 332.68 434.205 333.545C435.032 334.41 435.675 335.434 436.096 336.555C436.516 337.675 436.706 338.87 436.652 340.065V343.645C436.652 343.746 436.613 343.844 436.543 343.917C436.473 343.991 436.377 344.034 436.276 344.039Z" fill="url(#paint36_linear)" style="mix-blend-mode:screen"/>
<path d="M436.276 344.039H419.344C419.24 344.039 419.14 343.997 419.066 343.923C418.992 343.85 418.95 343.749 418.95 343.645V340.065C418.897 338.87 419.086 337.675 419.506 336.555C419.927 335.434 420.57 334.41 421.397 333.545C422.224 332.68 423.218 331.991 424.319 331.521C425.42 331.05 426.604 330.808 427.801 330.808C428.998 330.808 430.183 331.05 431.283 331.521C432.384 331.991 433.378 332.68 434.205 333.545C435.032 334.41 435.675 335.434 436.096 336.555C436.516 337.675 436.706 338.87 436.652 340.065V343.645C436.652 343.746 436.613 343.844 436.543 343.917C436.473 343.991 436.377 344.034 436.276 344.039Z" stroke="white" stroke-width="0.5"/>
</g>
</g>
<path d="M427.649 353.721C423.671 353.721 419.781 352.542 416.473 350.331C413.164 348.12 410.586 344.978 409.063 341.302C407.54 337.626 407.142 333.581 407.918 329.679C408.695 325.777 410.611 322.192 413.424 319.378C416.238 316.565 419.822 314.649 423.725 313.873C427.627 313.096 431.672 313.495 435.348 315.017C439.024 316.54 442.166 319.119 444.377 322.427C446.587 325.735 447.767 329.625 447.767 333.604C447.762 338.938 445.641 344.052 441.87 347.824C438.098 351.596 432.983 353.717 427.649 353.721ZM427.649 314.077C423.787 314.077 420.012 315.222 416.801 317.368C413.59 319.513 411.087 322.563 409.609 326.131C408.131 329.699 407.744 333.625 408.498 337.413C409.251 341.201 411.111 344.681 413.842 347.411C416.573 350.142 420.052 352.002 423.84 352.756C427.628 353.509 431.554 353.122 435.122 351.644C438.69 350.166 441.74 347.664 443.886 344.452C446.031 341.241 447.176 337.466 447.176 333.604C447.172 328.426 445.113 323.462 441.452 319.801C437.791 316.14 432.827 314.081 427.649 314.077Z" fill="url(#paint37_linear)" stroke="white" stroke-width="0.5"/>
<g style="mix-blend-mode:screen">
<g style="mix-blend-mode:screen">
<path d="M457.753 82.7773C456.749 82.8058 455.76 82.5342 454.911 81.9971C454.063 81.4601 453.393 80.6822 452.989 79.7628C452.585 78.8434 452.465 77.8243 452.643 76.836C452.821 75.8477 453.29 74.935 453.99 74.2147C454.69 73.4945 455.589 72.9993 456.571 72.7927C457.554 72.5861 458.576 72.6773 459.507 73.0547C460.438 73.4322 461.235 74.0787 461.796 74.9115C462.357 75.7444 462.657 76.7257 462.657 77.73C462.672 79.0483 462.164 80.3188 461.245 81.2643C460.327 82.2099 459.071 82.7537 457.753 82.7773Z" fill="url(#paint38_linear)" style="mix-blend-mode:screen"/>
<path d="M457.753 82.7773C456.749 82.8058 455.76 82.5342 454.911 81.9971C454.063 81.4601 453.393 80.6822 452.989 79.7628C452.585 78.8434 452.465 77.8243 452.643 76.836C452.821 75.8477 453.29 74.935 453.99 74.2147C454.69 73.4945 455.589 72.9993 456.571 72.7927C457.554 72.5861 458.576 72.6773 459.507 73.0547C460.438 73.4322 461.235 74.0787 461.796 74.9115C462.357 75.7444 462.657 76.7257 462.657 77.73C462.672 79.0483 462.164 80.3188 461.245 81.2643C460.327 82.2099 459.071 82.7537 457.753 82.7773Z" stroke="white" stroke-width="0.5"/>
</g>
<g style="mix-blend-mode:screen">
<path d="M467.992 100.174H447.874C447.811 100.175 447.749 100.162 447.692 100.137C447.634 100.113 447.582 100.077 447.538 100.032C447.495 99.9868 447.461 99.9333 447.439 99.8748C447.416 99.8162 447.406 99.7538 447.409 99.6912V95.2882C447.409 92.497 448.517 89.8202 450.491 87.8465C452.465 85.8728 455.142 84.764 457.933 84.764C460.724 84.764 463.401 85.8728 465.374 87.8465C467.348 89.8202 468.457 92.497 468.457 95.2882V99.6733C468.462 99.7374 468.454 99.8017 468.432 99.8624C468.411 99.9231 468.378 99.9787 468.334 100.026C468.29 100.073 468.237 100.11 468.178 100.136C468.119 100.162 468.056 100.175 467.992 100.174Z" fill="url(#paint39_linear)" style="mix-blend-mode:screen"/>
<path d="M467.992 100.174H447.874C447.811 100.175 447.749 100.162 447.692 100.137C447.634 100.113 447.582 100.077 447.538 100.032C447.495 99.9868 447.461 99.9333 447.439 99.8748C447.416 99.8162 447.406 99.7538 447.409 99.6912V95.2882C447.409 92.497 448.517 89.8202 450.491 87.8465C452.465 85.8728 455.142 84.764 457.933 84.764C460.724 84.764 463.401 85.8728 465.374 87.8465C467.348 89.8202 468.457 92.497 468.457 95.2882V99.6733C468.462 99.7374 468.454 99.8017 468.432 99.8624C468.411 99.9231 468.378 99.9787 468.334 100.026C468.29 100.073 468.237 100.11 468.178 100.136C468.119 100.162 468.056 100.175 467.992 100.174Z" stroke="white" stroke-width="0.5"/>
</g>
</g>
<path d="M457.737 111.952C452.842 112.087 448.018 110.759 443.882 108.138C439.746 105.516 436.486 101.72 434.519 97.2361C432.552 92.7517 431.968 87.7825 432.841 82.9642C433.714 78.1459 436.004 73.6974 439.419 70.188C442.834 66.6785 447.218 64.2676 452.011 63.2636C456.804 62.2596 461.787 62.7082 466.323 64.5519C470.86 66.3957 474.743 69.5509 477.476 73.6138C480.21 77.6767 481.669 82.4626 481.667 87.3594C481.744 93.7905 479.268 99.9898 474.783 104.599C470.297 109.209 464.168 111.853 457.737 111.952ZM457.737 63.4652C452.986 63.3406 448.305 64.6358 444.294 67.1852C440.283 69.7346 437.123 73.4224 435.218 77.7771C433.314 82.1318 432.751 86.9556 433.603 91.6316C434.454 96.3076 436.681 100.624 439.998 104.027C443.315 107.431 447.572 109.769 452.225 110.741C456.877 111.712 461.714 111.275 466.116 109.483C470.519 107.692 474.287 104.628 476.939 100.684C479.591 96.7399 481.007 92.0944 481.005 87.3415C481.067 81.1003 478.653 75.0888 474.292 70.6237C469.931 66.1586 463.978 63.6038 457.737 63.5189V63.4652Z" fill="url(#paint40_linear)" stroke="white" stroke-width="0.5"/>
<g style="mix-blend-mode:screen">
<g style="mix-blend-mode:screen">
<path d="M105.408 150.415C104.404 150.443 103.415 150.172 102.566 149.635C101.718 149.098 101.048 148.32 100.644 147.4C100.24 146.481 100.12 145.462 100.298 144.474C100.476 143.485 100.945 142.573 101.645 141.852C102.345 141.132 103.244 140.637 104.227 140.43C105.209 140.224 106.231 140.315 107.162 140.692C108.093 141.07 108.89 141.716 109.451 142.549C110.012 143.382 110.312 144.363 110.312 145.368C110.327 146.686 109.819 147.956 108.901 148.902C107.982 149.847 106.726 150.391 105.408 150.415Z" fill="url(#paint41_linear)" style="mix-blend-mode:screen"/>
<path d="M105.408 150.415C104.404 150.443 103.415 150.172 102.566 149.635C101.718 149.098 101.048 148.32 100.644 147.4C100.24 146.481 100.12 145.462 100.298 144.474C100.476 143.485 100.945 142.573 101.645 141.852C102.345 141.132 103.244 140.637 104.227 140.43C105.209 140.224 106.231 140.315 107.162 140.692C108.093 141.07 108.89 141.716 109.451 142.549C110.012 143.382 110.312 144.363 110.312 145.368C110.327 146.686 109.819 147.956 108.901 148.902C107.982 149.847 106.726 150.391 105.408 150.415Z" stroke="white" stroke-width="0.5"/>
</g>
<g style="mix-blend-mode:screen">
<path d="M115.682 167.812H95.5289C95.4663 167.812 95.4043 167.8 95.3466 167.775C95.289 167.751 95.2368 167.715 95.1934 167.67C95.1499 167.624 95.116 167.571 95.0937 167.512C95.0714 167.454 95.0612 167.391 95.0636 167.329V162.944C95.0636 160.153 96.1724 157.476 98.146 155.502C100.12 153.528 102.797 152.42 105.588 152.42C108.379 152.42 111.056 153.528 113.029 155.502C115.003 157.476 116.112 160.153 116.112 162.944V167.347C116.112 167.464 116.068 167.577 115.989 167.664C115.909 167.75 115.8 167.803 115.682 167.812Z" fill="url(#paint42_linear)" style="mix-blend-mode:screen"/>
<path d="M115.682 167.812H95.5289C95.4663 167.812 95.4043 167.8 95.3466 167.775C95.289 167.751 95.2368 167.715 95.1934 167.67C95.1499 167.624 95.116 167.571 95.0937 167.512C95.0714 167.454 95.0612 167.391 95.0636 167.329V162.944C95.0636 160.153 96.1724 157.476 98.146 155.502C100.12 153.528 102.797 152.42 105.588 152.42C108.379 152.42 111.056 153.528 113.029 155.502C115.003 157.476 116.112 160.153 116.112 162.944V167.347C116.112 167.464 116.068 167.577 115.989 167.664C115.909 167.75 115.8 167.803 115.682 167.812Z" stroke="white" stroke-width="0.5"/>
</g>
</g>
<path d="M105.39 179.643C100.495 179.778 95.671 178.45 91.535 175.829C87.3991 173.208 84.1391 169.412 82.1722 164.928C80.2053 160.443 79.6209 155.474 80.4937 150.656C81.3666 145.837 83.657 141.389 87.0719 137.879C90.4869 134.37 94.8711 131.959 99.6638 130.955C104.457 129.951 109.44 130.4 113.976 132.243C118.513 134.087 122.396 137.242 125.129 141.305C127.862 145.368 129.322 150.154 129.32 155.051C129.401 161.483 126.927 167.685 122.441 172.296C117.954 176.906 111.822 179.549 105.39 179.643ZM105.39 131.157C100.639 131.032 95.9581 132.327 91.9468 134.877C87.9355 137.426 84.7756 141.114 82.8712 145.469C80.9668 149.823 80.4043 154.647 81.2558 159.323C82.1072 163.999 84.3339 168.315 87.651 171.719C90.9682 175.123 95.2252 177.46 99.8777 178.432C104.53 179.404 109.367 178.966 113.769 177.175C118.172 175.383 121.94 172.32 124.592 168.375C127.244 164.431 128.66 159.786 128.658 155.033C128.734 148.782 126.327 142.757 121.964 138.28C117.601 133.804 111.64 131.241 105.39 131.157Z" fill="url(#paint43_linear)" stroke="white" stroke-width="0.5"/>
<g style="mix-blend-mode:screen">
<g style="mix-blend-mode:screen">
<path d="M8.54353 245.562C7.53966 245.591 6.55011 245.319 5.70146 244.782C4.85282 244.245 4.18366 243.467 3.77959 242.548C3.37553 241.628 3.25492 240.609 3.4332 239.621C3.61147 238.633 4.08054 237.72 4.78038 237C5.48022 236.279 6.37902 235.784 7.36181 235.578C8.34459 235.371 9.36669 235.462 10.2973 235.84C11.228 236.217 12.0249 236.864 12.5861 237.697C13.1473 238.529 13.4473 239.511 13.4477 240.515C13.462 241.833 12.9545 243.104 12.0358 244.049C11.1171 244.995 9.8617 245.539 8.54353 245.562Z" fill="url(#paint44_linear)" style="mix-blend-mode:screen"/>
<path d="M8.54353 245.562C7.53966 245.591 6.55011 245.319 5.70146 244.782C4.85282 244.245 4.18366 243.467 3.77959 242.548C3.37553 241.628 3.25492 240.609 3.4332 239.621C3.61147 238.633 4.08054 237.72 4.78038 237C5.48022 236.279 6.37902 235.784 7.36181 235.578C8.34459 235.371 9.36669 235.462 10.2973 235.84C11.228 236.217 12.0249 236.864 12.5861 237.697C13.1473 238.529 13.4473 239.511 13.4477 240.515C13.462 241.833 12.9545 243.104 12.0358 244.049C11.1171 244.995 9.8617 245.539 8.54353 245.562Z" stroke="white" stroke-width="0.5"/>
</g>
<g style="mix-blend-mode:screen">
<path d="M18.7805 262.959H-1.3551C-1.41775 262.96 -1.47976 262.947 -1.53742 262.922C-1.59508 262.898 -1.6472 262.862 -1.69065 262.817C-1.73411 262.772 -1.768 262.718 -1.79031 262.66C-1.81261 262.601 -1.82287 262.539 -1.82046 262.476V258.073C-1.82046 255.282 -0.711662 252.605 1.26201 250.632C3.23568 248.658 5.91254 247.549 8.70373 247.549C11.4949 247.549 14.1718 248.658 16.1455 250.632C18.1191 252.605 19.2279 255.282 19.2279 258.073V262.476C19.2303 262.537 19.2206 262.598 19.1994 262.656C19.1782 262.713 19.1459 262.766 19.1044 262.811C19.0628 262.856 19.0128 262.892 18.9572 262.917C18.9017 262.943 18.8416 262.957 18.7805 262.959Z" fill="url(#paint45_linear)" style="mix-blend-mode:screen"/>
<path d="M18.7805 262.959H-1.3551C-1.41775 262.96 -1.47976 262.947 -1.53742 262.922C-1.59508 262.898 -1.6472 262.862 -1.69065 262.817C-1.73411 262.772 -1.768 262.718 -1.79031 262.66C-1.81261 262.601 -1.82287 262.539 -1.82046 262.476V258.073C-1.82046 255.282 -0.711662 252.605 1.26201 250.632C3.23568 248.658 5.91254 247.549 8.70373 247.549C11.4949 247.549 14.1718 248.658 16.1455 250.632C18.1191 252.605 19.2279 255.282 19.2279 258.073V262.476C19.2303 262.537 19.2206 262.598 19.1994 262.656C19.1782 262.713 19.1459 262.766 19.1044 262.811C19.0628 262.856 19.0128 262.892 18.9572 262.917C18.9017 262.943 18.8416 262.957 18.7805 262.959Z" stroke="white" stroke-width="0.5"/>
</g>
</g>
<path d="M8.5073 274.826C2.09754 274.653 -3.99165 271.985 -8.46413 267.39C-12.9366 262.796 -15.4392 256.637 -15.4392 250.225C-15.4392 243.813 -12.9366 237.654 -8.46413 233.059C-3.99165 228.464 2.09754 225.796 8.5073 225.624C14.9171 225.796 21.0062 228.464 25.4787 233.059C29.9512 237.654 32.4538 243.813 32.4538 250.225C32.4538 256.637 29.9512 262.796 25.4787 267.39C21.0062 271.985 14.9171 274.653 8.5073 274.826ZM8.5073 226.339C2.28573 226.51 -3.62385 229.101 -7.96418 233.562C-12.3045 238.023 -14.733 244.001 -14.733 250.225C-14.733 256.449 -12.3045 262.427 -7.96418 266.888C-3.62385 271.348 2.28573 273.94 8.5073 274.11C14.7289 273.94 20.6385 271.348 24.9788 266.888C29.3191 262.427 31.7476 256.449 31.7476 250.225C31.7476 244.001 29.3191 238.023 24.9788 233.562C20.6385 229.101 14.7289 226.51 8.5073 226.339Z" fill="url(#paint46_linear)" stroke="white" stroke-width="0.5"/>
<g style="mix-blend-mode:screen">
<g style="mix-blend-mode:screen">
<path d="M507.8 270.208C506.796 270.237 505.806 269.965 504.958 269.428C504.109 268.891 503.44 268.113 503.036 267.194C502.632 266.274 502.511 265.255 502.69 264.267C502.868 263.278 503.337 262.366 504.037 261.646C504.737 260.925 505.635 260.43 506.618 260.223C507.601 260.017 508.623 260.108 509.554 260.486C510.484 260.863 511.281 261.509 511.842 262.342C512.404 263.175 512.704 264.156 512.704 265.161C512.718 266.479 512.211 267.75 511.292 268.695C510.373 269.641 509.118 270.185 507.8 270.208Z" fill="url(#paint47_linear)" style="mix-blend-mode:screen"/>
<path d="M507.8 270.208C506.796 270.237 505.806 269.965 504.958 269.428C504.109 268.891 503.44 268.113 503.036 267.194C502.632 266.274 502.511 265.255 502.69 264.267C502.868 263.278 503.337 262.366 504.037 261.646C504.737 260.925 505.635 260.43 506.618 260.223C507.601 260.017 508.623 260.108 509.554 260.486C510.484 260.863 511.281 261.509 511.842 262.342C512.404 263.175 512.704 264.156 512.704 265.161C512.718 266.479 512.211 267.75 511.292 268.695C510.373 269.641 509.118 270.185 507.8 270.208Z" stroke="white" stroke-width="0.5"/>
</g>
<g style="mix-blend-mode:screen">
<path d="M518.037 287.587H497.901C497.839 287.587 497.777 287.575 497.719 287.55C497.661 287.526 497.609 287.49 497.566 287.445C497.522 287.4 497.488 287.346 497.466 287.288C497.444 287.229 497.433 287.167 497.436 287.104V282.701C497.436 281.319 497.708 279.951 498.237 278.674C498.766 277.397 499.541 276.237 500.518 275.259C501.496 274.282 502.656 273.507 503.933 272.978C505.21 272.449 506.578 272.177 507.96 272.177C509.342 272.177 510.711 272.449 511.987 272.978C513.264 273.507 514.425 274.282 515.402 275.259C516.379 276.237 517.154 277.397 517.683 278.674C518.212 279.951 518.484 281.319 518.484 282.701V287.104C518.487 287.165 518.477 287.226 518.456 287.284C518.435 287.341 518.402 287.394 518.361 287.439C518.319 287.483 518.269 287.52 518.214 287.545C518.158 287.571 518.098 287.585 518.037 287.587Z" fill="url(#paint48_linear)" style="mix-blend-mode:screen"/>
<path d="M518.037 287.587H497.901C497.839 287.587 497.777 287.575 497.719 287.55C497.661 287.526 497.609 287.49 497.566 287.445C497.522 287.4 497.488 287.346 497.466 287.288C497.444 287.229 497.433 287.167 497.436 287.104V282.701C497.436 281.319 497.708 279.951 498.237 278.674C498.766 277.397 499.541 276.237 500.518 275.259C501.496 274.282 502.656 273.507 503.933 272.978C505.21 272.449 506.578 272.177 507.96 272.177C509.342 272.177 510.711 272.449 511.987 272.978C513.264 273.507 514.425 274.282 515.402 275.259C516.379 276.237 517.154 277.397 517.683 278.674C518.212 279.951 518.484 281.319 518.484 282.701V287.104C518.487 287.165 518.477 287.226 518.456 287.284C518.435 287.341 518.402 287.394 518.361 287.439C518.319 287.483 518.269 287.52 518.214 287.545C518.158 287.571 518.098 287.585 518.037 287.587Z" stroke="white" stroke-width="0.5"/>
</g>
</g>
<path d="M507.781 299.436C502.886 299.575 498.061 298.25 493.924 295.632C489.786 293.014 486.523 289.22 484.553 284.737C482.583 280.255 481.995 275.286 482.864 270.467C483.733 265.648 486.02 261.198 489.433 257.686C492.845 254.174 497.227 251.76 502.019 250.752C506.811 249.745 511.795 250.19 516.333 252.03C520.87 253.87 524.756 257.023 527.492 261.083C530.229 265.144 531.691 269.929 531.693 274.826C531.779 281.258 529.31 287.462 524.827 292.076C520.344 296.69 514.213 299.337 507.781 299.436ZM507.781 250.95C503.025 250.8 498.333 252.073 494.306 254.607C490.278 257.141 487.099 260.819 485.175 265.171C483.251 269.523 482.671 274.35 483.508 279.034C484.344 283.718 486.56 288.045 489.872 291.462C493.184 294.879 497.44 297.229 502.095 298.211C506.751 299.194 511.594 298.764 516.004 296.977C520.413 295.19 524.189 292.127 526.847 288.18C529.505 284.234 530.925 279.584 530.924 274.826C531 268.597 528.61 262.59 524.274 258.117C519.939 253.644 514.01 251.067 507.781 250.95Z" fill="url(#paint49_linear)" stroke="white" stroke-width="0.5"/>
<g style="mix-blend-mode:screen">
<g style="mix-blend-mode:screen">
<path d="M116.13 307.615C115.313 307.615 114.515 307.373 113.835 306.92C113.156 306.466 112.626 305.822 112.312 305.067C111.999 304.313 111.916 303.482 112.074 302.681C112.232 301.879 112.624 301.143 113.201 300.564C113.777 299.985 114.512 299.59 115.313 299.428C116.114 299.267 116.944 299.346 117.7 299.656C118.456 299.966 119.103 300.493 119.559 301.171C120.016 301.849 120.261 302.646 120.265 303.463C120.267 304.008 120.162 304.547 119.955 305.051C119.749 305.554 119.444 306.012 119.06 306.398C118.676 306.784 118.219 307.09 117.717 307.299C117.214 307.508 116.675 307.615 116.13 307.615Z" fill="url(#paint50_linear)" style="mix-blend-mode:screen"/>
<path d="M116.13 307.615C115.313 307.615 114.515 307.373 113.835 306.92C113.156 306.466 112.626 305.822 112.312 305.067C111.999 304.313 111.916 303.482 112.074 302.681C112.232 301.879 112.624 301.143 113.201 300.564C113.777 299.985 114.512 299.59 115.313 299.428C116.114 299.267 116.944 299.346 117.7 299.656C118.456 299.966 119.103 300.493 119.559 301.171C120.016 301.849 120.261 302.646 120.265 303.463C120.267 304.008 120.162 304.547 119.955 305.051C119.749 305.554 119.444 306.012 119.06 306.398C118.676 306.784 118.219 307.09 117.717 307.299C117.214 307.508 116.675 307.615 116.13 307.615Z" stroke="white" stroke-width="0.5"/>
</g>
<g style="mix-blend-mode:screen">
<path d="M124.758 321.827H107.826C107.722 321.827 107.622 321.785 107.548 321.711C107.474 321.637 107.432 321.537 107.432 321.433V317.853C107.535 315.575 108.512 313.423 110.161 311.847C111.809 310.271 114.002 309.392 116.283 309.392C118.564 309.392 120.757 310.271 122.405 311.847C124.054 313.423 125.031 315.575 125.134 317.853V321.433C125.134 321.534 125.095 321.632 125.025 321.705C124.955 321.778 124.859 321.822 124.758 321.827Z" fill="url(#paint51_linear)" style="mix-blend-mode:screen"/>
<path d="M124.758 321.827H107.826C107.722 321.827 107.622 321.785 107.548 321.711C107.474 321.637 107.432 321.537 107.432 321.433V317.853C107.535 315.575 108.512 313.423 110.161 311.847C111.809 310.271 114.002 309.392 116.283 309.392C118.564 309.392 120.757 310.271 122.405 311.847C124.054 313.423 125.031 315.575 125.134 317.853V321.433C125.134 321.534 125.095 321.632 125.025 321.705C124.955 321.778 124.859 321.822 124.758 321.827Z" stroke="white" stroke-width="0.5"/>
</g>
</g>
<path d="M116.111 331.51C112.132 331.51 108.242 330.33 104.934 328.119C101.626 325.909 99.0472 322.767 97.5245 319.091C96.0019 315.415 95.6035 311.37 96.3797 307.467C97.156 303.565 99.072 299.98 101.886 297.167C104.699 294.353 108.284 292.437 112.186 291.661C116.089 290.885 120.134 291.283 123.81 292.806C127.486 294.329 130.628 296.907 132.838 300.215C135.049 303.524 136.229 307.413 136.229 311.392C136.224 316.726 134.103 321.841 130.331 325.612C126.559 329.384 121.445 331.505 116.111 331.51ZM116.111 291.883C112.249 291.883 108.473 293.028 105.262 295.174C102.051 297.32 99.5482 300.369 98.0702 303.937C96.5923 307.506 96.2056 311.432 96.959 315.22C97.7125 319.008 99.5723 322.487 102.303 325.218C105.034 327.949 108.513 329.808 112.301 330.562C116.089 331.315 120.015 330.929 123.584 329.451C127.152 327.973 130.201 325.47 132.347 322.259C134.493 319.048 135.638 315.272 135.638 311.41C135.638 306.23 133.581 301.261 129.92 297.596C126.258 293.931 121.291 291.87 116.111 291.865V291.883Z" fill="url(#paint52_linear)" stroke="white" stroke-width="0.5"/>
<path d="M390.998 232.564C390.998 232.564 400.625 222.937 403.729 216.074C403.729 216.074 402.516 212.243 403.656 210.254C404.796 208.266 411.161 202.579 412.883 203.779C414.604 204.98 417.066 209.769 416.047 211.77C415.029 213.77 408.772 217.832 408.772 217.832C408.772 217.832 400.976 233.461 396.151 236.989C391.325 240.517 390.998 232.564 390.998 232.564Z" fill="#EBB376"/>
<path d="M366.663 203.61C372.277 204.337 378.667 231.497 383.141 234.079C387.615 236.662 399.231 221.615 399.231 221.615L404.565 227.677C404.565 227.677 389.215 249.065 383.141 247.162C377.066 245.258 365.633 224.125 365.633 224.125L366.663 203.61Z" fill="#263238"/>
<path opacity="0.05" d="M366.663 203.61C372.277 204.337 378.667 231.497 383.141 234.079C387.615 236.662 399.231 221.615 399.231 221.615L404.565 227.677C404.565 227.677 389.215 249.065 383.141 247.162C377.066 245.258 365.633 224.125 365.633 224.125L366.663 203.61Z" fill="white"/>
<path d="M399.23 438.83L387.105 440.964C374.884 410.531 366.202 385.117 360.067 364.032C356.757 352.659 354.187 342.535 352.21 333.563L352.768 366.7V441.97H340.498C310.574 299.395 331.768 266.804 331.768 266.804L367.548 260.742C368.963 267.345 369.964 274.031 370.543 280.76L372.156 292.593L386.148 364.808L399.23 438.83Z" fill="#E4EDFF"/>
<path d="M364.324 188.745C364.272 188.759 364.218 188.759 364.166 188.745C359.607 185.993 355.533 175.856 355.364 175.408C355.348 175.337 355.358 175.263 355.392 175.2C355.426 175.136 355.482 175.086 355.549 175.06C355.616 175.034 355.691 175.032 355.759 175.056C355.827 175.08 355.885 175.127 355.921 175.189C355.921 175.286 360.092 185.556 364.481 188.211C364.536 188.247 364.578 188.298 364.601 188.359C364.624 188.42 364.626 188.486 364.609 188.549C364.591 188.611 364.554 188.666 364.503 188.706C364.451 188.746 364.389 188.768 364.324 188.769V188.745Z" fill="#263238"/>
<path d="M327.622 162.143C327.622 162.143 329.404 156.081 341.286 155.062C353.168 154.044 359.073 165.732 356.272 174.462C356.272 174.462 358.77 186.308 363.547 189.775C363.547 189.775 340.692 200.106 329.149 200.166C326.579 200.166 321.086 187.423 320.383 178.233C319.716 169.357 322.384 162.386 327.622 162.143Z" fill="#263238"/>
<path d="M331.769 261.457V266.804L368.252 264.003V257.686L331.769 261.457Z" fill="#263238"/>
<path opacity="0.3" d="M331.769 261.457V266.804L368.252 264.003V257.686L331.769 261.457Z" fill="white"/>
<path d="M359.825 258.973L351.842 259.688L352.384 265.739L360.367 265.023L359.825 258.973Z" fill="white"/>
<path d="M344.018 259.195L342.213 259.287L342.685 268.502L344.489 268.41L344.018 259.195Z" fill="#E4EDFF"/>
<path d="M366.314 256.76L364.51 256.852L364.98 266.067L366.785 265.974L366.314 256.76Z" fill="#E4EDFF"/>
<path d="M368.385 258.329L331.89 261.481C331.538 255.964 331.186 251.236 330.35 245.937C329.816 242.542 329.077 238.905 328.01 234.673C327.185 231.363 326.155 227.677 324.845 223.458C324.845 223.228 324.712 222.997 324.639 222.767C323.887 220.342 318.577 222.197 318.055 219.299C315.946 206.398 329.865 205.453 335.03 204.604C340.442 203.643 345.916 203.068 351.41 202.882C358.503 202.822 366.663 203.622 366.663 203.622C366.663 203.622 367.876 203.901 368.555 211.43C369.222 218.487 369.876 232.624 368.385 258.329Z" fill="#263238"/>
<path d="M348.391 210.885C339.395 209.733 336.691 205.889 336.691 205.889C342.402 200.506 337.661 191.17 337.661 191.17L348.488 193.195C348.237 194.702 348.096 196.226 348.064 197.754C347.979 204.325 350.95 204.386 350.95 204.386C352.853 207.999 348.391 210.885 348.391 210.885Z" fill="#EBB376"/>
<path opacity="0.2" d="M348.488 193.255C348.237 194.763 348.095 196.286 348.064 197.814C340.789 197.814 337.661 191.23 337.661 191.23L348.488 193.255Z" fill="black"/>
<path d="M340.183 162.955C349.373 160.87 353.447 165.126 356.272 174.45C359.8 186.102 359.073 195.062 347.009 195.171C330.616 195.268 324.918 166.411 340.183 162.955Z" fill="#EBB376"/>
<path d="M350.198 175.274C351.245 176.479 352.434 177.554 353.738 178.475C353.555 178.915 353.254 179.295 352.87 179.575C352.485 179.856 352.03 180.024 351.555 180.063L350.198 175.274Z" fill="#D58745"/>
<path d="M343.847 177.395C344.347 177.269 344.599 176.556 344.409 175.803C344.22 175.05 343.661 174.541 343.161 174.666C342.661 174.792 342.409 175.505 342.598 176.258C342.788 177.011 343.347 177.52 343.847 177.395Z" fill="#263238"/>
<path d="M342.923 174.753L344.39 173.698C344.39 173.698 343.965 175.274 342.923 174.753Z" fill="#263238"/>
<path d="M353.156 174.865C353.656 174.739 353.908 174.027 353.719 173.273C353.529 172.52 352.97 172.011 352.47 172.137C351.97 172.263 351.718 172.975 351.908 173.729C352.097 174.482 352.656 174.991 353.156 174.865Z" fill="#263238"/>
<path d="M352.259 172.243L353.726 171.188C353.726 171.188 353.265 172.776 352.259 172.243Z" fill="#263238"/>
<path d="M339.213 172.195C339.139 172.194 339.066 172.175 339.002 172.138C338.937 172.102 338.883 172.05 338.844 171.987C338.806 171.924 338.783 171.852 338.78 171.778C338.777 171.704 338.792 171.63 338.825 171.564C339.252 170.857 339.838 170.26 340.537 169.82C341.236 169.38 342.028 169.109 342.85 169.03C342.966 169.019 343.082 169.054 343.172 169.128C343.261 169.202 343.318 169.308 343.329 169.424C343.341 169.54 343.305 169.655 343.232 169.745C343.158 169.835 343.051 169.892 342.935 169.903C342.263 169.973 341.616 170.194 341.04 170.548C340.465 170.903 339.977 171.383 339.613 171.952C339.576 172.026 339.519 172.089 339.448 172.131C339.377 172.174 339.296 172.196 339.213 172.195Z" fill="#263238"/>
<path d="M349.483 167.999C349.389 168 349.298 167.97 349.222 167.914C349.147 167.858 349.091 167.779 349.064 167.69C349.037 167.6 349.039 167.503 349.071 167.415C349.103 167.327 349.162 167.251 349.241 167.199C349.891 166.86 350.61 166.674 351.342 166.653C352.075 166.632 352.804 166.777 353.472 167.078C353.581 167.12 353.67 167.203 353.717 167.31C353.765 167.417 353.769 167.538 353.727 167.648C353.685 167.757 353.601 167.845 353.495 167.893C353.388 167.941 353.266 167.944 353.157 167.902C352.62 167.644 352.031 167.509 351.435 167.509C350.839 167.509 350.251 167.644 349.713 167.902C349.647 167.956 349.568 167.99 349.483 167.999Z" fill="#263238"/>
<path d="M351.034 183.98C350.834 185.113 350.717 186.26 350.683 187.411L350.076 187.484C347.336 187.823 345.954 187.072 345.226 186.138C344.894 185.675 344.678 185.138 344.596 184.574C344.551 184.256 344.551 183.934 344.596 183.616C346.378 184.158 348.255 184.311 350.101 184.065C350.683 184.04 351.034 183.98 351.034 183.98Z" fill="#263238"/>
<path d="M350.101 184.089L349.967 185.095C347.385 185.41 345.53 185.277 344.633 184.598C344.588 184.28 344.588 183.958 344.633 183.64C346.403 184.177 348.267 184.33 350.101 184.089Z" fill="white"/>
<path d="M350.088 187.496C347.348 187.835 345.966 187.084 345.239 186.15C346.283 186.042 347.338 186.12 348.355 186.38C349.036 186.559 349.643 186.95 350.088 187.496Z" fill="#DE5753"/>
<path d="M333.648 180.718C333.648 180.718 336.23 172.231 334.266 166.508C334.266 166.508 350.792 154.941 355.885 173.225C355.885 173.225 353.945 156.408 338.061 159.621C322.178 162.834 327.476 185.932 337.2 190.976C337.2 190.976 332.011 186.041 333.648 180.718Z" fill="#263238"/>
<path d="M335.648 182.319C335.319 181.274 334.589 180.403 333.618 179.896C332.648 179.389 331.516 179.288 330.471 179.615C327.694 180.573 327.658 186.72 335.066 186.526C336.072 186.502 336.412 185.423 335.648 182.319Z" fill="#EBB376"/>
<path d="M334.266 166.508C334.266 166.508 343.796 163.004 349.156 165.647C349.156 165.647 343.372 160.458 333.587 165.344L334.266 166.508Z" fill="#263238"/>
<path d="M328.373 206.944C328.373 206.944 338.933 215.516 348.767 215.431C358.6 215.347 362.104 204.24 362.104 204.24C362.104 204.24 346.79 199.657 328.373 206.944Z" fill="#EBB376"/>
<path opacity="0.2" d="M360.08 364.093C356.77 352.72 354.2 342.596 352.223 333.624C352.388 322.987 353.157 312.369 354.527 301.82C354.527 301.82 359.777 342.826 360.08 364.093Z" fill="black"/>
<path d="M298.813 225.919C298.813 225.919 291.538 214.389 290.083 207.005C290.083 207.005 292.084 203.525 291.454 201.355C290.823 199.184 285.84 192.188 283.912 192.988C281.984 193.789 278.492 197.838 279.062 200.069C279.632 202.3 284.821 207.647 284.821 207.647C284.821 207.647 288.932 224.622 292.848 229.132C296.764 233.643 298.813 225.919 298.813 225.919Z" fill="#EBB376"/>
<path d="M318.516 212.97C322.154 212.461 329.623 219.639 328.483 225.847C327.343 232.054 316.952 249.514 308.938 248.156C297.601 246.24 285.149 216.353 285.149 216.353L291.369 210.933C291.369 210.933 306.04 236.347 308.974 235.862C311.908 235.377 318.516 212.97 318.516 212.97Z" fill="#263238"/>
<path opacity="0.05" d="M318.516 212.97C322.154 212.461 329.623 219.639 328.483 225.847C327.343 232.054 316.952 249.514 308.938 248.156C297.601 246.24 285.149 216.353 285.149 216.353L291.369 210.933C291.369 210.933 306.04 236.347 308.974 235.862C311.908 235.377 318.516 212.97 318.516 212.97Z" fill="white"/>
<path d="M282.602 214.534L291.683 209.078L293.126 211.43L284.554 219.02L282.602 214.534Z" fill="#263238"/>
<path d="M397.206 221.457L404.565 230.563L405.838 227.702L399.23 220.015L397.206 221.457Z" fill="#263238"/>
<path d="M400.88 209.139L412.507 194.977C412.603 194.86 412.721 194.765 412.855 194.696C412.989 194.628 413.136 194.587 413.286 194.578C413.437 194.569 413.587 194.591 413.729 194.643C413.87 194.695 413.999 194.776 414.108 194.88L419.285 199.73C419.488 199.92 419.611 200.179 419.629 200.456C419.647 200.734 419.559 201.007 419.382 201.221L407.585 215.735C407.487 215.855 407.364 215.952 407.226 216.021C407.087 216.09 406.935 216.129 406.78 216.135C406.625 216.141 406.471 216.113 406.327 216.055C406.184 215.996 406.055 215.908 405.948 215.795L400.953 210.582C400.767 210.391 400.657 210.14 400.643 209.874C400.63 209.608 400.714 209.347 400.88 209.139Z" fill="#E4EDFF"/>
<path opacity="0.3" d="M400.88 209.139L412.507 194.977C412.603 194.86 412.721 194.765 412.855 194.696C412.989 194.628 413.136 194.587 413.286 194.578C413.437 194.569 413.587 194.591 413.729 194.643C413.87 194.695 413.999 194.776 414.108 194.88L419.285 199.73C419.488 199.92 419.611 200.179 419.629 200.456C419.647 200.734 419.559 201.007 419.382 201.221L407.585 215.735C407.487 215.855 407.364 215.952 407.226 216.021C407.087 216.09 406.935 216.129 406.78 216.135C406.625 216.141 406.471 216.113 406.327 216.055C406.184 215.996 406.055 215.908 405.948 215.795L400.953 210.582C400.767 210.391 400.657 210.14 400.643 209.874C400.63 209.608 400.714 209.347 400.88 209.139Z" fill="black"/>
<path d="M400.419 208.569L412.035 194.419C412.13 194.303 412.248 194.207 412.382 194.138C412.516 194.07 412.663 194.03 412.814 194.02C412.964 194.011 413.114 194.033 413.256 194.085C413.397 194.137 413.526 194.218 413.635 194.322L418.812 199.172C419.015 199.362 419.138 199.621 419.156 199.899C419.174 200.176 419.086 200.449 418.909 200.663L407.112 215.14C407.014 215.26 406.891 215.358 406.753 215.427C406.614 215.496 406.462 215.535 406.307 215.541C406.152 215.546 405.998 215.519 405.855 215.46C405.711 215.402 405.582 215.313 405.475 215.201L400.48 209.987C400.302 209.797 400.198 209.549 400.187 209.289C400.176 209.029 400.258 208.774 400.419 208.569Z" fill="#E4EDFF"/>
<path opacity="0.6" d="M412.507 194.989L418.254 200.542L407.014 214.377L401.413 208.496L412.507 194.989Z" fill="white"/>
<defs>
<linearGradient id="paint0_linear" x1="191" y1="231.065" x2="220.156" y2="260.221" gradientUnits="userSpaceOnUse">
<stop stop-color="#B4C1D4"/>
<stop offset="0.95" stop-color="#EFFCFD"/>
<stop offset="1" stop-color="#F1FEFF"/>
</linearGradient>
<linearGradient id="paint1_linear" x1="3460.48" y1="2730.5" x2="3746.43" y2="3125.06" gradientUnits="userSpaceOnUse">
<stop stop-color="#B4C1D4"/>
<stop offset="0.95" stop-color="#EFFCFD"/>
<stop offset="1" stop-color="#F1FEFF"/>
</linearGradient>
<linearGradient id="paint2_linear" x1="7356.09" y1="8393.93" x2="9229.77" y2="8393.93" gradientUnits="userSpaceOnUse">
<stop stop-color="#B4C1D4"/>
<stop offset="0.95" stop-color="#EFFCFD"/>
<stop offset="1" stop-color="#F1FEFF"/>
</linearGradient>
<linearGradient id="paint3_linear" x1="5361.08" y1="1489.13" x2="5554.68" y2="1682.6" gradientUnits="userSpaceOnUse">
<stop stop-color="#B4C1D4"/>
<stop offset="0.95" stop-color="#EFFCFD"/>
<stop offset="1" stop-color="#F1FEFF"/>
</linearGradient>
<linearGradient id="paint4_linear" x1="10586" y1="2323.26" x2="10871.9" y2="2717.85" gradientUnits="userSpaceOnUse">
<stop stop-color="#B4C1D4"/>
<stop offset="0.95" stop-color="#EFFCFD"/>
<stop offset="1" stop-color="#F1FEFF"/>
</linearGradient>
<linearGradient id="paint5_linear" x1="22951.4" y1="7193.79" x2="24825.1" y2="7193.79" gradientUnits="userSpaceOnUse">
<stop stop-color="#B4C1D4"/>
<stop offset="0.95" stop-color="#EFFCFD"/>
<stop offset="1" stop-color="#F1FEFF"/>
</linearGradient>
<linearGradient id="paint6_linear" x1="2123.7" y1="186.135" x2="2217.3" y2="279.74" gradientUnits="userSpaceOnUse">
<stop stop-color="#B4C1D4"/>
<stop offset="0.95" stop-color="#EFFCFD"/>
<stop offset="1" stop-color="#F1FEFF"/>
</linearGradient>
<linearGradient id="paint7_linear" x1="4086.54" y1="337.793" x2="4230.02" y2="529.944" gradientUnits="userSpaceOnUse">
<stop stop-color="#B4C1D4"/>
<stop offset="0.95" stop-color="#EFFCFD"/>
<stop offset="1" stop-color="#F1FEFF"/>
</linearGradient>
<linearGradient id="paint8_linear" x1="8719.99" y1="1105.06" x2="9624.48" y2="1105.06" gradientUnits="userSpaceOnUse">
<stop stop-color="#B4C1D4"/>
<stop offset="0.95" stop-color="#EFFCFD"/>
<stop offset="1" stop-color="#F1FEFF"/>
</linearGradient>
<linearGradient id="paint9_linear" x1="3673.83" y1="1685.21" x2="3767.44" y2="1778.81" gradientUnits="userSpaceOnUse">
<stop stop-color="#B4C1D4"/>
<stop offset="0.95" stop-color="#EFFCFD"/>
<stop offset="1" stop-color="#F1FEFF"/>
</linearGradient>
<linearGradient id="paint10_linear" x1="7086.56" y1="2440.95" x2="7218.86" y2="2629.29" gradientUnits="userSpaceOnUse">
<stop stop-color="#B4C1D4"/>
<stop offset="0.95" stop-color="#EFFCFD"/>
<stop offset="1" stop-color="#F1FEFF"/>
</linearGradient>
<linearGradient id="paint11_linear" x1="15196.9" y1="7367.61" x2="16101" y2="7367.61" gradientUnits="userSpaceOnUse">
<stop stop-color="#B4C1D4"/>
<stop offset="0.95" stop-color="#EFFCFD"/>
<stop offset="1" stop-color="#F1FEFF"/>
</linearGradient>
<linearGradient id="paint12_linear" x1="2763.46" y1="771.115" x2="2825.05" y2="832.7" gradientUnits="userSpaceOnUse">
<stop stop-color="#B4C1D4"/>
<stop offset="0.95" stop-color="#EFFCFD"/>
<stop offset="1" stop-color="#F1FEFF"/>
</linearGradient>
<linearGradient id="paint13_linear" x1="5238.45" y1="1147.73" x2="5329.42" y2="1273" gradientUnits="userSpaceOnUse">
<stop stop-color="#B4C1D4"/>
<stop offset="0.95" stop-color="#EFFCFD"/>
<stop offset="1" stop-color="#F1FEFF"/>
</linearGradient>
<linearGradient id="paint14_linear" x1="11171.3" y1="3345.67" x2="11768.1" y2="3345.67" gradientUnits="userSpaceOnUse">
<stop stop-color="#B4C1D4"/>
<stop offset="0.95" stop-color="#EFFCFD"/>
<stop offset="1" stop-color="#F1FEFF"/>
</linearGradient>
<linearGradient id="paint15_linear" x1="2013.32" y1="619.351" x2="2052.25" y2="658.286" gradientUnits="userSpaceOnUse">
<stop stop-color="#B4C1D4"/>
<stop offset="0.95" stop-color="#EFFCFD"/>
<stop offset="1" stop-color="#F1FEFF"/>
</linearGradient>
<linearGradient id="paint16_linear" x1="3745.91" y1="903.088" x2="3803.45" y2="982.527" gradientUnits="userSpaceOnUse">
<stop stop-color="#B4C1D4"/>
<stop offset="0.95" stop-color="#EFFCFD"/>
<stop offset="1" stop-color="#F1FEFF"/>
</linearGradient>
<linearGradient id="paint17_linear" x1="7858.88" y1="2546.08" x2="8235.97" y2="2546.08" gradientUnits="userSpaceOnUse">
<stop stop-color="#B4C1D4"/>
<stop offset="0.95" stop-color="#EFFCFD"/>
<stop offset="1" stop-color="#F1FEFF"/>
</linearGradient>
<linearGradient id="paint18_linear" x1="3002.63" y1="379.181" x2="3041.62" y2="418.17" gradientUnits="userSpaceOnUse">
<stop stop-color="#B4C1D4"/>
<stop offset="0.95" stop-color="#EFFCFD"/>
<stop offset="1" stop-color="#F1FEFF"/>
</linearGradient>
<linearGradient id="paint19_linear" x1="5583.22" y1="563.183" x2="5640.78" y2="642.55" gradientUnits="userSpaceOnUse">
<stop stop-color="#B4C1D4"/>
<stop offset="0.95" stop-color="#EFFCFD"/>
<stop offset="1" stop-color="#F1FEFF"/>
</linearGradient>
<linearGradient id="paint20_linear" x1="11716.7" y1="1609.94" x2="12093.8" y2="1609.94" gradientUnits="userSpaceOnUse">
<stop stop-color="#B4C1D4"/>
<stop offset="0.95" stop-color="#EFFCFD"/>
<stop offset="1" stop-color="#F1FEFF"/>
</linearGradient>
<linearGradient id="paint21_linear" x1="1027.2" y1="725.9" x2="1088.79" y2="787.485" gradientUnits="userSpaceOnUse">
<stop stop-color="#B4C1D4"/>
<stop offset="0.95" stop-color="#EFFCFD"/>
<stop offset="1" stop-color="#F1FEFF"/>
</linearGradient>
<linearGradient id="paint22_linear" x1="1941.77" y1="1081.2" x2="2032.42" y2="1206.36" gradientUnits="userSpaceOnUse">
<stop stop-color="#B4C1D4"/>
<stop offset="0.95" stop-color="#EFFCFD"/>
<stop offset="1" stop-color="#F1FEFF"/>
</linearGradient>
<linearGradient id="paint23_linear" x1="4116.35" y1="3161.94" x2="4713.46" y2="3161.94" gradientUnits="userSpaceOnUse">
<stop stop-color="#B4C1D4"/>
<stop offset="0.95" stop-color="#EFFCFD"/>
<stop offset="1" stop-color="#F1FEFF"/>
</linearGradient>
<linearGradient id="paint24_linear" x1="664.144" y1="21.4745" x2="725.728" y2="83.0588" gradientUnits="userSpaceOnUse">
<stop stop-color="#B4C1D4"/>
<stop offset="0.95" stop-color="#EFFCFD"/>
<stop offset="1" stop-color="#F1FEFF"/>
</linearGradient>
<linearGradient id="paint25_linear" x1="1252.35" y1="70.7305" x2="1343.36" y2="195.905" gradientUnits="userSpaceOnUse">
<stop stop-color="#B4C1D4"/>
<stop offset="0.95" stop-color="#EFFCFD"/>
<stop offset="1" stop-color="#F1FEFF"/>
</linearGradient>
<linearGradient id="paint26_linear" x1="2641.24" y1="299.389" x2="3238.34" y2="299.389" gradientUnits="userSpaceOnUse">
<stop stop-color="#B4C1D4"/>
<stop offset="0.95" stop-color="#EFFCFD"/>
<stop offset="1" stop-color="#F1FEFF"/>
</linearGradient>
<linearGradient id="paint27_linear" x1="1331.72" y1="1673.88" x2="1393.3" y2="1735.46" gradientUnits="userSpaceOnUse">
<stop stop-color="#B4C1D4"/>
<stop offset="0.95" stop-color="#EFFCFD"/>
<stop offset="1" stop-color="#F1FEFF"/>
</linearGradient>
<linearGradient id="paint28_linear" x1="5353.83" y1="7013.77" x2="5950.94" y2="7013.77" gradientUnits="userSpaceOnUse">
<stop stop-color="#B4C1D4"/>
<stop offset="0.95" stop-color="#EFFCFD"/>
<stop offset="1" stop-color="#F1FEFF"/>
</linearGradient>
<linearGradient id="paint29_linear" x1="1490.48" y1="370.111" x2="1584.08" y2="463.716" gradientUnits="userSpaceOnUse">
<stop stop-color="#B4C1D4"/>
<stop offset="0.95" stop-color="#EFFCFD"/>
<stop offset="1" stop-color="#F1FEFF"/>
</linearGradient>
<linearGradient id="paint30_linear" x1="2855.59" y1="581.204" x2="2988.05" y2="769.598" gradientUnits="userSpaceOnUse">
<stop stop-color="#B4C1D4"/>
<stop offset="0.95" stop-color="#EFFCFD"/>
<stop offset="1" stop-color="#F1FEFF"/>
</linearGradient>
<linearGradient id="paint31_linear" x1="6074.48" y1="1873.66" x2="6978.57" y2="1873.66" gradientUnits="userSpaceOnUse">
<stop stop-color="#B4C1D4"/>
<stop offset="0.95" stop-color="#EFFCFD"/>
<stop offset="1" stop-color="#F1FEFF"/>
</linearGradient>
<linearGradient id="paint32_linear" x1="3625.09" y1="86.6351" x2="3718.69" y2="180.158" gradientUnits="userSpaceOnUse">
<stop stop-color="#B4C1D4"/>
<stop offset="0.95" stop-color="#EFFCFD"/>
<stop offset="1" stop-color="#F1FEFF"/>
</linearGradient>
<linearGradient id="paint33_linear" x1="6998.5" y1="189.103" x2="7141.94" y2="381.375" gradientUnits="userSpaceOnUse">
<stop stop-color="#B4C1D4"/>
<stop offset="0.95" stop-color="#EFFCFD"/>
<stop offset="1" stop-color="#F1FEFF"/>
</linearGradient>
<linearGradient id="paint34_linear" x1="14992.7" y1="688.989" x2="15897.1" y2="688.989" gradientUnits="userSpaceOnUse">
<stop stop-color="#B4C1D4"/>
<stop offset="0.95" stop-color="#EFFCFD"/>
<stop offset="1" stop-color="#F1FEFF"/>
</linearGradient>
<linearGradient id="paint35_linear" x1="2590.43" y1="1786.48" x2="2684.03" y2="1880" gradientUnits="userSpaceOnUse">
<stop stop-color="#B4C1D4"/>
<stop offset="0.95" stop-color="#EFFCFD"/>
<stop offset="1" stop-color="#F1FEFF"/>
</linearGradient>
<linearGradient id="paint36_linear" x1="4991.75" y1="2727.5" x2="5135.2" y2="2919.77" gradientUnits="userSpaceOnUse">
<stop stop-color="#B4C1D4"/>
<stop offset="0.95" stop-color="#EFFCFD"/>
<stop offset="1" stop-color="#F1FEFF"/>
</linearGradient>
<linearGradient id="paint37_linear" x1="10670" y1="7790.82" x2="11574.5" y2="7790.82" gradientUnits="userSpaceOnUse">
<stop stop-color="#B4C1D4"/>
<stop offset="0.95" stop-color="#EFFCFD"/>
<stop offset="1" stop-color="#F1FEFF"/>
</linearGradient>
<linearGradient id="paint38_linear" x1="3258.74" y1="453.656" x2="3396.53" y2="591.452" gradientUnits="userSpaceOnUse">
<stop stop-color="#B4C1D4"/>
<stop offset="0.95" stop-color="#EFFCFD"/>
<stop offset="1" stop-color="#F1FEFF"/>
</linearGradient>
<linearGradient id="paint39_linear" x1="6198.3" y1="742.481" x2="6398.38" y2="1015.78" gradientUnits="userSpaceOnUse">
<stop stop-color="#B4C1D4"/>
<stop offset="0.95" stop-color="#EFFCFD"/>
<stop offset="1" stop-color="#F1FEFF"/>
</linearGradient>
<linearGradient id="paint40_linear" x1="13709.6" y1="2439.59" x2="15025.3" y2="2439.59" gradientUnits="userSpaceOnUse">
<stop stop-color="#B4C1D4"/>
<stop offset="0.95" stop-color="#EFFCFD"/>
<stop offset="1" stop-color="#F1FEFF"/>
</linearGradient>
<linearGradient id="paint41_linear" x1="919.118" y1="902.77" x2="1057.01" y2="1040.57" gradientUnits="userSpaceOnUse">
<stop stop-color="#B4C1D4"/>
<stop offset="0.95" stop-color="#EFFCFD"/>
<stop offset="1" stop-color="#F1FEFF"/>
</linearGradient>
<linearGradient id="paint42_linear" x1="1701.92" y1="1391.21" x2="1901.75" y2="1664.27" gradientUnits="userSpaceOnUse">
<stop stop-color="#B4C1D4"/>
<stop offset="0.95" stop-color="#EFFCFD"/>
<stop offset="1" stop-color="#F1FEFF"/>
</linearGradient>
<linearGradient id="paint43_linear" x1="3667.91" y1="4367.31" x2="4983.62" y2="4367.31" gradientUnits="userSpaceOnUse">
<stop stop-color="#B4C1D4"/>
<stop offset="0.95" stop-color="#EFFCFD"/>
<stop offset="1" stop-color="#F1FEFF"/>
</linearGradient>
<linearGradient id="paint44_linear" x1="275.916" y1="1534.55" x2="413.708" y2="1672.34" gradientUnits="userSpaceOnUse">
<stop stop-color="#B4C1D4"/>
<stop offset="0.95" stop-color="#EFFCFD"/>
<stop offset="1" stop-color="#F1FEFF"/>
</linearGradient>
<linearGradient id="paint45_linear" x1="465.89" y1="2307" x2="665.827" y2="2580.09" gradientUnits="userSpaceOnUse">
<stop stop-color="#B4C1D4"/>
<stop offset="0.95" stop-color="#EFFCFD"/>
<stop offset="1" stop-color="#F1FEFF"/>
</linearGradient>
<linearGradient id="paint46_linear" x1="883.034" y1="7076.56" x2="2163.21" y2="7076.56" gradientUnits="userSpaceOnUse">
<stop stop-color="#B4C1D4"/>
<stop offset="0.95" stop-color="#EFFCFD"/>
<stop offset="1" stop-color="#F1FEFF"/>
</linearGradient>
<linearGradient id="paint47_linear" x1="3591.05" y1="1698.2" x2="3728.85" y2="1835.99" gradientUnits="userSpaceOnUse">
<stop stop-color="#B4C1D4"/>
<stop offset="0.95" stop-color="#EFFCFD"/>
<stop offset="1" stop-color="#F1FEFF"/>
</linearGradient>
<linearGradient id="paint48_linear" x1="6836.57" y1="2543.67" x2="7036.46" y2="2816.91" gradientUnits="userSpaceOnUse">
<stop stop-color="#B4C1D4"/>
<stop offset="0.95" stop-color="#EFFCFD"/>
<stop offset="1" stop-color="#F1FEFF"/>
</linearGradient>
<linearGradient id="paint49_linear" x1="15136" y1="7780.93" x2="16451.7" y2="7780.93" gradientUnits="userSpaceOnUse">
<stop stop-color="#B4C1D4"/>
<stop offset="0.95" stop-color="#EFFCFD"/>
<stop offset="1" stop-color="#F1FEFF"/>
</linearGradient>
<linearGradient id="paint50_linear" x1="839.586" y1="1661.67" x2="933.191" y2="1755.19" gradientUnits="userSpaceOnUse">
<stop stop-color="#B4C1D4"/>
<stop offset="0.95" stop-color="#EFFCFD"/>
<stop offset="1" stop-color="#F1FEFF"/>
</linearGradient>
<linearGradient id="paint51_linear" x1="1594.53" y1="2407.54" x2="1726.95" y2="2596.05" gradientUnits="userSpaceOnUse">
<stop stop-color="#B4C1D4"/>
<stop offset="0.95" stop-color="#EFFCFD"/>
<stop offset="1" stop-color="#F1FEFF"/>
</linearGradient>
<linearGradient id="paint52_linear" x1="3355.46" y1="7269.29" x2="4259.55" y2="7269.29" gradientUnits="userSpaceOnUse">
<stop stop-color="#B4C1D4"/>
<stop offset="0.95" stop-color="#EFFCFD"/>
<stop offset="1" stop-color="#F1FEFF"/>
</linearGradient>
</defs>
</svg>
