<svg width="48" height="48" viewBox="0 0 48 48" fill="none" xmlns="http://www.w3.org/2000/svg">
<rect width="48" height="48" rx="24" fill="url(#paint0_linear)"/>
<path d="M35.5115 24.1549H32.6196C32.3499 24.1549 32.1313 24.3735 32.1313 24.6432V25.0557H29.0904C29.0263 25.0557 28.9628 25.0683 28.9037 25.0929L25.0085 26.705C24.5578 26.8918 24.2076 27.2431 24.0228 27.6946C23.8378 28.1458 23.8406 28.6418 24.0308 29.0911L24.0439 29.1222C24.1569 29.3889 24.3232 29.6156 24.5252 29.7949C23.9324 29.9557 23.3108 29.9687 22.7065 29.8304L18.8825 28.9548C18.4146 28.8477 17.9343 28.9315 17.5303 29.1907C17.1266 29.4497 16.8502 29.8514 16.7525 30.3212C16.5589 31.252 17.1292 32.1646 18.0507 32.3988L22.6134 33.5585C22.9999 33.6566 23.3916 33.7054 23.7821 33.7054C24.3674 33.7054 24.9499 33.5957 25.5059 33.3775L31.3088 31.1017H32.1313V31.3586C32.1313 31.6283 32.3501 31.8469 32.6196 31.8469H35.5115C35.7812 31.8469 35.9998 31.6283 35.9998 31.3586V24.6432C35.9998 24.3735 35.7812 24.1549 35.5115 24.1549ZM31.2163 30.1251C31.1553 30.1251 31.0948 30.1365 31.0382 30.1587L25.1492 32.4685C24.4136 32.7569 23.6199 32.8064 22.8539 32.6119L18.2912 31.4522C17.8777 31.3471 17.6217 30.9376 17.7085 30.5199C17.7524 30.309 17.8763 30.1287 18.0577 30.0126C18.1874 29.9292 18.3349 29.8863 18.4852 29.8863C18.5447 29.8863 18.6048 29.893 18.6645 29.9067L22.4885 30.7822C23.4086 30.9928 24.3606 30.9252 25.2418 30.5865L26.3515 30.1598C26.3743 30.152 26.397 30.1436 26.4197 30.1348C27.4007 29.7566 28.6527 29.2752 28.9218 29.1716L28.9742 29.1514C29.2258 29.0547 29.3515 28.772 29.2548 28.5204C29.1581 28.2687 28.8756 28.1432 28.6237 28.2399C28.6237 28.2399 28.6036 28.2477 28.5666 28.2618L26.0217 29.2405C25.5902 29.3803 25.1237 29.1678 24.9433 28.7415L24.9299 28.7102C24.842 28.5027 24.8408 28.2734 24.9263 28.0648C25.0117 27.8561 25.1735 27.6936 25.3819 27.6074L29.1875 26.0323H32.1313V30.1251H31.2163ZM35.0232 30.8703H33.1079V25.1315H35.0232V30.8703Z" fill="white"/>
<path d="M15.755 23.9509H14.8687V19.3885H15.0039C15.365 19.3885 15.7255 19.3015 16.0465 19.1369C16.0615 19.1291 16.0764 19.1207 16.0905 19.1114L19.2527 17.0482C19.6897 16.8338 20.2207 16.8826 20.6117 17.1748L20.84 17.345C20.8261 17.3646 20.8127 17.3846 20.7992 17.4043C20.7389 17.492 20.6809 17.5815 20.6264 17.6728C20.2888 18.2368 20.0719 18.8714 19.9922 19.5186C19.6594 19.5544 19.3511 19.7013 19.1112 19.9411C18.8333 20.219 18.6801 20.589 18.6801 20.9827C18.6801 21.7946 19.3408 22.4553 20.1528 22.4553H23.7676C23.9671 22.4553 24.155 22.5331 24.2959 22.6737C24.4375 22.8156 24.5155 23.0037 24.5157 23.2032C24.5155 23.5011 24.341 23.7697 24.0692 23.8881C24.0377 23.902 24.0093 23.9123 23.9826 23.9198C23.9801 23.9205 23.9778 23.9213 23.9753 23.9221C23.9095 23.9411 23.8397 23.9509 23.7676 23.9509H19.6603C19.3908 23.9509 19.172 24.1695 19.172 24.4392C19.172 24.7089 19.3908 24.9274 19.6603 24.9274H23.7676C23.8937 24.9274 24.018 24.9137 24.139 24.8872C24.344 24.9135 24.5517 24.9278 24.7583 24.9278C27.407 24.9278 29.5621 22.7729 29.5621 20.124C29.5621 17.4752 27.407 15.3203 24.7583 15.3203C23.5378 15.3203 22.3695 15.7851 21.4855 16.6083L21.1959 16.3922C20.5022 15.874 19.556 15.7945 18.7858 16.1899C18.7707 16.1975 18.7562 16.2061 18.7419 16.2152L15.5801 18.2782C15.4016 18.3658 15.2028 18.4117 15.0039 18.4117H14.8685V18.2351C14.8685 17.9654 14.6499 17.7468 14.3802 17.7468H11.4883C11.2186 17.7468 11 17.9654 11 18.2351V24.9505C11 25.2202 11.2186 25.4388 11.4883 25.4388H14.3802C14.6499 25.4388 14.8685 25.2202 14.8685 24.9505V24.9274H15.755C16.0245 24.9274 16.2433 24.7089 16.2433 24.4392C16.2433 24.1695 16.0245 23.9509 15.755 23.9509ZM19.6567 20.9827C19.6567 20.8499 19.7082 20.7252 19.8018 20.6317C19.8507 20.5829 19.9081 20.5457 19.9706 20.5211C19.9972 20.8476 20.0567 21.1673 20.1482 21.4786C19.8768 21.4761 19.6567 21.2546 19.6567 20.9827ZM28.5854 20.1242C28.5854 22.0355 27.1768 23.6243 25.3429 23.9066C25.4409 23.6865 25.4922 23.4443 25.4922 23.2032C25.4922 22.9074 25.4176 22.623 25.278 22.3704C25.4899 22.3371 25.6856 22.2392 25.8403 22.0845C26.0337 21.8913 26.1402 21.6344 26.1402 21.3611V20.639C26.1402 20.0748 25.6811 19.6157 25.1169 19.6157H24.4005C24.3747 19.6157 24.3537 19.5947 24.3537 19.5689V18.8872C24.3537 18.8615 24.3747 18.8407 24.4005 18.8407H24.7585H24.7587H24.7589H25.1169C25.1426 18.8407 25.1636 18.8615 25.1636 18.8872C25.1636 19.1569 25.3822 19.3755 25.6519 19.3755C25.9214 19.3755 26.1402 19.1569 26.1402 18.8872C26.1402 18.3673 25.7497 17.9376 25.2469 17.8733V17.7041C25.2469 17.4344 25.0284 17.2158 24.7587 17.2158C24.489 17.2158 24.2704 17.4344 24.2704 17.7041V17.8733C23.7674 17.9376 23.3772 18.3673 23.3772 18.8872V19.5689C23.3772 20.1331 23.8363 20.5922 24.4005 20.5922H25.1169C25.1426 20.5922 25.1636 20.6132 25.1636 20.639V21.3611C25.1636 21.3739 25.159 21.3849 25.1499 21.3941C25.1407 21.403 25.1298 21.4076 25.1169 21.4076H24.4005C24.3747 21.4076 24.3537 21.3866 24.3537 21.3611V21.2949C24.3537 21.0252 24.1351 20.8066 23.8654 20.8066C23.5957 20.8066 23.3772 21.0252 23.3772 21.2949V21.3611C23.3772 21.4007 23.38 21.4398 23.3844 21.4786H21.1776C21.014 21.0479 20.9312 20.5934 20.9312 20.1242C20.9312 19.4087 21.1347 18.6925 21.5181 18.0877C21.6283 17.9139 21.7512 17.7482 21.8875 17.5939C22.614 16.7695 23.6596 16.2969 24.7583 16.2969C26.8686 16.2969 28.5854 18.0137 28.5854 20.1242ZM13.8919 24.4624H11.9766V18.7234H13.8919V24.4624Z" fill="white"/>
<path d="M18.0995 24.1685C17.9849 23.9932 17.7602 23.9126 17.5598 23.97C17.366 24.0257 17.2246 24.199 17.2073 24.3997C17.1897 24.6025 17.3074 24.8004 17.4924 24.8838C17.6757 24.9666 17.8964 24.9269 18.0391 24.7848C18.2018 24.6223 18.227 24.3595 18.0995 24.1685Z" fill="white"/>
<defs>
<linearGradient id="paint0_linear" x1="0" y1="0" x2="47.9997" y2="0.113056" gradientUnits="userSpaceOnUse">
<stop stop-color="#36D1DC"/>
<stop offset="1" stop-color="#5B86E5"/>
</linearGradient>
</defs>
</svg>
