<svg width="72" height="72" viewBox="0 0 72 72" fill="none" xmlns="http://www.w3.org/2000/svg">
<rect width="72" height="72" rx="36" fill="url(#paint0_linear)"/>
<path d="M55.2187 35.4479H50.5916C50.1601 35.4479 49.8104 35.7977 49.8104 36.2292V36.8893H44.9449C44.8424 36.8893 44.7408 36.9094 44.6462 36.9488L38.4139 39.5281C37.6927 39.8269 37.1324 40.389 36.8367 41.1114C36.5407 41.8334 36.5453 42.6269 36.8495 43.3459L36.8706 43.3956C37.0513 43.8223 37.3174 44.1851 37.6406 44.472C36.6921 44.7292 35.6975 44.75 34.7307 44.5287L28.6122 43.1277C27.8636 42.9565 27.0952 43.0905 26.4488 43.5052C25.8028 43.9196 25.3606 44.5623 25.2043 45.314C24.8946 46.8032 25.8071 48.2635 27.2814 48.6382L34.5818 50.4937C35.2001 50.6506 35.8269 50.7287 36.4516 50.7287C37.3882 50.7287 38.3202 50.5532 39.2098 50.2041L48.4944 46.5627H49.8104V46.9738C49.8104 47.4053 50.1604 47.7551 50.5916 47.7551H55.2187C55.6502 47.7551 55.9999 47.4053 55.9999 46.9738V36.2292C55.9999 35.7977 55.6502 35.4479 55.2187 35.4479ZM48.3464 45.0002C48.2488 45.0002 48.152 45.0186 48.0614 45.054L38.6391 48.7496C37.462 49.2111 36.1922 49.2904 34.9666 48.9791L27.6662 47.1237C27.0046 46.9555 26.595 46.3003 26.7339 45.632C26.8041 45.2944 27.0024 45.006 27.2927 44.8202C27.5002 44.6868 27.7361 44.6182 27.9766 44.6182C28.0718 44.6182 28.1679 44.6288 28.2634 44.6508L34.3819 46.0516C35.8541 46.3885 37.3772 46.2805 38.7871 45.7385L40.5626 45.0558C40.5992 45.0433 40.6356 45.0298 40.6719 45.0158C42.2414 44.4106 44.2446 43.6404 44.6752 43.4747L44.7591 43.4423C45.1616 43.2876 45.3627 42.8353 45.208 42.4328C45.0533 42.03 44.6013 41.8292 44.1982 41.9839C44.1982 41.9839 44.1661 41.9964 44.1069 42.019L40.035 43.5848C39.3447 43.8085 38.5982 43.4686 38.3095 42.7865L38.2881 42.7365C38.1475 42.4044 38.1456 42.0376 38.2823 41.7037C38.4191 41.3699 38.6778 41.1099 39.0114 40.9719L45.1003 38.4518H49.8104V45.0002H48.3464ZM54.4374 46.1926H51.3729V37.0104H54.4374V46.1926Z" fill="white"/>
<path d="M23.608 35.1214H22.1899V27.8216H22.4062C22.9839 27.8216 23.5607 27.6824 24.0743 27.4191C24.0984 27.4066 24.1223 27.3931 24.1448 27.3782L29.2043 24.0771C29.9035 23.7341 30.7531 23.8122 31.3787 24.2797L31.744 24.5519C31.7217 24.5834 31.7004 24.6154 31.6787 24.6469C31.5823 24.7872 31.4895 24.9304 31.4022 25.0765C30.8621 25.9789 30.5151 26.9943 30.3875 28.0297C29.855 28.0871 29.3618 28.3221 28.9779 28.7057C28.5333 29.1503 28.2882 29.7424 28.2882 30.3723C28.2882 31.6714 29.3453 32.7285 30.6445 32.7285H36.4282C36.7474 32.7285 37.048 32.853 37.2735 33.0779C37.4999 33.305 37.6248 33.6059 37.6251 33.9251C37.6248 34.4018 37.3455 34.8315 36.9106 35.021C36.8603 35.0433 36.8148 35.0598 36.7721 35.0717C36.7681 35.0729 36.7645 35.0741 36.7605 35.0753C36.6552 35.1058 36.5435 35.1214 36.4282 35.1214H29.8565C29.4253 35.1214 29.0753 35.4711 29.0753 35.9026C29.0753 36.3342 29.4253 36.6839 29.8565 36.6839H36.4282C36.6299 36.6839 36.8289 36.6619 37.0223 36.6195C37.3504 36.6616 37.6827 36.6845 38.0132 36.6845C42.2512 36.6845 45.6994 33.2366 45.6994 28.9984C45.6994 24.7604 42.2512 21.3125 38.0132 21.3125C36.0604 21.3125 34.1912 22.0562 32.7767 23.3734L32.3135 23.0276C31.2036 22.1984 29.6896 22.0712 28.4573 22.7038C28.4332 22.716 28.41 22.7297 28.3871 22.7444L23.3282 26.0452C23.0425 26.1852 22.7245 26.2588 22.4062 26.2588H22.1896V25.9762C22.1896 25.5447 21.8398 25.1949 21.4083 25.1949H16.7812C16.3497 25.1949 16 25.5447 16 25.9762V36.7208C16 37.1523 16.3497 37.5021 16.7812 37.5021H21.4083C21.8398 37.5021 22.1896 37.1523 22.1896 36.7208V36.6839H23.608C24.0392 36.6839 24.3893 36.3342 24.3893 35.9026C24.3893 35.4711 24.0392 35.1214 23.608 35.1214ZM29.8507 30.3723C29.8507 30.1599 29.9331 29.9603 30.0829 29.8107C30.1611 29.7326 30.2529 29.6731 30.353 29.6337C30.3954 30.1562 30.4907 30.6677 30.6371 31.1657C30.2029 31.1617 29.8507 30.8074 29.8507 30.3723ZM44.1366 28.9987C44.1366 32.0568 41.8829 34.5989 38.9486 35.0506C39.1055 34.6984 39.1876 34.3109 39.1876 33.9251C39.1876 33.4518 39.0682 32.9968 38.8448 32.5927C39.1839 32.5393 39.497 32.3828 39.7445 32.1353C40.054 31.8261 40.2242 31.415 40.2242 30.9777V29.8223C40.2242 28.9196 39.4897 28.1851 38.587 28.1851H37.4407C37.3995 28.1851 37.366 28.1515 37.366 28.1103V27.0196C37.366 26.9784 37.3995 26.9451 37.4407 26.9451H38.0135H38.0139H38.0142H38.587C38.6282 26.9451 38.6617 26.9784 38.6617 27.0196C38.6617 27.4511 39.0115 27.8008 39.443 27.8008C39.8742 27.8008 40.2242 27.4511 40.2242 27.0196C40.2242 26.1877 39.5995 25.5001 38.7951 25.3973V25.1266C38.7951 24.6951 38.4454 24.3453 38.0139 24.3453C37.5823 24.3453 37.2326 24.6951 37.2326 25.1266V25.3973C36.4279 25.5001 35.8035 26.1877 35.8035 27.0196V28.1103C35.8035 29.013 36.538 29.7476 37.4407 29.7476H38.587C38.6282 29.7476 38.6617 29.7811 38.6617 29.8223V30.9777C38.6617 30.9982 38.6544 31.0159 38.6398 31.0305C38.6251 31.0449 38.6077 31.0522 38.587 31.0522H37.4407C37.3995 31.0522 37.366 31.0186 37.366 30.9777V30.8718C37.366 30.4403 37.0162 30.0906 36.5847 30.0906C36.1532 30.0906 35.8035 30.4403 35.8035 30.8718V30.9777C35.8035 31.0412 35.808 31.1038 35.8151 31.1657H32.2842C32.0223 30.4766 31.8899 29.7494 31.8899 28.9987C31.8899 27.8539 32.2155 26.708 32.8289 25.7403C33.0053 25.4623 33.2018 25.1971 33.42 24.9502C34.5825 23.6312 36.2554 22.875 38.0132 22.875C41.3897 22.875 44.1366 25.6219 44.1366 28.9987ZM20.6271 35.9399H17.5625V26.7574H20.6271V35.9399Z" fill="white"/>
<path d="M27.3586 35.4696C27.1752 35.1892 26.8157 35.0601 26.4949 35.1519C26.1849 35.241 25.9588 35.5184 25.931 35.8395C25.9029 36.1639 26.0912 36.4807 26.3872 36.614C26.6805 36.7465 27.0336 36.683 27.2619 36.4556C27.5222 36.1956 27.5624 35.7751 27.3586 35.4696Z" fill="white"/>
<defs>
<linearGradient id="paint0_linear" x1="0" y1="0" x2="71.9996" y2="0.169583" gradientUnits="userSpaceOnUse">
<stop stop-color="#36D1DC"/>
<stop offset="1" stop-color="#5B86E5"/>
</linearGradient>
</defs>
</svg>
