<svg width="419" height="347" viewBox="0 0 419 347" fill="none" xmlns="http://www.w3.org/2000/svg">
<circle cx="278.538" cy="212.629" r="123.305" transform="rotate(5.29467 278.538 212.629)" fill="url(#paint0_linear)"/>
<mask id="mask0" mask-type="alpha" maskUnits="userSpaceOnUse" x="155" y="89" width="247" height="247">
<circle cx="278.538" cy="212.629" r="123.305" transform="rotate(5.29467 278.538 212.629)" fill="url(#paint1_linear)"/>
</mask>
<g mask="url(#mask0)">
<mask id="mask1" mask-type="alpha" maskUnits="userSpaceOnUse" x="-7" y="17" width="456" height="381">
<rect x="24.5703" y="17.4141" width="425.964" height="341.892" transform="rotate(5.29467 24.5703 17.4141)" fill="#C4C4C4"/>
</mask>
<g mask="url(#mask1)">
<path d="M26.6289 108.831L261.481 165.147L290.433 200.349L26.6289 108.831Z" fill="#588BE4"/>
<path opacity="0.6" d="M26.6289 108.831L261.481 165.147L290.433 200.349L26.6289 108.831Z" fill="white"/>
<path d="M26.6289 108.831L261.481 165.147L246.114 210.743L26.6289 108.831Z" fill="#588BE4"/>
<path opacity="0.2" d="M26.6289 108.831L261.481 165.147L246.114 210.743L26.6289 108.831Z" fill="black"/>
<path d="M253.725 75.4422L261.55 141.459C261.75 143.182 261.259 144.914 260.186 146.277C259.112 147.639 257.543 148.522 255.821 148.731L130.08 163.647C128.357 163.847 126.625 163.357 125.262 162.283C123.899 161.21 123.017 159.641 122.808 157.919L114.983 91.9023C114.78 90.1786 115.269 88.4449 116.343 87.0815C117.417 85.7182 118.988 84.8365 120.712 84.6299L246.453 69.7134C248.176 69.5108 249.91 70.0001 251.273 71.0741C252.637 72.148 253.518 73.719 253.725 75.4422Z" fill="#588BE4"/>
<path opacity="0.4" d="M253.725 75.4422L261.55 141.459C261.75 143.182 261.259 144.914 260.186 146.277C259.112 147.639 257.543 148.522 255.821 148.731L130.08 163.647C128.357 163.847 126.625 163.357 125.262 162.283C123.899 161.21 123.017 159.641 122.808 157.919L114.983 91.9023C114.78 90.1786 115.269 88.4449 116.343 87.0815C117.417 85.7182 118.988 84.8365 120.712 84.6299L246.453 69.7134C248.176 69.5108 249.91 70.0001 251.273 71.0741C252.637 72.148 253.518 73.719 253.725 75.4422Z" fill="black"/>
<path d="M251.09 70.9326L205.203 117.681C200.952 122.021 195.347 124.779 189.314 125.499C183.282 126.219 177.185 124.858 172.032 121.641L116.504 86.8617C117.574 85.5977 119.082 84.7857 120.727 84.5887L246.453 69.7131C248.097 69.5195 249.754 69.9551 251.09 70.9326Z" fill="#588BE4"/>
<path d="M26.6289 108.831L218.631 173.676L246.114 210.743L26.6289 108.831Z" fill="#588BE4"/>
<path opacity="0.6" d="M26.6289 108.831L218.631 173.676L246.114 210.743L26.6289 108.831Z" fill="white"/>
<path d="M26.6289 108.831L218.631 173.676L176.205 216.143L26.6289 108.831Z" fill="#588BE4"/>
<path d="M279.095 242.485C278.831 242.461 278.573 242.387 278.336 242.267L247.529 226.638C247.036 226.385 246.664 225.947 246.493 225.42C246.323 224.893 246.367 224.32 246.617 223.826C246.868 223.332 247.303 222.957 247.829 222.783C248.355 222.609 248.928 222.649 249.423 222.896L280.231 238.525C280.667 238.746 281.012 239.112 281.207 239.56C281.402 240.008 281.434 240.51 281.298 240.979C281.162 241.449 280.867 241.856 280.463 242.13C280.059 242.405 279.571 242.53 279.085 242.484L279.095 242.485Z" fill="#588BE4"/>
<path opacity="0.3" d="M279.095 242.485C278.831 242.461 278.573 242.387 278.336 242.267L247.529 226.638C247.036 226.385 246.664 225.947 246.493 225.42C246.323 224.893 246.367 224.32 246.617 223.826C246.868 223.332 247.303 222.957 247.829 222.783C248.355 222.609 248.928 222.649 249.423 222.896L280.231 238.525C280.667 238.746 281.012 239.112 281.207 239.56C281.402 240.008 281.434 240.51 281.298 240.979C281.162 241.449 280.867 241.856 280.463 242.13C280.059 242.405 279.571 242.53 279.085 242.484L279.095 242.485Z" fill="black"/>
<path d="M278.913 223.965C278.648 223.942 278.391 223.868 278.154 223.748L261.608 215.359C261.361 215.235 261.14 215.064 260.959 214.855C260.777 214.646 260.639 214.404 260.552 214.141C260.465 213.879 260.431 213.601 260.452 213.326C260.472 213.05 260.547 212.781 260.672 212.534C260.797 212.287 260.97 212.068 261.18 211.888C261.39 211.708 261.634 211.572 261.897 211.486C262.16 211.401 262.437 211.369 262.713 211.391C262.989 211.414 263.257 211.49 263.503 211.617L280.049 220.006C280.485 220.226 280.83 220.592 281.024 221.041C281.219 221.489 281.252 221.991 281.116 222.46C280.98 222.929 280.684 223.336 280.28 223.611C279.876 223.886 279.389 224.011 278.903 223.964L278.913 223.965Z" fill="#588BE4"/>
<path opacity="0.5" d="M278.913 223.965C278.648 223.942 278.391 223.868 278.154 223.748L261.608 215.359C261.361 215.235 261.14 215.064 260.959 214.855C260.777 214.646 260.639 214.404 260.552 214.141C260.465 213.879 260.431 213.601 260.452 213.326C260.472 213.05 260.547 212.781 260.672 212.534C260.797 212.287 260.97 212.068 261.18 211.888C261.39 211.708 261.634 211.572 261.897 211.486C262.16 211.401 262.437 211.369 262.713 211.391C262.989 211.414 263.257 211.49 263.503 211.617L280.049 220.006C280.485 220.226 280.83 220.592 281.024 221.041C281.219 221.489 281.252 221.991 281.116 222.46C280.98 222.929 280.684 223.336 280.28 223.611C279.876 223.886 279.389 224.011 278.903 223.964L278.913 223.965Z" fill="white"/>
<path d="M241.327 238.637C241.063 238.613 240.805 238.539 240.568 238.419L210.533 223.209C210.04 222.956 209.668 222.518 209.497 221.991C209.327 221.464 209.371 220.891 209.621 220.397C209.872 219.903 210.307 219.528 210.833 219.354C211.358 219.18 211.932 219.221 212.427 219.468L242.43 234.695C242.866 234.916 243.211 235.282 243.405 235.73C243.6 236.178 243.632 236.68 243.497 237.15C243.361 237.619 243.065 238.026 242.661 238.301C242.257 238.575 241.77 238.7 241.284 238.654L241.327 238.637Z" fill="#588BE4"/>
<path opacity="0.3" d="M241.327 238.637C241.063 238.613 240.805 238.539 240.568 238.419L210.533 223.209C210.04 222.956 209.668 222.518 209.497 221.991C209.327 221.464 209.371 220.891 209.621 220.397C209.872 219.903 210.307 219.528 210.833 219.354C211.358 219.18 211.932 219.221 212.427 219.468L242.43 234.695C242.866 234.916 243.211 235.282 243.405 235.73C243.6 236.178 243.632 236.68 243.497 237.15C243.361 237.619 243.065 238.026 242.661 238.301C242.257 238.575 241.77 238.7 241.284 238.654L241.327 238.637Z" fill="black"/>
<path d="M362.959 155.016C365.226 160.671 367.262 166.314 369.161 172.071C371.06 177.829 372.796 183.645 374.204 189.694L374.708 191.983C374.786 192.391 374.914 193.056 374.976 193.525C375.038 193.994 375.084 194.525 375.106 194.969C375.183 196.672 375.145 198.378 374.99 200.076C374.718 203.198 374.283 206.304 373.686 209.38C372.544 215.372 371.039 221.288 369.18 227.097L363.517 225.93C363.989 220.045 364.487 214.099 364.815 208.284C364.979 205.383 365.079 202.485 365.039 199.733C365.022 198.45 364.934 197.169 364.773 195.896C364.738 195.598 364.686 195.362 364.635 195.115C364.584 194.868 364.55 194.78 364.463 194.467L363.863 192.421C362.171 186.936 360.21 181.383 358.196 175.847L352.089 159.242L362.959 155.016Z" fill="#E4897B"/>
<path d="M363.763 224.173L360.626 228.927L368.947 232.099C368.947 232.099 370.948 228.23 369.3 224.876L363.763 224.173Z" fill="#E4897B"/>
<path d="M356.679 235.827L364.474 237.171L368.935 232.098L360.626 228.916L356.679 235.827Z" fill="#E4897B"/>
<path d="M330.358 115.597C330.537 115.004 330.368 114.428 329.98 114.311C329.592 114.194 329.132 114.58 328.953 115.173C328.774 115.766 328.944 116.342 329.332 116.459C329.72 116.576 330.179 116.19 330.358 115.597Z" fill="#263238"/>
<path d="M329.775 116.6C328.518 118.203 327.047 119.625 325.402 120.828C325.722 121.24 326.128 121.578 326.591 121.817C327.054 122.057 327.565 122.192 328.086 122.214L329.775 116.6Z" fill="#DE5753"/>
<path d="M333.536 112.956C333.485 112.953 333.436 112.938 333.391 112.914C333.346 112.89 333.307 112.857 333.275 112.816C333.008 112.444 332.657 112.141 332.25 111.931C331.842 111.721 331.391 111.611 330.933 111.61C330.836 111.617 330.74 111.586 330.666 111.523C330.592 111.46 330.546 111.37 330.538 111.273C330.53 111.176 330.561 111.08 330.625 111.005C330.688 110.931 330.778 110.885 330.875 110.877C331.462 110.862 332.043 110.99 332.57 111.25C333.096 111.51 333.551 111.894 333.896 112.368C333.937 112.425 333.961 112.493 333.965 112.563C333.969 112.633 333.952 112.702 333.918 112.764C333.883 112.825 333.832 112.874 333.77 112.907C333.708 112.94 333.638 112.955 333.568 112.949L333.536 112.956Z" fill="#263238"/>
<path d="M346.84 125.731C345.224 131.237 343.164 141.419 346.742 145.531C346.742 145.531 344.68 151.079 334.249 150.113C322.764 149.048 329.295 143.914 329.295 143.914C335.698 143.002 335.962 138.34 335.269 133.884L346.84 125.731Z" fill="#E4897B"/>
<path d="M347.994 149.217C349.073 146.547 350.284 143.479 348.486 142.322C346.494 141.085 335.261 138.885 331.157 140.559C327.053 142.232 327.643 147.91 327.643 147.91L347.994 149.217Z" fill="#263238"/>
<path d="M324.532 157.057C318.164 155.963 311.861 154.524 305.649 152.748C302.573 151.852 299.43 150.876 296.346 149.727C293.168 148.598 290.07 147.255 287.072 145.708C286.299 145.3 285.519 144.859 284.747 144.44C283.89 143.909 283.068 143.323 282.287 142.685C280.88 141.501 279.677 140.4 278.487 139.258C276.123 136.932 273.946 134.625 271.764 132.264C267.497 127.508 263.484 122.629 259.649 117.535L263.889 113.6L278.03 125.894C280.358 127.931 282.722 129.92 285.054 131.81C286.209 132.749 287.411 133.64 288.499 134.404C288.957 134.73 289.436 135.024 289.934 135.285C290.528 135.582 291.142 135.881 291.78 136.161C297.26 138.425 302.912 140.252 308.681 141.624C314.556 143.116 320.643 144.47 326.538 145.638L324.532 157.057Z" fill="#E4897B"/>
<path d="M360.323 148.569C367.364 150.885 372.684 172.577 372.684 172.577L356.856 181.778C356.856 181.778 353.587 171.597 350.361 162.663C346.962 153.312 353.132 146.165 360.323 148.569Z" fill="url(#paint2_linear)"/>
<path d="M360.323 148.569C367.364 150.885 372.684 172.577 372.684 172.577L356.856 181.778C356.856 181.778 353.587 171.597 350.361 162.663C346.962 153.312 353.132 146.165 360.323 148.569Z" fill="#263238"/>
<path d="M355.102 159.669L351.559 165.965C353.99 172.804 356.166 179.555 356.746 181.357C357.363 173.569 356.784 163.795 355.102 159.669Z" fill="url(#paint3_linear)"/>
<path opacity="0.6" d="M355.102 159.669L351.559 165.965C353.99 172.804 356.166 179.555 356.746 181.357C357.363 173.569 356.784 163.795 355.102 159.669Z" fill="black"/>
<path d="M317.314 144.952C317.314 144.952 308.295 153.415 310.721 211.212L351.744 215.013C352.607 208.775 351.5 177.648 360.327 148.538C355.873 147.244 351.341 146.24 346.757 145.532C340.981 144.657 335.159 144.118 329.321 143.916C325.298 143.948 321.283 144.295 317.314 144.952Z" fill="url(#paint4_linear)"/>
<path d="M317.314 144.952C317.314 144.952 308.295 153.415 310.721 211.212L351.744 215.013C352.607 208.775 351.5 177.648 360.327 148.538C355.873 147.244 351.341 146.24 346.757 145.532C340.981 144.657 335.159 144.118 329.321 143.916C325.298 143.948 321.283 144.295 317.314 144.952Z" fill="#263238"/>
<path d="M313.245 155.79C312.773 157.926 312.327 160.465 311.912 163.47C316.076 162.629 320.093 161.178 323.832 159.162L313.245 155.79Z" fill="url(#paint5_linear)"/>
<path opacity="0.6" d="M313.245 155.79C312.773 157.926 312.327 160.465 311.912 163.47C316.076 162.629 320.093 161.178 323.832 159.162L313.245 155.79Z" fill="black"/>
<path d="M330.698 158.46C324.755 162.817 303.834 160.383 303.834 160.383L305.023 140.053C312.011 141.715 319.104 142.893 326.253 143.579C337.987 144.467 337.213 153.725 330.698 158.46Z" fill="url(#paint6_linear)"/>
<path d="M330.698 158.46C324.755 162.817 303.834 160.383 303.834 160.383L305.023 140.053C312.011 141.715 319.104 142.893 326.253 143.579C337.987 144.467 337.213 153.725 330.698 158.46Z" fill="#263238"/>
<path d="M264.084 113.639L259.434 107.005L253.236 112.75C253.236 112.75 256.152 118.896 261.75 118.488L264.084 113.639Z" fill="#E4897B"/>
<path d="M252.623 99.1501L249.855 106.981L253.199 112.715L259.393 107.012L252.623 99.1501Z" fill="#E4897B"/>
<path d="M336.607 108.46C330.016 104.69 329.135 90.5605 348.598 95.8815C348.598 95.8815 345.305 98.9146 351.178 101.565C357.051 104.215 350.765 116.702 336.607 108.46Z" fill="#263238"/>
<path d="M350.578 120.286C347.927 127.412 346.742 131.788 341.896 134.425C334.642 138.386 326.631 132.326 327.092 124.512C327.502 117.474 331.775 106.928 339.796 106.176C341.568 105.996 343.356 106.273 344.99 106.98C346.624 107.688 348.05 108.802 349.131 110.217C350.212 111.632 350.913 113.301 351.166 115.063C351.419 116.826 351.217 118.624 350.578 120.286Z" fill="#E4897B"/>
<path d="M347.982 99.5733C352.427 102.629 358.631 104.773 357.692 108.434C356.488 112.904 361.376 110.492 359.674 117.159C358.565 121.51 349.175 134.088 343.467 132.948C334.934 131.168 337.251 118.103 337.861 111.178C338.217 107.104 339.27 93.5848 347.982 99.5733Z" fill="#263238"/>
<path d="M337.424 104.513C335.29 104.81 331.408 116.593 339.397 118.449C348.593 120.576 337.424 104.513 337.424 104.513Z" fill="#263238"/>
<path d="M337.29 108.808C334.711 108.8 329.201 105.183 330.341 100.613C330.299 100.609 333.472 106.369 337.29 108.808Z" fill="#263238"/>
<path d="M340.081 119.471C339.146 121.113 337.699 122.403 335.96 123.143C333.651 124.088 332.564 122.292 333.269 120.135C333.902 118.193 335.819 115.348 338.159 115.323C340.5 115.297 341.194 117.468 340.081 119.471Z" fill="#E4897B"/>
<path d="M352.358 112.026C353.983 111.497 355.45 110.573 356.629 109.337C357.808 108.101 358.661 106.591 359.112 104.943C359.112 104.943 361.664 114.9 352.358 112.026Z" fill="#263238"/>
<path d="M361.082 112.751C360.4 112.193 359.59 111.813 358.725 111.647C357.859 111.48 356.966 111.532 356.126 111.797C356.126 111.797 359.729 107.918 361.082 112.751Z" fill="#263238"/>
<path d="M325.265 212.549C325.265 212.549 328.538 271.994 331.289 294.363C334.284 318.862 346.579 400.836 346.579 400.836L360.654 402.14C360.654 402.14 354.899 322.773 354.119 298.68C353.278 272.538 351.765 214.994 351.765 214.994L325.265 212.549Z" fill="url(#paint7_linear)"/>
<path d="M325.265 212.549C325.265 212.549 328.538 271.994 331.289 294.363C334.284 318.862 346.579 400.836 346.579 400.836L360.654 402.14C360.654 402.14 354.899 322.773 354.119 298.68C353.278 272.538 351.765 214.994 351.765 214.994L325.265 212.549Z" fill="#E4EDFF"/>
<path d="M310.708 211.2C310.708 211.2 304.349 268.457 303.007 291.921C301.619 316.33 302.766 396.786 302.766 396.786L315.755 397.99C315.755 397.99 323.487 319.788 326.264 295.951C329.305 269.959 337.699 213.701 337.699 213.701L310.708 211.2Z" fill="url(#paint8_linear)"/>
<path d="M310.708 211.2C310.708 211.2 304.349 268.457 303.007 291.921C301.619 316.33 302.766 396.786 302.766 396.786L315.755 397.99C315.755 397.99 323.487 319.788 326.264 295.951C329.305 269.959 337.699 213.701 337.699 213.701L310.708 211.2Z" fill="#E4EDFF"/>
<path d="M306.304 387.699C306.272 387.697 306.243 387.682 306.222 387.659C306.2 387.635 306.189 387.605 306.189 387.573C305.946 365.309 305.481 311.464 306.597 292.265C307.708 272.664 312.407 228.891 313.817 215.943C313.819 215.925 313.824 215.909 313.832 215.893C313.841 215.878 313.852 215.865 313.866 215.854C313.88 215.843 313.896 215.836 313.913 215.832C313.93 215.828 313.947 215.827 313.965 215.83C313.982 215.832 313.999 215.837 314.014 215.845C314.029 215.854 314.043 215.865 314.053 215.879C314.064 215.893 314.072 215.909 314.076 215.926C314.08 215.943 314.08 215.96 314.077 215.977C312.667 228.926 307.969 272.689 306.858 292.289C305.764 311.48 306.229 365.325 306.451 387.587C306.452 387.604 306.45 387.622 306.444 387.639C306.438 387.655 306.429 387.67 306.417 387.683C306.405 387.696 306.39 387.706 306.374 387.713C306.358 387.719 306.34 387.723 306.323 387.722L306.304 387.699Z" fill="url(#paint9_linear)"/>
<path opacity="0.4" d="M306.304 387.699C306.272 387.697 306.243 387.682 306.222 387.659C306.2 387.635 306.189 387.605 306.189 387.573C305.946 365.309 305.481 311.464 306.597 292.265C307.708 272.664 312.407 228.891 313.817 215.943C313.819 215.925 313.824 215.909 313.832 215.893C313.841 215.878 313.852 215.865 313.866 215.854C313.88 215.843 313.896 215.836 313.913 215.832C313.93 215.828 313.947 215.827 313.965 215.83C313.982 215.832 313.999 215.837 314.014 215.845C314.029 215.854 314.043 215.865 314.053 215.879C314.064 215.893 314.072 215.909 314.076 215.926C314.08 215.943 314.08 215.96 314.077 215.977C312.667 228.926 307.969 272.689 306.858 292.289C305.764 311.48 306.229 365.325 306.451 387.587C306.452 387.604 306.45 387.622 306.444 387.639C306.438 387.655 306.429 387.67 306.417 387.683C306.405 387.696 306.39 387.706 306.374 387.713C306.358 387.719 306.34 387.723 306.323 387.722L306.304 387.699Z" fill="white"/>
</g>
</g>
<mask id="mask2" mask-type="alpha" maskUnits="userSpaceOnUse" x="16" y="16" width="375" height="255">
<ellipse cx="203.814" cy="143.318" rx="187.293" ry="126.575" transform="rotate(5.29467 203.814 143.318)" fill="url(#paint10_linear)"/>
</mask>
<g mask="url(#mask2)">
<path d="M26.6289 108.831L261.481 165.147L290.433 200.35L26.6289 108.831Z" fill="#588BE4"/>
<path opacity="0.6" d="M26.6289 108.831L261.481 165.147L290.433 200.35L26.6289 108.831Z" fill="white"/>
<path d="M26.6289 108.831L261.481 165.147L246.114 210.743L26.6289 108.831Z" fill="#588BE4"/>
<path opacity="0.2" d="M26.6289 108.831L261.481 165.147L246.114 210.743L26.6289 108.831Z" fill="black"/>
<path d="M253.725 75.4427L261.55 141.459C261.75 143.182 261.259 144.914 260.186 146.277C259.112 147.64 257.543 148.522 255.821 148.731L130.08 163.648C128.357 163.848 126.625 163.357 125.262 162.284C123.899 161.21 123.017 159.641 122.808 157.919L114.983 91.9028C114.78 90.1791 115.269 88.4454 116.343 87.082C117.417 85.7187 118.988 84.837 120.712 84.6304L246.453 69.7139C248.176 69.5112 249.91 70.0006 251.273 71.0745C252.637 72.1485 253.518 73.7195 253.725 75.4427Z" fill="#588BE4"/>
<path opacity="0.4" d="M253.725 75.4427L261.55 141.459C261.75 143.182 261.259 144.914 260.186 146.277C259.112 147.64 257.543 148.522 255.821 148.731L130.08 163.648C128.357 163.848 126.625 163.357 125.262 162.284C123.899 161.21 123.017 159.641 122.808 157.919L114.983 91.9028C114.78 90.1791 115.269 88.4454 116.343 87.082C117.417 85.7187 118.988 84.837 120.712 84.6304L246.453 69.7139C248.176 69.5112 249.91 70.0006 251.273 71.0745C252.637 72.1485 253.518 73.7195 253.725 75.4427Z" fill="black"/>
<path d="M251.09 70.9331L205.203 117.681C200.952 122.021 195.347 124.78 189.314 125.5C183.282 126.22 177.185 124.859 172.032 121.642L116.504 86.8622C117.574 85.5982 119.082 84.7862 120.727 84.5892L246.453 69.7136C248.097 69.5199 249.754 69.9556 251.09 70.9331Z" fill="#588BE4"/>
<path d="M26.6289 108.831L218.631 173.676L246.114 210.743L26.6289 108.831Z" fill="#588BE4"/>
<path opacity="0.6" d="M26.6289 108.831L218.631 173.676L246.114 210.743L26.6289 108.831Z" fill="white"/>
<path d="M94.08 160.434L93.4688 161.286L114.13 176.108L114.742 175.256L94.08 160.434Z" fill="#588BE4"/>
<path d="M123.857 181.811L123.246 182.663L130.676 187.992L131.287 187.14L123.857 181.811Z" fill="#588BE4"/>
<path d="M26.6289 108.831L218.631 173.676L176.205 216.143L26.6289 108.831Z" fill="#588BE4"/>
<path d="M279.095 242.485C278.831 242.461 278.573 242.388 278.336 242.268L247.529 226.639C247.036 226.385 246.664 225.947 246.493 225.42C246.323 224.894 246.367 224.321 246.617 223.827C246.868 223.332 247.303 222.957 247.829 222.783C248.355 222.609 248.928 222.65 249.423 222.897L280.231 238.526C280.667 238.746 281.012 239.112 281.207 239.56C281.402 240.009 281.434 240.511 281.298 240.98C281.162 241.449 280.867 241.856 280.463 242.131C280.059 242.406 279.571 242.531 279.085 242.484L279.095 242.485Z" fill="#588BE4"/>
<path opacity="0.3" d="M279.095 242.485C278.831 242.461 278.573 242.388 278.336 242.268L247.529 226.639C247.036 226.385 246.664 225.947 246.493 225.42C246.323 224.894 246.367 224.321 246.617 223.827C246.868 223.332 247.303 222.957 247.829 222.783C248.355 222.609 248.928 222.65 249.423 222.897L280.231 238.526C280.667 238.746 281.012 239.112 281.207 239.56C281.402 240.009 281.434 240.511 281.298 240.98C281.162 241.449 280.867 241.856 280.463 242.131C280.059 242.406 279.571 242.531 279.085 242.484L279.095 242.485Z" fill="black"/>
<path d="M278.913 223.966C278.648 223.942 278.391 223.868 278.154 223.748L261.608 215.359C261.361 215.236 261.14 215.065 260.959 214.856C260.777 214.647 260.639 214.404 260.552 214.142C260.465 213.879 260.431 213.602 260.452 213.326C260.472 213.05 260.547 212.781 260.672 212.535C260.797 212.288 260.97 212.068 261.18 211.888C261.39 211.709 261.634 211.572 261.897 211.487C262.16 211.402 262.437 211.369 262.713 211.392C262.989 211.414 263.257 211.491 263.503 211.617L280.049 220.006C280.485 220.227 280.83 220.593 281.024 221.041C281.219 221.489 281.252 221.991 281.116 222.46C280.98 222.93 280.684 223.337 280.28 223.612C279.876 223.886 279.389 224.011 278.903 223.965L278.913 223.966Z" fill="#588BE4"/>
<path opacity="0.5" d="M278.913 223.966C278.648 223.942 278.391 223.868 278.154 223.748L261.608 215.359C261.361 215.236 261.14 215.065 260.959 214.856C260.777 214.647 260.639 214.404 260.552 214.142C260.465 213.879 260.431 213.602 260.452 213.326C260.472 213.05 260.547 212.781 260.672 212.535C260.797 212.288 260.97 212.068 261.18 211.888C261.39 211.709 261.634 211.572 261.897 211.487C262.16 211.402 262.437 211.369 262.713 211.392C262.989 211.414 263.257 211.491 263.503 211.617L280.049 220.006C280.485 220.227 280.83 220.593 281.024 221.041C281.219 221.489 281.252 221.991 281.116 222.46C280.98 222.93 280.684 223.337 280.28 223.612C279.876 223.886 279.389 224.011 278.903 223.965L278.913 223.966Z" fill="white"/>
<path d="M241.327 238.638C241.063 238.614 240.805 238.54 240.568 238.42L210.533 223.21C210.04 222.956 209.668 222.519 209.497 221.992C209.327 221.465 209.371 220.892 209.621 220.398C209.872 219.904 210.307 219.529 210.833 219.354C211.358 219.18 211.932 219.221 212.427 219.468L242.43 234.696C242.866 234.917 243.211 235.283 243.405 235.731C243.6 236.179 243.632 236.681 243.497 237.15C243.361 237.619 243.065 238.026 242.661 238.301C242.257 238.576 241.77 238.701 241.284 238.655L241.327 238.638Z" fill="#588BE4"/>
<path opacity="0.3" d="M241.327 238.638C241.063 238.614 240.805 238.54 240.568 238.42L210.533 223.21C210.04 222.956 209.668 222.519 209.497 221.992C209.327 221.465 209.371 220.892 209.621 220.398C209.872 219.904 210.307 219.529 210.833 219.354C211.358 219.18 211.932 219.221 212.427 219.468L242.43 234.696C242.866 234.917 243.211 235.283 243.405 235.731C243.6 236.179 243.632 236.681 243.497 237.15C243.361 237.619 243.065 238.026 242.661 238.301C242.257 238.576 241.77 238.701 241.284 238.655L241.327 238.638Z" fill="black"/>
<path d="M362.959 155.016C365.226 160.671 367.262 166.315 369.161 172.072C371.06 177.829 372.796 183.645 374.204 189.694L374.708 191.984C374.786 192.391 374.914 193.056 374.976 193.525C375.038 193.994 375.084 194.525 375.106 194.969C375.183 196.672 375.145 198.379 374.99 200.077C374.718 203.199 374.283 206.304 373.686 209.381C372.544 215.372 371.039 221.289 369.18 227.097L363.517 225.93C363.989 220.045 364.487 214.099 364.815 208.285C364.979 205.383 365.079 202.486 365.039 199.734C365.022 198.451 364.934 197.17 364.773 195.897C364.738 195.599 364.686 195.362 364.635 195.115C364.584 194.868 364.55 194.781 364.463 194.467L363.863 192.422C362.171 186.936 360.21 181.384 358.196 175.847L352.089 159.243L362.959 155.016Z" fill="#E4897B"/>
<path d="M363.763 224.173L360.626 228.927L368.947 232.099C368.947 232.099 370.948 228.23 369.3 224.876L363.763 224.173Z" fill="#E4897B"/>
<path d="M356.679 235.828L364.474 237.171L368.935 232.098L360.626 228.917L356.679 235.828Z" fill="#E4897B"/>
<path d="M330.358 115.597C330.537 115.004 330.368 114.428 329.98 114.311C329.592 114.194 329.132 114.58 328.953 115.173C328.774 115.767 328.944 116.342 329.332 116.46C329.72 116.577 330.179 116.191 330.358 115.597Z" fill="#263238"/>
<path d="M329.775 116.6C328.518 118.203 327.047 119.626 325.402 120.828C325.722 121.241 326.128 121.578 326.591 121.818C327.054 122.057 327.565 122.193 328.086 122.214L329.775 116.6Z" fill="#DE5753"/>
<path d="M333.536 112.957C333.485 112.953 333.436 112.939 333.391 112.914C333.346 112.89 333.307 112.857 333.275 112.817C333.008 112.445 332.657 112.141 332.25 111.932C331.842 111.722 331.391 111.612 330.933 111.61C330.836 111.618 330.74 111.587 330.666 111.523C330.592 111.46 330.546 111.37 330.538 111.273C330.53 111.176 330.561 111.08 330.625 111.006C330.688 110.932 330.778 110.886 330.875 110.878C331.462 110.863 332.043 110.991 332.57 111.25C333.096 111.51 333.551 111.894 333.896 112.369C333.937 112.426 333.961 112.493 333.965 112.563C333.969 112.633 333.952 112.703 333.918 112.764C333.883 112.825 333.832 112.875 333.77 112.908C333.708 112.941 333.638 112.955 333.568 112.949L333.536 112.957Z" fill="#263238"/>
<path d="M346.84 125.732C345.224 131.237 343.164 141.419 346.742 145.531C346.742 145.531 344.68 151.08 334.249 150.113C322.764 149.049 329.295 143.915 329.295 143.915C335.698 143.002 335.962 138.34 335.269 133.885L346.84 125.732Z" fill="#E4897B"/>
<path d="M347.994 149.217C349.073 146.548 350.284 143.479 348.486 142.323C346.494 141.085 335.261 138.886 331.157 140.559C327.053 142.232 327.643 147.91 327.643 147.91L347.994 149.217Z" fill="#263238"/>
<path d="M324.532 157.057C318.164 155.963 311.861 154.525 305.649 152.749C302.573 151.853 299.43 150.877 296.346 149.728C293.168 148.598 290.07 147.256 287.072 145.709C286.299 145.3 285.519 144.859 284.747 144.44C283.89 143.909 283.068 143.323 282.287 142.685C280.88 141.502 279.677 140.4 278.487 139.258C276.123 136.933 273.946 134.625 271.764 132.264C267.497 127.509 263.484 122.63 259.649 117.535L263.889 113.6L278.03 125.894C280.358 127.932 282.722 129.92 285.054 131.811C286.209 132.75 287.411 133.64 288.499 134.405C288.957 134.73 289.436 135.024 289.934 135.285C290.528 135.583 291.142 135.882 291.78 136.162C297.26 138.426 302.912 140.253 308.681 141.625C314.556 143.117 320.643 144.471 326.538 145.638L324.532 157.057Z" fill="#E4897B"/>
<path d="M360.323 148.57C367.364 150.886 372.684 172.577 372.684 172.577L356.856 181.778C356.856 181.778 353.587 171.598 350.361 162.663C346.962 153.313 353.132 146.166 360.323 148.57Z" fill="url(#paint11_linear)"/>
<path d="M360.323 148.57C367.364 150.886 372.684 172.577 372.684 172.577L356.856 181.778C356.856 181.778 353.587 171.598 350.361 162.663C346.962 153.313 353.132 146.166 360.323 148.57Z" fill="#263238"/>
<path d="M355.102 159.67L351.559 165.965C353.99 172.804 356.166 179.556 356.746 181.358C357.363 173.569 356.784 163.796 355.102 159.67Z" fill="url(#paint12_linear)"/>
<path opacity="0.6" d="M355.102 159.67L351.559 165.965C353.99 172.804 356.166 179.556 356.746 181.358C357.363 173.569 356.784 163.796 355.102 159.67Z" fill="black"/>
<path d="M317.314 144.952C317.314 144.952 308.295 153.415 310.721 211.212L351.744 215.014C352.607 208.775 351.5 177.649 360.327 148.538C355.873 147.245 351.341 146.241 346.757 145.533C340.981 144.658 335.159 144.118 329.321 143.917C325.298 143.949 321.283 144.295 317.314 144.952Z" fill="url(#paint13_linear)"/>
<path d="M317.314 144.952C317.314 144.952 308.295 153.415 310.721 211.212L351.744 215.014C352.607 208.775 351.5 177.649 360.327 148.538C355.873 147.245 351.341 146.241 346.757 145.533C340.981 144.658 335.159 144.118 329.321 143.917C325.298 143.949 321.283 144.295 317.314 144.952Z" fill="#263238"/>
<path d="M313.245 155.79C312.773 157.927 312.327 160.465 311.912 163.47C316.076 162.63 320.093 161.178 323.832 159.162L313.245 155.79Z" fill="url(#paint14_linear)"/>
<path opacity="0.6" d="M313.245 155.79C312.773 157.927 312.327 160.465 311.912 163.47C316.076 162.63 320.093 161.178 323.832 159.162L313.245 155.79Z" fill="black"/>
<path d="M330.698 158.461C324.755 162.818 303.834 160.384 303.834 160.384L305.023 140.054C312.011 141.716 319.104 142.894 326.253 143.58C337.987 144.467 337.213 153.726 330.698 158.461Z" fill="url(#paint15_linear)"/>
<path d="M330.698 158.461C324.755 162.818 303.834 160.384 303.834 160.384L305.023 140.054C312.011 141.716 319.104 142.894 326.253 143.58C337.987 144.467 337.213 153.726 330.698 158.461Z" fill="#263238"/>
<path d="M264.084 113.64L259.434 107.006L253.236 112.75C253.236 112.75 256.152 118.897 261.75 118.489L264.084 113.64Z" fill="#E4897B"/>
<path d="M252.623 99.1506L249.855 106.982L253.199 112.715L259.393 107.013L252.623 99.1506Z" fill="#E4897B"/>
<path d="M336.607 108.461C330.016 104.691 329.135 90.561 348.598 95.882C348.598 95.882 345.305 98.9151 351.178 101.566C357.051 104.216 350.765 116.702 336.607 108.461Z" fill="#263238"/>
<path d="M350.578 120.287C347.927 127.412 346.742 131.789 341.896 134.425C334.642 138.386 326.631 132.326 327.092 124.513C327.502 117.474 331.775 106.929 339.796 106.176C341.568 105.997 343.356 106.274 344.99 106.981C346.624 107.688 348.05 108.803 349.131 110.218C350.212 111.633 350.913 113.301 351.166 115.064C351.419 116.826 351.217 118.624 350.578 120.287Z" fill="#E4897B"/>
<path d="M347.982 99.5738C352.427 102.629 358.631 104.773 357.692 108.435C356.488 112.904 361.376 110.493 359.674 117.159C358.565 121.511 349.175 134.089 343.467 132.949C334.934 131.168 337.251 118.103 337.861 111.178C338.217 107.104 339.27 93.5852 347.982 99.5738Z" fill="#263238"/>
<path d="M337.424 104.514C335.29 104.811 331.408 116.593 339.397 118.45C348.593 120.576 337.424 104.514 337.424 104.514Z" fill="#263238"/>
<path d="M337.29 108.808C334.711 108.801 329.201 105.184 330.341 100.613C330.299 100.61 333.472 106.369 337.29 108.808Z" fill="#263238"/>
<path d="M340.081 119.471C339.146 121.113 337.699 122.403 335.96 123.144C333.651 124.088 332.564 122.292 333.269 120.135C333.902 118.193 335.819 115.349 338.159 115.323C340.5 115.298 341.194 117.468 340.081 119.471Z" fill="#E4897B"/>
<path d="M352.358 112.026C353.983 111.498 355.45 110.574 356.629 109.338C357.808 108.101 358.661 106.591 359.112 104.944C359.112 104.944 361.664 114.9 352.358 112.026Z" fill="#263238"/>
<path d="M361.082 112.751C360.4 112.193 359.59 111.814 358.725 111.647C357.859 111.481 356.966 111.532 356.126 111.797C356.126 111.797 359.729 107.919 361.082 112.751Z" fill="#263238"/>
<path d="M325.265 212.549C325.265 212.549 328.538 271.994 331.289 294.364C334.284 318.862 346.579 400.836 346.579 400.836L360.654 402.141C360.654 402.141 354.899 322.773 354.119 298.68C353.278 272.539 351.765 214.995 351.765 214.995L325.265 212.549Z" fill="url(#paint16_linear)"/>
<path d="M325.265 212.549C325.265 212.549 328.538 271.994 331.289 294.364C334.284 318.862 346.579 400.836 346.579 400.836L360.654 402.141C360.654 402.141 354.899 322.773 354.119 298.68C353.278 272.539 351.765 214.995 351.765 214.995L325.265 212.549Z" fill="#E4EDFF"/>
<path d="M310.708 211.201C310.708 211.201 304.349 268.457 303.007 291.922C301.619 316.33 302.766 396.787 302.766 396.787L315.755 397.99C315.755 397.99 323.487 319.789 326.264 295.952C329.305 269.959 337.699 213.702 337.699 213.702L310.708 211.201Z" fill="url(#paint17_linear)"/>
<path d="M310.708 211.201C310.708 211.201 304.349 268.457 303.007 291.922C301.619 316.33 302.766 396.787 302.766 396.787L315.755 397.99C315.755 397.99 323.487 319.789 326.264 295.952C329.305 269.959 337.699 213.702 337.699 213.702L310.708 211.201Z" fill="#E4EDFF"/>
<path d="M306.304 387.7C306.272 387.697 306.243 387.683 306.222 387.659C306.2 387.636 306.189 387.605 306.189 387.573C305.946 365.31 305.481 311.465 306.597 292.265C307.708 272.665 312.407 228.892 313.817 215.943C313.819 215.926 313.824 215.909 313.832 215.894C313.841 215.879 313.852 215.865 313.866 215.855C313.88 215.844 313.896 215.836 313.913 215.832C313.93 215.828 313.947 215.828 313.965 215.831C313.982 215.832 313.999 215.837 314.014 215.846C314.029 215.854 314.043 215.866 314.053 215.879C314.064 215.893 314.072 215.909 314.076 215.926C314.08 215.943 314.08 215.961 314.077 215.978C312.667 228.927 307.969 272.689 306.858 292.289C305.764 311.48 306.229 365.326 306.451 387.587C306.452 387.605 306.45 387.622 306.444 387.639C306.438 387.656 306.429 387.671 306.417 387.684C306.405 387.696 306.39 387.706 306.374 387.713C306.358 387.72 306.34 387.723 306.323 387.723L306.304 387.7Z" fill="url(#paint18_linear)"/>
<path opacity="0.4" d="M306.304 387.7C306.272 387.697 306.243 387.683 306.222 387.659C306.2 387.636 306.189 387.605 306.189 387.573C305.946 365.31 305.481 311.465 306.597 292.265C307.708 272.665 312.407 228.892 313.817 215.943C313.819 215.926 313.824 215.909 313.832 215.894C313.841 215.879 313.852 215.865 313.866 215.855C313.88 215.844 313.896 215.836 313.913 215.832C313.93 215.828 313.947 215.828 313.965 215.831C313.982 215.832 313.999 215.837 314.014 215.846C314.029 215.854 314.043 215.866 314.053 215.879C314.064 215.893 314.072 215.909 314.076 215.926C314.08 215.943 314.08 215.961 314.077 215.978C312.667 228.927 307.969 272.689 306.858 292.289C305.764 311.48 306.229 365.326 306.451 387.587C306.452 387.605 306.45 387.622 306.444 387.639C306.438 387.656 306.429 387.671 306.417 387.684C306.405 387.696 306.39 387.706 306.374 387.713C306.358 387.72 306.34 387.723 306.323 387.723L306.304 387.7Z" fill="white"/>
</g>
<defs>
<linearGradient id="paint0_linear" x1="155.232" y1="89.3235" x2="401.84" y2="90.1441" gradientUnits="userSpaceOnUse">
<stop stop-color="#36D1DC"/>
<stop offset="1" stop-color="#5B86E5"/>
</linearGradient>
<linearGradient id="paint1_linear" x1="155.232" y1="89.3235" x2="401.84" y2="90.1441" gradientUnits="userSpaceOnUse">
<stop stop-color="#36D1DC"/>
<stop offset="1" stop-color="#5B86E5"/>
</linearGradient>
<linearGradient id="paint2_linear" x1="350.285" y1="147.393" x2="374.792" y2="149.813" gradientUnits="userSpaceOnUse">
<stop stop-color="#36D1DC"/>
<stop offset="1" stop-color="#5B86E5"/>
</linearGradient>
<linearGradient id="paint3_linear" x1="352.168" y1="159.397" x2="358.708" y2="160.152" gradientUnits="userSpaceOnUse">
<stop stop-color="#36D1DC"/>
<stop offset="1" stop-color="#5B86E5"/>
</linearGradient>
<linearGradient id="paint4_linear" x1="313.77" y1="142.22" x2="360.5" y2="146.671" gradientUnits="userSpaceOnUse">
<stop stop-color="#36D1DC"/>
<stop offset="1" stop-color="#5B86E5"/>
</linearGradient>
<linearGradient id="paint5_linear" x1="312.629" y1="155.733" x2="324.037" y2="156.934" gradientUnits="userSpaceOnUse">
<stop stop-color="#36D1DC"/>
<stop offset="1" stop-color="#5B86E5"/>
</linearGradient>
<linearGradient id="paint6_linear" x1="305.023" y1="140.053" x2="336.02" y2="143.773" gradientUnits="userSpaceOnUse">
<stop stop-color="#36D1DC"/>
<stop offset="1" stop-color="#5B86E5"/>
</linearGradient>
<linearGradient id="paint7_linear" x1="325.266" y1="212.539" x2="377.771" y2="217.439" gradientUnits="userSpaceOnUse">
<stop stop-color="#36D1DC"/>
<stop offset="1" stop-color="#5B86E5"/>
</linearGradient>
<linearGradient id="paint8_linear" x1="310.172" y1="211.15" x2="337.697" y2="213.719" gradientUnits="userSpaceOnUse">
<stop stop-color="#36D1DC"/>
<stop offset="1" stop-color="#5B86E5"/>
</linearGradient>
<linearGradient id="paint9_linear" x1="313.363" y1="215.774" x2="322.296" y2="216.631" gradientUnits="userSpaceOnUse">
<stop stop-color="#36D1DC"/>
<stop offset="1" stop-color="#5B86E5"/>
</linearGradient>
<linearGradient id="paint10_linear" x1="16.5208" y1="16.743" x2="391.103" y2="18.0341" gradientUnits="userSpaceOnUse">
<stop stop-color="#36D1DC"/>
<stop offset="1" stop-color="#5B86E5"/>
</linearGradient>
<linearGradient id="paint11_linear" x1="350.285" y1="147.393" x2="374.792" y2="149.814" gradientUnits="userSpaceOnUse">
<stop stop-color="#36D1DC"/>
<stop offset="1" stop-color="#5B86E5"/>
</linearGradient>
<linearGradient id="paint12_linear" x1="352.168" y1="159.398" x2="358.708" y2="160.153" gradientUnits="userSpaceOnUse">
<stop stop-color="#36D1DC"/>
<stop offset="1" stop-color="#5B86E5"/>
</linearGradient>
<linearGradient id="paint13_linear" x1="313.77" y1="142.221" x2="360.5" y2="146.671" gradientUnits="userSpaceOnUse">
<stop stop-color="#36D1DC"/>
<stop offset="1" stop-color="#5B86E5"/>
</linearGradient>
<linearGradient id="paint14_linear" x1="312.629" y1="155.733" x2="324.037" y2="156.934" gradientUnits="userSpaceOnUse">
<stop stop-color="#36D1DC"/>
<stop offset="1" stop-color="#5B86E5"/>
</linearGradient>
<linearGradient id="paint15_linear" x1="305.023" y1="140.054" x2="336.02" y2="143.773" gradientUnits="userSpaceOnUse">
<stop stop-color="#36D1DC"/>
<stop offset="1" stop-color="#5B86E5"/>
</linearGradient>
<linearGradient id="paint16_linear" x1="325.266" y1="212.539" x2="377.771" y2="217.44" gradientUnits="userSpaceOnUse">
<stop stop-color="#36D1DC"/>
<stop offset="1" stop-color="#5B86E5"/>
</linearGradient>
<linearGradient id="paint17_linear" x1="310.172" y1="211.151" x2="337.697" y2="213.72" gradientUnits="userSpaceOnUse">
<stop stop-color="#36D1DC"/>
<stop offset="1" stop-color="#5B86E5"/>
</linearGradient>
<linearGradient id="paint18_linear" x1="313.363" y1="215.774" x2="322.296" y2="216.631" gradientUnits="userSpaceOnUse">
<stop stop-color="#36D1DC"/>
<stop offset="1" stop-color="#5B86E5"/>
</linearGradient>
</defs>
</svg>
