<svg width="192" height="156" viewBox="0 0 192 156" fill="none" xmlns="http://www.w3.org/2000/svg">
<path d="M12.6094 28.9009L127.406 56.4285L141.558 73.6355L12.6094 28.9009Z" fill="#588BE4"/>
<path opacity="0.6" d="M12.6094 28.9009L127.406 56.4285L141.558 73.6355L12.6094 28.9009Z" fill="white"/>
<path d="M12.6094 28.9009L127.406 56.4285L119.895 78.7161L12.6094 28.9009Z" fill="#588BE4"/>
<path opacity="0.2" d="M12.6094 28.9009L127.406 56.4285L119.895 78.7161L12.6094 28.9009Z" fill="black"/>
<path d="M123.613 12.5804L127.438 44.8495C127.535 45.6918 127.295 46.5386 126.771 47.2047C126.246 47.8708 125.479 48.3021 124.637 48.4043L63.1745 55.6956C62.3322 55.7933 61.4855 55.5535 60.8194 55.0288C60.1533 54.5041 59.722 53.7371 59.6197 52.8953L55.7949 20.6262C55.6958 19.7837 55.935 18.9362 56.4599 18.2698C56.9849 17.6034 57.7528 17.1724 58.5951 17.0714L120.058 9.7802C120.9 9.68113 121.748 9.92031 122.414 10.4453C123.081 10.9702 123.512 11.7381 123.613 12.5804Z" fill="#588BE4"/>
<path opacity="0.4" d="M123.613 12.5804L127.438 44.8495C127.535 45.6918 127.295 46.5386 126.771 47.2047C126.246 47.8708 125.479 48.3021 124.637 48.4043L63.1745 55.6956C62.3322 55.7933 61.4855 55.5535 60.8194 55.0288C60.1533 54.5041 59.722 53.7371 59.6197 52.8953L55.7949 20.6262C55.6958 19.7837 55.935 18.9362 56.4599 18.2698C56.9849 17.6034 57.7528 17.1724 58.5951 17.0714L120.058 9.7802C120.9 9.68113 121.748 9.92031 122.414 10.4453C123.081 10.9702 123.512 11.7381 123.613 12.5804Z" fill="black"/>
<path d="M122.324 10.3759L99.8944 33.2267C97.8165 35.348 95.0766 36.6963 92.1281 37.0483C89.1796 37.4004 86.1993 36.7351 83.6804 35.1626L56.5379 18.1621C57.0609 17.5443 57.7984 17.1473 58.6021 17.0511L120.058 9.77979C120.861 9.68513 121.671 9.89809 122.324 10.3759Z" fill="#588BE4"/>
<path d="M12.6094 28.9009L106.461 60.5975L119.895 78.7161L12.6094 28.9009Z" fill="#588BE4"/>
<path opacity="0.6" d="M12.6094 28.9009L106.461 60.5975L119.895 78.7161L12.6094 28.9009Z" fill="white"/>
<path d="M45.5742 54.1241L45.2754 54.5405L55.3749 61.7857L55.6737 61.3692L45.5742 54.1241Z" fill="#588BE4"/>
<path d="M60.1328 64.5733L59.834 64.9897L63.4656 67.595L63.7644 67.1785L60.1328 64.5733Z" fill="#588BE4"/>
<path d="M12.6094 28.9009L106.461 60.5975L85.7229 81.3557L12.6094 28.9009Z" fill="#588BE4"/>
<path d="M136.012 94.2317C135.883 94.2201 135.757 94.1839 135.641 94.1253L120.582 86.4858C120.341 86.3619 120.159 86.1478 120.076 85.8903C119.993 85.6328 120.014 85.3527 120.137 85.1112C120.259 84.8697 120.472 84.6864 120.729 84.6012C120.986 84.5161 121.266 84.536 121.508 84.6567L136.567 92.2962C136.78 92.4041 136.949 92.583 137.044 92.802C137.139 93.0211 137.155 93.2665 137.089 93.4958C137.022 93.7252 136.878 93.9242 136.68 94.0585C136.483 94.1928 136.245 94.2539 136.007 94.2313L136.012 94.2317Z" fill="#588BE4"/>
<path opacity="0.3" d="M136.012 94.2317C135.883 94.2201 135.757 94.1839 135.641 94.1253L120.582 86.4858C120.341 86.3619 120.159 86.1478 120.076 85.8903C119.993 85.6328 120.014 85.3527 120.137 85.1112C120.259 84.8697 120.472 84.6864 120.729 84.6012C120.986 84.5161 121.266 84.536 121.508 84.6567L136.567 92.2962C136.78 92.4041 136.949 92.583 137.044 92.802C137.139 93.0211 137.155 93.2665 137.089 93.4958C137.022 93.7252 136.878 93.9242 136.68 94.0585C136.483 94.1928 136.245 94.2539 136.007 94.2313L136.012 94.2317Z" fill="black"/>
<path d="M135.926 85.1794C135.797 85.1677 135.671 85.1316 135.555 85.0729L127.467 80.9724C127.346 80.9121 127.238 80.8285 127.15 80.7263C127.061 80.6242 126.994 80.5056 126.951 80.3772C126.909 80.2489 126.892 80.1134 126.902 79.9786C126.912 79.8438 126.949 79.7123 127.01 79.5917C127.071 79.4711 127.155 79.3637 127.258 79.2759C127.36 79.188 127.48 79.1213 127.608 79.0796C127.737 79.0379 127.872 79.0221 128.007 79.033C128.142 79.044 128.273 79.0815 128.393 79.1433L136.481 83.2439C136.694 83.3518 136.863 83.5307 136.958 83.7497C137.053 83.9687 137.069 84.2141 137.003 84.4435C136.936 84.6729 136.792 84.8719 136.594 85.0062C136.397 85.1404 136.158 85.2015 135.921 85.1789L135.926 85.1794Z" fill="#588BE4"/>
<path opacity="0.5" d="M135.926 85.1794C135.797 85.1677 135.671 85.1316 135.555 85.0729L127.467 80.9724C127.346 80.9121 127.238 80.8285 127.15 80.7263C127.061 80.6242 126.994 80.5056 126.951 80.3772C126.909 80.2489 126.892 80.1134 126.902 79.9786C126.912 79.8438 126.949 79.7123 127.01 79.5917C127.071 79.4711 127.155 79.3637 127.258 79.2759C127.36 79.188 127.48 79.1213 127.608 79.0796C127.737 79.0379 127.872 79.0221 128.007 79.033C128.142 79.044 128.273 79.0815 128.393 79.1433L136.481 83.2439C136.694 83.3518 136.863 83.5307 136.958 83.7497C137.053 83.9687 137.069 84.2141 137.003 84.4435C136.936 84.6729 136.792 84.8719 136.594 85.0062C136.397 85.1404 136.158 85.2015 135.921 85.1789L135.926 85.1794Z" fill="white"/>
<path d="M117.554 92.3506C117.425 92.339 117.299 92.3028 117.183 92.2442L102.502 84.8095C102.261 84.6856 102.079 84.4716 101.996 84.214C101.912 83.9565 101.934 83.6765 102.057 83.4349C102.179 83.1934 102.392 83.0101 102.649 82.925C102.906 82.8398 103.186 82.8598 103.428 82.9805L118.093 90.4239C118.306 90.5318 118.475 90.7107 118.57 90.9297C118.666 91.1487 118.681 91.3941 118.615 91.6235C118.548 91.8529 118.404 92.0519 118.207 92.1862C118.009 92.3205 117.771 92.3816 117.533 92.3589L117.554 92.3506Z" fill="#588BE4"/>
<path opacity="0.3" d="M117.554 92.3506C117.425 92.339 117.299 92.3028 117.183 92.2442L102.502 84.8095C102.261 84.6856 102.079 84.4716 101.996 84.214C101.912 83.9565 101.934 83.6765 102.057 83.4349C102.179 83.1934 102.392 83.0101 102.649 82.925C102.906 82.8398 103.186 82.8598 103.428 82.9805L118.093 90.4239C118.306 90.5318 118.475 90.7107 118.57 90.9297C118.666 91.1487 118.681 91.3941 118.615 91.6235C118.548 91.8529 118.404 92.0519 118.207 92.1862C118.009 92.3205 117.771 92.3816 117.533 92.3589L117.554 92.3506Z" fill="black"/>
<path d="M177.004 51.476C178.112 54.2399 179.107 56.9986 180.035 59.8128C180.964 62.627 181.812 65.4698 182.501 68.4266L182.747 69.5458C182.785 69.745 182.848 70.0699 182.878 70.2992C182.908 70.5285 182.93 70.7879 182.941 71.0051C182.979 71.8376 182.96 72.6717 182.885 73.5016C182.752 75.0277 182.539 76.5457 182.247 78.0495C181.689 80.9781 180.953 83.8701 180.044 86.7094L177.276 86.1389C177.507 83.2622 177.751 80.3559 177.911 77.5138C177.991 76.0954 178.04 74.6792 178.02 73.3339C178.012 72.7068 177.969 72.0807 177.891 71.4585C177.873 71.3127 177.848 71.1971 177.823 71.0764C177.798 70.9557 177.782 70.913 177.739 70.7598L177.446 69.7597C176.618 67.0784 175.66 64.3644 174.676 61.6582L171.691 53.5419L177.004 51.476Z" fill="#E4897B"/>
<path d="M177.396 85.2803L175.863 87.6038L179.93 89.1544C179.93 89.1544 180.909 87.2632 180.103 85.6237L177.396 85.2803Z" fill="#E4897B"/>
<path d="M173.935 90.9768L177.745 91.6336L179.926 89.1539L175.864 87.5987L173.935 90.9768Z" fill="#E4897B"/>
<path d="M161.068 32.2076C161.156 31.9176 161.073 31.6361 160.883 31.5789C160.693 31.5216 160.468 31.7103 160.381 32.0003C160.294 32.2903 160.376 32.5718 160.566 32.629C160.756 32.6862 160.981 32.4975 161.068 32.2076Z" fill="#263238"/>
<path d="M160.785 32.6978C160.17 33.4814 159.451 34.1769 158.647 34.7647C158.804 34.9662 159.002 35.1312 159.228 35.2482C159.455 35.3652 159.704 35.4314 159.959 35.4421L160.785 32.6978Z" fill="#DE5753"/>
<path d="M162.622 30.9172C162.597 30.9153 162.573 30.9082 162.551 30.8965C162.529 30.8847 162.509 30.8684 162.494 30.8488C162.364 30.6669 162.192 30.5186 161.993 30.416C161.794 30.3135 161.573 30.2596 161.349 30.2589C161.302 30.2627 161.255 30.2474 161.219 30.2166C161.182 30.1857 161.16 30.1417 161.156 30.0943C161.152 30.0468 161.168 29.9998 161.198 29.9635C161.229 29.9273 161.273 29.9048 161.321 29.901C161.608 29.8936 161.892 29.9561 162.149 30.083C162.406 30.21 162.629 30.3977 162.798 30.6298C162.818 30.6576 162.829 30.6906 162.831 30.7248C162.833 30.759 162.825 30.7931 162.808 30.8229C162.791 30.8528 162.766 30.8772 162.736 30.8932C162.706 30.9093 162.672 30.9164 162.637 30.9136L162.622 30.9172Z" fill="#263238"/>
<path d="M169.127 37.1618C168.337 39.8528 167.33 44.8298 169.079 46.8398C169.079 46.8398 168.071 49.5518 162.972 49.0793C157.358 48.5591 160.551 46.0495 160.551 46.0495C163.681 45.6035 163.809 43.3248 163.471 41.1469L169.127 37.1618Z" fill="#E4897B"/>
<path d="M169.687 48.6415C170.214 47.3366 170.806 45.8369 169.927 45.2715C168.954 44.6666 163.463 43.5915 161.457 44.4094C159.451 45.2272 159.739 48.0027 159.739 48.0027L169.687 48.6415Z" fill="#263238"/>
<path d="M158.222 52.4738C155.109 51.9389 152.028 51.2358 148.992 50.3676C147.488 49.9297 145.952 49.4527 144.444 48.8909C142.891 48.3388 141.376 47.6826 139.911 46.9265C139.533 46.7268 139.152 46.5113 138.775 46.3064C138.356 46.0469 137.954 45.7603 137.572 45.4486C136.885 44.8702 136.296 44.3318 135.715 43.7734C134.559 42.6368 133.495 41.5087 132.428 40.3546C130.343 38.0303 128.381 35.6453 126.507 33.1552L128.579 31.2317L135.491 37.2411C136.629 38.2371 137.785 39.209 138.925 40.133C139.489 40.592 140.077 41.0274 140.609 41.401C140.833 41.56 141.067 41.7038 141.31 41.8314C141.6 41.9767 141.901 42.123 142.212 42.2599C144.891 43.3666 147.654 44.2595 150.474 44.9301C153.345 45.6595 156.321 46.3214 159.202 46.8921L158.222 52.4738Z" fill="#E4897B"/>
<path d="M175.715 48.3251C179.157 49.4573 181.757 60.0602 181.757 60.0602L174.021 64.5577C174.021 64.5577 172.423 59.5812 170.846 55.2141C169.184 50.6436 172.2 47.15 175.715 48.3251Z" fill="url(#paint0_linear)"/>
<path d="M175.715 48.3251C179.157 49.4573 181.757 60.0602 181.757 60.0602L174.021 64.5577C174.021 64.5577 172.423 59.5812 170.846 55.2141C169.184 50.6436 172.2 47.15 175.715 48.3251Z" fill="#263238"/>
<path d="M173.165 53.7506L171.433 56.8279C172.621 60.1706 173.685 63.471 173.968 64.3517C174.27 60.5448 173.987 55.7674 173.165 53.7506Z" fill="url(#paint1_linear)"/>
<path opacity="0.6" d="M173.165 53.7506L171.433 56.8279C172.621 60.1706 173.685 63.471 173.968 64.3517C174.27 60.5448 173.987 55.7674 173.165 53.7506Z" fill="black"/>
<path d="M154.694 46.5568C154.694 46.5568 150.285 50.6935 151.471 78.9449L171.523 80.8033C171.945 77.7538 171.404 62.5391 175.718 48.3097C173.542 47.6774 171.326 47.1866 169.086 46.8405C166.262 46.4129 163.416 46.1491 160.562 46.0506C158.596 46.0664 156.634 46.2357 154.694 46.5568Z" fill="url(#paint2_linear)"/>
<path d="M154.694 46.5568C154.694 46.5568 150.285 50.6935 151.471 78.9449L171.523 80.8033C171.945 77.7538 171.404 62.5391 175.718 48.3097C173.542 47.6774 171.326 47.1866 169.086 46.8405C166.262 46.4129 163.416 46.1491 160.562 46.0506C158.596 46.0664 156.634 46.2357 154.694 46.5568Z" fill="#263238"/>
<path d="M152.703 51.8546C152.473 52.8987 152.255 54.1397 152.052 55.6085C154.087 55.1977 156.051 54.488 157.878 53.5026L152.703 51.8546Z" fill="url(#paint3_linear)"/>
<path opacity="0.6" d="M152.703 51.8546C152.473 52.8987 152.255 54.1397 152.052 55.6085C154.087 55.1977 156.051 54.488 157.878 53.5026L152.703 51.8546Z" fill="black"/>
<path d="M161.235 53.1597C158.33 55.2892 148.104 54.0996 148.104 54.0996L148.686 44.1621C152.101 44.9746 155.568 45.5504 159.063 45.8856C164.798 46.3193 164.42 50.845 161.235 53.1597Z" fill="url(#paint4_linear)"/>
<path d="M161.235 53.1597C158.33 55.2892 148.104 54.0996 148.104 54.0996L148.686 44.1621C152.101 44.9746 155.568 45.5504 159.063 45.8856C164.798 46.3193 164.42 50.845 161.235 53.1597Z" fill="#263238"/>
<path d="M128.673 31.2509L126.4 28.0084L123.371 30.8161C123.371 30.8161 124.796 33.8205 127.532 33.6211L128.673 31.2509Z" fill="#E4897B"/>
<path d="M123.07 24.1684L121.717 27.9963L123.351 30.7987L126.379 28.0114L123.07 24.1684Z" fill="#E4897B"/>
<path d="M164.123 28.7195C160.901 26.8767 160.471 19.97 169.984 22.5709C169.984 22.5709 168.374 24.0535 171.245 25.349C174.116 26.6446 171.043 32.7479 164.123 28.7195Z" fill="#263238"/>
<path d="M170.952 34.4999C169.657 37.983 169.077 40.1222 166.709 41.4109C163.163 43.3472 159.247 40.3848 159.472 36.5657C159.673 33.1251 161.762 27.9704 165.682 27.6028C166.548 27.5148 167.422 27.6502 168.221 27.996C169.02 28.3419 169.717 28.8866 170.245 29.5782C170.774 30.2698 171.116 31.0853 171.24 31.9469C171.364 32.8085 171.265 33.6874 170.952 34.4999Z" fill="#E4897B"/>
<path d="M169.684 24.3755C171.857 25.8689 174.89 26.9169 174.431 28.7069C173.842 30.8915 176.232 29.7129 175.399 32.9713C174.857 35.0985 170.267 41.2465 167.478 40.6894C163.307 39.819 164.439 33.4329 164.737 30.0477C164.911 28.0564 165.426 21.4483 169.684 24.3755Z" fill="#263238"/>
<path d="M164.523 26.7901C163.48 26.9354 161.582 32.6946 165.488 33.6022C169.983 34.6416 164.523 26.7901 164.523 26.7901Z" fill="#263238"/>
<path d="M164.459 28.8891C163.198 28.8855 160.505 27.1174 161.062 24.8836C161.042 24.8817 162.593 27.697 164.459 28.8891Z" fill="#263238"/>
<path d="M165.82 34.1019C165.363 34.9044 164.655 35.535 163.806 35.897C162.677 36.3586 162.146 35.4806 162.49 34.4264C162.8 33.4771 163.737 32.0866 164.881 32.0742C166.025 32.0618 166.364 33.1228 165.82 34.1019Z" fill="#E4897B"/>
<path d="M171.82 30.4625C172.614 30.2041 173.331 29.7525 173.907 29.1482C174.484 28.5439 174.901 27.8058 175.121 27.0004C175.121 27.0004 176.369 31.8672 171.82 30.4625Z" fill="#263238"/>
<path d="M176.087 30.8164C175.753 30.5436 175.357 30.3582 174.935 30.2767C174.512 30.1953 174.075 30.2205 173.664 30.35C173.664 30.35 175.425 28.4542 176.087 30.8164Z" fill="#263238"/>
<path d="M158.58 79.5984C158.58 79.5984 160.18 108.655 161.524 119.59C162.988 131.564 168.998 171.634 168.998 171.634L175.878 172.271C175.878 172.271 173.065 133.476 172.684 121.7C172.272 108.921 171.533 80.7937 171.533 80.7937L158.58 79.5984Z" fill="url(#paint5_linear)"/>
<path d="M158.58 79.5984C158.58 79.5984 160.18 108.655 161.524 119.59C162.988 131.564 168.998 171.634 168.998 171.634L175.878 172.271C175.878 172.271 173.065 133.476 172.684 121.7C172.272 108.921 171.533 80.7937 171.533 80.7937L158.58 79.5984Z" fill="#E4EDFF"/>
<path d="M151.465 78.9393C151.465 78.9393 148.357 106.927 147.701 118.396C147.022 130.327 147.583 169.655 147.583 169.655L153.932 170.243C153.932 170.243 157.711 132.018 159.069 120.366C160.555 107.661 164.658 80.162 164.658 80.162L151.465 78.9393Z" fill="url(#paint6_linear)"/>
<path d="M151.465 78.9393C151.465 78.9393 148.357 106.927 147.701 118.396C147.022 130.327 147.583 169.655 147.583 169.655L153.932 170.243C153.932 170.243 157.711 132.018 159.069 120.366C160.555 107.661 164.658 80.162 164.658 80.162L151.465 78.9393Z" fill="#E4EDFF"/>
<path d="M149.313 165.213C149.297 165.211 149.283 165.204 149.273 165.193C149.262 165.181 149.257 165.166 149.257 165.151C149.138 154.268 148.911 127.949 149.456 118.564C149.999 108.983 152.296 87.5867 152.986 81.2574C152.986 81.2489 152.989 81.2406 152.993 81.2332C152.997 81.2257 153.003 81.2191 153.009 81.214C153.016 81.2088 153.024 81.2051 153.032 81.2031C153.041 81.201 153.049 81.2008 153.058 81.2023C153.066 81.203 153.074 81.2055 153.082 81.2096C153.089 81.2138 153.096 81.2194 153.101 81.2262C153.106 81.2329 153.11 81.2407 153.112 81.249C153.114 81.2573 153.114 81.2659 153.113 81.2743C152.423 87.6036 150.127 108.995 149.584 118.576C149.049 127.956 149.276 154.276 149.385 165.158C149.386 165.166 149.384 165.175 149.382 165.183C149.379 165.191 149.374 165.199 149.368 165.205C149.362 165.211 149.355 165.216 149.347 165.219C149.339 165.223 149.331 165.224 149.322 165.224L149.313 165.213Z" fill="url(#paint7_linear)"/>
<path opacity="0.4" d="M149.313 165.213C149.297 165.211 149.283 165.204 149.273 165.193C149.262 165.181 149.257 165.166 149.257 165.151C149.138 154.268 148.911 127.949 149.456 118.564C149.999 108.983 152.296 87.5867 152.986 81.2574C152.986 81.2489 152.989 81.2406 152.993 81.2332C152.997 81.2257 153.003 81.2191 153.009 81.214C153.016 81.2088 153.024 81.2051 153.032 81.2031C153.041 81.201 153.049 81.2008 153.058 81.2023C153.066 81.203 153.074 81.2055 153.082 81.2096C153.089 81.2138 153.096 81.2194 153.101 81.2262C153.106 81.2329 153.11 81.2407 153.112 81.249C153.114 81.2573 153.114 81.2659 153.113 81.2743C152.423 87.6036 150.127 108.995 149.584 118.576C149.049 127.956 149.276 154.276 149.385 165.158C149.386 165.166 149.384 165.175 149.382 165.183C149.379 165.191 149.374 165.199 149.368 165.205C149.362 165.211 149.355 165.216 149.347 165.219C149.339 165.223 149.331 165.224 149.322 165.224L149.313 165.213Z" fill="white"/>
<defs>
<linearGradient id="paint0_linear" x1="170.809" y1="47.75" x2="182.786" y2="48.9478" gradientUnits="userSpaceOnUse">
<stop stop-color="#36D1DC"/>
<stop offset="1" stop-color="#5B86E5"/>
</linearGradient>
<linearGradient id="paint1_linear" x1="171.73" y1="53.6177" x2="174.926" y2="53.9973" gradientUnits="userSpaceOnUse">
<stop stop-color="#36D1DC"/>
<stop offset="1" stop-color="#5B86E5"/>
</linearGradient>
<linearGradient id="paint2_linear" x1="152.961" y1="45.2217" x2="175.822" y2="47.1792" gradientUnits="userSpaceOnUse">
<stop stop-color="#36D1DC"/>
<stop offset="1" stop-color="#5B86E5"/>
</linearGradient>
<linearGradient id="paint3_linear" x1="152.402" y1="51.8267" x2="157.977" y2="52.4293" gradientUnits="userSpaceOnUse">
<stop stop-color="#36D1DC"/>
<stop offset="1" stop-color="#5B86E5"/>
</linearGradient>
<linearGradient id="paint4_linear" x1="148.686" y1="44.1621" x2="163.825" y2="46.0546" gradientUnits="userSpaceOnUse">
<stop stop-color="#36D1DC"/>
<stop offset="1" stop-color="#5B86E5"/>
</linearGradient>
<linearGradient id="paint5_linear" x1="158.58" y1="79.5933" x2="184.251" y2="81.9269" gradientUnits="userSpaceOnUse">
<stop stop-color="#36D1DC"/>
<stop offset="1" stop-color="#5B86E5"/>
</linearGradient>
<linearGradient id="paint6_linear" x1="151.203" y1="78.915" x2="164.655" y2="80.1991" gradientUnits="userSpaceOnUse">
<stop stop-color="#36D1DC"/>
<stop offset="1" stop-color="#5B86E5"/>
</linearGradient>
<linearGradient id="paint7_linear" x1="152.764" y1="81.1748" x2="157.131" y2="81.5816" gradientUnits="userSpaceOnUse">
<stop stop-color="#36D1DC"/>
<stop offset="1" stop-color="#5B86E5"/>
</linearGradient>
</defs>
</svg>
