<svg width="19" height="18" viewBox="0 0 19 18" fill="none" xmlns="http://www.w3.org/2000/svg">
<path d="M13.25 5.99991H12.5V4.58241C12.5 3.78676 12.1839 3.0237 11.6213 2.46109C11.0587 1.89848 10.2956 1.58241 9.5 1.58241C8.70435 1.58241 7.94129 1.89848 7.37868 2.46109C6.81607 3.0237 6.5 3.78676 6.5 4.58241V5.99991H5.75C5.15326 5.99991 4.58097 6.23697 4.15901 6.65892C3.73705 7.08088 3.5 7.65318 3.5 8.24991V14.2499C3.5 14.8467 3.73705 15.4189 4.15901 15.8409C4.58097 16.2629 5.15326 16.4999 5.75 16.4999H13.25C13.8467 16.4999 14.419 16.2629 14.841 15.8409C15.2629 15.4189 15.5 14.8467 15.5 14.2499V8.24991C15.5 7.65318 15.2629 7.08088 14.841 6.65892C14.419 6.23697 13.8467 5.99991 13.25 5.99991ZM8 4.58241C7.98991 4.17388 8.14209 3.778 8.42321 3.48141C8.70434 3.18482 9.09152 3.01169 9.5 2.99991C9.90848 3.01169 10.2957 3.18482 10.5768 3.48141C10.8579 3.778 11.0101 4.17388 11 4.58241V5.99991H8V4.58241ZM14 14.2499C14 14.4488 13.921 14.6396 13.7803 14.7802C13.6397 14.9209 13.4489 14.9999 13.25 14.9999H5.75C5.55109 14.9999 5.36032 14.9209 5.21967 14.7802C5.07902 14.6396 5 14.4488 5 14.2499V8.24991C5 8.051 5.07902 7.86024 5.21967 7.71958C5.36032 7.57893 5.55109 7.49991 5.75 7.49991H13.25C13.4489 7.49991 13.6397 7.57893 13.7803 7.71958C13.921 7.86024 14 8.051 14 8.24991V14.2499Z" fill="white"/>
<path d="M9.5 9C9.05499 9 8.61998 9.13196 8.24997 9.37919C7.87996 9.62643 7.59157 9.97783 7.42127 10.389C7.25097 10.8001 7.20642 11.2525 7.29323 11.689C7.38005 12.1254 7.59434 12.5263 7.90901 12.841C8.22368 13.1557 8.62459 13.37 9.06105 13.4568C9.4975 13.5436 9.9499 13.499 10.361 13.3287C10.7722 13.1584 11.1236 12.87 11.3708 12.5C11.618 12.13 11.75 11.695 11.75 11.25C11.75 10.6533 11.5129 10.081 11.091 9.65901C10.669 9.23705 10.0967 9 9.5 9ZM9.5 12C9.35166 12 9.20666 11.956 9.08332 11.8736C8.95999 11.7912 8.86386 11.6741 8.80709 11.537C8.75033 11.4 8.73547 11.2492 8.76441 11.1037C8.79335 10.9582 8.86478 10.8246 8.96967 10.7197C9.07456 10.6148 9.2082 10.5433 9.35368 10.5144C9.49917 10.4855 9.64997 10.5003 9.78701 10.5571C9.92406 10.6139 10.0412 10.71 10.1236 10.8333C10.206 10.9567 10.25 11.1017 10.25 11.25C10.25 11.4489 10.171 11.6397 10.0303 11.7803C9.88968 11.921 9.69891 12 9.5 12Z" fill="white"/>
</svg>
