<svg width="227" height="195" viewBox="0 0 227 195" fill="none" xmlns="http://www.w3.org/2000/svg">
<path d="M52.142 85.899L46.4359 151.992C45.9712 157.372 49.2645 162.083 53.7723 162.467L179.192 173.227C183.675 173.61 187.727 169.526 188.159 164.146L193.865 98.053C193.975 96.8121 193.878 95.5616 193.579 94.3522C192.675 90.6595 189.96 87.831 186.553 87.5783L61.1331 76.8182C57.7258 76.5248 54.5711 78.8154 53.0549 82.2879C52.5533 83.433 52.2448 84.6532 52.142 85.899Z" fill="#407BFF"/>
<path opacity="0.3" d="M52.142 85.899L46.4359 151.992C45.9712 157.372 49.2645 162.083 53.7723 162.467L179.192 173.227C183.675 173.61 187.727 169.526 188.159 164.146L193.865 98.053C193.975 96.8121 193.878 95.5616 193.579 94.3522C192.675 90.6595 189.96 87.831 186.553 87.5783L61.1331 76.8182C57.7258 76.5248 54.5711 78.8154 53.0549 82.2879C52.5533 83.433 52.2448 84.6532 52.142 85.899Z" fill="black"/>
<path d="M37.2592 124.876L38.1494 124.984L37.7896 127.962L36.8994 127.854L37.2592 124.876Z" fill="#407BFF"/>
<path d="M38.9941 110.498L39.8843 110.606L38.5436 121.701L37.6534 121.593L38.9941 110.498Z" fill="#407BFF"/>
<path d="M46.5334 74.104L38.333 141.892C37.6646 147.411 40.8844 152.375 45.4819 152.929L174.13 168.483C178.727 169.037 183.039 164.977 183.708 159.467L191.875 91.6869C192.032 90.415 191.977 89.1259 191.712 87.872C190.897 84.0489 188.224 81.0736 184.727 80.6497L56.1033 65.0884C52.6145 64.6645 49.2805 66.9062 47.5931 70.4276C47.0397 71.5863 46.6816 72.8285 46.5334 74.104Z" fill="#355389"/>
<path opacity="0.1" d="M47.5937 70.4114L105.934 109.694C108.793 111.651 112.082 112.89 115.522 113.305C118.961 113.721 122.451 113.302 125.694 112.082L191.721 87.8476C190.906 84.0245 188.232 81.0492 184.735 80.6253L56.1121 65.064C52.6151 64.6646 49.2811 66.9062 47.5937 70.4114Z" fill="black"/>
<path d="M69.3584 85.0839L86.0935 96.3575L91.5714 100.05L105.943 109.702C108.727 111.618 111.924 112.849 115.274 113.295C118.624 113.742 122.032 113.39 125.221 112.269C125.392 112.229 125.563 112.163 125.726 112.098L133.772 109.147L151.868 102.504L160.273 99.398L169.859 95.8847L170.544 78.9377L172.068 41.2775L98.435 38.2859L70.3692 59.5533L70.0757 66.7837L69.3584 85.0839Z" fill="#407BFF"/>
<path opacity="0.7" d="M69.3584 85.0839L86.0935 96.3575L91.5714 100.05L105.943 109.702C108.727 111.618 111.924 112.849 115.274 113.295C118.624 113.742 122.032 113.39 125.221 112.269C125.392 112.229 125.563 112.163 125.726 112.098L133.772 109.147L151.868 102.504L160.273 99.398L169.859 95.8847L170.544 78.9377L172.068 41.2775L98.435 38.2859L70.3692 59.5533L70.0757 66.7837L69.3584 85.0839Z" fill="#FAFAFA"/>
<g opacity="0.9">
<path opacity="0.9" d="M79.743 67.0364L161.258 70.3459C161.712 70.3617 162.153 70.2003 162.49 69.8959C162.826 69.5916 163.031 69.1682 163.06 68.7156C163.076 68.2623 162.914 67.8207 162.61 67.4844C162.306 67.148 161.882 66.9435 161.43 66.9141L79.9142 63.6046C79.4609 63.5888 79.0193 63.7502 78.683 64.0545C78.3466 64.3589 78.1421 64.7823 78.1127 65.2349C78.0969 65.6882 78.2583 66.1298 78.5627 66.4661C78.867 66.8024 79.2904 67.007 79.743 67.0364Z" fill="white"/>
<path opacity="0.9" d="M79.3031 77.8699L160.819 81.1794C161.272 81.1952 161.713 81.0338 162.05 80.7294C162.386 80.4251 162.591 80.0017 162.62 79.5491C162.636 79.0958 162.474 78.6542 162.17 78.3178C161.866 77.9815 161.442 77.777 160.99 77.7476L79.4743 74.4381C79.021 74.4223 78.5793 74.5837 78.243 74.888C77.9067 75.1924 77.7022 75.6158 77.6728 76.0684C77.657 76.5217 77.8184 76.9633 78.1227 77.2996C78.4271 77.6359 78.8505 77.8405 79.3031 77.8699Z" fill="white"/>
<path opacity="0.9" d="M78.8632 88.6948L160.379 92.0044C160.832 92.0201 161.274 91.8588 161.61 91.5544C161.946 91.25 162.151 90.8267 162.18 90.374C162.196 89.9207 162.034 89.4791 161.73 89.1428C161.426 88.8065 161.002 88.6019 160.55 88.5725L79.0343 85.263C78.581 85.2472 78.1394 85.4086 77.8031 85.713C77.4668 86.0173 77.2622 86.4407 77.2328 86.8933C77.2171 87.3466 77.3784 87.7883 77.6828 88.1246C77.9871 88.4609 78.4105 88.6654 78.8632 88.6948Z" fill="white"/>
<path opacity="0.9" d="M86.0939 96.3574L91.5717 100.05L151.795 102.496L160.273 99.3979C160.203 99.3894 160.131 99.3894 160.061 99.3979L86.0939 96.3574Z" fill="white"/>
<path opacity="0.9" d="M108.429 109.848L108.429 109.913C108.426 110.358 108.593 110.787 108.896 111.113C109.199 111.439 109.615 111.637 110.059 111.666L125.156 112.269C125.327 112.228 125.498 112.163 125.661 112.098L133.707 109.147L110.206 108.193C109.753 108.184 109.314 108.352 108.982 108.661C108.65 108.97 108.452 109.395 108.429 109.848Z" fill="white"/>
</g>
<path opacity="0.1" d="M70.3937 59.5452L89.8922 58.7056L98.4595 38.2778L70.3937 59.5452Z" fill="#263238"/>
<path d="M70.3937 59.5452L89.3134 56.3009L98.4595 38.2778L70.3937 59.5452Z" fill="#407BFF"/>
<path d="M183.944 28.2026L185.868 28.2026C186.026 28.2026 186.153 28.3304 186.153 28.4879L186.153 28.6917C186.153 28.8493 186.026 28.977 185.868 28.977L183.944 28.977C183.787 28.977 183.659 28.8493 183.659 28.6917L183.659 28.4879C183.659 28.3304 183.787 28.2026 183.944 28.2026Z" fill="#407BFF"/>
<path d="M84.8483 89.9828L83.6157 91.3181L87.6181 95.0127L88.8507 93.6774L84.8483 89.9828Z" fill="#44B4DF"/>
<path d="M28.4871 55.8627L28.3198 58.1733L35.2471 58.6748L35.4144 56.3641L28.4871 55.8627Z" fill="#44B4DF"/>
<path d="M14.1544 160.754L15.8564 162.326L20.5683 157.223L18.8663 155.652L14.1544 160.754Z" fill="#44B4DF"/>
<path d="M111.328 13.0736L110.539 15.1248L116.688 17.4913L117.477 15.4401L111.328 13.0736Z" fill="#263238"/>
<path d="M23.7531 49.0543L21.9155 47.8486L18.3011 53.3574L20.1387 54.563L23.7531 49.0543Z" fill="#C2D4FB"/>
<path d="M122.132 31.1186L120.758 31.6562L122.371 35.7759L123.744 35.2383L122.132 31.1186Z" fill="#1064B4"/>
<path d="M214.93 41.9886L214.056 40.8013L210.494 43.4254L211.368 44.6127L214.93 41.9886Z" fill="#7EDAFE"/>
<path d="M212.546 120.111L211.671 118.923L208.109 121.547L208.984 122.735L212.546 120.111Z" fill="#7EDAFE"/>
<path d="M12.7196 126.743L11.9302 128.794L18.0791 131.16L18.8685 129.109L12.7196 126.743Z" fill="#263238"/>
<path d="M104.234 99.2428L99.3276 103.64L100.795 105.277L105.701 100.879L104.234 99.2428Z" fill="#263238"/>
<path d="M33.809 140.559L32.1943 139.068L27.7245 143.908L29.3392 145.399L33.809 140.559Z" fill="#1064B4"/>
<path d="M145.648 181.38L144.143 182.216L146.652 186.732L148.158 185.895L145.648 181.38Z" fill="#1064B4"/>
<path d="M52.9279 5.67772L51.5547 6.21533L53.1675 10.335L54.5407 9.79741L52.9279 5.67772Z" fill="#1064B4"/>
<path d="M12.7604 81.3132L13.3901 82.6467L17.3906 80.7574L16.7608 79.424L12.7604 81.3132Z" fill="#1064B4"/>
<path d="M83.0694 111.955L84.1836 112.921L87.082 109.578L85.9678 108.612L83.0694 111.955Z" fill="#44B4DF"/>
<path d="M73.8871 13.7774L74.2163 15.2148L78.5288 14.2272L78.1996 12.7897L73.8871 13.7774Z" fill="#C2D4FB"/>
<path d="M25.9691 117.653L26.2983 119.09L30.6108 118.103L30.2816 116.665L25.9691 117.653Z" fill="#C2D4FB"/>
<path d="M196.547 189.684L192.235 190.671L192.564 192.109L196.877 191.121L196.547 189.684Z" fill="#263238"/>
<path d="M137.677 163.899L136.896 165.15L140.65 167.492L141.431 166.241L137.677 163.899Z" fill="#C2D4FB"/>
<path d="M202.073 140.381L203.446 139.843L201.833 135.724L200.46 136.261L202.073 140.381Z" fill="#C2D4FB"/>
<path d="M97.3636 116.307L97.6929 117.744L102.005 116.757L101.676 115.319L97.3636 116.307Z" fill="#C2D4FB"/>
<path d="M100.162 62.3545L100.492 63.792L104.804 62.8043L104.475 61.3668L100.162 62.3545Z" fill="#C2D4FB"/>
<path d="M89.1645 127.552L87.7153 127.826L88.5352 132.173L89.9844 131.9L89.1645 127.552Z" fill="#1064B4"/>
<path d="M194.713 33.4785L194.249 34.8782L198.447 36.2717L198.912 34.8721L194.713 33.4785Z" fill="#C2D4FB"/>
<path d="M170.243 23.6715L165.172 26.8315L166.226 28.5232L171.297 25.3631L170.243 23.6715Z" fill="#263238"/>
<path d="M211.361 62.4747L206.29 65.6348L207.344 67.3264L212.415 64.1664L211.361 62.4747Z" fill="#263238"/>
<path d="M198.518 163.112C198.509 162.751 198.439 162.394 198.312 162.056C197.662 160.279 195.559 158.535 193.161 157.946C191.972 157.681 190.729 157.788 189.602 158.253C189.577 158.079 189.564 157.903 189.562 157.727C189.523 157.34 189.562 156.949 189.677 156.577C189.792 156.205 189.981 155.86 190.232 155.563C190.619 155.201 191.124 154.993 191.653 154.975L191.674 154.078L191.704 153.12C190.676 153.119 189.687 153.514 188.943 154.222C188.1 155.057 187.676 156.234 187.707 157.744C187.716 158.234 187.785 158.721 187.91 159.195C187.72 159.334 187.536 159.483 187.362 159.641C185.4 161.47 184.628 164.278 185.2 167.55C185.869 171.453 184.491 174.227 182.926 175.154C181.811 175.813 180.524 175.642 179.301 174.662L178.149 176.104C178.457 176.351 178.786 176.57 179.132 176.759C179.85 177.18 180.669 177.401 181.501 177.398C182.334 177.394 183.15 177.167 183.865 176.74C186.464 175.209 186.819 170.774 186.11 166.625C185.53 163.246 186.917 160.892 188.629 160.992C189.314 162.23 190.254 163.308 191.388 164.153C193.115 165.454 194.991 165.965 196.504 165.54C197.797 165.202 198.536 164.289 198.518 163.112ZM195.519 163.851C194.406 163.812 193.339 163.403 192.486 162.689C191.526 161.976 190.737 161.059 190.174 160.005C190.971 159.658 191.855 159.565 192.707 159.739C195.058 160.317 196.645 162.169 196.656 163.138C196.659 163.283 196.665 163.592 196.002 163.775C195.868 163.813 195.73 163.837 195.591 163.847L195.519 163.851Z" fill="#7EDAFE"/>
<path d="M195.596 163.848C195.735 163.838 195.873 163.813 196.007 163.776C196.67 163.592 196.663 163.288 196.661 163.139C196.644 162.174 195.063 160.318 192.712 159.74C191.86 159.566 190.976 159.658 190.179 160.005C189.857 159.471 189.657 158.872 189.593 158.252C190.72 157.787 191.962 157.679 193.152 157.945C195.55 158.534 197.653 160.277 198.303 162.055C198.148 163.614 196.009 163.824 195.596 163.848Z" fill="#7EDAFE"/>
<path d="M35.9569 88.8107C36.0122 88.454 36.0071 88.0905 35.9419 87.7355C35.6227 85.8732 33.8618 83.7779 31.6121 82.7488C30.4903 82.2752 29.25 82.1578 28.0593 82.4123C28.0663 82.2361 28.0849 82.0605 28.1149 81.8867C28.1459 81.4985 28.2544 81.1205 28.434 80.775C28.6137 80.4295 28.8608 80.1235 29.1608 79.8752C29.6031 79.5907 30.133 79.4747 30.6538 79.5482L30.8349 78.6711L31.0339 77.739C30.0211 77.5631 28.9795 77.7843 28.1256 78.3566C27.1498 79.0171 26.5268 80.1111 26.2766 81.6032C26.1988 82.0869 26.1792 82.5783 26.2183 83.0667C26.0105 83.1714 25.8083 83.2869 25.6125 83.4127C23.3531 84.86 22.1082 87.486 22.0576 90.8031C22.0157 94.7614 20.161 97.2517 18.4596 97.8743C17.2461 98.3254 16.0083 97.9213 14.9796 96.7405L13.5851 97.9725C13.8398 98.2699 14.1202 98.5443 14.4231 98.7924C15.0542 99.3349 15.8194 99.6978 16.6387 99.8431C17.458 99.9885 18.3014 99.911 19.0805 99.6187C21.9145 98.5712 23.0559 94.2792 23.102 90.0713C23.1407 86.6418 24.8982 84.5698 26.5875 84.9799C27.0389 86.3212 27.771 87.5508 28.7351 88.5869C30.2157 90.1826 31.9586 91.0001 33.5179 90.8708C34.862 90.733 35.7667 89.9703 35.9569 88.8107ZM32.8914 89.0052C31.8039 88.7687 30.8268 88.1751 30.1157 87.319C29.2996 86.4464 28.687 85.4037 28.322 84.2661C29.1668 84.0681 30.052 84.1351 30.8574 84.458C33.0691 85.4524 34.2951 87.5532 34.1355 88.5106C34.1134 88.6564 34.0642 88.9809 33.375 89.0208C33.2359 89.0328 33.0959 89.031 32.9572 89.0152L32.8914 89.0052Z" fill="#263238"/>
<path d="M32.9561 89.0148C33.0948 89.0305 33.2347 89.0324 33.3738 89.0203C34.0573 88.9555 34.1083 88.6505 34.1344 88.5101C34.277 87.5695 33.0665 85.4614 30.8563 84.4575C30.0509 84.1347 29.1656 84.0677 28.3208 84.2656C28.0997 83.6826 28.0104 83.0578 28.0593 82.4361C29.2501 82.1816 30.4903 82.299 31.6121 82.7726C33.8647 83.7829 35.6209 85.8775 35.9419 87.7593C35.5014 89.237 33.3627 89.062 32.9561 89.0148Z" fill="#6A7277"/>
</svg>
