<svg width="32" height="32" viewBox="0 0 32 32" fill="none" xmlns="http://www.w3.org/2000/svg">
<g clip-path="url(#clip0)">
<path d="M26.8002 28.3167V31.4667C26.8002 31.7612 26.5615 32 26.267 32C25.9725 32 25.7337 31.7612 25.7337 31.4667V28.3167C25.7337 25.864 23.749 23.8791 21.2961 23.8792C20.1355 23.8792 19.0825 23.2879 18.4792 22.2975C18.326 22.046 18.4057 21.7179 18.6572 21.5647C18.9087 21.4114 19.2368 21.4912 19.3901 21.7427C19.7981 22.4127 20.5107 22.8127 21.2961 22.8127C24.3381 22.8125 26.8002 25.2743 26.8002 28.3167ZM17.4944 22.9712C17.5571 23.2589 17.3747 23.543 17.0869 23.6058C15.6835 23.9115 14.2561 23.6054 13.1197 22.8297C11.9946 24.0354 10.5083 23.8792 10.7073 23.8792C8.25459 23.8791 6.26965 25.8638 6.26965 28.3167V31.4667C6.26965 31.7612 6.03088 32 5.73639 32C5.44189 32 5.20312 31.7612 5.20312 31.4667V28.3167C5.20312 25.2747 7.66474 22.8127 10.7071 22.8127C11.9378 22.8127 12.9354 21.8211 12.9354 20.5902V20.4497C10.6078 19.3367 8.97403 16.9979 8.87444 14.2743C7.91657 14.044 7.20286 13.1867 7.20286 12.1666V9.40209C7.17373 8.04894 7.37464 4.65985 9.84572 2.27789C12.897 -0.663453 17.7902 -0.476611 21.3883 1.2555C21.739 1.42447 21.7922 1.89828 21.501 2.14365C23.3237 2.58825 24.8955 3.70877 25.9053 5.31243C25.9575 5.39502 26.0529 5.52467 26.028 5.73151C26.0125 5.86022 25.9742 5.96914 25.875 6.0698C25.2251 6.72891 24.8672 7.60233 24.8672 8.52921V12.1667C24.8672 12.4612 24.6284 12.7 24.3339 12.7C24.0395 12.7 23.8007 12.4612 23.8007 12.1667V8.52921C23.8007 7.46021 24.1659 6.44555 24.8367 5.63045C23.8143 4.16825 22.2192 3.22784 20.4151 3.03466L19.4779 2.93427C18.9298 2.87562 18.8223 2.12058 19.3316 1.91094L19.7579 1.73543C14.2062 -0.19998 8.26932 1.95047 8.26932 9.39629V12.1666C8.26932 12.5897 8.51302 12.9575 8.86924 13.1422V9.68512C8.86924 7.62686 10.5438 5.95228 12.6021 5.95228H19.4012C21.4595 5.95228 23.134 7.62672 23.134 9.68492V14.0512C23.134 18.6889 18.6021 22.2115 13.9906 20.8539C13.9606 21.2343 13.8659 21.6015 13.7115 21.9428C14.6086 22.5588 15.7415 22.8073 16.8598 22.5636C17.1476 22.501 17.4317 22.6834 17.4944 22.9712ZM16.0016 20.0766C19.3464 20.0766 22.0675 17.3554 22.0675 14.0107V9.68492C22.0675 8.21485 20.8714 7.01881 19.4012 7.01881H12.6021C11.1319 7.01881 9.93577 8.21491 9.93577 9.68512V14.0107C9.93577 17.3554 12.6569 20.0766 16.0016 20.0766ZM21.4009 29.267H19.8011C19.5066 29.267 19.2679 29.5058 19.2679 29.8003C19.2679 30.0948 19.5066 30.3335 19.8011 30.3335H21.4009C21.6954 30.3335 21.9342 30.0948 21.9342 29.8003C21.9342 29.5058 21.6954 29.267 21.4009 29.267Z" fill="white"/>
</g>
<defs>
<clipPath id="clip0">
<rect width="32" height="32" fill="white"/>
</clipPath>
</defs>
</svg>
