<svg width="74" height="39" viewBox="0 0 74 39" fill="none" xmlns="http://www.w3.org/2000/svg">
<g clip-path="url(#clip0)">
<path d="M0.456627 28.4778L4.56704 35.2151L8.67746 28.4778L9.13408 38.111H7.7642L7.55508 32.486L4.56704 37.6717L1.579 32.486L1.36988 38.111H0L0.456627 28.4778Z" fill="white"/>
<path d="M11 34.8396V28.9282H12.4349V34.8117C12.4349 36.0792 13.179 36.8934 14.3272 36.8934C15.4621 36.8934 16.2195 36.0792 16.2195 34.8117V28.9282H17.6536V34.8373C17.6536 36.9586 16.297 38.3029 14.3264 38.3029C12.344 38.3053 11 36.9609 11 34.8396Z" fill="white"/>
<path d="M19.1167 33.5209C19.1167 30.8315 21.244 28.7365 23.9845 28.7365C26.7109 28.7365 28.8406 30.8322 28.8406 33.5209C28.8406 36.2096 26.7133 38.3053 23.9845 38.3053C21.244 38.3053 19.1167 36.2104 19.1167 33.5209ZM27.4025 33.5209C27.4025 31.5805 25.9144 30.0817 23.9845 30.0817C22.0546 30.0817 20.5524 31.5813 20.5524 33.5209C20.5524 35.4474 22.053 36.961 23.9845 36.961C25.916 36.961 27.4025 35.4482 27.4025 33.5209Z" fill="white"/>
<path d="M31.8257 31.9823V38.1141H30.4033V28.4778L36.5627 35.0466V28.928H37.9725V38.562L31.8257 31.9823Z" fill="white"/>
<path d="M43.4536 33.5206C43.4536 30.8311 45.5801 28.7362 48.3206 28.7362C49.1044 28.7276 49.8776 28.9151 50.5688 29.2815C51.2599 29.6478 51.8466 30.1811 52.2744 30.8319L51.152 31.6205C50.5388 30.7022 49.5339 30.0821 48.3206 30.0821C46.3892 30.0821 44.8885 31.5817 44.8885 33.5213C44.8885 35.4478 46.3892 36.9614 48.3206 36.9614C49.5863 36.9614 50.6429 36.2884 51.2437 35.2802L52.4044 36.03C51.5429 37.4139 50.0947 38.3057 48.3206 38.3057C45.5801 38.305 43.4536 36.21 43.4536 33.5206Z" fill="white"/>
<path d="M59.3217 36.7676V38.112H53.9722V28.9282H55.4055V36.7676H59.3217Z" fill="white"/>
<path d="M60.0771 34.8396V28.9282H61.5152V34.8117C61.5152 36.0792 62.2592 36.8934 63.4075 36.8934C64.5424 36.8934 65.2998 36.0792 65.2998 34.8117V28.9282H66.7346V34.8373C66.7346 36.9586 65.3781 38.3029 63.4075 38.3029C61.4212 38.3053 60.0771 36.9609 60.0771 34.8396Z" fill="white"/>
<path d="M74.0003 35.5902C74.0003 37.0253 72.8912 38.1112 71.1556 38.1112H68.7158V28.9282H71.1947C72.7612 28.9282 73.7395 29.9885 73.7395 31.2816C73.7457 31.7177 73.6229 32.146 73.3863 32.5137C73.1497 32.8815 72.8096 33.1725 72.408 33.3509C73.4003 33.7281 74.0003 34.5555 74.0003 35.5902ZM70.1507 30.1072V32.7843H70.8423C71.7822 32.7843 72.343 32.2277 72.343 31.4523C72.343 30.6769 71.7822 30.1072 70.8423 30.1072H70.1507ZM72.6046 35.4349C72.6046 34.5555 71.978 33.9346 70.9206 33.9346H70.1507V36.9229H70.9206C71.978 36.9229 72.6046 36.3019 72.6046 35.4349Z" fill="white"/>
<path d="M28.2725 4.60125C28.8615 4.65791 29.4473 4.74406 30.03 4.85661C30.0763 4.8636 30.1256 4.87291 30.1726 4.88378C30.5109 4.9513 30.8493 5.02659 31.1869 5.11663C32.3387 4.1154 33.5818 3.22232 34.9002 2.44889C33.3513 1.83993 31.7409 1.39756 30.0966 1.12938C29.488 1.03003 28.8724 0.953967 28.256 0.903515C27.6106 0.850735 26.9645 0.825897 26.3136 0.825897C25.7142 0.825897 25.1184 0.849185 24.5263 0.895756C24.4793 1.48255 24.4565 2.07477 24.4565 2.66855C24.4565 3.31201 24.484 3.95469 24.5349 4.59193C25.1228 4.53605 25.7149 4.50837 26.3112 4.50888C26.9662 4.50615 27.6208 4.53698 28.2725 4.60125Z" fill="url(#paint0_linear)"/>
<path d="M49.4729 0.888645C48.8808 0.842074 48.2845 0.818787 47.684 0.818787C47.0347 0.818787 46.3862 0.847505 45.7432 0.896405C45.1249 0.94815 44.5114 1.02344 43.9026 1.12228C42.2582 1.39005 40.6478 1.83243 39.099 2.44179C38.3862 2.72276 37.6845 3.041 36.9991 3.39028C36.6858 3.55172 36.3725 3.7186 36.071 3.89402C35.0977 4.4512 34.1668 5.07822 33.2858 5.77006C32.7266 6.21015 32.1854 6.67198 31.6684 7.16253C31.3943 7.42126 31.1246 7.68748 30.8594 7.96122C30.3706 8.47427 29.8999 9.00984 29.4574 9.56636C28.851 10.3251 28.2935 11.1209 27.7883 11.9492C27.104 11.9997 26.4537 12.265 25.9317 12.7064C25.4098 13.1479 25.0433 13.7426 24.8854 14.4044C24.7276 15.0662 24.7866 15.7606 25.0538 16.387C25.3211 17.0133 25.7827 17.539 26.3718 17.8878C26.9608 18.2366 27.6467 18.3904 28.3299 18.3268C29.0131 18.2632 29.6581 17.9857 30.1714 17.5343C30.6847 17.083 31.0395 16.4813 31.1845 15.8167C31.3295 15.152 31.257 14.4588 30.9776 13.8377C31.0998 13.6382 31.2243 13.4403 31.3575 13.2455C31.7203 12.6925 32.1136 12.1598 32.5355 11.6496C33.3837 10.6131 34.338 9.6665 35.3833 8.82511C35.9011 8.40902 36.4407 8.02038 36.9999 7.66084C37.5589 8.01994 38.0981 8.40859 38.6149 8.82511C39.6607 9.66596 40.6156 10.612 41.4644 11.6481C41.5176 11.5705 41.5646 11.4866 41.6124 11.4036C42.2476 10.3168 42.76 9.1639 43.1405 7.96587C42.8757 7.69421 42.6118 7.42643 42.3345 7.16718C41.8176 6.67922 41.2785 6.21507 40.7171 5.77471C41.4036 5.51602 42.1041 5.2955 42.8154 5.11418C43.153 5.02647 43.489 4.95118 43.8336 4.88133C43.8806 4.87046 43.9268 4.86115 43.9762 4.85416C44.5566 4.74162 45.1448 4.65546 45.7322 4.5988C45.6735 5.18559 45.5896 5.76307 45.4761 6.33977C45.469 6.38867 45.4596 6.43524 45.4487 6.48104C45.379 6.81945 45.3046 7.15554 45.2137 7.49007C44.7763 9.18483 44.1069 10.8123 43.2243 12.3272C43.041 12.6377 42.8499 12.9482 42.6463 13.2509C42.2827 13.8049 41.8887 14.3387 41.4659 14.8498C40.6181 15.8843 39.6648 16.8293 38.6212 17.6697C38.1024 18.0878 37.5612 18.4778 36.9999 18.8379C36.6965 19.0366 36.3872 19.226 36.0718 19.406C35.1804 19.9178 34.2484 20.3568 33.285 20.7185C34.1662 21.4115 35.0977 22.0393 36.0718 22.5969C36.3765 22.7708 36.6874 22.9392 36.9999 23.1007C37.3132 22.9392 37.6231 22.7713 37.9296 22.5969C38.9037 22.0393 39.8352 21.4115 40.7164 20.7185C41.2777 20.2808 41.8163 19.8174 42.3322 19.3284C42.6094 19.0676 42.8734 18.8014 43.1381 18.5297C43.6295 18.0169 44.0979 17.4821 44.5433 16.9253C45.2408 16.0538 45.8735 15.1331 46.4363 14.1707C46.6133 13.868 46.782 13.5611 46.9423 13.2501C47.2994 12.5717 47.6182 11.8763 47.9041 11.17C48.5182 9.63458 48.9646 8.03844 49.2356 6.40885C49.3359 5.80576 49.4126 5.19568 49.4643 4.58327C49.5168 3.94602 49.5426 3.30335 49.5426 2.65989C49.5426 2.06767 49.5199 1.47544 49.4729 0.888645ZM28.0295 16.271C27.8044 16.271 27.5844 16.2049 27.3973 16.081C27.2101 15.957 27.0643 15.7809 26.9781 15.5748C26.892 15.3687 26.8694 15.142 26.9134 14.9232C26.9573 14.7044 27.0657 14.5035 27.2248 14.3458C27.384 14.188 27.5868 14.0806 27.8075 14.0371C28.0283 13.9936 28.2571 14.0159 28.465 14.1013C28.673 14.1866 28.8507 14.3312 28.9758 14.5167C29.1008 14.7021 29.1676 14.9202 29.1676 15.1432C29.1676 15.4423 29.0477 15.7292 28.8342 15.9407C28.6208 16.1522 28.3314 16.271 28.0295 16.271Z" fill="url(#paint1_linear)"/>
</g>
<defs>
<linearGradient id="paint0_linear" x1="24.4565" y1="0.825897" x2="34.8987" y2="0.950766" gradientUnits="userSpaceOnUse">
<stop stop-color="#36D1DC"/>
<stop offset="1" stop-color="#5B86E5"/>
</linearGradient>
<linearGradient id="paint1_linear" x1="24.7988" y1="0.818787" x2="49.5425" y2="0.875779" gradientUnits="userSpaceOnUse">
<stop stop-color="#36D1DC"/>
<stop offset="1" stop-color="#5B86E5"/>
</linearGradient>
<clipPath id="clip0">
<rect width="74" height="37.745" fill="white" transform="translate(0 0.818848)"/>
</clipPath>
</defs>
</svg>
