<svg width="20" height="20" viewBox="0 0 20 20" fill="none" xmlns="http://www.w3.org/2000/svg">
<path d="M6.66602 10.8333V4.58325C6.66602 4.25173 6.79771 3.93379 7.03213 3.69937C7.26655 3.46495 7.58449 3.33325 7.91602 3.33325C8.24754 3.33325 8.56548 3.46495 8.7999 3.69937C9.03432 3.93379 9.16602 4.25173 9.16602 4.58325V9.99992" stroke="#18191F" stroke-linecap="round" stroke-linejoin="round"/>
<path d="M9.16602 4.58341V2.91675C9.16602 2.7526 9.19835 2.59005 9.26117 2.43839C9.32398 2.28674 9.41606 2.14894 9.53213 2.03286C9.64821 1.91679 9.786 1.82472 9.93766 1.7619C10.0893 1.69908 10.2519 1.66675 10.416 1.66675C10.5802 1.66675 10.7427 1.69908 10.8944 1.7619C11.046 1.82472 11.1838 1.91679 11.2999 2.03286C11.416 2.14894 11.508 2.28674 11.5709 2.43839C11.6337 2.59005 11.666 2.7526 11.666 2.91675V10.0001" stroke="#18191F" stroke-linecap="round" stroke-linejoin="round"/>
<path d="M11.666 4.58325C11.666 4.25173 11.7977 3.93379 12.0321 3.69937C12.2666 3.46495 12.5845 3.33325 12.916 3.33325C13.2475 3.33325 13.5655 3.46495 13.7999 3.69937C14.0343 3.93379 14.166 4.25173 14.166 4.58325V9.99992" stroke="#18191F" stroke-linecap="round" stroke-linejoin="round"/>
<path d="M14.1658 6.25C14.1658 5.91848 14.2975 5.60054 14.532 5.36612C14.7664 5.1317 15.0843 5 15.4158 5C15.7474 5 16.0653 5.1317 16.2997 5.36612C16.5341 5.60054 16.6658 5.91848 16.6658 6.25V13.3333C16.6658 14.6594 16.1391 15.9312 15.2014 16.8689C14.2637 17.8065 12.9919 18.3333 11.6658 18.3333H9.99918H10.1725C9.34446 18.3335 8.52933 18.128 7.80033 17.7352C7.07133 17.3425 6.45127 16.7749 5.99584 16.0833C5.94118 16.0001 5.88674 15.9168 5.83251 15.8333C5.57251 15.4342 4.66001 13.8433 3.09418 11.06C2.93455 10.7763 2.89191 10.4415 2.97533 10.1268C3.05874 9.81212 3.26163 9.5424 3.54084 9.375C3.83824 9.19655 4.18674 9.1226 4.53098 9.16487C4.87522 9.20715 5.19546 9.36323 5.44084 9.60833L6.66584 10.8333" stroke="#18191F" stroke-linecap="round" stroke-linejoin="round"/>
</svg>
