<svg width="72" height="72" viewBox="0 0 72 72" fill="none" xmlns="http://www.w3.org/2000/svg">
<rect width="72" height="72" rx="36" fill="url(#paint0_linear)"/>
<g clip-path="url(#clip0)">
<path d="M48 32C52.4115 32 56 28.4115 56 24C56 19.5885 52.4115 16 48 16C44.7966 16 42.0345 17.8968 40.7581 20.6227L38.6159 19.832C38.6413 19.668 38.6667 19.5039 38.6667 19.3333C38.6667 17.4954 37.1712 16 35.3333 16C33.4954 16 32 17.4954 32 19.3333C32 21.1712 33.4954 22.6667 35.3333 22.6667C36.5273 22.6667 37.5687 22.0299 38.1572 21.084L40.2959 21.8734C40.1081 22.5521 40 23.2627 40 24C40 24.8734 40.1452 25.7119 40.4053 26.4993L33.0732 29.6068C31.7308 27.0687 29.0661 25.3333 26 25.3333C25.0065 25.3333 24.0586 25.5241 23.18 25.8561L21.3359 21.9808C22.1393 21.3714 22.6667 20.4167 22.6667 19.3333C22.6667 17.4954 21.1712 16 19.3333 16C17.4954 16 16 17.4954 16 19.3333C16 21.1712 17.4954 22.6667 19.3333 22.6667C19.6107 22.6667 19.8766 22.6227 20.1348 22.5579L21.9766 26.4294C19.6025 27.8187 18 30.3893 18 33.3333C18 36.0986 19.4108 38.5394 21.5495 39.9766L20.3301 42.1686C20.0127 42.0687 19.6826 42 19.3333 42C17.4954 42 16 43.4954 16 45.3333C16 47.1712 17.4954 48.6667 19.3333 48.6667C21.1712 48.6667 22.6667 47.1712 22.6667 45.3333C22.6667 44.3239 22.2061 43.4287 21.4954 42.8174L22.7174 40.6208C23.7201 41.0745 24.8294 41.3333 26 41.3333C27.8294 41.3333 29.512 40.7093 30.8613 39.6719L33.4854 42.5586C32.1546 43.988 31.3333 45.8975 31.3333 48C31.3333 48.4079 31.374 48.8053 31.4326 49.1966L28.3454 49.9294C27.8141 48.7933 26.668 48 25.3333 48C23.4954 48 22 49.4954 22 51.3333C22 53.1712 23.4954 54.6667 25.3333 54.6667C27.1712 54.6667 28.6667 53.1712 28.6667 51.3333C28.6667 51.2966 28.6566 51.262 28.6559 51.2253L31.7373 50.4948C32.7881 53.6872 35.7933 56 39.3333 56C43.7448 56 47.3333 52.4115 47.3333 48C47.3333 46.6322 46.9873 45.3441 46.3792 44.2174L50.2952 41.6712C50.9007 42.2845 51.7393 42.6667 52.6667 42.6667C54.5046 42.6667 56 41.1712 56 39.3333C56 37.4954 54.5046 36 52.6667 36C50.8288 36 49.3333 37.4954 49.3333 39.3333C49.3333 39.764 49.4219 40.1732 49.5713 40.5514L45.6462 43.1032C44.8607 42.0934 43.8408 41.278 42.6667 40.7367L45.9206 31.7161C46.5846 31.8952 47.2799 32 48 32ZM35.3333 21.3333C34.2308 21.3333 33.3333 20.4359 33.3333 19.3333C33.3333 18.2308 34.2308 17.3333 35.3333 17.3333C36.4359 17.3333 37.3333 18.2308 37.3333 19.3333C37.3333 20.4359 36.4359 21.3333 35.3333 21.3333ZM17.3333 19.3333C17.3333 18.2308 18.2308 17.3333 19.3333 17.3333C20.4359 17.3333 21.3333 18.2308 21.3333 19.3333C21.3333 20.4359 20.4359 21.3333 19.3333 21.3333C18.2308 21.3333 17.3333 20.4359 17.3333 19.3333ZM19.3333 47.3333C18.2308 47.3333 17.3333 46.4359 17.3333 45.3333C17.3333 44.2308 18.2308 43.3333 19.3333 43.3333C20.4359 43.3333 21.3333 44.2308 21.3333 45.3333C21.3333 46.4359 20.4359 47.3333 19.3333 47.3333ZM25.3333 53.3333C24.2308 53.3333 23.3333 52.4359 23.3333 51.3333C23.3333 50.2308 24.2308 49.3333 25.3333 49.3333C26.4359 49.3333 27.3333 50.2308 27.3333 51.3333C27.3333 52.4359 26.4359 53.3333 25.3333 53.3333ZM52.6667 37.3333C53.7692 37.3333 54.6667 38.2308 54.6667 39.3333C54.6667 40.4359 53.7692 41.3333 52.6667 41.3333C51.5641 41.3333 50.6667 40.4359 50.6667 39.3333C50.6667 38.2308 51.5641 37.3333 52.6667 37.3333ZM44.0739 29.376C44.3714 27.834 45.7308 26.6667 47.3333 26.6667H48.6667C50.2692 26.6667 51.6286 27.834 51.9261 29.376C50.8232 30.1833 49.4688 30.6667 48 30.6667C46.5312 30.6667 45.1768 30.1833 44.0739 29.376ZM48 25.3333C46.8975 25.3333 46 24.4359 46 23.3333C46 22.2308 46.8975 21.3333 48 21.3333C49.1025 21.3333 50 22.2308 50 23.3333C50 24.4359 49.1025 25.3333 48 25.3333ZM48 17.3333C51.6761 17.3333 54.6667 20.3239 54.6667 24C54.6667 25.6667 54.0472 27.1895 53.0319 28.3594C52.5648 27.1292 51.5908 26.1475 50.3773 25.6628C50.9674 25.0612 51.3333 24.2399 51.3333 23.3333C51.3333 21.4954 49.8379 20 48 20C46.1621 20 44.6667 21.4954 44.6667 23.3333C44.6667 24.2399 45.0326 25.0612 45.6227 25.6628C44.4092 26.1475 43.4352 27.1292 42.9681 28.3594C41.9528 27.1895 41.3333 25.6667 41.3333 24C41.3333 20.3239 44.3239 17.3333 48 17.3333ZM19.3333 33.3333C19.3333 29.6572 22.3239 26.6667 26 26.6667C29.6761 26.6667 32.6667 29.6572 32.6667 33.3333C32.6667 35.0052 32.0433 36.5319 31.0228 37.7035C30.5573 36.4688 29.5814 35.4821 28.3646 34.9961C28.9541 34.3945 29.32 33.5732 29.32 32.6667C29.32 30.8288 27.8245 29.3333 25.9867 29.3333C24.1488 29.3333 22.6533 30.8288 22.6533 32.6667C22.6533 33.5732 23.0192 34.3945 23.6094 34.9961C22.3994 35.4785 21.4268 36.4567 20.958 37.682C19.9486 36.5133 19.3333 34.9954 19.3333 33.3333ZM23.9867 32.6667C23.9867 31.5641 24.8841 30.6667 25.9867 30.6667C27.0892 30.6667 27.9867 31.5641 27.9867 32.6667C27.9867 33.7692 27.0892 34.6667 25.9867 34.6667C24.8841 34.6667 23.9867 33.7692 23.9867 32.6667ZM22.0628 38.7005C22.3633 37.1628 23.7207 36 25.32 36H26.6533C28.2588 36 29.6208 37.1712 29.9141 38.7181C28.8135 39.5205 27.4632 40 26 40C24.526 40 23.1673 39.5133 22.0628 38.7005ZM35.3962 53.3672C35.6966 51.8294 37.054 50.6667 38.6533 50.6667H39.9867C41.5921 50.6667 42.9541 51.8379 43.2474 53.3848C42.1468 54.1872 40.7966 54.6667 39.3333 54.6667C37.8594 54.6667 36.5007 54.18 35.3962 53.3672ZM39.32 49.3333C38.2174 49.3333 37.32 48.4359 37.32 47.3333C37.32 46.2308 38.2174 45.3333 39.32 45.3333C40.4225 45.3333 41.32 46.2308 41.32 47.3333C41.32 48.4359 40.4225 49.3333 39.32 49.3333ZM46 48C46 49.6719 45.3766 51.1986 44.3561 52.3701C43.8906 51.1354 42.9147 50.1488 41.6979 49.6628C42.2874 49.0612 42.6533 48.2399 42.6533 47.3333C42.6533 45.4954 41.1579 44 39.32 44C37.4821 44 35.9867 45.4954 35.9867 47.3333C35.9867 48.2399 36.3525 49.0612 36.9427 49.6628C35.7327 50.1452 34.7601 51.1234 34.2913 52.3486C33.2819 51.18 32.6667 49.6621 32.6667 48C32.6667 44.3239 35.6572 41.3333 39.3333 41.3333C43.0094 41.3333 46 44.3239 46 48ZM41.4128 40.2839C40.7487 40.1048 40.0534 40 39.3333 40C37.5039 40 35.8213 40.624 34.472 41.6615L31.848 38.7747C33.1787 37.3454 34 35.4359 34 33.3333C34 32.46 33.8548 31.6214 33.5947 30.834L40.9268 27.7266C41.748 29.2793 43.0661 30.5254 44.6673 31.2633L41.4128 40.2839Z" fill="white"/>
</g>
<defs>
<linearGradient id="paint0_linear" x1="0" y1="0" x2="71.9996" y2="0.169583" gradientUnits="userSpaceOnUse">
<stop stop-color="#36D1DC"/>
<stop offset="1" stop-color="#5B86E5"/>
</linearGradient>
<clipPath id="clip0">
<rect width="40" height="40" fill="white" transform="translate(16 16)"/>
</clipPath>
</defs>
</svg>
