<svg width="48" height="48" viewBox="0 0 48 48" fill="none" xmlns="http://www.w3.org/2000/svg">
<rect width="48" height="48" rx="24" fill="url(#paint0_linear)"/>
<g clip-path="url(#clip0)">
<path d="M31 22C33.7572 22 36 19.7572 36 17C36 14.2428 33.7572 12 31 12C28.9978 12 27.2716 13.1855 26.4738 14.8892L25.1349 14.395C25.1508 14.2925 25.1667 14.1899 25.1667 14.0833C25.1667 12.9347 24.232 12 23.0833 12C21.9347 12 21 12.9347 21 14.0833C21 15.232 21.9347 16.1667 23.0833 16.1667C23.8296 16.1667 24.4804 15.7687 24.8483 15.1775L26.1849 15.6709C26.0675 16.0951 26 16.5392 26 17C26 17.5459 26.0907 18.0699 26.2533 18.5621L21.6708 20.5042C20.8317 18.9179 19.1663 17.8333 17.25 17.8333C16.6291 17.8333 16.0366 17.9526 15.4875 18.1601L14.335 15.738C14.8371 15.3571 15.1667 14.7604 15.1667 14.0833C15.1667 12.9347 14.232 12 13.0833 12C11.9347 12 11 12.9347 11 14.0833C11 15.232 11.9347 16.1667 13.0833 16.1667C13.2567 16.1667 13.4229 16.1392 13.5842 16.0987L14.7354 18.5184C13.2516 19.3867 12.25 20.9933 12.25 22.8333C12.25 24.5616 13.1318 26.0871 14.4684 26.9854L13.7063 28.3554C13.5079 28.2929 13.3016 28.25 13.0833 28.25C11.9347 28.25 11 29.1847 11 30.3333C11 31.482 11.9347 32.4167 13.0833 32.4167C14.232 32.4167 15.1667 31.482 15.1667 30.3333C15.1667 29.7024 14.8788 29.1429 14.4347 28.7609L15.1984 27.388C15.825 27.6716 16.5184 27.8333 17.25 27.8333C18.3934 27.8333 19.445 27.4433 20.2883 26.7949L21.9283 28.5991C21.0966 29.4925 20.5833 30.6859 20.5833 32C20.5833 32.2549 20.6088 32.5033 20.6454 32.7479L18.7159 33.2059C18.3838 32.4958 17.6675 32 16.8333 32C15.6847 32 14.75 32.9347 14.75 34.0833C14.75 35.232 15.6847 36.1667 16.8333 36.1667C17.982 36.1667 18.9167 35.232 18.9167 34.0833C18.9167 34.0603 18.9104 34.0388 18.91 34.0158L20.8358 33.5592C21.4926 35.5545 23.3708 37 25.5833 37C28.3405 37 30.5833 34.7572 30.5833 32C30.5833 31.1451 30.3671 30.34 29.987 29.6359L32.4345 28.0445C32.8129 28.4278 33.337 28.6667 33.9167 28.6667C35.0653 28.6667 36 27.732 36 26.5833C36 25.4347 35.0653 24.5 33.9167 24.5C32.768 24.5 31.8333 25.4347 31.8333 26.5833C31.8333 26.8525 31.8887 27.1082 31.9821 27.3446L29.5288 28.9395C29.0379 28.3084 28.4005 27.7987 27.6667 27.4604L29.7004 21.8226C30.1154 21.9345 30.55 22 31 22ZM23.0833 15.3333C22.3942 15.3333 21.8333 14.7724 21.8333 14.0833C21.8333 13.3942 22.3942 12.8333 23.0833 12.8333C23.7724 12.8333 24.3333 13.3942 24.3333 14.0833C24.3333 14.7724 23.7724 15.3333 23.0833 15.3333ZM11.8333 14.0833C11.8333 13.3942 12.3942 12.8333 13.0833 12.8333C13.7724 12.8333 14.3333 13.3942 14.3333 14.0833C14.3333 14.7724 13.7724 15.3333 13.0833 15.3333C12.3942 15.3333 11.8333 14.7724 11.8333 14.0833ZM13.0833 31.5833C12.3942 31.5833 11.8333 31.0224 11.8333 30.3333C11.8333 29.6442 12.3942 29.0833 13.0833 29.0833C13.7724 29.0833 14.3333 29.6442 14.3333 30.3333C14.3333 31.0224 13.7724 31.5833 13.0833 31.5833ZM16.8333 35.3333C16.1442 35.3333 15.5833 34.7724 15.5833 34.0833C15.5833 33.3942 16.1442 32.8333 16.8333 32.8333C17.5224 32.8333 18.0833 33.3942 18.0833 34.0833C18.0833 34.7724 17.5224 35.3333 16.8333 35.3333ZM33.9167 25.3333C34.6058 25.3333 35.1667 25.8942 35.1667 26.5833C35.1667 27.2724 34.6058 27.8333 33.9167 27.8333C33.2276 27.8333 32.6667 27.2724 32.6667 26.5833C32.6667 25.8942 33.2276 25.3333 33.9167 25.3333ZM28.5462 20.36C28.7321 19.3962 29.5817 18.6667 30.5833 18.6667H31.4167C32.4183 18.6667 33.2679 19.3962 33.4538 20.36C32.7645 20.8645 31.918 21.1667 31 21.1667C30.082 21.1667 29.2355 20.8645 28.5462 20.36ZM31 17.8333C30.3109 17.8333 29.75 17.2724 29.75 16.5833C29.75 15.8942 30.3109 15.3333 31 15.3333C31.6891 15.3333 32.25 15.8942 32.25 16.5833C32.25 17.2724 31.6891 17.8333 31 17.8333ZM31 12.8333C33.2976 12.8333 35.1667 14.7024 35.1667 17C35.1667 18.0417 34.7795 18.9934 34.1449 19.7246C33.853 18.9558 33.2443 18.3422 32.4858 18.0392C32.8547 17.6632 33.0833 17.1499 33.0833 16.5833C33.0833 15.4347 32.1487 14.5 31 14.5C29.8513 14.5 28.9167 15.4347 28.9167 16.5833C28.9167 17.1499 29.1453 17.6632 29.5142 18.0392C28.7557 18.3422 28.147 18.9558 27.8551 19.7246C27.2205 18.9934 26.8333 18.0417 26.8333 17C26.8333 14.7024 28.7024 12.8333 31 12.8333ZM13.0833 22.8333C13.0833 20.5358 14.9524 18.6667 17.25 18.6667C19.5476 18.6667 21.4167 20.5358 21.4167 22.8333C21.4167 23.8783 21.0271 24.8324 20.3892 25.5647C20.0983 24.793 19.4884 24.1763 18.7279 23.8726C19.0963 23.4966 19.325 22.9833 19.325 22.4167C19.325 21.268 18.3903 20.3333 17.2417 20.3333C16.093 20.3333 15.1583 21.268 15.1583 22.4167C15.1583 22.9833 15.387 23.4966 15.7559 23.8726C14.9996 24.1741 14.3917 24.7854 14.0988 25.5512C13.4679 24.8208 13.0833 23.8722 13.0833 22.8333ZM15.9917 22.4167C15.9917 21.7276 16.5526 21.1667 17.2417 21.1667C17.9307 21.1667 18.4917 21.7276 18.4917 22.4167C18.4917 23.1058 17.9307 23.6667 17.2417 23.6667C16.5526 23.6667 15.9917 23.1058 15.9917 22.4167ZM14.7893 26.1878C14.9771 25.2267 15.8254 24.5 16.825 24.5H17.6583C18.6617 24.5 19.513 25.232 19.6963 26.1988C19.0084 26.7003 18.1645 27 17.25 27C16.3288 27 15.4796 26.6958 14.7893 26.1878ZM23.1226 35.3545C23.3104 34.3934 24.1588 33.6667 25.1583 33.6667H25.9917C26.9951 33.6667 27.8463 34.3987 28.0296 35.3655C27.3418 35.867 26.4978 36.1667 25.5833 36.1667C24.6621 36.1667 23.8129 35.8625 23.1226 35.3545ZM25.575 32.8333C24.8859 32.8333 24.325 32.2724 24.325 31.5833C24.325 30.8942 24.8859 30.3333 25.575 30.3333C26.2641 30.3333 26.825 30.8942 26.825 31.5833C26.825 32.2724 26.2641 32.8333 25.575 32.8333ZM29.75 32C29.75 33.0449 29.3604 33.9991 28.7226 34.7313C28.4316 33.9596 27.8217 33.343 27.0612 33.0392C27.4296 32.6632 27.6583 32.1499 27.6583 31.5833C27.6583 30.4347 26.7237 29.5 25.575 29.5C24.4263 29.5 23.4917 30.4347 23.4917 31.5833C23.4917 32.1499 23.7203 32.6632 24.0892 33.0392C23.333 33.3407 22.7251 33.9521 22.4321 34.7179C21.8012 33.9875 21.4167 33.0388 21.4167 32C21.4167 29.7024 23.2858 27.8333 25.5833 27.8333C27.8809 27.8333 29.75 29.7024 29.75 32ZM26.883 27.1774C26.4679 27.0655 26.0334 27 25.5833 27C24.4399 27 23.3883 27.39 22.545 28.0384L20.905 26.2342C21.7367 25.3409 22.25 24.1474 22.25 22.8333C22.25 22.2875 22.1593 21.7634 21.9967 21.2712L26.5792 19.3291C27.0925 20.2996 27.9163 21.0784 28.9171 21.5396L26.883 27.1774Z" fill="white"/>
</g>
<defs>
<linearGradient id="paint0_linear" x1="0" y1="0" x2="47.9997" y2="0.113056" gradientUnits="userSpaceOnUse">
<stop stop-color="#36D1DC"/>
<stop offset="1" stop-color="#5B86E5"/>
</linearGradient>
<clipPath id="clip0">
<rect width="25" height="25" fill="white" transform="translate(11 12)"/>
</clipPath>
</defs>
</svg>
