<svg width="257" height="198" viewBox="0 0 257 198" fill="none" xmlns="http://www.w3.org/2000/svg">
<path opacity="0.45" d="M118.303 198C166.669 198 205.878 193.819 205.878 188.662C205.878 183.505 166.669 179.324 118.303 179.324C69.937 179.324 30.7285 183.505 30.7285 188.662C30.7285 193.819 69.937 198 118.303 198Z" fill="#E6E6E6"/>
<path d="M228.924 55.9172C236.871 55.9172 243.314 49.4744 243.314 41.5267C243.314 33.5791 236.871 27.1362 228.924 27.1362C220.976 27.1362 214.533 33.5791 214.533 41.5267C214.533 49.4744 220.976 55.9172 228.924 55.9172Z" fill="#FFD200"/>
<path opacity="0.15" d="M228.924 68.9579C244.073 68.9579 256.355 56.6765 256.355 41.5266C256.355 26.3766 244.073 14.0952 228.924 14.0952C213.774 14.0952 201.492 26.3766 201.492 41.5266C201.492 56.6765 213.774 68.9579 228.924 68.9579Z" fill="#FFD200"/>
<path opacity="0.37" d="M62.0153 69.2531C62.0153 66.9868 61.115 64.8134 59.5125 63.2109C57.9101 61.6085 55.7366 60.7082 53.4704 60.7082C53.01 60.7102 52.5504 60.7468 52.0954 60.8179C51.113 58.9872 49.6532 57.4568 47.871 56.3889C46.0888 55.3211 44.0508 54.7558 41.9732 54.7529H41.5599C41.8305 53.6686 41.9693 52.5555 41.9732 51.4379C42.0185 49.6142 41.6984 47.8 41.0318 46.1019C40.3653 44.4038 39.3656 42.8563 38.0918 41.5505C36.8181 40.2447 35.2958 39.2069 33.6149 38.4984C31.9339 37.7898 30.1281 37.4248 28.3039 37.4248C26.4797 37.4248 24.6739 37.7898 22.9929 38.4984C21.3119 39.2069 19.7897 40.2447 18.5159 41.5505C17.2422 42.8563 16.2425 44.4038 15.5759 46.1019C14.9094 47.8 14.5893 49.6142 14.6346 51.4379C14.6373 52.5561 14.779 53.6697 15.0564 54.7529C14.913 54.7529 14.778 54.7529 14.6346 54.7529C11.6337 54.8342 8.78302 56.0833 6.68921 58.2346C4.59541 60.3858 3.42383 63.2693 3.42383 66.2712C3.42383 69.2732 4.59541 72.1567 6.68921 74.3079C8.78302 76.4592 11.6337 77.7083 14.6346 77.7895H54.626V77.6883C56.6685 77.4113 58.5418 76.4047 59.9 74.8542C61.2582 73.3038 62.0095 71.3143 62.0153 69.2531Z" fill="#E6E6E6"/>
<path d="M115.183 167.017C156.473 167.017 189.945 133.546 189.945 92.256C189.945 50.9664 156.473 17.4946 115.183 17.4946C73.8937 17.4946 40.4219 50.9664 40.4219 92.256C40.4219 133.546 73.8937 167.017 115.183 167.017Z" fill="#EFEFEF"/>
<path d="M59.9336 43.3149C59.9336 43.3149 60.5831 54.1035 67.9892 50.9066C75.3954 47.7096 85.3658 44.1584 84.2861 56.0268C83.2064 67.8951 89.1364 69.5231 97.4957 66.5455C105.855 63.5678 101.806 62.7665 102.346 51.9863C102.886 41.2061 88.8495 40.6662 91.0258 33.1167C93.2021 25.5672 110.022 34.5675 104.168 18.3382C104.168 18.296 74.6699 20.7338 59.9336 43.3149Z" fill="#CECECE"/>
<path d="M122.158 71.4127C120.591 71.415 119.043 71.7544 117.619 72.4081C114.667 73.8167 111.107 77.2161 113.123 85.3308C116.363 98.3126 121.753 88.6627 128.762 90.2486C135.772 91.8344 151.681 93.4624 143.861 107.743C136.042 122.024 144.941 125.002 152.482 121.493C160.023 117.984 154.911 103.973 162.731 110.173C170.55 116.372 161.567 135.917 180.614 128.435C180.614 128.435 202.545 95.2422 180.614 56.069C180.614 56.069 170.677 37.056 162.857 43.7958C155.038 50.5355 165.801 50.9151 166.881 58.6502C167.961 66.3853 163.44 75.8328 157.155 67.1445C150.871 58.4562 153.022 59.2238 143.052 58.1441C135.08 57.3006 129.555 58.2369 129.395 65.0019C129.36 66.6949 128.67 68.3082 127.469 69.5024C126.269 70.6966 124.652 71.3784 122.959 71.4043L122.158 71.4127Z" fill="#CECECE"/>
<path d="M120.193 29.2956C120.193 29.2956 112.433 27.1446 112.534 36.5752C112.635 46.0058 117.764 45.4659 123.424 43.045C129.084 40.6241 124.268 48.4351 135.014 46.2841C145.761 44.1332 146.612 41.5942 144.183 37.8489C141.754 34.1037 137.713 19.865 120.193 29.2956Z" fill="#CECECE"/>
<path d="M40.4124 92.2561C40.4124 92.2561 49.5394 77.3426 59.5014 87.4227C69.4634 97.5028 49.8599 95.8579 59.9316 105.592C70.0032 115.326 76.996 92.7453 82.7067 101.324C88.4173 109.903 99.4675 115.731 86.4603 123.256C73.4532 130.78 81.2305 141.282 87.2279 139.063C93.2254 136.845 103.871 152.02 87.2279 161.408C87.1858 161.433 38.3289 143.61 40.4124 92.2561Z" fill="#CECECE"/>
<path d="M118.581 109.363C118.581 109.363 108.34 109.363 108.307 119.072C108.273 128.781 127.438 119.595 122.976 130.113C118.513 140.632 128.998 143.466 134.785 139.089C140.571 134.711 130.567 121.518 131.537 112.206C132.507 102.893 119.72 105.052 118.581 109.363Z" fill="#CECECE"/>
<path d="M115.182 167.018C115.182 167.018 108.611 160.042 122.951 158.431C137.291 156.819 137.679 149.262 142.352 146.022C147.025 142.783 156.979 154.213 156.979 154.213C156.979 154.213 138.582 170.754 115.182 167.018Z" fill="#CECECE"/>
<path opacity="0.08" d="M170.794 111.075C170.794 111.075 157.298 113.893 161.111 127.102C161.111 127.102 148.34 134.643 152.675 144.428C152.675 144.428 154.489 150.265 163.489 149.295C163.489 149.295 167.285 145.921 167.935 145.213C168.584 144.504 170.794 111.075 170.794 111.075Z" fill="black"/>
<path d="M208.196 137.478C208.197 136.461 207.998 135.455 207.609 134.516C207.221 133.577 206.651 132.724 205.933 132.006C205.214 131.287 204.361 130.717 203.422 130.329C202.483 129.941 201.477 129.741 200.461 129.742C200.045 129.745 199.63 129.781 199.221 129.852C198.33 128.191 197.005 126.804 195.387 125.837C193.769 124.87 191.92 124.36 190.035 124.361H189.647C189.901 123.38 190.031 122.371 190.035 121.358C189.951 118.131 188.609 115.064 186.297 112.811C183.985 110.559 180.884 109.298 177.656 109.298C174.428 109.298 171.327 110.559 169.015 112.811C166.703 115.064 165.362 118.131 165.277 121.358C165.278 122.371 165.406 123.38 165.657 124.361H165.277C162.512 124.361 159.86 125.459 157.905 127.414C155.95 129.37 154.852 132.022 154.852 134.787C154.852 137.552 155.95 140.204 157.905 142.159C159.86 144.114 162.512 145.213 165.277 145.213H201.465V145.17C203.33 144.925 205.041 144.008 206.28 142.593C207.519 141.177 208.2 139.359 208.196 137.478Z" fill="#F7F7F7"/>
<path d="M67.9795 120.725H0V159.637H67.9795V120.725Z" fill="#24285B"/>
<path d="M26.9334 135.115C26.9313 133.856 26.6385 132.615 26.0777 131.488C25.5169 130.361 24.7033 129.378 23.7004 128.617C22.6975 127.856 21.5324 127.337 20.2959 127.101C19.0594 126.864 17.785 126.916 16.572 127.253C15.359 127.59 14.2403 128.203 13.303 129.043C12.3657 129.884 11.6352 130.929 11.1684 132.098C10.7017 133.268 10.5113 134.529 10.6122 135.784C10.7131 137.039 11.1025 138.253 11.75 139.333L18.7259 150.763L25.6681 139.384C26.4787 138.106 26.9169 136.628 26.9334 135.115ZM18.7597 139.451C17.9689 139.451 17.1958 139.216 16.5383 138.777C15.8808 138.338 15.3683 137.713 15.0657 136.983C14.7631 136.252 14.6839 135.448 14.8382 134.673C14.9925 133.897 15.3733 133.185 15.9324 132.625C16.4916 132.066 17.204 131.685 17.9796 131.531C18.7552 131.377 19.5591 131.456 20.2897 131.759C21.0203 132.061 21.6448 132.574 22.0841 133.231C22.5235 133.889 22.758 134.662 22.758 135.453C22.758 136.513 22.3367 137.53 21.5869 138.28C20.8371 139.03 19.8201 139.451 18.7597 139.451Z" fill="#FFD200"/>
<path d="M58.9275 131.463H34.2207V137.064H58.9275V131.463Z" fill="white"/>
<path d="M88.6465 21.0034L115.184 109L170.561 57.2749L88.6465 21.0034Z" stroke="#24285B" stroke-width="1.68704" stroke-linecap="round" stroke-linejoin="round" stroke-dasharray="1.69 8.44"/>
<path opacity="0.19" d="M58.9275 141.627H34.2207V147.228H58.9275V141.627Z" fill="white"/>
<path d="M88.8806 38.937C99.6328 38.937 108.349 30.2207 108.349 19.4685C108.349 8.71634 99.6328 0 88.8806 0C78.1285 0 69.4121 8.71634 69.4121 19.4685C69.4121 30.2207 78.1285 38.937 88.8806 38.937Z" fill="#24285B"/>
<path d="M91.4717 10.5355C91.7841 12.0495 91.8919 13.5985 91.7922 15.1411C91.7419 15.5075 91.5487 15.8391 91.2547 16.0635C90.9608 16.2879 90.59 16.3869 90.2233 16.3389C89.6255 16.3037 89.0512 16.0939 88.5714 15.7355C88.0917 15.3772 87.7275 14.8861 87.524 14.3229L86.4106 12.0032C86.2422 11.5166 86.2263 10.9903 86.365 10.4944C86.5036 9.99853 86.7903 9.55675 87.1866 9.22805C88.6459 7.92903 91.2186 8.8569 91.4717 10.5355Z" fill="#F4A28C"/>
<path d="M86.6459 12.425L86.2832 21.5267L91.3106 21.3664L89.5561 14.8122L86.6459 12.425Z" fill="#F4A28C"/>
<path d="M90.805 10.7298C89.9685 10.8632 89.1194 10.9 88.2744 10.8395C88.5672 11.1854 88.7514 11.6101 88.8039 12.0602C88.8564 12.5104 88.7749 12.966 88.5697 13.37C88.3803 13.7647 88.0598 14.0815 87.6629 14.2661C87.266 14.4507 86.8172 14.4918 86.3934 14.3823L86.0222 10.8395C85.9505 10.3328 86.0168 9.8161 86.2143 9.34398C86.4117 8.87186 86.733 8.46179 87.1441 8.15707C87.5027 7.89484 87.8774 7.65537 88.266 7.44007C89.2361 6.90865 90.7966 7.44007 91.6401 6.59655C91.7248 6.51674 91.8287 6.46018 91.9417 6.43238C92.0547 6.40458 92.173 6.40648 92.285 6.43789C92.3971 6.4693 92.4991 6.52915 92.5812 6.61164C92.6633 6.69413 92.7227 6.79645 92.7535 6.90865C93.0403 7.97149 93.0488 9.69228 91.657 10.4514C91.3918 10.5942 91.1033 10.6885 90.805 10.7298Z" fill="#FFD200"/>
<path d="M88.8238 13.2436C88.8238 13.2436 88.6804 12.1892 87.8874 12.3579C87.0945 12.5266 87.3054 14.0449 88.402 14.0871L88.8238 13.2436Z" fill="#F4A28C"/>
<path d="M91.7411 12.2646L92.6352 13.2431C92.6853 13.2985 92.7208 13.3655 92.7383 13.4381C92.7559 13.5107 92.7549 13.5865 92.7356 13.6587C92.7164 13.7308 92.6793 13.7969 92.6279 13.8511C92.5764 13.9052 92.5123 13.9456 92.4412 13.9686L91.4121 14.2891L91.7411 12.2646Z" fill="#F4A28C"/>
<path opacity="0.31" d="M90.0046 16.2292C89.364 16.1477 88.7621 15.8776 88.2754 15.4531C88.6152 16.7296 89.43 17.828 90.5529 18.5235L90.0046 16.2292Z" fill="#CE8172"/>
<path d="M75.7643 33.8253C75.7643 33.8253 75.4606 21.6026 88.6449 20.97C101.829 20.3373 101.475 34.3651 101.475 34.3651C101.475 34.3651 89.0413 45.7274 75.7643 33.8253Z" fill="#68E1FD"/>
<path d="M116.312 124.968C127.064 124.968 135.781 116.252 135.781 105.5C135.781 94.7474 127.064 86.031 116.312 86.031C105.56 86.031 96.8438 94.7474 96.8438 105.5C96.8438 116.252 105.56 124.968 116.312 124.968Z" fill="#24285B"/>
<path d="M118.903 96.5665C119.215 98.0805 119.323 99.6295 119.223 101.172C119.173 101.539 118.98 101.87 118.686 102.095C118.392 102.319 118.021 102.418 117.654 102.37C117.063 102.328 116.496 102.116 116.022 101.758C115.549 101.4 115.19 100.912 114.989 100.354L113.875 98.0342C113.707 97.5476 113.691 97.0213 113.83 96.5254C113.968 96.0295 114.255 95.5878 114.651 95.2591C116.077 93.96 118.65 94.8879 118.903 96.5665Z" fill="#F4A28C"/>
<path d="M114.078 98.4561L113.715 107.558L118.742 107.397L116.988 100.843L114.078 98.4561Z" fill="#F4A28C"/>
<path d="M119.173 98.2957L120.067 99.2741C120.119 99.3286 120.157 99.3956 120.176 99.4687C120.194 99.5419 120.194 99.6186 120.175 99.6916C120.155 99.7646 120.117 99.8312 120.064 99.8852C120.011 99.9392 119.945 99.9786 119.873 99.9996L118.844 100.32L119.173 98.2957Z" fill="#F4A28C"/>
<path opacity="0.31" d="M117.434 102.26C116.794 102.179 116.192 101.909 115.705 101.484C116.045 102.761 116.86 103.859 117.983 104.555L117.434 102.26Z" fill="#CE8172"/>
<path d="M103.196 119.865C103.196 119.865 102.892 107.642 116.076 107.009C129.261 106.377 128.906 120.404 128.906 120.404C128.906 120.404 116.473 131.758 103.196 119.865Z" fill="#68E1FD"/>
<path d="M113.959 101.349L112.44 98.5152C112.44 98.5152 109.91 98.7935 109.808 96.9293C109.707 95.0652 111.706 95.5207 111.706 94.2891C111.706 93.0576 111.453 91.2018 113.393 91.2356C115.333 91.2693 115.924 92.8804 116.767 91.8429C116.957 91.6305 117.206 91.4807 117.482 91.4134C117.758 91.3461 118.048 91.3645 118.314 91.4661C118.58 91.5677 118.808 91.7478 118.969 91.9824C119.129 92.2169 119.215 92.4949 119.214 92.7792C119.323 94.0445 120.648 93.6227 120.108 95.4532C119.568 97.2836 116.734 96.2967 116.734 96.2967C116.734 96.2967 114.203 96.2967 114.507 97.4186C114.81 98.5405 116.919 100.894 113.959 101.349Z" fill="#FFD200"/>
<path d="M115.783 98.9959C115.783 98.9959 115.336 98.0259 114.627 98.4223C113.919 98.8188 114.577 100.236 115.631 99.9238L115.783 98.9959Z" fill="#F4A28C"/>
<path d="M170.797 75.2085C181.549 75.2085 190.265 66.4921 190.265 55.74C190.265 44.9878 181.549 36.2715 170.797 36.2715C160.044 36.2715 151.328 44.9878 151.328 55.74C151.328 66.4921 160.044 75.2085 170.797 75.2085Z" fill="#24285B"/>
<path d="M173.394 46.807C173.706 48.321 173.811 49.8704 173.706 51.4126C173.682 51.5945 173.622 51.7699 173.53 51.9287C173.439 52.0874 173.316 52.2265 173.17 52.3378C173.025 52.4491 172.858 52.5305 172.681 52.5773C172.503 52.6241 172.319 52.6353 172.137 52.6104C171.546 52.5667 170.98 52.3532 170.507 51.9956C170.034 51.6379 169.674 51.1514 169.471 50.5944L168.358 48.2747C168.189 47.7881 168.174 47.2618 168.312 46.7659C168.451 46.27 168.738 45.8282 169.134 45.4995C170.559 44.2005 173.132 45.1284 173.394 46.807Z" fill="#F4A28C"/>
<path d="M168.562 48.6965L168.199 57.7981L173.227 57.6379L171.472 51.0837L168.562 48.6965Z" fill="#F4A28C"/>
<path d="M170.738 49.5149C170.738 49.5149 170.594 48.4521 169.802 48.6714C169.009 48.8907 169.219 50.3585 170.316 50.3585L170.738 49.5149Z" fill="#F4A28C"/>
<path d="M173.655 48.5361L174.549 49.5062C174.601 49.5615 174.638 49.6291 174.657 49.7028C174.676 49.7764 174.675 49.8536 174.656 49.927C174.637 50.0004 174.599 50.0677 174.546 50.1225C174.494 50.1773 174.428 50.2177 174.355 50.24L173.326 50.5606L173.655 48.5361Z" fill="#F4A28C"/>
<path opacity="0.31" d="M171.919 52.5006C171.278 52.4192 170.676 52.149 170.189 51.7246C170.532 52.9999 171.346 54.0975 172.467 54.795L171.919 52.5006Z" fill="#CE8172"/>
<path d="M157.678 70.0968C157.678 70.0968 157.375 57.8741 170.559 57.2415C183.743 56.6088 183.389 70.6366 183.389 70.6366C183.389 70.6366 170.955 81.9989 157.678 70.0968Z" fill="#68E1FD"/>
<path d="M163.682 53.4708C163.323 54.0571 163.095 54.7146 163.015 55.3977C162.935 56.0809 163.004 56.7733 163.218 57.4269C163.37 58.0282 163.727 58.5577 164.228 58.9241C164.728 59.2906 165.341 59.4711 165.96 59.4345C169.435 59.3079 168.912 58.2873 169.334 53.3105C169.764 48.629 170.177 47.2456 172.902 46.5623C175.627 45.8791 173.956 43.1882 171.519 43.1882C169.081 43.1882 164.914 43.3738 165.04 47.7348C165.127 49.7356 164.657 51.7213 163.682 53.4708Z" fill="#FFD200"/>
</svg>
