<svg width="16" height="16" viewBox="0 0 16 16" fill="none" xmlns="http://www.w3.org/2000/svg">
<path d="M8.00065 1.33333C6.68211 1.33333 5.39318 1.72432 4.29685 2.45686C3.20052 3.18941 2.34604 4.2306 1.84146 5.44877C1.33687 6.66695 1.20485 8.00739 1.46209 9.3006C1.71932 10.5938 2.35426 11.7817 3.28661 12.714C4.21896 13.6464 5.40685 14.2813 6.70005 14.5386C7.99326 14.7958 9.3337 14.6638 10.5519 14.1592C11.7701 13.6546 12.8112 12.8001 13.5438 11.7038C14.2763 10.6075 14.6673 9.31854 14.6673 8C14.6673 7.12452 14.4949 6.25761 14.1599 5.44877C13.8248 4.63993 13.3338 3.90501 12.7147 3.28595C12.0956 2.66689 11.3607 2.17583 10.5519 1.8408C9.74304 1.50577 8.87613 1.33333 8.00065 1.33333ZM8.00065 13.3333C6.94582 13.3333 5.91467 13.0205 5.03761 12.4345C4.16055 11.8485 3.47696 11.0155 3.0733 10.041C2.66963 9.06643 2.56401 7.99408 2.7698 6.95951C2.97559 5.92495 3.48354 4.97464 4.22942 4.22876C4.9753 3.48288 5.92561 2.97493 6.96017 2.76914C7.99474 2.56335 9.06709 2.66897 10.0416 3.07264C11.0162 3.47631 11.8491 4.15989 12.4352 5.03695C13.0212 5.91402 13.334 6.94516 13.334 8C13.334 9.41448 12.7721 10.771 11.7719 11.7712C10.7717 12.7714 9.41514 13.3333 8.00065 13.3333Z" fill="black"/>
<path d="M10.6673 7.33334H8.66732V5.33334C8.66732 5.15653 8.59708 4.98696 8.47206 4.86193C8.34703 4.73691 8.17746 4.66667 8.00065 4.66667C7.82384 4.66667 7.65427 4.73691 7.52925 4.86193C7.40422 4.98696 7.33398 5.15653 7.33398 5.33334V8.00001C7.33398 8.17682 7.40422 8.34639 7.52925 8.47141C7.65427 8.59643 7.82384 8.66667 8.00065 8.66667H10.6673C10.8441 8.66667 11.0137 8.59643 11.1387 8.47141C11.2637 8.34639 11.334 8.17682 11.334 8.00001C11.334 7.82319 11.2637 7.65363 11.1387 7.5286C11.0137 7.40358 10.8441 7.33334 10.6673 7.33334Z" fill="black"/>
</svg>
