<svg width="16" height="18" viewBox="0 0 16 18" fill="none" xmlns="http://www.w3.org/2000/svg">
<path d="M15.1001 11.675L13.6001 10.1667V6.44999C13.6201 5.06985 13.14 3.72908 12.2486 2.67527C11.3571 1.62146 10.1145 0.925773 8.75014 0.71666C7.95832 0.612383 7.15336 0.678172 6.38898 0.90964C5.6246 1.14111 4.91837 1.53293 4.31741 2.05896C3.71646 2.58499 3.2346 3.23314 2.90398 3.96016C2.57337 4.68717 2.4016 5.47633 2.40014 6.27499V10.1667L0.900142 11.675C0.711731 11.8665 0.583962 12.1094 0.532809 12.3732C0.481656 12.6369 0.509389 12.9099 0.61254 13.158C0.715691 13.4061 0.889684 13.6183 1.11277 13.7681C1.33585 13.9178 1.59813 13.9985 1.86681 14H4.66681V14.2833C4.70573 15.1293 5.07844 15.9254 5.70325 16.4971C6.32806 17.0688 7.15402 17.3695 8.00014 17.3333C8.84626 17.3695 9.67223 17.0688 10.297 16.4971C10.9218 15.9254 11.2946 15.1293 11.3335 14.2833V14H14.1335C14.4022 13.9985 14.6644 13.9178 14.8875 13.7681C15.1106 13.6183 15.2846 13.4061 15.3877 13.158C15.4909 12.9099 15.5186 12.6369 15.4675 12.3732C15.4163 12.1094 15.2886 11.8665 15.1001 11.675ZM9.66681 14.2833C9.62059 14.6842 9.42151 15.0517 9.11104 15.3094C8.80056 15.5671 8.40263 15.6951 8.00014 15.6667C7.59766 15.6951 7.19973 15.5671 6.88925 15.3094C6.57877 15.0517 6.37969 14.6842 6.33348 14.2833V14H9.66681V14.2833ZM2.59181 12.3333L3.57514 11.35C3.73112 11.1949 3.85486 11.0106 3.93924 10.8075C4.02363 10.6044 4.06698 10.3866 4.06681 10.1667V6.27499C4.06726 5.71283 4.18796 5.15726 4.4208 4.64558C4.65365 4.13391 4.99324 3.67795 5.41681 3.30833C5.83466 2.92973 6.32979 2.64645 6.86793 2.4781C7.40607 2.30975 7.97436 2.26036 8.53348 2.33333C9.49721 2.48981 10.372 2.98917 10.9967 3.73948C11.6215 4.48978 11.9541 5.44052 11.9335 6.41666V10.1667C11.9322 10.386 11.9742 10.6034 12.0572 10.8065C12.1401 11.0096 12.2623 11.1943 12.4168 11.35L13.4085 12.3333H2.59181Z" fill="#181818"/>
</svg>
