<svg width="24" height="28" viewBox="0 0 24 28" fill="none" xmlns="http://www.w3.org/2000/svg">
<path d="M23.3594 18.2801L20.9594 15.8667V9.92006C20.9914 7.71183 20.2233 5.56661 18.7969 3.88051C17.3706 2.19441 15.3824 1.08131 13.1994 0.746729C11.9325 0.579885 10.6446 0.685149 9.42159 1.0555C8.19858 1.42584 7.06861 2.05276 6.10708 2.89441C5.14555 3.73606 4.37458 4.7731 3.84559 5.93632C3.31661 7.09955 3.04178 8.36221 3.03945 9.64006V15.8667L0.639446 18.2801C0.337988 18.5865 0.133558 18.9751 0.0517134 19.3971C-0.030131 19.8192 0.0142414 20.256 0.179283 20.6529C0.344325 21.0499 0.622714 21.3894 0.979647 21.629C1.33658 21.8686 1.75622 21.9976 2.18611 22.0001H6.66611V22.4534C6.72839 23.807 7.32472 25.0807 8.32441 25.9954C9.32411 26.9102 10.6457 27.3913 11.9994 27.3334C13.3532 27.3913 14.6748 26.9102 15.6745 25.9954C16.6742 25.0807 17.2705 23.807 17.3328 22.4534V22.0001H21.8128C22.2427 21.9976 22.6623 21.8686 23.0192 21.629C23.3762 21.3894 23.6546 21.0499 23.8196 20.6529C23.9846 20.256 24.029 19.8192 23.9472 19.3971C23.8653 18.9751 23.6609 18.5865 23.3594 18.2801ZM14.6661 22.4534C14.5922 23.0947 14.2736 23.6828 13.7769 24.0951C13.2801 24.5074 12.6434 24.7122 11.9994 24.6667C11.3555 24.7122 10.7188 24.5074 10.222 24.0951C9.72526 23.6828 9.40672 23.0947 9.33278 22.4534V22.0001H14.6661V22.4534ZM3.34611 19.3334L4.91945 17.7601C5.169 17.512 5.367 17.217 5.50201 16.892C5.63702 16.5671 5.70639 16.2186 5.70611 15.8667V9.64006C5.70684 8.7406 5.89996 7.85169 6.2725 7.03301C6.64505 6.21432 7.18841 5.4848 7.86611 4.8934C8.53467 4.28764 9.32688 3.8344 10.1879 3.56504C11.0489 3.29568 11.9582 3.21664 12.8528 3.3334C14.3948 3.58376 15.7944 4.38274 16.794 5.58323C17.7936 6.78373 18.3258 8.30491 18.2928 9.86673V15.8667C18.2908 16.2177 18.358 16.5656 18.4907 16.8905C18.6234 17.2154 18.819 17.5109 19.0661 17.7601L20.6528 19.3334H3.34611Z" fill="url(#paint0_linear)"/>
<defs>
<linearGradient id="paint0_linear" x1="0.0117188" y1="0.6698" x2="23.9871" y2="0.720581" gradientUnits="userSpaceOnUse">
<stop stop-color="#36D1DC"/>
<stop offset="1" stop-color="#5B86E5"/>
</linearGradient>
</defs>
</svg>
