<svg width="14" height="14" viewBox="0 0 14 14" fill="none" xmlns="http://www.w3.org/2000/svg">
<path d="M13 6.2921L7.32667 11.6428C6.63165 12.2983 5.68899 12.6665 4.70608 12.6665C3.72317 12.6665 2.78051 12.2983 2.08549 11.6428C1.39046 10.9873 1 10.0982 1 9.17121C1 8.2442 1.39046 7.35515 2.08549 6.69966L7.75881 1.349C7.98824 1.13262 8.26061 0.960983 8.56037 0.84388C8.86013 0.726776 9.18141 0.666504 9.50587 0.666504C9.83033 0.666504 10.1516 0.726776 10.4514 0.84388C10.7511 0.960983 11.0235 1.13262 11.2529 1.349C11.4824 1.56538 11.6644 1.82226 11.7885 2.10497C11.9127 2.38769 11.9766 2.6907 11.9766 2.9967C11.9766 3.30271 11.9127 3.60572 11.7885 3.88843C11.6644 4.17114 11.4824 4.42802 11.2529 4.6444L5.57344 9.99506C5.34176 10.2136 5.02754 10.3363 4.69991 10.3363C4.37227 10.3363 4.05805 10.2136 3.82638 9.99506C3.5947 9.77656 3.46455 9.48021 3.46455 9.17121C3.46455 8.8622 3.5947 8.56586 3.82638 8.34736L9.06756 3.41008" stroke="#333333" stroke-width="1.33333" stroke-linecap="round" stroke-linejoin="round"/>
</svg>
