<svg width="19" height="19" viewBox="0 0 19 19" fill="none" xmlns="http://www.w3.org/2000/svg">
<path d="M7.29085 19C6.46467 18.9961 5.64753 18.8278 4.887 18.505C4.12646 18.1823 3.43771 17.7115 2.86085 17.12C2.28832 16.5774 1.8284 15.9272 1.50743 15.2066C1.18646 14.486 1.01073 13.7092 0.990295 12.9207C0.969861 12.1321 1.10512 11.3472 1.38835 10.611C1.67157 9.87476 2.09719 9.2016 2.64085 8.63003L10.0009 1.20003C10.3939 0.807711 10.8624 0.499109 11.378 0.292862C11.8936 0.0866152 12.4457 -0.0129992 13.0009 3.33735e-05C13.5956 0.00205852 14.1839 0.122472 14.7316 0.354253C15.2793 0.586033 15.7754 0.92454 16.1909 1.35003C17.0178 2.14627 17.4974 3.23655 17.5255 4.38421C17.5536 5.53187 17.1279 6.6443 16.3409 7.48003L8.94085 14.91C8.70383 15.1487 8.42179 15.3378 8.11107 15.4666C7.80036 15.5953 7.46718 15.6611 7.13085 15.66C6.76753 15.6605 6.40779 15.5882 6.07287 15.4474C5.73795 15.3065 5.43464 15.1 5.18085 14.84C4.67358 14.3489 4.38062 13.6774 4.36564 12.9715C4.35066 12.2656 4.61487 11.5823 5.10085 11.07L11.9309 4.21003C12.1252 4.08094 12.3586 4.02388 12.5907 4.04875C12.8227 4.07362 13.0387 4.17884 13.2013 4.34619C13.3639 4.51355 13.4629 4.7325 13.4811 4.96514C13.4992 5.19778 13.4355 5.42945 13.3009 5.62003L6.47085 12.48C6.35696 12.6172 6.30152 12.7937 6.31649 12.9714C6.33145 13.1491 6.41562 13.3138 6.55085 13.43C6.69156 13.5717 6.88126 13.654 7.08085 13.66C7.15479 13.6611 7.2282 13.6475 7.29685 13.62C7.36551 13.5926 7.42804 13.5518 7.48085 13.5L14.8709 6.07003C15.2857 5.60921 15.5025 5.00367 15.4744 4.38428C15.4463 3.7649 15.1756 3.18144 14.7208 2.76003C14.2984 2.32147 13.724 2.06149 13.1157 2.03359C12.5075 2.00569 11.9116 2.21199 11.4509 2.61003L4.06085 10C3.7015 10.386 3.42201 10.8392 3.23848 11.3336C3.05494 11.828 2.97099 12.3538 2.99143 12.8808C3.01188 13.4078 3.13633 13.9255 3.35762 14.4042C3.57891 14.8829 3.89267 15.3131 4.28085 15.67C4.67013 16.0736 5.13592 16.3955 5.65101 16.617C6.16611 16.8385 6.72018 16.9551 7.28085 16.96C7.76427 16.964 8.2437 16.8723 8.6916 16.6904C9.13951 16.5085 9.54706 16.2399 9.89085 15.9L17.2809 8.47003C17.3734 8.37679 17.4835 8.3027 17.6047 8.25199C17.7259 8.20128 17.8559 8.17494 17.9873 8.17448C18.1187 8.17401 18.2489 8.19943 18.3705 8.24929C18.4921 8.29914 18.6026 8.37245 18.6959 8.46503C18.7891 8.55762 18.8632 8.66765 18.9139 8.78887C18.9646 8.91009 18.9909 9.0401 18.9914 9.1715C18.9919 9.30289 18.9665 9.43309 18.9166 9.55466C18.8667 9.67623 18.7934 9.78679 18.7009 9.88003L11.3109 17.31C10.7862 17.844 10.1606 18.2684 9.47047 18.5585C8.78035 18.8486 8.03947 18.9987 7.29085 19Z" fill="black"/>
</svg>
