<svg width="678" height="279" viewBox="0 0 678 279" fill="none" xmlns="http://www.w3.org/2000/svg">
<path d="M422.118 41.2437H490.165C488.146 41.2189 486.21 40.4356 484.742 39.0496C483.274 37.6635 482.381 35.7761 482.241 33.7621L481.042 13.4827H413L414.199 33.7621C414.34 35.7753 415.232 37.6621 416.699 39.0481C418.166 40.434 420.1 41.2177 422.118 41.2437Z" fill="#407BFF"/>
<path opacity="0.6" d="M422.118 41.2437H490.165C488.146 41.2189 486.21 40.4356 484.742 39.0496C483.274 37.6635 482.381 35.7761 482.241 33.7621L481.042 13.4827H413L414.199 33.7621C414.34 35.7753 415.232 37.6621 416.699 39.0481C418.166 40.434 420.1 41.2177 422.118 41.2437Z" fill="white"/>
<path d="M495.208 0.000919158H434.648C433.681 -0.0137094 432.721 0.17316 431.83 0.549637C430.938 0.926115 430.135 1.48396 429.472 2.18768C428.808 2.8914 428.298 3.72558 427.974 4.63717C427.65 5.54875 427.519 6.51778 427.59 7.48259L429.145 33.7573C429.216 34.7197 429.086 35.6862 428.764 36.5958C428.442 37.5054 427.935 38.3383 427.274 39.0419C426.614 39.7455 425.815 40.3044 424.928 40.6834C424.04 41.0624 423.084 41.2531 422.119 41.2436H490.165C491.131 41.2556 492.089 41.0669 492.978 40.6893C493.867 40.3117 494.668 39.7534 495.33 39.05C495.991 38.3466 496.5 37.5133 496.823 36.6029C497.146 35.6926 497.276 34.7252 497.205 33.7619L497.374 36.6068L495.65 7.48715C495.58 6.52404 495.711 5.55687 496.034 4.64686C496.357 3.73685 496.865 2.90383 497.527 2.20054C498.189 1.49724 498.989 0.939005 499.878 0.561159C500.767 0.183313 501.724 -0.00590712 502.69 0.00547848L495.208 0.000919158Z" fill="#407BFF"/>
<path d="M502.688 0.00109863H434.646C436.666 0.0248165 438.603 0.807538 440.072 2.1937C441.541 3.57986 442.434 5.46797 442.575 7.48277L448.42 106.263H516.457L510.612 7.48277C510.471 5.46874 509.579 3.58127 508.111 2.19523C506.643 0.809181 504.707 0.0259528 502.688 0.00109863Z" fill="#407BFF"/>
<path opacity="0.8" d="M502.688 0.00109863H434.646C436.666 0.0248165 438.603 0.807538 440.072 2.1937C441.541 3.57986 442.434 5.46797 442.575 7.48277L448.42 106.263H516.457L510.612 7.48277C510.471 5.46874 509.579 3.58127 508.111 2.19523C506.643 0.809181 504.707 0.0259528 502.688 0.00109863Z" fill="white"/>
<path d="M465.485 28.1038H452.861L452.113 15.4794H464.738L465.485 28.1038ZM454.261 26.6175H463.913L463.343 16.9657H453.691L454.261 26.6175Z" fill="white"/>
<path d="M467.254 57.7891H454.621L453.873 45.1692H466.498L467.254 57.7891ZM456.03 56.3028H465.681L465.112 46.6509H455.446L456.03 56.3028Z" fill="white"/>
<path d="M469.001 87.4785H456.377L455.629 74.8495H468.253L469.001 87.4785ZM457.776 85.9922H467.428L466.858 76.3404H457.225L457.776 85.9922Z" fill="white"/>
<path d="M500.672 15.4794H471.648V16.9657H500.672V15.4794Z" fill="white"/>
<path d="M497.592 21.0509H471.979V22.5372H497.592V21.0509Z" fill="white"/>
<path d="M501.331 26.6177H472.307V28.104H501.331V26.6177Z" fill="white"/>
<path d="M502.428 45.1644H473.404V46.6507H502.428V45.1644Z" fill="white"/>
<path d="M490.77 50.736H473.732V52.2223H490.77V50.736Z" fill="white"/>
<path d="M482.861 56.3027H474.066V57.789H482.861V56.3027Z" fill="white"/>
<path d="M503.09 56.3027H488.578V57.789H503.09V56.3027Z" fill="white"/>
<path d="M504.184 74.8495H475.16V76.3358H504.184V74.8495Z" fill="white"/>
<path d="M504.518 80.421H475.494V81.9073H504.518V80.421Z" fill="white"/>
<path d="M491.875 85.9877H475.822V87.474H491.875V85.9877Z" fill="white"/>
<path d="M460.005 25.1361C459.69 25.136 459.386 25.0153 459.157 24.7987L456.057 21.8717C455.818 21.6468 455.678 21.3363 455.669 21.0084C455.659 20.6805 455.78 20.3621 456.004 20.1233C456.229 19.8845 456.54 19.7448 456.868 19.7349C457.196 19.7251 457.514 19.8459 457.753 20.0708L459.96 22.1498L464.906 16.8931C465.018 16.7733 465.152 16.6767 465.3 16.6087C465.449 16.5407 465.61 16.5026 465.773 16.4967C465.936 16.4907 466.099 16.5171 466.253 16.5741C466.406 16.6312 466.546 16.7179 466.666 16.8292C466.786 16.9406 466.883 17.0745 466.951 17.2232C467.019 17.3719 467.057 17.5325 467.063 17.6959C467.068 17.8594 467.042 18.0223 466.985 18.1756C466.928 18.3288 466.841 18.4693 466.73 18.5891L460.903 24.744C460.792 24.8625 460.658 24.9578 460.509 25.0243C460.36 25.0908 460.2 25.1272 460.037 25.1316L460.005 25.1361Z" fill="#407BFF"/>
<path d="M461.761 54.8209C461.446 54.8207 461.142 54.7 460.913 54.4835L457.813 51.5565C457.574 51.3316 457.434 51.021 457.424 50.6931C457.415 50.3652 457.535 50.0468 457.76 49.808C457.985 49.5692 458.296 49.4295 458.624 49.4197C458.952 49.4098 459.27 49.5307 459.509 49.7556L461.711 51.83L466.658 46.5732C466.769 46.4535 466.903 46.3569 467.052 46.2888C467.2 46.2208 467.361 46.1828 467.524 46.1768C467.688 46.1709 467.851 46.1972 468.004 46.2543C468.157 46.3114 468.298 46.398 468.417 46.5094C468.537 46.6208 468.634 46.7546 468.702 46.9033C468.77 47.052 468.808 47.2127 468.814 47.3761C468.82 47.5395 468.793 47.7025 468.736 47.8558C468.679 48.009 468.593 48.1495 468.481 48.2693L462.687 54.4288C462.575 54.5473 462.441 54.6425 462.292 54.709C462.143 54.7755 461.983 54.812 461.82 54.8163L461.761 54.8209Z" fill="#407BFF"/>
<path d="M463.517 84.5059C463.201 84.5058 462.898 84.3851 462.669 84.1685L459.569 81.2415C459.33 81.0166 459.19 80.706 459.18 80.3781C459.17 80.0502 459.291 79.7319 459.516 79.4931C459.741 79.2542 460.052 79.1146 460.38 79.1047C460.707 79.0949 461.026 79.2157 461.265 79.4406L463.467 81.5151L468.413 76.2583C468.525 76.1385 468.659 76.0419 468.807 75.9739C468.956 75.9059 469.117 75.8678 469.28 75.8619C469.444 75.856 469.607 75.8823 469.76 75.9394C469.913 75.9964 470.054 76.0831 470.173 76.1945C470.293 76.3058 470.39 76.4397 470.458 76.5884C470.526 76.7371 470.564 76.8978 470.57 77.0612C470.576 77.2246 470.549 77.3876 470.492 77.5408C470.435 77.6941 470.349 77.8346 470.237 77.9543L464.442 84.1138C464.331 84.2323 464.197 84.3276 464.048 84.3941C463.899 84.4606 463.739 84.497 463.576 84.5014L463.517 84.5059Z" fill="#407BFF"/>
<mask id="mask0" mask-type="alpha" maskUnits="userSpaceOnUse" x="0" y="34" width="654" height="205">
<path d="M0 46C0 39.3726 5.37258 34 12 34H642C648.627 34 654 39.3726 654 46V227C654 233.627 648.627 239 642 239H12C5.37259 239 0 233.627 0 227V46Z" fill="url(#paint0_linear)"/>
</mask>
<g mask="url(#mask0)">
<path d="M515.75 72.7023L500.004 76.5728L546.993 267.735L562.739 263.865L515.75 72.7023Z" fill="#0A3AA5"/>
<path opacity="0.2" d="M515.748 72.699L510.953 73.8776L557.943 265.04L562.737 263.862L515.748 72.699Z" fill="black"/>
<path d="M515.744 72.6857L500 76.561L501.84 63.3947L503.032 54.9388L508.002 61.8787L515.744 72.6857Z" fill="#E0E0E0"/>
<path d="M508.001 61.8787L501.84 63.3947L503.032 54.9388L508.001 61.8787Z" fill="#0A3AA5"/>
<path d="M556.411 60.1927C556.329 65.0571 555.389 74.2265 557.959 77.2181C552.073 79.1431 546.793 82.5754 542.644 87.1738C539.134 81.4338 543.715 78.345 543.715 78.345C548.773 76.7235 548.457 72.9212 547.395 69.427L556.411 60.1927Z" fill="#FFB573"/>
<path d="M541.145 82.2609C542.482 77.2912 538.712 76.5858 545.004 74.1536C549.917 72.2079 559.199 71.9323 561.372 73.497C562.588 74.3725 560.918 77.4371 560.918 77.4371L541.145 82.2609Z" fill="#263238"/>
<path d="M568.377 81.1746C568.742 81.7583 569.001 82.2042 569.293 82.715C569.585 83.2257 569.836 83.704 570.104 84.1986C570.622 85.1877 571.109 86.1768 571.579 87.1821C572.52 89.1846 573.338 91.2357 574.092 93.3112C575.61 97.5141 576.696 101.86 577.335 106.283L577.554 107.953C577.554 108.188 577.627 108.61 577.651 108.974C577.676 109.339 577.651 109.672 577.651 109.996C577.636 111.189 577.546 112.381 577.384 113.563C577.108 115.809 576.67 117.925 576.2 120.049C575.243 124.208 574.032 128.304 572.576 132.315C572.383 132.859 571.998 133.314 571.493 133.595C570.989 133.875 570.4 133.963 569.836 133.841C569.271 133.719 568.771 133.395 568.428 132.931C568.085 132.467 567.923 131.893 567.971 131.318V131.278C568.296 127.159 568.677 123.008 568.977 118.955C569.123 116.928 569.236 114.901 569.269 112.996C569.269 112.047 569.269 111.107 569.179 110.312L569.114 109.777L569.009 109.25L568.709 107.831C567.845 104.034 566.679 100.312 565.223 96.7C564.493 94.8759 563.707 93.0842 562.88 91.3006C562.466 90.4169 562.069 89.5332 561.591 88.6738L560.918 87.3929L560.278 86.2173L560.164 86.0065C559.573 84.9179 559.43 83.6419 559.765 82.4495C560.1 81.2571 560.887 80.2423 561.958 79.6206C563.03 78.999 564.301 78.8195 565.502 79.1202C566.704 79.421 567.741 80.1783 568.393 81.2313L568.377 81.1746Z" fill="#FFB573"/>
<path d="M566.171 133.962L566.844 132.843L568.741 129.648L572.227 131.619C572.94 134.861 570.743 137.723 570.743 137.723L569.762 138.534C569.427 138.823 568.995 138.975 568.553 138.958C568.111 138.941 567.691 138.758 567.379 138.445L566.625 137.748C566.15 137.251 565.849 136.613 565.767 135.93C565.685 135.248 565.827 134.557 566.171 133.962Z" fill="#FFB573"/>
<path d="M520.017 132.308L519.457 130.281C519.326 129.804 519.013 129.398 518.586 129.149C518.158 128.901 517.65 128.829 517.171 128.951L514.739 129.575L513.239 129.948C512.449 130.154 511.748 130.611 511.24 131.25C510.733 131.889 510.447 132.676 510.426 133.491L510.466 134.699C510.463 135.225 510.66 135.731 511.017 136.117C511.373 136.502 511.864 136.738 512.388 136.775L513.888 136.921C516.138 136.562 518.2 135.454 519.741 133.775C519.901 133.57 520.01 133.33 520.058 133.075C520.106 132.82 520.092 132.556 520.017 132.308Z" fill="#FFB573"/>
<path d="M564.323 77.6152C568.587 79.5042 572.487 84.0037 575.673 92.3218C574.652 95.7512 564.104 101.37 564.104 101.37C564.104 101.37 550.946 73.4805 564.323 77.6152Z" fill="#263238"/>
<path d="M529.115 88.2683C529.115 91.3653 524.04 98.524 529.926 102.667C530.437 108.918 531.126 115.071 532.472 125.367H563.952C560.961 114.017 563.547 106.396 568.347 86.4523C568.621 85.38 568.66 84.2611 568.461 83.1723C568.262 82.0834 567.83 81.0505 567.195 80.1441C566.56 79.2378 565.736 78.4796 564.78 77.9213C563.825 77.3631 562.76 77.0181 561.658 76.91C560.401 76.7803 559.08 76.6749 557.718 76.61C552.96 76.2696 548.183 76.2696 543.425 76.61C541.876 76.7479 540.279 76.9424 538.747 77.1613C536.075 77.547 533.631 78.8816 531.863 80.9212C530.094 82.9607 529.119 85.5688 529.115 88.2683Z" fill="#263238"/>
<path d="M539.539 85.2609C539.604 87.5877 539.539 89.8091 539.539 92.0791C539.539 94.3492 539.393 96.5949 539.247 98.8649C538.993 103.467 538.451 108.048 537.626 112.582C537.528 113.158 537.374 113.75 537.237 114.342C537.099 114.934 536.977 115.509 536.791 116.125L536.531 117.033L536.402 117.487C536.347 117.691 536.282 117.891 536.207 118.087C535.868 118.961 535.404 119.78 534.829 120.52C534.038 121.543 533.174 122.508 532.243 123.406C531.432 124.257 530.524 125.027 529.648 125.797C526.197 128.767 522.531 131.477 518.679 133.905C518.196 134.203 517.622 134.318 517.061 134.23C516.5 134.143 515.988 133.858 515.619 133.427C515.249 132.996 515.046 132.447 515.045 131.879C515.044 131.311 515.246 130.761 515.614 130.329C518.509 127.03 521.492 123.746 524.265 120.511C524.954 119.701 525.619 118.89 526.251 118.079C526.844 117.359 527.386 116.597 527.873 115.801C528.067 115.493 528.189 115.136 528.083 115.339C527.978 115.542 528.083 115.234 528.083 115.144L528.156 114.796L528.31 114.09C528.424 113.636 528.489 113.118 528.57 112.623C528.651 112.128 528.74 111.642 528.797 111.115C529.348 107.021 529.608 102.716 529.762 98.3947C529.916 94.0735 530.013 89.6875 530.037 85.4231C530.03 84.7981 530.147 84.1779 530.379 83.5979C530.612 83.0178 530.957 82.4893 531.394 82.0425C532.277 81.1401 533.481 80.6254 534.744 80.6114C536.006 80.5974 537.222 81.0854 538.124 81.968C539.027 82.8506 539.541 84.0555 539.555 85.3177L539.539 85.2609Z" fill="#FFB573"/>
<path d="M536.078 77.8427C532.194 79.7722 528.344 83.5178 526.738 92.0953C527.752 95.4923 541.631 102.035 541.631 102.035C541.631 102.035 549.358 72.881 536.078 77.8427Z" fill="#263238"/>
<path d="M536.921 57.0882C537.027 57.7044 536.784 58.2638 536.378 58.3449C535.973 58.4259 535.567 57.9881 535.462 57.3801C535.357 56.772 535.6 56.2045 536.005 56.1235C536.411 56.0424 536.824 56.4721 536.921 57.0882Z" fill="#263238"/>
<path d="M536.189 56.1226L534.633 55.9929C534.633 55.9929 535.589 56.9901 536.189 56.1226Z" fill="#263238"/>
<path d="M536.775 57.7686C536.457 59.2801 535.936 60.7418 535.227 62.1141C535.582 62.2789 535.97 62.3642 536.362 62.3642C536.754 62.3642 537.141 62.2789 537.497 62.1141L536.775 57.7686Z" fill="#ED893E"/>
<path d="M535.317 52.9043C535.223 52.906 535.133 52.8711 535.065 52.807C535.031 52.7731 535.004 52.7327 534.985 52.6882C534.967 52.6436 534.957 52.5959 534.957 52.5476C534.957 52.4993 534.967 52.4516 534.985 52.407C535.004 52.3625 535.031 52.3221 535.065 52.2882C535.465 51.8478 535.964 51.5092 536.521 51.3005C537.078 51.0918 537.677 51.019 538.268 51.0883C538.314 51.097 538.358 51.1149 538.398 51.1409C538.438 51.1669 538.471 51.2005 538.498 51.2397C538.524 51.2789 538.543 51.323 538.552 51.3694C538.561 51.4158 538.561 51.4635 538.551 51.5099C538.532 51.6053 538.476 51.6896 538.396 51.7454C538.316 51.8012 538.218 51.8243 538.122 51.8098C537.658 51.767 537.19 51.8335 536.757 52.0038C536.323 52.1742 535.935 52.4437 535.625 52.7908C535.585 52.8315 535.537 52.8628 535.484 52.8824C535.43 52.9021 535.373 52.9096 535.317 52.9043Z" fill="#263238"/>
<path d="M556.987 51.0564C557.798 58.6772 558.284 61.8796 555.179 66.4602C550.501 73.3919 541.105 72.946 538.073 65.7873C535.349 59.3015 534.497 47.9513 541.275 43.5247C542.733 42.5304 544.427 41.9367 546.186 41.8031C547.946 41.6695 549.71 42.0007 551.301 42.7635C552.892 43.5263 554.255 44.694 555.253 46.1494C556.251 47.6049 556.849 49.297 556.987 51.0564Z" fill="#FFB573"/>
<path d="M543.131 56.6176C538.266 55.7583 537.099 50.1804 538.899 47.7483C530.702 48.105 525.181 38.9356 534.034 33.7145C542.887 28.4934 550.703 36.5764 550.07 39.641C560.967 38.6519 567.363 47.6266 561.421 54.2989C569.26 55.5718 581 64.4087 572.382 73.6916C584.032 75.4022 585.288 111.885 553.581 105.399C520.138 98.5566 549.171 69.4596 549.171 69.4596C549.171 69.4596 540.698 67.0679 543.131 56.6176Z" fill="#3E494F"/>
<path d="M574.18 76.059L573.491 75.6375C576.434 70.8542 576.921 66.5087 574.934 62.7063C572.38 57.842 566.178 54.972 561.379 54.6963L561.428 53.8856C566.462 54.1694 572.964 57.1285 575.656 62.3253C577.748 66.3465 577.237 71.0893 574.18 76.059Z" fill="#263238"/>
<path d="M564.962 55.1103C567.767 54.6482 566.437 50.0838 564.378 48.8677C562.319 47.6516 552.452 49.6298 553.538 52.7673C554.625 55.9049 561.208 55.7346 564.962 55.1103Z" fill="white"/>
<path d="M565.466 53.9749C568.255 53.4317 567.136 49.7347 565.044 48.5754C562.953 47.4161 554.334 48.2754 555.51 51.3805C556.686 54.4856 561.736 54.6964 565.466 53.9749Z" fill="#263238"/>
<path d="M536.255 48.6644C534.385 48.6404 532.576 47.9927 531.115 46.824C528.788 45.0161 527.507 42.3083 527.872 39.9247C528.083 38.4087 529.04 36.3251 532.347 34.9955L532.647 35.7495C530.312 36.6818 528.942 38.1816 528.675 40.0382C528.375 42.138 529.542 44.554 531.642 46.1835C532.61 46.9954 533.776 47.5357 535.02 47.7494C536.265 47.963 537.545 47.8423 538.728 47.3996L539.036 48.1455C538.152 48.4982 537.207 48.6745 536.255 48.6644Z" fill="#263238"/>
<path d="M545.045 57.5176C544.68 59.512 544.567 60.3551 543.529 61.2956C543.232 61.6213 542.845 61.8506 542.416 61.9541C541.988 62.0575 541.539 62.0302 541.126 61.8758C540.713 61.7214 540.356 61.4469 540.101 61.0877C539.846 60.7285 539.704 60.3011 539.694 59.8606C539.54 58.0202 540.165 55.0773 542.021 54.453C543.878 53.8288 545.41 55.507 545.045 57.5176Z" fill="#FFB573"/>
<path d="M540.57 63.8568L539.889 62.6894C539.862 62.6411 539.848 62.5866 539.848 62.5313C539.848 62.4759 539.862 62.4215 539.889 62.3732L540.545 61.2057C540.574 61.1551 540.615 61.1128 540.665 61.0834C540.714 61.054 540.771 61.0385 540.829 61.0385C540.887 61.0385 540.944 61.054 540.994 61.0834C541.044 61.1128 541.085 61.1551 541.113 61.2057L541.77 62.3732C541.797 62.4215 541.811 62.4759 541.811 62.5313C541.811 62.5866 541.797 62.6411 541.77 62.6894L541.113 63.8568C541.084 63.902 541.043 63.9391 540.996 63.9648C540.948 63.9905 540.895 64.0039 540.841 64.0039C540.787 64.0039 540.734 63.9905 540.687 63.9648C540.64 63.9391 540.599 63.902 540.57 63.8568Z" fill="white"/>
<path d="M532.477 125.327C532.477 125.327 531.366 165.977 529.883 192.715C528.31 217.256 526.291 274.647 526.291 274.647L532.485 274.971C532.485 274.971 546.211 226.684 545.627 197.498C561.736 156.686 555.939 126.551 555.939 126.551L532.477 125.327Z" fill="#FFB573"/>
<path d="M540.699 125.327C540.699 125.327 552.049 173.436 558.624 195.82C565.54 219.331 571.012 272.985 570.98 274.769H576.371C576.371 274.769 583.303 231.281 574.75 195.804C573.939 138.242 564.016 125.335 564.016 125.335L540.699 125.327Z" fill="#FFB573"/>
<path d="M532.478 125.326C532.478 125.326 527.12 160.95 527.873 209.642C544.803 209.546 561.626 206.95 577.798 201.94C577.798 201.94 578.041 138.849 563.959 125.351C555.827 123.137 532.665 124.597 532.478 125.326Z" fill="#E4EDFF"/>
<path opacity="0.2" d="M533.102 202.711C533.05 202.711 532.999 202.691 532.961 202.655C532.924 202.618 532.901 202.569 532.899 202.517C531.383 171.425 535.064 127.532 535.096 127.119C535.097 127.092 535.104 127.065 535.116 127.041C535.127 127.016 535.144 126.995 535.165 126.977C535.185 126.96 535.209 126.947 535.235 126.939C535.261 126.931 535.288 126.929 535.315 126.932C535.342 126.934 535.368 126.942 535.392 126.954C535.416 126.966 535.437 126.983 535.454 127.003C535.471 127.023 535.485 127.047 535.493 127.072C535.501 127.098 535.504 127.125 535.502 127.151C535.502 127.589 531.789 171.458 533.305 202.549C533.306 202.576 533.302 202.602 533.292 202.627C533.283 202.652 533.269 202.675 533.251 202.695C533.233 202.714 533.211 202.73 533.187 202.741C533.163 202.752 533.137 202.759 533.11 202.76L533.102 202.711Z" fill="white"/>
<rect x="273" y="271.171" width="168.284" height="84.1419" rx="42.071" transform="rotate(-38.6797 273 271.171)" fill="white" fill-opacity="0.1"/>
<rect x="581" y="119.171" width="168.284" height="84.1419" rx="42.071" transform="rotate(-38.6797 581 119.171)" fill="white" fill-opacity="0.1"/>
<rect x="328" y="55.3091" width="168.284" height="84.1419" rx="42.071" transform="rotate(-37.8719 328 55.3091)" fill="white" fill-opacity="0.1"/>
</g>
<defs>
<linearGradient id="paint0_linear" x1="0" y1="34" x2="653.963" y2="38.9144" gradientUnits="userSpaceOnUse">
<stop stop-color="#36D1DC"/>
<stop offset="1" stop-color="#5B86E5"/>
</linearGradient>
</defs>
</svg>
