<svg width="22" height="20" viewBox="0 0 22 20" fill="none" xmlns="http://www.w3.org/2000/svg">
<path d="M20.3335 8.66695H4.52016L9.36016 2.85362C9.58648 2.58133 9.69536 2.23029 9.66286 1.87772C9.63035 1.52515 9.45912 1.19994 9.18683 0.973619C8.91454 0.747301 8.5635 0.638419 8.21093 0.670925C7.85836 0.703432 7.53315 0.874664 7.30683 1.14695L0.640163 9.14695C0.59531 9.21058 0.555202 9.27743 0.520163 9.34695C0.520163 9.41362 0.520163 9.45362 0.42683 9.52029C0.366394 9.67316 0.334751 9.8359 0.333496 10.0003C0.334751 10.1647 0.366394 10.3274 0.42683 10.4803C0.42683 10.547 0.426829 10.587 0.520163 10.6536C0.555202 10.7231 0.59531 10.79 0.640163 10.8536L7.30683 18.8536C7.43219 19.0041 7.58918 19.1252 7.76662 19.2081C7.94407 19.2911 8.13761 19.3339 8.3335 19.3336C8.64503 19.3342 8.94695 19.2257 9.18683 19.027C9.32184 18.915 9.43344 18.7776 9.51525 18.6224C9.59705 18.4673 9.64744 18.2976 9.66354 18.1229C9.67965 17.9483 9.66114 17.7722 9.60908 17.6047C9.55702 17.4372 9.47243 17.2817 9.36016 17.147L4.52016 11.3336H20.3335C20.6871 11.3336 21.0263 11.1931 21.2763 10.9431C21.5264 10.693 21.6668 10.3539 21.6668 10.0003C21.6668 9.64666 21.5264 9.30753 21.2763 9.05748C21.0263 8.80743 20.6871 8.66695 20.3335 8.66695Z" fill="url(#paint0_linear)"/>
<defs>
<linearGradient id="paint0_linear" x1="0.333496" y1="0.665283" x2="21.6667" y2="0.722098" gradientUnits="userSpaceOnUse">
<stop stop-color="#36D1DC"/>
<stop offset="1" stop-color="#5B86E5"/>
</linearGradient>
</defs>
</svg>
