<svg width="720" height="271" viewBox="0 0 720 271" fill="none" xmlns="http://www.w3.org/2000/svg">
<g opacity="0.5">
<path d="M720 78.1661C697.542 78.2736 675.597 84.8958 656.828 97.2294C632.223 81.3141 602.526 75.2506 573.651 80.2467C544.777 85.2429 518.844 100.932 501.017 124.189C485.539 118.318 468.989 115.807 452.467 116.825C435.944 117.843 419.827 122.365 405.187 130.092C389.427 106.645 365.693 89.7141 338.393 82.4442C311.093 75.1744 282.082 78.0594 256.749 90.5635C240.564 72.9241 219.345 60.6907 195.971 55.5233C172.596 50.3559 148.197 52.5046 126.086 61.678C116.937 44.5444 103.652 29.9677 87.4391 19.2718C71.2261 8.57592 52.5978 2.09964 33.2463 0.431072C13.8948 -1.2375 -5.56696 1.95453 -23.3716 9.71729C-41.1763 17.48 -56.7597 29.5676 -68.7067 44.8822C-80.9563 35.1447 -95.0411 27.9732 -110.122 23.7953C-125.202 19.6174 -140.969 18.5186 -156.483 20.5644C-171.997 22.6103 -186.941 27.7589 -200.423 35.7034C-213.904 43.6478 -225.649 54.2254 -234.955 66.8056C-259.444 49.2345 -289.788 41.8351 -319.617 46.1609C-349.445 50.4868 -376.437 66.2014 -394.925 90.0052C-411.004 77.3707 -430.124 69.1895 -450.365 66.2834C-470.606 63.3772 -491.256 65.8483 -510.24 73.4487C-523.83 50.5582 -544.843 33.0066 -569.788 23.7099C-594.732 14.4131 -622.107 13.931 -647.364 22.3435V243.64C-621.2 252.356 -592.793 251.517 -567.19 241.27C-557.495 257.602 -543.956 271.319 -527.75 281.227C-511.545 291.134 -493.165 296.932 -474.208 298.117C-455.252 299.302 -436.292 295.838 -418.98 288.026C-401.667 280.213 -386.525 268.289 -374.871 253.291C-362.61 262.924 -348.541 269.999 -333.497 274.097C-318.454 278.196 -302.74 279.235 -287.288 277.152C-271.836 275.07 -256.958 269.909 -243.536 261.974C-230.114 254.039 -218.42 243.492 -209.146 230.958C-184.691 248.508 -154.393 255.915 -124.599 251.626C-94.8047 247.338 -67.8257 231.687 -49.3129 207.952C-33.0139 220.901 -13.5458 229.252 7.07037 232.137C27.6865 235.023 48.6992 232.337 67.9271 224.36C82.1948 251.081 106.297 271.203 135.136 280.471C163.975 289.739 195.288 287.424 222.451 274.018C239.873 293.012 263.098 305.699 288.495 310.094C313.892 314.489 340.029 310.346 362.822 298.312C373.145 313.677 386.978 326.365 403.177 335.324C419.376 344.284 437.475 349.258 455.978 349.836C474.48 350.414 492.855 346.579 509.581 338.648C526.307 330.716 540.905 318.917 552.167 304.225C569.376 310.755 587.887 313.118 606.184 311.122C624.482 309.126 642.047 302.827 657.443 292.74C676.079 304.82 697.791 311.298 720 311.404V78.1661Z" fill="#E2E2E2"/>
<path d="M-646.794 505H720V90.5521C717.436 90.3812 714.861 90.2672 712.252 90.2672C689.635 90.2666 667.506 96.8423 648.559 109.193C629.613 121.544 614.667 139.138 605.54 159.832C580.888 142.727 550.589 135.787 520.95 140.457C491.31 145.126 464.613 161.045 446.413 184.9C430.68 172.994 412.182 165.273 392.653 162.461C373.123 159.65 353.199 161.838 334.745 168.822C317.09 147.323 292.33 132.845 264.936 128.001C237.541 123.157 209.318 128.268 185.361 142.409C179.037 127.824 169.798 114.686 158.211 103.802C146.624 92.9175 132.934 84.5175 117.982 79.1177C103.029 73.7178 87.1312 71.4321 71.2635 72.4011C55.3958 73.3701 39.8937 77.5732 25.7098 84.7522C14.9863 69.265 0.669922 56.6067 -16.014 47.8608C-32.698 39.1148 -51.2527 34.5417 -70.09 34.5327C-88.9274 34.5238 -107.486 39.0792 -124.179 47.8093C-140.871 56.5394 -155.199 69.1841 -165.938 84.661C-179.466 70.9451 -196.182 60.7941 -214.591 55.1152C-233 49.4362 -252.529 48.4062 -271.434 52.1171C-290.338 55.828 -308.029 64.1643 -322.925 76.381C-337.821 88.5978 -349.459 104.314 -356.799 122.127C-377.254 102.785 -404.02 91.5018 -432.149 90.3644C-460.278 89.227 -487.868 98.3119 -509.818 115.939C-523.299 92.8094 -544.329 75.0229 -569.376 65.5673C-594.423 56.1118 -621.96 55.5633 -647.364 64.0139V285.31L-646.794 285.515V505Z" fill="#EFEFEF"/>
<path d="M708.093 178.485C691.224 178.471 674.554 182.126 659.239 189.195C643.923 196.265 630.328 206.58 619.396 219.426C607.852 205.888 593.363 195.172 577.037 188.099C560.712 181.026 542.984 177.784 525.213 178.621C507.441 179.458 490.096 184.352 474.508 192.928C458.919 201.504 445.501 213.534 435.281 228.098C413.807 208.803 385.938 198.161 357.069 198.23C328.2 198.299 300.384 209.076 279.002 228.474C263.086 210.164 241.852 197.277 218.263 191.609C194.673 185.941 169.903 187.774 147.405 196.853C131.176 181.428 110.847 171.003 88.8492 166.827C66.8516 162.65 44.1164 164.897 23.3625 173.301C13.9839 160.131 1.9679 149.057 -11.9216 140.783C-25.8112 132.508 -41.2705 127.214 -57.3167 125.237C-73.3629 123.259 -89.6448 124.642 -105.128 129.298C-120.61 133.953 -134.955 141.779 -147.25 152.277C-168.367 138.756 -193.283 132.408 -218.295 134.177C-243.307 135.947 -267.081 145.74 -286.083 162.1C-301.336 153.832 -318.24 149.067 -335.565 148.15C-352.891 147.234 -370.202 150.189 -386.243 156.801C-405.237 138.578 -429.841 127.324 -456.048 124.87C-482.255 122.416 -508.521 128.907 -530.568 143.287C-545.312 127.889 -563.998 116.83 -584.592 111.315C-605.185 105.8 -626.897 106.04 -647.364 112.008V505H720V179.112C716.044 178.702 712.07 178.493 708.093 178.485Z" fill="white"/>
</g>
</svg>
