<svg width="72" height="72" viewBox="0 0 72 72" fill="none" xmlns="http://www.w3.org/2000/svg">
<rect width="72" height="72" rx="36" fill="url(#paint0_linear)"/>
<path d="M54.125 35.6875H53.1875V34.75C53.1875 34.5014 53.0887 34.2629 52.9129 34.0871C52.7371 33.9113 52.4986 33.8125 52.25 33.8125C52.0014 33.8125 51.7629 33.9113 51.5871 34.0871C51.4113 34.2629 51.3125 34.5014 51.3125 34.75V35.6875H50.375C50.1264 35.6875 49.8879 35.7863 49.7121 35.9621C49.5363 36.1379 49.4375 36.3764 49.4375 36.625C49.4375 36.8736 49.5363 37.1121 49.7121 37.2879C49.8879 37.4637 50.1264 37.5625 50.375 37.5625H51.3125V38.5C51.3125 38.7486 51.4113 38.9871 51.5871 39.1629C51.7629 39.3387 52.0014 39.4375 52.25 39.4375C52.4986 39.4375 52.7371 39.3387 52.9129 39.1629C53.0887 38.9871 53.1875 38.7486 53.1875 38.5V37.5625H54.125C54.3736 37.5625 54.6121 37.4637 54.7879 37.2879C54.9637 37.1121 55.0625 36.8736 55.0625 36.625C55.0625 36.3764 54.9637 36.1379 54.7879 35.9621C54.6121 35.7863 54.3736 35.6875 54.125 35.6875Z" fill="white"/>
<path d="M50.6875 20.0625V21C50.6875 21.2486 50.7863 21.4871 50.9621 21.6629C51.1379 21.8387 51.3764 21.9375 51.625 21.9375C51.8736 21.9375 52.1121 21.8387 52.2879 21.6629C52.4637 21.4871 52.5625 21.2486 52.5625 21V20.0625H53.5C53.7486 20.0625 53.9871 19.9637 54.1629 19.7879C54.3387 19.6121 54.4375 19.3736 54.4375 19.125C54.4375 18.8764 54.3387 18.6379 54.1629 18.4621C53.9871 18.2863 53.7486 18.1875 53.5 18.1875H52.5625V17.25C52.5625 17.0014 52.4637 16.7629 52.2879 16.5871C52.1121 16.4113 51.8736 16.3125 51.625 16.3125C51.3764 16.3125 51.1379 16.4113 50.9621 16.5871C50.7863 16.7629 50.6875 17.0014 50.6875 17.25V18.1875H49.75C49.5014 18.1875 49.2629 18.2863 49.0871 18.4621C48.9113 18.6379 48.8125 18.8764 48.8125 19.125C48.8125 19.3736 48.9113 19.6121 49.0871 19.7879C49.2629 19.9637 49.5014 20.0625 49.75 20.0625H50.6875Z" fill="white"/>
<path d="M29.75 26.3125H30.6875V27.25C30.6875 27.4986 30.7863 27.7371 30.9621 27.9129C31.1379 28.0887 31.3764 28.1875 31.625 28.1875C31.8736 28.1875 32.1121 28.0887 32.2879 27.9129C32.4637 27.7371 32.5625 27.4986 32.5625 27.25V26.3125H33.5C33.7486 26.3125 33.9871 26.2137 34.1629 26.0379C34.3387 25.8621 34.4375 25.6236 34.4375 25.375C34.4375 25.1264 34.3387 24.8879 34.1629 24.7121C33.9871 24.5363 33.7486 24.4375 33.5 24.4375H32.5625V23.5C32.5625 23.2514 32.4637 23.0129 32.2879 22.8371C32.1121 22.6613 31.8736 22.5625 31.625 22.5625C31.3764 22.5625 31.1379 22.6613 30.9621 22.8371C30.7863 23.0129 30.6875 23.2514 30.6875 23.5V24.4375H29.75C29.5014 24.4375 29.2629 24.5363 29.0871 24.7121C28.9113 24.8879 28.8125 25.1264 28.8125 25.375C28.8125 25.6236 28.9113 25.8621 29.0871 26.0379C29.2629 26.2137 29.5014 26.3125 29.75 26.3125Z" fill="white"/>
<path d="M46.1562 21.7812C46.137 21.0932 45.9701 20.4174 45.6666 19.7995C44.9958 18.4577 43.7266 17.7188 42.0938 17.7188H37.0938C36.8451 17.7188 36.6067 17.8175 36.4308 17.9933C36.255 18.1692 36.1562 18.4076 36.1562 18.6562C36.1562 20.2551 37.1533 21.2549 38.0319 21.7551C38.0319 21.7638 38.0312 21.7726 38.0312 21.7812C38.0312 22.8587 38.4593 23.892 39.2211 24.6539C39.983 25.4157 41.0163 25.8438 42.0938 25.8438C43.1712 25.8438 44.2045 25.4157 44.9664 24.6539C45.7282 23.892 46.1562 22.8587 46.1562 21.7812ZM42.0938 19.5938C42.8652 19.5938 43.4241 19.8312 43.7922 20.3175L43.6402 20.2669C43.5446 20.235 43.4445 20.2188 43.3438 20.2188H39.1484C38.8324 20.0796 38.5553 19.8649 38.3416 19.5938H42.0938ZM42.0938 23.9688C41.5679 23.9681 41.0599 23.7783 40.6625 23.434C40.265 23.0898 40.0046 22.6141 39.9289 22.0938H43.1916L44.1845 22.4247C44.0464 22.8715 43.769 23.2623 43.3928 23.5402C43.0166 23.818 42.5614 23.9682 42.0938 23.9688Z" fill="white"/>
<path d="M44.5938 25.8438H39.5938C38.8481 25.8446 38.1332 26.1412 37.6059 26.6684C37.0787 27.1957 36.7821 27.9106 36.7812 28.6562V34.2812C36.7812 34.5299 36.88 34.7683 37.0558 34.9442C37.2317 35.12 37.4701 35.2188 37.7188 35.2188H46.4688C46.7174 35.2188 46.9558 35.12 47.1317 34.9442C47.3075 34.7683 47.4062 34.5299 47.4062 34.2812V28.6562C47.4054 27.9106 47.1088 27.1957 46.5816 26.6684C46.0543 26.1412 45.3394 25.8446 44.5938 25.8438ZM45.5312 33.3438H38.6562V28.6562C38.6565 28.4077 38.7554 28.1694 38.9311 27.9936C39.1069 27.8179 39.3452 27.719 39.5938 27.7188H44.5938C44.8423 27.719 45.0806 27.8179 45.2564 27.9936C45.4321 28.1694 45.531 28.4077 45.5312 28.6562V33.3438Z" fill="white"/>
<path d="M39.75 38.8125H33.8125V35.4531C33.8125 34.7663 33.8125 33.6172 33.2153 32.5967C32.4738 31.3298 31.0976 30.6875 29.125 30.6875C28.8764 30.6875 28.6379 30.7863 28.4621 30.9621C28.2863 31.1379 28.1875 31.3764 28.1875 31.625V36.4375L26.5091 39.1648L24.4375 40.518V39.75C24.4375 39.5014 24.3387 39.2629 24.1629 39.0871C23.9871 38.9113 23.7486 38.8125 23.5 38.8125H17.25C17.0014 38.8125 16.7629 38.9113 16.5871 39.0871C16.4113 39.2629 16.3125 39.5014 16.3125 39.75V54.75C16.3125 54.9986 16.4113 55.2371 16.5871 55.4129C16.7629 55.5887 17.0014 55.6875 17.25 55.6875H23.5C23.661 55.6875 23.8192 55.6459 23.9595 55.5668C24.0997 55.4877 24.2171 55.3738 24.3005 55.2361C24.8179 55.5323 25.4038 55.688 26 55.6875H38.5C39.0065 55.6879 39.5038 55.5513 39.9391 55.2924C40.3744 55.0334 40.7316 54.6615 40.973 54.2162C41.2143 53.7708 41.3308 53.2685 41.3102 52.7624C41.2895 52.2563 41.1324 51.7652 40.8555 51.341C40.9463 51.2702 41.0328 51.194 41.1145 51.1129C41.5705 50.6571 41.8558 50.0582 41.9225 49.4169C41.9891 48.7756 41.8331 48.1309 41.4805 47.591C41.5713 47.5202 41.6578 47.444 41.7395 47.3629C42.2477 46.8548 42.5418 46.1713 42.5614 45.453C42.5811 44.7346 42.3246 44.0361 41.8449 43.501C42.2071 43.0965 42.4445 42.5957 42.5283 42.0592C42.6121 41.5227 42.5389 40.9734 42.3173 40.4776C42.0958 39.9819 41.7355 39.5608 41.28 39.2654C40.8244 38.9699 40.293 38.8126 39.75 38.8125ZM22.5625 53.8125H18.1875V40.6875H22.5625V53.8125ZM39.1641 53.5371C39.077 53.6246 38.9736 53.694 38.8596 53.7412C38.7456 53.7885 38.6234 53.8127 38.5 53.8125H26C25.5857 53.812 25.1886 53.6473 24.8957 53.3543C24.6027 53.0614 24.438 52.6643 24.4375 52.25V42.7578L27.8408 40.5353C27.948 40.4645 28.0397 40.3727 28.1104 40.2654C28.181 40.1581 28.2292 40.0375 28.2519 39.9111L29.9237 37.1948C30.0146 37.0469 30.0627 36.8767 30.0625 36.7031V32.6328C31.7796 32.9249 31.9375 34.0873 31.9375 35.4531V39.75C31.9375 39.9986 32.0363 40.2371 32.2121 40.4129C32.3879 40.5887 32.6264 40.6875 32.875 40.6875H39.75C39.9986 40.6875 40.2371 40.7863 40.4129 40.9621C40.5887 41.1379 40.6875 41.3764 40.6875 41.625C40.6875 41.8736 40.5887 42.1121 40.4129 42.2879C40.2371 42.4637 39.9986 42.5625 39.75 42.5625H37.875C37.6264 42.5625 37.3879 42.6613 37.2121 42.8371C37.0363 43.0129 36.9375 43.2514 36.9375 43.5C36.9375 43.7486 37.0363 43.9871 37.2121 44.1629C37.3879 44.3387 37.6264 44.4375 37.875 44.4375H39.75C39.9986 44.4375 40.2371 44.5363 40.4129 44.7121C40.5887 44.8879 40.6875 45.1264 40.6875 45.375C40.6875 45.6236 40.5887 45.8621 40.4129 46.0379C40.2371 46.2137 39.9986 46.3125 39.75 46.3125H37.875C37.6264 46.3125 37.3879 46.4113 37.2121 46.5871C37.0363 46.7629 36.9375 47.0014 36.9375 47.25C36.9375 47.4986 37.0363 47.7371 37.2121 47.9129C37.3879 48.0887 37.6264 48.1875 37.875 48.1875H39.125C39.3736 48.1875 39.6121 48.2863 39.7879 48.4621C39.9637 48.6379 40.0625 48.8764 40.0625 49.125C40.0625 49.3736 39.9637 49.6121 39.7879 49.7879C39.6121 49.9637 39.3736 50.0625 39.125 50.0625H37.875C37.6264 50.0625 37.3879 50.1613 37.2121 50.3371C37.0363 50.5129 36.9375 50.7514 36.9375 51C36.9375 51.2486 37.0363 51.4871 37.2121 51.6629C37.3879 51.8387 37.6264 51.9375 37.875 51.9375H38.5C38.6854 51.9374 38.8666 51.9923 39.0207 52.0952C39.1749 52.1981 39.2951 52.3444 39.3662 52.5155C39.4373 52.6867 39.456 52.8752 39.42 53.057C39.384 53.2388 39.295 53.4059 39.1641 53.5371Z" fill="white"/>
<path d="M20.375 53.2656C20.8928 53.2656 21.3125 52.8459 21.3125 52.3281C21.3125 51.8104 20.8928 51.3906 20.375 51.3906C19.8572 51.3906 19.4375 51.8104 19.4375 52.3281C19.4375 52.8459 19.8572 53.2656 20.375 53.2656Z" fill="white"/>
<defs>
<linearGradient id="paint0_linear" x1="0" y1="0" x2="71.9996" y2="0.169583" gradientUnits="userSpaceOnUse">
<stop stop-color="#36D1DC"/>
<stop offset="1" stop-color="#5B86E5"/>
</linearGradient>
</defs>
</svg>
