<svg width="48" height="48" viewBox="0 0 48 48" fill="none" xmlns="http://www.w3.org/2000/svg">
<rect width="48" height="48" rx="24" fill="url(#paint0_linear)"/>
<path d="M34.8281 24.3047H34.2422V23.7188C34.2422 23.5633 34.1805 23.4143 34.0706 23.3044C33.9607 23.1945 33.8117 23.1328 33.6562 23.1328C33.5008 23.1328 33.3518 23.1945 33.2419 23.3044C33.132 23.4143 33.0703 23.5633 33.0703 23.7188V24.3047H32.4844C32.329 24.3047 32.1799 24.3664 32.0701 24.4763C31.9602 24.5862 31.8984 24.7352 31.8984 24.8906C31.8984 25.046 31.9602 25.1951 32.0701 25.3049C32.1799 25.4148 32.329 25.4766 32.4844 25.4766H33.0703V26.0625C33.0703 26.2179 33.132 26.3669 33.2419 26.4768C33.3518 26.5867 33.5008 26.6484 33.6562 26.6484C33.8117 26.6484 33.9607 26.5867 34.0706 26.4768C34.1805 26.3669 34.2422 26.2179 34.2422 26.0625V25.4766H34.8281C34.9835 25.4766 35.1326 25.4148 35.2424 25.3049C35.3523 25.1951 35.4141 25.046 35.4141 24.8906C35.4141 24.7352 35.3523 24.5862 35.2424 24.4763C35.1326 24.3664 34.9835 24.3047 34.8281 24.3047Z" fill="white"/>
<path d="M32.6797 14.5391V15.125C32.6797 15.2804 32.7414 15.4294 32.8513 15.5393C32.9612 15.6492 33.1102 15.7109 33.2656 15.7109C33.421 15.7109 33.5701 15.6492 33.6799 15.5393C33.7898 15.4294 33.8516 15.2804 33.8516 15.125V14.5391H34.4375C34.5929 14.5391 34.7419 14.4773 34.8518 14.3674C34.9617 14.2576 35.0234 14.1085 35.0234 13.9531C35.0234 13.7977 34.9617 13.6487 34.8518 13.5388C34.7419 13.4289 34.5929 13.3672 34.4375 13.3672H33.8516V12.7812C33.8516 12.6258 33.7898 12.4768 33.6799 12.3669C33.5701 12.257 33.421 12.1953 33.2656 12.1953C33.1102 12.1953 32.9612 12.257 32.8513 12.3669C32.7414 12.4768 32.6797 12.6258 32.6797 12.7812V13.3672H32.0938C31.9383 13.3672 31.7893 13.4289 31.6794 13.5388C31.5695 13.6487 31.5078 13.7977 31.5078 13.9531C31.5078 14.1085 31.5695 14.2576 31.6794 14.3674C31.7893 14.4773 31.9383 14.5391 32.0938 14.5391H32.6797Z" fill="white"/>
<path d="M19.5938 18.4453H20.1797V19.0312C20.1797 19.1867 20.2414 19.3357 20.3513 19.4456C20.4612 19.5555 20.6102 19.6172 20.7656 19.6172C20.921 19.6172 21.0701 19.5555 21.1799 19.4456C21.2898 19.3357 21.3516 19.1867 21.3516 19.0312V18.4453H21.9375C22.0929 18.4453 22.2419 18.3836 22.3518 18.2737C22.4617 18.1638 22.5234 18.0148 22.5234 17.8594C22.5234 17.704 22.4617 17.5549 22.3518 17.4451C22.2419 17.3352 22.0929 17.2734 21.9375 17.2734H21.3516V16.6875C21.3516 16.5321 21.2898 16.3831 21.1799 16.2732C21.0701 16.1633 20.921 16.1016 20.7656 16.1016C20.6102 16.1016 20.4612 16.1633 20.3513 16.2732C20.2414 16.3831 20.1797 16.5321 20.1797 16.6875V17.2734H19.5938C19.4383 17.2734 19.2893 17.3352 19.1794 17.4451C19.0695 17.5549 19.0078 17.704 19.0078 17.8594C19.0078 18.0148 19.0695 18.1638 19.1794 18.2737C19.2893 18.3836 19.4383 18.4453 19.5938 18.4453Z" fill="white"/>
<path d="M29.8477 15.6133C29.8357 15.1833 29.7313 14.7608 29.5417 14.3747C29.1224 13.5361 28.3291 13.0742 27.3086 13.0742H24.1836C24.0282 13.0742 23.8792 13.136 23.7693 13.2458C23.6594 13.3557 23.5977 13.5048 23.5977 13.6602C23.5977 14.6594 24.2208 15.2843 24.7699 15.5969C24.7699 15.6024 24.7695 15.6079 24.7695 15.6133C24.7695 16.2867 25.037 16.9325 25.5132 17.4087C25.9894 17.8848 26.6352 18.1523 27.3086 18.1523C27.982 18.1523 28.6278 17.8848 29.104 17.4087C29.5801 16.9325 29.8477 16.2867 29.8477 15.6133ZM27.3086 14.2461C27.7908 14.2461 28.1401 14.3945 28.3701 14.6984L28.2751 14.6668C28.2154 14.6469 28.1528 14.6367 28.0898 14.6367H25.4678C25.2703 14.5497 25.0971 14.4156 24.9635 14.2461H27.3086ZM27.3086 16.9805C26.98 16.98 26.6625 16.8614 26.414 16.6463C26.1656 16.4311 26.0029 16.1338 25.9556 15.8086H27.9948L28.6153 16.0154C28.529 16.2947 28.3556 16.539 28.1205 16.7126C27.8854 16.8862 27.6009 16.9801 27.3086 16.9805Z" fill="white"/>
<path d="M28.8711 18.1523H25.7461C25.2801 18.1529 24.8332 18.3382 24.5037 18.6678C24.1742 18.9973 23.9888 19.4441 23.9883 19.9102V23.4258C23.9883 23.5812 24.05 23.7302 24.1599 23.8401C24.2698 23.95 24.4188 24.0117 24.5742 24.0117H30.043C30.1984 24.0117 30.3474 23.95 30.4573 23.8401C30.5672 23.7302 30.6289 23.5812 30.6289 23.4258V19.9102C30.6284 19.4441 30.443 18.9973 30.1135 18.6678C29.7839 18.3382 29.3371 18.1529 28.8711 18.1523ZM29.457 22.8398H25.1602V19.9102C25.1603 19.7548 25.2221 19.6059 25.332 19.496C25.4418 19.3862 25.5907 19.3244 25.7461 19.3242H28.8711C29.0264 19.3244 29.1754 19.3862 29.2852 19.496C29.3951 19.6059 29.4569 19.7548 29.457 19.9102V22.8398Z" fill="white"/>
<path d="M25.8438 26.2578H22.1328V24.1582C22.1328 23.729 22.1328 23.0107 21.7596 22.3729C21.2961 21.5812 20.436 21.1797 19.2031 21.1797C19.0477 21.1797 18.8987 21.2414 18.7888 21.3513C18.6789 21.4612 18.6172 21.6102 18.6172 21.7656V24.7734L17.5682 26.478L16.2734 27.3238V26.8438C16.2734 26.6883 16.2117 26.5393 16.1018 26.4294C15.9919 26.3195 15.8429 26.2578 15.6875 26.2578H11.7812C11.6258 26.2578 11.4768 26.3195 11.3669 26.4294C11.257 26.5393 11.1953 26.6883 11.1953 26.8438V36.2188C11.1953 36.3742 11.257 36.5232 11.3669 36.6331C11.4768 36.743 11.6258 36.8047 11.7812 36.8047H15.6875C15.7881 36.8047 15.887 36.7787 15.9747 36.7293C16.0623 36.6798 16.1357 36.6086 16.1878 36.5226C16.5112 36.7077 16.8774 36.805 17.25 36.8047H25.0625C25.3791 36.8049 25.6898 36.7196 25.9619 36.5577C26.234 36.3958 26.4573 36.1635 26.6081 35.8851C26.7589 35.6068 26.8318 35.2928 26.8188 34.9765C26.8059 34.6602 26.7078 34.3532 26.5347 34.0881C26.5914 34.0439 26.6455 33.9963 26.6965 33.9456C26.9816 33.6607 27.1599 33.2864 27.2015 32.8856C27.2432 32.4847 27.1457 32.0818 26.9253 31.7444C26.9821 31.7001 27.0361 31.6525 27.0872 31.6018C27.4048 31.2843 27.5886 30.8571 27.6009 30.4081C27.6132 29.9591 27.4529 29.5225 27.1531 29.1881C27.3795 28.9353 27.5278 28.6223 27.5802 28.287C27.6326 27.9517 27.5868 27.6084 27.4483 27.2985C27.3099 26.9887 27.0847 26.7255 26.8 26.5408C26.5152 26.3562 26.1831 26.2579 25.8438 26.2578ZM15.1016 35.6328H12.3672V27.4297H15.1016V35.6328ZM25.4775 35.4607C25.4232 35.5154 25.3585 35.5587 25.2872 35.5883C25.216 35.6178 25.1396 35.633 25.0625 35.6328H17.25C16.9911 35.6325 16.7429 35.5295 16.5598 35.3465C16.3767 35.1634 16.2737 34.9152 16.2734 34.6562V28.7236L18.4005 27.3346C18.4675 27.2903 18.5248 27.2329 18.569 27.1659C18.6131 27.0988 18.6432 27.0235 18.6574 26.9444L19.7023 25.2468C19.7591 25.1543 19.7892 25.0479 19.7891 24.9395V22.3955C20.8623 22.5781 20.9609 23.3045 20.9609 24.1582V26.8438C20.9609 26.9992 21.0227 27.1482 21.1326 27.2581C21.2424 27.368 21.3915 27.4297 21.5469 27.4297H25.8438C25.9992 27.4297 26.1482 27.4914 26.2581 27.6013C26.368 27.7112 26.4297 27.8602 26.4297 28.0156C26.4297 28.171 26.368 28.3201 26.2581 28.4299C26.1482 28.5398 25.9992 28.6016 25.8438 28.6016H24.6719C24.5165 28.6016 24.3674 28.6633 24.2576 28.7732C24.1477 28.8831 24.0859 29.0321 24.0859 29.1875C24.0859 29.3429 24.1477 29.4919 24.2576 29.6018C24.3674 29.7117 24.5165 29.7734 24.6719 29.7734H25.8438C25.9992 29.7734 26.1482 29.8352 26.2581 29.9451C26.368 30.0549 26.4297 30.204 26.4297 30.3594C26.4297 30.5148 26.368 30.6638 26.2581 30.7737C26.1482 30.8836 25.9992 30.9453 25.8438 30.9453H24.6719C24.5165 30.9453 24.3674 31.007 24.2576 31.1169C24.1477 31.2268 24.0859 31.3758 24.0859 31.5312C24.0859 31.6867 24.1477 31.8357 24.2576 31.9456C24.3674 32.0555 24.5165 32.1172 24.6719 32.1172H25.4531C25.6085 32.1172 25.7576 32.1789 25.8674 32.2888C25.9773 32.3987 26.0391 32.5477 26.0391 32.7031C26.0391 32.8585 25.9773 33.0076 25.8674 33.1174C25.7576 33.2273 25.6085 33.2891 25.4531 33.2891H24.6719C24.5165 33.2891 24.3674 33.3508 24.2576 33.4607C24.1477 33.5706 24.0859 33.7196 24.0859 33.875C24.0859 34.0304 24.1477 34.1794 24.2576 34.2893C24.3674 34.3992 24.5165 34.4609 24.6719 34.4609H25.0625C25.1783 34.4609 25.2916 34.4952 25.388 34.5595C25.4843 34.6238 25.5595 34.7152 25.6039 34.8222C25.6483 34.9292 25.66 35.047 25.6375 35.1606C25.615 35.2743 25.5594 35.3787 25.4775 35.4607Z" fill="white"/>
<path d="M13.7344 35.291C14.058 35.291 14.3203 35.0287 14.3203 34.7051C14.3203 34.3815 14.058 34.1191 13.7344 34.1191C13.4108 34.1191 13.1484 34.3815 13.1484 34.7051C13.1484 35.0287 13.4108 35.291 13.7344 35.291Z" fill="white"/>
<defs>
<linearGradient id="paint0_linear" x1="0" y1="0" x2="47.9997" y2="0.113056" gradientUnits="userSpaceOnUse">
<stop stop-color="#36D1DC"/>
<stop offset="1" stop-color="#5B86E5"/>
</linearGradient>
</defs>
</svg>
