<svg width="48" height="48" viewBox="0 0 48 48" fill="none" xmlns="http://www.w3.org/2000/svg">
<rect width="48" height="48" rx="24" fill="url(#paint0_linear)"/>
<path d="M30.8419 29.0921C30.7086 29.0921 30.5753 29.0411 30.4732 28.94L28.2636 26.7305C28.0605 26.5273 27.7302 26.5273 27.5271 26.7305C27.3239 26.9336 27.3239 27.2638 27.5271 27.467C27.7302 27.6701 27.7302 28.0004 27.5271 28.2035C27.3239 28.4066 26.9937 28.4066 26.7906 28.2035C26.1811 27.5941 26.1811 26.6034 26.7906 25.9939C27.4 25.3856 28.3907 25.3856 29.0001 25.9939L31.2107 28.2035C31.4139 28.4066 31.4139 28.7369 31.2107 28.94C31.1086 29.0411 30.9753 29.0921 30.8419 29.0921Z" fill="white"/>
<path d="M29.3673 27.6192C29.2339 27.6192 29.1006 27.5681 28.9985 27.4671C28.3911 26.8577 28.3911 25.867 28.9985 25.2575C29.5891 24.6679 30.6184 24.6679 31.2091 25.2575L32.6821 26.7306C32.8853 26.9337 32.8853 27.2639 32.6821 27.4671C32.479 27.6702 32.1487 27.6702 31.9456 27.4671L30.4726 25.994C30.2684 25.7899 29.9381 25.7919 29.735 25.994C29.5329 26.1972 29.5329 26.5274 29.735 26.7306C29.9371 26.9337 29.9381 27.2639 29.735 27.4671C29.6339 27.5681 29.5006 27.6192 29.3673 27.6192Z" fill="white"/>
<path d="M31.0353 36.0002C30.6519 36.0002 30.2664 35.9533 29.8872 35.8564L26.2547 34.9303C26.1192 34.8959 26.0036 34.8095 25.9338 34.6886C25.6859 34.2636 25.4296 33.2458 26.238 32.4395C26.5964 32.0811 27.0787 31.9415 27.5496 31.9092L23.1065 27.4662C22.4971 26.8567 22.4971 25.866 23.1065 25.2566C23.6972 24.667 24.7274 24.667 25.3171 25.2566L29.7362 29.6757C29.9393 29.8789 29.9393 30.2091 29.7362 30.4122C29.533 30.6154 29.2028 30.6154 28.9997 30.4122L24.5795 25.9931C24.3837 25.7973 24.0409 25.7973 23.843 25.9931C23.6399 26.1963 23.6399 26.5265 23.843 26.7296L29.3674 32.2551C29.5383 32.4259 29.5685 32.6905 29.4424 32.8958C29.3164 33.101 29.0674 33.1906 28.8351 33.1177C28.3913 32.9729 27.3547 32.7947 26.9735 33.176C26.6818 33.4677 26.7047 33.7906 26.7599 33.9844L30.1435 34.847C31.3811 35.1647 32.7166 34.797 33.6219 33.8917L34.8918 32.6228C36.3128 31.2008 36.3128 28.8882 34.8918 27.4662L32.6812 25.2566C32.4843 25.0597 32.1416 25.0597 31.9447 25.2566C31.8447 25.3556 31.7916 25.4858 31.7905 25.6243C31.7905 25.7639 31.8447 25.8952 31.9437 25.9931C32.1468 26.1963 32.1468 26.5265 31.9437 26.7296C31.7405 26.9328 31.4103 26.9328 31.2071 26.7296C30.9113 26.4338 30.7488 26.041 30.7488 25.6233C30.7488 25.2066 30.9123 24.8139 31.2082 24.519C31.7968 23.9273 32.8271 23.9273 33.4177 24.519L35.6273 26.7286C37.4545 28.5569 37.4545 31.53 35.6273 33.3583L34.3574 34.6272C33.473 35.5158 32.2656 36.0002 31.0353 36.0002Z" fill="white"/>
<path d="M22.9384 32.8768H14.6044C13.1688 32.8768 12 31.709 12 30.2725V16.7297C12 15.2931 13.1688 14.1253 14.6044 14.1253H16.6879C16.9754 14.1253 17.2088 14.3587 17.2088 14.6462C17.2088 14.9337 16.9754 15.1671 16.6879 15.1671H14.6044C13.7429 15.1671 13.0418 15.8682 13.0418 16.7297V30.2725C13.0418 31.134 13.7429 31.8351 14.6044 31.8351H22.9384C23.2259 31.8351 23.4593 32.0684 23.4593 32.356C23.4593 32.6435 23.2259 32.8768 22.9384 32.8768Z" fill="white"/>
<path d="M23.9806 17.2505H17.7301C16.8686 17.2505 16.1675 16.5494 16.1675 15.6879V13.6044C16.1675 13.3169 16.4008 13.0835 16.6884 13.0835H18.3031C18.5458 11.8959 19.5969 11 20.8554 11C22.1138 11 23.1649 11.8959 23.4077 13.0835H25.0224C25.3099 13.0835 25.5432 13.3169 25.5432 13.6044V15.6879C25.5432 16.5494 24.8422 17.2505 23.9806 17.2505ZM17.2092 14.1253V15.6879C17.2092 15.9744 17.4426 16.2088 17.7301 16.2088H23.9806C24.2681 16.2088 24.5015 15.9744 24.5015 15.6879V14.1253H22.9389C22.6513 14.1253 22.418 13.8919 22.418 13.6044C22.418 12.7429 21.7169 12.0418 20.8554 12.0418C19.9938 12.0418 19.2927 12.7429 19.2927 13.6044C19.2927 13.8919 19.0594 14.1253 18.7719 14.1253H17.2092Z" fill="white"/>
<path d="M29.1903 23.5011C28.9028 23.5011 28.6694 23.2677 28.6694 22.9802V16.7297C28.6694 15.8682 27.9684 15.1671 27.1068 15.1671H25.0233C24.7358 15.1671 24.5024 14.9337 24.5024 14.6462C24.5024 14.3587 24.7358 14.1253 25.0233 14.1253H27.1068C28.5424 14.1253 29.7112 15.2931 29.7112 16.7297V22.9802C29.7112 23.2677 29.4778 23.5011 29.1903 23.5011Z" fill="white"/>
<path d="M26.0634 20.3758H15.6459C15.3584 20.3758 15.125 20.1424 15.125 19.8549C15.125 19.5674 15.3584 19.334 15.6459 19.334H26.0634C26.3509 19.334 26.5843 19.5674 26.5843 19.8549C26.5843 20.1424 26.3509 20.3758 26.0634 20.3758Z" fill="white"/>
<path d="M26.0634 23.5011H15.6459C15.3584 23.5011 15.125 23.2678 15.125 22.9802C15.125 22.6927 15.3584 22.4594 15.6459 22.4594H26.0634C26.3509 22.4594 26.5843 22.6927 26.5843 22.9802C26.5843 23.2678 26.3509 23.5011 26.0634 23.5011Z" fill="white"/>
<path d="M20.8546 26.6264H15.6459C15.3584 26.6264 15.125 26.3931 15.125 26.1055C15.125 25.818 15.3584 25.5847 15.6459 25.5847H20.8546C21.1422 25.5847 21.3755 25.818 21.3755 26.1055C21.3755 26.3931 21.1422 26.6264 20.8546 26.6264Z" fill="white"/>
<defs>
<linearGradient id="paint0_linear" x1="0" y1="0" x2="47.9997" y2="0.113056" gradientUnits="userSpaceOnUse">
<stop stop-color="#36D1DC"/>
<stop offset="1" stop-color="#5B86E5"/>
</linearGradient>
</defs>
</svg>
