<svg width="72" height="72" viewBox="0 0 72 72" fill="none" xmlns="http://www.w3.org/2000/svg">
<rect width="72" height="72" rx="36" fill="url(#paint0_linear)"/>
<path d="M46.1457 44.9474C45.9323 44.9474 45.719 44.8657 45.5556 44.7041L42.0203 41.1688C41.6953 40.8437 41.1669 40.8437 40.8419 41.1688C40.5168 41.4938 40.5168 42.0222 40.8419 42.3472C41.1669 42.6722 41.1669 43.2006 40.8419 43.5256C40.5168 43.8506 39.9885 43.8506 39.6634 43.5256C38.6884 42.5505 38.6884 40.9654 39.6634 39.9903C40.6385 39.0169 42.2237 39.0169 43.1987 39.9903L46.7357 43.5256C47.0607 43.8506 47.0607 44.379 46.7357 44.7041C46.5724 44.8657 46.359 44.9474 46.1457 44.9474Z" fill="white"/>
<path d="M43.7871 42.5906C43.5738 42.5906 43.3604 42.509 43.1971 42.3473C42.2253 41.3722 42.2253 39.7871 43.1971 38.812C44.1422 37.8686 45.789 37.8686 46.734 38.812L49.0909 41.1689C49.4159 41.4939 49.4159 42.0223 49.0909 42.3473C48.7659 42.6723 48.2375 42.6723 47.9125 42.3473L45.5556 39.9904C45.2289 39.6637 44.7005 39.6671 44.3755 39.9904C44.0521 40.3155 44.0521 40.8438 44.3755 41.1689C44.6989 41.4939 44.7005 42.0223 44.3755 42.3473C44.2138 42.509 44.0005 42.5906 43.7871 42.5906Z" fill="white"/>
<path d="M46.456 56C45.8426 56 45.2259 55.925 44.6191 55.77L38.807 54.2882C38.5903 54.2332 38.4053 54.0948 38.2936 53.9015C37.8969 53.2214 37.4869 51.593 38.7803 50.3028C39.3537 49.7295 40.1254 49.5061 40.8788 49.4544L33.7699 42.3455C32.7948 41.3704 32.7948 39.7853 33.7699 38.8102C34.715 37.8668 36.3634 37.8668 37.3069 38.8102L44.3775 45.8808C44.7025 46.2058 44.7025 46.7342 44.3775 47.0592C44.0524 47.3843 43.524 47.3843 43.199 47.0592L36.1268 39.9886C35.8134 39.6753 35.265 39.6753 34.9483 39.9886C34.6233 40.3137 34.6233 40.842 34.9483 41.1671L43.7874 50.0078C44.0608 50.2812 44.1091 50.7045 43.9074 51.0329C43.7057 51.3613 43.3074 51.5046 42.9357 51.3879C42.2256 51.1563 40.5671 50.8712 39.9571 51.4813C39.4904 51.948 39.527 52.4647 39.6154 52.7747L45.0292 54.1548C47.0093 54.6632 49.1462 54.0748 50.5946 52.6264L52.6265 50.5962C54.9 48.321 54.9 44.6207 52.6265 42.3455L49.0895 38.8102C48.7745 38.4952 48.2261 38.4952 47.9111 38.8102C47.7511 38.9686 47.6661 39.1769 47.6644 39.3986C47.6644 39.6219 47.7511 39.832 47.9094 39.9886C48.2344 40.3137 48.2344 40.842 47.9094 41.1671C47.5844 41.4921 47.056 41.4921 46.731 41.1671C46.2576 40.6937 45.9976 40.0653 45.9976 39.3969C45.9976 38.7302 46.2593 38.1018 46.7327 37.6301C47.6744 36.6834 49.3229 36.6834 50.268 37.6301L53.8033 41.1654C56.7268 44.0907 56.7268 48.8477 53.8033 51.773L51.7714 53.8031C50.3563 55.2249 48.4245 56 46.456 56Z" fill="white"/>
<path d="M33.5015 51.003H20.167C17.8702 51.003 16 49.1345 16 46.836V25.1674C16 22.8689 17.8702 21.0004 20.167 21.0004H23.5006C23.9607 21.0004 24.334 21.3738 24.334 21.8338C24.334 22.2939 23.9607 22.6672 23.5006 22.6672H20.167C18.7886 22.6672 17.6668 23.789 17.6668 25.1674V46.836C17.6668 48.2144 18.7886 49.3362 20.167 49.3362H33.5015C33.9615 49.3362 34.3349 49.7095 34.3349 50.1696C34.3349 50.6296 33.9615 51.003 33.5015 51.003Z" fill="white"/>
<path d="M35.1681 26.0008H25.1672C23.7888 26.0008 22.667 24.8791 22.667 23.5006V20.167C22.667 19.707 23.0404 19.3336 23.5004 19.3336H26.0839C26.4723 17.4335 28.1541 16 30.1676 16C32.1811 16 33.8629 17.4335 34.2513 19.3336H36.8349C37.2949 19.3336 37.6683 19.707 37.6683 20.167V23.5006C37.6683 24.8791 36.5465 26.0008 35.1681 26.0008ZM24.3338 21.0004V23.5006C24.3338 23.959 24.7072 24.334 25.1672 24.334H35.1681C35.6281 24.334 36.0015 23.959 36.0015 23.5006V21.0004H33.5012C33.0412 21.0004 32.6678 20.6271 32.6678 20.167C32.6678 18.7886 31.5461 17.6668 30.1676 17.6668C28.7892 17.6668 27.6674 18.7886 27.6674 20.167C27.6674 20.6271 27.2941 21.0004 26.834 21.0004H24.3338Z" fill="white"/>
<path d="M43.5026 36.0017C43.0426 36.0017 42.6692 35.6283 42.6692 35.1683V25.1674C42.6692 23.789 41.5474 22.6672 40.169 22.6672H36.8354C36.3753 22.6672 36.002 22.2939 36.002 21.8338C36.002 21.3738 36.3753 21.0004 36.8354 21.0004H40.169C42.4658 21.0004 44.336 22.8689 44.336 25.1674V35.1683C44.336 35.6283 43.9626 36.0017 43.5026 36.0017Z" fill="white"/>
<path d="M38.502 31.0012H21.8339C21.3739 31.0012 21.0005 30.6279 21.0005 30.1678C21.0005 29.7078 21.3739 29.3344 21.8339 29.3344H38.502C38.962 29.3344 39.3354 29.7078 39.3354 30.1678C39.3354 30.6279 38.962 31.0012 38.502 31.0012Z" fill="white"/>
<path d="M38.502 36.0017H21.8339C21.3739 36.0017 21.0005 35.6283 21.0005 35.1683C21.0005 34.7083 21.3739 34.3349 21.8339 34.3349H38.502C38.962 34.3349 39.3354 34.7083 39.3354 35.1683C39.3354 35.6283 38.962 36.0017 38.502 36.0017Z" fill="white"/>
<path d="M30.1679 41.0023H21.8339C21.3739 41.0023 21.0005 40.6289 21.0005 40.1689C21.0005 39.7088 21.3739 39.3354 21.8339 39.3354H30.1679C30.628 39.3354 31.0013 39.7088 31.0013 40.1689C31.0013 40.6289 30.628 41.0023 30.1679 41.0023Z" fill="white"/>
<defs>
<linearGradient id="paint0_linear" x1="0" y1="0" x2="71.9996" y2="0.169583" gradientUnits="userSpaceOnUse">
<stop stop-color="#36D1DC"/>
<stop offset="1" stop-color="#5B86E5"/>
</linearGradient>
</defs>
</svg>
