<svg width="324" height="393" viewBox="0 0 324 393" fill="none" xmlns="http://www.w3.org/2000/svg">
<path d="M205.698 365.002H27.2369C24.369 364.962 21.6222 363.839 19.5466 361.86C17.471 359.88 16.2198 357.189 16.0437 354.327L0.0234722 44.345C-0.0713048 42.961 0.121608 41.5723 0.590056 40.2665C1.0585 38.9607 1.79233 37.766 2.7453 36.7579C3.69827 35.7497 4.84973 34.9498 6.12711 34.4087C7.40449 33.8675 8.78012 33.5968 10.1673 33.6135H188.657C191.525 33.654 194.272 34.7764 196.347 36.756C198.423 38.7356 199.674 41.4262 199.85 44.289L215.828 354.271C215.923 355.653 215.73 357.041 215.263 358.346C214.795 359.651 214.063 360.845 213.111 361.853C212.16 362.861 211.01 363.661 209.734 364.203C208.459 364.745 207.084 365.017 205.698 365.002Z" fill="#E4EDFF"/>
<path opacity="0.8" d="M205.698 365.002H27.2369C24.369 364.962 21.6222 363.839 19.5466 361.86C17.471 359.88 16.2198 357.189 16.0437 354.327L0.0234722 44.345C-0.0713048 42.961 0.121608 41.5723 0.590056 40.2665C1.0585 38.9607 1.79233 37.766 2.7453 36.7579C3.69827 35.7497 4.84973 34.9498 6.12711 34.4087C7.40449 33.8675 8.78012 33.5968 10.1673 33.6135H188.657C191.525 33.654 194.272 34.7764 196.347 36.756C198.423 38.7356 199.674 41.4262 199.85 44.289L215.828 354.271C215.923 355.653 215.73 357.041 215.263 358.346C214.795 359.651 214.063 360.845 213.111 361.853C212.16 362.861 211.01 363.661 209.734 364.203C208.459 364.745 207.084 365.017 205.698 365.002Z" fill="white"/>
<path d="M171.041 23.5537H151.299V24.9529H171.041V23.5537Z" fill="#E4EDFF"/>
<path d="M144.472 23.5537H137.238V24.9529H144.472V23.5537Z" fill="#E4EDFF"/>
<path d="M213.408 345.344H42.698C39.9469 345.317 37.3083 344.248 35.3142 342.353C33.3201 340.458 32.1188 337.877 31.9525 335.13L16.6878 38.6646C16.603 37.3462 16.7912 36.0245 17.2408 34.7823C17.6903 33.54 18.3915 32.4039 19.3003 31.4452C20.2092 30.4864 21.3062 29.7256 22.5227 29.2103C23.7391 28.6951 25.0489 28.4365 26.3699 28.4508H197.066C199.817 28.4776 202.456 29.5465 204.45 31.4419C206.444 33.3374 207.645 35.9184 207.812 38.6646L223.104 335.13C223.189 336.45 223.001 337.773 222.55 339.016C222.1 340.259 221.397 341.396 220.487 342.355C219.577 343.314 218.478 344.074 217.26 344.589C216.042 345.103 214.73 345.36 213.408 345.344Z" fill="#E4EDFF"/>
<path d="M213.407 338.53H42.6972C41.6983 338.496 40.7466 338.097 40.0221 337.409C39.2976 336.72 38.8505 335.79 38.7655 334.794L23.4868 38.3146C23.453 37.9204 23.5031 37.5236 23.6338 37.1502C23.7646 36.7769 23.973 36.4355 24.2454 36.1486C24.5178 35.8617 24.8479 35.6358 25.2139 35.4858C25.58 35.3358 25.9737 35.2651 26.3691 35.2784H197.065C198.066 35.3128 199.02 35.7138 199.745 36.4051C200.47 37.0964 200.915 38.0299 200.997 39.0282L216.276 335.494C216.31 335.888 216.259 336.285 216.129 336.658C215.998 337.032 215.789 337.373 215.517 337.66C215.245 337.947 214.915 338.173 214.549 338.323C214.182 338.473 213.789 338.543 213.393 338.53H213.407ZM26.3691 35.6282C26.0179 35.6083 25.6666 35.6647 25.3393 35.7935C25.012 35.9224 24.7166 36.1206 24.4732 36.3746C24.2299 36.6285 24.0445 36.9322 23.9298 37.2647C23.815 37.5972 23.7737 37.9506 23.8086 38.3006L39.1153 334.766C39.1902 335.676 39.5964 336.525 40.2567 337.155C40.917 337.784 41.7855 338.149 42.6972 338.18H213.393C213.742 338.196 214.09 338.137 214.414 338.006C214.738 337.875 215.03 337.676 215.27 337.423C215.511 337.169 215.693 336.867 215.807 336.537C215.92 336.206 215.96 335.855 215.926 335.508L200.661 39.0422C200.586 38.133 200.18 37.2831 199.52 36.6537C198.859 36.0244 197.991 35.6594 197.079 35.6282H26.3691Z" fill="white"/>
<path opacity="0.3" d="M167.417 106.37C167.843 113.038 166.888 119.723 164.614 126.005C162.339 132.288 158.793 138.035 154.197 142.885C149.601 147.736 144.055 151.586 137.903 154.196C131.752 156.806 125.129 158.12 118.447 158.054C104.525 157.917 91.173 152.508 81.081 142.917C70.9889 133.326 64.9075 120.266 64.0621 106.37C63.6242 99.6907 64.5709 92.9934 66.8426 86.6976C69.1144 80.4018 72.6623 74.6432 77.2639 69.7828C81.8655 64.9224 87.4216 61.065 93.5838 58.4526C99.7461 55.8401 106.382 54.5288 113.074 54.601C127.002 54.7501 140.356 60.1755 150.441 69.783C160.526 79.3904 166.593 92.465 167.417 106.37Z" fill="white"/>
<path d="M157.554 106.369C157.939 113.242 156.552 120.098 153.524 126.279C150.26 132.923 145.18 138.506 138.873 142.381C132.566 146.257 125.29 148.266 117.888 148.176C110.216 148.105 102.694 146.049 96.0542 142.206C89.4141 138.364 83.8827 132.867 79.9988 126.251C76.3857 120.217 74.3012 113.392 73.9265 106.369C73.5776 100.969 74.3474 95.5545 76.1877 90.4653C78.0279 85.376 80.899 80.7215 84.6212 76.7931C88.3434 72.8647 92.8365 69.7471 97.8192 67.6353C102.802 65.5236 108.167 64.4633 113.578 64.5208C124.843 64.6386 135.644 69.0222 143.804 76.788C151.965 84.5539 156.878 95.1245 157.554 106.369Z" fill="white"/>
<path d="M153.524 126.251C150.26 132.895 145.18 138.478 138.873 142.353C132.566 146.229 125.29 148.238 117.888 148.148C110.219 148.08 102.699 146.028 96.0591 142.191C89.4193 138.353 83.8863 132.862 79.999 126.251C90.6323 118.91 103.26 115.004 116.181 115.058C129.448 115.107 142.418 118.995 153.524 126.251Z" fill="#E4EDFF"/>
<path d="M133.628 92.028C133.78 94.4327 133.434 96.8429 132.613 99.108C131.791 101.373 130.511 103.444 128.852 105.192C127.194 106.94 125.193 108.327 122.974 109.266C120.755 110.205 118.366 110.677 115.957 110.651C110.942 110.6 106.132 108.65 102.497 105.194C98.8627 101.739 96.6726 97.034 96.3685 92.028C96.2163 89.6233 96.5618 87.2131 97.3835 84.948C98.2052 82.6829 99.4853 80.6117 101.144 78.8639C102.802 77.116 104.804 75.7291 107.023 74.7899C109.242 73.8507 111.63 73.3793 114.04 73.4053C119.055 73.4563 123.864 75.4059 127.499 78.8616C131.134 82.3172 133.324 87.022 133.628 92.028Z" fill="#E4EDFF"/>
<path d="M188.909 230.026H55.2758C54.1116 230.014 52.9952 229.561 52.1514 228.759C51.3077 227.957 50.7992 226.865 50.7285 225.703L49.7211 206.115C49.6844 205.556 49.7636 204.996 49.9537 204.47C50.1437 203.944 50.4406 203.463 50.8256 203.057C51.2106 202.651 51.6754 202.329 52.1908 202.111C52.7063 201.893 53.2612 201.784 53.8207 201.791H187.509C188.674 201.803 189.79 202.256 190.634 203.058C191.477 203.86 191.986 204.953 192.057 206.115L193.064 225.703C193.101 226.266 193.02 226.831 192.827 227.361C192.634 227.891 192.332 228.375 191.941 228.782C191.55 229.189 191.078 229.509 190.556 229.724C190.034 229.938 189.473 230.041 188.909 230.026Z" fill="white"/>
<path opacity="0.3" d="M148.011 190.948H92.1853C91.0211 190.936 89.9047 190.483 89.0609 189.681C88.2172 188.879 87.7088 187.787 87.638 186.625L87.4282 182.427C87.3915 181.869 87.4706 181.309 87.6607 180.783C87.8508 180.256 88.1476 179.775 88.5326 179.369C88.9176 178.963 89.3825 178.641 89.8979 178.423C90.4133 178.206 90.9682 178.097 91.5277 178.104H147.354C148.518 178.116 149.634 178.569 150.478 179.371C151.322 180.173 151.83 181.265 151.901 182.427L152.111 186.625C152.148 187.183 152.068 187.743 151.878 188.269C151.688 188.795 151.391 189.277 151.006 189.683C150.621 190.089 150.157 190.411 149.641 190.628C149.126 190.846 148.571 190.955 148.011 190.948Z" fill="#578EE4"/>
<path opacity="0.3" d="M168.774 324.175H85.1613C83.1801 324.154 81.2804 323.383 79.8448 322.017C78.4092 320.652 77.5442 318.793 77.424 316.815L76.9763 307.161C76.9269 306.212 77.0712 305.263 77.4006 304.372C77.73 303.481 78.2375 302.666 78.8921 301.978C79.5467 301.289 80.3347 300.741 81.2081 300.367C82.0815 299.993 83.0219 299.8 83.972 299.802H167.585C169.566 299.823 171.466 300.594 172.902 301.959C174.337 303.325 175.202 305.184 175.322 307.161L175.826 316.801C175.878 317.756 175.733 318.711 175.401 319.608C175.069 320.505 174.557 321.324 173.896 322.015C173.236 322.706 172.44 323.254 171.559 323.625C170.678 323.997 169.731 324.184 168.774 324.175Z" fill="#578EE4"/>
<path d="M191.386 277.359H57.7248C56.5653 277.344 55.4543 276.892 54.6139 276.093C53.7734 275.294 53.2655 274.207 53.1916 273.05L52.1842 253.462C52.1396 252.901 52.2119 252.338 52.3967 251.807C52.5814 251.276 52.8745 250.789 53.2573 250.377C53.6401 249.966 54.1043 249.638 54.6205 249.415C55.1366 249.192 55.6935 249.079 56.2557 249.083H189.916C191.081 249.095 192.197 249.547 193.041 250.35C193.885 251.152 194.393 252.244 194.464 253.406L195.471 272.994C195.514 273.555 195.439 274.118 195.253 274.648C195.067 275.178 194.772 275.664 194.388 276.075C194.004 276.485 193.538 276.811 193.022 277.032C192.505 277.254 191.948 277.365 191.386 277.359Z" fill="white"/>
<path d="M72.2757 215.881C72.3141 216.498 72.2251 217.116 72.0142 217.698C71.8033 218.279 71.475 218.81 71.0497 219.259C70.6245 219.708 70.1114 220.065 69.5424 220.307C68.9734 220.549 68.3607 220.671 67.7424 220.666C66.4531 220.654 65.2162 220.154 64.2814 219.266C63.3465 218.377 62.7834 217.168 62.7055 215.881C62.6674 215.268 62.7547 214.655 62.9623 214.077C63.1698 213.5 63.4931 212.971 63.9123 212.523C64.3315 212.075 64.8378 211.717 65.4002 211.472C65.9626 211.226 66.5692 211.098 67.1828 211.096C68.4818 211.093 69.7327 211.587 70.6794 212.477C71.6261 213.366 72.1972 214.584 72.2757 215.881Z" fill="#263238"/>
<path d="M86.9803 215.881C87.0187 216.498 86.9297 217.116 86.7188 217.698C86.5078 218.279 86.1796 218.811 85.7543 219.259C85.3291 219.708 84.816 220.065 84.247 220.307C83.678 220.549 83.0653 220.671 82.447 220.666C81.1577 220.654 79.9208 220.154 78.9859 219.266C78.0511 218.378 77.488 217.168 77.4101 215.881C77.3717 215.264 77.4607 214.645 77.6716 214.064C77.8825 213.483 78.2108 212.951 78.636 212.502C79.0613 212.054 79.5743 211.697 80.1433 211.455C80.7123 211.213 81.325 211.091 81.9433 211.096C83.2327 211.108 84.4696 211.608 85.4044 212.496C86.3392 213.384 86.9024 214.594 86.9803 215.881Z" fill="#263238"/>
<path d="M101.685 215.881C101.723 216.498 101.634 217.116 101.423 217.698C101.212 218.279 100.884 218.811 100.459 219.259C100.034 219.708 99.5206 220.065 98.9516 220.307C98.3826 220.549 97.7699 220.671 97.1516 220.666C95.8622 220.654 94.6254 220.154 93.6905 219.266C92.7557 218.378 92.1925 217.168 92.1147 215.881C92.0762 215.264 92.1653 214.645 92.3762 214.064C92.5871 213.483 92.9154 212.951 93.3406 212.502C93.7658 212.054 94.2789 211.697 94.8479 211.455C95.4169 211.213 96.0296 211.091 96.6479 211.096C97.9373 211.108 99.1742 211.608 100.109 212.496C101.044 213.384 101.607 214.594 101.685 215.881Z" fill="#263238"/>
<path d="M116.376 215.881C116.415 216.498 116.326 217.116 116.115 217.698C115.904 218.279 115.576 218.811 115.15 219.259C114.725 219.708 114.212 220.065 113.643 220.307C113.074 220.549 112.461 220.671 111.843 220.666C110.554 220.654 109.317 220.154 108.382 219.266C107.447 218.378 106.884 217.168 106.806 215.881C106.768 215.264 106.857 214.645 107.068 214.064C107.278 213.483 107.607 212.951 108.032 212.502C108.457 212.054 108.97 211.697 109.539 211.455C110.108 211.213 110.721 211.091 111.339 211.096C112.629 211.108 113.866 211.608 114.8 212.496C115.735 213.384 116.298 214.594 116.376 215.881Z" fill="#263238"/>
<path d="M74.7102 263.228C74.7487 263.845 74.6596 264.464 74.4487 265.045C74.2378 265.626 73.9095 266.158 73.4843 266.607C73.0591 267.055 72.546 267.412 71.977 267.654C71.408 267.896 70.7953 268.018 70.177 268.013C68.8876 268.001 67.6507 267.501 66.7159 266.613C65.7811 265.725 65.2179 264.515 65.1401 263.228C65.1016 262.611 65.1906 261.993 65.4016 261.411C65.6125 260.83 65.9408 260.299 66.366 259.85C66.7912 259.401 67.3043 259.044 67.8733 258.802C68.4423 258.56 69.055 258.438 69.6733 258.443C70.9627 258.455 72.1995 258.955 73.1344 259.843C74.0692 260.731 74.6324 261.941 74.7102 263.228Z" fill="#263238"/>
<path d="M89.4153 263.228C89.4537 263.845 89.3647 264.464 89.1538 265.045C88.9429 265.626 88.6146 266.158 88.1894 266.607C87.7641 267.055 87.251 267.412 86.6821 267.654C86.1131 267.896 85.5004 268.018 84.8821 268.013C83.5927 268.001 82.3558 267.501 81.421 266.613C80.4862 265.725 79.923 264.515 79.8451 263.228C79.8067 262.611 79.8957 261.993 80.1066 261.411C80.3175 260.83 80.6458 260.299 81.0711 259.85C81.4963 259.401 82.0094 259.044 82.5784 258.802C83.1474 258.56 83.7601 258.438 84.3784 258.443C85.6677 258.455 86.9046 258.955 87.8394 259.843C88.7743 260.731 89.3374 261.941 89.4153 263.228Z" fill="#263238"/>
<path d="M104.12 263.228C104.158 263.845 104.069 264.464 103.858 265.045C103.647 265.626 103.319 266.158 102.894 266.607C102.469 267.055 101.956 267.412 101.387 267.654C100.818 267.896 100.205 268.018 99.5867 268.013C98.2973 268.001 97.0604 267.501 96.1256 266.613C95.1908 265.725 94.6276 264.515 94.5497 263.228C94.5113 262.611 94.6003 261.993 94.8112 261.411C95.0221 260.83 95.3504 260.299 95.7757 259.85C96.2009 259.401 96.714 259.044 97.283 258.802C97.852 258.56 98.4647 258.438 99.083 258.443C100.372 258.455 101.609 258.955 102.544 259.843C103.479 260.731 104.042 261.941 104.12 263.228Z" fill="#263238"/>
<path d="M118.825 263.228C118.863 263.845 118.774 264.464 118.563 265.045C118.352 265.626 118.024 266.158 117.599 266.607C117.173 267.055 116.66 267.412 116.091 267.654C115.522 267.896 114.91 268.018 114.291 268.013C113.002 268.001 111.765 267.501 110.83 266.613C109.895 265.725 109.332 264.515 109.254 263.228C109.216 262.611 109.305 261.993 109.516 261.411C109.727 260.83 110.055 260.299 110.48 259.85C110.905 259.401 111.419 259.044 111.988 258.802C112.557 258.56 113.169 258.438 113.788 258.443C115.077 258.455 116.314 258.955 117.249 259.843C118.183 260.731 118.747 261.941 118.825 263.228Z" fill="#263238"/>
<path d="M133.516 263.228C133.554 263.845 133.465 264.464 133.254 265.045C133.043 265.626 132.715 266.158 132.29 266.607C131.865 267.055 131.352 267.412 130.783 267.654C130.214 267.896 129.601 268.018 128.983 268.013C127.693 268.001 126.456 267.501 125.522 266.613C124.587 265.725 124.024 264.515 123.946 263.228C123.907 262.611 123.996 261.993 124.207 261.411C124.418 260.83 124.746 260.299 125.172 259.85C125.597 259.401 126.11 259.044 126.679 258.802C127.248 258.56 127.861 258.438 128.479 258.443C129.768 258.455 131.005 258.955 131.94 259.843C132.875 260.731 133.438 261.941 133.516 263.228Z" fill="#263238"/>
<path d="M148.222 263.228C148.26 263.845 148.171 264.464 147.96 265.045C147.75 265.626 147.421 266.158 146.996 266.607C146.571 267.055 146.058 267.412 145.489 267.654C144.92 267.896 144.307 268.018 143.689 268.013C142.399 268.001 141.162 267.501 140.228 266.613C139.293 265.725 138.73 264.515 138.652 263.228C138.613 262.611 138.702 261.993 138.913 261.411C139.124 260.83 139.452 260.299 139.878 259.85C140.303 259.401 140.816 259.044 141.385 258.802C141.954 258.56 142.567 258.438 143.185 258.443C144.474 258.455 145.711 258.955 146.646 259.843C147.581 260.731 148.144 261.941 148.222 263.228Z" fill="#263238"/>
<path d="M307.333 100.773C307.682 101.291 307.864 101.584 308.088 101.948L308.718 102.998C309.123 103.683 309.473 104.397 309.837 105.068C310.537 106.467 311.236 107.867 311.796 109.266C312.975 112.049 313.988 114.899 314.832 117.801C316.52 123.524 317.63 129.402 318.148 135.346L318.26 136.451C318.26 136.605 318.26 136.857 318.26 137.123V137.878C318.284 138.851 318.228 139.825 318.092 140.789C317.828 142.572 317.358 144.318 316.693 145.993C315.47 148.999 313.841 151.824 311.852 154.388C308.157 159.132 303.765 163.288 298.826 166.715L294.978 162.196C298.489 158.225 301.601 153.918 304.268 149.337C305.462 147.256 306.402 145.039 307.067 142.733C307.336 141.757 307.491 140.752 307.528 139.739C307.568 139.306 307.568 138.871 307.528 138.438V138.144C307.528 138.06 307.528 137.948 307.528 137.766L307.347 136.787C306.451 131.572 305.18 126.428 303.541 121.396C302.743 118.892 301.736 116.485 300.743 114.107C300.239 112.918 299.693 111.756 299.12 110.637L298.252 109L297.818 108.216L297.469 107.601L307.333 100.773Z" fill="#EBB376"/>
<path d="M294.279 166.715L299.344 177.418L303.359 168.38C303.359 168.38 299.805 160.544 294.964 161.258L294.279 166.715Z" fill="#EBB376"/>
<path d="M302.982 177.95L306.997 171.346L303.359 168.366L299.344 177.418L302.982 177.95Z" fill="#EBB376"/>
<path d="M282.386 59.7637C280.987 66.7594 277.965 81.8842 282.82 86.5294C282.82 86.5294 280.917 93.5252 268.003 93.5252C253.787 93.5252 261.217 86.5294 261.217 86.5294C268.968 84.6825 268.772 78.918 267.415 73.5173L282.386 59.7637Z" fill="#EBB376"/>
<path d="M258.711 43.4074C258.804 43.4046 258.895 43.3788 258.975 43.3322C259.056 43.2857 259.123 43.2199 259.172 43.1408C259.22 43.0617 259.248 42.9718 259.253 42.8791C259.259 42.7864 259.241 42.6939 259.201 42.6099C258.825 41.8118 258.262 41.1156 257.561 40.58C256.86 40.0444 256.041 39.6849 255.172 39.5317C255.034 39.5314 254.901 39.5818 254.798 39.6733C254.695 39.7649 254.63 39.8912 254.614 40.0281C254.598 40.1649 254.634 40.3027 254.713 40.4151C254.793 40.5274 254.911 40.6065 255.046 40.6371C255.732 40.7688 256.376 41.0621 256.926 41.4928C257.476 41.9235 257.916 42.4791 258.208 43.1136C258.257 43.2041 258.329 43.2794 258.418 43.3313C258.507 43.3831 258.609 43.4094 258.711 43.4074Z" fill="#263238"/>
<path d="M254.473 49.438C253.375 51.4828 252 53.3662 250.387 55.0346C250.823 55.4333 251.34 55.7324 251.903 55.9112C252.466 56.09 253.061 56.1442 253.647 56.07L254.473 49.438Z" fill="#DCA160"/>
<path d="M255.495 47.9293C255.611 46.9937 255.207 46.1738 254.594 46.0979C253.98 46.022 253.389 46.719 253.273 47.6546C253.158 48.5902 253.561 49.4101 254.175 49.486C254.788 49.5619 255.379 48.8649 255.495 47.9293Z" fill="#263238"/>
<path d="M254.879 46.2057L252.71 45.2822C252.71 45.2822 253.647 47.1571 254.879 46.2057Z" fill="#263238"/>
<path d="M279.336 416.421L267.918 419.079L260.993 392.831L272.396 390.159L279.336 416.421Z" fill="#EBB376"/>
<path opacity="0.2" d="M260.993 392.831L264.7 406.893L275.978 403.703L272.41 390.173L260.993 392.831Z" fill="black"/>
<path d="M303.037 89.1876C307.907 90.251 313.111 107.768 313.111 107.768L299.344 122.403C299.344 122.403 287.927 105.949 290.249 99.9051C292.67 93.6089 297.287 87.9284 303.037 89.1876Z" fill="#263238"/>
<path opacity="0.4" d="M295.327 100.339C292.865 98.0862 291.2 98.7577 290.066 100.549C288.947 105.753 295.579 116.653 298.251 120.78C299.441 115.855 300.84 105.46 295.327 100.339Z" fill="black"/>
<path d="M241.405 89.5795C241.405 89.5795 235.808 91.5523 247.001 160.307H294.572C293.775 140.928 293.747 128.994 302.967 89.2297C296.301 87.8549 289.544 86.9664 282.749 86.5713C275.553 86.0563 268.329 86.0563 261.133 86.5713C251.87 87.3688 241.405 89.5795 241.405 89.5795Z" fill="#263238"/>
<path opacity="0.4" d="M240.985 115.926C241.293 119.269 241.699 123.033 242.231 127.287C246.134 123.775 249.31 113.785 248.149 107.964C245.36 110.228 242.943 112.914 240.985 115.926Z" fill="black"/>
<path d="M246.063 105.502C243.502 111.967 240.616 118.3 237.416 124.474C234.25 130.867 230.503 136.956 226.223 142.663L225.327 143.769L224.88 144.314C224.717 144.523 224.545 144.724 224.362 144.916C223.521 145.836 222.583 146.661 221.564 147.378C219.765 148.63 217.795 149.615 215.715 150.303C212.09 151.463 208.325 152.131 204.522 152.289C197.399 152.56 190.27 151.916 183.311 150.373L184.081 144.482C187.299 144.482 190.671 144.482 193.875 144.216C197.098 144.056 200.308 143.696 203.487 143.139C206.435 142.685 209.319 141.882 212.078 140.746C213.19 140.262 214.231 139.627 215.17 138.858C215.523 138.558 215.842 138.22 216.121 137.85C216.222 137.73 216.315 137.604 216.401 137.472L216.723 137.011L217.38 136.087C220.884 130.66 224.011 124.999 226.741 119.144C229.539 113.197 232.337 107.027 234.884 100.955L246.063 105.502Z" fill="#EBB376"/>
<path d="M241.405 89.5795C235.584 90.9787 228.407 106.985 228.407 106.985L240.495 124.754C240.495 124.754 256.6 104.439 254.669 98.2543C252.696 91.8042 248.471 87.8026 241.405 89.5795Z" fill="#263238"/>
<path d="M187.426 145.364L177.338 140.705L176.331 150.736C176.331 150.736 184.725 153.213 188.923 150.736L187.426 145.364Z" fill="#EBB376"/>
<path d="M171.307 139.697L170.342 147.337L176.33 150.737L177.352 140.705L171.307 139.697Z" fill="#EBB376"/>
<path d="M287.451 48.6125C285.324 60.0435 284.653 64.9265 278.105 70.1314C268.311 77.9386 254.669 72.8178 253.354 60.981C252.165 50.3194 255.844 33.4177 267.695 30.1997C270.305 29.4836 273.055 29.4471 275.683 30.0937C278.312 30.7403 280.731 32.0485 282.711 33.8938C284.691 35.7391 286.166 38.0603 286.995 40.6365C287.825 43.2128 287.982 45.9585 287.451 48.6125Z" fill="#EBB376"/>
<path d="M262.335 51.0188C261.678 56.8532 261.426 72.006 274.242 72.4677C289.941 73.0554 294.642 59.6375 293.243 54.2788C301.4 47.6328 302.589 36.2018 293.411 27.4571C284.232 18.7124 264.028 23.5954 258.432 32.1163C251.38 42.6938 262.335 51.0188 262.335 51.0188Z" fill="#263238"/>
<path d="M278.048 30.8151C277.293 24.6728 277.88 20.4194 283.645 20.4194C289.409 20.4194 297.272 22.5042 300.155 28.4086C303.037 34.313 303.275 43.5194 295.23 42.582C287.185 41.6445 278.958 38.2306 278.048 30.8151Z" fill="#E4EDFF"/>
<path d="M286.974 29.4161C285.575 22.0845 292.137 1.43309 308.088 0.0339382C315.475 -0.581688 318.889 7.36548 315.083 8.66669C322.079 8.58274 326.556 17.8311 320.036 19.2163C325.199 22.5183 323.912 29.2902 316.567 32.6201C311.082 35.1106 288.877 39.5459 286.974 29.4161Z" fill="#263238"/>
<path d="M304.003 37.2654C298.868 37.2654 293.509 36.5098 290.193 34.2852C289.251 33.7282 288.455 32.9536 287.874 32.0261C287.292 31.0987 286.941 30.0454 286.849 28.9544C286.846 28.9085 286.851 28.8622 286.865 28.8183C286.879 28.7744 286.902 28.7337 286.932 28.6986C286.962 28.6635 286.998 28.6346 287.039 28.6137C287.08 28.5928 287.125 28.5802 287.171 28.5767C287.217 28.5728 287.263 28.5781 287.307 28.5923C287.351 28.6064 287.392 28.6291 287.427 28.659C287.462 28.6889 287.491 28.7254 287.512 28.7665C287.533 28.8076 287.545 28.8525 287.549 28.8985C287.629 29.8776 287.941 30.8236 288.459 31.6582C288.977 32.4927 289.687 33.1918 290.529 33.6975C296.853 37.895 311.516 36.4958 316.078 35.0967C320.023 33.8095 322.696 31.319 323.227 28.4227C323.395 27.365 323.265 26.2815 322.852 25.2933C322.44 24.305 321.76 23.4509 320.891 22.8262C320.85 22.7993 320.816 22.7644 320.79 22.7237C320.764 22.6829 320.746 22.6371 320.739 22.5893C320.731 22.5414 320.734 22.4925 320.746 22.4457C320.758 22.3989 320.78 22.3551 320.81 22.3172C320.841 22.2793 320.878 22.248 320.921 22.2254C320.964 22.2028 321.011 22.1894 321.059 22.1859C321.108 22.1825 321.156 22.1891 321.202 22.2054C321.247 22.2217 321.289 22.2472 321.324 22.2805C322.3 22.9942 323.058 23.9645 323.515 25.0834C323.972 26.2024 324.11 27.4261 323.913 28.6186C323.339 31.7667 320.485 34.4671 316.301 35.8242C312.286 36.8609 308.149 37.3458 304.003 37.2654Z" fill="#263238"/>
<path d="M258.769 49.4799C257.475 51.3118 256.939 53.5723 257.272 55.79C257.733 58.7282 260.602 58.9241 262.672 57.0353C264.743 55.1464 266.534 51.7745 265.009 49.34C264.666 48.8181 264.197 48.3919 263.644 48.1015C263.091 47.8111 262.474 47.6661 261.85 47.6801C261.226 47.6941 260.616 47.8667 260.077 48.1815C259.538 48.4963 259.087 48.9431 258.769 49.4799Z" fill="#EBB376"/>
<path d="M259.58 160.265C259.58 160.265 266.38 240.702 273.432 286.034C279.126 322.65 283.631 408.236 283.631 408.236H299.61C299.61 408.236 305.29 325.21 302.408 288.986C295.09 197.342 311.419 189.885 294.615 160.265H259.58Z" fill="#E4EDFF"/>
<path opacity="0.4" d="M279.699 190.668C273.367 197.314 268.257 205.025 264.603 213.446C266.463 231.523 268.674 251.587 271.025 269.16C280.67 244.19 283.66 217.142 279.699 190.668Z" fill="black"/>
<path d="M248.387 159.761C248.387 159.761 233.682 247.599 231.303 287.209C237.096 323.825 260.797 401.226 260.797 401.226L275.334 395.993C275.334 395.993 267.289 311.596 258.545 288.496C278.231 222.219 292.698 205.471 288.486 160.306C278.455 160.264 248.387 159.761 248.387 159.761Z" fill="#E4EDFF"/>
<path d="M258.852 405.088L278.496 399.757L277.376 391.922L256.347 397.602L258.852 405.088Z" fill="#263238"/>
<path d="M295.314 157.466L297.455 161.663C297.623 161.999 297.231 162.335 296.685 162.335H246.777C246.344 162.335 245.994 162.125 245.966 161.859L245.532 157.662C245.532 157.368 245.868 157.116 246.344 157.116H294.544C294.692 157.104 294.84 157.13 294.975 157.191C295.109 157.252 295.226 157.347 295.314 157.466Z" fill="#E4EDFF"/>
<path opacity="0.5" d="M295.314 157.466L297.455 161.663C297.623 161.999 297.231 162.335 296.685 162.335H246.777C246.344 162.335 245.994 162.125 245.966 161.859L245.532 157.662C245.532 157.368 245.868 157.116 246.344 157.116H294.544C294.692 157.104 294.84 157.13 294.975 157.191C295.109 157.252 295.226 157.347 295.314 157.466Z" fill="black"/>
<path d="M288.849 162.853H290.136C290.388 162.853 290.584 162.727 290.57 162.559L289.969 156.963C289.969 156.795 289.731 156.669 289.465 156.669H288.178C287.926 156.669 287.73 156.795 287.744 156.963L288.346 162.559C288.36 162.727 288.583 162.853 288.849 162.853Z" fill="#E4EDFF"/>
<path d="M271.458 122.082C271.305 122.081 271.156 122.03 271.035 121.936C270.913 121.843 270.826 121.712 270.786 121.564C266.225 104.704 256.795 90.7827 252.205 88.684C252.032 88.5756 251.839 88.5025 251.637 88.4689C251.436 88.4353 251.229 88.4418 251.03 88.4881C250.946 88.5327 250.853 88.5594 250.758 88.5667C250.662 88.5741 250.567 88.5618 250.476 88.5308C250.386 88.4997 250.303 88.4505 250.233 88.3862C250.162 88.3218 250.105 88.2437 250.066 88.1566C250.027 88.0695 250.006 87.9754 250.004 87.8799C250.003 87.7844 250.021 87.6896 250.058 87.6014C250.094 87.5131 250.149 87.4333 250.217 87.3669C250.286 87.3004 250.367 87.2487 250.456 87.2149C250.84 87.0766 251.249 87.0237 251.655 87.0599C252.061 87.0962 252.454 87.2207 252.807 87.4248C257.634 89.7054 267.204 103.417 271.989 120.683C275.417 120.683 280.706 120.207 281.993 120.109C283.588 118.206 295.327 103.543 290.934 87.5087C290.886 87.3232 290.913 87.1261 291.01 86.9608C291.107 86.7955 291.266 86.6755 291.452 86.6273C291.637 86.579 291.834 86.6065 291.999 86.7036C292.165 86.8006 292.285 86.9594 292.333 87.1449C297.216 104.998 283.057 121.102 282.903 121.256C282.783 121.387 282.618 121.467 282.441 121.48C282.441 121.48 275.403 122.082 271.458 122.082Z" fill="#E4EDFF"/>
<path d="M294.698 131.974C287.072 117.674 283.952 116.681 282.595 112.078C283.625 109.509 285.098 107.141 286.946 105.082C286.009 104.816 284.036 104.424 282.749 104.186C282.889 103.557 283.029 102.941 283.183 102.354C281.782 102.193 280.365 102.259 278.985 102.549V101.15C277.209 100.759 275.383 100.641 273.57 100.8C273.724 101.444 273.878 102.13 274.032 102.815C272.633 103.081 270.492 103.515 269.471 103.795C271.459 106.04 272.917 108.704 273.738 111.588C269.625 118.584 253.646 164.07 279.643 167.554C305.639 171.038 302.323 146.273 294.698 131.974Z" fill="#E4EDFF"/>
<path opacity="0.4" d="M294.698 131.974C287.072 117.674 283.952 116.681 282.595 112.078C283.625 109.509 285.098 107.141 286.946 105.082C286.009 104.816 284.036 104.424 282.749 104.186C282.889 103.557 283.029 102.941 283.183 102.354C281.782 102.193 280.365 102.259 278.985 102.549V101.15C277.209 100.759 275.383 100.641 273.57 100.8C273.724 101.444 273.878 102.13 274.032 102.815C272.633 103.081 270.492 103.515 269.471 103.795C271.459 106.04 272.917 108.704 273.738 111.588C269.625 118.584 253.646 164.07 279.643 167.554C305.639 171.038 302.323 146.273 294.698 131.974Z" fill="white"/>
<path d="M272.675 110.245C272.516 110.961 272.446 111.694 272.465 112.427C272.465 112.959 273.864 113.309 275.403 113.449C276.942 113.589 283.476 113.855 283.281 113.127C283.085 112.399 283.602 111.406 283.63 110.79C283.658 110.175 281.042 110.147 278.845 110.231C276.649 110.315 273.109 109.461 272.675 110.245Z" fill="#E4EDFF"/>
<path d="M257.551 162.853H258.866C259.118 162.853 259.314 162.727 259.3 162.559L258.698 156.963C258.698 156.795 258.46 156.669 258.194 156.669H256.907C256.655 156.669 256.459 156.795 256.473 156.963L257.075 162.559C257.075 162.727 257.299 162.853 257.551 162.853Z" fill="#E4EDFF"/>
</svg>
