<svg width="244" height="296" viewBox="0 0 244 296" fill="none" xmlns="http://www.w3.org/2000/svg">
<path d="M154.768 274.628H20.4931C18.3352 274.597 16.2685 273.753 14.7069 272.263C13.1452 270.774 12.2038 268.749 12.0713 266.595L0.0176605 33.365C-0.0536498 32.3236 0.0914983 31.2788 0.443959 30.2963C0.79642 29.3138 1.34855 28.4149 2.06557 27.6564C2.78258 26.8978 3.64894 26.296 4.61004 25.8888C5.57115 25.4817 6.60617 25.278 7.64989 25.2906H141.946C144.103 25.321 146.17 26.1655 147.732 27.655C149.293 29.1444 150.235 31.1689 150.367 33.3229L162.389 266.553C162.461 267.594 162.316 268.638 161.964 269.619C161.612 270.601 161.061 271.5 160.345 272.258C159.629 273.016 158.764 273.618 157.804 274.026C156.844 274.434 155.811 274.639 154.768 274.628Z" fill="#E4EDFF"/>
<path opacity="0.8" d="M154.768 274.628H20.4931C18.3352 274.597 16.2685 273.753 14.7069 272.263C13.1452 270.774 12.2038 268.749 12.0713 266.595L0.0176605 33.365C-0.0536498 32.3236 0.0914983 31.2788 0.443959 30.2963C0.79642 29.3138 1.34855 28.4149 2.06557 27.6564C2.78258 26.8978 3.64894 26.296 4.61004 25.8888C5.57115 25.4817 6.60617 25.278 7.64989 25.2906H141.946C144.103 25.321 146.17 26.1655 147.732 27.655C149.293 29.1444 150.235 31.1689 150.367 33.3229L162.389 266.553C162.461 267.594 162.316 268.638 161.964 269.619C161.612 270.601 161.061 271.5 160.345 272.258C159.629 273.016 158.764 273.618 157.804 274.026C156.844 274.434 155.811 274.639 154.768 274.628Z" fill="white"/>
<path d="M128.692 17.7217H113.838V18.7744H128.692V17.7217Z" fill="#E4EDFF"/>
<path d="M108.7 17.7217H103.258V18.7744H108.7V17.7217Z" fill="#E4EDFF"/>
<path d="M160.569 259.837H32.126C30.0561 259.817 28.0708 259.013 26.5704 257.587C25.0701 256.16 24.1662 254.218 24.0411 252.152L12.5559 29.0911C12.4921 28.0991 12.6337 27.1047 12.972 26.17C13.3102 25.2353 13.8378 24.3806 14.5216 23.6592C15.2054 22.9378 16.0308 22.3653 16.9461 21.9777C17.8614 21.59 18.8468 21.3954 19.8407 21.4062H148.273C150.343 21.4264 152.328 22.2306 153.828 23.6567C155.329 25.0829 156.233 27.0248 156.358 29.0911L167.864 252.152C167.928 253.145 167.786 254.14 167.447 255.076C167.108 256.011 166.58 256.866 165.895 257.588C165.21 258.31 164.383 258.882 163.467 259.269C162.55 259.656 161.563 259.849 160.569 259.837Z" fill="#E4EDFF"/>
<path d="M160.567 254.711H32.1247C31.3731 254.685 30.6571 254.385 30.112 253.867C29.5668 253.349 29.2305 252.649 29.1665 251.9L17.6708 28.8281C17.6453 28.5315 17.683 28.2329 17.7814 27.952C17.8798 27.6711 18.0366 27.4142 18.2416 27.1984C18.4465 26.9825 18.6949 26.8125 18.9703 26.6997C19.2457 26.5868 19.5419 26.5337 19.8394 26.5437H148.271C149.025 26.5696 149.742 26.8712 150.287 27.3914C150.833 27.9115 151.168 28.6138 151.23 29.365L162.725 252.426C162.751 252.723 162.713 253.021 162.615 253.302C162.516 253.583 162.359 253.84 162.155 254.056C161.95 254.272 161.701 254.442 161.426 254.555C161.15 254.667 160.854 254.721 160.557 254.711H160.567ZM19.8394 26.8069C19.5752 26.7919 19.3109 26.8343 19.0646 26.9312C18.8184 27.0282 18.5961 27.1773 18.413 27.3684C18.2299 27.5595 18.0904 27.788 18.0041 28.0382C17.9177 28.2883 17.8867 28.5542 17.9129 28.8176L29.4297 251.879C29.4861 252.563 29.7917 253.202 30.2885 253.676C30.7853 254.149 31.4387 254.424 32.1247 254.447H160.557C160.819 254.459 161.081 254.414 161.325 254.316C161.569 254.218 161.788 254.068 161.969 253.877C162.15 253.687 162.287 253.459 162.372 253.211C162.457 252.962 162.488 252.698 162.462 252.437L150.977 29.3755C150.921 28.6915 150.615 28.052 150.118 27.5784C149.621 27.1049 148.968 26.8303 148.282 26.8069H19.8394Z" fill="white"/>
<path opacity="0.3" d="M125.965 80.0324C126.285 85.0498 125.567 90.0792 123.856 94.8065C122.144 99.5338 119.476 103.857 116.018 107.507C112.56 111.156 108.387 114.054 103.759 116.017C99.1305 117.981 94.147 118.969 89.1197 118.92C78.6449 118.817 68.5986 114.747 61.0054 107.531C53.4122 100.315 48.8364 90.4883 48.2004 80.0324C47.8709 75.0073 48.5832 69.9682 50.2925 65.2313C52.0017 60.4943 54.6712 56.1615 58.1334 52.5045C61.5957 48.8476 65.7761 45.9453 70.4126 43.9797C75.049 42.014 80.0416 41.0274 85.0772 41.0817C95.5568 41.1939 105.604 45.276 113.192 52.5047C120.78 59.7333 125.345 69.5706 125.965 80.0324Z" fill="white"/>
<path d="M118.543 80.032C118.833 85.2028 117.789 90.3612 115.511 95.0123C113.055 100.011 109.233 104.212 104.488 107.127C99.7422 110.043 94.2678 111.555 88.6986 111.487C82.9267 111.434 77.267 109.887 72.271 106.996C67.275 104.105 63.1131 99.969 60.1909 94.9912C57.4724 90.4513 55.904 85.3161 55.6221 80.032C55.3596 75.9687 55.9388 71.8949 57.3234 68.0658C58.708 64.2366 60.8682 60.7346 63.6688 57.7788C66.4694 54.8231 69.85 52.4774 73.599 50.8885C77.348 49.2997 81.3847 48.5019 85.4562 48.5451C93.9316 48.6338 102.058 51.932 108.198 57.775C114.338 63.618 118.035 71.5714 118.543 80.032Z" fill="white"/>
<path d="M115.512 94.9915C113.056 99.9903 109.234 104.191 104.488 107.107C99.7427 110.023 94.2683 111.534 88.6991 111.467C82.9292 111.416 77.2709 109.871 72.2751 106.984C67.2792 104.097 63.1162 99.9654 60.1914 94.9915C68.1919 89.4679 77.6929 86.5287 87.4148 86.5698C97.397 86.6068 107.155 89.5317 115.512 94.9915Z" fill="#E4EDFF"/>
<path d="M100.542 69.242C100.656 71.0513 100.396 72.8647 99.778 74.569C99.1598 76.2732 98.1966 77.8316 96.9487 79.1467C95.7008 80.4618 94.195 81.5053 92.5255 82.2119C90.856 82.9186 89.0587 83.2733 87.2459 83.2537C83.4726 83.2154 79.854 81.7484 77.1192 79.1484C74.3844 76.5484 72.7366 73.0085 72.5078 69.242C72.3933 67.4327 72.6532 65.6192 73.2715 63.915C73.8897 62.2107 74.8529 60.6524 76.1008 59.3373C77.3487 58.0222 78.8544 56.9787 80.524 56.272C82.1935 55.5654 83.9908 55.2107 85.8036 55.2303C89.5769 55.2686 93.1955 56.7355 95.9303 59.3355C98.6651 61.9356 100.313 65.4754 100.542 69.242Z" fill="#E4EDFF"/>
<path d="M142.135 173.072H41.5892C40.7133 173.063 39.8733 172.722 39.2384 172.119C38.6036 171.515 38.2211 170.693 38.1679 169.819L37.4099 155.081C37.3823 154.661 37.4418 154.239 37.5849 153.843C37.7279 153.448 37.9512 153.085 38.2409 152.78C38.5306 152.474 38.8803 152.232 39.2681 152.068C39.6559 151.904 40.0734 151.823 40.4944 151.828H141.082C141.958 151.837 142.798 152.178 143.433 152.781C144.067 153.385 144.45 154.206 144.503 155.081L145.261 169.819C145.289 170.243 145.228 170.667 145.083 171.066C144.937 171.465 144.71 171.829 144.416 172.136C144.122 172.442 143.767 172.683 143.374 172.844C142.981 173.005 142.559 173.083 142.135 173.072Z" fill="white"/>
<path opacity="0.3" d="M111.364 143.669H69.3602C68.4843 143.66 67.6443 143.319 67.0095 142.716C66.3746 142.112 65.9921 141.291 65.9389 140.416L65.781 137.258C65.7534 136.838 65.8129 136.417 65.956 136.021C66.099 135.625 66.3223 135.263 66.612 134.957C66.9017 134.652 67.2514 134.409 67.6392 134.246C68.027 134.082 68.4445 134 68.8655 134.005H110.869C111.745 134.014 112.585 134.355 113.22 134.958C113.855 135.562 114.237 136.384 114.29 137.258L114.448 140.416C114.476 140.836 114.416 141.258 114.273 141.654C114.13 142.049 113.907 142.412 113.617 142.717C113.328 143.023 112.978 143.265 112.59 143.429C112.202 143.593 111.785 143.674 111.364 143.669Z" fill="#578EE4"/>
<path opacity="0.3" d="M126.986 243.909H64.0757C62.585 243.893 61.1557 243.313 60.0756 242.286C58.9954 241.258 58.3446 239.86 58.2541 238.372L57.9173 231.108C57.8801 230.394 57.9887 229.68 58.2366 229.01C58.4844 228.339 58.8662 227.726 59.3587 227.208C59.8513 226.69 60.4442 226.277 61.1013 225.996C61.7584 225.714 62.466 225.57 63.1809 225.571H126.092C127.582 225.587 129.012 226.167 130.092 227.194C131.172 228.222 131.823 229.62 131.913 231.108L132.292 238.361C132.331 239.08 132.222 239.798 131.972 240.473C131.723 241.148 131.337 241.764 130.84 242.284C130.343 242.804 129.744 243.216 129.082 243.496C128.419 243.775 127.706 243.916 126.986 243.909Z" fill="#578EE4"/>
<path d="M143.999 208.685H43.4323C42.5599 208.674 41.724 208.333 41.0916 207.732C40.4593 207.131 40.0771 206.314 40.0215 205.443L39.2635 190.705C39.23 190.283 39.2844 189.859 39.4234 189.459C39.5624 189.06 39.7829 188.694 40.0709 188.384C40.359 188.074 40.7082 187.827 41.0966 187.66C41.485 187.492 41.9039 187.407 42.3269 187.41H142.893C143.769 187.419 144.609 187.759 145.244 188.363C145.879 188.967 146.262 189.788 146.315 190.663L147.073 205.401C147.105 205.822 147.049 206.246 146.909 206.645C146.768 207.044 146.547 207.41 146.258 207.719C145.969 208.027 145.619 208.273 145.23 208.439C144.841 208.606 144.422 208.689 143.999 208.685Z" fill="white"/>
<path d="M54.38 162.429C54.4089 162.893 54.342 163.359 54.1833 163.796C54.0246 164.233 53.7776 164.633 53.4576 164.971C53.1377 165.309 52.7516 165.577 52.3235 165.759C51.8954 165.941 51.4344 166.033 50.9692 166.029C49.9991 166.02 49.0685 165.644 48.3651 164.976C47.6617 164.307 47.238 163.397 47.1794 162.429C47.1507 161.968 47.2165 161.506 47.3726 161.072C47.5287 160.637 47.772 160.239 48.0874 159.902C48.4028 159.565 48.7838 159.296 49.2069 159.111C49.6301 158.927 50.0864 158.831 50.5481 158.829C51.5255 158.827 52.4667 159.199 53.179 159.868C53.8913 160.537 54.3209 161.453 54.38 162.429Z" fill="#263238"/>
<path d="M65.4435 162.429C65.4724 162.893 65.4054 163.358 65.2467 163.795C65.0881 164.233 64.841 164.633 64.5211 164.97C64.2011 165.308 63.8151 165.576 63.387 165.759C62.9589 165.941 62.4979 166.033 62.0327 166.029C61.0626 166.02 60.1319 165.643 59.4286 164.975C58.7252 164.307 58.3015 163.397 58.2429 162.429C58.214 161.964 58.2809 161.499 58.4396 161.062C58.5983 160.624 58.8453 160.224 59.1653 159.887C59.4852 159.549 59.8713 159.281 60.2994 159.099C60.7275 158.916 61.1885 158.824 61.6537 158.828C62.6238 158.837 63.5544 159.214 64.2578 159.882C64.9612 160.55 65.3849 161.46 65.4435 162.429Z" fill="#263238"/>
<path d="M76.508 162.429C76.5369 162.893 76.4699 163.358 76.3112 163.795C76.1525 164.233 75.9055 164.633 75.5855 164.97C75.2656 165.308 74.8796 165.576 74.4514 165.759C74.0233 165.941 73.5623 166.033 73.0971 166.029C72.127 166.02 71.1964 165.643 70.493 164.975C69.7897 164.307 69.3659 163.397 69.3073 162.429C69.2784 161.964 69.3454 161.499 69.5041 161.062C69.6628 160.624 69.9098 160.224 70.2297 159.887C70.5497 159.549 70.9357 159.281 71.3638 159.099C71.7919 158.916 72.2529 158.824 72.7181 158.828C73.6883 158.837 74.6189 159.214 75.3223 159.882C76.0256 160.55 76.4494 161.46 76.508 162.429Z" fill="#263238"/>
<path d="M87.5617 162.429C87.5906 162.893 87.5236 163.358 87.3649 163.795C87.2062 164.233 86.9592 164.633 86.6393 164.97C86.3193 165.308 85.9333 165.576 85.5052 165.759C85.0771 165.941 84.616 166.033 84.1508 166.029C83.1807 166.02 82.2501 165.643 81.5467 164.975C80.8434 164.307 80.4196 163.397 80.361 162.429C80.3321 161.964 80.3991 161.499 80.5578 161.062C80.7165 160.624 80.9635 160.224 81.2834 159.887C81.6034 159.549 81.9894 159.281 82.4176 159.099C82.8457 158.916 83.3067 158.824 83.7719 158.828C84.742 158.837 85.6726 159.214 86.376 159.882C87.0793 160.55 87.5031 161.46 87.5617 162.429Z" fill="#263238"/>
<path d="M56.2121 198.053C56.241 198.517 56.174 198.983 56.0153 199.42C55.8566 199.857 55.6096 200.257 55.2896 200.595C54.9697 200.933 54.5837 201.201 54.1555 201.383C53.7274 201.565 53.2664 201.657 52.8012 201.653C51.8311 201.644 50.9005 201.268 50.1971 200.6C49.4938 199.932 49.07 199.021 49.0114 198.053C48.9825 197.589 49.0495 197.123 49.2082 196.686C49.3669 196.249 49.6139 195.849 49.9338 195.511C50.2538 195.173 50.6398 194.905 51.0679 194.723C51.496 194.541 51.957 194.449 52.4223 194.453C53.3924 194.462 54.323 194.838 55.0264 195.506C55.7297 196.175 56.1535 197.085 56.2121 198.053Z" fill="#263238"/>
<path d="M67.2755 198.053C67.3044 198.517 67.2375 198.983 67.0788 199.42C66.9201 199.857 66.6731 200.257 66.3531 200.595C66.0332 200.933 65.6471 201.201 65.219 201.383C64.7909 201.565 64.3299 201.657 63.8647 201.653C62.8946 201.644 61.964 201.268 61.2606 200.6C60.5572 199.932 60.1335 199.021 60.0749 198.053C60.046 197.589 60.113 197.123 60.2717 196.686C60.4304 196.249 60.6774 195.849 60.9973 195.511C61.3173 195.173 61.7033 194.905 62.1314 194.723C62.5595 194.541 63.0205 194.449 63.4857 194.453C64.4558 194.462 65.3865 194.838 66.0898 195.506C66.7932 196.175 67.2169 197.085 67.2755 198.053Z" fill="#263238"/>
<path d="M78.34 198.053C78.3689 198.517 78.3019 198.983 78.1432 199.42C77.9845 199.857 77.7375 200.257 77.4176 200.595C77.0976 200.933 76.7116 201.201 76.2835 201.383C75.8554 201.565 75.3944 201.657 74.9292 201.653C73.9591 201.644 73.0284 201.268 72.3251 200.6C71.6217 199.932 71.198 199.021 71.1394 198.053C71.1105 197.589 71.1774 197.123 71.3361 196.686C71.4948 196.249 71.7418 195.849 72.0618 195.511C72.3817 195.173 72.7678 194.905 73.1959 194.723C73.624 194.541 74.085 194.449 74.5502 194.453C75.5203 194.462 76.4509 194.838 77.1543 195.506C77.8577 196.175 78.2814 197.085 78.34 198.053Z" fill="#263238"/>
<path d="M89.4044 198.053C89.4333 198.517 89.3664 198.983 89.2077 199.42C89.049 199.857 88.802 200.257 88.482 200.595C88.1621 200.933 87.776 201.201 87.3479 201.383C86.9198 201.565 86.4588 201.657 85.9936 201.653C85.0235 201.644 84.0929 201.268 83.3895 200.6C82.6861 199.932 82.2624 199.021 82.2038 198.053C82.1749 197.589 82.2419 197.123 82.4006 196.686C82.5593 196.249 82.8063 195.849 83.1262 195.511C83.4462 195.173 83.8322 194.905 84.2603 194.723C84.6884 194.541 85.1494 194.449 85.6146 194.453C86.5847 194.462 87.5154 194.838 88.2187 195.506C88.9221 196.175 89.3458 197.085 89.4044 198.053Z" fill="#263238"/>
<path d="M100.457 198.053C100.486 198.517 100.419 198.983 100.26 199.42C100.102 199.857 99.8547 200.257 99.5348 200.595C99.2148 200.933 98.8288 201.201 98.4007 201.383C97.9726 201.565 97.5116 201.657 97.0463 201.653C96.0762 201.644 95.1456 201.268 94.4422 200.6C93.7389 199.932 93.3151 199.021 93.2566 198.053C93.2276 197.589 93.2946 197.123 93.4533 196.686C93.612 196.249 93.859 195.849 94.179 195.511C94.4989 195.173 94.885 194.905 95.3131 194.723C95.7412 194.541 96.2022 194.449 96.6674 194.453C97.6375 194.462 98.5681 194.838 99.2715 195.506C99.9748 196.175 100.399 197.085 100.457 198.053Z" fill="#263238"/>
<path d="M111.522 198.053C111.551 198.517 111.484 198.983 111.325 199.42C111.166 199.857 110.919 200.257 110.599 200.595C110.279 200.933 109.893 201.201 109.465 201.383C109.037 201.565 108.576 201.657 108.111 201.653C107.141 201.644 106.21 201.268 105.507 200.6C104.803 199.932 104.38 199.021 104.321 198.053C104.292 197.589 104.359 197.123 104.518 196.686C104.676 196.249 104.923 195.849 105.243 195.511C105.563 195.173 105.949 194.905 106.378 194.723C106.806 194.541 107.267 194.449 107.732 194.453C108.702 194.462 109.633 194.838 110.336 195.506C111.039 196.175 111.463 197.085 111.522 198.053Z" fill="#263238"/>
<path d="M231.238 75.8213C231.501 76.2108 231.638 76.4319 231.806 76.7056L232.28 77.4951C232.585 78.0109 232.849 78.5478 233.122 79.0531C233.649 80.1059 234.175 81.1586 234.596 82.2113C235.483 84.3051 236.246 86.4494 236.881 88.6329C238.15 92.9391 238.986 97.3615 239.375 101.834L239.46 102.666C239.46 102.781 239.46 102.971 239.46 103.171V103.739C239.478 104.472 239.435 105.204 239.333 105.929C239.135 107.271 238.781 108.585 238.281 109.845C237.36 112.107 236.135 114.232 234.638 116.162C231.858 119.73 228.554 122.857 224.837 125.436L221.942 122.036C224.584 119.048 226.926 115.808 228.932 112.361C229.831 110.795 230.538 109.127 231.038 107.392C231.24 106.657 231.357 105.901 231.385 105.14C231.415 104.814 231.415 104.486 231.385 104.161V103.939C231.385 103.876 231.385 103.792 231.385 103.655L231.248 102.918C230.575 98.9943 229.618 95.1241 228.385 91.3384C227.785 89.454 227.027 87.6434 226.28 85.8537C225.901 84.9589 225.49 84.0852 225.058 83.243L224.406 82.0113L224.079 81.4218L223.816 80.9586L231.238 75.8213Z" fill="#EBB376"/>
<path d="M221.416 125.436L225.227 133.489L228.248 126.689C228.248 126.689 225.574 120.794 221.932 121.33L221.416 125.436Z" fill="#EBB376"/>
<path d="M227.965 133.89L230.986 128.921L228.249 126.679L225.228 133.49L227.965 133.89Z" fill="#EBB376"/>
<path d="M212.469 44.9663C211.416 50.2299 209.142 61.6098 212.795 65.1049C212.795 65.1049 211.363 70.3685 201.647 70.3685C190.951 70.3685 196.541 65.1049 196.541 65.1049C202.373 63.7153 202.226 59.3781 201.205 55.3146L212.469 44.9663Z" fill="#EBB376"/>
<path d="M194.655 32.6597C194.725 32.6576 194.793 32.6382 194.853 32.6032C194.914 32.5681 194.965 32.5187 195.001 32.4591C195.038 32.3996 195.059 32.3319 195.063 32.2622C195.067 32.1925 195.053 32.1229 195.023 32.0596C194.74 31.4591 194.317 30.9354 193.79 30.5324C193.262 30.1294 192.645 29.8589 191.992 29.7437C191.888 29.7434 191.788 29.7813 191.71 29.8502C191.633 29.9191 191.584 30.0141 191.572 30.1171C191.56 30.22 191.587 30.3237 191.647 30.4083C191.707 30.4928 191.796 30.5523 191.897 30.5753C192.413 30.6744 192.898 30.8951 193.312 31.2192C193.726 31.5432 194.056 31.9613 194.276 32.4386C194.313 32.5067 194.368 32.5634 194.434 32.6024C194.501 32.6414 194.578 32.6612 194.655 32.6597Z" fill="#263238"/>
<path d="M191.467 37.1973C190.641 38.7358 189.606 40.1529 188.393 41.4082C188.72 41.7081 189.11 41.9332 189.533 42.0677C189.957 42.2022 190.405 42.243 190.845 42.1872L191.467 37.1973Z" fill="#DCA160"/>
<path d="M192.235 36.062C192.323 35.3581 192.019 34.7411 191.557 34.684C191.096 34.6269 190.651 35.1513 190.564 35.8553C190.477 36.5592 190.78 37.1762 191.242 37.2332C191.704 37.2903 192.148 36.7659 192.235 36.062Z" fill="#263238"/>
<path d="M191.772 34.7651L190.141 34.0703C190.141 34.0703 190.846 35.481 191.772 34.7651Z" fill="#263238"/>
<path d="M210.173 313.315L201.583 315.315L196.372 295.566L204.952 293.556L210.173 313.315Z" fill="#EBB376"/>
<path opacity="0.2" d="M196.372 295.567L199.162 306.146L207.647 303.746L204.962 293.566L196.372 295.567Z" fill="black"/>
<path d="M228.006 67.1049C231.669 67.905 235.585 81.085 235.585 81.085L225.227 92.0965C225.227 92.0965 216.636 79.7165 218.384 75.1687C220.205 70.4315 223.679 66.1574 228.006 67.1049Z" fill="#263238"/>
<path opacity="0.4" d="M222.205 75.4952C220.353 73.8003 219.1 74.3056 218.247 75.6531C217.405 79.5692 222.395 87.7699 224.406 90.8755C225.3 87.1699 226.353 79.3482 222.205 75.4952Z" fill="black"/>
<path d="M181.634 67.3997C181.634 67.3997 177.423 68.884 185.845 120.615H221.637C221.037 106.035 221.016 97.0548 227.954 67.1365C222.938 66.1021 217.854 65.4336 212.742 65.1363C207.327 64.7488 201.892 64.7488 196.477 65.1363C189.508 65.7364 181.634 67.3997 181.634 67.3997Z" fill="#263238"/>
<path opacity="0.4" d="M181.318 87.2224C181.55 89.7384 181.855 92.5702 182.255 95.7705C185.192 93.1282 187.582 85.6117 186.708 81.2324C184.61 82.9354 182.791 84.9565 181.318 87.2224Z" fill="black"/>
<path d="M185.139 79.3798C183.212 84.2445 181.041 89.0089 178.634 93.6548C176.251 98.4648 173.432 103.046 170.212 107.34L169.538 108.172L169.201 108.582C169.079 108.74 168.949 108.891 168.812 109.035C168.179 109.727 167.473 110.348 166.706 110.888C165.353 111.829 163.871 112.57 162.306 113.088C159.578 113.961 156.746 114.464 153.884 114.583C148.525 114.786 143.161 114.302 137.925 113.141L138.504 108.709C140.925 108.709 143.462 108.709 145.873 108.509C148.298 108.388 150.713 108.117 153.105 107.698C155.323 107.357 157.493 106.753 159.569 105.898C160.406 105.534 161.189 105.055 161.895 104.477C162.161 104.251 162.401 103.997 162.611 103.719C162.687 103.628 162.757 103.533 162.822 103.435L163.064 103.087L163.559 102.392C166.195 98.3088 168.548 94.0493 170.601 89.6439C172.707 85.1698 174.812 80.5273 176.728 75.9585L185.139 79.3798Z" fill="#EBB376"/>
<path d="M181.633 67.3997C177.254 68.4524 171.854 80.4955 171.854 80.4955L180.949 93.8651C180.949 93.8651 193.066 78.5796 191.613 73.9265C190.129 69.0735 186.95 66.0627 181.633 67.3997Z" fill="#263238"/>
<path d="M141.02 109.372L133.43 105.866L132.672 113.414C132.672 113.414 138.988 115.278 142.146 113.414L141.02 109.372Z" fill="#EBB376"/>
<path d="M128.892 105.108L128.166 110.856L132.672 113.414L133.44 105.866L128.892 105.108Z" fill="#EBB376"/>
<path d="M216.279 36.5761C214.679 45.1768 214.174 48.8508 209.247 52.7669C201.878 58.6411 191.614 54.7882 190.624 45.8821C189.73 37.8604 192.498 25.1435 201.415 22.7223C203.379 22.1835 205.448 22.156 207.425 22.6425C209.403 23.129 211.223 24.1133 212.713 25.5017C214.202 26.8902 215.312 28.6366 215.936 30.575C216.561 32.5134 216.679 34.5792 216.279 36.5761Z" fill="#EBB376"/>
<path d="M197.382 38.3868C196.887 42.7766 196.697 54.1776 206.34 54.525C218.152 54.9671 221.689 44.8715 220.636 40.8396C226.774 35.8392 227.668 27.2385 220.763 20.6589C213.857 14.0794 198.655 17.7534 194.445 24.1645C189.139 32.1231 197.382 38.3868 197.382 38.3868Z" fill="#263238"/>
<path d="M209.205 23.1855C208.636 18.564 209.078 15.3638 213.416 15.3638C217.753 15.3638 223.669 16.9323 225.838 21.3748C228.006 25.8173 228.185 32.7442 222.132 32.0389C216.079 31.3336 209.889 28.7649 209.205 23.1855Z" fill="#E4EDFF"/>
<path d="M215.92 22.1327C214.868 16.6164 219.805 1.07826 231.806 0.0255351C237.364 -0.437662 239.933 5.5418 237.069 6.52083C242.333 6.45766 245.702 13.4162 240.796 14.4583C244.681 16.9428 243.712 22.0379 238.185 24.5434C234.059 26.4173 217.352 29.7544 215.92 22.1327Z" fill="#263238"/>
<path d="M228.733 28.0383C224.87 28.0383 220.838 27.4699 218.343 25.796C217.634 25.377 217.035 24.7941 216.598 24.0963C216.16 23.3985 215.896 22.606 215.827 21.7852C215.824 21.7506 215.828 21.7158 215.839 21.6827C215.849 21.6497 215.866 21.6191 215.889 21.5927C215.912 21.5663 215.939 21.5446 215.97 21.5288C216.001 21.5131 216.035 21.5036 216.069 21.5009C216.104 21.4981 216.139 21.502 216.172 21.5127C216.205 21.5233 216.235 21.5404 216.262 21.5629C216.288 21.5854 216.31 21.6129 216.326 21.6438C216.341 21.6747 216.351 21.7085 216.353 21.7431C216.414 22.4798 216.648 23.1915 217.038 23.8195C217.428 24.4474 217.962 24.9734 218.596 25.3539C223.354 28.5121 234.387 27.4593 237.818 26.4066C240.787 25.4381 242.798 23.5643 243.198 21.3851C243.324 20.5893 243.226 19.7741 242.916 19.0305C242.605 18.287 242.094 17.6443 241.44 17.1743C241.409 17.1541 241.384 17.1278 241.364 17.0971C241.344 17.0665 241.331 17.032 241.326 16.996C241.32 16.96 241.322 16.9232 241.331 16.888C241.34 16.8528 241.357 16.8198 241.379 16.7913C241.402 16.7628 241.43 16.7393 241.463 16.7223C241.495 16.7053 241.53 16.6952 241.567 16.6926C241.603 16.69 241.64 16.6949 241.674 16.7072C241.708 16.7194 241.74 16.7387 241.766 16.7637C242.5 17.3007 243.071 18.0307 243.414 18.8726C243.758 19.7145 243.862 20.6353 243.714 21.5325C243.282 23.9011 241.135 25.9329 237.987 26.954C234.966 27.734 231.853 28.0988 228.733 28.0383Z" fill="#263238"/>
<path d="M194.699 37.2288C193.726 38.6072 193.322 40.308 193.572 41.9766C193.92 44.1873 196.078 44.3347 197.636 42.9135C199.194 41.4924 200.541 38.9553 199.394 37.1236C199.136 36.7309 198.783 36.4102 198.367 36.1918C197.951 35.9733 197.487 35.8642 197.017 35.8747C196.548 35.8852 196.089 36.0151 195.683 36.252C195.277 36.4888 194.939 36.825 194.699 37.2288Z" fill="#EBB376"/>
<path d="M195.31 120.583C195.31 120.583 200.426 181.104 205.732 215.212C210.016 242.762 213.406 307.157 213.406 307.157H225.428C225.428 307.157 229.702 244.688 227.533 217.433C222.028 148.48 234.313 142.869 221.67 120.583H195.31Z" fill="#E4EDFF"/>
<path opacity="0.4" d="M210.447 143.459C205.682 148.46 201.837 154.261 199.088 160.597C200.488 174.198 202.151 189.294 203.92 202.517C211.177 183.729 213.427 163.378 210.447 143.459Z" fill="black"/>
<path d="M186.887 120.204C186.887 120.204 175.823 186.294 174.033 216.097C178.391 243.646 196.225 301.883 196.225 301.883L207.162 297.946C207.162 297.946 201.109 234.445 194.53 217.065C209.341 167.198 220.227 154.597 217.058 120.615C209.51 120.583 186.887 120.204 186.887 120.204Z" fill="#E4EDFF"/>
<path d="M194.76 304.788L209.541 300.778L208.698 294.882L192.876 299.156L194.76 304.788Z" fill="#263238"/>
<path d="M222.195 118.478L223.806 121.636C223.932 121.889 223.637 122.141 223.227 122.141H185.676C185.35 122.141 185.087 121.983 185.066 121.783L184.739 118.625C184.739 118.404 184.992 118.215 185.35 118.215H221.616C221.727 118.205 221.838 118.225 221.94 118.271C222.041 118.317 222.129 118.388 222.195 118.478Z" fill="#E4EDFF"/>
<path opacity="0.5" d="M222.195 118.478L223.806 121.636C223.932 121.889 223.637 122.141 223.227 122.141H185.676C185.35 122.141 185.087 121.983 185.066 121.783L184.739 118.625C184.739 118.404 184.992 118.215 185.35 118.215H221.616C221.727 118.205 221.838 118.225 221.94 118.271C222.041 118.317 222.129 118.388 222.195 118.478Z" fill="black"/>
<path d="M217.331 122.531H218.3C218.489 122.531 218.637 122.436 218.626 122.31L218.173 118.099C218.173 117.973 217.994 117.878 217.794 117.878H216.826C216.636 117.878 216.489 117.973 216.5 118.099L216.952 122.31C216.963 122.436 217.131 122.531 217.331 122.531Z" fill="#E4EDFF"/>
<path d="M204.246 91.8546C204.131 91.854 204.019 91.8155 203.928 91.7451C203.836 91.6748 203.771 91.5764 203.741 91.4651C200.309 78.7798 193.213 68.3052 189.761 66.7261C189.63 66.6446 189.485 66.5896 189.333 66.5643C189.181 66.539 189.026 66.5439 188.876 66.5788C188.813 66.6123 188.743 66.6324 188.671 66.6379C188.6 66.6434 188.528 66.6342 188.46 66.6108C188.392 66.5875 188.329 66.5504 188.276 66.502C188.223 66.4536 188.18 66.3948 188.151 66.3293C188.121 66.2638 188.106 66.1929 188.105 66.1211C188.103 66.0492 188.117 65.9779 188.145 65.9116C188.172 65.8452 188.213 65.7851 188.265 65.7351C188.316 65.6851 188.377 65.6462 188.445 65.6208C188.733 65.5167 189.041 65.4769 189.346 65.5042C189.652 65.5315 189.948 65.6251 190.213 65.7787C193.845 67.4946 201.046 77.8113 204.646 90.8019C207.225 90.8019 211.204 90.444 212.173 90.3703C213.373 88.9386 222.205 77.906 218.9 65.8418C218.864 65.7023 218.884 65.554 218.957 65.4296C219.03 65.3052 219.15 65.2149 219.289 65.1786C219.429 65.1423 219.577 65.163 219.702 65.236C219.826 65.3091 219.916 65.4285 219.953 65.5681C223.627 79.0009 212.973 91.1177 212.857 91.2335C212.767 91.3316 212.643 91.3918 212.51 91.4019C212.51 91.4019 207.215 91.8546 204.246 91.8546Z" fill="#E4EDFF"/>
<path d="M221.731 99.2971C215.994 88.5383 213.646 87.7908 212.625 84.3274C213.4 82.3948 214.508 80.6132 215.899 79.0638C215.194 78.8638 213.709 78.569 212.741 78.39C212.846 77.9163 212.951 77.4531 213.067 77.011C212.013 76.8902 210.947 76.9399 209.909 77.1584V76.1056C208.572 75.811 207.198 75.7223 205.835 75.8425C205.951 76.3267 206.066 76.8425 206.182 77.3584C205.129 77.5584 203.519 77.8847 202.75 78.0953C204.246 79.7849 205.343 81.7887 205.961 83.9589C202.866 89.2226 190.844 123.447 210.404 126.068C229.963 128.689 227.468 110.056 221.731 99.2971Z" fill="#E4EDFF"/>
<path opacity="0.4" d="M221.731 99.2971C215.994 88.5383 213.646 87.7908 212.625 84.3274C213.4 82.3948 214.508 80.6132 215.899 79.0638C215.194 78.8638 213.709 78.569 212.741 78.39C212.846 77.9163 212.951 77.4531 213.067 77.011C212.013 76.8902 210.947 76.9399 209.909 77.1584V76.1056C208.572 75.811 207.198 75.7223 205.835 75.8425C205.951 76.3267 206.066 76.8425 206.182 77.3584C205.129 77.5584 203.519 77.8847 202.75 78.0953C204.246 79.7849 205.343 81.7887 205.961 83.9589C202.866 89.2226 190.844 123.447 210.404 126.068C229.963 128.689 227.468 110.056 221.731 99.2971Z" fill="white"/>
<path d="M205.161 82.9483C205.042 83.4872 204.989 84.0387 205.003 84.5906C205.003 84.9906 206.056 85.2538 207.214 85.359C208.372 85.4643 213.288 85.6643 213.141 85.1169C212.994 84.5695 213.383 83.8221 213.404 83.3589C213.425 82.8957 211.457 82.8746 209.804 82.9378C208.151 83.0009 205.488 82.3588 205.161 82.9483Z" fill="#E4EDFF"/>
<path d="M193.783 122.531H194.772C194.962 122.531 195.109 122.436 195.099 122.31L194.646 118.099C194.646 117.973 194.467 117.878 194.267 117.878H193.299C193.109 117.878 192.962 117.973 192.972 118.099L193.425 122.31C193.425 122.436 193.593 122.531 193.783 122.531Z" fill="#E4EDFF"/>
</svg>
