<svg width="72" height="72" viewBox="0 0 72 72" fill="none" xmlns="http://www.w3.org/2000/svg">
<rect width="72" height="72" rx="36" fill="url(#paint0_linear)"/>
<path d="M44.7169 36.071C43.9482 35.7056 43.1639 35.3909 42.3658 35.1272C44.9505 33.1872 46.6255 30.098 46.6255 26.625C46.6255 20.7664 41.8591 16 36.0005 16C30.1418 16 25.3755 20.7664 25.3755 26.625C25.3755 30.1019 27.0542 33.1941 29.6437 35.1337C27.2712 35.9148 25.045 37.1302 23.0966 38.7328C19.5237 41.6716 17.0396 45.7708 16.1019 50.2752C15.808 51.6866 16.1601 53.1363 17.0677 54.2524C17.9709 55.363 19.3102 56 20.7421 56H39.9848C40.8478 56 41.5473 55.3005 41.5473 54.4375C41.5473 53.5745 40.8478 52.875 39.9848 52.875H20.7421C20.0751 52.875 19.6726 52.5027 19.4922 52.2808C19.1805 51.8976 19.0599 51.3988 19.1612 50.9121C20.7827 43.1234 27.6527 37.4339 35.5862 37.242C35.7237 37.2473 35.8617 37.25 36.0005 37.25C36.1405 37.25 36.28 37.2473 36.4187 37.2419C38.85 37.2989 41.1883 37.8538 43.3753 38.8934C44.1548 39.2638 45.0868 38.9324 45.4573 38.153C45.8277 37.3736 45.4963 36.4415 44.7169 36.071ZM36.3815 34.1154C36.2548 34.1131 36.1277 34.112 36.0005 34.112C35.8744 34.112 35.7483 34.1132 35.6223 34.1155C31.6618 33.918 28.5005 30.6337 28.5005 26.625C28.5005 22.4895 31.8649 19.125 36.0005 19.125C40.136 19.125 43.5005 22.4895 43.5005 26.625C43.5005 30.6327 40.3407 33.9163 36.3815 34.1154Z" fill="white"/>
<path d="M54.4375 47.0156H50.1406V42.7188C50.1406 41.8558 49.4411 41.1562 48.5781 41.1562C47.7152 41.1562 47.0156 41.8558 47.0156 42.7188V47.0156H42.7188C41.8558 47.0156 41.1562 47.7152 41.1562 48.5781C41.1562 49.4411 41.8558 50.1406 42.7188 50.1406H47.0156V54.4375C47.0156 55.3005 47.7152 56 48.5781 56C49.4411 56 50.1406 55.3005 50.1406 54.4375V50.1406H54.4375C55.3005 50.1406 56 49.4411 56 48.5781C56 47.7152 55.3005 47.0156 54.4375 47.0156Z" fill="white"/>
<defs>
<linearGradient id="paint0_linear" x1="0" y1="0" x2="71.9996" y2="0.169583" gradientUnits="userSpaceOnUse">
<stop stop-color="#36D1DC"/>
<stop offset="1" stop-color="#5B86E5"/>
</linearGradient>
</defs>
</svg>
