<svg width="383" height="347" viewBox="0 0 383 347" fill="none" xmlns="http://www.w3.org/2000/svg">
<path d="M143.462 168.404L141.374 170.666L148.153 176.923L150.24 174.662L143.462 168.404Z" fill="#44B4DF"/>
<path d="M48.001 110.614L47.7178 114.528L59.4505 115.377L59.7338 111.464L48.001 110.614Z" fill="#44B4DF"/>
<path d="M23.7266 288.268L26.6094 290.93L34.5899 282.288L31.7071 279.626L23.7266 288.268Z" fill="#44B4DF"/>
<path d="M188.308 38.1425L186.971 41.6165L197.386 45.6246L198.723 42.1506L188.308 38.1425Z" fill="#263238"/>
<path d="M39.9829 99.0833L36.8706 97.0413L30.7489 106.371L33.8611 108.413L39.9829 99.0833Z" fill="#C2D4FB"/>
<path d="M206.608 68.7057L204.282 69.6162L207.014 76.5937L209.34 75.6832L206.608 68.7057Z" fill="#1064B4"/>
<path d="M363.78 87.1161L362.298 85.1052L356.266 89.5497L357.747 91.5606L363.78 87.1161Z" fill="#7EDAFE"/>
<path d="M359.741 219.431L358.259 217.42L352.227 221.865L353.708 223.876L359.741 219.431Z" fill="#7EDAFE"/>
<path d="M21.2975 230.663L19.9604 234.137L30.3749 238.145L31.7119 234.671L21.2975 230.663Z" fill="#263238"/>
<path d="M176.293 184.088L167.983 191.536L170.468 194.308L178.778 186.86L176.293 184.088Z" fill="#263238"/>
<path d="M57.0155 254.064L54.2808 251.539L46.7102 259.737L49.445 262.263L57.0155 254.064Z" fill="#1064B4"/>
<path d="M246.438 323.202L243.889 324.618L248.139 332.267L250.688 330.85L246.438 323.202Z" fill="#1064B4"/>
<path d="M89.3986 25.6166L87.0728 26.5271L89.8044 33.5046L92.1302 32.594L89.3986 25.6166Z" fill="#1064B4"/>
<path d="M21.3645 153.72L22.4312 155.979L29.2067 152.779L28.1401 150.521L21.3645 153.72Z" fill="#1064B4"/>
<path d="M140.449 205.617L142.336 207.253L147.245 201.592L145.358 199.955L140.449 205.617Z" fill="#44B4DF"/>
<path d="M124.895 39.3349L125.453 41.7695L132.757 40.0967L132.199 37.662L124.895 39.3349Z" fill="#C2D4FB"/>
<path d="M43.7363 215.268L44.2939 217.703L51.598 216.03L51.0403 213.595L43.7363 215.268Z" fill="#C2D4FB"/>
<path d="M332.645 337.267L325.341 338.939L325.899 341.374L333.203 339.701L332.645 337.267Z" fill="#263238"/>
<path d="M232.938 293.595L231.616 295.714L237.974 299.68L239.296 297.561L232.938 293.595Z" fill="#C2D4FB"/>
<path d="M342.004 253.763L344.33 252.852L341.598 245.875L339.272 246.785L342.004 253.763Z" fill="#C2D4FB"/>
<path d="M164.657 212.989L165.214 215.424L172.518 213.751L171.961 211.316L164.657 212.989Z" fill="#C2D4FB"/>
<path d="M169.397 121.61L169.955 124.044L177.259 122.372L176.701 119.937L169.397 121.61Z" fill="#C2D4FB"/>
<path d="M150.772 232.035L148.317 232.498L149.706 239.861L152.16 239.399L150.772 232.035Z" fill="#1064B4"/>
<path d="M329.539 72.7022L328.752 75.0728L335.864 77.433L336.65 75.0624L329.539 72.7022Z" fill="#C2D4FB"/>
<path d="M288.094 56.0924L279.506 61.4446L281.291 64.3097L289.88 58.9575L288.094 56.0924Z" fill="#263238"/>
<path d="M357.735 121.813L349.146 127.166L350.931 130.031L359.52 124.678L357.735 121.813Z" fill="#263238"/>
<path d="M335.98 292.263C335.965 291.651 335.847 291.047 335.632 290.474C334.532 287.463 330.97 284.511 326.908 283.512C324.893 283.063 322.789 283.245 320.88 284.033C320.838 283.738 320.815 283.44 320.812 283.142C320.746 282.486 320.813 281.824 321.007 281.194C321.202 280.565 321.521 279.98 321.946 279.476C322.602 278.864 323.458 278.51 324.354 278.48L324.389 276.961L324.439 275.339C322.699 275.337 321.024 276.006 319.764 277.206C318.335 278.619 317.618 280.613 317.67 283.171C317.686 284.001 317.802 284.826 318.015 285.628C317.692 285.863 317.381 286.115 317.085 286.383C313.763 289.481 312.455 294.238 313.424 299.78C314.558 306.389 312.224 311.088 309.573 312.658C307.685 313.774 305.504 313.484 303.433 311.825L301.482 314.268C302.003 314.686 302.56 315.056 303.147 315.376C304.363 316.09 305.749 316.463 307.159 316.458C308.57 316.452 309.952 316.067 311.163 315.344C315.565 312.752 316.166 305.24 314.966 298.212C313.984 292.489 316.332 288.502 319.232 288.672C320.391 290.769 321.984 292.594 323.905 294.026C326.83 296.23 330.008 297.094 332.57 296.374C334.759 295.802 336.012 294.256 335.98 292.263ZM330.901 293.514C329.017 293.449 327.209 292.756 325.764 291.545C324.139 290.338 322.802 288.785 321.849 286.999C323.198 286.412 324.696 286.255 326.138 286.549C330.121 287.528 332.808 290.665 332.828 292.306C332.831 292.551 332.842 293.074 331.719 293.385C331.492 293.449 331.259 293.49 331.024 293.508L330.901 293.514Z" fill="#7EDAFE"/>
<path d="M331.035 293.509C331.271 293.491 331.503 293.45 331.73 293.386C332.853 293.076 332.842 292.561 332.839 292.308C332.81 290.673 330.133 287.529 326.15 286.551C324.707 286.256 323.21 286.413 321.86 287.001C321.314 286.096 320.975 285.082 320.868 284.031C322.776 283.243 324.881 283.061 326.896 283.51C330.957 284.509 334.519 287.461 335.619 290.472C335.358 293.113 331.734 293.468 331.035 293.509Z" fill="#7EDAFE"/>
<path d="M60.6534 166.419C60.7471 165.814 60.7385 165.199 60.628 164.598C60.0875 161.443 57.105 157.895 53.2946 156.152C51.3946 155.349 49.2941 155.151 47.2773 155.582C47.2892 155.283 47.3207 154.986 47.3715 154.691C47.4239 154.034 47.6077 153.394 47.912 152.808C48.2162 152.223 48.6348 151.705 49.1429 151.285C49.8921 150.803 50.7896 150.606 51.6716 150.731L51.9783 149.245L52.3154 147.667C50.6 147.369 48.8358 147.743 47.3896 148.713C45.7368 149.831 44.6818 151.684 44.2579 154.211C44.1261 155.031 44.093 155.863 44.1593 156.69C43.8073 156.867 43.4648 157.063 43.1333 157.276C39.3064 159.727 37.1979 164.175 37.1123 169.793C37.0413 176.497 33.9001 180.715 31.0184 181.77C28.963 182.534 26.8665 181.849 25.1243 179.849L22.7625 181.936C23.1938 182.44 23.6688 182.904 24.1818 183.325C25.2506 184.243 26.5466 184.858 27.9343 185.104C29.322 185.35 30.7504 185.219 32.07 184.724C36.8699 182.95 38.8031 175.681 38.8811 168.554C38.9467 162.745 41.9235 159.236 44.7845 159.93C45.549 162.202 46.7891 164.285 48.4219 166.039C50.9296 168.742 53.8816 170.127 56.5226 169.908C58.799 169.674 60.3313 168.383 60.6534 166.419ZM55.4614 166.748C53.6195 166.347 51.9646 165.342 50.7603 163.892C49.3781 162.414 48.3405 160.648 47.7222 158.721C49.153 158.386 50.6524 158.5 52.0164 159.046C55.7624 160.731 57.8389 164.289 57.5686 165.91C57.5312 166.157 57.4479 166.707 56.2804 166.774C56.0449 166.795 55.8078 166.792 55.5729 166.765L55.4614 166.748Z" fill="#263238"/>
<path d="M55.57 166.765C55.8049 166.791 56.042 166.794 56.2775 166.774C57.4351 166.664 57.5215 166.148 57.5657 165.91C57.8072 164.317 55.757 160.746 52.0135 159.046C50.6495 158.499 49.1501 158.386 47.7193 158.721C47.3447 157.734 47.1934 156.675 47.2763 155.622C49.2931 155.191 51.3936 155.39 53.2936 156.192C57.1089 157.903 60.0834 161.451 60.627 164.638C59.8809 167.141 56.2587 166.845 55.57 166.765Z" fill="#6A7277"/>
<circle cx="190.54" cy="180.629" r="123.305" transform="rotate(5.29467 190.54 180.629)" fill="url(#paint0_linear)"/>
<mask id="mask0" mask-type="alpha" maskUnits="userSpaceOnUse" x="67" y="57" width="247" height="247">
<circle cx="190.54" cy="180.629" r="123.305" transform="rotate(5.29467 190.54 180.629)" fill="url(#paint1_linear)"/>
</mask>
<g mask="url(#mask0)">
<mask id="mask1" mask-type="alpha" maskUnits="userSpaceOnUse" x="-95" y="-15" width="456" height="381">
<rect x="-63.4277" y="-14.5857" width="425.964" height="341.892" transform="rotate(5.29467 -63.4277 -14.5857)" fill="#C4C4C4"/>
</mask>
<g mask="url(#mask1)">
<path d="M115.198 82.1865C117.441 77.0401 97.5683 72.3922 91.5584 88.2144C86.1093 102.585 77.0632 106.245 81.3192 116.19C85.9223 126.964 112.01 128.255 123.282 116.342C132.453 106.663 122.49 102.594 123.781 93.4855C125.072 84.3768 122.356 81.4029 115.198 82.1865Z" fill="#263238"/>
<path d="M78.9888 113.012C77.956 107.438 80.0394 105.087 82.6304 102.158C86.1937 98.5473 88.6365 93.9832 89.6643 89.0156C90.1878 86.2983 91.5425 83.8108 93.541 81.8967C95.5395 79.9827 98.0833 78.7367 100.821 78.331C106.697 77.2448 112.921 79.1591 114.559 81.6076C114.827 81.9476 114.982 82.3622 115.005 82.7943C115.027 83.2264 114.915 83.6549 114.684 84.0206L113.936 83.5398C114.078 83.324 114.148 83.068 114.133 82.8097C114.119 82.5515 114.021 82.3048 113.856 82.1063C112.395 79.9337 106.465 78.1975 101.016 79.2125C97.1256 79.9337 92.1573 82.2576 90.5636 89.2115C89.5086 94.3299 86.9945 99.0335 83.3249 102.754C80.7606 105.612 78.873 107.669 79.8614 112.851L78.9888 113.012Z" fill="#263238"/>
<path d="M101.325 139.661L100.755 140.097L100.292 140.436L99.4016 141.059C98.8051 141.451 98.2085 141.825 97.6209 142.172C96.4101 142.872 95.1617 143.505 93.8813 144.068C91.2492 145.225 88.4823 146.048 85.6455 146.517C82.6498 147.024 79.5918 147.042 76.5904 146.57C75.0544 146.328 73.5456 145.938 72.0852 145.404C71.7201 145.279 71.3551 145.137 70.9989 144.985L70.4647 144.763L70.1976 144.647L69.9038 144.513L69.5387 144.335C68.7591 143.937 68.0397 143.43 67.4019 142.831C66.9469 142.408 66.527 141.95 66.1464 141.459C65.1377 140.094 64.3227 138.596 63.7246 137.008C63.1904 135.681 62.7809 134.425 62.4158 133.188C61.7571 130.807 61.2222 128.394 60.8131 125.958C60.0073 121.22 59.5608 116.428 59.4776 111.623C59.3674 110.723 59.6044 109.815 60.1402 109.084C60.676 108.353 61.4704 107.854 62.3614 107.688C63.2525 107.523 64.1732 107.703 64.936 108.192C65.6988 108.682 66.2463 109.444 66.467 110.323L66.467 110.421C68.0251 114.686 69.5209 119.013 71.0524 123.207C71.8537 125.272 72.6461 127.329 73.5365 129.199C73.9319 130.087 74.3717 130.955 74.8542 131.799C75.1522 132.366 75.5333 132.885 75.985 133.339C75.985 133.339 75.985 133.339 75.9316 133.223C75.7243 133.013 75.4836 132.839 75.2193 132.707L75.0501 132.618C75.0056 132.618 74.8898 132.556 74.9522 132.573L75.0946 132.573L75.3795 132.645C75.5638 132.7 75.7511 132.744 75.9405 132.778C76.6919 132.929 77.454 133.022 78.2198 133.054C79.8231 133.11 81.4262 132.942 82.9833 132.556C84.6941 132.127 86.3583 131.531 87.9515 130.775C88.7795 130.401 89.5987 129.965 90.4 129.528C90.8007 129.306 91.1924 129.074 91.5664 128.843L92.4568 128.264L93.1512 127.837C94.7192 126.753 96.6535 126.336 98.5287 126.678C100.404 127.021 102.066 128.094 103.15 129.662C104.234 131.23 104.651 133.164 104.308 135.039C103.966 136.915 102.893 138.577 101.325 139.661Z" fill="#FFC3BD"/>
<path d="M134.109 248.662C134.759 203.039 130.548 178.17 130.548 178.17L96.7852 179.853C96.7852 179.853 101.78 221.594 110.639 252.339C113.008 268.838 118.341 296.743 122.036 315.485C127.518 315.014 132.939 313.988 138.214 312.422C139.523 295.959 139.754 272.159 134.109 248.662Z" fill="#E4EDFF"/>
<path d="M97.2387 126.208C92.2348 127.098 84.6044 131.327 84.6044 131.327C84.6044 131.327 80.5888 140.943 85.3968 147.871C90.1336 148.984 92.5197 148.075 92.5197 148.075L97.2387 126.208Z" fill="#263238"/>
<path opacity="0.2" d="M85.3965 147.87C90.1332 148.983 92.5194 148.075 92.5194 148.075L92.4215 135.102C89.136 139.429 86.456 143.721 85.3965 147.87Z" fill="black"/>
<path opacity="0.2" d="M133.93 221.745C130.155 212.512 126.095 204.908 124.537 197.963C121.865 216.848 123.967 234.22 134.126 246.667C134.268 237.434 134.144 229.162 133.93 221.745Z" fill="black"/>
<path d="M185.5 294.152L172.029 303.733C161.033 289.406 144.544 267.521 140.555 257.994C130.422 233.82 110.051 180.53 110.051 180.53L136.495 174.386C136.495 174.386 153.18 189.879 163.945 248.342C172.982 261.146 180.568 279.986 185.5 294.152Z" fill="#E4EDFF"/>
<path d="M192.365 316.821C192.365 316.821 190.041 308.647 185.473 296.404C182.033 299.669 178.223 302.52 174.121 304.899C180.558 314.479 185.268 321.362 185.268 321.362C188.008 320.534 190.465 318.962 192.365 316.821Z" fill="#FFC3BD"/>
<path d="M169.142 301.159C170.033 302.459 172.419 305.709 173.728 306.626C173.804 306.681 173.892 306.717 173.985 306.733C174.077 306.748 174.172 306.742 174.262 306.715C180.325 304.846 185.525 301.097 187.431 298.987C187.484 298.93 187.525 298.862 187.551 298.789C187.577 298.715 187.587 298.637 187.582 298.559C187.448 296.556 186.05 292.825 185.427 291.267C185.394 291.185 185.342 291.111 185.276 291.051C185.21 290.991 185.131 290.946 185.046 290.92C184.961 290.895 184.87 290.889 184.782 290.902C184.694 290.916 184.61 290.95 184.537 291C179.68 294.392 174.625 297.493 169.401 300.287C169.321 300.322 169.251 300.374 169.194 300.439C169.136 300.504 169.094 300.58 169.069 300.663C169.045 300.746 169.039 300.834 169.051 300.919C169.064 301.005 169.095 301.087 169.142 301.159Z" fill="#263238"/>
<path d="M89.5994 139.492C90.8103 147.363 86.1091 153.48 93.33 157.113C92.1369 163.097 93.9177 175.072 96.7757 179.818C100.782 181.999 120.433 178.776 136.486 174.378C136.255 167.522 130.61 154.032 132.177 131.577C132.262 130.348 132.089 129.114 131.667 127.957C131.245 126.799 130.584 125.743 129.728 124.857C128.872 123.972 127.838 123.276 126.696 122.815C125.553 122.354 124.326 122.139 123.095 122.183C121.697 122.237 120.228 122.317 118.732 122.451C113.478 122.805 108.256 123.534 103.106 124.632C101.441 125.015 99.7228 125.469 98.0846 125.932C95.2581 126.766 92.8347 128.606 91.2715 131.104C89.7083 133.602 89.1135 136.586 89.5994 139.492Z" fill="#263238"/>
<path d="M100.951 133.499C100.951 133.499 105.973 131.656 108.617 136.171C112.998 133.704 119.177 123.278 118.732 122.485C111.395 124.507 100.951 133.499 100.951 133.499Z" fill="white"/>
<path d="M100.952 133.499C100.952 133.499 97.132 133.045 96.0547 136.42C96.0547 129.742 100.56 125.548 102.528 124.765C101.869 126.51 100.952 133.499 100.952 133.499Z" fill="white"/>
<path d="M116.808 104.811C116.247 110.011 116.158 118.39 118.74 122.485C118.74 122.485 108.946 129.199 100.933 133.499C98.413 127.667 102.509 124.765 102.509 124.765C106.328 123.296 106.293 118.416 105.776 114.668L116.808 104.811Z" fill="#FFC3BD"/>
<path opacity="0.2" d="M105.777 114.677L112.01 109.068C112.219 110.115 112.151 111.198 111.814 112.211C110.735 115.129 108.66 117.573 105.955 119.111C106.05 117.631 105.99 116.145 105.777 114.677Z" fill="black"/>
<path d="M118.824 95.1332C117.978 103.583 117.8 107.18 113.437 111.365C106.867 117.66 96.8766 114.775 95.2205 106.236C93.7336 98.5345 95.363 86.0691 103.626 82.9705C111.888 79.872 119.67 86.6834 118.824 95.1332Z" fill="#FFC3BD"/>
<path d="M116.933 101.32C113.888 98.6493 114.413 93.9214 116.639 91.6598C118.865 89.3982 121.981 94.0638 121.981 94.0638L116.933 101.32Z" fill="#263238"/>
<path d="M106.741 97.4821C106.768 96.7936 106.424 96.2209 105.972 96.2028C105.519 96.1847 105.13 96.7281 105.103 97.4165C105.075 98.105 105.419 98.6778 105.872 98.6959C106.324 98.7139 106.713 98.1705 106.741 97.4821Z" fill="#263238"/>
<path d="M98.237 97.2775C98.2645 96.589 97.9201 96.0163 97.4677 95.9982C97.0153 95.9801 96.6262 96.5235 96.5987 97.212C96.5712 97.9004 96.9156 98.4732 97.368 98.4913C97.8204 98.5094 98.2094 97.9659 98.237 97.2775Z" fill="#263238"/>
<path d="M97.594 96.0321L95.9824 95.489C95.9824 95.489 96.7481 96.8157 97.594 96.0321Z" fill="#263238"/>
<path d="M100.247 97.5369C99.5596 99.0895 98.6607 100.54 97.5762 101.846C97.9173 102.112 98.3124 102.3 98.7339 102.397C99.1553 102.494 99.5928 102.497 100.016 102.407L100.247 97.5369Z" fill="#ED847E"/>
<path d="M103.927 105.105C103.543 105.157 103.156 105.175 102.769 105.159C102.715 105.159 102.663 105.137 102.624 105.099C102.586 105.06 102.564 105.008 102.564 104.954C102.564 104.9 102.586 104.848 102.624 104.809C102.663 104.771 102.715 104.749 102.769 104.749C103.627 104.803 104.485 104.654 105.274 104.314C106.063 103.973 106.761 103.451 107.31 102.79C107.344 102.757 107.389 102.736 107.437 102.733C107.484 102.729 107.532 102.742 107.571 102.769C107.61 102.797 107.638 102.837 107.651 102.883C107.663 102.929 107.659 102.978 107.64 103.022C106.72 104.173 105.388 104.92 103.927 105.105Z" fill="#263238"/>
<path d="M120.237 102.22C119.905 102.918 119.429 103.538 118.839 104.039C118.25 104.539 117.561 104.909 116.818 105.123C114.921 105.595 114.04 103.511 114.627 101.428C115.153 99.5489 116.773 97.0469 118.652 97.5099C120.53 97.9729 121.154 100.395 120.237 102.22Z" fill="#FFC3BD"/>
<path d="M114.441 83.1037C108.453 86.8421 101.73 89.2472 94.7287 90.1556C94.6753 84.0653 106.606 77.2361 114.441 83.1037Z" fill="#263238"/>
<path d="M109.854 83.8428C108.465 89.1851 122.266 98.9794 119.648 108.4C124.207 101.357 120.913 85.5078 120.913 85.5078C120.913 85.5078 109.24 78.1265 109.854 83.8428Z" fill="#263238"/>
<path d="M108.449 92.9335C108.396 92.9244 108.344 92.9047 108.299 92.8757C108.253 92.8467 108.213 92.8088 108.182 92.7643C107.908 92.3346 107.536 91.9758 107.096 91.7174C106.657 91.459 106.162 91.3082 105.653 91.2773C105.595 91.286 105.536 91.282 105.479 91.2656C105.423 91.2492 105.37 91.2209 105.326 91.1824C105.281 91.144 105.245 91.0963 105.221 91.0428C105.196 90.9893 105.184 90.9311 105.184 90.8722C105.184 90.8133 105.196 90.7552 105.221 90.7016C105.245 90.6481 105.281 90.6005 105.326 90.562C105.37 90.5236 105.423 90.4952 105.479 90.4788C105.536 90.4624 105.595 90.4584 105.653 90.4671C106.291 90.4989 106.911 90.6819 107.464 91.0008C108.017 91.3197 108.486 91.7655 108.832 92.3013C108.876 92.3672 108.9 92.4445 108.901 92.5237C108.901 92.6029 108.879 92.6806 108.837 92.7475C108.795 92.8144 108.734 92.8676 108.662 92.9006C108.59 92.9336 108.51 92.945 108.431 92.9335L108.449 92.9335Z" fill="#263238"/>
<path d="M94.3995 92.6402C94.3207 92.6368 94.2444 92.6106 94.1801 92.5648C94.1157 92.5191 94.0659 92.4557 94.0368 92.3823C94.0076 92.3089 94.0003 92.2286 94.0157 92.1512C94.0311 92.0737 94.0685 92.0024 94.1235 91.9457C94.5673 91.4785 95.1167 91.1246 95.7256 90.9139C96.3345 90.7032 96.9851 90.6418 97.6227 90.7348C97.7147 90.7692 97.7913 90.8354 97.8385 90.9216C97.8857 91.0077 97.9004 91.1079 97.8799 91.204C97.8594 91.3 97.8051 91.3855 97.7268 91.4449C97.6485 91.5042 97.5515 91.5334 97.4535 91.5272C96.948 91.4606 96.4339 91.5154 95.9538 91.6873C95.4738 91.8592 95.0417 92.1432 94.6934 92.5156C94.6555 92.5554 94.61 92.587 94.5594 92.6084C94.5089 92.6298 94.4545 92.6407 94.3995 92.6402Z" fill="#263238"/>
<path d="M106.078 96.2372L104.439 95.6941C104.439 95.6941 105.241 97.0297 106.078 96.2372Z" fill="#263238"/>
<path opacity="0.2" d="M131.972 135.93C131.829 140.685 132.001 145.444 132.488 150.176C128.037 145.475 122.445 136.598 122.08 132.146L131.972 135.93Z" fill="black"/>
<path d="M161.041 119.209L162.02 113.555L170.773 116.947C170.773 116.947 168.743 122.209 164.994 124.533L163.953 123.874C163.14 123.374 162.454 122.693 161.949 121.883C161.444 121.074 161.133 120.158 161.041 119.209Z" fill="#FFC3BD"/>
<path d="M167.497 110.403L170.381 111.971C171.014 112.314 171.484 112.893 171.691 113.582C171.898 114.271 171.824 115.013 171.485 115.648L170.773 116.948L161.994 113.555L164.078 111.053C164.482 110.563 165.045 110.23 165.67 110.111C166.294 109.993 166.94 110.096 167.497 110.403Z" fill="#FFC3BD"/>
<path d="M130.414 125.664L131.527 126.822L132.747 128.059C133.575 128.869 134.403 129.698 135.257 130.481C136.949 132.075 138.703 133.553 140.448 134.933C142.104 136.229 143.861 137.39 145.701 138.406C147.111 139.196 148.643 139.744 150.233 140.026L147.838 140.471C147.251 140.756 147.286 140.881 147.411 140.783C147.649 140.619 147.87 140.431 148.07 140.222C148.719 139.542 149.315 138.813 149.851 138.04C151.061 136.322 152.29 134.372 153.412 132.351C154.534 130.33 155.736 128.246 156.876 126.118L160.303 119.779L160.303 119.725C160.705 118.97 161.363 118.382 162.159 118.067C162.954 117.751 163.836 117.729 164.646 118.004C165.456 118.28 166.143 118.834 166.582 119.568C167.021 120.303 167.185 121.169 167.044 122.014C166.634 124.578 166.073 127 165.45 129.466C164.827 131.932 164.079 134.354 163.242 136.803C162.375 139.33 161.339 141.795 160.143 144.184C159.458 145.533 158.676 146.831 157.802 148.066C157.258 148.832 156.647 149.547 155.976 150.203C154.982 151.198 153.806 151.993 152.513 152.545C151.879 152.818 151.199 152.966 150.509 152.981L150.118 152.981C146.6 153.006 143.118 152.277 139.905 150.844C138.486 150.241 137.101 149.56 135.756 148.805C134.462 148.057 133.219 147.271 132.025 146.446C129.695 144.815 127.476 143.03 125.383 141.103C124.359 140.16 123.344 139.207 122.374 138.21C121.884 137.711 121.403 137.203 120.931 136.687C120.46 136.171 120.041 135.672 119.462 135.013C118.829 134.312 118.339 133.492 118.022 132.601C117.705 131.711 117.567 130.766 117.615 129.822C117.663 128.878 117.896 127.952 118.302 127.098C118.707 126.244 119.277 125.479 119.979 124.845C120.68 124.211 121.5 123.722 122.391 123.405C123.281 123.088 124.226 122.949 125.17 122.997C126.114 123.045 127.039 123.279 127.893 123.684C128.747 124.09 129.513 124.66 130.147 125.361L130.414 125.664Z" fill="#FFC3BD"/>
<path d="M123.496 122.236C130.022 122.432 136.513 130.25 136.513 130.25C136.513 130.25 133.993 140.623 126.843 145.092C122.819 141.958 119.409 139.447 119.409 139.447C113.728 131.104 115.625 125.566 123.496 122.236Z" fill="#263238"/>
<path d="M95.4775 179.239C95.9583 182.034 96.537 184.216 96.724 184.892C96.7441 184.963 96.7782 185.028 96.8241 185.084C96.8699 185.141 96.9268 185.188 96.9911 185.222C97.9438 185.756 102.333 187.893 110.258 187.43C119.206 186.94 132.223 182.088 139.007 176.906C139.107 176.83 139.179 176.724 139.212 176.603C139.244 176.482 139.235 176.353 139.186 176.238C138.665 175.076 138.055 173.957 137.36 172.89C137.294 172.788 137.197 172.711 137.083 172.669C136.969 172.627 136.844 172.624 136.728 172.659C133.808 173.549 115.422 178.811 96.0562 178.58C95.9721 178.576 95.8881 178.591 95.8105 178.624C95.733 178.657 95.6638 178.706 95.6082 178.77C95.5526 178.833 95.512 178.908 95.4894 178.989C95.4667 179.07 95.4627 179.156 95.4775 179.239Z" fill="#407BFF"/>
<path opacity="0.3" d="M95.4775 179.239C95.9583 182.034 96.537 184.216 96.724 184.892C96.7441 184.963 96.7782 185.028 96.8241 185.084C96.8699 185.141 96.9268 185.188 96.9911 185.222C97.9438 185.756 102.333 187.893 110.258 187.43C119.206 186.94 132.223 182.088 139.007 176.906C139.107 176.83 139.179 176.724 139.212 176.603C139.244 176.482 139.235 176.353 139.186 176.238C138.665 175.076 138.055 173.957 137.36 172.89C137.294 172.788 137.197 172.711 137.083 172.669C136.969 172.627 136.844 172.624 136.728 172.659C133.808 173.549 115.422 178.811 96.0562 178.58C95.9721 178.576 95.8881 178.591 95.8105 178.624C95.733 178.657 95.6638 178.706 95.6082 178.77C95.5526 178.833 95.512 178.908 95.4894 178.989C95.4667 179.07 95.4627 179.156 95.4775 179.239Z" fill="white"/>
<path d="M273.914 323.276L156.688 323.276C154.52 323.296 152.371 322.867 150.377 322.016C148.382 321.165 146.586 319.911 145.1 318.332C143.614 316.753 142.47 314.884 141.742 312.841C141.013 310.799 140.715 308.628 140.866 306.465L155.157 62.8114C155.482 58.2903 157.49 54.0554 160.785 50.9431C164.08 47.8307 168.423 46.0673 172.955 46.0009L290.181 46.0009C292.349 45.9809 294.498 46.4098 296.492 47.2606C298.487 48.1114 300.283 49.3657 301.769 50.9446C303.255 52.5236 304.399 54.393 305.127 56.4352C305.856 58.4774 306.154 60.6484 306.003 62.8114L291.703 306.465C291.379 310.985 289.371 315.218 286.078 318.331C282.785 321.443 278.444 323.207 273.914 323.276Z" fill="#407BFF"/>
<path opacity="0.8" d="M273.914 323.276L156.688 323.276C154.52 323.296 152.371 322.867 150.377 322.016C148.382 321.165 146.586 319.911 145.1 318.332C143.614 316.753 142.47 314.884 141.742 312.841C141.013 310.799 140.715 308.628 140.866 306.465L155.157 62.8114C155.482 58.2903 157.49 54.0554 160.785 50.9431C164.08 47.8307 168.423 46.0673 172.955 46.0009L290.181 46.0009C292.349 45.9809 294.498 46.4098 296.492 47.2606C298.487 48.1114 300.283 49.3657 301.769 50.9446C303.255 52.5236 304.399 54.393 305.127 56.4352C305.856 58.4774 306.154 60.6484 306.003 62.8114L291.703 306.465C291.379 310.985 289.371 315.218 286.078 318.331C282.785 321.443 278.444 323.207 273.914 323.276Z" fill="white"/>
<path d="M273.219 318.405L159.252 318.405C157.728 318.42 156.218 318.119 154.815 317.521C153.413 316.924 152.15 316.042 151.105 314.932C150.061 313.822 149.257 312.508 148.745 311.072C148.234 309.636 148.025 308.11 148.132 306.59L162.378 63.9955C162.604 60.8249 164.009 57.8539 166.316 55.6672C168.623 53.4805 171.665 52.2366 174.843 52.1801L288.81 52.1801C290.333 52.1666 291.843 52.4685 293.245 53.0667C294.646 53.6649 295.909 54.5465 296.953 55.6561C297.998 56.7658 298.801 58.0794 299.314 59.5146C299.826 60.9497 300.036 62.4753 299.93 63.9955L285.684 306.59C285.458 309.76 284.053 312.731 281.746 314.918C279.439 317.105 276.397 318.349 273.219 318.405Z" fill="#407BFF"/>
<path d="M271.991 317.096L158.024 317.096C156.501 317.109 154.992 316.806 153.592 316.207C152.191 315.608 150.93 314.727 149.886 313.617C148.843 312.508 148.04 311.194 147.528 309.76C147.016 308.325 146.807 306.8 146.912 305.281L161.158 62.6868C161.385 59.5162 162.789 56.5452 165.096 54.3585C167.403 52.1718 170.445 50.9278 173.623 50.8714L287.59 50.8714C289.115 50.8566 290.626 51.1576 292.028 51.7552C293.431 52.3529 294.695 53.2343 295.74 54.3441C296.785 55.4538 297.59 56.7679 298.102 58.2037C298.615 59.6395 298.826 61.1658 298.72 62.6868L284.474 305.281C284.247 308.455 282.84 311.428 280.529 313.615C278.218 315.802 275.172 317.044 271.991 317.096Z" fill="white"/>
<path opacity="0.1" d="M268.661 308.077L162.422 308.077C161.481 308.085 160.547 307.899 159.681 307.529C158.815 307.16 158.035 306.615 157.389 305.929C156.744 305.243 156.247 304.432 155.93 303.545C155.613 302.658 155.483 301.715 155.549 300.776L161.487 199.583C161.63 197.621 162.502 195.782 163.932 194.431C165.363 193.079 167.248 192.313 169.216 192.282L275.454 192.282C276.396 192.274 277.329 192.46 278.195 192.83C279.061 193.2 279.842 193.744 280.487 194.43C281.133 195.116 281.63 195.927 281.946 196.814C282.263 197.701 282.393 198.644 282.328 199.583L276.389 300.776C276.247 302.739 275.374 304.577 273.944 305.928C272.513 307.28 270.628 308.046 268.661 308.077Z" fill="#407BFF"/>
<path opacity="0.1" d="M245.057 68.8658L214.081 68.8658C213.744 68.8678 213.411 68.8002 213.101 68.6673C212.791 68.5343 212.512 68.3389 212.282 68.0931C212.051 67.8474 211.873 67.5567 211.76 67.2392C211.647 66.9217 211.601 66.5843 211.624 66.248C211.675 65.544 211.989 64.8849 212.504 64.4017C213.019 63.9184 213.696 63.6463 214.402 63.6392L245.369 63.6392C245.706 63.6372 246.04 63.7047 246.349 63.8377C246.659 63.9706 246.938 64.1661 247.169 64.4118C247.399 64.6576 247.577 64.9483 247.69 65.2658C247.803 65.5833 247.85 65.9207 247.826 66.2569C247.775 66.9595 247.462 67.6173 246.95 68.1003C246.437 68.5833 245.762 68.8565 245.057 68.8658Z" fill="#407BFF"/>
<path opacity="0.1" d="M272.509 133.962C270.995 159.783 248.834 180.716 223.013 180.716C197.193 180.716 177.489 159.783 179.003 133.962C180.516 108.141 202.677 87.2078 228.498 87.2078C254.319 87.2078 274.058 108.141 272.509 133.962Z" fill="#407BFF"/>
<path d="M193.034 164.93C189.136 160.78 186.137 155.87 184.225 150.508C182.313 145.145 181.529 139.446 181.922 133.766L182.812 133.82C182.429 139.376 183.197 144.951 185.067 150.197C186.938 155.443 189.871 160.246 193.684 164.306L193.034 164.93Z" fill="#407BFF"/>
<path d="M269.604 134.149L268.714 134.095C268.96 130.173 268.66 126.236 267.823 122.396L268.714 122.2C269.562 126.122 269.862 130.144 269.604 134.149Z" fill="#407BFF"/>
<path d="M265.234 114.65C263.058 109.812 259.942 105.455 256.068 101.832C252.193 98.2094 247.636 95.3933 242.663 93.5477L242.975 92.7107C248.059 94.5991 252.717 97.4798 256.677 101.185C260.638 104.89 263.822 109.346 266.044 114.294L265.234 114.65Z" fill="#407BFF"/>
<path d="M266.489 133.962C265.171 156.462 245.859 174.697 223.359 174.697C200.86 174.697 183.694 156.462 185.02 133.962C186.347 111.462 205.641 93.1914 228.141 93.1914C250.64 93.1914 267.824 111.462 266.489 133.962Z" fill="#407BFF"/>
<path d="M221.221 139.491C223.18 139.064 224.097 137.381 224.506 135.475C224.506 135.28 224.586 135.084 224.622 134.879L224.622 134.701C224.733 133.907 224.792 133.107 224.8 132.306C222.904 132.118 221.143 131.239 219.852 129.837C218.562 128.435 217.832 126.607 217.802 124.702C217.689 120.932 218.505 117.192 220.179 113.812C219.742 113.874 219.329 114.045 218.977 114.311C218.911 114.347 218.833 114.358 218.76 114.342C218.686 114.325 218.62 114.283 218.576 114.222C218.531 114.161 218.51 114.086 218.517 114.01C218.523 113.935 218.557 113.865 218.612 113.812C219.165 113.392 219.841 113.167 220.535 113.171C220.66 112.958 220.784 112.735 220.918 112.53C220.357 112.53 219.805 112.53 219.271 112.53C219.858 108.417 227.774 104.962 233.169 108.078C235.573 108.559 239.536 111.987 239.536 111.987C239.617 114.179 239.555 116.374 239.349 118.558C238.992 122.271 238.111 126.652 235.974 129.082C236.508 127.838 236.704 126.474 236.544 125.129C236.03 125.636 235.391 125.999 234.692 126.18C234.439 126.726 234.141 127.25 233.802 127.747C232.965 131.567 232.368 136.651 233.641 139.58C234.79 139.651 235.903 139.758 236.962 139.874L237.221 139.874C237.951 139.496 238.656 139.07 239.331 138.601C247.344 132.368 238.832 125.058 240.844 118.353C242.857 111.649 241.156 109.102 235.68 108.88C237.96 105.265 223.527 99.4682 217.187 110.723C211.444 120.918 209.593 126.002 211.658 133.98C212.436 136.583 214.195 138.783 216.564 140.114C216.967 140.002 217.378 139.919 217.793 139.865C218.852 139.705 220.072 139.58 221.221 139.491Z" fill="#263238"/>
<path d="M208.767 155.162C208.44 154.584 208.143 153.989 207.877 153.381C207.271 155.162 206.675 156.943 206.096 158.723C205.553 160.326 205.018 161.929 204.466 163.46L203.638 165.624L203.273 166.514C203.149 166.755 203.273 166.621 203.273 166.683C202.866 167.127 202.419 167.533 201.938 167.894L201.608 168.17C204.072 169.833 206.723 171.198 209.506 172.239C209.568 168.17 210.067 163.941 210.601 162.81C207.485 160.584 207.966 158.189 208.767 155.162Z" fill="#FFC3BD"/>
<path d="M211.893 143.15L211.661 143.462L211.893 143.159L211.893 143.15Z" fill="#263238"/>
<path d="M209.827 149.116C209.816 147.157 210.41 145.241 211.527 143.632C209.818 146.313 208.414 149.177 207.343 152.17C207.343 152.17 207.503 152.651 207.841 153.381C208.108 153.99 208.405 154.584 208.732 155.162C209.371 153.206 209.739 151.172 209.827 149.116Z" fill="#263238"/>
<path d="M240.864 162.036C239.808 160.485 238.87 158.857 238.059 157.165C237.792 157.308 237.516 157.45 237.231 157.575C234.56 154.752 232.281 152.473 232.281 152.473C228.951 145.528 231.008 141.566 237.32 140.008C238.3 140.208 239.236 140.585 240.08 141.121C239.247 140.537 238.29 140.153 237.285 139.999L237.026 139.999C235.967 139.874 234.854 139.776 233.705 139.705C233.946 140.355 228.239 148.609 224.65 149.918C223.181 146.214 219.059 145.964 219.059 145.964C219.059 145.964 215.213 145.172 214.019 147.594C214.803 142.59 219.62 139.954 221.222 139.58C220.074 139.678 218.899 139.803 217.768 139.945C215.456 140.253 213.352 141.439 211.891 143.258L211.66 143.56L211.535 143.73C210.418 145.339 209.824 147.255 209.835 149.214C209.759 151.268 209.402 153.302 208.775 155.26C207.974 158.252 207.493 160.682 210.636 162.908C210.111 164.039 209.603 168.251 209.541 172.338C213.966 173.977 218.649 174.809 223.368 174.795C229.412 174.785 235.382 173.473 240.873 170.949C240.721 167.634 240.747 164.314 240.953 161.003C240.917 161.279 240.882 161.671 240.864 162.036Z" fill="#263238"/>
<path d="M219.06 145.875C219.06 145.875 223.182 146.134 224.651 149.829C228.213 148.475 233.946 140.266 233.706 139.616C233.715 139.616 225.604 143.551 219.06 145.875Z" fill="white"/>
<path d="M221.249 139.491C219.655 139.874 214.838 142.51 214.046 147.505C215.239 145.083 219.085 145.875 219.085 145.875C217.83 141.192 221.249 139.491 221.249 139.491Z" fill="white"/>
<path d="M233.864 127.783C233.09 128.905 232.111 129.872 230.979 130.632C230.503 130.974 229.996 131.272 229.466 131.523C228.296 133.395 226.554 134.84 224.498 135.645C224.498 135.592 224.498 135.538 224.498 135.494C224.079 137.399 223.162 139.055 221.212 139.509C221.212 139.509 217.793 141.228 219.031 145.902C225.575 143.587 233.677 139.67 233.677 139.67C232.431 136.696 233.027 131.603 233.864 127.783Z" fill="#FFC3BD"/>
<path d="M224.536 135.466C224.578 135.271 224.616 135.072 224.652 134.87C224.616 135.039 224.581 135.262 224.536 135.466Z" fill="#263238"/>
<path opacity="0.2" d="M224.536 135.466C224.578 135.271 224.616 135.072 224.652 134.87C224.616 135.039 224.581 135.262 224.536 135.466Z" fill="black"/>
<path d="M224.855 132.297C224.847 133.098 224.787 133.899 224.677 134.692C224.789 133.899 224.848 133.099 224.855 132.297Z" fill="#263238"/>
<path opacity="0.2" d="M224.855 132.297C224.847 133.098 224.787 133.899 224.677 134.692C224.789 133.899 224.848 133.099 224.855 132.297Z" fill="black"/>
<path d="M229.475 131.478C228.041 132.164 226.445 132.442 224.863 132.279C224.857 133.081 224.797 133.881 224.685 134.674L224.685 134.852C224.655 135.054 224.617 135.253 224.569 135.449C224.569 135.502 224.569 135.556 224.569 135.6C226.602 134.784 228.321 133.34 229.475 131.478Z" fill="#FFC3BD"/>
<path opacity="0.2" d="M229.475 131.478C228.041 132.164 226.445 132.442 224.863 132.279C224.857 133.081 224.797 133.881 224.685 134.674L224.685 134.852C224.655 135.054 224.617 135.253 224.569 135.449C224.569 135.502 224.569 135.556 224.569 135.6C226.602 134.784 228.321 133.34 229.475 131.478Z" fill="black"/>
<path d="M229.476 131.478C230.006 131.227 230.512 130.929 230.989 130.587C232.641 129.492 233.944 127.947 234.747 126.135C234.583 126.183 234.416 126.219 234.248 126.242C232.761 126.385 232.343 124.711 233.019 123.206C233.251 122.705 233.551 122.237 233.91 121.817C233.517 120.546 233.612 119.175 234.177 117.971C232.823 115.193 231.39 112.628 231.256 110.759C227.925 111.789 224.467 112.356 220.981 112.441C220.848 112.646 220.723 112.869 220.599 113.082C220.901 113.077 221.202 113.122 221.489 113.216C221.555 113.252 221.606 113.31 221.632 113.38C221.659 113.45 221.659 113.528 221.633 113.598C221.607 113.668 221.556 113.727 221.491 113.763C221.425 113.799 221.349 113.81 221.275 113.795C220.955 113.698 220.618 113.673 220.287 113.724C218.613 117.103 217.797 120.843 217.91 124.613C217.94 126.518 218.67 128.346 219.96 129.748C221.251 131.151 223.012 132.029 224.908 132.217C226.469 132.391 228.049 132.135 229.476 131.478ZM227.49 113.991C227.974 114.087 228.428 114.3 228.813 114.61C229.197 114.92 229.501 115.319 229.698 115.771C229.726 115.845 229.725 115.926 229.696 115.998C229.667 116.071 229.612 116.13 229.541 116.164C229.47 116.198 229.389 116.203 229.315 116.18C229.24 116.157 229.176 116.106 229.137 116.039C228.98 115.685 228.742 115.373 228.442 115.128C228.142 114.884 227.788 114.714 227.41 114.632C227.366 114.631 227.323 114.621 227.283 114.602C227.244 114.583 227.209 114.557 227.18 114.523C227.152 114.49 227.13 114.451 227.118 114.409C227.105 114.367 227.102 114.323 227.107 114.28C227.113 114.236 227.128 114.195 227.151 114.157C227.174 114.12 227.204 114.088 227.24 114.063C227.276 114.038 227.317 114.022 227.36 114.014C227.403 114.006 227.447 114.007 227.49 114.017L227.49 113.991ZM227.178 118.389C227.327 118.501 227.437 118.656 227.493 118.833C227.549 119.011 227.548 119.201 227.49 119.377C227.392 119.894 227.036 120.268 226.698 120.197C226.359 120.125 226.163 119.662 226.27 119.146C226.314 118.884 226.446 118.645 226.644 118.469C226.369 118.319 226.152 118.081 226.03 117.793L227.178 118.389ZM219.877 118.024C219.921 117.762 220.053 117.523 220.251 117.347C219.976 117.198 219.76 116.959 219.637 116.671L220.812 117.267C220.961 117.379 221.071 117.534 221.127 117.711C221.183 117.889 221.182 118.079 221.124 118.256C221.026 118.772 220.67 119.146 220.331 119.075C219.993 119.004 219.744 118.549 219.877 118.033L219.877 118.024ZM221.943 122.342C221.613 122.363 221.282 122.31 220.975 122.188C220.667 122.067 220.39 121.879 220.162 121.639C221.118 120.778 221.951 119.789 222.638 118.701L221.943 122.342ZM223.661 124.729C223.621 124.72 223.586 124.697 223.564 124.662C223.541 124.628 223.533 124.586 223.541 124.546C223.55 124.506 223.573 124.471 223.608 124.448C223.642 124.426 223.684 124.418 223.724 124.426C224.362 124.562 225.024 124.546 225.655 124.379C226.286 124.212 226.869 123.899 227.356 123.464C227.385 123.435 227.424 123.418 227.465 123.417C227.506 123.416 227.545 123.432 227.575 123.46C227.604 123.488 227.621 123.527 227.622 123.568C227.623 123.609 227.607 123.649 227.579 123.678C226.752 124.441 225.659 124.85 224.534 124.818C224.242 124.819 223.95 124.795 223.661 124.746L223.661 124.729Z" fill="#FFC3BD"/>
<path d="M235.407 120.793C235.033 119.903 234.606 118.959 234.178 118.069C233.614 119.273 233.518 120.644 233.911 121.915C234.301 121.415 234.817 121.027 235.407 120.793Z" fill="#263238"/>
<path d="M226.619 118.488C226.42 118.664 226.288 118.903 226.245 119.164C226.147 119.681 226.343 120.153 226.672 120.215C227.002 120.277 227.367 119.912 227.465 119.396C227.522 119.219 227.523 119.029 227.468 118.852C227.412 118.674 227.302 118.519 227.153 118.407C227.078 118.464 226.989 118.501 226.896 118.515C226.803 118.529 226.708 118.519 226.619 118.488Z" fill="#263238"/>
<path d="M221.099 118.273C221.156 118.097 221.157 117.906 221.101 117.729C221.046 117.552 220.936 117.397 220.787 117.285C220.711 117.343 220.621 117.381 220.526 117.395C220.431 117.409 220.334 117.399 220.244 117.365C220.045 117.541 219.913 117.78 219.87 118.042C219.772 118.558 219.968 119.03 220.297 119.092C220.627 119.155 221.001 118.79 221.099 118.273Z" fill="#263238"/>
<path d="M220.786 117.285L219.61 116.689C219.733 116.977 219.949 117.216 220.225 117.365C220.317 117.402 220.417 117.414 220.516 117.4C220.614 117.386 220.707 117.346 220.786 117.285Z" fill="#263238"/>
<path d="M220.163 121.684C220.39 121.924 220.668 122.112 220.975 122.233C221.283 122.355 221.614 122.407 221.944 122.387L222.638 118.746C221.952 119.834 221.119 120.822 220.163 121.684Z" fill="#ED847E"/>
<path d="M227.58 123.464C227.566 123.449 227.549 123.437 227.53 123.428C227.51 123.42 227.49 123.416 227.469 123.416C227.448 123.416 227.427 123.42 227.408 123.428C227.389 123.437 227.372 123.449 227.358 123.464C226.869 123.9 226.285 124.214 225.652 124.381C225.019 124.548 224.356 124.564 223.716 124.426C223.676 124.418 223.634 124.426 223.6 124.448C223.566 124.471 223.542 124.506 223.533 124.546C223.525 124.586 223.533 124.628 223.556 124.662C223.578 124.697 223.613 124.72 223.654 124.729C223.947 124.784 224.245 124.814 224.544 124.818C225.669 124.85 226.762 124.441 227.589 123.678C227.616 123.648 227.63 123.609 227.629 123.569C227.627 123.529 227.61 123.491 227.58 123.464Z" fill="#263238"/>
<path d="M235.406 120.793C234.814 121.024 234.294 121.408 233.901 121.906C233.542 122.327 233.243 122.794 233.011 123.295C232.334 124.8 232.752 126.474 234.239 126.332C234.408 126.308 234.575 126.272 234.738 126.225C235.437 126.044 236.076 125.682 236.59 125.174C236.404 123.665 236.005 122.191 235.406 120.793Z" fill="#FFC3BD"/>
<path d="M231.433 109.503C231.487 108.221 232.217 107.909 233.214 108.114C227.818 104.962 219.903 108.417 219.315 112.566C219.85 112.566 220.402 112.566 220.963 112.566C224.449 112.48 227.906 111.914 231.237 110.883C231.188 110.414 231.255 109.94 231.433 109.503Z" fill="#263238"/>
<path d="M231.434 109.503C231.266 109.927 231.202 110.385 231.247 110.838C231.381 112.726 232.814 115.29 234.168 118.05C234.604 118.941 235.058 119.831 235.397 120.775C235.996 122.175 236.395 123.653 236.581 125.165C236.741 126.51 236.545 127.873 236.011 129.118C238.157 126.687 239.038 122.306 239.385 118.594C239.591 116.413 239.654 114.221 239.572 112.031C239.572 112.031 235.601 108.603 233.206 108.123C232.209 107.909 231.488 108.221 231.434 109.503Z" fill="#263238"/>
<path d="M227.402 114.623C227.78 114.704 228.134 114.875 228.434 115.119C228.734 115.363 228.972 115.675 229.129 116.029C229.145 116.07 229.168 116.106 229.198 116.137C229.228 116.167 229.265 116.192 229.304 116.208C229.344 116.224 229.387 116.231 229.43 116.23C229.473 116.228 229.515 116.218 229.554 116.2C229.593 116.181 229.628 116.155 229.656 116.122C229.684 116.09 229.705 116.052 229.718 116.011C229.731 115.97 229.735 115.926 229.73 115.884C229.725 115.841 229.712 115.8 229.69 115.762C229.493 115.309 229.189 114.911 228.805 114.601C228.42 114.291 227.966 114.078 227.482 113.981C227.439 113.971 227.395 113.97 227.352 113.978C227.309 113.986 227.268 114.003 227.232 114.027C227.196 114.052 227.165 114.084 227.143 114.121C227.12 114.159 227.105 114.201 227.099 114.244C227.094 114.287 227.097 114.332 227.11 114.373C227.122 114.415 227.143 114.454 227.172 114.487C227.201 114.521 227.236 114.547 227.275 114.566C227.315 114.585 227.358 114.595 227.402 114.596L227.402 114.623Z" fill="#263238"/>
<path d="M221.223 113.875C221.296 113.89 221.372 113.879 221.438 113.843C221.504 113.807 221.554 113.748 221.58 113.678C221.606 113.607 221.606 113.53 221.58 113.46C221.553 113.39 221.502 113.332 221.436 113.296C221.149 113.202 220.848 113.157 220.546 113.162C219.852 113.158 219.175 113.383 218.623 113.803C218.568 113.856 218.534 113.926 218.528 114.001C218.521 114.077 218.542 114.152 218.587 114.213C218.631 114.274 218.697 114.316 218.77 114.333C218.844 114.349 218.921 114.338 218.988 114.302C219.34 114.036 219.753 113.865 220.19 113.803C220.535 113.746 220.889 113.771 221.223 113.875Z" fill="#263238"/>
<path d="M226.617 118.487C226.707 118.521 226.804 118.531 226.899 118.517C226.993 118.503 227.083 118.465 227.16 118.407L225.976 117.811C226.105 118.103 226.331 118.342 226.617 118.487Z" fill="#263238"/>
<path d="M240.864 162.036C240.864 161.671 240.918 161.288 240.935 160.914C240.437 160.121 239.92 159.32 239.404 158.519L238.38 156.996L238.06 157.165C238.871 158.857 239.808 160.485 240.864 162.036Z" fill="#263238"/>
<path opacity="0.2" d="M240.864 162.036C240.864 161.671 240.918 161.288 240.935 160.914C240.437 160.121 239.92 159.32 239.404 158.519L238.38 156.996L238.06 157.165C238.871 158.857 239.808 160.485 240.864 162.036Z" fill="black"/>
<path d="M243.518 169.409L243.518 169.551C247.067 167.629 250.338 165.233 253.241 162.428C252.752 160.993 252.181 159.586 251.531 158.216C250.663 156.355 249.701 154.539 248.646 152.776C247.756 151.245 246.812 149.784 245.842 148.324C244.951 150.185 242.423 154.664 238.407 156.97L239.431 158.492C239.956 159.294 240.464 160.086 240.963 160.888C241.399 161.591 241.853 162.285 242.227 162.98C242.904 164.182 243.554 165.393 244.008 166.542L243.919 167.147C243.785 167.877 243.669 168.634 243.518 169.409Z" fill="#FFC3BD"/>
<path d="M232.281 152.473C232.281 152.473 234.56 154.752 237.231 157.575C237.516 157.45 237.792 157.308 238.059 157.165L238.38 156.996C242.396 154.69 244.906 150.211 245.815 148.35C246.073 147.825 246.206 147.46 246.206 147.46C246.206 147.46 243.633 143.186 240.089 141.031C239.245 140.496 238.309 140.119 237.329 139.918C231.017 141.575 228.951 145.528 232.281 152.473Z" fill="#263238"/>
<path d="M274.947 63.1584L287.493 63.1584C287.835 63.1526 288.163 63.0186 288.412 62.783C288.661 62.5473 288.813 62.227 288.837 61.8851C288.848 61.7211 288.825 61.5565 288.77 61.4018C288.714 61.247 288.627 61.1054 288.514 60.9859C288.401 60.8663 288.265 60.7714 288.114 60.707C287.962 60.6427 287.8 60.6103 287.635 60.6119L275.125 60.6119C274.783 60.6177 274.455 60.7516 274.206 60.9873C273.957 61.2229 273.805 61.5433 273.781 61.8851C273.77 62.0462 273.792 62.2078 273.845 62.3601C273.899 62.5125 273.983 62.6524 274.092 62.7714C274.201 62.8905 274.333 62.9861 274.48 63.0527C274.627 63.1192 274.786 63.1551 274.947 63.1584Z" fill="#407BFF"/>
<path d="M274.714 67.5304L287.26 67.5304C287.602 67.5246 287.93 67.3907 288.179 67.155C288.428 66.9193 288.58 66.599 288.604 66.2571C288.615 66.0938 288.592 65.93 288.537 65.7759C288.482 65.6218 288.396 65.4806 288.284 65.3612C288.172 65.2418 288.037 65.1466 287.887 65.0817C287.737 65.0168 287.575 64.9835 287.411 64.9839L274.866 64.9839C274.523 64.9897 274.195 65.1236 273.946 65.3593C273.697 65.595 273.546 65.9153 273.521 66.2571C273.51 66.4204 273.533 66.5842 273.588 66.7384C273.643 66.8925 273.729 67.0337 273.841 67.1531C273.953 67.2725 274.088 67.3676 274.238 67.4325C274.389 67.4975 274.551 67.5308 274.714 67.5304Z" fill="#407BFF"/>
<path d="M173.22 67.5304L185.765 67.5304C186.108 67.5246 186.436 67.3907 186.685 67.155C186.934 66.9194 187.085 66.5991 187.11 66.2572C187.121 66.0932 187.098 65.9286 187.042 65.7738C186.987 65.6191 186.9 65.4775 186.787 65.358C186.674 65.2384 186.538 65.1435 186.387 65.0791C186.235 65.0147 186.072 64.9823 185.908 64.9839L173.372 64.9839C173.029 64.9897 172.701 65.1237 172.452 65.3593C172.203 65.595 172.052 65.9153 172.027 66.2572C172.016 66.4205 172.039 66.5843 172.094 66.7384C172.149 66.8926 172.235 67.0337 172.347 67.1531C172.459 67.2726 172.594 67.3677 172.744 67.4326C172.895 67.4975 173.057 67.5308 173.22 67.5304Z" fill="#407BFF"/>
<path d="M274.457 71.8937L287.002 71.8937C287.344 71.8879 287.673 71.754 287.921 71.5183C288.17 71.2827 288.322 70.9623 288.346 70.6205C288.357 70.4564 288.334 70.2919 288.279 70.1371C288.223 69.9824 288.136 69.8408 288.023 69.7212C287.911 69.6017 287.774 69.5067 287.623 69.4424C287.472 69.378 287.309 69.3456 287.144 69.3472L274.608 69.3472C274.265 69.353 273.937 69.487 273.688 69.7226C273.439 69.9583 273.288 70.2786 273.263 70.6205C273.252 70.7838 273.275 70.9476 273.33 71.1017C273.385 71.2558 273.471 71.397 273.583 71.5164C273.695 71.6359 273.83 71.731 273.981 71.7959C274.131 71.8608 274.293 71.8941 274.457 71.8937Z" fill="#407BFF"/>
<path d="M257.979 231.637L182.075 231.637C180.658 231.651 179.253 231.37 177.949 230.814C176.645 230.258 175.47 229.439 174.499 228.407C173.527 227.375 172.779 226.153 172.302 224.818C171.826 223.483 171.631 222.064 171.729 220.65C171.942 217.695 173.256 214.927 175.41 212.893C177.565 210.859 180.403 209.706 183.366 209.663L259.261 209.663C260.678 209.649 262.083 209.929 263.387 210.485C264.691 211.041 265.865 211.861 266.837 212.893C267.809 213.925 268.557 215.147 269.033 216.482C269.51 217.817 269.705 219.236 269.607 220.65C269.393 223.604 268.081 226.37 265.929 228.404C263.776 230.438 260.94 231.592 257.979 231.637Z" fill="white"/>
<path d="M256.246 261.171L180.342 261.171C178.925 261.184 177.52 260.904 176.216 260.348C174.913 259.792 173.738 258.972 172.766 257.94C171.794 256.908 171.047 255.687 170.57 254.352C170.093 253.017 169.898 251.598 169.996 250.184C170.214 247.232 171.53 244.468 173.684 242.438C175.838 240.407 178.674 239.257 181.634 239.214L257.528 239.214C258.946 239.201 260.351 239.481 261.654 240.037C262.958 240.593 264.133 241.413 265.105 242.445C266.076 243.477 266.824 244.698 267.301 246.033C267.777 247.368 267.973 248.787 267.874 250.201C267.657 253.152 266.343 255.914 264.19 257.944C262.038 259.975 259.204 261.126 256.246 261.171Z" fill="white"/>
<path d="M254.469 290.696L178.61 290.696C177.193 290.71 175.788 290.429 174.484 289.873C173.18 289.317 172.005 288.498 171.034 287.466C170.062 286.434 169.314 285.212 168.838 283.877C168.361 282.542 168.166 281.123 168.264 279.709C168.478 276.754 169.791 273.986 171.946 271.952C174.1 269.918 176.939 268.765 179.901 268.722L255.796 268.722C257.213 268.708 258.618 268.989 259.922 269.545C261.226 270.101 262.401 270.92 263.372 271.952C264.344 272.984 265.092 274.206 265.568 275.541C266.045 276.876 266.24 278.295 266.142 279.709C265.928 282.67 264.609 285.443 262.447 287.478C260.285 289.513 257.438 290.662 254.469 290.696Z" fill="white"/>
<path d="M189.802 220.65C189.697 222.174 189.023 223.602 187.912 224.652C186.802 225.701 185.338 226.294 183.81 226.313C183.078 226.323 182.352 226.181 181.678 225.896C181.003 225.611 180.396 225.189 179.893 224.656C179.391 224.124 179.005 223.493 178.76 222.803C178.514 222.113 178.415 221.38 178.468 220.65C178.573 219.126 179.248 217.697 180.358 216.648C181.468 215.599 182.933 215.006 184.46 214.987C185.192 214.976 185.918 215.118 186.593 215.403C187.267 215.688 187.875 216.111 188.377 216.643C188.879 217.176 189.266 217.807 189.511 218.497C189.756 219.186 189.856 219.92 189.802 220.65Z" fill="#407BFF"/>
<path d="M183.472 244.824L184.22 247.647C184.262 247.803 184.354 247.942 184.483 248.04C184.612 248.139 184.77 248.191 184.932 248.19L187.897 248.19C188.061 248.196 188.218 248.255 188.346 248.357C188.474 248.46 188.566 248.601 188.608 248.759C188.65 248.918 188.639 249.086 188.579 249.238C188.518 249.39 188.41 249.519 188.271 249.605L185.769 251.386C185.628 251.482 185.52 251.619 185.459 251.778C185.399 251.937 185.389 252.111 185.431 252.277L186.179 255.099C186.223 255.261 186.217 255.433 186.16 255.591C186.104 255.749 186 255.886 185.863 255.984C185.726 256.081 185.562 256.133 185.394 256.135C185.226 256.136 185.062 256.085 184.923 255.99L182.626 254.209C182.495 254.118 182.34 254.07 182.181 254.07C182.022 254.07 181.867 254.118 181.736 254.209L179.234 255.99C179.103 256.099 178.94 256.16 178.769 256.164C178.599 256.167 178.433 256.113 178.298 256.009C178.163 255.905 178.068 255.758 178.027 255.593C177.987 255.428 178.004 255.253 178.077 255.099L179.163 252.277C179.227 252.123 179.24 251.953 179.198 251.792C179.156 251.631 179.062 251.489 178.931 251.386L176.634 249.605C176.511 249.496 176.424 249.352 176.385 249.192C176.346 249.032 176.357 248.864 176.416 248.71C176.475 248.556 176.579 248.424 176.715 248.331C176.851 248.238 177.013 248.189 177.177 248.19L180.142 248.19C180.309 248.181 180.471 248.126 180.608 248.03C180.745 247.934 180.852 247.801 180.917 247.647L182.003 244.824C182.059 244.674 182.159 244.545 182.29 244.454C182.422 244.362 182.578 244.313 182.738 244.313C182.898 244.313 183.054 244.362 183.185 244.454C183.316 244.545 183.416 244.674 183.472 244.824Z" fill="#407BFF"/>
<path d="M185.551 276.717L185.088 284.642C185.066 284.975 184.919 285.288 184.676 285.517C184.434 285.746 184.113 285.876 183.78 285.88L176.844 285.88C176.684 285.881 176.526 285.85 176.38 285.787C176.233 285.724 176.101 285.632 175.992 285.516C175.883 285.399 175.8 285.261 175.747 285.111C175.695 284.961 175.674 284.801 175.686 284.642L176.265 274.776C176.287 274.443 176.434 274.131 176.677 273.901C176.92 273.672 177.24 273.543 177.574 273.539L182.56 273.539L185.551 276.717Z" fill="#407BFF"/>
<path d="M182.562 273.539L185.553 276.718L183.603 276.718C183.444 276.719 183.286 276.688 183.139 276.625C182.993 276.563 182.861 276.47 182.752 276.354C182.643 276.237 182.56 276.099 182.507 275.949C182.454 275.799 182.433 275.639 182.446 275.48L182.562 273.53L182.562 273.539ZM181.769 271.349L181.644 273.477L181.529 275.427C181.51 275.711 181.551 275.996 181.647 276.264C181.744 276.532 181.895 276.777 182.09 276.984C182.286 277.191 182.522 277.356 182.783 277.468C183.045 277.58 183.327 277.637 183.612 277.635L187.69 277.635L186.23 276.085L183.238 272.907L181.778 271.349L181.769 271.349Z" fill="white"/>
<path opacity="0.2" d="M255.422 219.483L198.634 219.483C198.405 219.485 198.177 219.439 197.965 219.349C197.754 219.259 197.563 219.126 197.406 218.959C197.248 218.792 197.126 218.594 197.048 218.378C196.97 218.162 196.937 217.932 196.952 217.703C196.989 217.223 197.205 216.775 197.555 216.445C197.906 216.116 198.367 215.929 198.848 215.922L255.627 215.922C255.857 215.92 256.084 215.966 256.296 216.056C256.507 216.146 256.698 216.279 256.856 216.446C257.014 216.613 257.135 216.811 257.213 217.027C257.292 217.243 257.324 217.473 257.31 217.703C257.272 218.181 257.058 218.628 256.709 218.957C256.36 219.286 255.902 219.474 255.422 219.483Z" fill="#407BFF"/>
<path opacity="0.2" d="M244.675 225.396L198.287 225.396C198.057 225.398 197.829 225.352 197.618 225.262C197.406 225.171 197.216 225.039 197.058 224.872C196.9 224.705 196.778 224.507 196.7 224.291C196.622 224.074 196.589 223.844 196.604 223.615C196.642 223.135 196.857 222.687 197.208 222.358C197.558 222.028 198.019 221.842 198.5 221.834L244.871 221.834C245.101 221.833 245.328 221.878 245.54 221.968C245.751 222.059 245.942 222.191 246.1 222.358C246.258 222.526 246.379 222.723 246.457 222.939C246.536 223.156 246.568 223.386 246.554 223.615C246.516 224.092 246.304 224.538 245.957 224.867C245.61 225.195 245.153 225.384 244.675 225.396Z" fill="#407BFF"/>
<path opacity="0.2" d="M253.579 251.342L237.909 251.342C237.428 251.349 236.967 251.536 236.616 251.865C236.265 252.194 236.05 252.643 236.012 253.122C235.998 253.352 236.03 253.582 236.108 253.798C236.186 254.014 236.308 254.212 236.466 254.379C236.624 254.546 236.815 254.679 237.026 254.769C237.237 254.859 237.465 254.905 237.695 254.903L253.365 254.903C253.847 254.896 254.308 254.709 254.658 254.38C255.009 254.05 255.224 253.602 255.262 253.122C255.277 252.893 255.244 252.663 255.166 252.447C255.088 252.231 254.966 252.033 254.808 251.866C254.65 251.699 254.46 251.566 254.248 251.476C254.037 251.386 253.809 251.34 253.579 251.342Z" fill="#407BFF"/>
<path opacity="0.2" d="M228.728 251.342L196.764 251.342C196.283 251.349 195.822 251.536 195.471 251.865C195.121 252.194 194.905 252.643 194.868 253.122C194.853 253.352 194.886 253.582 194.964 253.798C195.042 254.014 195.164 254.212 195.322 254.379C195.479 254.546 195.67 254.679 195.881 254.769C196.093 254.859 196.321 254.905 196.55 254.903L228.515 254.903C228.996 254.896 229.457 254.709 229.807 254.38C230.158 254.05 230.373 253.602 230.411 253.122C230.426 252.893 230.393 252.663 230.315 252.447C230.237 252.231 230.115 252.033 229.957 251.866C229.799 251.699 229.609 251.566 229.397 251.476C229.186 251.386 228.958 251.34 228.728 251.342Z" fill="#407BFF"/>
<path opacity="0.2" d="M243.48 245.447L197.11 245.447C196.629 245.454 196.168 245.641 195.817 245.97C195.466 246.3 195.251 246.748 195.213 247.228C195.199 247.457 195.231 247.687 195.31 247.903C195.388 248.12 195.509 248.317 195.667 248.484C195.825 248.652 196.016 248.784 196.227 248.874C196.439 248.965 196.666 249.01 196.896 249.009L243.266 249.009C243.748 249.001 244.209 248.815 244.559 248.485C244.91 248.156 245.125 247.708 245.163 247.228C245.178 246.998 245.145 246.768 245.067 246.552C244.989 246.336 244.867 246.138 244.709 245.971C244.551 245.804 244.361 245.671 244.149 245.581C243.938 245.491 243.71 245.445 243.48 245.447Z" fill="#407BFF"/>
<path opacity="0.2" d="M251.796 280.866L195.026 280.866C194.545 280.874 194.084 281.06 193.733 281.39C193.382 281.719 193.167 282.168 193.129 282.647C193.115 282.877 193.147 283.107 193.226 283.323C193.304 283.539 193.425 283.737 193.583 283.904C193.741 284.071 193.932 284.204 194.143 284.294C194.355 284.384 194.582 284.43 194.812 284.428L251.6 284.428C252.081 284.421 252.542 284.234 252.893 283.905C253.243 283.575 253.459 283.127 253.496 282.647C253.511 282.416 253.478 282.185 253.399 281.967C253.319 281.75 253.196 281.551 253.036 281.384C252.877 281.217 252.684 281.084 252.47 280.995C252.257 280.906 252.027 280.862 251.796 280.866Z" fill="#407BFF"/>
<path opacity="0.2" d="M241.746 274.964L195.375 274.964C194.894 274.971 194.433 275.158 194.083 275.487C193.732 275.816 193.517 276.265 193.479 276.744C193.464 276.974 193.497 277.204 193.575 277.42C193.653 277.636 193.775 277.834 193.933 278.001C194.091 278.168 194.281 278.301 194.493 278.391C194.704 278.481 194.932 278.527 195.162 278.525L241.532 278.525C242.013 278.518 242.474 278.331 242.825 278.002C243.176 277.672 243.391 277.224 243.429 276.744C243.443 276.515 243.411 276.285 243.332 276.069C243.254 275.853 243.133 275.655 242.975 275.488C242.817 275.321 242.626 275.188 242.415 275.098C242.203 275.008 241.976 274.962 241.746 274.964Z" fill="#407BFF"/>
</g>
</g>
<mask id="mask2" mask-type="alpha" maskUnits="userSpaceOnUse" x="0" y="0" width="354" height="250">
<ellipse cx="176.562" cy="125" rx="176.562" ry="125" fill="#C4C4C4"/>
</mask>
<g mask="url(#mask2)">
<path d="M115.405 82.0189C117.649 76.8726 97.7759 72.2248 91.7659 88.0467C86.3169 102.417 77.2707 106.077 81.5267 116.022C86.1299 126.796 112.218 128.087 123.49 116.174C132.661 106.495 122.697 102.426 123.988 93.3177C125.279 84.2092 122.564 81.2354 115.405 82.0189Z" fill="#263238"/>
<path d="M79.1953 112.843C78.1625 107.27 80.246 104.919 82.837 101.99C86.4002 98.3792 88.8431 93.8152 89.8709 88.8477C90.3944 86.1305 91.7491 83.6429 93.7476 81.7289C95.7462 79.8149 98.2899 78.569 101.027 78.1633C106.904 77.077 113.127 78.9913 114.766 81.4399C115.033 81.7798 115.189 82.1944 115.211 82.6265C115.234 83.0586 115.122 83.487 114.89 83.8528L114.142 83.372C114.285 83.1562 114.354 82.9002 114.34 82.6419C114.325 82.3837 114.228 82.137 114.062 81.9385C112.602 79.766 106.672 78.0297 101.223 79.0448C97.3322 79.766 92.3639 82.0898 90.7702 89.0436C89.7152 94.1619 87.2011 98.8654 83.5314 102.586C80.9672 105.444 79.0796 107.501 80.0679 112.683L79.1953 112.843Z" fill="#263238"/>
<path d="M66.9512 108.578L66.3992 106.797C66.0217 105.588 65.3341 104.498 64.4047 103.637L62.624 102.016C62.0623 101.496 61.3363 101.189 60.5718 101.148C59.8074 101.108 59.0529 101.336 58.4392 101.794L56.5249 103.218C56.177 103.478 55.884 103.804 55.6631 104.177C55.4422 104.551 55.2978 104.965 55.2381 105.395C55.1785 105.825 55.2048 106.262 55.3157 106.682C55.4266 107.101 55.6197 107.495 55.8839 107.839L57.1126 109.442C57.1126 109.442 59.9885 114.312 64.1643 116.013L65.1259 115.194L65.1704 115.194C66.081 114.385 66.7348 113.328 67.0513 112.153C67.3677 110.977 67.3329 109.734 66.9512 108.578Z" fill="#FFC3BD"/>
<path d="M101.533 139.492L100.963 139.928L100.5 140.267L99.6093 140.89C99.0128 141.282 98.4162 141.656 97.8286 142.003C96.6178 142.703 95.3694 143.336 94.089 143.899C91.4568 145.057 88.6899 145.879 85.8531 146.348C82.8575 146.855 79.7995 146.873 76.798 146.401C75.262 146.16 73.7532 145.769 72.2928 145.235C71.9277 145.11 71.5627 144.968 71.2065 144.817L70.6723 144.594L70.4052 144.478L70.1114 144.345L69.7463 144.167C68.9666 143.768 68.2472 143.262 67.6094 142.662C67.1544 142.24 66.7346 141.781 66.354 141.291C65.3453 139.926 64.5303 138.427 63.9322 136.839C63.398 135.512 62.9884 134.257 62.6233 133.019C61.9646 130.639 61.4297 128.225 61.0207 125.789C60.2148 121.052 59.7684 116.26 59.6851 111.454C59.5749 110.555 59.8119 109.647 60.3477 108.916C60.8835 108.185 61.6779 107.686 62.569 107.52C63.46 107.354 64.3808 107.535 65.1436 108.024C65.9064 108.513 66.4539 109.275 66.6745 110.154L66.6745 110.252C68.2327 114.517 69.7285 118.844 71.2599 123.038C72.0613 125.104 72.8537 127.161 73.7441 129.03C74.1395 129.918 74.5793 130.786 75.0618 131.63C75.3598 132.197 75.7409 132.716 76.1926 133.171C76.1926 133.171 76.1926 133.171 76.1392 133.055C75.9319 132.844 75.6912 132.67 75.4269 132.538L75.2577 132.449C75.2132 132.449 75.0974 132.387 75.1598 132.405L75.3022 132.405L75.5871 132.476C75.7714 132.531 75.9587 132.576 76.1481 132.61C76.8995 132.761 77.6616 132.853 78.4274 132.886C80.0307 132.941 81.6339 132.773 83.1909 132.387C84.9017 131.959 86.5659 131.362 88.1592 130.606C88.9872 130.232 89.8064 129.796 90.6077 129.36C91.0084 129.137 91.4001 128.906 91.7741 128.674L92.6644 128.095L93.3589 127.668C94.9269 126.584 96.8612 126.168 98.7364 126.51C100.612 126.852 102.274 127.925 103.358 129.493C104.442 131.061 104.858 132.996 104.516 134.871C104.174 136.746 103.101 138.408 101.533 139.492Z" fill="#FFC3BD"/>
<path d="M134.316 248.492C134.966 202.869 130.755 178.001 130.755 178.001L96.9917 179.684C96.9917 179.684 101.987 221.424 110.846 252.169C113.214 268.667 118.548 296.572 122.243 315.314C127.725 314.843 133.145 313.816 138.421 312.251C139.729 295.788 139.961 271.989 134.316 248.492Z" fill="#E4EDFF"/>
<path d="M97.4463 126.039C92.4424 126.929 84.8119 131.159 84.8119 131.159C84.8119 131.159 80.7963 140.775 85.6043 147.702C90.3411 148.815 92.7273 147.907 92.7273 147.907L97.4463 126.039Z" fill="#263238"/>
<path opacity="0.2" d="M85.6045 147.701C90.3413 148.814 92.7275 147.906 92.7275 147.906L92.6295 134.933C89.344 139.261 86.664 143.552 85.6045 147.701Z" fill="black"/>
<path opacity="0.2" d="M134.138 221.575C130.363 212.342 126.303 204.738 124.745 197.793C122.073 216.678 124.175 234.049 134.334 246.497C134.476 237.264 134.352 228.992 134.138 221.575Z" fill="black"/>
<path d="M185.709 293.981L172.237 303.561C161.241 289.235 144.752 267.35 140.763 257.823C130.63 233.65 110.259 180.361 110.259 180.361L136.703 174.217C136.703 174.217 153.388 189.71 164.153 248.171C173.19 260.975 180.776 279.815 185.709 293.981Z" fill="#E4EDFF"/>
<path d="M89.8074 139.324C91.0183 147.195 86.3171 153.311 93.538 156.944C92.3449 162.927 94.1257 174.903 96.9838 179.649C100.99 181.83 120.641 178.607 136.694 174.208C136.463 167.353 130.818 153.863 132.385 131.408C132.471 130.179 132.297 128.946 131.875 127.788C131.453 126.631 130.793 125.575 129.936 124.689C129.08 123.803 128.047 123.107 126.904 122.647C125.761 122.186 124.534 121.971 123.303 122.015C121.905 122.068 120.436 122.148 118.94 122.282C113.686 122.636 108.464 123.365 103.314 124.463C101.649 124.846 99.9309 125.3 98.2926 125.763C95.4662 126.597 93.0427 128.437 91.4795 130.935C89.9163 133.433 89.3215 136.417 89.8074 139.324Z" fill="#263238"/>
<path d="M101.158 133.331C101.158 133.331 106.18 131.488 108.824 136.002C113.205 133.536 119.384 123.109 118.939 122.317C111.602 124.338 101.158 133.331 101.158 133.331Z" fill="white"/>
<path d="M101.158 133.331C101.158 133.331 97.3386 132.877 96.2612 136.251C96.2612 129.573 100.767 125.38 102.734 124.596C102.075 126.341 101.158 133.331 101.158 133.331Z" fill="white"/>
<path d="M117.015 104.643C116.454 109.843 116.365 118.221 118.947 122.317C118.947 122.317 109.153 129.031 101.14 133.331C98.62 127.499 102.716 124.597 102.716 124.597C106.535 123.127 106.5 118.248 105.983 114.5L117.015 104.643Z" fill="#FFC3BD"/>
<path opacity="0.2" d="M105.984 114.509L112.217 108.899C112.426 109.946 112.358 111.03 112.021 112.042C110.942 114.961 108.867 117.404 106.162 118.943C106.257 117.463 106.197 115.977 105.984 114.509Z" fill="black"/>
<path d="M119.031 94.965C118.185 103.415 118.007 107.012 113.644 111.196C107.073 117.491 97.0832 114.607 95.4271 106.068C93.9401 98.3662 95.5695 85.901 103.832 82.8025C112.095 79.7041 119.877 86.5154 119.031 94.965Z" fill="#FFC3BD"/>
<path d="M117.14 101.153C114.095 98.4815 114.62 93.7536 116.846 91.492C119.072 89.2305 122.189 93.896 122.189 93.896L117.14 101.153Z" fill="#263238"/>
<path d="M106.948 97.3139C106.975 96.6255 106.631 96.0527 106.179 96.0346C105.726 96.0165 105.337 96.5599 105.31 97.2484C105.282 97.9368 105.627 98.5095 106.079 98.5276C106.531 98.5457 106.92 98.0023 106.948 97.3139Z" fill="#263238"/>
<path d="M98.444 97.1095C98.4715 96.4211 98.1271 95.8484 97.6747 95.8303C97.2223 95.8122 96.8333 96.3556 96.8057 97.044C96.7782 97.7324 97.1226 98.3052 97.575 98.3233C98.0274 98.3414 98.4165 97.798 98.444 97.1095Z" fill="#263238"/>
<path d="M97.8015 95.8642L96.1899 95.321C96.1899 95.321 96.9557 96.6477 97.8015 95.8642Z" fill="#263238"/>
<path d="M100.454 97.3689C99.7666 98.9215 98.8678 100.372 97.7832 101.678C98.1243 101.944 98.5195 102.132 98.9409 102.229C99.3623 102.326 99.7999 102.329 100.223 102.239L100.454 97.3689Z" fill="#ED847E"/>
<path d="M104.134 104.937C103.751 104.989 103.363 105.007 102.977 104.991C102.922 104.991 102.87 104.969 102.832 104.931C102.794 104.892 102.772 104.84 102.772 104.786C102.772 104.732 102.794 104.68 102.832 104.641C102.87 104.603 102.922 104.581 102.977 104.581C103.834 104.635 104.693 104.486 105.482 104.146C106.271 103.805 106.968 103.283 107.518 102.622C107.552 102.589 107.597 102.568 107.644 102.565C107.692 102.561 107.739 102.574 107.779 102.601C107.818 102.629 107.846 102.669 107.858 102.715C107.871 102.761 107.867 102.81 107.847 102.854C106.928 104.005 105.596 104.752 104.134 104.937Z" fill="#263238"/>
<path d="M120.445 102.052C120.113 102.75 119.637 103.37 119.047 103.871C118.458 104.371 117.769 104.741 117.026 104.955C115.129 105.427 114.248 103.343 114.835 101.26C115.361 99.3809 116.981 96.879 118.86 97.342C120.739 97.8049 121.362 100.227 120.445 102.052Z" fill="#FFC3BD"/>
<path d="M114.648 82.936C108.659 86.6743 101.936 89.0794 94.9352 89.9877C94.8818 83.8976 106.813 77.0684 114.648 82.936Z" fill="#263238"/>
<path d="M110.062 83.6751C108.673 89.0173 122.474 98.8114 119.856 108.231C124.415 101.189 121.121 85.34 121.121 85.34C121.121 85.34 109.448 77.9589 110.062 83.6751Z" fill="#263238"/>
<path d="M108.656 92.7657C108.602 92.7566 108.551 92.737 108.505 92.7079C108.459 92.6789 108.42 92.641 108.389 92.5965C108.114 92.1668 107.742 91.8081 107.303 91.5497C106.863 91.2913 106.369 91.1405 105.86 91.1096C105.802 91.1183 105.742 91.1143 105.686 91.0979C105.629 91.0815 105.577 91.0531 105.532 91.0147C105.488 90.9762 105.452 90.9286 105.427 90.8751C105.403 90.8216 105.39 90.7634 105.39 90.7045C105.39 90.6456 105.403 90.5874 105.427 90.5339C105.452 90.4804 105.488 90.4328 105.532 90.3943C105.577 90.3559 105.629 90.3275 105.686 90.3111C105.742 90.2947 105.802 90.2907 105.86 90.2994C106.497 90.3312 107.118 90.5141 107.67 90.8331C108.223 91.152 108.692 91.5977 109.039 92.1335C109.082 92.1995 109.106 92.2767 109.107 92.3559C109.108 92.4351 109.086 92.5129 109.044 92.5798C109.001 92.6467 108.94 92.6998 108.868 92.7328C108.796 92.7658 108.716 92.7773 108.638 92.7657L108.656 92.7657Z" fill="#263238"/>
<path d="M94.6066 92.4722C94.5277 92.4688 94.4515 92.4426 94.3871 92.3968C94.3227 92.3511 94.273 92.2877 94.2438 92.2143C94.2146 92.1409 94.2073 92.0607 94.2227 91.9832C94.2381 91.9057 94.2756 91.8344 94.3306 91.7777C94.7743 91.3105 95.3237 90.9567 95.9326 90.7459C96.5415 90.5352 97.1921 90.4738 97.8297 90.5668C97.9217 90.6012 97.9983 90.6675 98.0455 90.7536C98.0928 90.8397 98.1075 90.9399 98.0869 91.036C98.0664 91.1321 98.0121 91.2175 97.9338 91.2769C97.8556 91.3362 97.7586 91.3654 97.6606 91.3592C97.155 91.2926 96.6409 91.3475 96.1609 91.5193C95.6808 91.6912 95.2487 91.9752 94.9004 92.3476C94.8626 92.3874 94.817 92.419 94.7664 92.4404C94.7159 92.4618 94.6615 92.4727 94.6066 92.4722Z" fill="#263238"/>
<path d="M106.286 96.0692L104.647 95.5261C104.647 95.5261 105.449 96.8617 106.286 96.0692Z" fill="#263238"/>
<path opacity="0.2" d="M132.179 135.761C132.035 140.516 132.208 145.275 132.695 150.007C128.243 145.306 122.652 136.429 122.287 131.977L132.179 135.761Z" fill="black"/>
<path d="M161.25 119.04L162.229 113.386L170.981 116.779C170.981 116.779 168.951 122.041 165.203 124.365L164.161 123.706C163.348 123.206 162.663 122.524 162.158 121.715C161.652 120.905 161.342 119.99 161.25 119.04Z" fill="#FFC3BD"/>
<path d="M167.704 110.235L170.589 111.802C171.221 112.145 171.692 112.725 171.899 113.413C172.106 114.102 172.032 114.845 171.693 115.48L170.981 116.779L162.202 113.387L164.285 110.885C164.69 110.395 165.253 110.062 165.877 109.943C166.502 109.825 167.148 109.928 167.704 110.235Z" fill="#FFC3BD"/>
<path d="M130.621 125.496L131.734 126.653L132.954 127.891C133.782 128.701 134.61 129.529 135.465 130.313C137.157 131.906 138.911 133.384 140.656 134.765C142.312 136.06 144.068 137.221 145.909 138.237C147.318 139.027 148.85 139.575 150.441 139.857L148.046 140.303C147.458 140.588 147.494 140.712 147.619 140.614C147.857 140.45 148.078 140.262 148.278 140.053C148.927 139.374 149.522 138.644 150.058 137.872C151.269 136.153 152.498 134.204 153.62 132.182C154.742 130.161 155.944 128.078 157.083 125.95L160.511 119.61L160.511 119.557C160.913 118.802 161.571 118.214 162.366 117.898C163.162 117.583 164.044 117.561 164.854 117.836C165.664 118.111 166.35 118.666 166.79 119.4C167.229 120.134 167.392 121.001 167.251 121.845C166.842 124.41 166.281 126.831 165.658 129.298C165.034 131.764 164.286 134.186 163.449 136.634C162.582 139.161 161.547 141.627 160.351 144.015C159.666 145.365 158.883 146.662 158.009 147.897C157.466 148.663 156.855 149.378 156.184 150.034C155.19 151.029 154.014 151.824 152.72 152.376C152.087 152.649 151.407 152.798 150.717 152.812L150.325 152.812C146.808 152.837 143.325 152.109 140.113 150.675C138.694 150.072 137.308 149.391 135.964 148.636C134.67 147.889 133.426 147.102 132.233 146.277C129.903 144.646 127.684 142.861 125.591 140.935C124.567 139.991 123.552 139.038 122.581 138.041C122.092 137.542 121.611 137.035 121.139 136.519C120.667 136.002 120.249 135.504 119.67 134.845C119.036 134.143 118.547 133.324 118.23 132.433C117.913 131.542 117.774 130.598 117.822 129.654C117.87 128.709 118.104 127.784 118.509 126.93C118.915 126.076 119.485 125.31 120.186 124.677C120.888 124.043 121.707 123.554 122.598 123.237C123.489 122.919 124.433 122.781 125.377 122.829C126.321 122.877 127.247 123.11 128.101 123.516C128.955 123.922 129.721 124.491 130.354 125.193L130.621 125.496Z" fill="#FFC3BD"/>
<path d="M123.702 122.068C130.229 122.264 136.72 130.081 136.72 130.081C136.72 130.081 134.2 140.454 127.05 144.923C123.026 141.789 119.615 139.278 119.615 139.278C113.935 130.936 115.831 125.398 123.702 122.068Z" fill="#263238"/>
<path d="M95.684 179.069C96.1648 181.865 96.7436 184.046 96.9305 184.723C96.9507 184.793 96.9847 184.858 97.0306 184.915C97.0765 184.972 97.1333 185.018 97.1977 185.053C98.1503 185.587 102.54 187.724 110.464 187.261C119.412 186.771 132.43 181.918 139.214 176.736C139.314 176.661 139.386 176.554 139.418 176.433C139.451 176.312 139.441 176.184 139.392 176.069C138.872 174.907 138.261 173.788 137.567 172.721C137.501 172.619 137.404 172.542 137.29 172.5C137.176 172.458 137.051 172.454 136.935 172.489C134.014 173.38 115.628 178.642 96.2628 178.41C96.1786 178.406 96.0946 178.421 96.0171 178.454C95.9395 178.487 95.8704 178.537 95.8148 178.6C95.7592 178.664 95.7186 178.739 95.6959 178.82C95.6733 178.901 95.6692 178.986 95.684 179.069Z" fill="#407BFF"/>
<path opacity="0.3" d="M95.684 179.069C96.1648 181.865 96.7436 184.046 96.9305 184.723C96.9507 184.793 96.9847 184.858 97.0306 184.915C97.0765 184.972 97.1333 185.018 97.1977 185.053C98.1503 185.587 102.54 187.724 110.464 187.261C119.412 186.771 132.43 181.918 139.214 176.736C139.314 176.661 139.386 176.554 139.418 176.433C139.451 176.312 139.441 176.184 139.392 176.069C138.872 174.907 138.261 173.788 137.567 172.721C137.501 172.619 137.404 172.542 137.29 172.5C137.176 172.458 137.051 172.454 136.935 172.489C134.014 173.38 115.628 178.642 96.2628 178.41C96.1786 178.406 96.0946 178.421 96.0171 178.454C95.9395 178.487 95.8704 178.537 95.8148 178.6C95.7592 178.664 95.7186 178.739 95.6959 178.82C95.6733 178.901 95.6692 178.986 95.684 179.069Z" fill="white"/>
<path d="M274.122 323.104L156.896 323.104C154.728 323.124 152.579 322.695 150.585 321.845C148.59 320.994 146.794 319.74 145.308 318.161C143.822 316.582 142.678 314.712 141.95 312.67C141.221 310.628 140.923 308.457 141.074 306.294L155.365 62.6441C155.69 58.1231 157.698 53.8883 160.993 50.776C164.289 47.6637 168.631 45.9003 173.163 45.8339L290.39 45.8339C292.558 45.8139 294.707 46.2428 296.701 47.0936C298.695 47.9444 300.492 49.1987 301.978 50.7776C303.464 52.3565 304.607 54.2258 305.336 56.268C306.065 58.3103 306.363 60.4811 306.211 62.6441L291.912 306.294C291.587 310.814 289.58 315.047 286.287 318.159C282.993 321.271 278.653 323.036 274.122 323.104Z" fill="#407BFF"/>
<path opacity="0.8" d="M274.122 323.104L156.896 323.104C154.728 323.124 152.579 322.695 150.585 321.845C148.59 320.994 146.794 319.74 145.308 318.161C143.822 316.582 142.678 314.712 141.95 312.67C141.221 310.628 140.923 308.457 141.074 306.294L155.365 62.6441C155.69 58.1231 157.698 53.8883 160.993 50.776C164.289 47.6637 168.631 45.9003 173.163 45.8339L290.39 45.8339C292.558 45.8139 294.707 46.2428 296.701 47.0936C298.695 47.9444 300.492 49.1987 301.978 50.7776C303.464 52.3565 304.607 54.2258 305.336 56.268C306.065 58.3103 306.363 60.4811 306.211 62.6441L291.912 306.294C291.587 310.814 289.58 315.047 286.287 318.159C282.993 321.271 278.653 323.036 274.122 323.104Z" fill="white"/>
<path d="M273.427 318.234L159.459 318.234C157.935 318.249 156.425 317.948 155.023 317.35C153.62 316.752 152.357 315.871 151.313 314.761C150.268 313.651 149.464 312.337 148.953 310.901C148.441 309.465 148.232 307.939 148.339 306.419L162.585 63.8281C162.811 60.6576 164.216 57.6866 166.523 55.4999C168.83 53.3133 171.872 52.0693 175.05 52.0129L289.017 52.0129C290.541 51.9994 292.051 52.3012 293.453 52.8994C294.854 53.4976 296.117 54.3792 297.161 55.4888C298.206 56.5984 299.009 57.9121 299.522 59.3472C300.034 60.7824 300.244 62.3079 300.138 63.8281L285.892 306.419C285.666 309.589 284.261 312.56 281.954 314.747C279.647 316.933 276.605 318.177 273.427 318.234Z" fill="#407BFF"/>
<path d="M272.199 316.925L158.231 316.925C156.708 316.937 155.199 316.635 153.799 316.036C152.398 315.437 151.137 314.555 150.093 313.446C149.05 312.336 148.247 311.023 147.735 309.589C147.223 308.154 147.014 306.629 147.119 305.11L161.365 62.5196C161.592 59.3491 162.997 56.3781 165.304 54.1914C167.611 52.0048 170.652 50.7608 173.83 50.7044L287.798 50.7044C289.322 50.6896 290.834 50.9906 292.236 51.5882C293.639 52.1858 294.902 53.0673 295.948 54.177C296.993 55.2868 297.797 56.6009 298.31 58.0366C298.823 59.4723 299.033 60.9987 298.928 62.5196L284.682 305.11C284.455 308.284 283.048 311.257 280.737 313.444C278.426 315.631 275.38 316.873 272.199 316.925Z" fill="white"/>
<path opacity="0.1" d="M268.868 307.906L162.629 307.906C161.688 307.914 160.754 307.727 159.888 307.358C159.022 306.988 158.242 306.444 157.596 305.758C156.951 305.072 156.454 304.26 156.137 303.374C155.82 302.487 155.69 301.544 155.756 300.605L161.694 199.414C161.837 197.451 162.709 195.613 164.14 194.261C165.57 192.91 167.455 192.143 169.423 192.113L275.662 192.113C276.604 192.104 277.537 192.291 278.403 192.66C279.269 193.03 280.049 193.575 280.695 194.26C281.34 194.946 281.837 195.758 282.154 196.645C282.471 197.532 282.601 198.474 282.535 199.414L276.597 300.605C276.454 302.567 275.582 304.406 274.152 305.757C272.721 307.109 270.836 307.875 268.868 307.906Z" fill="#407BFF"/>
<path opacity="0.1" d="M245.266 68.6984L214.29 68.6984C213.953 68.7005 213.619 68.6329 213.309 68.5C213 68.367 212.721 68.1716 212.49 67.9258C212.259 67.6801 212.082 67.3894 211.969 67.0719C211.856 66.7544 211.809 66.417 211.833 66.0808C211.884 65.3767 212.198 64.7177 212.713 64.2344C213.227 63.7512 213.905 63.479 214.61 63.472L245.578 63.472C245.915 63.4699 246.248 63.5375 246.558 63.6705C246.868 63.8034 247.147 63.9989 247.377 64.2446C247.608 64.4903 247.786 64.781 247.899 65.0985C248.012 65.416 248.058 65.7534 248.035 66.0897C247.984 66.7922 247.671 67.45 247.158 67.933C246.646 68.416 245.97 68.6892 245.266 68.6984Z" fill="#407BFF"/>
<path opacity="0.1" d="M272.716 133.793C271.203 159.614 249.041 180.547 223.221 180.547C197.4 180.547 177.696 159.614 179.21 133.793C180.723 107.973 202.885 87.04 228.705 87.04C254.526 87.04 274.266 107.973 272.716 133.793Z" fill="#407BFF"/>
<path d="M193.242 164.761C189.344 160.611 186.345 155.701 184.433 150.339C182.521 144.977 181.737 139.277 182.13 133.598L183.02 133.651C182.637 139.207 183.405 144.783 185.275 150.028C187.146 155.274 190.079 160.077 193.892 164.137L193.242 164.761Z" fill="#407BFF"/>
<path d="M269.812 133.98L268.922 133.927C269.168 130.005 268.868 126.067 268.032 122.227L268.922 122.031C269.77 125.954 270.07 129.975 269.812 133.98Z" fill="#407BFF"/>
<path d="M265.442 114.482C263.266 109.644 260.15 105.287 256.276 101.664C252.401 98.0416 247.844 95.2255 242.871 93.3799L243.183 92.543C248.267 94.4314 252.925 97.312 256.885 101.017C260.846 104.722 264.03 109.178 266.252 114.126L265.442 114.482Z" fill="#407BFF"/>
<path d="M266.697 133.794C265.379 156.293 246.067 174.528 223.568 174.528C201.068 174.528 183.902 156.293 185.228 133.794C186.555 111.294 205.849 93.0237 228.349 93.0237C250.849 93.0237 268.033 111.294 266.697 133.794Z" fill="#407BFF"/>
<path d="M221.429 139.322C223.388 138.895 224.305 137.212 224.715 135.307C224.715 135.111 224.795 134.915 224.83 134.71L224.83 134.532C224.941 133.739 225.001 132.939 225.009 132.137C223.112 131.949 221.351 131.071 220.061 129.669C218.77 128.267 218.04 126.439 218.01 124.533C217.897 120.764 218.714 117.024 220.388 113.644C219.951 113.705 219.537 113.877 219.186 114.143C219.119 114.179 219.042 114.19 218.968 114.174C218.894 114.157 218.829 114.115 218.784 114.054C218.74 113.993 218.719 113.917 218.725 113.842C218.732 113.767 218.766 113.696 218.82 113.644C219.373 113.224 220.049 112.999 220.744 113.003C220.868 112.789 220.993 112.567 221.127 112.362C220.566 112.362 220.014 112.362 219.479 112.362C220.067 108.249 227.982 104.794 233.378 107.91C235.782 108.391 239.744 111.819 239.744 111.819C239.826 114.011 239.764 116.206 239.557 118.39C239.201 122.103 238.32 126.483 236.183 128.914C236.717 127.669 236.913 126.306 236.753 124.961C236.239 125.468 235.6 125.831 234.901 126.011C234.648 126.558 234.35 127.082 234.01 127.578C233.173 131.398 232.577 136.482 233.85 139.412C234.999 139.483 236.111 139.59 237.171 139.705L237.429 139.705C238.159 139.327 238.864 138.902 239.539 138.432C247.553 132.2 239.041 124.89 241.053 118.185C243.065 111.481 241.365 108.934 235.889 108.712C238.168 105.097 223.735 99.3003 217.396 110.555C211.653 120.749 209.801 125.833 211.867 133.811C212.645 136.415 214.404 138.614 216.773 139.946C217.176 139.834 217.586 139.751 218.001 139.696C219.061 139.536 220.281 139.412 221.429 139.322Z" fill="#263238"/>
<path d="M208.975 154.993C208.649 154.415 208.352 153.821 208.085 153.212C207.48 154.993 206.883 156.774 206.304 158.555C205.761 160.157 205.227 161.76 204.675 163.291L203.847 165.455L203.482 166.345C203.357 166.586 203.482 166.452 203.482 166.515C203.075 166.958 202.628 167.364 202.146 167.725L201.817 168.001C204.28 169.664 206.931 171.029 209.714 172.07C209.777 168.001 210.275 163.772 210.81 162.641C207.693 160.416 208.174 158.02 208.975 154.993Z" fill="#FFC3BD"/>
<path d="M212.101 142.982L211.869 143.294L212.101 142.991L212.101 142.982Z" fill="#263238"/>
<path d="M210.034 148.948C210.024 146.988 210.618 145.073 211.735 143.463C210.026 146.144 208.622 149.008 207.55 152.002C207.55 152.002 207.711 152.483 208.049 153.213C208.315 153.821 208.612 154.415 208.939 154.993C209.578 153.038 209.947 151.004 210.034 148.948Z" fill="#263238"/>
<path d="M241.072 161.867C240.015 160.316 239.078 158.688 238.267 156.997C238 157.139 237.724 157.282 237.439 157.406C234.768 154.584 232.488 152.304 232.488 152.304C229.158 145.36 231.215 141.397 237.528 139.839C238.508 140.04 239.443 140.417 240.288 140.952C239.455 140.369 238.498 139.985 237.492 139.83L237.234 139.83C236.175 139.706 235.062 139.608 233.913 139.537C234.153 140.186 228.446 148.44 224.858 149.749C223.389 146.045 219.266 145.796 219.266 145.796C219.266 145.796 215.42 145.003 214.227 147.425C215.011 142.421 219.827 139.786 221.43 139.412C220.281 139.51 219.106 139.634 217.975 139.777C215.664 140.085 213.559 141.271 212.099 143.089L211.867 143.392L211.743 143.561C210.625 145.171 210.032 147.086 210.042 149.046C209.966 151.1 209.61 153.134 208.983 155.091C208.181 158.083 207.701 160.514 210.844 162.74C210.318 163.87 209.811 168.082 209.748 172.169C214.174 173.808 218.857 174.64 223.576 174.626C229.619 174.616 235.59 173.304 241.081 170.78C240.928 167.465 240.955 164.145 241.161 160.834C241.125 161.11 241.089 161.502 241.072 161.867Z" fill="#263238"/>
<path d="M219.267 145.707C219.267 145.707 223.389 145.965 224.858 149.66C228.42 148.307 234.154 140.097 233.913 139.448C233.922 139.448 225.811 143.383 219.267 145.707Z" fill="white"/>
<path d="M221.457 139.323C219.863 139.706 215.046 142.341 214.254 147.336C215.447 144.914 219.293 145.707 219.293 145.707C218.038 141.023 221.457 139.323 221.457 139.323Z" fill="white"/>
<path d="M234.073 127.615C233.299 128.737 232.321 129.704 231.188 130.464C230.712 130.805 230.205 131.103 229.675 131.354C228.505 133.227 226.763 134.672 224.707 135.477C224.707 135.423 224.707 135.37 224.707 135.325C224.288 137.231 223.371 138.887 221.421 139.341C221.421 139.341 218.002 141.059 219.24 145.734C225.784 143.419 233.886 139.501 233.886 139.501C232.64 136.527 233.236 131.434 234.073 127.615Z" fill="#FFC3BD"/>
<path d="M224.744 135.298C224.785 135.102 224.824 134.903 224.859 134.701C224.824 134.871 224.788 135.093 224.744 135.298Z" fill="#263238"/>
<path opacity="0.2" d="M224.744 135.298C224.785 135.102 224.824 134.903 224.859 134.701C224.824 134.871 224.788 135.093 224.744 135.298Z" fill="black"/>
<path d="M225.062 132.129C225.054 132.93 224.995 133.73 224.884 134.524C224.996 133.73 225.056 132.93 225.062 132.129Z" fill="#263238"/>
<path opacity="0.2" d="M225.062 132.129C225.054 132.93 224.995 133.73 224.884 134.524C224.996 133.73 225.056 132.93 225.062 132.129Z" fill="black"/>
<path d="M229.684 131.309C228.25 131.996 226.654 132.273 225.072 132.111C225.066 132.912 225.006 133.712 224.894 134.506L224.894 134.684C224.864 134.886 224.826 135.084 224.778 135.28C224.778 135.334 224.778 135.387 224.778 135.432C226.811 134.616 228.53 133.171 229.684 131.309Z" fill="#FFC3BD"/>
<path opacity="0.2" d="M229.684 131.309C228.25 131.996 226.654 132.273 225.072 132.111C225.066 132.912 225.006 133.712 224.894 134.506L224.894 134.684C224.864 134.886 224.826 135.084 224.778 135.28C224.778 135.334 224.778 135.387 224.778 135.432C226.811 134.616 228.53 133.171 229.684 131.309Z" fill="black"/>
<path d="M229.683 131.309C230.213 131.059 230.72 130.761 231.197 130.419C232.848 129.324 234.152 127.779 234.954 125.967C234.791 126.015 234.624 126.051 234.456 126.074C232.969 126.217 232.55 124.543 233.227 123.038C233.459 122.537 233.758 122.069 234.117 121.649C233.724 120.378 233.82 119.007 234.384 117.803C233.031 115.025 231.597 112.46 231.464 110.591C228.133 111.621 224.675 112.188 221.189 112.273C221.055 112.478 220.931 112.701 220.806 112.914C221.108 112.909 221.409 112.954 221.697 113.048C221.762 113.084 221.813 113.142 221.84 113.212C221.866 113.282 221.866 113.36 221.84 113.43C221.814 113.5 221.764 113.559 221.698 113.595C221.633 113.631 221.556 113.642 221.483 113.627C221.163 113.53 220.825 113.505 220.495 113.556C218.821 116.935 218.004 120.675 218.117 124.445C218.147 126.35 218.877 128.178 220.168 129.58C221.458 130.982 223.219 131.861 225.116 132.049C226.677 132.222 228.256 131.967 229.683 131.309ZM227.698 113.823C228.182 113.919 228.636 114.132 229.02 114.442C229.405 114.752 229.709 115.15 229.906 115.603C229.934 115.677 229.933 115.758 229.904 115.83C229.875 115.903 229.819 115.962 229.749 115.996C229.678 116.03 229.597 116.035 229.522 116.012C229.447 115.989 229.384 115.938 229.345 115.87C229.188 115.517 228.95 115.205 228.65 114.96C228.35 114.716 227.996 114.546 227.617 114.464C227.574 114.463 227.531 114.453 227.491 114.434C227.451 114.415 227.416 114.388 227.388 114.355C227.359 114.322 227.338 114.283 227.325 114.241C227.313 114.199 227.309 114.155 227.315 114.112C227.321 114.068 227.335 114.027 227.358 113.989C227.381 113.952 227.412 113.92 227.448 113.895C227.484 113.87 227.525 113.853 227.568 113.846C227.611 113.838 227.655 113.839 227.698 113.849L227.698 113.823ZM227.386 118.221C227.535 118.333 227.644 118.488 227.7 118.665C227.756 118.842 227.755 119.033 227.698 119.209C227.6 119.726 227.244 120.1 226.905 120.029C226.567 119.957 226.371 119.494 226.478 118.978C226.521 118.716 226.653 118.477 226.852 118.301C226.576 118.151 226.36 117.913 226.237 117.624L227.386 118.221ZM220.085 117.856C220.128 117.594 220.26 117.355 220.459 117.179C220.184 117.03 219.967 116.791 219.845 116.503L221.02 117.099C221.168 117.211 221.278 117.366 221.334 117.543C221.39 117.721 221.389 117.911 221.331 118.087C221.234 118.604 220.877 118.978 220.539 118.907C220.201 118.835 219.951 118.381 220.085 117.865L220.085 117.856ZM222.151 122.174C221.82 122.194 221.49 122.142 221.182 122.02C220.874 121.899 220.597 121.711 220.37 121.471C221.326 120.609 222.158 119.621 222.845 118.533L222.151 122.174ZM223.869 124.56C223.829 124.552 223.794 124.528 223.771 124.494C223.749 124.46 223.741 124.418 223.749 124.378C223.757 124.338 223.781 124.303 223.815 124.28C223.849 124.258 223.891 124.25 223.931 124.258C224.57 124.394 225.231 124.378 225.863 124.211C226.494 124.044 227.077 123.73 227.564 123.296C227.592 123.267 227.631 123.25 227.672 123.249C227.713 123.248 227.753 123.263 227.782 123.292C227.812 123.32 227.829 123.359 227.83 123.4C227.83 123.441 227.815 123.48 227.787 123.51C226.959 124.273 225.866 124.682 224.742 124.65C224.449 124.651 224.157 124.627 223.869 124.578L223.869 124.56Z" fill="#FFC3BD"/>
<path d="M235.615 120.625C235.241 119.735 234.814 118.791 234.386 117.9C233.822 119.105 233.726 120.476 234.119 121.747C234.509 121.246 235.025 120.859 235.615 120.625Z" fill="#263238"/>
<path d="M226.827 118.319C226.629 118.495 226.497 118.734 226.454 118.996C226.356 119.512 226.551 119.984 226.881 120.047C227.21 120.109 227.575 119.744 227.673 119.228C227.731 119.051 227.732 118.861 227.676 118.683C227.62 118.506 227.51 118.351 227.362 118.239C227.286 118.296 227.198 118.333 227.105 118.347C227.011 118.361 226.916 118.351 226.827 118.319Z" fill="#263238"/>
<path d="M221.306 118.105C221.364 117.928 221.365 117.738 221.309 117.561C221.253 117.384 221.143 117.228 220.995 117.117C220.918 117.175 220.828 117.212 220.733 117.226C220.638 117.24 220.541 117.23 220.451 117.197C220.253 117.373 220.121 117.612 220.078 117.874C219.98 118.39 220.175 118.862 220.505 118.924C220.834 118.986 221.208 118.621 221.306 118.105Z" fill="#263238"/>
<path d="M220.994 117.117L219.818 116.521C219.941 116.809 220.157 117.047 220.433 117.197C220.525 117.234 220.625 117.246 220.724 117.232C220.822 117.218 220.915 117.178 220.994 117.117Z" fill="#263238"/>
<path d="M220.372 121.516C220.599 121.756 220.876 121.944 221.184 122.065C221.492 122.187 221.822 122.239 222.152 122.219L222.847 118.577C222.16 119.666 221.327 120.654 220.372 121.516Z" fill="#ED847E"/>
<path d="M227.789 123.296C227.775 123.28 227.757 123.268 227.738 123.26C227.719 123.251 227.698 123.247 227.677 123.247C227.656 123.247 227.636 123.251 227.617 123.26C227.597 123.268 227.58 123.28 227.566 123.296C227.078 123.731 226.493 124.046 225.86 124.213C225.228 124.38 224.564 124.395 223.924 124.257C223.884 124.249 223.843 124.257 223.808 124.28C223.774 124.302 223.75 124.337 223.742 124.378C223.734 124.418 223.742 124.46 223.764 124.494C223.787 124.528 223.822 124.552 223.862 124.56C224.156 124.616 224.454 124.646 224.753 124.649C225.877 124.681 226.97 124.272 227.798 123.51C227.825 123.48 227.839 123.441 227.837 123.401C227.836 123.361 227.818 123.323 227.789 123.296Z" fill="#263238"/>
<path d="M235.614 120.625C235.022 120.855 234.502 121.24 234.109 121.738C233.75 122.158 233.451 122.626 233.219 123.127C232.542 124.632 232.96 126.306 234.447 126.163C234.616 126.14 234.783 126.104 234.946 126.057C235.645 125.876 236.284 125.513 236.798 125.006C236.612 123.497 236.213 122.022 235.614 120.625Z" fill="#FFC3BD"/>
<path d="M231.641 109.335C231.694 108.053 232.424 107.741 233.422 107.946C228.026 104.794 220.111 108.249 219.523 112.398C220.057 112.398 220.609 112.398 221.17 112.398C224.656 112.312 228.114 111.746 231.445 110.715C231.395 110.246 231.463 109.772 231.641 109.335Z" fill="#263238"/>
<path d="M231.642 109.335C231.474 109.759 231.41 110.217 231.455 110.67C231.589 112.558 233.022 115.122 234.376 117.882C234.812 118.773 235.266 119.663 235.605 120.607C236.205 122.007 236.603 123.485 236.789 124.996C236.949 126.341 236.753 127.705 236.219 128.95C238.365 126.519 239.246 122.138 239.593 118.425C239.799 116.245 239.862 114.052 239.78 111.863C239.78 111.863 235.809 108.435 233.414 107.955C232.417 107.741 231.696 108.053 231.642 109.335Z" fill="#263238"/>
<path d="M227.61 114.454C227.989 114.536 228.342 114.706 228.643 114.951C228.943 115.195 229.181 115.507 229.338 115.861C229.353 115.901 229.377 115.938 229.407 115.969C229.437 115.999 229.473 116.023 229.513 116.039C229.553 116.055 229.596 116.063 229.639 116.061C229.682 116.06 229.724 116.05 229.763 116.031C229.802 116.013 229.836 115.986 229.864 115.954C229.893 115.921 229.914 115.883 229.926 115.842C229.939 115.801 229.943 115.758 229.938 115.715C229.934 115.673 229.92 115.631 229.899 115.594C229.701 115.141 229.398 114.743 229.013 114.433C228.629 114.123 228.175 113.91 227.69 113.813C227.648 113.803 227.604 113.802 227.561 113.81C227.518 113.817 227.477 113.834 227.441 113.859C227.404 113.884 227.374 113.916 227.351 113.953C227.328 113.991 227.313 114.032 227.308 114.076C227.302 114.119 227.306 114.163 227.318 114.205C227.331 114.247 227.352 114.286 227.381 114.319C227.409 114.352 227.444 114.379 227.484 114.398C227.523 114.417 227.567 114.427 227.61 114.428L227.61 114.454Z" fill="#263238"/>
<path d="M221.43 113.707C221.503 113.722 221.58 113.711 221.646 113.675C221.711 113.639 221.762 113.58 221.788 113.51C221.814 113.439 221.813 113.362 221.787 113.292C221.761 113.222 221.71 113.164 221.644 113.128C221.356 113.034 221.056 112.989 220.753 112.994C220.059 112.99 219.383 113.215 218.83 113.635C218.776 113.688 218.742 113.758 218.735 113.833C218.728 113.909 218.749 113.984 218.794 114.045C218.839 114.106 218.904 114.149 218.978 114.165C219.052 114.181 219.129 114.17 219.195 114.134C219.547 113.868 219.961 113.697 220.397 113.635C220.742 113.578 221.096 113.603 221.43 113.707Z" fill="#263238"/>
<path d="M226.825 118.319C226.915 118.353 227.012 118.363 227.107 118.349C227.202 118.335 227.292 118.297 227.368 118.239L226.184 117.643C226.313 117.935 226.54 118.174 226.825 118.319Z" fill="#263238"/>
<path d="M241.072 161.867C241.072 161.502 241.125 161.119 241.143 160.745C240.644 159.952 240.128 159.151 239.612 158.35L238.588 156.827L238.267 156.996C239.078 158.688 240.016 160.316 241.072 161.867Z" fill="#263238"/>
<path opacity="0.2" d="M241.072 161.867C241.072 161.502 241.125 161.119 241.143 160.745C240.644 159.952 240.128 159.151 239.612 158.35L238.588 156.827L238.267 156.996C239.078 158.688 240.016 160.316 241.072 161.867Z" fill="black"/>
<path d="M243.725 169.24L243.725 169.382C247.275 167.46 250.546 165.064 253.448 162.259C252.959 160.824 252.388 159.418 251.739 158.048C250.871 156.186 249.908 154.37 248.854 152.607C247.964 151.076 247.02 149.616 246.049 148.156C245.159 150.016 242.63 154.495 238.615 156.801L239.639 158.324C240.164 159.125 240.671 159.917 241.17 160.719C241.606 161.422 242.06 162.117 242.434 162.811C243.111 164.013 243.761 165.224 244.215 166.373L244.126 166.978C243.993 167.708 243.877 168.465 243.725 169.24Z" fill="#FFC3BD"/>
<path d="M232.489 152.304C232.489 152.304 234.768 154.584 237.439 157.406C237.724 157.281 238 157.139 238.268 156.996L238.588 156.827C242.604 154.521 245.114 150.043 246.023 148.182C246.281 147.656 246.414 147.291 246.414 147.291C246.414 147.291 243.841 143.018 240.298 140.863C239.453 140.328 238.517 139.95 237.537 139.75C231.225 141.406 229.159 145.359 232.489 152.304Z" fill="#263238"/>
<path d="M275.156 62.9911L287.701 62.9911C288.044 62.9853 288.372 62.8514 288.621 62.6157C288.87 62.38 289.021 62.0597 289.046 61.7179C289.057 61.5538 289.034 61.3893 288.978 61.2345C288.923 61.0798 288.836 60.9382 288.723 60.8186C288.61 60.6991 288.474 60.6042 288.322 60.5398C288.171 60.4754 288.008 60.443 287.844 60.4446L275.334 60.4446C274.991 60.4504 274.663 60.5844 274.414 60.82C274.166 61.0557 274.014 61.376 273.99 61.7179C273.979 61.8789 274.001 62.0405 274.054 62.1929C274.107 62.3452 274.191 62.4851 274.3 62.6042C274.409 62.7232 274.541 62.8189 274.688 62.8854C274.835 62.9519 274.995 62.9878 275.156 62.9911Z" fill="#407BFF"/>
<path d="M274.922 67.3631L287.468 67.3631C287.81 67.3573 288.138 67.2234 288.387 66.9877C288.636 66.7521 288.788 66.4317 288.812 66.0899C288.823 65.9266 288.8 65.7628 288.745 65.6087C288.69 65.4545 288.604 65.3134 288.492 65.1939C288.38 65.0745 288.245 64.9794 288.095 64.9145C287.945 64.8496 287.783 64.8163 287.619 64.8167L275.074 64.8167C274.731 64.8225 274.403 64.9564 274.154 65.192C273.905 65.4277 273.754 65.748 273.729 66.0899C273.718 66.2532 273.741 66.417 273.796 66.5711C273.851 66.7252 273.937 66.8664 274.049 66.9858C274.161 67.1052 274.296 67.2004 274.446 67.2653C274.597 67.3302 274.759 67.3635 274.922 67.3631Z" fill="#407BFF"/>
<path d="M173.429 67.3632L185.974 67.3632C186.317 67.3574 186.645 67.2234 186.894 66.9878C187.142 66.7521 187.294 66.4318 187.318 66.0899C187.33 65.9259 187.307 65.7613 187.251 65.6066C187.195 65.4519 187.109 65.3103 186.996 65.1907C186.883 65.0712 186.746 64.9762 186.595 64.9119C186.444 64.8475 186.281 64.8151 186.116 64.8167L173.58 64.8167C173.237 64.8225 172.909 64.9564 172.66 65.1921C172.412 65.4278 172.26 65.7481 172.236 66.0899C172.225 66.2532 172.247 66.417 172.302 66.5712C172.357 66.7253 172.444 66.8665 172.555 66.9859C172.667 67.1053 172.803 67.2004 172.953 67.2653C173.103 67.3302 173.265 67.3635 173.429 67.3632Z" fill="#407BFF"/>
<path d="M274.666 71.7262L287.211 71.7262C287.554 71.7204 287.882 71.5865 288.131 71.3508C288.38 71.1151 288.531 70.7948 288.556 70.453C288.567 70.2889 288.544 70.1244 288.488 69.9696C288.433 69.8149 288.346 69.6733 288.233 69.5538C288.12 69.4342 287.984 69.3393 287.832 69.2749C287.681 69.2105 287.518 69.1781 287.354 69.1797L274.817 69.1797C274.475 69.1855 274.147 69.3195 273.898 69.5551C273.649 69.7908 273.497 70.1111 273.473 70.453C273.462 70.6163 273.485 70.7801 273.54 70.9342C273.595 71.0883 273.681 71.2295 273.793 71.3489C273.905 71.4683 274.04 71.5635 274.19 71.6284C274.34 71.6933 274.502 71.7266 274.666 71.7262Z" fill="#407BFF"/>
<path d="M258.187 231.467L182.282 231.467C180.865 231.48 179.46 231.2 178.156 230.644C176.853 230.088 175.678 229.269 174.706 228.237C173.734 227.205 172.987 225.983 172.51 224.648C172.033 223.313 171.838 221.894 171.936 220.48C172.15 217.525 173.464 214.757 175.618 212.723C177.772 210.689 180.611 209.536 183.574 209.493L259.469 209.493C260.886 209.48 262.291 209.76 263.595 210.316C264.899 210.872 266.073 211.691 267.045 212.723C268.017 213.755 268.765 214.977 269.241 216.312C269.718 217.647 269.913 219.066 269.815 220.48C269.601 223.434 268.289 226.2 266.137 228.234C263.984 230.268 261.148 231.421 258.187 231.467Z" fill="white"/>
<path d="M256.455 261.001L180.551 261.001C179.134 261.014 177.729 260.734 176.425 260.178C175.121 259.622 173.946 258.802 172.975 257.77C172.003 256.738 171.255 255.516 170.779 254.182C170.302 252.847 170.107 251.428 170.205 250.014C170.423 247.062 171.738 244.298 173.892 242.268C176.046 240.237 178.882 239.087 181.842 239.044L257.737 239.044C259.155 239.031 260.559 239.311 261.863 239.867C263.167 240.423 264.342 241.243 265.314 242.275C266.285 243.307 267.033 244.528 267.51 245.863C267.986 247.198 268.182 248.617 268.083 250.031C267.866 252.982 266.552 255.744 264.399 257.774C262.247 259.804 259.413 260.955 256.455 261.001Z" fill="white"/>
<path d="M190.01 220.48C189.905 222.004 189.231 223.433 188.12 224.482C187.01 225.531 185.546 226.124 184.018 226.143C183.286 226.153 182.56 226.012 181.886 225.726C181.211 225.441 180.604 225.019 180.101 224.487C179.599 223.954 179.213 223.323 178.968 222.633C178.722 221.943 178.623 221.21 178.676 220.48C178.781 218.956 179.456 217.527 180.566 216.478C181.676 215.429 183.141 214.836 184.668 214.817C185.4 214.807 186.126 214.948 186.801 215.234C187.475 215.519 188.083 215.941 188.585 216.473C189.087 217.006 189.474 217.637 189.719 218.327C189.964 219.017 190.064 219.75 190.01 220.48Z" fill="#407BFF"/>
<path d="M183.681 244.654L184.429 247.476C184.47 247.633 184.563 247.772 184.692 247.87C184.821 247.968 184.979 248.021 185.141 248.02L188.106 248.02C188.27 248.026 188.427 248.085 188.555 248.187C188.683 248.29 188.774 248.431 188.816 248.589C188.858 248.748 188.848 248.915 188.787 249.068C188.727 249.22 188.619 249.349 188.48 249.435L185.978 251.216C185.837 251.312 185.728 251.448 185.668 251.608C185.607 251.767 185.597 251.941 185.639 252.106L186.387 254.929C186.432 255.091 186.425 255.263 186.369 255.421C186.312 255.579 186.208 255.716 186.071 255.813C185.934 255.91 185.771 255.963 185.603 255.964C185.435 255.965 185.27 255.915 185.132 255.819L182.835 254.038C182.704 253.948 182.549 253.9 182.39 253.9C182.231 253.9 182.075 253.948 181.944 254.038L179.443 255.819C179.312 255.928 179.148 255.99 178.978 255.993C178.808 255.997 178.641 255.942 178.507 255.838C178.372 255.735 178.276 255.588 178.236 255.423C178.196 255.257 178.213 255.083 178.285 254.929L179.371 252.106C179.436 251.953 179.448 251.783 179.406 251.622C179.364 251.461 179.271 251.318 179.14 251.216L176.843 249.435C176.72 249.326 176.633 249.181 176.594 249.021C176.555 248.861 176.566 248.693 176.625 248.54C176.684 248.386 176.788 248.254 176.924 248.161C177.06 248.068 177.221 248.019 177.386 248.02L180.351 248.02C180.518 248.011 180.679 247.955 180.816 247.859C180.953 247.763 181.06 247.631 181.125 247.476L182.212 244.654C182.267 244.504 182.367 244.375 182.499 244.283C182.63 244.192 182.786 244.143 182.946 244.143C183.106 244.143 183.262 244.192 183.393 244.283C183.525 244.375 183.625 244.504 183.681 244.654Z" fill="#407BFF"/>
<path opacity="0.2" d="M255.63 219.313L198.842 219.313C198.612 219.315 198.384 219.27 198.173 219.179C197.962 219.089 197.771 218.956 197.613 218.789C197.455 218.622 197.333 218.424 197.255 218.208C197.177 217.992 197.144 217.762 197.159 217.533C197.197 217.053 197.412 216.605 197.763 216.275C198.114 215.946 198.575 215.759 199.056 215.752L255.835 215.752C256.064 215.75 256.292 215.796 256.504 215.886C256.715 215.976 256.906 216.109 257.064 216.276C257.221 216.443 257.343 216.641 257.421 216.857C257.499 217.073 257.532 217.303 257.517 217.533C257.48 218.011 257.266 218.458 256.917 218.787C256.568 219.116 256.109 219.304 255.63 219.313Z" fill="#407BFF"/>
<path opacity="0.2" d="M244.883 225.226L198.494 225.226C198.264 225.228 198.037 225.182 197.825 225.092C197.614 225.002 197.423 224.869 197.265 224.702C197.108 224.535 196.986 224.337 196.908 224.121C196.83 223.904 196.797 223.674 196.812 223.445C196.849 222.965 197.064 222.517 197.415 222.188C197.766 221.858 198.227 221.672 198.708 221.664L245.079 221.664C245.308 221.663 245.536 221.708 245.748 221.799C245.959 221.889 246.15 222.021 246.307 222.189C246.465 222.356 246.587 222.553 246.665 222.77C246.743 222.986 246.776 223.216 246.761 223.445C246.724 223.922 246.511 224.368 246.164 224.697C245.817 225.025 245.361 225.214 244.883 225.226Z" fill="#407BFF"/>
<path opacity="0.2" d="M243.689 245.277L197.318 245.277C196.837 245.284 196.376 245.471 196.026 245.8C195.675 246.13 195.46 246.578 195.422 247.058C195.407 247.287 195.44 247.517 195.518 247.733C195.596 247.949 195.718 248.147 195.876 248.314C196.034 248.481 196.224 248.614 196.436 248.704C196.647 248.794 196.875 248.84 197.105 248.838L243.475 248.838C243.956 248.831 244.417 248.644 244.768 248.315C245.119 247.986 245.334 247.537 245.372 247.058C245.386 246.828 245.354 246.598 245.276 246.382C245.197 246.166 245.076 245.968 244.918 245.801C244.76 245.634 244.569 245.501 244.358 245.411C244.146 245.321 243.919 245.275 243.689 245.277Z" fill="#407BFF"/>
</g>
<defs>
<linearGradient id="paint0_linear" x1="67.2342" y1="57.3235" x2="313.843" y2="57.9395" gradientUnits="userSpaceOnUse">
<stop stop-color="#36D1DC"/>
<stop offset="1" stop-color="#5B86E5"/>
</linearGradient>
<linearGradient id="paint1_linear" x1="67.2342" y1="57.3235" x2="313.843" y2="57.9395" gradientUnits="userSpaceOnUse">
<stop stop-color="#36D1DC"/>
<stop offset="1" stop-color="#5B86E5"/>
</linearGradient>
</defs>
</svg>
