<svg width="48" height="48" viewBox="0 0 48 48" fill="none" xmlns="http://www.w3.org/2000/svg">
<rect width="48" height="48" rx="24" fill="url(#paint0_linear)"/>
<path d="M28.9482 24.5444C28.4678 24.316 27.9776 24.1193 27.4788 23.9545C29.0942 22.742 30.1411 20.8113 30.1411 18.6406C30.1411 14.979 27.1621 12 23.5005 12C19.8388 12 16.8598 14.979 16.8598 18.6406C16.8598 20.8137 17.9091 22.7463 19.5275 23.9585C18.0447 24.4467 16.6533 25.2063 15.4355 26.208C13.2025 28.0448 11.6499 30.6067 11.0638 33.422C10.8802 34.3041 11.1002 35.2102 11.6675 35.9078C12.232 36.6019 13.0691 37 13.964 37H25.9907C26.5301 37 26.9673 36.5628 26.9673 36.0234C26.9673 35.4841 26.5301 35.0469 25.9907 35.0469H13.964C13.5471 35.0469 13.2956 34.8142 13.1828 34.6755C12.988 34.436 12.9126 34.1242 12.976 33.8201C13.9894 28.9521 18.2831 25.3962 23.2416 25.2763C23.3275 25.2796 23.4138 25.2812 23.5005 25.2812C23.588 25.2812 23.6752 25.2795 23.7619 25.2762C25.2814 25.3118 26.7429 25.6586 28.1097 26.3084C28.5969 26.5398 29.1794 26.3328 29.411 25.8456C29.6425 25.3585 29.4354 24.7759 28.9482 24.5444ZM23.7387 23.3221C23.6594 23.3207 23.58 23.32 23.5005 23.32C23.4217 23.32 23.3429 23.3208 23.2641 23.3222C20.7888 23.1987 18.813 21.1461 18.813 18.6406C18.813 16.0559 20.9158 13.9531 23.5005 13.9531C26.0852 13.9531 28.188 16.0559 28.188 18.6406C28.188 21.1455 26.2131 23.1977 23.7387 23.3221Z" fill="white"/>
<path d="M35.0234 31.3848H32.3379V28.6992C32.3379 28.1599 31.9007 27.7227 31.3613 27.7227C30.822 27.7227 30.3848 28.1599 30.3848 28.6992V31.3848H27.6992C27.1599 31.3848 26.7227 31.822 26.7227 32.3613C26.7227 32.9007 27.1599 33.3379 27.6992 33.3379H30.3848V36.0234C30.3848 36.5628 30.822 37 31.3613 37C31.9007 37 32.3379 36.5628 32.3379 36.0234V33.3379H35.0234C35.5628 33.3379 36 32.9007 36 32.3613C36 31.822 35.5628 31.3848 35.0234 31.3848Z" fill="white"/>
<defs>
<linearGradient id="paint0_linear" x1="0" y1="0" x2="47.9997" y2="0.113056" gradientUnits="userSpaceOnUse">
<stop stop-color="#36D1DC"/>
<stop offset="1" stop-color="#5B86E5"/>
</linearGradient>
</defs>
</svg>
