<svg width="357" height="314" viewBox="0 0 357 314" fill="none" xmlns="http://www.w3.org/2000/svg">
<circle cx="177.541" cy="179.629" r="123.305" transform="rotate(5.29467 177.541 179.629)" fill="url(#paint0_linear)"/>
<mask id="mask0" mask-type="alpha" maskUnits="userSpaceOnUse" x="0" y="0" width="357" height="233">
<ellipse cx="178.5" cy="116.5" rx="178.5" ry="116.5" fill="#C4C4C4"/>
</mask>
<g mask="url(#mask0)">
<path d="M264.028 73.913C262.045 71.9295 258.227 64.4144 261.887 60.8757C265.546 57.337 268.806 60.5497 269.057 62.2632C269.309 63.9767 268.629 78.5133 264.028 73.913Z" fill="#263238"/>
<path d="M257.314 115.884L256.458 116.815L255.657 117.607C255.126 118.128 254.577 118.613 254.027 119.106C252.935 120.081 251.817 121.012 250.675 121.9C248.369 123.731 245.942 125.405 243.411 126.91C242.135 127.664 240.822 128.381 239.481 129.061C238.14 129.741 236.743 130.337 235.328 130.924C232.426 132.081 229.402 132.906 226.314 133.382L225.624 133.485C225.18 133.546 224.732 133.574 224.283 133.568C223.243 133.562 222.213 133.36 221.248 132.972C220.292 132.591 219.416 132.031 218.668 131.324C218.067 130.758 217.547 130.113 217.122 129.406C216.526 128.388 216.077 127.291 215.791 126.146C215.562 125.259 215.398 124.357 215.297 123.446C215.126 121.872 215.079 120.287 215.157 118.706C215.223 117.207 215.344 115.754 215.511 114.32C215.865 111.47 216.368 108.732 216.983 105.939C217.597 103.145 218.305 100.565 219.199 97.8647L225.317 99.066C225.094 104.309 224.842 109.664 225.01 114.729C225.039 117.085 225.288 119.433 225.755 121.742C225.849 122.164 225.976 122.578 226.137 122.98C226.267 123.297 226.416 123.492 226.416 123.409C226.416 123.325 226.351 123.25 226.165 123.036C225.912 122.788 225.615 122.589 225.289 122.449C224.955 122.308 224.599 122.223 224.237 122.198C224.079 122.198 223.995 122.198 223.902 122.198C223.809 122.198 223.958 122.198 224.004 122.198L224.209 122.142C226.414 121.573 228.56 120.793 230.616 119.814C232.763 118.775 234.841 117.599 236.837 116.294C238.857 114.953 240.85 113.5 242.769 111.964C243.737 111.2 244.668 110.409 245.562 109.589L246.913 108.36L247.574 107.754L248.142 107.214L257.314 115.884Z" fill="#FF8B7B"/>
<path d="M262.23 112.597C261.914 103.815 254.706 100.76 245.673 106.748C241.692 109.279 237.859 112.034 234.191 114.999L240.039 133.754C240.039 133.754 251.214 130.206 257.677 123.241C262.054 118.501 262.342 115.586 262.23 112.597Z" fill="#263238"/>
<path opacity="0.2" d="M251.243 116.34C251.243 116.34 245.851 124.051 243.942 132.246C246.593 131.115 249.147 129.77 251.578 128.223L251.243 116.34Z" fill="black"/>
<path d="M224.983 101.86L228.112 94.7915L219.265 92.2026C219.265 92.2026 217.747 95.583 218.604 101.385L224.983 101.86Z" fill="#FF8B7B"/>
<path d="M229.088 86.5034L221.386 87.4253L219.291 92.2026L228.147 94.7914L229.088 86.5034Z" fill="#FF8B7B"/>
<path d="M251.298 176.256C251.298 176.256 245.571 224.178 244.947 249.824C244.296 276.467 249.52 330.208 249.52 330.208L264.522 329.892C264.522 329.892 266.329 272.36 268.498 245.997C270.873 217.259 276.833 175.735 276.833 175.735L251.298 176.256Z" fill="#407BFF"/>
<path opacity="0.6" d="M251.298 176.256C251.298 176.256 245.571 224.178 244.947 249.824C244.296 276.467 249.52 330.208 249.52 330.208L264.522 329.892C264.522 329.892 266.329 272.36 268.498 245.997C270.873 217.259 276.833 175.735 276.833 175.735L251.298 176.256Z" fill="white"/>
<path opacity="0.2" d="M269.169 189.824C262.464 204.603 264.261 237.615 268.07 251.77C268.21 249.712 268.359 247.766 268.508 245.969C270.063 227.027 273.164 202.545 275.129 188.046C273.303 185.373 271.264 185.196 269.169 189.824Z" fill="black"/>
<path d="M265.957 175.94C265.957 175.94 270.101 227.502 273.118 252.944C276.2 279.428 286.583 330.18 286.583 330.18L301.586 329.864C301.586 329.864 297.47 272.22 295.877 245.81C294.145 217.026 293.698 175.306 293.698 175.306L265.957 175.94Z" fill="#407BFF"/>
<path opacity="0.6" d="M265.957 175.94C265.957 175.94 270.101 227.502 273.118 252.944C276.2 279.428 286.583 330.18 286.583 330.18L301.586 329.864C301.586 329.864 297.47 272.22 295.877 245.81C294.145 217.026 293.698 175.306 293.698 175.306L265.957 175.94Z" fill="white"/>
<path d="M250.265 104.449C250.265 104.449 244.128 127.227 251.298 176.247C264.68 175.958 287.169 175.437 293.688 175.316C293.846 168.49 288.818 135.021 294.703 102.754C290.463 102.018 286.173 101.594 281.871 101.487C275.573 101.256 269.267 101.389 262.985 101.888C258.685 102.41 254.432 103.266 250.265 104.449Z" fill="#263238"/>
<path opacity="0.2" d="M292.143 125.709L285.205 119.963C285.661 124.451 289.722 135.449 291.863 141.018C291.808 136.157 291.873 131.007 292.143 125.709Z" fill="black"/>
<path d="M267.325 117.653L259.754 132.628C259.596 132.941 259.541 133.297 259.598 133.643C259.654 133.99 259.818 134.31 260.067 134.558C260.316 134.805 260.636 134.968 260.983 135.023C261.33 135.078 261.685 135.022 261.998 134.863L266.943 132.143C267.211 131.997 267.516 131.929 267.821 131.949C268.126 131.969 268.419 132.075 268.666 132.255L273.536 135.766C273.817 135.962 274.153 136.065 274.496 136.058C274.838 136.052 275.17 135.937 275.444 135.73C275.717 135.523 275.917 135.235 276.016 134.906C276.115 134.578 276.108 134.227 275.995 133.903L270.305 117.905C270.207 117.6 270.021 117.332 269.771 117.133C269.521 116.934 269.217 116.813 268.899 116.786C268.58 116.76 268.261 116.828 267.981 116.982C267.701 117.136 267.472 117.37 267.325 117.653Z" fill="white"/>
<path d="M279.553 80.2456C278.492 86.3452 277.542 97.5014 281.881 101.468C281.881 101.468 280.615 106.991 269.058 108.918C261.292 106.423 262.996 101.915 262.996 101.915C269.738 100.155 269.459 95.1268 268.174 90.4333L279.553 80.2456Z" fill="#FF8B7B"/>
<path opacity="0.2" d="M274.914 84.3894L268.172 90.3866C268.487 91.4797 268.705 92.5984 268.824 93.7297C271.403 93.3013 274.895 90.3866 275.119 87.6674C275.25 86.5713 275.18 85.4606 274.914 84.3894Z" fill="black"/>
<path d="M283.25 72.6933C281.015 80.6275 280.103 85.3861 275.148 88.6361C267.699 93.5158 258.563 87.7049 258.386 79.2399C258.228 71.641 261.916 59.9354 270.492 58.4454C272.378 58.1108 274.318 58.2634 276.129 58.8885C277.939 59.5136 279.56 60.5907 280.838 62.0176C282.116 63.4445 283.008 65.174 283.43 67.0423C283.852 68.9106 283.79 70.8557 283.25 72.6933Z" fill="#FF8B7B"/>
<path d="M278.473 77.5915C277.43 75.0586 276.675 66.7147 281.015 64.6753C285.354 62.6359 289.88 67.6273 288.744 69.9833C286.984 73.6244 280.857 83.4583 278.473 77.5915Z" fill="#263238"/>
<path d="M281.07 67.6089C279.999 64.8152 267.232 63.2321 265.444 60.2242C263.321 56.6389 272.037 56.2199 278.016 58.0358C283.277 59.6375 286.788 61.1741 286.173 65.0946C285.82 67.3109 281.07 67.6089 281.07 67.6089Z" fill="#263238"/>
<path d="M283.836 64.7312C283.836 64.7312 286.63 65.5041 288.166 63.446C287.682 65.4761 285.326 67.5249 283.836 64.7312Z" fill="#263238"/>
<path d="M271.059 56.1172C267.222 53.1373 261.998 56.6387 262.492 60.522C262.985 64.4052 275.92 67.3572 275.92 67.3572C275.92 67.3572 276.199 60.075 271.059 56.1172Z" fill="#263238"/>
<path d="M262.501 60.5874C263.088 63.3066 265.071 65.4391 269.085 67.0129C266.762 65.2971 265.004 62.9267 264.038 60.2056L262.501 60.5874Z" fill="#263238"/>
<path d="M270.556 72.3361C270.698 71.6827 270.467 71.0779 270.039 70.9852C269.612 70.8925 269.151 71.3471 269.009 72.0005C268.867 72.6539 269.099 73.2587 269.526 73.3514C269.953 73.4441 270.414 72.9895 270.556 72.3361Z" fill="#263238"/>
<path d="M263.175 70.7387C263.317 70.0853 263.086 69.4805 262.658 69.3878C262.231 69.2951 261.77 69.7497 261.628 70.4031C261.486 71.0565 261.718 71.6613 262.145 71.754C262.572 71.8467 263.034 71.3921 263.175 70.7387Z" fill="#263238"/>
<path d="M265.444 71.5664C264.23 73.3996 262.769 75.0572 261.104 76.4926C262.035 77.8243 264.103 77.7591 264.103 77.7591L265.444 71.5664Z" fill="#FF5652"/>
<path d="M265.613 79.9756C266.486 80.194 267.4 80.198 268.275 79.9872C269.151 79.7764 269.963 79.3571 270.641 78.765C270.678 78.7279 270.699 78.6777 270.699 78.6253C270.699 78.5729 270.678 78.5226 270.641 78.4856C270.604 78.4485 270.554 78.4277 270.502 78.4277C270.449 78.4277 270.399 78.4485 270.362 78.4856C269.726 79.0214 268.974 79.4007 268.165 79.5932C267.357 79.7856 266.514 79.7858 265.706 79.5938C265.656 79.5846 265.604 79.5951 265.562 79.6232C265.52 79.6512 265.49 79.6946 265.479 79.7442C265.468 79.7937 265.477 79.8455 265.504 79.8887C265.53 79.9319 265.573 79.963 265.622 79.9756L265.613 79.9756Z" fill="#263238"/>
<path d="M273.303 70.4303C273.375 70.4483 273.451 70.4454 273.521 70.4219C273.592 70.3984 273.654 70.3553 273.701 70.2977C273.748 70.24 273.778 70.1702 273.786 70.0964C273.795 70.0226 273.782 69.9478 273.75 69.8809C273.5 69.3073 273.116 68.8023 272.629 68.4085C272.143 68.0147 271.569 67.7435 270.956 67.618C270.905 67.6106 270.853 67.6135 270.802 67.6264C270.752 67.6393 270.705 67.6619 270.663 67.693C270.622 67.7242 270.587 67.7632 270.56 67.8078C270.534 67.8525 270.517 67.9019 270.509 67.9532C270.502 68.0046 270.505 68.0569 270.518 68.1072C270.531 68.1574 270.553 68.2047 270.584 68.2462C270.616 68.2877 270.655 68.3226 270.699 68.3491C270.744 68.3755 270.793 68.3929 270.845 68.4002C271.332 68.5125 271.785 68.7403 272.166 69.0645C272.547 69.3886 272.844 69.7996 273.033 70.2627C273.064 70.308 273.104 70.3463 273.15 70.3752C273.197 70.4041 273.249 70.4228 273.303 70.4303Z" fill="#263238"/>
<path d="M260.462 67.4784C260.535 67.4961 260.611 67.4923 260.682 67.4676C260.753 67.4428 260.816 67.3981 260.862 67.3387C261.156 66.9426 261.54 66.6215 261.982 66.4014C262.423 66.1814 262.911 66.0686 263.404 66.0723C263.508 66.0809 263.611 66.048 263.69 65.9807C263.77 65.9135 263.819 65.8175 263.828 65.7137C263.837 65.61 263.804 65.5071 263.736 65.4276C263.669 65.3482 263.573 65.2987 263.469 65.29C262.845 65.273 262.225 65.4063 261.663 65.6785C261.101 65.9508 260.612 66.3541 260.238 66.8545C260.197 66.9059 260.17 66.9668 260.159 67.0316C260.147 67.0964 260.153 67.163 260.174 67.2252C260.195 67.2874 260.232 67.3432 260.281 67.3875C260.329 67.4317 260.388 67.463 260.452 67.4784L260.462 67.4784Z" fill="#263238"/>
<path d="M296.744 109.114C298.439 112.066 299.854 114.934 301.326 117.886C302.797 120.838 304.119 123.818 305.386 126.854C306.652 129.89 307.863 132.963 308.924 136.166C310.041 139.352 310.989 142.594 311.765 145.879L312.333 148.422C312.575 149.616 312.681 150.835 312.649 152.053C312.57 154.319 312.064 156.549 311.159 158.628C309.582 162.135 307.332 165.298 304.538 167.94C302.051 170.349 299.338 172.513 296.437 174.403C295.03 175.334 293.578 176.191 292.116 177.011C290.654 177.83 289.21 178.584 287.58 179.301L284.479 173.891C285.606 172.96 286.845 172.028 288 171.023C289.154 170.017 290.281 168.993 291.399 167.968C293.559 165.969 295.561 163.805 297.386 161.496C299.013 159.519 300.275 157.267 301.111 154.847C301.396 153.945 301.51 152.997 301.447 152.053C301.417 151.673 301.342 151.298 301.223 150.936L300.599 148.85C298.718 143.058 296.478 137.388 293.894 131.873C292.618 129.08 291.268 126.286 289.899 123.492C288.53 120.699 287.106 117.905 285.718 115.251L296.744 109.114Z" fill="#FF8B7B"/>
<path d="M295.03 102.8C302.787 104.486 308.197 124.74 308.197 124.74L294.313 137.349C289.898 132.438 286.426 126.756 284.069 120.587C280.391 110.446 286.723 101.003 295.03 102.8Z" fill="#263238"/>
<path d="M286.119 172.922L277.188 173.015L282.72 182.021C282.72 182.021 289.08 180.447 289.648 177.253L286.119 172.922Z" fill="#FF8B7B"/>
<path d="M271.628 178.332L276.554 185.559L282.728 182.02L277.187 173.015L271.628 178.332Z" fill="#FF8B7B"/>
<path d="M285.689 79.9942C284.699 81.8217 283.024 83.1816 281.032 83.775C278.397 84.5479 277.047 82.1919 277.755 79.6869C278.388 77.4333 280.548 74.3136 283.193 74.6396C285.838 74.9655 286.871 77.7499 285.689 79.9942Z" fill="#FF8B7B"/>
<path d="M258.255 124.116L93.8827 136.017C90.4607 136.284 87.282 137.89 85.0365 140.486C82.791 143.082 81.6597 146.459 81.8883 149.883L87.4758 227.381C87.7404 230.808 89.3477 233.992 91.948 236.24C94.5483 238.488 97.9311 239.618 101.361 239.385L110.673 238.714C111.349 238.665 112.018 238.887 112.531 239.331C113.044 239.774 113.361 240.403 113.411 241.079L114.454 255.439C114.475 255.715 114.577 255.978 114.748 256.196C114.918 256.414 115.149 256.577 115.411 256.665C115.673 256.752 115.956 256.76 116.223 256.688C116.49 256.616 116.73 256.466 116.912 256.259L132.501 238.239C133.155 237.483 134.083 237.017 135.081 236.945L265.752 227.493C269.174 227.226 272.352 225.62 274.598 223.024C276.844 220.428 277.975 217.051 277.746 213.627L272.159 136.129C271.897 132.697 270.288 129.508 267.683 127.257C265.078 125.007 261.689 123.877 258.255 124.116Z" fill="#407BFF"/>
<path d="M117.89 171.544L126.765 170.901L127.491 180.958L137.195 180.26L136.468 170.203L145.39 169.56L147.466 198.298L138.545 198.941L137.707 187.319L128.003 188.017L128.841 199.639L119.967 200.282L117.89 171.544Z" fill="white"/>
<path opacity="0.2" d="M93.8827 136.017C90.4607 136.284 87.282 137.89 85.0365 140.486C82.791 143.081 81.6597 146.458 81.8883 149.883L87.4758 227.381C87.7403 230.808 89.3477 233.992 91.948 236.24C94.5483 238.488 97.9311 239.618 101.361 239.384L102.729 239.282C105.003 239.116 107.159 238.205 108.863 236.69C110.567 235.174 111.723 233.14 112.154 230.901L130.871 133.335L93.8827 136.017Z" fill="black"/>
<path d="M175.347 187.803L159.348 188.958C159.473 189.993 159.908 190.967 160.596 191.751C160.996 192.165 161.484 192.482 162.025 192.679C162.565 192.876 163.144 192.947 163.716 192.888C164.498 192.829 165.252 192.569 165.904 192.133C166.419 191.745 166.857 191.265 167.199 190.718L175.114 190.876C174.255 192.829 172.86 194.498 171.091 195.691C169.458 196.721 167.053 197.342 163.874 197.553C161.652 197.815 159.399 197.576 157.281 196.855C155.581 196.143 154.123 194.956 153.081 193.437C151.879 191.711 151.188 189.681 151.088 187.58C150.923 186.121 151.064 184.645 151.503 183.245C151.943 181.844 152.671 180.552 153.64 179.45C155.577 177.289 158.37 176.076 162.021 175.809C164.438 175.519 166.888 175.807 169.173 176.647C170.925 177.389 172.403 178.658 173.401 180.279C174.543 182.291 175.181 184.55 175.263 186.863L175.347 187.803ZM166.966 184.572C166.853 183.36 166.331 182.224 165.485 181.35C165.06 181.021 164.571 180.783 164.05 180.651C163.529 180.519 162.986 180.496 162.456 180.584C161.925 180.671 161.419 180.867 160.967 181.159C160.516 181.451 160.13 181.833 159.832 182.281C159.34 183.155 159.093 184.146 159.115 185.149L166.966 184.572Z" fill="white"/>
<path d="M177.824 167.214L185.824 166.636L187.9 195.374L179.901 195.952L177.824 167.214Z" fill="white"/>
<path d="M191.187 166.245L199.186 165.668L201.263 194.406L193.264 194.983L191.187 166.245Z" fill="white"/>
<path d="M204.635 183.752C204.484 182.295 204.641 180.822 205.097 179.429C205.552 178.037 206.296 176.756 207.28 175.669C209.272 173.459 212.091 172.218 215.735 171.944C219.901 171.64 223.138 172.621 225.448 174.887C227.374 176.912 228.487 179.576 228.573 182.369C228.659 185.163 227.712 187.89 225.914 190.029C223.939 192.227 221.077 193.468 217.328 193.754C214.416 194.101 211.477 193.405 209.03 191.789C207.724 190.882 206.647 189.684 205.884 188.289C205.121 186.895 204.694 185.341 204.635 183.752ZM212.634 183.156C212.624 184.626 213.128 186.052 214.059 187.189C214.436 187.575 214.893 187.874 215.397 188.067C215.902 188.259 216.442 188.339 216.98 188.302C217.519 188.265 218.043 188.111 218.516 187.851C218.989 187.591 219.4 187.232 219.721 186.798C220.473 185.501 220.756 183.985 220.522 182.505C220.529 181.064 220.032 179.667 219.116 178.556C218.756 178.163 218.312 177.857 217.817 177.661C217.321 177.466 216.788 177.387 216.257 177.429C215.703 177.458 215.163 177.612 214.679 177.882C214.195 178.152 213.779 178.529 213.463 178.985C212.703 180.234 212.406 181.711 212.625 183.156L212.634 183.156Z" fill="white"/>
<path d="M231.081 163.358L239.611 162.744L240.086 169.262L239.378 182.579L234.108 182.961L231.547 169.923L231.081 163.358ZM232.944 185.037L240.906 184.46L241.418 191.5L233.456 192.078L232.944 185.037Z" fill="white"/>
<path d="M91.6096 110.455C91.5679 111.818 91.6364 113.182 91.8145 114.534C83.3768 117.355 74.3768 118.068 65.6002 116.61C66.0215 115.017 66.2774 113.385 66.3638 111.74C66.076 113.4 65.5025 114.997 64.669 116.461C63.0113 116.145 62.0894 115.875 62.0894 115.875C62.0894 115.875 63.775 106.702 60.7298 100.044C57.6847 93.3852 59.2212 89.651 61.5027 88.5987C65.7958 75.431 81.8875 77.5169 87.3353 82.8529C94.245 89.6323 94.2823 108.732 95.5395 113.1C94.5337 113.537 93.5373 113.947 92.5316 114.301C92.0236 113.075 91.7124 111.777 91.6096 110.455Z" fill="#263238"/>
<path d="M98.2681 130.951L99.1062 133.605C99.4104 134.518 99.7208 135.434 100.037 136.353C100.661 138.215 101.313 140.078 102.002 141.866C102.691 143.653 103.371 145.535 104.107 147.369L105.187 150.163L105.457 150.852L105.522 151.01C105.407 150.908 105.275 150.826 105.131 150.768C104.926 150.694 104.843 150.768 104.964 150.768C105.188 150.769 105.411 150.734 105.625 150.666C106.353 150.434 107.052 150.122 107.711 149.734C109.315 148.804 110.849 147.758 112.302 146.606C113.81 145.432 115.291 144.175 116.744 142.881C118.197 141.586 119.659 140.236 121.065 138.913L123.924 141.325C122.732 143.039 121.465 144.603 120.199 146.196C118.932 147.788 117.489 149.278 116.008 150.759C114.495 152.3 112.85 153.705 111.091 154.959C110.081 155.669 108.994 156.263 107.851 156.728C107.13 157.017 106.376 157.211 105.606 157.305C104.557 157.436 103.491 157.292 102.515 156.886C101.45 156.432 100.543 155.674 99.9071 154.707C99.7697 154.507 99.6452 154.299 99.5346 154.083L99.2831 153.59L98.9479 152.91C98.5009 151.979 98.0166 151.048 97.6348 150.172C96.7874 148.31 95.94 146.447 95.1671 144.585C94.3941 142.722 93.6398 140.804 92.9228 138.886C92.5813 137.917 92.2492 136.942 91.9264 135.961C91.6004 134.956 91.3117 134.024 90.9951 132.888L98.2681 130.951Z" fill="#FFC3BD"/>
<path d="M96.0613 122.682C99.2741 123.501 101.518 136.706 101.518 136.706L92.6716 142.722C92.6716 142.722 84.1881 129.396 86.6652 125.867C89.2354 122.198 91.3772 121.49 96.0613 122.682Z" fill="#407BFF"/>
<path d="M96.0613 122.682C99.2741 123.501 101.518 136.706 101.518 136.706L92.6716 142.722C92.6716 142.722 84.1881 129.396 86.6652 125.867C89.2354 122.198 91.3772 121.49 96.0613 122.682Z" fill="#407BFF"/>
<path opacity="0.4" d="M96.0613 122.682C99.2741 123.501 101.518 136.706 101.518 136.706L92.6716 142.722C92.6716 142.722 84.1881 129.396 86.6652 125.867C89.2354 122.198 91.3772 121.49 96.0613 122.682Z" fill="white"/>
<path opacity="0.3" d="M95.7731 125.634L98.2409 138.941L93.2681 142.312L95.7731 125.634Z" fill="black"/>
<path d="M120.879 139.248L123.831 132.143L127.473 139.248C127.473 139.248 125.107 142.787 121.988 141.921L120.879 139.248Z" fill="#FFC3BD"/>
<path d="M127.082 131.398L131.756 133.28L127.473 139.249L123.832 132.134L127.082 131.398Z" fill="#FFC3BD"/>
<path d="M96.0613 122.682C96.0613 122.682 99.7863 123.986 92.3364 169.682L60.6743 169.682C61.2051 156.812 61.2238 148.868 55.0869 122.459C59.5204 121.543 64.0146 120.952 68.534 120.689C73.3144 120.347 78.1132 120.347 82.8937 120.689C89.0212 121.248 96.0613 122.682 96.0613 122.682Z" fill="#407BFF"/>
<path opacity="0.4" d="M96.0613 122.682C96.0613 122.682 99.7863 123.986 92.3364 169.682L60.6743 169.682C61.2051 156.812 61.2238 148.868 55.0869 122.459C59.5204 121.543 64.0146 120.952 68.534 120.689C73.3144 120.347 78.1132 120.347 82.8937 120.689C89.0212 121.248 96.0613 122.682 96.0613 122.682Z" fill="white"/>
<path d="M68.5339 120.68C73.3175 120.339 78.1193 120.339 82.9029 120.68C83.6758 120.745 84.4674 120.838 85.2496 120.931C85.5743 121.421 85.7819 121.979 85.8562 122.562C85.9305 123.145 85.8695 123.737 85.678 124.293C84.6723 126.798 81.0218 127.087 78.3864 127.087C68.5991 127.087 66.9415 121.369 66.8763 121.127L66.7832 120.782C67.3699 120.754 67.9473 120.708 68.5339 120.68Z" fill="white"/>
<path d="M69.9585 104.513C70.8897 109.17 71.7651 117.597 68.5337 120.68C68.5337 120.68 69.8002 125.336 78.3862 125.336C87.8289 125.336 82.9027 120.68 82.9027 120.68C77.7436 119.46 77.8461 115.632 78.7773 112.047L69.9585 104.513Z" fill="#FFC3BD"/>
<path d="M70.8991 101.226C69.7909 104.886 71.3182 113.547 73.609 116.899C69.1111 114.32 67.6025 106.46 67.6025 106.46L70.8991 101.226Z" fill="#263238"/>
<path opacity="0.2" d="M73.5532 107.587L78.7775 112.038C78.5536 112.877 78.404 113.734 78.3305 114.599C76.3656 114.31 73.6743 112.15 73.4508 110.092C73.3321 109.257 73.3668 108.408 73.5532 107.587Z" fill="black"/>
<path d="M65.7411 96.2627C67.5477 103.778 68.1436 107 72.6695 110.231C79.4768 115.083 88.3142 111.228 88.7892 103.322C89.2175 96.2069 86.2003 85.1158 78.2289 83.393C76.4743 83.0069 74.6502 83.0757 72.9296 83.5927C71.209 84.1098 69.6492 85.058 68.3981 86.3474C67.147 87.6367 66.2461 89.2244 65.7811 90.9598C65.3161 92.6951 65.3023 94.5206 65.7411 96.2627Z" fill="#FFC3BD"/>
<path d="M92.3367 169.681C92.3367 169.681 98.4828 229.672 97.9241 253.418C97.3933 278.115 88.3416 334.436 88.3416 334.436L77.8466 334.436C77.8466 334.436 79.5135 279.54 78.5823 255.281C77.5672 228.834 69.1675 169.663 69.1675 169.663L92.3367 169.681Z" fill="#407BFF"/>
<path opacity="0.4" d="M92.3367 169.681C92.3367 169.681 98.4828 229.672 97.9241 253.418C97.3933 278.115 88.3416 334.436 88.3416 334.436L77.8466 334.436C77.8466 334.436 79.5135 279.54 78.5823 255.281C77.5672 228.834 69.1675 169.663 69.1675 169.663L92.3367 169.681Z" fill="black"/>
<path opacity="0.2" d="M78.7034 184.609C86.4699 200.273 80.2586 228.741 77.5114 239.385C76.1053 223.461 73.7306 203.998 71.8774 189.685C73.0508 181.555 75.1181 177.402 78.7034 184.609Z" fill="black"/>
<path d="M83.9926 169.681C83.9926 169.681 76.8313 232.074 71.4209 252.068C64.9953 275.842 40.5783 316.323 40.5783 316.323L30.8003 312.17C30.8003 312.17 45.9143 266.204 50.8405 253.679C61.3262 226.952 52.3491 187.123 60.7303 169.681L83.9926 169.681Z" fill="#407BFF"/>
<path opacity="0.4" d="M83.9926 169.681C83.9926 169.681 76.8313 232.074 71.4209 252.068C64.9953 275.842 40.5783 316.323 40.5783 316.323L30.8003 312.17C30.8003 312.17 45.9143 266.204 50.8405 253.679C61.3262 226.952 52.3491 187.123 60.7303 169.681L83.9926 169.681Z" fill="black"/>
<path d="M78.5202 97.3492C78.9254 97.2779 79.1659 96.7192 79.0572 96.1012C78.9486 95.4832 78.532 95.04 78.1268 95.1113C77.7216 95.1825 77.4811 95.7412 77.5898 96.3592C77.6984 96.9772 78.115 97.4204 78.5202 97.3492Z" fill="#263238"/>
<path d="M85.5119 96.1292C85.9171 96.058 86.1576 95.4992 86.0489 94.8812C85.9403 94.2633 85.5237 93.82 85.1185 93.8913C84.7133 93.9625 84.4728 94.5212 84.5815 95.1392C84.6901 95.7572 85.1067 96.2004 85.5119 96.1292Z" fill="#263238"/>
<path d="M84.9521 93.944L86.3583 93.2549C86.3583 93.2549 85.7996 94.5493 84.9521 93.944Z" fill="#263238"/>
<path d="M82.9214 96.5234C83.7192 97.8363 84.6937 99.0333 85.8175 100.081C85.5419 100.362 85.2082 100.579 84.8398 100.717C84.4715 100.855 84.0773 100.912 83.685 100.882L82.9214 96.5234Z" fill="#ED847E"/>
<path d="M80.8922 103.796C81.245 103.796 81.5971 103.765 81.9445 103.703C81.971 103.702 81.9971 103.695 82.0209 103.683C82.0446 103.671 82.0655 103.655 82.0822 103.634C82.0989 103.613 82.1109 103.589 82.1174 103.563C82.124 103.537 82.125 103.51 82.1203 103.484C82.1156 103.458 82.1053 103.433 82.0902 103.411C82.0751 103.389 82.0554 103.371 82.0326 103.357C82.0097 103.344 81.9842 103.335 81.9578 103.332C81.9313 103.329 81.9046 103.332 81.8793 103.34C81.1131 103.493 80.3218 103.463 79.5695 103.252C78.8172 103.042 78.125 102.657 77.549 102.13C77.5141 102.101 77.4702 102.086 77.4252 102.088C77.3803 102.089 77.3374 102.107 77.3045 102.138C77.2715 102.168 77.2508 102.21 77.2461 102.254C77.2414 102.299 77.2531 102.344 77.279 102.381C78.2527 103.306 79.5493 103.814 80.8922 103.796Z" fill="#263238"/>
<path d="M68.3293 91.8485C68.5315 93.829 68.8424 95.7969 69.2605 97.7433C69.2605 97.7433 73.9167 91.8578 74.6896 88.7009C74.5027 89.9284 74.1421 91.123 73.6187 92.249C73.6187 92.249 79.886 90.8893 80.5006 86.7453C80.4921 88.5965 80.2861 90.4415 79.886 92.249C79.886 92.249 85.8645 89.9022 85.3151 85.9352C84.7656 81.9681 75.5836 80.4781 71.3279 81.8191C67.0721 83.1601 62.9467 87.5183 64.1946 93.4968C65.4425 99.4754 67.8264 101.72 67.8264 101.72C67.8264 101.72 66.1316 95.6852 68.3293 91.8485Z" fill="#263238"/>
<path d="M65.368 101.925C65.9436 103.303 67.0418 104.398 68.4224 104.97C70.2849 105.715 71.3931 104.122 71.0671 102.278C70.7691 100.612 69.4654 98.2275 67.5284 98.2741C67.1077 98.2926 66.6983 98.4158 66.3372 98.6323C65.976 98.8489 65.6746 99.1521 65.4601 99.5145C65.2456 99.8769 65.1249 100.287 65.1088 100.708C65.0927 101.129 65.1818 101.547 65.368 101.925Z" fill="#FFC3BD"/>
<path d="M69.4652 88.9897C68.5339 92.7147 70.4709 101.273 72.9107 104.513C68.2546 102.157 66.3921 94.3723 66.3921 94.3723L69.4652 88.9897Z" fill="#263238"/>
<path d="M75.0531 94.2421C75.101 94.2276 75.1454 94.2037 75.1838 94.1717C75.2222 94.1397 75.2538 94.1003 75.2766 94.0558C75.472 93.6368 75.7637 93.27 76.1278 92.9852C76.4919 92.7003 76.9182 92.5056 77.3719 92.4168C77.4613 92.3965 77.54 92.3439 77.593 92.2691C77.646 92.1943 77.6696 92.1026 77.6592 92.0115C77.6489 91.9204 77.6053 91.8363 77.5368 91.7754C77.4683 91.7145 77.3798 91.6809 77.2881 91.6812C76.7111 91.7837 76.1672 92.0233 75.7021 92.3799C75.237 92.7364 74.8644 93.1994 74.6154 93.7299C74.5838 93.7946 74.5716 93.8672 74.5804 93.9387C74.5892 94.0102 74.6185 94.0777 74.6648 94.1329C74.7111 94.1881 74.7725 94.2286 74.8414 94.2497C74.9103 94.2707 74.9839 94.2713 75.0531 94.2514L75.0531 94.2421Z" fill="#263238"/>
<path d="M87.1586 91.3178C87.2304 91.3169 87.3005 91.2952 87.3603 91.2553C87.4201 91.2155 87.4671 91.1592 87.4957 91.0933C87.5242 91.0273 87.5331 90.9545 87.5212 90.8837C87.5093 90.8128 87.4772 90.7469 87.4286 90.6939C87.0348 90.2598 86.5426 89.9266 85.9932 89.7225C85.4438 89.5183 84.8535 89.449 84.2718 89.5205C84.1862 89.5484 84.1137 89.6062 84.0675 89.6834C84.0213 89.7606 84.0046 89.8519 84.0205 89.9405C84.0364 90.029 84.0838 90.1088 84.1539 90.1651C84.2241 90.2214 84.3122 90.2505 84.4021 90.2469C84.8607 90.1941 85.3252 90.251 85.7575 90.4129C86.1898 90.5748 86.5774 90.8371 86.8885 91.1781C86.9212 91.2191 86.9621 91.2527 87.0087 91.2767C87.0552 91.3008 87.1063 91.3148 87.1586 91.3178Z" fill="#263238"/>
<path d="M58.9519 133.512C57.6575 137.6 56.4283 141.893 55.376 146.121C54.3144 150.294 53.5396 154.535 53.0572 158.814L52.9827 159.596C52.9827 159.848 52.9827 159.904 52.9827 160.127C52.9873 160.566 53.0184 161.005 53.0758 161.44C53.1876 162.371 53.3738 163.433 53.588 164.476C54.035 166.562 54.5658 168.694 55.1525 170.827C55.7392 172.959 56.3258 175.111 56.9684 177.243L58.8309 183.678L55.3667 185.103C53.2435 181.043 51.3996 176.908 49.6768 172.643C48.848 170.501 48.0378 168.341 47.3673 166.059C47.0321 164.914 46.7155 163.759 46.4361 162.492C46.3035 161.819 46.2102 161.138 46.1567 160.453C46.1567 160.108 46.1567 159.606 46.1567 159.298L46.1567 158.367C46.2362 155.997 46.4538 153.634 46.8086 151.29C47.1159 148.961 47.5722 146.689 48.0658 144.417C49.0386 139.886 50.2825 135.417 51.7907 131.035L58.9519 133.512Z" fill="#FFC3BD"/>
<path d="M55.1058 122.458C51.9396 123.39 48.1309 134.332 48.1309 134.332L60.4232 143.123C60.4232 143.123 64.9024 134.015 63.5708 129.918C62.1925 125.653 58.7283 121.36 55.1058 122.458Z" fill="#407BFF"/>
<path opacity="0.4" d="M55.1058 122.458C51.9396 123.39 48.1309 134.332 48.1309 134.332L60.4232 143.123C60.4232 143.123 64.9024 134.015 63.5708 129.918C62.1925 125.653 58.7283 121.36 55.1058 122.458Z" fill="white"/>
<path d="M60.2367 167.829L59.4265 170.622C59.3148 170.846 59.5755 171.069 59.9387 171.069L92.532 171.069C92.8207 171.069 93.0535 170.93 93.0721 170.753L93.3608 167.959C93.3608 167.763 93.1373 167.596 92.8207 167.596L60.7582 167.596C60.6585 167.586 60.5581 167.602 60.4667 167.643C60.3752 167.684 60.296 167.748 60.2367 167.829Z" fill="#263238"/>
<path d="M64.5385 171.404L63.6817 171.404C63.5141 171.404 63.3837 171.32 63.393 171.209L63.7935 167.53C63.7935 167.419 63.9518 167.335 64.1287 167.335L64.9855 167.335C65.1531 167.335 65.2835 167.419 65.2741 167.53L64.8737 171.209C64.8644 171.32 64.7154 171.404 64.5385 171.404Z" fill="#407BFF"/>
<path opacity="0.4" d="M64.5385 171.404L63.6817 171.404C63.5141 171.404 63.3837 171.32 63.393 171.209L63.7935 167.53C63.7935 167.419 63.9518 167.335 64.1287 167.335L64.9855 167.335C65.1531 167.335 65.2835 167.419 65.2741 167.53L64.8737 171.209C64.8644 171.32 64.7154 171.404 64.5385 171.404Z" fill="black"/>
<path d="M90.0829 171.404L89.2262 171.404C89.0585 171.404 88.9282 171.32 88.9375 171.209L89.3379 167.53C89.3379 167.419 89.4962 167.335 89.6732 167.335L90.5299 167.335C90.6975 167.335 90.8279 167.419 90.8186 167.53L90.4181 171.209C90.4088 171.32 90.2598 171.404 90.0829 171.404Z" fill="#407BFF"/>
<path opacity="0.4" d="M90.0829 171.404L89.2262 171.404C89.0585 171.404 88.9282 171.32 88.9375 171.209L89.3379 167.53C89.3379 167.419 89.4962 167.335 89.6732 167.335L90.5299 167.335C90.6975 167.335 90.8279 167.419 90.8186 167.53L90.4181 171.209C90.4088 171.32 90.2598 171.404 90.0829 171.404Z" fill="black"/>
<path d="M77.3158 171.404L76.4591 171.404C76.2914 171.404 76.1611 171.32 76.1704 171.209L76.5708 167.53C76.5708 167.419 76.7291 167.335 76.9061 167.335L77.7628 167.335C77.9304 167.335 78.0608 167.419 78.0515 167.53L77.6511 171.209C77.6324 171.32 77.4834 171.404 77.3158 171.404Z" fill="#407BFF"/>
<path opacity="0.4" d="M77.3158 171.404L76.4591 171.404C76.2914 171.404 76.1611 171.32 76.1704 171.209L76.5708 167.53C76.5708 167.419 76.7291 167.335 76.9061 167.335L77.7628 167.335C77.9304 167.335 78.0608 167.419 78.0515 167.53L77.6511 171.209C77.6324 171.32 77.4834 171.404 77.3158 171.404Z" fill="black"/>
<path d="M77.958 95.173L79.3642 94.4839C79.3642 94.4839 78.7775 95.7783 77.958 95.173Z" fill="#263238"/>
<path d="M58.561 182.579L65.2379 187.701L57.4994 189.396C57.4994 189.396 54.2028 185.671 55.3482 182.607L58.561 182.579Z" fill="#FFC3BD"/>
<path d="M66.876 194.08L60.3201 195.151L56.7349 188.427L65.2371 187.738L66.876 194.08Z" fill="#FFC3BD"/>
</g>
<defs>
<linearGradient id="paint0_linear" x1="54.2352" y1="56.3235" x2="300.845" y2="56.8368" gradientUnits="userSpaceOnUse">
<stop stop-color="#36D1DC"/>
<stop offset="1" stop-color="#5B86E5"/>
</linearGradient>
</defs>
</svg>
