<svg width="96" height="96" viewBox="0 0 96 96" fill="none" xmlns="http://www.w3.org/2000/svg">
<path d="M47.9987 5.33333C39.56 5.33333 31.3109 7.83568 24.2944 12.524C17.2779 17.2122 11.8092 23.8759 8.57986 31.6722C5.35052 39.4685 4.50558 48.0473 6.15188 56.3239C7.79818 64.6004 11.8618 72.2029 17.8288 78.1699C23.7959 84.1369 31.3983 88.2005 39.6749 89.8468C47.9514 91.4931 56.5302 90.6482 64.3265 87.4189C72.1229 84.1895 78.7865 78.7208 83.4748 71.7043C88.163 64.6878 90.6654 56.4387 90.6654 48C90.6654 36.6841 86.1702 25.8317 78.1686 17.8301C70.1671 9.82855 59.3146 5.33333 47.9987 5.33333ZM47.9987 85.3333C40.6149 85.3333 33.3969 83.1438 27.2574 79.0415C21.118 74.9393 16.3329 69.1086 13.5072 62.2868C10.6815 55.4651 9.94222 47.9586 11.3827 40.7166C12.8232 33.4747 16.3789 26.8225 21.6001 21.6013C26.8212 16.3802 33.4734 12.8245 40.7153 11.384C47.9573 9.9435 55.4638 10.6828 62.2856 13.5085C69.1073 16.3342 74.938 21.1193 79.0402 27.2587C83.1425 33.3981 85.332 40.6162 85.332 48C85.332 57.9014 81.3987 67.3973 74.3974 74.3987C67.396 81.4 57.9001 85.3333 47.9987 85.3333Z" fill="#2CCEB7"/>
<path d="M74.6678 32.2667C74.1682 31.77 73.4923 31.4912 72.7878 31.4912C72.0833 31.4912 71.4074 31.77 70.9078 32.2667L41.3078 61.7333L25.3078 45.7333C24.8198 45.2064 24.1425 44.895 23.4248 44.8675C22.7072 44.84 22.008 45.0987 21.4811 45.5867C20.9542 46.0747 20.6428 46.752 20.6153 47.4696C20.5878 48.1873 20.8465 48.8864 21.3345 49.4133L41.3078 69.3333L74.6678 36.0533C74.9177 35.8054 75.1161 35.5105 75.2515 35.1855C75.3869 34.8606 75.4566 34.512 75.4566 34.16C75.4566 33.808 75.3869 33.4594 75.2515 33.1345C75.1161 32.8095 74.9177 32.5146 74.6678 32.2667Z" fill="#2CCEB7"/>
</svg>
