<svg width="72" height="72" viewBox="0 0 72 72" fill="none" xmlns="http://www.w3.org/2000/svg">
<rect width="72" height="72" rx="36" fill="url(#paint0_linear)"/>
<path d="M46.3936 34.5164C47.1542 33.9644 47.7859 33.2538 48.2448 32.4337C48.7037 31.6136 48.979 30.7035 49.0516 29.7666C49.1242 28.8296 48.9924 27.888 48.6653 27.007C48.3382 26.126 47.8236 25.3266 47.1571 24.664C46.5764 24.0853 45.8856 23.6289 45.1255 23.3217C44.3654 23.0145 43.5514 22.8628 42.7317 22.8755C39.328 22.924 36.5642 25.7978 36.5708 29.2818C36.5702 30.3044 36.8129 31.3124 37.2787 32.2228C37.7445 33.1331 38.4202 33.9196 39.2499 34.5174C39.2923 34.5494 39.3266 34.5911 39.3498 34.639C39.373 34.6869 39.3845 34.7396 39.3833 34.7928V35.6272C39.0728 35.8062 38.8202 36.0705 38.6554 36.3888C38.4906 36.707 38.4204 37.0658 38.4533 37.4227C38.4862 37.7795 38.6207 38.1195 38.841 38.4022C39.0612 38.6849 39.3579 38.8986 39.6958 39.0179V39.75C39.6964 40.2471 39.8941 40.7237 40.2456 41.0752C40.5971 41.4267 41.0737 41.6244 41.5708 41.625H44.0708C44.5679 41.6244 45.0445 41.4267 45.396 41.0751C45.7475 40.7236 45.9452 40.2471 45.9458 39.75V39.0175C46.2838 38.8982 46.5804 38.6845 46.8007 38.4018C47.0209 38.1191 47.1554 37.7791 47.1883 37.4223C47.2212 37.0654 47.1511 36.7066 46.9862 36.3884C46.8214 36.0701 46.5688 35.8058 46.2583 35.6268V34.7928C46.2573 34.7393 46.269 34.6863 46.2926 34.6382C46.3161 34.5901 46.3507 34.5484 46.3936 34.5164ZM37.8211 29.2795C37.8158 26.4764 40.0268 24.1643 42.7499 24.1255C42.7733 24.1255 42.7974 24.1249 42.8212 24.1249C44.1179 24.1249 45.3616 24.6391 46.2798 25.5546C46.8164 26.0892 47.2307 26.7338 47.4941 27.4439C47.7576 28.1541 47.8638 28.9129 47.8056 29.6681C47.7474 30.4233 47.5261 31.1569 47.157 31.8183C46.7878 32.4797 46.2797 33.0532 45.6675 33.4992C45.4628 33.647 45.2962 33.8415 45.1816 34.0665C45.0671 34.2915 45.0078 34.5406 45.0086 34.7931V35.375H40.6336V34.7928C40.6346 34.5406 40.5755 34.2917 40.4611 34.0669C40.3468 33.842 40.1804 33.6477 39.976 33.5C39.3079 33.0177 38.764 32.3835 38.3894 31.6497C38.0147 30.9159 37.8199 30.1034 37.8211 29.2795ZM44.0711 40.375H41.5711C41.4054 40.3748 41.2466 40.3089 41.1294 40.1917C41.0122 40.0745 40.9463 39.9157 40.9461 39.75V39.125H44.6961V39.75C44.6959 39.9157 44.63 40.0745 44.5129 40.1917C44.3957 40.3089 44.2368 40.3748 44.0711 40.375ZM45.3211 37.875H40.3211C40.1554 37.875 39.9964 37.8091 39.8792 37.6919C39.762 37.5747 39.6961 37.4157 39.6961 37.25C39.6961 37.0842 39.762 36.9252 39.8792 36.808C39.9964 36.6908 40.1554 36.625 40.3211 36.625H45.3211C45.4869 36.625 45.6459 36.6908 45.7631 36.808C45.8803 36.9252 45.9461 37.0842 45.9461 37.25C45.9461 37.4157 45.8803 37.5747 45.7631 37.6919C45.6459 37.8091 45.4869 37.875 45.3211 37.875Z" fill="white"/>
<path d="M43.8327 26.8237C44.2257 26.9886 44.5763 27.2403 44.8582 27.5599C45.1402 27.8795 45.3462 28.2588 45.4607 28.6693C45.5076 28.8266 45.6144 28.9592 45.7582 29.0385C45.9019 29.1177 46.0711 29.1372 46.2291 29.0927C46.3871 29.0482 46.5213 28.9434 46.6026 28.8008C46.684 28.6582 46.706 28.4894 46.6639 28.3307C46.4972 27.7376 46.1985 27.1898 45.7901 26.7284C45.3817 26.2671 44.8743 25.9041 44.3057 25.6666C44.1523 25.6039 43.9802 25.6046 43.8274 25.6687C43.6745 25.7329 43.5534 25.8551 43.4906 26.0085C43.4279 26.1619 43.4286 26.334 43.4927 26.4868C43.5568 26.6397 43.679 26.7608 43.8325 26.8236L43.8327 26.8237Z" fill="white"/>
<path d="M43.4446 21V19.75C43.4446 19.5842 43.3787 19.4253 43.2615 19.3081C43.1443 19.1908 42.9853 19.125 42.8196 19.125C42.6538 19.125 42.4949 19.1908 42.3776 19.3081C42.2604 19.4253 42.1946 19.5842 42.1946 19.75V21C42.1946 21.1658 42.2604 21.3247 42.3776 21.4419C42.4949 21.5592 42.6538 21.625 42.8196 21.625C42.9853 21.625 43.1443 21.5592 43.2615 21.4419C43.3787 21.3247 43.4446 21.1658 43.4446 21Z" fill="white"/>
<path d="M39.2616 22.3816C39.3657 22.3814 39.4681 22.3553 39.5595 22.3055C39.6509 22.2557 39.7285 22.1839 39.7851 22.0965C39.8417 22.0092 39.8757 21.9091 39.8838 21.8053C39.892 21.7015 39.8742 21.5974 39.8319 21.5022L39.3234 20.3603C39.256 20.2089 39.1312 20.0904 38.9764 20.031C38.8217 19.9716 38.6497 19.9761 38.4982 20.0435C38.3468 20.111 38.2284 20.2358 38.169 20.3905C38.1095 20.5453 38.1141 20.7173 38.1815 20.8687L38.6899 22.0107C38.7391 22.1212 38.8193 22.2151 38.9207 22.2809C39.0222 22.3468 39.1406 22.3817 39.2616 22.3816Z" fill="white"/>
<path d="M36.3183 24.52C36.4447 24.5201 36.5682 24.4818 36.6724 24.4102C36.7766 24.3386 36.8566 24.2371 36.9019 24.1191C36.9473 24.001 36.9557 23.872 36.9262 23.7491C36.8967 23.6262 36.8306 23.5151 36.7366 23.4305L35.8077 22.5941C35.6845 22.4832 35.5223 22.4258 35.3567 22.4345C35.1911 22.4432 35.0358 22.5173 34.9249 22.6405C34.814 22.7637 34.7566 22.926 34.7653 23.0915C34.774 23.2571 34.8481 23.4124 34.9713 23.5233L35.9002 24.3592C36.0148 24.4628 36.1638 24.5201 36.3183 24.52Z" fill="white"/>
<path d="M35.0921 27.2391C35.1433 27.0815 35.1298 26.91 35.0545 26.7623C34.9792 26.6146 34.8484 26.5028 34.6907 26.4516L33.5019 26.0655C33.4237 26.0395 33.3411 26.0293 33.259 26.0354C33.1768 26.0415 33.0966 26.0638 33.0231 26.101C32.9496 26.1382 32.8841 26.1895 32.8305 26.2521C32.7769 26.3147 32.7362 26.3872 32.7108 26.4656C32.6853 26.544 32.6756 26.6266 32.6822 26.7087C32.6888 26.7909 32.7116 26.8709 32.7492 26.9442C32.7868 27.0175 32.8386 27.0826 32.9015 27.1358C32.9644 27.1891 33.0372 27.2293 33.1157 27.2543L34.3046 27.6406C34.3826 27.6661 34.4649 27.6759 34.5468 27.6695C34.6286 27.6631 34.7084 27.6406 34.7816 27.6033C34.8547 27.5661 34.9198 27.5147 34.9731 27.4522C35.0264 27.3898 35.0668 27.3174 35.0921 27.2393V27.2391Z" fill="white"/>
<path d="M34.0535 30.0431L32.8104 30.1738C32.7283 30.1818 32.6487 30.206 32.576 30.245C32.5034 30.2839 32.4391 30.3369 32.387 30.4008C32.3349 30.4647 32.296 30.5382 32.2724 30.6172C32.2488 30.6962 32.2411 30.7791 32.2498 30.8611C32.2584 30.9431 32.2831 31.0226 32.3226 31.095C32.3621 31.1674 32.4155 31.2312 32.4797 31.2829C32.544 31.3345 32.6178 31.373 32.697 31.396C32.7762 31.419 32.8591 31.4261 32.941 31.4169L34.1842 31.2862C34.3483 31.2679 34.4985 31.1855 34.602 31.0569C34.7056 30.9282 34.754 30.7639 34.7367 30.5997C34.7194 30.4355 34.6379 30.2848 34.5099 30.1805C34.3819 30.0762 34.2178 30.0268 34.0535 30.0431Z" fill="white"/>
<path d="M51.4577 31.2863L52.7008 31.417C52.8652 31.4335 53.0295 31.3842 53.1576 31.2799C53.2858 31.1756 53.3675 31.0248 53.3848 30.8605C53.402 30.6961 53.3536 30.5317 53.2499 30.403C53.1462 30.2743 52.9958 30.1919 52.8316 30.1738L51.5884 30.0431C51.5065 30.034 51.4236 30.0412 51.3445 30.0642C51.2654 30.0873 51.1916 30.1257 51.1274 30.1774C51.0633 30.229 51.0099 30.2929 50.9705 30.3652C50.9311 30.4376 50.9063 30.517 50.8977 30.599C50.8891 30.6809 50.8968 30.7637 50.9203 30.8427C50.9438 30.9217 50.9827 30.9952 51.0347 31.0591C51.0868 31.123 51.1509 31.1759 51.2235 31.2149C51.2961 31.2539 51.3757 31.2781 51.4577 31.2863Z" fill="white"/>
<path d="M51.1415 27.6713C51.2071 27.6713 51.2724 27.6609 51.3348 27.6405L52.5236 27.2543C52.6017 27.229 52.674 27.1885 52.7364 27.1352C52.7988 27.0819 52.8501 27.0168 52.8873 26.9437C52.9246 26.8705 52.9471 26.7908 52.9535 26.709C52.96 26.6271 52.9502 26.5448 52.9249 26.4668C52.8995 26.3887 52.859 26.3164 52.8057 26.254C52.7524 26.1916 52.6874 26.1403 52.6142 26.103C52.5411 26.0658 52.4613 26.0433 52.3795 26.0368C52.2977 26.0304 52.2154 26.0401 52.1373 26.0655L50.9486 26.4517C50.8069 26.4975 50.6863 26.5925 50.6084 26.7194C50.5305 26.8463 50.5005 26.9968 50.5238 27.1439C50.547 27.291 50.6221 27.4249 50.7353 27.5216C50.8485 27.6183 50.9926 27.6714 51.1415 27.6713Z" fill="white"/>
<path d="M49.7411 24.3593L50.67 23.5234C50.7932 23.4124 50.8672 23.2571 50.8759 23.0916C50.8846 22.926 50.8271 22.7638 50.7162 22.6406C50.6053 22.5174 50.45 22.4434 50.2844 22.4347C50.1189 22.426 49.9567 22.4835 49.8335 22.5944L48.9047 23.4306C48.7837 23.5421 48.7117 23.6968 48.704 23.8611C48.6964 24.0254 48.7539 24.1861 48.864 24.3083C48.974 24.4305 49.1279 24.5044 49.2921 24.5139C49.4563 24.5235 49.6176 24.4679 49.7411 24.3593Z" fill="white"/>
<path d="M46.3784 22.3816C46.4993 22.3817 46.6177 22.3467 46.7191 22.2808C46.8205 22.215 46.9006 22.1212 46.9498 22.0107L47.4582 20.8687C47.5256 20.7173 47.5301 20.5453 47.4707 20.3905C47.4113 20.2358 47.2929 20.111 47.1414 20.0435C46.99 19.9761 46.818 19.9716 46.6632 20.031C46.5085 20.0904 46.3837 20.2089 46.3162 20.3603L45.8078 21.5022C45.7655 21.5974 45.7477 21.7015 45.7558 21.8053C45.764 21.9091 45.798 22.0092 45.8546 22.0965C45.9112 22.1839 45.9888 22.2557 46.0802 22.3055C46.1716 22.3552 46.274 22.3814 46.3781 22.3816H46.3784Z" fill="white"/>
<path d="M52.875 49.125H44.75V48.5C44.75 47.5616 43.5287 46.8781 43.1545 46.691C43.1224 46.675 43.089 46.6617 43.0546 46.6513L36.9374 44.8161C36.5503 44.4741 35.1666 43.2734 33.4749 42.0553C30.774 40.1109 28.6797 39.125 27.25 39.125H22.25V38.5C22.25 38.3342 22.1842 38.1753 22.0669 38.0581C21.9497 37.9408 21.7908 37.875 21.625 37.875H17.875C17.7092 37.875 17.5503 37.9408 17.4331 38.0581C17.3158 38.1753 17.25 38.3342 17.25 38.5V52.25C17.25 52.4158 17.3158 52.5747 17.4331 52.6919C17.5503 52.8092 17.7092 52.875 17.875 52.875H21.625C21.7908 52.875 21.9497 52.8092 22.0669 52.6919C22.1842 52.5747 22.25 52.4158 22.25 52.25V51.625H24.0959C24.4858 51.6769 27.6753 52.3066 30.4947 52.8632C36.134 53.9766 36.9306 54.125 37.1065 54.125H52.875C53.3721 54.1244 53.8487 53.9267 54.2002 53.5752C54.5517 53.2237 54.7494 52.7471 54.75 52.25V51C54.7494 50.5029 54.5517 50.0263 54.2002 49.6748C53.8487 49.3233 53.3721 49.1256 52.875 49.125ZM21 51.625H18.5V39.125H21V51.625ZM53.5 52.25C53.4998 52.4157 53.4339 52.5746 53.3167 52.6917C53.1996 52.8089 53.0407 52.8748 52.875 52.875H37.1356C36.7457 52.8231 33.5562 52.1934 30.7372 51.6368C25.0975 50.5234 24.3009 50.375 24.125 50.375H22.25V40.375H27.25C29.6149 40.375 34.5174 44.3196 36.207 45.8396C36.2756 45.9013 36.357 45.9471 36.4454 45.9737L42.6407 47.8323C43.0298 48.0359 43.4402 48.363 43.4996 48.5191V49.75C43.4994 49.9068 43.4404 50.0578 43.3341 50.1732C43.2279 50.2886 43.0823 50.3599 42.926 50.373L36.847 49.157L32.5601 46.7073C32.4888 46.6665 32.4102 46.6401 32.3287 46.6296C32.2472 46.6192 32.1645 46.6249 32.0852 46.6465C32.0059 46.668 31.9317 46.705 31.8667 46.7553C31.8018 46.8056 31.7473 46.8682 31.7066 46.9395C31.6658 47.0108 31.6395 47.0895 31.6292 47.171C31.6189 47.2525 31.6247 47.3352 31.6464 47.4144C31.6681 47.4937 31.7051 47.5679 31.7555 47.6328C31.8059 47.6977 31.8685 47.752 31.9399 47.7927L36.3149 50.2927C36.3732 50.326 36.4365 50.3498 36.5024 50.363L42.7524 51.613C42.7928 51.621 42.8338 51.625 42.875 51.625C43.2626 51.6245 43.6407 51.5042 43.9572 51.2804C44.2737 51.0566 44.5132 50.7403 44.6429 50.375H52.875C53.0407 50.3752 53.1996 50.4411 53.3167 50.5583C53.4339 50.6754 53.4998 50.8343 53.5 51V52.25Z" fill="white"/>
<defs>
<linearGradient id="paint0_linear" x1="0" y1="0" x2="71.9996" y2="0.169583" gradientUnits="userSpaceOnUse">
<stop stop-color="#36D1DC"/>
<stop offset="1" stop-color="#5B86E5"/>
</linearGradient>
</defs>
</svg>
