<svg width="48" height="48" viewBox="0 0 48 48" fill="none" xmlns="http://www.w3.org/2000/svg">
<rect width="48" height="48" rx="24" fill="url(#paint0_linear)"/>
<path d="M29.9962 23.5728C30.4716 23.2278 30.8663 22.7836 31.1532 22.2711C31.44 21.7585 31.6121 21.1897 31.6575 20.6041C31.7028 20.0185 31.6204 19.43 31.416 18.8794C31.2115 18.3288 30.8899 17.8291 30.4733 17.415C30.1104 17.0533 29.6787 16.7681 29.2036 16.5761C28.7285 16.3841 28.2198 16.2893 27.7075 16.2972C25.5802 16.3275 23.8528 18.1236 23.8569 20.3011C23.8566 20.9403 24.0082 21.5703 24.2994 22.1393C24.5905 22.7082 25.0128 23.1998 25.5314 23.5734C25.5579 23.5934 25.5793 23.6195 25.5938 23.6494C25.6083 23.6794 25.6155 23.7123 25.6148 23.7456V24.267C25.4207 24.3789 25.2628 24.5441 25.1598 24.743C25.0568 24.9419 25.013 25.1661 25.0335 25.3892C25.0541 25.6122 25.1382 25.8247 25.2758 26.0014C25.4134 26.1781 25.5988 26.3117 25.8101 26.3862V26.8438C25.8104 27.1545 25.934 27.4523 26.1537 27.672C26.3734 27.8917 26.6712 28.0153 26.9819 28.0156H28.5444C28.8551 28.0153 29.153 27.8917 29.3727 27.672C29.5924 27.4523 29.716 27.1544 29.7163 26.8438V26.3859C29.9275 26.3114 30.113 26.1779 30.2506 26.0012C30.3882 25.8245 30.4723 25.612 30.4929 25.3889C30.5134 25.1659 30.4696 24.9416 30.3666 24.7428C30.2636 24.5439 30.1057 24.3787 29.9116 24.2668V23.7455C29.911 23.7121 29.9183 23.679 29.933 23.6489C29.9477 23.6189 29.9694 23.5928 29.9962 23.5728ZM24.6384 20.2997C24.6351 18.5478 26.017 17.1027 27.7189 17.0785C27.7335 17.0785 27.7485 17.0781 27.7634 17.0781C28.5738 17.0781 29.3512 17.3994 29.9251 17.9717C30.2604 18.3058 30.5194 18.7086 30.684 19.1525C30.8487 19.5963 30.9151 20.0706 30.8787 20.5426C30.8423 21.0146 30.704 21.4731 30.4733 21.8865C30.2426 22.2998 29.925 22.6583 29.5423 22.937C29.4144 23.0294 29.3103 23.151 29.2387 23.2916C29.1671 23.4322 29.13 23.5879 29.1306 23.7457V24.1094H26.3962V23.7456C26.3968 23.5879 26.3599 23.4324 26.2884 23.2918C26.2169 23.1513 26.113 23.0298 25.9852 22.9375C25.5676 22.6361 25.2277 22.2397 24.9935 21.7811C24.7594 21.3224 24.6376 20.8147 24.6384 20.2997ZM28.5446 27.2344H26.9821C26.8786 27.2343 26.7793 27.1931 26.7061 27.1198C26.6328 27.0466 26.5916 26.9473 26.5915 26.8438V26.4531H28.9353V26.8438C28.9351 26.9473 28.894 27.0466 28.8207 27.1198C28.7475 27.1931 28.6482 27.2343 28.5446 27.2344ZM29.3259 25.6719H26.2009C26.0973 25.6719 25.9979 25.6307 25.9247 25.5575C25.8514 25.4842 25.8103 25.3849 25.8103 25.2813C25.8103 25.1777 25.8514 25.0783 25.9247 25.005C25.9979 24.9318 26.0973 24.8906 26.2009 24.8906H29.3259C29.4295 24.8906 29.5288 24.9318 29.6021 25.005C29.6754 25.0783 29.7165 25.1777 29.7165 25.2813C29.7165 25.3849 29.6754 25.4842 29.6021 25.5575C29.5288 25.6307 29.4295 25.6719 29.3259 25.6719Z" fill="white"/>
<path d="M28.3957 18.7648C28.6413 18.8679 28.8605 19.0252 29.0367 19.2249C29.2129 19.4247 29.3416 19.6617 29.4132 19.9183C29.4425 20.0166 29.5093 20.0995 29.5991 20.149C29.689 20.1986 29.7947 20.2107 29.8935 20.1829C29.9922 20.1551 30.0761 20.0896 30.1269 20.0005C30.1778 19.9114 30.1915 19.8059 30.1652 19.7067C30.061 19.336 29.8743 18.9936 29.6191 18.7053C29.3639 18.4169 29.0467 18.1901 28.6914 18.0417C28.5955 18.0024 28.4879 18.0029 28.3924 18.043C28.2969 18.083 28.2211 18.1594 28.1819 18.2553C28.1427 18.3512 28.1432 18.4587 28.1832 18.5543C28.2233 18.6498 28.2997 18.7255 28.3956 18.7647L28.3957 18.7648Z" fill="white"/>
<path d="M28.1526 15.125V14.3438C28.1526 14.2401 28.1114 14.1408 28.0382 14.0675C27.9649 13.9943 27.8656 13.9531 27.762 13.9531C27.6584 13.9531 27.559 13.9943 27.4858 14.0675C27.4125 14.1408 27.3713 14.2401 27.3713 14.3438V15.125C27.3713 15.2286 27.4125 15.328 27.4858 15.4012C27.559 15.4745 27.6584 15.5156 27.762 15.5156C27.8656 15.5156 27.9649 15.4745 28.0382 15.4012C28.1114 15.328 28.1526 15.2286 28.1526 15.125Z" fill="white"/>
<path d="M25.5387 15.9885C25.6037 15.9884 25.6677 15.972 25.7249 15.9409C25.782 15.9098 25.8305 15.8649 25.8659 15.8103C25.9013 15.7557 25.9225 15.6932 25.9276 15.6283C25.9327 15.5634 25.9215 15.4983 25.8951 15.4389L25.5773 14.7252C25.5352 14.6305 25.4572 14.5565 25.3605 14.5194C25.2637 14.4822 25.1562 14.485 25.0616 14.5272C24.9669 14.5693 24.8929 14.6473 24.8558 14.7441C24.8187 14.8408 24.8215 14.9483 24.8636 15.0429L25.1814 15.7566C25.2121 15.8257 25.2622 15.8844 25.3256 15.9255C25.3891 15.9667 25.4631 15.9886 25.5387 15.9885Z" fill="white"/>
<path d="M23.6992 17.325C23.7782 17.325 23.8554 17.3011 23.9205 17.2564C23.9856 17.2116 24.0357 17.1482 24.064 17.0744C24.0923 17.0006 24.0976 16.92 24.0792 16.8432C24.0607 16.7664 24.0194 16.6969 23.9607 16.6441L23.3801 16.1213C23.3031 16.052 23.2017 16.0161 23.0982 16.0215C22.9947 16.027 22.8977 16.0733 22.8283 16.1503C22.759 16.2273 22.7231 16.3287 22.7286 16.4322C22.734 16.5357 22.7803 16.6327 22.8573 16.7021L23.4379 17.2245C23.5095 17.2893 23.6026 17.3251 23.6992 17.325Z" fill="white"/>
<path d="M22.9327 19.0244C22.9647 18.9259 22.9563 18.8187 22.9092 18.7264C22.8622 18.6341 22.7804 18.5642 22.6819 18.5322L21.9389 18.2909C21.89 18.2746 21.8384 18.2683 21.787 18.2721C21.7357 18.2759 21.6856 18.2898 21.6396 18.313C21.5937 18.3363 21.5528 18.3684 21.5193 18.4075C21.4858 18.4466 21.4603 18.492 21.4444 18.5409C21.4285 18.5899 21.4224 18.6416 21.4265 18.6929C21.4307 18.7442 21.4449 18.7942 21.4684 18.8401C21.492 18.8859 21.5243 18.9266 21.5636 18.9598C21.6029 18.9931 21.6484 19.0183 21.6975 19.0339L22.4405 19.2753C22.4893 19.2912 22.5408 19.2974 22.5919 19.2934C22.6431 19.2894 22.6929 19.2753 22.7387 19.252C22.7844 19.2287 22.8251 19.1966 22.8584 19.1576C22.8917 19.1186 22.9169 19.0733 22.9327 19.0245V19.0244Z" fill="white"/>
<path d="M22.2835 20.7769L21.5066 20.8586C21.4553 20.8636 21.4055 20.8788 21.3601 20.9031C21.3147 20.9275 21.2745 20.9605 21.242 21.0005C21.2094 21.0404 21.1851 21.0864 21.1703 21.1358C21.1556 21.1851 21.1508 21.237 21.1562 21.2882C21.1616 21.3394 21.177 21.3891 21.2017 21.4344C21.2264 21.4796 21.2598 21.5195 21.2999 21.5518C21.3401 21.5841 21.3862 21.6081 21.4357 21.6225C21.4852 21.6369 21.537 21.6413 21.5882 21.6356L22.3652 21.5539C22.4678 21.5425 22.5617 21.4909 22.6264 21.4105C22.6911 21.3302 22.7213 21.2274 22.7105 21.1248C22.6997 21.0222 22.6488 20.928 22.5688 20.8628C22.4888 20.7976 22.3862 20.7668 22.2835 20.7769Z" fill="white"/>
<path d="M33.161 21.5539L33.9379 21.6356C34.0407 21.6459 34.1433 21.6151 34.2234 21.5499C34.3035 21.4847 34.3546 21.3905 34.3654 21.2878C34.3762 21.1851 34.3459 21.0823 34.2811 21.0018C34.2163 20.9214 34.1223 20.8699 34.0196 20.8586L33.2427 20.7769C33.1915 20.7712 33.1397 20.7757 33.0902 20.7901C33.0408 20.8045 32.9947 20.8286 32.9546 20.8608C32.9144 20.8931 32.8811 20.933 32.8565 20.9782C32.8318 21.0235 32.8164 21.0731 32.811 21.1243C32.8056 21.1755 32.8104 21.2273 32.8251 21.2767C32.8398 21.326 32.8641 21.372 32.8966 21.4119C32.9292 21.4518 32.9692 21.4849 33.0146 21.5093C33.06 21.5336 33.1097 21.5488 33.161 21.5539Z" fill="white"/>
<path d="M32.9636 19.2945C33.0046 19.2944 33.0454 19.2879 33.0844 19.2752L33.8274 19.0339C33.8762 19.018 33.9214 18.9927 33.9604 18.9594C33.9994 18.9261 34.0315 18.8854 34.0548 18.8397C34.0781 18.794 34.0921 18.7441 34.0962 18.693C34.1002 18.6419 34.0941 18.5904 34.0782 18.5417C34.0624 18.4929 34.0371 18.4477 34.0038 18.4087C33.9705 18.3697 33.9298 18.3376 33.8841 18.3143C33.8384 18.291 33.7885 18.277 33.7374 18.2729C33.6862 18.2689 33.6348 18.275 33.586 18.2908L32.8431 18.5322C32.7545 18.5609 32.6791 18.6202 32.6304 18.6995C32.5818 18.7788 32.563 18.8729 32.5776 18.9649C32.5921 19.0568 32.639 19.1405 32.7097 19.2009C32.7805 19.2613 32.8705 19.2945 32.9636 19.2945Z" fill="white"/>
<path d="M32.0883 17.2247L32.6688 16.7022C32.7458 16.6329 32.7921 16.5358 32.7975 16.4323C32.803 16.3289 32.7671 16.2275 32.6977 16.1505C32.6284 16.0735 32.5313 16.0272 32.4279 16.0218C32.3244 16.0164 32.223 16.0523 32.146 16.1216L31.5655 16.6442C31.4899 16.7139 31.4449 16.8106 31.4401 16.9133C31.4354 17.0159 31.4713 17.1164 31.5401 17.1928C31.6089 17.2692 31.705 17.3153 31.8076 17.3213C31.9103 17.3273 32.0111 17.2926 32.0883 17.2247Z" fill="white"/>
<path d="M29.9865 15.9885C30.0621 15.9885 30.136 15.9666 30.1994 15.9255C30.2628 15.8843 30.3129 15.8257 30.3436 15.7566L30.6614 15.0429C30.7035 14.9483 30.7063 14.8408 30.6692 14.7441C30.6321 14.6473 30.558 14.5693 30.4634 14.5272C30.3688 14.485 30.2612 14.4822 30.1645 14.5194C30.0678 14.5565 29.9898 14.6305 29.9477 14.7252L29.6299 15.4389C29.6035 15.4983 29.5923 15.5634 29.5974 15.6283C29.6025 15.6932 29.6237 15.7557 29.6591 15.8103C29.6945 15.8649 29.743 15.9098 29.8001 15.9409C29.8573 15.972 29.9213 15.9884 29.9863 15.9885H29.9865Z" fill="white"/>
<path d="M34.0469 32.7031H28.9688V32.3125C28.9688 31.726 28.2055 31.2988 27.9716 31.1819C27.9515 31.1718 27.9306 31.1636 27.9091 31.1571L24.0859 30.0101C23.8439 29.7963 22.9792 29.0458 21.9218 28.2846C20.2337 27.0693 18.9248 26.4531 18.0312 26.4531H14.9062V26.0625C14.9062 25.9589 14.8651 25.8595 14.7918 25.7863C14.7186 25.713 14.6192 25.6719 14.5156 25.6719H12.1719C12.0683 25.6719 11.9689 25.713 11.8957 25.7863C11.8224 25.8595 11.7812 25.9589 11.7812 26.0625V34.6562C11.7812 34.7599 11.8224 34.8592 11.8957 34.9325C11.9689 35.0057 12.0683 35.0469 12.1719 35.0469H14.5156C14.6192 35.0469 14.7186 35.0057 14.7918 34.9325C14.8651 34.8592 14.9062 34.7599 14.9062 34.6562V34.2656H16.0599C16.3036 34.298 18.2971 34.6916 20.0592 35.0395C23.5837 35.7354 24.0816 35.8281 24.1916 35.8281H34.0469C34.3576 35.8278 34.6554 35.7042 34.8751 35.4845C35.0948 35.2648 35.2184 34.9669 35.2188 34.6562V33.875C35.2184 33.5643 35.0948 33.2664 34.8751 33.0468C34.6554 32.8271 34.3576 32.7035 34.0469 32.7031ZM14.125 34.2656H12.5625V26.4531H14.125V34.2656ZM34.4375 34.6562C34.4374 34.7598 34.3962 34.8591 34.323 34.9323C34.2497 35.0056 34.1504 35.0468 34.0469 35.0469H24.2098C23.9661 35.0145 21.9726 34.6209 20.2107 34.273C16.6859 33.5771 16.188 33.4844 16.0781 33.4844H14.9062V27.2344H18.0312C19.5093 27.2344 22.5734 29.6998 23.6293 30.6498C23.6722 30.6883 23.7231 30.7169 23.7784 30.7335L27.6504 31.8952C27.8937 32.0225 28.1501 32.2269 28.1873 32.3244V33.0938C28.1871 33.1918 28.1502 33.2862 28.0838 33.3583C28.0175 33.4304 27.9264 33.4749 27.8288 33.4831L24.0294 32.7231L21.35 31.1921C21.3055 31.1666 21.2564 31.1501 21.2054 31.1435C21.1545 31.137 21.1028 31.1406 21.0533 31.1541C21.0037 31.1675 20.9573 31.1906 20.9167 31.2221C20.8761 31.2535 20.8421 31.2926 20.8166 31.3372C20.7911 31.3818 20.7747 31.4309 20.7683 31.4819C20.7618 31.5328 20.7654 31.5845 20.779 31.634C20.7925 31.6836 20.8157 31.7299 20.8472 31.7705C20.8787 31.811 20.9178 31.845 20.9625 31.8704L23.6968 33.4329C23.7333 33.4538 23.7728 33.4686 23.814 33.4769L27.7203 34.2581C27.7455 34.2631 27.7712 34.2656 27.7969 34.2656C28.0392 34.2653 28.2754 34.1901 28.4732 34.0502C28.6711 33.9104 28.8208 33.7127 28.9018 33.4844H34.0469C34.1504 33.4845 34.2497 33.5257 34.323 33.5989C34.3962 33.6721 34.4374 33.7714 34.4375 33.875V34.6562Z" fill="white"/>
<defs>
<linearGradient id="paint0_linear" x1="0" y1="0" x2="47.9997" y2="0.113056" gradientUnits="userSpaceOnUse">
<stop stop-color="#36D1DC"/>
<stop offset="1" stop-color="#5B86E5"/>
</linearGradient>
</defs>
</svg>
