<svg width="32" height="32" viewBox="0 0 32 32" fill="none" xmlns="http://www.w3.org/2000/svg">
<path d="M6.66602 8L25.3327 8C26.0691 8 26.666 7.40305 26.666 6.66667C26.666 5.93029 26.0691 5.33333 25.3327 5.33333L6.66602 5.33333C5.92964 5.33333 5.33268 5.93029 5.33268 6.66667C5.33268 7.40305 5.92964 8 6.66602 8Z" fill="url(#paint0_linear)"/>
<path d="M26.666 9.33331V6.66665C26.666 5.93027 26.0691 5.33331 25.3327 5.33331C24.5963 5.33331 23.9993 5.93027 23.9993 6.66665V9.33331C23.9993 10.0697 24.5963 10.6666 25.3327 10.6666C26.0691 10.6666 26.666 10.0697 26.666 9.33331Z" fill="url(#paint1_linear)"/>
<path d="M8 9.33331V6.66665C8 5.93027 7.40305 5.33331 6.66667 5.33331C5.93029 5.33331 5.33333 5.93027 5.33333 6.66665V9.33331C5.33333 10.0697 5.93029 10.6666 6.66667 10.6666C7.40305 10.6666 8 10.0697 8 9.33331Z" fill="url(#paint2_linear)"/>
<path d="M10.6673 18.6667C10.4603 18.6667 10.2562 18.6185 10.071 18.5259C9.88589 18.4333 9.72485 18.2989 9.60065 18.1334C9.49559 17.9933 9.41916 17.8339 9.3757 17.6643C9.33224 17.4946 9.32262 17.3181 9.34739 17.1448C9.37215 16.9715 9.43081 16.8047 9.52002 16.654C9.60923 16.5034 9.72724 16.3717 9.86732 16.2667L15.2007 12.2667C15.429 12.0998 15.7045 12.0099 15.9873 12.0099C16.2701 12.0099 16.5456 12.0998 16.774 12.2667L22.1073 16.0267C22.3948 16.2306 22.5898 16.54 22.6498 16.8873C22.7097 17.2346 22.6297 17.5915 22.4273 17.88C22.3263 18.0242 22.1977 18.147 22.0489 18.2412C21.9002 18.3354 21.7342 18.3993 21.5607 18.429C21.3871 18.4588 21.2094 18.4539 21.0378 18.4146C20.8661 18.3752 20.704 18.3023 20.5607 18.2L16.0007 14.9867L11.4673 18.4C11.2365 18.5731 10.9558 18.6667 10.6673 18.6667Z" fill="url(#paint3_linear)"/>
<path d="M15.9993 28C15.6457 28 15.3066 27.8595 15.0565 27.6095C14.8065 27.3594 14.666 27.0203 14.666 26.6667V16C14.666 15.6464 14.8065 15.3073 15.0565 15.0572C15.3066 14.8072 15.6457 14.6667 15.9993 14.6667C16.353 14.6667 16.6921 14.8072 16.9422 15.0572C17.1922 15.3073 17.3327 15.6464 17.3327 16V26.6667C17.3327 27.0203 17.1922 27.3594 16.9422 27.6095C16.6921 27.8595 16.353 28 15.9993 28Z" fill="url(#paint4_linear)"/>
<defs>
<linearGradient id="paint0_linear" x1="26.666" y1="8" x2="5.34057" y2="7.5899" gradientUnits="userSpaceOnUse">
<stop stop-color="#36D1DC"/>
<stop offset="1" stop-color="#5B86E5"/>
</linearGradient>
<linearGradient id="paint1_linear" x1="26.666" y1="5.33331" x2="26.6404" y2="10.6665" gradientUnits="userSpaceOnUse">
<stop stop-color="#36D1DC"/>
<stop offset="1" stop-color="#5B86E5"/>
</linearGradient>
<linearGradient id="paint2_linear" x1="8" y1="5.33331" x2="7.97436" y2="10.6665" gradientUnits="userSpaceOnUse">
<stop stop-color="#36D1DC"/>
<stop offset="1" stop-color="#5B86E5"/>
</linearGradient>
<linearGradient id="paint3_linear" x1="9.33398" y1="12.0099" x2="22.669" y2="12.0612" gradientUnits="userSpaceOnUse">
<stop stop-color="#36D1DC"/>
<stop offset="1" stop-color="#5B86E5"/>
</linearGradient>
<linearGradient id="paint4_linear" x1="14.666" y1="14.6667" x2="17.3327" y2="14.6667" gradientUnits="userSpaceOnUse">
<stop stop-color="#36D1DC"/>
<stop offset="1" stop-color="#5B86E5"/>
</linearGradient>
</defs>
</svg>
