<svg width="32" height="32" viewBox="0 0 32 32" fill="none" xmlns="http://www.w3.org/2000/svg">
<path d="M20 13.3334L26.0707 10.2987C26.2739 10.1971 26.4997 10.1492 26.7267 10.1594C26.9536 10.1697 27.1742 10.2377 27.3675 10.3571C27.5608 10.4765 27.7203 10.6433 27.831 10.8417C27.9417 11.0401 27.9999 11.2635 28 11.4907V20.5094C27.9999 20.7366 27.9417 20.9599 27.831 21.1583C27.7203 21.3567 27.5608 21.5236 27.3675 21.643C27.1742 21.7624 26.9536 21.8304 26.7267 21.8406C26.4997 21.8509 26.2739 21.8029 26.0707 21.7014L20 18.6667V13.3334Z" stroke="#181818" stroke-width="2" stroke-linecap="round" stroke-linejoin="round"/>
<path d="M17.3333 8H6.66667C5.19391 8 4 9.19391 4 10.6667V21.3333C4 22.8061 5.19391 24 6.66667 24H17.3333C18.8061 24 20 22.8061 20 21.3333V10.6667C20 9.19391 18.8061 8 17.3333 8Z" stroke="#181818" stroke-width="2" stroke-linecap="round" stroke-linejoin="round"/>
</svg>
