<svg width="26" height="24" viewBox="0 0 26 24" fill="none" xmlns="http://www.w3.org/2000/svg">
<path d="M4.27295 4.60125C4.86195 4.65791 5.4478 4.74406 6.03053 4.85661C6.07674 4.8636 6.12609 4.87291 6.17308 4.88378C6.51144 4.9513 6.84979 5.02659 7.18737 5.11663C8.33915 4.1154 9.58226 3.22232 10.9007 2.44889C9.35177 1.83993 7.74134 1.39756 6.0971 1.12938C5.48853 1.03003 4.87291 0.953967 4.2565 0.903515C3.61112 0.850735 2.96495 0.825897 2.31408 0.825897C1.71465 0.825897 1.11887 0.849185 0.52674 0.895756C0.479746 1.48255 0.457031 2.07477 0.457031 2.66855C0.457031 3.31201 0.484444 3.95469 0.535355 4.59193C1.1233 4.53605 1.71543 4.50837 2.31173 4.50888C2.96664 4.50615 3.62126 4.53698 4.27295 4.60125Z" fill="url(#paint0_linear)"/>
<path d="M25.4729 0.888645C24.8808 0.842074 24.2845 0.818787 23.684 0.818787C23.0347 0.818787 22.3862 0.847505 21.7432 0.896405C21.1249 0.94815 20.5114 1.02344 19.9026 1.12228C18.2582 1.39005 16.6478 1.83243 15.099 2.44179C14.3862 2.72276 13.6845 3.041 12.9991 3.39028C12.6858 3.55172 12.3725 3.7186 12.071 3.89402C11.0977 4.4512 10.1668 5.07822 9.28582 5.77006C8.72659 6.21015 8.18537 6.67198 7.66844 7.16253C7.39431 7.42126 7.12461 7.68748 6.85935 7.96122C6.37062 8.47427 5.8999 9.00984 5.45737 9.56636C4.85096 10.3251 4.2935 11.1209 3.7883 11.9492C3.10398 11.9997 2.45369 12.265 1.93174 12.7064C1.40978 13.1479 1.04329 13.7426 0.885437 14.4044C0.727579 15.0662 0.786557 15.7606 1.05381 16.387C1.32106 17.0133 1.7827 17.539 2.37177 17.8878C2.96083 18.2366 3.64671 18.3904 4.32991 18.3268C5.01312 18.2632 5.65813 17.9857 6.17141 17.5343C6.68469 17.083 7.03954 16.4813 7.1845 15.8167C7.32947 15.152 7.257 14.4588 6.97762 13.8377C7.09981 13.6382 7.22435 13.4403 7.3575 13.2455C7.72033 12.6925 8.11358 12.1598 8.53548 11.6496C9.38365 10.6131 10.338 9.6665 11.3833 8.82511C11.9011 8.40902 12.4407 8.02038 12.9999 7.66084C13.5589 8.01994 14.0981 8.40859 14.6149 8.82511C15.6607 9.66596 16.6156 10.612 17.4644 11.6481C17.5176 11.5705 17.5646 11.4866 17.6124 11.4036C18.2476 10.3168 18.76 9.1639 19.1405 7.96587C18.8757 7.69421 18.6118 7.42643 18.3345 7.16718C17.8176 6.67922 17.2785 6.21507 16.7171 5.77471C17.4036 5.51602 18.1041 5.2955 18.8154 5.11418C19.153 5.02647 19.489 4.95118 19.8336 4.88133C19.8806 4.87046 19.9268 4.86115 19.9762 4.85416C20.5566 4.74162 21.1448 4.65546 21.7322 4.5988C21.6735 5.18559 21.5896 5.76307 21.4761 6.33977C21.469 6.38867 21.4596 6.43524 21.4487 6.48104C21.379 6.81945 21.3046 7.15554 21.2137 7.49007C20.7763 9.18483 20.1069 10.8123 19.2243 12.3272C19.041 12.6377 18.8499 12.9482 18.6463 13.2509C18.2827 13.8049 17.8887 14.3387 17.4659 14.8498C16.6181 15.8843 15.6648 16.8293 14.6212 17.6697C14.1024 18.0878 13.5612 18.4778 12.9999 18.8379C12.6965 19.0366 12.3872 19.226 12.0718 19.406C11.1804 19.9178 10.2484 20.3568 9.28504 20.7185C10.1662 21.4115 11.0977 22.0393 12.0718 22.5969C12.3765 22.7708 12.6874 22.9392 12.9999 23.1007C13.3132 22.9392 13.6231 22.7713 13.9296 22.5969C14.9037 22.0393 15.8352 21.4115 16.7164 20.7185C17.2777 20.2808 17.8163 19.8174 18.3322 19.3284C18.6094 19.0676 18.8734 18.8014 19.1381 18.5297C19.6295 18.0169 20.0979 17.4821 20.5433 16.9253C21.2408 16.0538 21.8735 15.1331 22.4363 14.1707C22.6133 13.868 22.782 13.5611 22.9423 13.2501C23.2994 12.5717 23.6182 11.8763 23.9041 11.17C24.5182 9.63458 24.9646 8.03844 25.2356 6.40885C25.3359 5.80576 25.4126 5.19568 25.4643 4.58327C25.5168 3.94602 25.5426 3.30335 25.5426 2.65989C25.5426 2.06767 25.5199 1.47544 25.4729 0.888645ZM4.02953 16.271C3.80445 16.271 3.58442 16.2049 3.39727 16.081C3.21012 15.957 3.06425 15.7809 2.97812 15.5748C2.89198 15.3687 2.86944 15.142 2.91336 14.9232C2.95727 14.7044 3.06566 14.5035 3.22481 14.3458C3.38397 14.188 3.58675 14.0806 3.80751 14.0371C4.02827 13.9936 4.25709 14.0159 4.46504 14.1013C4.67299 14.1866 4.85073 14.3312 4.97578 14.5167C5.10083 14.7021 5.16757 14.9202 5.16757 15.1432C5.16757 15.4423 5.04767 15.7292 4.83425 15.9407C4.62082 16.1522 4.33136 16.271 4.02953 16.271Z" fill="url(#paint1_linear)"/>
<defs>
<linearGradient id="paint0_linear" x1="0.457031" y1="0.825897" x2="10.9004" y2="0.884436" gradientUnits="userSpaceOnUse">
<stop stop-color="#36D1DC"/>
<stop offset="1" stop-color="#5B86E5"/>
</linearGradient>
<linearGradient id="paint1_linear" x1="0.798828" y1="0.818787" x2="25.5425" y2="0.884684" gradientUnits="userSpaceOnUse">
<stop stop-color="#36D1DC"/>
<stop offset="1" stop-color="#5B86E5"/>
</linearGradient>
</defs>
</svg>
